<?xml version="1.0" encoding="utf-8" standalone="no"?>
<!DOCTYPE svg PUBLIC "-//W3C//DTD SVG 1.1//EN"
  "http://www.w3.org/Graphics/SVG/1.1/DTD/svg11.dtd">
<svg xmlns:xlink="http://www.w3.org/1999/xlink" width="1143.516875pt" height="566.889688pt" viewBox="0 0 1143.516875 566.889688" xmlns="http://www.w3.org/2000/svg" version="1.1">
 <metadata>
  <rdf:RDF xmlns:dc="http://purl.org/dc/elements/1.1/" xmlns:cc="http://creativecommons.org/ns#" xmlns:rdf="http://www.w3.org/1999/02/22-rdf-syntax-ns#">
   <cc:Work>
    <dc:type rdf:resource="http://purl.org/dc/dcmitype/StillImage"/>
    <dc:date>2025-12-23T23:18:53.322475</dc:date>
    <dc:format>image/svg+xml</dc:format>
    <dc:creator>
     <cc:Agent>
      <dc:title>Matplotlib v3.10.7, https://matplotlib.org/</dc:title>
     </cc:Agent>
    </dc:creator>
   </cc:Work>
  </rdf:RDF>
 </metadata>
 <defs>
  <style type="text/css">*{stroke-linejoin: round; stroke-linecap: butt}</style>
 </defs>
 <g id="figure_1">
  <g id="patch_1">
   <path d="M 0 566.889688 
L 1143.516875 566.889688 
L 1143.516875 0 
L 0 0 
z
" style="fill: #ffffff"/>
  </g>
  <g id="axes_1">
   <g id="patch_2">
    <path d="M 45.716875 527.397812 
L 1136.316875 527.397812 
L 1136.316875 23.837812 
L 45.716875 23.837812 
z
" style="fill: #fafafa"/>
   </g>
   <g id="patch_3">
    <path d="M 45.716875 527.397812 
L 182.041875 527.397812 
L 182.041875 23.837812 
L 45.716875 23.837812 
z
" clip-path="url(#p04e8c9a692)" style="fill: #3366cc; opacity: 0.08; stroke: #3366cc; stroke-linejoin: miter"/>
   </g>
   <g id="patch_4">
    <path d="M 182.041875 527.397812 
L 227.483542 527.397812 
L 227.483542 23.837812 
L 182.041875 23.837812 
z
" clip-path="url(#p04e8c9a692)" style="fill: #cc3333; opacity: 0.12; stroke: #cc3333; stroke-linejoin: miter"/>
   </g>
   <g id="patch_5">
    <path d="M 227.483542 527.397812 
L 1181.758542 527.397812 
L 1181.758542 23.837812 
L 227.483542 23.837812 
z
" clip-path="url(#p04e8c9a692)" style="fill: #33aa33; opacity: 0.06; stroke: #33aa33; stroke-linejoin: miter"/>
   </g>
   <g id="matplotlib.axis_1">
    <g id="xtick_1">
     <g id="line2d_1">
      <path d="M 45.716875 527.397812 
L 45.716875 23.837812 
" clip-path="url(#p04e8c9a692)" style="fill: none; stroke: #b0b0b0; stroke-opacity: 0.3; stroke-width: 0.8; stroke-linecap: square"/>
     </g>
     <g id="line2d_2">
      <defs>
       <path id="m2eaeeaa198" d="M 0 0 
L 0 3.5 
" style="stroke: #000000; stroke-width: 0.8"/>
      </defs>
      <g>
       <use xlink:href="#m2eaeeaa198" x="45.716875" y="527.397812" style="stroke: #000000; stroke-width: 0.8"/>
      </g>
     </g>
     <g id="text_1">
      <!-- 0 -->
      <g transform="translate(42.535625 541.99625) scale(0.1 -0.1)">
       <defs>
        <path id="DejaVuSans-30" d="M 2034 4250 
Q 1547 4250 1301 3770 
Q 1056 3291 1056 2328 
Q 1056 1369 1301 889 
Q 1547 409 2034 409 
Q 2525 409 2770 889 
Q 3016 1369 3016 2328 
Q 3016 3291 2770 3770 
Q 2525 4250 2034 4250 
z
M 2034 4750 
Q 2819 4750 3233 4129 
Q 3647 3509 3647 2328 
Q 3647 1150 3233 529 
Q 2819 -91 2034 -91 
Q 1250 -91 836 529 
Q 422 1150 422 2328 
Q 422 3509 836 4129 
Q 1250 4750 2034 4750 
z
" transform="scale(0.015625)"/>
       </defs>
       <use xlink:href="#DejaVuSans-30"/>
      </g>
     </g>
    </g>
    <g id="xtick_2">
     <g id="line2d_3">
      <path d="M 272.925208 527.397812 
L 272.925208 23.837812 
" clip-path="url(#p04e8c9a692)" style="fill: none; stroke: #b0b0b0; stroke-opacity: 0.3; stroke-width: 0.8; stroke-linecap: square"/>
     </g>
     <g id="line2d_4">
      <g>
       <use xlink:href="#m2eaeeaa198" x="272.925208" y="527.397812" style="stroke: #000000; stroke-width: 0.8"/>
      </g>
     </g>
     <g id="text_2">
      <!-- 5 -->
      <g transform="translate(269.743958 541.99625) scale(0.1 -0.1)">
       <defs>
        <path id="DejaVuSans-35" d="M 691 4666 
L 3169 4666 
L 3169 4134 
L 1269 4134 
L 1269 2991 
Q 1406 3038 1543 3061 
Q 1681 3084 1819 3084 
Q 2600 3084 3056 2656 
Q 3513 2228 3513 1497 
Q 3513 744 3044 326 
Q 2575 -91 1722 -91 
Q 1428 -91 1123 -41 
Q 819 9 494 109 
L 494 744 
Q 775 591 1075 516 
Q 1375 441 1709 441 
Q 2250 441 2565 725 
Q 2881 1009 2881 1497 
Q 2881 1984 2565 2268 
Q 2250 2553 1709 2553 
Q 1456 2553 1204 2497 
Q 953 2441 691 2322 
L 691 4666 
z
" transform="scale(0.015625)"/>
       </defs>
       <use xlink:href="#DejaVuSans-35"/>
      </g>
     </g>
    </g>
    <g id="xtick_3">
     <g id="line2d_5">
      <path d="M 500.133542 527.397812 
L 500.133542 23.837812 
" clip-path="url(#p04e8c9a692)" style="fill: none; stroke: #b0b0b0; stroke-opacity: 0.3; stroke-width: 0.8; stroke-linecap: square"/>
     </g>
     <g id="line2d_6">
      <g>
       <use xlink:href="#m2eaeeaa198" x="500.133542" y="527.397812" style="stroke: #000000; stroke-width: 0.8"/>
      </g>
     </g>
     <g id="text_3">
      <!-- 10 -->
      <g transform="translate(493.771042 541.99625) scale(0.1 -0.1)">
       <defs>
        <path id="DejaVuSans-31" d="M 794 531 
L 1825 531 
L 1825 4091 
L 703 3866 
L 703 4441 
L 1819 4666 
L 2450 4666 
L 2450 531 
L 3481 531 
L 3481 0 
L 794 0 
L 794 531 
z
" transform="scale(0.015625)"/>
       </defs>
       <use xlink:href="#DejaVuSans-31"/>
       <use xlink:href="#DejaVuSans-30" transform="translate(63.623047 0)"/>
      </g>
     </g>
    </g>
    <g id="xtick_4">
     <g id="line2d_7">
      <path d="M 727.341875 527.397812 
L 727.341875 23.837812 
" clip-path="url(#p04e8c9a692)" style="fill: none; stroke: #b0b0b0; stroke-opacity: 0.3; stroke-width: 0.8; stroke-linecap: square"/>
     </g>
     <g id="line2d_8">
      <g>
       <use xlink:href="#m2eaeeaa198" x="727.341875" y="527.397812" style="stroke: #000000; stroke-width: 0.8"/>
      </g>
     </g>
     <g id="text_4">
      <!-- 15 -->
      <g transform="translate(720.979375 541.99625) scale(0.1 -0.1)">
       <use xlink:href="#DejaVuSans-31"/>
       <use xlink:href="#DejaVuSans-35" transform="translate(63.623047 0)"/>
      </g>
     </g>
    </g>
    <g id="xtick_5">
     <g id="line2d_9">
      <path d="M 954.550208 527.397812 
L 954.550208 23.837812 
" clip-path="url(#p04e8c9a692)" style="fill: none; stroke: #b0b0b0; stroke-opacity: 0.3; stroke-width: 0.8; stroke-linecap: square"/>
     </g>
     <g id="line2d_10">
      <g>
       <use xlink:href="#m2eaeeaa198" x="954.550208" y="527.397812" style="stroke: #000000; stroke-width: 0.8"/>
      </g>
     </g>
     <g id="text_5">
      <!-- 20 -->
      <g transform="translate(948.187708 541.99625) scale(0.1 -0.1)">
       <defs>
        <path id="DejaVuSans-32" d="M 1228 531 
L 3431 531 
L 3431 0 
L 469 0 
L 469 531 
Q 828 903 1448 1529 
Q 2069 2156 2228 2338 
Q 2531 2678 2651 2914 
Q 2772 3150 2772 3378 
Q 2772 3750 2511 3984 
Q 2250 4219 1831 4219 
Q 1534 4219 1204 4116 
Q 875 4013 500 3803 
L 500 4441 
Q 881 4594 1212 4672 
Q 1544 4750 1819 4750 
Q 2544 4750 2975 4387 
Q 3406 4025 3406 3419 
Q 3406 3131 3298 2873 
Q 3191 2616 2906 2266 
Q 2828 2175 2409 1742 
Q 1991 1309 1228 531 
z
" transform="scale(0.015625)"/>
       </defs>
       <use xlink:href="#DejaVuSans-32"/>
       <use xlink:href="#DejaVuSans-30" transform="translate(63.623047 0)"/>
      </g>
     </g>
    </g>
    <g id="text_6">
     <!-- Probe Index -->
     <g transform="translate(550.347187 557.194063) scale(0.12 -0.12)">
      <defs>
       <path id="DejaVuSans-Bold-50" d="M 588 4666 
L 2584 4666 
Q 3475 4666 3951 4270 
Q 4428 3875 4428 3144 
Q 4428 2409 3951 2014 
Q 3475 1619 2584 1619 
L 1791 1619 
L 1791 0 
L 588 0 
L 588 4666 
z
M 1791 3794 
L 1791 2491 
L 2456 2491 
Q 2806 2491 2997 2661 
Q 3188 2831 3188 3144 
Q 3188 3456 2997 3625 
Q 2806 3794 2456 3794 
L 1791 3794 
z
" transform="scale(0.015625)"/>
       <path id="DejaVuSans-Bold-72" d="M 3138 2547 
Q 2991 2616 2845 2648 
Q 2700 2681 2553 2681 
Q 2122 2681 1889 2404 
Q 1656 2128 1656 1613 
L 1656 0 
L 538 0 
L 538 3500 
L 1656 3500 
L 1656 2925 
Q 1872 3269 2151 3426 
Q 2431 3584 2822 3584 
Q 2878 3584 2943 3579 
Q 3009 3575 3134 3559 
L 3138 2547 
z
" transform="scale(0.015625)"/>
       <path id="DejaVuSans-Bold-6f" d="M 2203 2784 
Q 1831 2784 1636 2517 
Q 1441 2250 1441 1747 
Q 1441 1244 1636 976 
Q 1831 709 2203 709 
Q 2569 709 2762 976 
Q 2956 1244 2956 1747 
Q 2956 2250 2762 2517 
Q 2569 2784 2203 2784 
z
M 2203 3584 
Q 3106 3584 3614 3096 
Q 4122 2609 4122 1747 
Q 4122 884 3614 396 
Q 3106 -91 2203 -91 
Q 1297 -91 786 396 
Q 275 884 275 1747 
Q 275 2609 786 3096 
Q 1297 3584 2203 3584 
z
" transform="scale(0.015625)"/>
       <path id="DejaVuSans-Bold-62" d="M 2400 722 
Q 2759 722 2948 984 
Q 3138 1247 3138 1747 
Q 3138 2247 2948 2509 
Q 2759 2772 2400 2772 
Q 2041 2772 1848 2508 
Q 1656 2244 1656 1747 
Q 1656 1250 1848 986 
Q 2041 722 2400 722 
z
M 1656 2988 
Q 1888 3294 2169 3439 
Q 2450 3584 2816 3584 
Q 3463 3584 3878 3070 
Q 4294 2556 4294 1747 
Q 4294 938 3878 423 
Q 3463 -91 2816 -91 
Q 2450 -91 2169 54 
Q 1888 200 1656 506 
L 1656 0 
L 538 0 
L 538 4863 
L 1656 4863 
L 1656 2988 
z
" transform="scale(0.015625)"/>
       <path id="DejaVuSans-Bold-65" d="M 4031 1759 
L 4031 1441 
L 1416 1441 
Q 1456 1047 1700 850 
Q 1944 653 2381 653 
Q 2734 653 3104 758 
Q 3475 863 3866 1075 
L 3866 213 
Q 3469 63 3072 -14 
Q 2675 -91 2278 -91 
Q 1328 -91 801 392 
Q 275 875 275 1747 
Q 275 2603 792 3093 
Q 1309 3584 2216 3584 
Q 3041 3584 3536 3087 
Q 4031 2591 4031 1759 
z
M 2881 2131 
Q 2881 2450 2695 2645 
Q 2509 2841 2209 2841 
Q 1884 2841 1681 2658 
Q 1478 2475 1428 2131 
L 2881 2131 
z
" transform="scale(0.015625)"/>
       <path id="DejaVuSans-Bold-20" transform="scale(0.015625)"/>
       <path id="DejaVuSans-Bold-49" d="M 588 4666 
L 1791 4666 
L 1791 0 
L 588 0 
L 588 4666 
z
" transform="scale(0.015625)"/>
       <path id="DejaVuSans-Bold-6e" d="M 4056 2131 
L 4056 0 
L 2931 0 
L 2931 347 
L 2931 1631 
Q 2931 2084 2911 2256 
Q 2891 2428 2841 2509 
Q 2775 2619 2662 2680 
Q 2550 2741 2406 2741 
Q 2056 2741 1856 2470 
Q 1656 2200 1656 1722 
L 1656 0 
L 538 0 
L 538 3500 
L 1656 3500 
L 1656 2988 
Q 1909 3294 2193 3439 
Q 2478 3584 2822 3584 
Q 3428 3584 3742 3212 
Q 4056 2841 4056 2131 
z
" transform="scale(0.015625)"/>
       <path id="DejaVuSans-Bold-64" d="M 2919 2988 
L 2919 4863 
L 4044 4863 
L 4044 0 
L 2919 0 
L 2919 506 
Q 2688 197 2409 53 
Q 2131 -91 1766 -91 
Q 1119 -91 703 423 
Q 288 938 288 1747 
Q 288 2556 703 3070 
Q 1119 3584 1766 3584 
Q 2128 3584 2408 3439 
Q 2688 3294 2919 2988 
z
M 2181 722 
Q 2541 722 2730 984 
Q 2919 1247 2919 1747 
Q 2919 2247 2730 2509 
Q 2541 2772 2181 2772 
Q 1825 2772 1636 2509 
Q 1447 2247 1447 1747 
Q 1447 1247 1636 984 
Q 1825 722 2181 722 
z
" transform="scale(0.015625)"/>
       <path id="DejaVuSans-Bold-78" d="M 1422 1791 
L 159 3500 
L 1344 3500 
L 2059 2463 
L 2784 3500 
L 3969 3500 
L 2706 1797 
L 4031 0 
L 2847 0 
L 2059 1106 
L 1281 0 
L 97 0 
L 1422 1791 
z
" transform="scale(0.015625)"/>
      </defs>
      <use xlink:href="#DejaVuSans-Bold-50"/>
      <use xlink:href="#DejaVuSans-Bold-72" transform="translate(73.291016 0)"/>
      <use xlink:href="#DejaVuSans-Bold-6f" transform="translate(122.607422 0)"/>
      <use xlink:href="#DejaVuSans-Bold-62" transform="translate(191.308594 0)"/>
      <use xlink:href="#DejaVuSans-Bold-65" transform="translate(262.890625 0)"/>
      <use xlink:href="#DejaVuSans-Bold-20" transform="translate(330.712891 0)"/>
      <use xlink:href="#DejaVuSans-Bold-49" transform="translate(365.527344 0)"/>
      <use xlink:href="#DejaVuSans-Bold-6e" transform="translate(402.734375 0)"/>
      <use xlink:href="#DejaVuSans-Bold-64" transform="translate(473.925781 0)"/>
      <use xlink:href="#DejaVuSans-Bold-65" transform="translate(545.507812 0)"/>
      <use xlink:href="#DejaVuSans-Bold-78" transform="translate(613.330078 0)"/>
     </g>
    </g>
   </g>
   <g id="matplotlib.axis_2">
    <g id="ytick_1">
     <g id="line2d_11">
      <path d="M 45.716875 527.397812 
L 1136.316875 527.397812 
" clip-path="url(#p04e8c9a692)" style="fill: none; stroke: #b0b0b0; stroke-opacity: 0.3; stroke-width: 0.8; stroke-linecap: square"/>
     </g>
     <g id="line2d_12">
      <defs>
       <path id="me3762300e6" d="M 0 0 
L -3.5 0 
" style="stroke: #000000; stroke-width: 0.8"/>
      </defs>
      <g>
       <use xlink:href="#me3762300e6" x="45.716875" y="527.397812" style="stroke: #000000; stroke-width: 0.8"/>
      </g>
     </g>
     <g id="text_7">
      <!-- 0.0 -->
      <g transform="translate(22.81375 531.197031) scale(0.1 -0.1)">
       <defs>
        <path id="DejaVuSans-2e" d="M 684 794 
L 1344 794 
L 1344 0 
L 684 0 
L 684 794 
z
" transform="scale(0.015625)"/>
       </defs>
       <use xlink:href="#DejaVuSans-30"/>
       <use xlink:href="#DejaVuSans-2e" transform="translate(63.623047 0)"/>
       <use xlink:href="#DejaVuSans-30" transform="translate(95.410156 0)"/>
      </g>
     </g>
    </g>
    <g id="ytick_2">
     <g id="line2d_13">
      <path d="M 45.716875 426.685812 
L 1136.316875 426.685812 
" clip-path="url(#p04e8c9a692)" style="fill: none; stroke: #b0b0b0; stroke-opacity: 0.3; stroke-width: 0.8; stroke-linecap: square"/>
     </g>
     <g id="line2d_14">
      <g>
       <use xlink:href="#me3762300e6" x="45.716875" y="426.685812" style="stroke: #000000; stroke-width: 0.8"/>
      </g>
     </g>
     <g id="text_8">
      <!-- 0.2 -->
      <g transform="translate(22.81375 430.485031) scale(0.1 -0.1)">
       <use xlink:href="#DejaVuSans-30"/>
       <use xlink:href="#DejaVuSans-2e" transform="translate(63.623047 0)"/>
       <use xlink:href="#DejaVuSans-32" transform="translate(95.410156 0)"/>
      </g>
     </g>
    </g>
    <g id="ytick_3">
     <g id="line2d_15">
      <path d="M 45.716875 325.973812 
L 1136.316875 325.973812 
" clip-path="url(#p04e8c9a692)" style="fill: none; stroke: #b0b0b0; stroke-opacity: 0.3; stroke-width: 0.8; stroke-linecap: square"/>
     </g>
     <g id="line2d_16">
      <g>
       <use xlink:href="#me3762300e6" x="45.716875" y="325.973812" style="stroke: #000000; stroke-width: 0.8"/>
      </g>
     </g>
     <g id="text_9">
      <!-- 0.4 -->
      <g transform="translate(22.81375 329.773031) scale(0.1 -0.1)">
       <defs>
        <path id="DejaVuSans-34" d="M 2419 4116 
L 825 1625 
L 2419 1625 
L 2419 4116 
z
M 2253 4666 
L 3047 4666 
L 3047 1625 
L 3713 1625 
L 3713 1100 
L 3047 1100 
L 3047 0 
L 2419 0 
L 2419 1100 
L 313 1100 
L 313 1709 
L 2253 4666 
z
" transform="scale(0.015625)"/>
       </defs>
       <use xlink:href="#DejaVuSans-30"/>
       <use xlink:href="#DejaVuSans-2e" transform="translate(63.623047 0)"/>
       <use xlink:href="#DejaVuSans-34" transform="translate(95.410156 0)"/>
      </g>
     </g>
    </g>
    <g id="ytick_4">
     <g id="line2d_17">
      <path d="M 45.716875 225.261812 
L 1136.316875 225.261812 
" clip-path="url(#p04e8c9a692)" style="fill: none; stroke: #b0b0b0; stroke-opacity: 0.3; stroke-width: 0.8; stroke-linecap: square"/>
     </g>
     <g id="line2d_18">
      <g>
       <use xlink:href="#me3762300e6" x="45.716875" y="225.261812" style="stroke: #000000; stroke-width: 0.8"/>
      </g>
     </g>
     <g id="text_10">
      <!-- 0.6 -->
      <g transform="translate(22.81375 229.061031) scale(0.1 -0.1)">
       <defs>
        <path id="DejaVuSans-36" d="M 2113 2584 
Q 1688 2584 1439 2293 
Q 1191 2003 1191 1497 
Q 1191 994 1439 701 
Q 1688 409 2113 409 
Q 2538 409 2786 701 
Q 3034 994 3034 1497 
Q 3034 2003 2786 2293 
Q 2538 2584 2113 2584 
z
M 3366 4563 
L 3366 3988 
Q 3128 4100 2886 4159 
Q 2644 4219 2406 4219 
Q 1781 4219 1451 3797 
Q 1122 3375 1075 2522 
Q 1259 2794 1537 2939 
Q 1816 3084 2150 3084 
Q 2853 3084 3261 2657 
Q 3669 2231 3669 1497 
Q 3669 778 3244 343 
Q 2819 -91 2113 -91 
Q 1303 -91 875 529 
Q 447 1150 447 2328 
Q 447 3434 972 4092 
Q 1497 4750 2381 4750 
Q 2619 4750 2861 4703 
Q 3103 4656 3366 4563 
z
" transform="scale(0.015625)"/>
       </defs>
       <use xlink:href="#DejaVuSans-30"/>
       <use xlink:href="#DejaVuSans-2e" transform="translate(63.623047 0)"/>
       <use xlink:href="#DejaVuSans-36" transform="translate(95.410156 0)"/>
      </g>
     </g>
    </g>
    <g id="ytick_5">
     <g id="line2d_19">
      <path d="M 45.716875 124.549812 
L 1136.316875 124.549812 
" clip-path="url(#p04e8c9a692)" style="fill: none; stroke: #b0b0b0; stroke-opacity: 0.3; stroke-width: 0.8; stroke-linecap: square"/>
     </g>
     <g id="line2d_20">
      <g>
       <use xlink:href="#me3762300e6" x="45.716875" y="124.549812" style="stroke: #000000; stroke-width: 0.8"/>
      </g>
     </g>
     <g id="text_11">
      <!-- 0.8 -->
      <g transform="translate(22.81375 128.349031) scale(0.1 -0.1)">
       <defs>
        <path id="DejaVuSans-38" d="M 2034 2216 
Q 1584 2216 1326 1975 
Q 1069 1734 1069 1313 
Q 1069 891 1326 650 
Q 1584 409 2034 409 
Q 2484 409 2743 651 
Q 3003 894 3003 1313 
Q 3003 1734 2745 1975 
Q 2488 2216 2034 2216 
z
M 1403 2484 
Q 997 2584 770 2862 
Q 544 3141 544 3541 
Q 544 4100 942 4425 
Q 1341 4750 2034 4750 
Q 2731 4750 3128 4425 
Q 3525 4100 3525 3541 
Q 3525 3141 3298 2862 
Q 3072 2584 2669 2484 
Q 3125 2378 3379 2068 
Q 3634 1759 3634 1313 
Q 3634 634 3220 271 
Q 2806 -91 2034 -91 
Q 1263 -91 848 271 
Q 434 634 434 1313 
Q 434 1759 690 2068 
Q 947 2378 1403 2484 
z
M 1172 3481 
Q 1172 3119 1398 2916 
Q 1625 2713 2034 2713 
Q 2441 2713 2670 2916 
Q 2900 3119 2900 3481 
Q 2900 3844 2670 4047 
Q 2441 4250 2034 4250 
Q 1625 4250 1398 4047 
Q 1172 3844 1172 3481 
z
" transform="scale(0.015625)"/>
       </defs>
       <use xlink:href="#DejaVuSans-30"/>
       <use xlink:href="#DejaVuSans-2e" transform="translate(63.623047 0)"/>
       <use xlink:href="#DejaVuSans-38" transform="translate(95.410156 0)"/>
      </g>
     </g>
    </g>
    <g id="ytick_6">
     <g id="line2d_21">
      <path d="M 45.716875 23.837812 
L 1136.316875 23.837812 
" clip-path="url(#p04e8c9a692)" style="fill: none; stroke: #b0b0b0; stroke-opacity: 0.3; stroke-width: 0.8; stroke-linecap: square"/>
     </g>
     <g id="line2d_22">
      <g>
       <use xlink:href="#me3762300e6" x="45.716875" y="23.837812" style="stroke: #000000; stroke-width: 0.8"/>
      </g>
     </g>
     <g id="text_12">
      <!-- 1.0 -->
      <g transform="translate(22.81375 27.637031) scale(0.1 -0.1)">
       <use xlink:href="#DejaVuSans-31"/>
       <use xlink:href="#DejaVuSans-2e" transform="translate(63.623047 0)"/>
       <use xlink:href="#DejaVuSans-30" transform="translate(95.410156 0)"/>
      </g>
     </g>
    </g>
    <g id="text_13">
     <!-- Cosine Distance from Baseline -->
     <g transform="translate(16.318125 378.4625) rotate(-90) scale(0.12 -0.12)">
      <defs>
       <path id="DejaVuSans-Bold-43" d="M 4288 256 
Q 3956 84 3597 -3 
Q 3238 -91 2847 -91 
Q 1681 -91 1000 561 
Q 319 1213 319 2328 
Q 319 3447 1000 4098 
Q 1681 4750 2847 4750 
Q 3238 4750 3597 4662 
Q 3956 4575 4288 4403 
L 4288 3438 
Q 3953 3666 3628 3772 
Q 3303 3878 2944 3878 
Q 2300 3878 1931 3465 
Q 1563 3053 1563 2328 
Q 1563 1606 1931 1193 
Q 2300 781 2944 781 
Q 3303 781 3628 887 
Q 3953 994 4288 1222 
L 4288 256 
z
" transform="scale(0.015625)"/>
       <path id="DejaVuSans-Bold-73" d="M 3272 3391 
L 3272 2541 
Q 2913 2691 2578 2766 
Q 2244 2841 1947 2841 
Q 1628 2841 1473 2761 
Q 1319 2681 1319 2516 
Q 1319 2381 1436 2309 
Q 1553 2238 1856 2203 
L 2053 2175 
Q 2913 2066 3209 1816 
Q 3506 1566 3506 1031 
Q 3506 472 3093 190 
Q 2681 -91 1863 -91 
Q 1516 -91 1145 -36 
Q 775 19 384 128 
L 384 978 
Q 719 816 1070 734 
Q 1422 653 1784 653 
Q 2113 653 2278 743 
Q 2444 834 2444 1013 
Q 2444 1163 2330 1236 
Q 2216 1309 1875 1350 
L 1678 1375 
Q 931 1469 631 1722 
Q 331 1975 331 2491 
Q 331 3047 712 3315 
Q 1094 3584 1881 3584 
Q 2191 3584 2531 3537 
Q 2872 3491 3272 3391 
z
" transform="scale(0.015625)"/>
       <path id="DejaVuSans-Bold-69" d="M 538 3500 
L 1656 3500 
L 1656 0 
L 538 0 
L 538 3500 
z
M 538 4863 
L 1656 4863 
L 1656 3950 
L 538 3950 
L 538 4863 
z
" transform="scale(0.015625)"/>
       <path id="DejaVuSans-Bold-44" d="M 1791 3756 
L 1791 909 
L 2222 909 
Q 2959 909 3348 1275 
Q 3738 1641 3738 2338 
Q 3738 3031 3350 3393 
Q 2963 3756 2222 3756 
L 1791 3756 
z
M 588 4666 
L 1856 4666 
Q 2919 4666 3439 4514 
Q 3959 4363 4331 4000 
Q 4659 3684 4818 3271 
Q 4978 2859 4978 2338 
Q 4978 1809 4818 1395 
Q 4659 981 4331 666 
Q 3956 303 3431 151 
Q 2906 0 1856 0 
L 588 0 
L 588 4666 
z
" transform="scale(0.015625)"/>
       <path id="DejaVuSans-Bold-74" d="M 1759 4494 
L 1759 3500 
L 2913 3500 
L 2913 2700 
L 1759 2700 
L 1759 1216 
Q 1759 972 1856 886 
Q 1953 800 2241 800 
L 2816 800 
L 2816 0 
L 1856 0 
Q 1194 0 917 276 
Q 641 553 641 1216 
L 641 2700 
L 84 2700 
L 84 3500 
L 641 3500 
L 641 4494 
L 1759 4494 
z
" transform="scale(0.015625)"/>
       <path id="DejaVuSans-Bold-61" d="M 2106 1575 
Q 1756 1575 1579 1456 
Q 1403 1338 1403 1106 
Q 1403 894 1545 773 
Q 1688 653 1941 653 
Q 2256 653 2472 879 
Q 2688 1106 2688 1447 
L 2688 1575 
L 2106 1575 
z
M 3816 1997 
L 3816 0 
L 2688 0 
L 2688 519 
Q 2463 200 2181 54 
Q 1900 -91 1497 -91 
Q 953 -91 614 226 
Q 275 544 275 1050 
Q 275 1666 698 1953 
Q 1122 2241 2028 2241 
L 2688 2241 
L 2688 2328 
Q 2688 2594 2478 2717 
Q 2269 2841 1825 2841 
Q 1466 2841 1156 2769 
Q 847 2697 581 2553 
L 581 3406 
Q 941 3494 1303 3539 
Q 1666 3584 2028 3584 
Q 2975 3584 3395 3211 
Q 3816 2838 3816 1997 
z
" transform="scale(0.015625)"/>
       <path id="DejaVuSans-Bold-63" d="M 3366 3391 
L 3366 2478 
Q 3138 2634 2908 2709 
Q 2678 2784 2431 2784 
Q 1963 2784 1702 2511 
Q 1441 2238 1441 1747 
Q 1441 1256 1702 982 
Q 1963 709 2431 709 
Q 2694 709 2930 787 
Q 3166 866 3366 1019 
L 3366 103 
Q 3103 6 2833 -42 
Q 2563 -91 2291 -91 
Q 1344 -91 809 395 
Q 275 881 275 1747 
Q 275 2613 809 3098 
Q 1344 3584 2291 3584 
Q 2566 3584 2833 3536 
Q 3100 3488 3366 3391 
z
" transform="scale(0.015625)"/>
       <path id="DejaVuSans-Bold-66" d="M 2841 4863 
L 2841 4128 
L 2222 4128 
Q 1984 4128 1890 4042 
Q 1797 3956 1797 3744 
L 1797 3500 
L 2753 3500 
L 2753 2700 
L 1797 2700 
L 1797 0 
L 678 0 
L 678 2700 
L 122 2700 
L 122 3500 
L 678 3500 
L 678 3744 
Q 678 4316 997 4589 
Q 1316 4863 1984 4863 
L 2841 4863 
z
" transform="scale(0.015625)"/>
       <path id="DejaVuSans-Bold-6d" d="M 3781 2919 
Q 3994 3244 4286 3414 
Q 4578 3584 4928 3584 
Q 5531 3584 5847 3212 
Q 6163 2841 6163 2131 
L 6163 0 
L 5038 0 
L 5038 1825 
Q 5041 1866 5042 1909 
Q 5044 1953 5044 2034 
Q 5044 2406 4934 2573 
Q 4825 2741 4581 2741 
Q 4263 2741 4089 2478 
Q 3916 2216 3909 1719 
L 3909 0 
L 2784 0 
L 2784 1825 
Q 2784 2406 2684 2573 
Q 2584 2741 2328 2741 
Q 2006 2741 1831 2477 
Q 1656 2213 1656 1722 
L 1656 0 
L 531 0 
L 531 3500 
L 1656 3500 
L 1656 2988 
Q 1863 3284 2130 3434 
Q 2397 3584 2719 3584 
Q 3081 3584 3359 3409 
Q 3638 3234 3781 2919 
z
" transform="scale(0.015625)"/>
       <path id="DejaVuSans-Bold-42" d="M 2456 2859 
Q 2741 2859 2887 2984 
Q 3034 3109 3034 3353 
Q 3034 3594 2887 3720 
Q 2741 3847 2456 3847 
L 1791 3847 
L 1791 2859 
L 2456 2859 
z
M 2497 819 
Q 2859 819 3042 972 
Q 3225 1125 3225 1434 
Q 3225 1738 3044 1889 
Q 2863 2041 2497 2041 
L 1791 2041 
L 1791 819 
L 2497 819 
z
M 3616 2497 
Q 4003 2384 4215 2081 
Q 4428 1778 4428 1338 
Q 4428 663 3972 331 
Q 3516 0 2584 0 
L 588 0 
L 588 4666 
L 2394 4666 
Q 3366 4666 3802 4372 
Q 4238 4078 4238 3431 
Q 4238 3091 4078 2852 
Q 3919 2613 3616 2497 
z
" transform="scale(0.015625)"/>
       <path id="DejaVuSans-Bold-6c" d="M 538 4863 
L 1656 4863 
L 1656 0 
L 538 0 
L 538 4863 
z
" transform="scale(0.015625)"/>
      </defs>
      <use xlink:href="#DejaVuSans-Bold-43"/>
      <use xlink:href="#DejaVuSans-Bold-6f" transform="translate(73.388672 0)"/>
      <use xlink:href="#DejaVuSans-Bold-73" transform="translate(142.089844 0)"/>
      <use xlink:href="#DejaVuSans-Bold-69" transform="translate(201.611328 0)"/>
      <use xlink:href="#DejaVuSans-Bold-6e" transform="translate(235.888672 0)"/>
      <use xlink:href="#DejaVuSans-Bold-65" transform="translate(307.080078 0)"/>
      <use xlink:href="#DejaVuSans-Bold-20" transform="translate(374.902344 0)"/>
      <use xlink:href="#DejaVuSans-Bold-44" transform="translate(409.716797 0)"/>
      <use xlink:href="#DejaVuSans-Bold-69" transform="translate(492.724609 0)"/>
      <use xlink:href="#DejaVuSans-Bold-73" transform="translate(527.001953 0)"/>
      <use xlink:href="#DejaVuSans-Bold-74" transform="translate(586.523438 0)"/>
      <use xlink:href="#DejaVuSans-Bold-61" transform="translate(634.326172 0)"/>
      <use xlink:href="#DejaVuSans-Bold-6e" transform="translate(701.806641 0)"/>
      <use xlink:href="#DejaVuSans-Bold-63" transform="translate(772.998047 0)"/>
      <use xlink:href="#DejaVuSans-Bold-65" transform="translate(832.275391 0)"/>
      <use xlink:href="#DejaVuSans-Bold-20" transform="translate(900.097656 0)"/>
      <use xlink:href="#DejaVuSans-Bold-66" transform="translate(934.912109 0)"/>
      <use xlink:href="#DejaVuSans-Bold-72" transform="translate(978.417969 0)"/>
      <use xlink:href="#DejaVuSans-Bold-6f" transform="translate(1027.734375 0)"/>
      <use xlink:href="#DejaVuSans-Bold-6d" transform="translate(1096.435547 0)"/>
      <use xlink:href="#DejaVuSans-Bold-20" transform="translate(1200.634766 0)"/>
      <use xlink:href="#DejaVuSans-Bold-42" transform="translate(1235.449219 0)"/>
      <use xlink:href="#DejaVuSans-Bold-61" transform="translate(1311.669922 0)"/>
      <use xlink:href="#DejaVuSans-Bold-73" transform="translate(1379.150391 0)"/>
      <use xlink:href="#DejaVuSans-Bold-65" transform="translate(1438.671875 0)"/>
      <use xlink:href="#DejaVuSans-Bold-6c" transform="translate(1506.494141 0)"/>
      <use xlink:href="#DejaVuSans-Bold-69" transform="translate(1540.771484 0)"/>
      <use xlink:href="#DejaVuSans-Bold-6e" transform="translate(1575.048828 0)"/>
      <use xlink:href="#DejaVuSans-Bold-65" transform="translate(1646.240234 0)"/>
     </g>
    </g>
   </g>
   <g id="line2d_23">
    <path d="M 45.716875 527.397812 
L 91.158542 527.397812 
L 136.600208 527.397812 
L 182.041875 285.371377 
L 227.483542 319.663992 
L 272.925208 321.580154 
L 318.366875 374.62054 
L 363.808542 291.400362 
L 409.250208 374.001708 
L 454.691875 355.163811 
L 500.133542 340.914018 
L 545.575208 335.077265 
L 591.016875 363.064148 
L 636.458542 352.002038 
L 681.900208 388.823729 
L 727.341875 360.485566 
L 772.783542 329.820588 
L 818.225208 347.261731 
L 863.666875 369.528496 
L 909.108542 330.075501 
L 954.550208 376.096585 
L 999.991875 365.255151 
L 1045.433542 349.872531 
L 1090.875208 350.097458 
L 1136.316875 350.097458 
" clip-path="url(#p04e8c9a692)" style="fill: none; stroke: #e07b53; stroke-opacity: 0.7; stroke-width: 1.5; stroke-linecap: square"/>
   </g>
   <g id="line2d_24">
    <path d="M 45.716875 527.397812 
L 91.158542 527.397812 
L 136.600208 527.397812 
L 182.041875 424.929878 
L 227.483542 432.727765 
L 272.925208 440.888436 
L 318.366875 423.791368 
L 363.808542 432.922422 
L 409.250208 435.311549 
L 454.691875 434.431289 
L 500.133542 429.615416 
L 545.575208 433.946038 
L 591.016875 428.429944 
L 636.458542 434.395779 
L 681.900208 430.379856 
L 727.341875 431.512138 
L 772.783542 434.2177 
L 818.225208 433.281568 
L 863.666875 431.660843 
L 909.108542 433.474483 
L 954.550208 434.535909 
L 999.991875 433.826961 
L 1045.433542 432.426875 
L 1090.875208 432.426875 
L 1136.316875 432.426875 
" clip-path="url(#p04e8c9a692)" style="fill: none; stroke: #e07b53; stroke-opacity: 0.7; stroke-width: 1.5; stroke-linecap: square"/>
   </g>
   <g id="line2d_25">
    <path d="M 45.716875 527.397812 
L 91.158542 527.397812 
L 136.600208 527.397812 
L 182.041875 301.546141 
L 227.483542 273.683237 
L 272.925208 295.114945 
L 318.366875 274.1487 
L 363.808542 338.903726 
L 409.250208 338.629144 
L 454.691875 337.013516 
L 500.133542 315.823972 
L 545.575208 313.824262 
L 591.016875 290.121765 
L 636.458542 321.059248 
L 681.900208 323.640468 
L 727.341875 323.372419 
L 772.783542 295.746432 
L 818.225208 311.080712 
L 863.666875 301.396997 
L 909.108542 325.02034 
L 954.550208 326.816913 
L 999.991875 316.62421 
L 1045.433542 316.133721 
L 1090.875208 312.596373 
L 1136.316875 312.596373 
" clip-path="url(#p04e8c9a692)" style="fill: none; stroke: #4285f4; stroke-opacity: 0.7; stroke-width: 1.5; stroke-linecap: square"/>
   </g>
   <g id="line2d_26">
    <path d="M 45.716875 527.397812 
L 91.158542 527.397812 
L 136.600208 527.397812 
L 182.041875 333.180311 
L 227.483542 327.429899 
L 272.925208 315.51845 
L 318.366875 360.178632 
L 363.808542 342.818097 
L 409.250208 376.31351 
L 454.691875 372.017959 
L 500.133542 362.472022 
L 545.575208 328.348658 
L 591.016875 350.734347 
L 636.458542 359.965418 
L 681.900208 365.942739 
L 727.341875 355.002275 
L 772.783542 349.290193 
L 818.225208 350.095048 
L 863.666875 355.563462 
L 909.108542 350.784715 
L 954.550208 355.451562 
L 999.991875 355.595016 
L 1045.433542 352.280897 
L 1090.875208 346.271466 
L 1136.316875 346.271466 
" clip-path="url(#p04e8c9a692)" style="fill: none; stroke: #4285f4; stroke-opacity: 0.7; stroke-width: 1.5; stroke-linecap: square"/>
   </g>
   <g id="line2d_27">
    <path d="M 45.716875 527.397812 
L 91.158542 527.397812 
L 136.600208 527.397812 
L 182.041875 368.00524 
L 227.483542 345.95262 
L 272.925208 360.389374 
L 318.366875 393.574452 
L 363.808542 392.508352 
L 409.250208 401.103746 
L 454.691875 381.930737 
L 500.133542 396.641627 
L 545.575208 395.776109 
L 591.016875 391.058169 
L 636.458542 397.616825 
L 681.900208 397.478216 
L 727.341875 396.7959 
L 772.783542 393.459561 
L 818.225208 394.698144 
L 863.666875 395.730584 
L 909.108542 396.507834 
L 954.550208 396.507834 
L 999.991875 396.507834 
L 1045.433542 396.507834 
L 1090.875208 396.507834 
L 1136.316875 396.507834 
" clip-path="url(#p04e8c9a692)" style="fill: none; stroke: #4285f4; stroke-opacity: 0.7; stroke-width: 1.5; stroke-linecap: square"/>
   </g>
   <g id="line2d_28">
    <path d="M 45.716875 527.397812 
L 91.158542 527.397812 
L 136.600208 527.397812 
L 182.041875 269.3831 
L 227.483542 165.387744 
L 272.925208 226.73728 
L 318.366875 233.853771 
L 363.808542 232.584833 
L 409.250208 311.769792 
L 454.691875 317.623251 
L 500.133542 196.462417 
L 545.575208 222.347014 
L 591.016875 186.171069 
L 636.458542 319.111632 
L 681.900208 274.773476 
L 727.341875 228.203515 
L 772.783542 186.682397 
L 818.225208 229.15806 
L 863.666875 231.363751 
L 909.108542 232.33892 
L 954.550208 301.335625 
L 999.991875 291.569676 
L 1045.433542 205.353685 
L 1090.875208 221.215633 
L 1136.316875 221.215633 
" clip-path="url(#p04e8c9a692)" style="fill: none; stroke: #10a37f; stroke-opacity: 0.7; stroke-width: 1.5; stroke-linecap: square"/>
   </g>
   <g id="line2d_29">
    <path d="M 45.716875 527.397812 
L 91.158542 527.397812 
L 136.600208 527.397812 
L 182.041875 198.289793 
L 227.483542 117.052018 
L 272.925208 211.473643 
L 318.366875 219.652272 
L 363.808542 202.417436 
L 409.250208 380.681399 
L 454.691875 356.487982 
L 500.133542 170.232203 
L 545.575208 178.46887 
L 591.016875 179.86745 
L 636.458542 355.634607 
L 681.900208 304.894196 
L 727.341875 164.510825 
L 772.783542 118.927472 
L 818.225208 201.778844 
L 863.666875 224.300715 
L 909.108542 200.708273 
L 954.550208 374.265585 
L 999.991875 360.933531 
L 1045.433542 171.365198 
L 1090.875208 175.041584 
L 1136.316875 175.041584 
" clip-path="url(#p04e8c9a692)" style="fill: none; stroke: #10a37f; stroke-opacity: 0.7; stroke-width: 1.5; stroke-linecap: square"/>
   </g>
   <g id="line2d_30">
    <path d="M 45.716875 527.397812 
L 91.158542 527.397812 
L 136.600208 527.397812 
L 182.041875 274.415009 
L 227.483542 153.481329 
L 272.925208 206.319004 
L 318.366875 225.390319 
L 363.808542 182.226706 
L 409.250208 303.126272 
L 454.691875 263.804952 
L 500.133542 200.548619 
L 545.575208 189.974293 
L 591.016875 194.976633 
L 636.458542 236.603722 
L 681.900208 227.368594 
L 727.341875 200.914191 
L 772.783542 179.939703 
L 818.225208 200.350052 
L 863.666875 213.411448 
L 909.108542 200.360228 
L 954.550208 248.690519 
L 999.991875 227.006132 
L 1045.433542 206.3936 
L 1090.875208 198.577406 
L 1136.316875 198.577406 
" clip-path="url(#p04e8c9a692)" style="fill: none; stroke: #10a37f; stroke-opacity: 0.7; stroke-width: 1.5; stroke-linecap: square"/>
   </g>
   <g id="line2d_31">
    <path d="M 45.716875 527.397812 
L 91.158542 527.397812 
L 136.600208 527.397812 
L 182.041875 397.038399 
L 227.483542 275.306583 
L 272.925208 190.284568 
L 318.366875 284.053646 
L 363.808542 247.00727 
L 409.250208 458.345172 
L 454.691875 432.024399 
L 500.133542 267.185457 
L 545.575208 197.765246 
L 591.016875 282.472549 
L 636.458542 408.690488 
L 681.900208 378.683032 
L 727.341875 299.481344 
L 772.783542 281.623339 
L 818.225208 201.836148 
L 863.666875 294.217235 
L 909.108542 253.529297 
L 954.550208 437.748844 
L 999.991875 404.501513 
L 1045.433542 269.626608 
L 1090.875208 208.928826 
L 1136.316875 208.928826 
" clip-path="url(#p04e8c9a692)" style="fill: none; stroke: #10a37f; stroke-opacity: 0.7; stroke-width: 1.5; stroke-linecap: square"/>
   </g>
   <g id="line2d_32">
    <path d="M 45.716875 527.397812 
L 91.158542 527.397812 
L 136.600208 527.397812 
L 182.041875 310.86325 
L 227.483542 241.028429 
L 272.925208 216.221361 
L 318.366875 247.439108 
L 363.808542 206.820845 
L 409.250208 206.820845 
L 454.691875 206.820845 
L 500.133542 206.820845 
L 545.575208 206.820845 
L 591.016875 206.820845 
L 636.458542 206.820845 
L 681.900208 206.820845 
L 727.341875 206.820845 
L 772.783542 206.820845 
L 818.225208 206.820845 
L 863.666875 206.820845 
L 909.108542 206.820845 
L 954.550208 206.820845 
L 999.991875 206.820845 
L 1045.433542 206.820845 
L 1090.875208 206.820845 
L 1136.316875 206.820845 
" clip-path="url(#p04e8c9a692)" style="fill: none; stroke: #7c3aed; stroke-opacity: 0.7; stroke-width: 1.5; stroke-linecap: square"/>
   </g>
   <g id="line2d_33">
    <path d="M 45.716875 527.397812 
L 91.158542 527.397812 
L 136.600208 527.397812 
L 182.041875 328.54665 
L 227.483542 368.825954 
L 272.925208 429.536164 
L 318.366875 433.191559 
L 363.808542 425.807283 
L 409.250208 429.895471 
L 454.691875 429.895471 
L 500.133542 429.895471 
L 545.575208 429.895471 
L 591.016875 429.895471 
L 636.458542 429.895471 
L 681.900208 429.895471 
L 727.341875 429.895471 
L 772.783542 429.895471 
L 818.225208 429.895471 
L 863.666875 429.895471 
L 909.108542 429.895471 
L 954.550208 429.895471 
L 999.991875 429.895471 
L 1045.433542 429.895471 
L 1090.875208 429.895471 
L 1136.316875 429.895471 
" clip-path="url(#p04e8c9a692)" style="fill: none; stroke: #7c3aed; stroke-opacity: 0.7; stroke-width: 1.5; stroke-linecap: square"/>
   </g>
   <g id="line2d_34">
    <path d="M 45.716875 527.397812 
L 91.158542 527.397812 
L 136.600208 527.397812 
L 182.041875 274.982826 
L 227.483542 293.579549 
L 272.925208 313.69193 
L 318.366875 331.747421 
L 363.808542 331.747421 
L 409.250208 331.747421 
L 454.691875 331.747421 
L 500.133542 331.747421 
L 545.575208 331.747421 
L 591.016875 331.747421 
L 636.458542 331.747421 
L 681.900208 331.747421 
L 727.341875 331.747421 
L 772.783542 331.747421 
L 818.225208 331.747421 
L 863.666875 331.747421 
L 909.108542 331.747421 
L 954.550208 331.747421 
L 999.991875 331.747421 
L 1045.433542 331.747421 
L 1090.875208 331.747421 
L 1136.316875 331.747421 
" clip-path="url(#p04e8c9a692)" style="fill: none; stroke: #7c3aed; stroke-opacity: 0.7; stroke-width: 1.5; stroke-linecap: square"/>
   </g>
   <g id="line2d_35">
    <path d="M 45.716875 527.397812 
L 91.158542 527.397812 
L 136.600208 527.397812 
L 182.041875 348.199386 
L 227.483542 252.764809 
L 272.925208 337.727466 
L 318.366875 348.529077 
L 363.808542 338.030332 
L 409.250208 375.65647 
L 454.691875 368.350209 
L 500.133542 355.1659 
L 545.575208 350.492307 
L 591.016875 347.270862 
L 636.458542 365.187313 
L 681.900208 356.518255 
L 727.341875 352.397556 
L 772.783542 339.496137 
L 818.225208 356.378679 
L 863.666875 356.188853 
L 909.108542 355.23657 
L 954.550208 361.922895 
L 999.991875 360.93761 
L 1045.433542 360.649385 
L 1090.875208 360.857912 
L 1136.316875 360.857912 
" clip-path="url(#p04e8c9a692)" style="fill: none; stroke: #7c3aed; stroke-opacity: 0.7; stroke-width: 1.5; stroke-linecap: square"/>
   </g>
   <g id="line2d_36">
    <path d="M 45.716875 527.397812 
L 91.158542 527.397812 
L 136.600208 527.397812 
L 182.041875 280.154311 
L 227.483542 305.161548 
L 272.925208 294.851468 
L 318.366875 373.035741 
L 363.808542 351.063564 
L 409.250208 378.838457 
L 454.691875 361.504751 
L 500.133542 363.866408 
L 545.575208 364.68253 
L 591.016875 349.409373 
L 636.458542 365.663169 
L 681.900208 361.597315 
L 727.341875 357.559633 
L 772.783542 356.728395 
L 818.225208 356.10862 
L 863.666875 358.59715 
L 909.108542 357.882213 
L 954.550208 359.795437 
L 999.991875 358.0942 
L 1045.433542 358.761256 
L 1090.875208 359.411281 
L 1136.316875 359.411281 
" clip-path="url(#p04e8c9a692)" style="fill: none; stroke: #7c3aed; stroke-opacity: 0.7; stroke-width: 1.5; stroke-linecap: square"/>
   </g>
   <g id="line2d_37">
    <path d="M 45.716875 527.397812 
L 91.158542 527.397812 
L 136.600208 527.397812 
L 182.041875 261.726441 
L 227.483542 273.839521 
L 272.925208 355.609851 
L 318.366875 341.379453 
L 363.808542 300.929527 
L 409.250208 384.519353 
L 454.691875 315.362555 
L 500.133542 292.598117 
L 545.575208 329.953555 
L 591.016875 326.883318 
L 636.458542 345.649697 
L 681.900208 334.262447 
L 727.341875 333.064761 
L 772.783542 320.002336 
L 818.225208 337.974909 
L 863.666875 334.502598 
L 909.108542 323.913669 
L 954.550208 342.394732 
L 999.991875 328.371597 
L 1045.433542 323.861655 
L 1090.875208 333.572289 
L 1136.316875 333.572289 
" clip-path="url(#p04e8c9a692)" style="fill: none; stroke: #7c3aed; stroke-opacity: 0.7; stroke-width: 1.5; stroke-linecap: square"/>
   </g>
   <g id="line2d_38">
    <path d="M 45.716875 527.397812 
L 91.158542 527.397812 
L 136.600208 527.397812 
L 182.041875 312.882753 
L 227.483542 266.362764 
L 272.925208 300.928922 
L 318.366875 273.823476 
L 363.808542 294.449768 
L 409.250208 326.433628 
L 454.691875 312.438323 
L 500.133542 303.701383 
L 545.575208 259.560281 
L 591.016875 248.939785 
L 636.458542 322.884684 
L 681.900208 295.441123 
L 727.341875 321.554781 
L 772.783542 265.229073 
L 818.225208 290.897487 
L 863.666875 273.240568 
L 909.108542 293.689501 
L 954.550208 320.038376 
L 999.991875 308.194846 
L 1045.433542 301.928378 
L 1090.875208 262.158555 
L 1136.316875 262.158555 
" clip-path="url(#p04e8c9a692)" style="fill: none; stroke: #7c3aed; stroke-opacity: 0.7; stroke-width: 1.5; stroke-linecap: square"/>
   </g>
   <g id="line2d_39">
    <path d="M 45.716875 527.397812 
L 91.158542 527.397812 
L 136.600208 527.397812 
L 182.041875 304.02146 
L 227.483542 240.978645 
L 272.925208 255.972803 
L 318.366875 362.582774 
L 363.808542 260.706234 
L 409.250208 405.077688 
L 454.691875 393.504929 
L 500.133542 303.646722 
L 545.575208 316.475895 
L 591.016875 211.345753 
L 636.458542 331.800748 
L 681.900208 389.791962 
L 727.341875 380.618272 
L 772.783542 248.354597 
L 818.225208 287.93917 
L 863.666875 359.042569 
L 909.108542 268.998613 
L 954.550208 402.781761 
L 999.991875 392.360421 
L 1045.433542 313.448968 
L 1090.875208 319.924344 
L 1136.316875 319.924344 
" clip-path="url(#p04e8c9a692)" style="fill: none; stroke: #7c3aed; stroke-opacity: 0.7; stroke-width: 1.5; stroke-linecap: square"/>
   </g>
   <g id="line2d_40">
    <path d="M 45.716875 527.397812 
L 91.158542 527.397812 
L 136.600208 527.397812 
L 182.041875 298.858081 
L 227.483542 284.795025 
L 272.925208 312.221471 
L 318.366875 339.102913 
L 363.808542 298.306714 
L 409.250208 346.883688 
L 454.691875 332.824999 
L 500.133542 340.436296 
L 545.575208 323.615533 
L 591.016875 314.260889 
L 636.458542 332.157519 
L 681.900208 329.685879 
L 727.341875 332.263385 
L 772.783542 323.018798 
L 818.225208 323.788522 
L 863.666875 330.426847 
L 909.108542 322.087595 
L 954.550208 331.225931 
L 999.991875 326.864153 
L 1045.433542 330.229548 
L 1090.875208 328.515936 
L 1136.316875 328.515936 
" clip-path="url(#p04e8c9a692)" style="fill: none; stroke: #7c3aed; stroke-opacity: 0.7; stroke-width: 1.5; stroke-linecap: square"/>
   </g>
   <g id="line2d_41">
    <path d="M 45.716875 527.397812 
L 91.158542 527.397812 
L 136.600208 527.397812 
L 182.041875 312.506353 
L 227.483542 227.244991 
L 272.925208 305.314957 
L 318.366875 330.424566 
L 363.808542 294.997132 
L 409.250208 366.232942 
L 454.691875 358.776923 
L 500.133542 324.010616 
L 545.575208 335.021841 
L 591.016875 313.223179 
L 636.458542 355.973045 
L 681.900208 339.56864 
L 727.341875 333.300413 
L 772.783542 311.59647 
L 818.225208 321.039143 
L 863.666875 334.7522 
L 909.108542 328.38482 
L 954.550208 342.537938 
L 999.991875 340.495616 
L 1045.433542 328.577649 
L 1090.875208 333.591982 
L 1136.316875 333.591982 
" clip-path="url(#p04e8c9a692)" style="fill: none; stroke: #7c3aed; stroke-opacity: 0.7; stroke-width: 1.5; stroke-linecap: square"/>
   </g>
   <g id="line2d_42">
    <path d="M 45.716875 527.397812 
L 91.158542 527.397812 
L 136.600208 527.397812 
L 182.041875 334.863221 
L 227.483542 256.028736 
L 272.925208 350.000167 
L 318.366875 371.562725 
L 363.808542 335.973753 
L 409.250208 391.785874 
L 454.691875 381.289469 
L 500.133542 371.587611 
L 545.575208 318.502854 
L 591.016875 370.429299 
L 636.458542 393.777305 
L 681.900208 376.643618 
L 727.341875 361.927367 
L 772.783542 319.416034 
L 818.225208 361.699081 
L 863.666875 374.445963 
L 909.108542 349.156131 
L 954.550208 385.032501 
L 999.991875 379.139468 
L 1045.433542 376.024966 
L 1090.875208 342.232549 
L 1136.316875 342.232549 
" clip-path="url(#p04e8c9a692)" style="fill: none; stroke: #7c3aed; stroke-opacity: 0.7; stroke-width: 1.5; stroke-linecap: square"/>
   </g>
   <g id="line2d_43">
    <path d="M 45.716875 527.397812 
L 91.158542 527.397812 
L 136.600208 527.397812 
L 182.041875 398.992704 
L 227.483542 334.663846 
L 272.925208 364.851894 
L 318.366875 371.623839 
L 363.808542 361.486974 
L 409.250208 393.020975 
L 454.691875 392.165952 
L 500.133542 382.014665 
L 545.575208 365.812551 
L 591.016875 359.85836 
L 636.458542 382.193645 
L 681.900208 382.048317 
L 727.341875 371.548446 
L 772.783542 365.40849 
L 818.225208 366.380725 
L 863.666875 367.03856 
L 909.108542 367.684411 
L 954.550208 367.684411 
L 999.991875 367.684411 
L 1045.433542 367.684411 
L 1090.875208 367.684411 
L 1136.316875 367.684411 
" clip-path="url(#p04e8c9a692)" style="fill: none; stroke: #1da1f2; stroke-opacity: 0.7; stroke-width: 1.5; stroke-linecap: square"/>
   </g>
   <g id="line2d_44">
    <path d="M 45.716875 527.397812 
L 91.158542 527.397812 
L 136.600208 527.397812 
L 182.041875 283.247727 
L 227.483542 201.601444 
L 272.925208 207.452514 
L 318.366875 285.306424 
L 363.808542 272.381986 
L 409.250208 336.07264 
L 454.691875 321.187901 
L 500.133542 279.350948 
L 545.575208 251.554346 
L 591.016875 282.737535 
L 636.458542 324.947009 
L 681.900208 303.307061 
L 727.341875 279.27896 
L 772.783542 257.781884 
L 818.225208 257.549897 
L 863.666875 280.868192 
L 909.108542 269.818134 
L 954.550208 303.85856 
L 999.991875 300.652653 
L 1045.433542 275.105782 
L 1090.875208 261.237645 
L 1136.316875 261.237645 
" clip-path="url(#p04e8c9a692)" style="fill: none; stroke: #1da1f2; stroke-opacity: 0.7; stroke-width: 1.5; stroke-linecap: square"/>
   </g>
   <g id="line2d_45">
    <path d="M 45.716875 527.397812 
L 91.158542 527.397812 
L 136.600208 527.397812 
L 182.041875 173.919492 
L 227.483542 197.482165 
L 272.925208 316.11706 
L 318.366875 323.864391 
L 363.808542 357.906324 
L 409.250208 356.816431 
L 454.691875 358.878136 
L 500.133542 351.831067 
L 545.575208 340.00154 
L 591.016875 339.167052 
L 636.458542 358.27342 
L 681.900208 351.282067 
L 727.341875 344.031591 
L 772.783542 319.139773 
L 818.225208 343.21844 
L 863.666875 346.834833 
L 909.108542 350.789255 
L 954.550208 352.69302 
L 999.991875 354.299761 
L 1045.433542 353.84503 
L 1090.875208 351.40993 
L 1136.316875 351.40993 
" clip-path="url(#p04e8c9a692)" style="fill: none; stroke: #1da1f2; stroke-opacity: 0.7; stroke-width: 1.5; stroke-linecap: square"/>
   </g>
   <g id="line2d_46">
    <path d="M 45.716875 527.397812 
L 91.158542 527.397812 
L 136.600208 527.397812 
L 182.041875 270.822377 
L 227.483542 248.339328 
L 272.925208 287.044145 
L 318.366875 310.3365 
L 363.808542 313.566737 
L 409.250208 354.419185 
L 454.691875 341.931985 
L 500.133542 332.06398 
L 545.575208 310.624149 
L 591.016875 313.4173 
L 636.458542 332.936008 
L 681.900208 340.703652 
L 727.341875 316.644432 
L 772.783542 299.262776 
L 818.225208 314.939166 
L 863.666875 318.757158 
L 909.108542 323.061119 
L 954.550208 329.989447 
L 999.991875 327.823652 
L 1045.433542 328.144149 
L 1090.875208 322.355873 
L 1136.316875 322.355873 
" clip-path="url(#p04e8c9a692)" style="fill: none; stroke: #1da1f2; stroke-opacity: 0.7; stroke-width: 1.5; stroke-linecap: square"/>
   </g>
   <g id="line2d_47">
    <path d="M 45.716875 527.397812 
L 91.158542 527.397812 
L 136.600208 527.397812 
L 182.041875 285.100768 
L 227.483542 266.910693 
L 272.925208 246.16819 
L 318.366875 347.111094 
L 363.808542 292.808771 
L 409.250208 423.601308 
L 454.691875 419.5826 
L 500.133542 336.468018 
L 545.575208 269.458137 
L 591.016875 281.389047 
L 636.458542 392.059464 
L 681.900208 393.999042 
L 727.341875 364.64543 
L 772.783542 265.623746 
L 818.225208 269.878491 
L 863.666875 351.633599 
L 909.108542 305.738352 
L 954.550208 408.423115 
L 999.991875 412.462811 
L 1045.433542 327.022864 
L 1090.875208 266.621888 
L 1136.316875 266.621888 
" clip-path="url(#p04e8c9a692)" style="fill: none; stroke: #1da1f2; stroke-opacity: 0.7; stroke-width: 1.5; stroke-linecap: square"/>
   </g>
   <g id="line2d_48">
    <path d="M 45.716875 124.549812 
L 1136.316875 124.549812 
" clip-path="url(#p04e8c9a692)" style="fill: none; stroke-dasharray: 9.25,4; stroke-dashoffset: 0; stroke: #ff4444; stroke-opacity: 0.9; stroke-width: 2.5"/>
   </g>
   <g id="patch_6">
    <path d="M 45.716875 527.397812 
L 45.716875 23.837812 
" style="fill: none; stroke: #000000; stroke-width: 0.8; stroke-linejoin: miter; stroke-linecap: square"/>
   </g>
   <g id="patch_7">
    <path d="M 1136.316875 527.397812 
L 1136.316875 23.837812 
" style="fill: none; stroke: #000000; stroke-width: 0.8; stroke-linejoin: miter; stroke-linecap: square"/>
   </g>
   <g id="patch_8">
    <path d="M 45.716875 527.397812 
L 1136.316875 527.397812 
" style="fill: none; stroke: #000000; stroke-width: 0.8; stroke-linejoin: miter; stroke-linecap: square"/>
   </g>
   <g id="patch_9">
    <path d="M 45.716875 23.837812 
L 1136.316875 23.837812 
" style="fill: none; stroke: #000000; stroke-width: 0.8; stroke-linejoin: miter; stroke-linecap: square"/>
   </g>
   <g id="text_14">
    <!-- BASELINE -->
    <g style="fill: #3366cc" transform="translate(86.536406 49.015812) scale(0.1 -0.1)">
     <defs>
      <path id="DejaVuSans-Bold-41" d="M 3419 850 
L 1538 850 
L 1241 0 
L 31 0 
L 1759 4666 
L 3194 4666 
L 4922 0 
L 3713 0 
L 3419 850 
z
M 1838 1716 
L 3116 1716 
L 2478 3572 
L 1838 1716 
z
" transform="scale(0.015625)"/>
      <path id="DejaVuSans-Bold-53" d="M 3834 4519 
L 3834 3531 
Q 3450 3703 3084 3790 
Q 2719 3878 2394 3878 
Q 1963 3878 1756 3759 
Q 1550 3641 1550 3391 
Q 1550 3203 1689 3098 
Q 1828 2994 2194 2919 
L 2706 2816 
Q 3484 2659 3812 2340 
Q 4141 2022 4141 1434 
Q 4141 663 3683 286 
Q 3225 -91 2284 -91 
Q 1841 -91 1394 -6 
Q 947 78 500 244 
L 500 1259 
Q 947 1022 1364 901 
Q 1781 781 2169 781 
Q 2563 781 2772 912 
Q 2981 1044 2981 1288 
Q 2981 1506 2839 1625 
Q 2697 1744 2272 1838 
L 1806 1941 
Q 1106 2091 782 2419 
Q 459 2747 459 3303 
Q 459 4000 909 4375 
Q 1359 4750 2203 4750 
Q 2588 4750 2994 4692 
Q 3400 4634 3834 4519 
z
" transform="scale(0.015625)"/>
      <path id="DejaVuSans-Bold-45" d="M 588 4666 
L 3834 4666 
L 3834 3756 
L 1791 3756 
L 1791 2888 
L 3713 2888 
L 3713 1978 
L 1791 1978 
L 1791 909 
L 3903 909 
L 3903 0 
L 588 0 
L 588 4666 
z
" transform="scale(0.015625)"/>
      <path id="DejaVuSans-Bold-4c" d="M 588 4666 
L 1791 4666 
L 1791 909 
L 3903 909 
L 3903 0 
L 588 0 
L 588 4666 
z
" transform="scale(0.015625)"/>
      <path id="DejaVuSans-Bold-4e" d="M 588 4666 
L 1931 4666 
L 3628 1466 
L 3628 4666 
L 4769 4666 
L 4769 0 
L 3425 0 
L 1728 3200 
L 1728 0 
L 588 0 
L 588 4666 
z
" transform="scale(0.015625)"/>
     </defs>
     <use xlink:href="#DejaVuSans-Bold-42"/>
     <use xlink:href="#DejaVuSans-Bold-41" transform="translate(76.220703 0)"/>
     <use xlink:href="#DejaVuSans-Bold-53" transform="translate(153.613281 0)"/>
     <use xlink:href="#DejaVuSans-Bold-45" transform="translate(225.634766 0)"/>
     <use xlink:href="#DejaVuSans-Bold-4c" transform="translate(293.945312 0)"/>
     <use xlink:href="#DejaVuSans-Bold-49" transform="translate(357.666016 0)"/>
     <use xlink:href="#DejaVuSans-Bold-4e" transform="translate(394.873047 0)"/>
     <use xlink:href="#DejaVuSans-Bold-45" transform="translate(478.564453 0)"/>
    </g>
   </g>
   <g id="text_15">
    <!-- STEP -->
    <g style="fill: #cc3333" transform="translate(190.670521 49.015812) scale(0.1 -0.1)">
     <defs>
      <path id="DejaVuSans-Bold-54" d="M 31 4666 
L 4331 4666 
L 4331 3756 
L 2784 3756 
L 2784 0 
L 1581 0 
L 1581 3756 
L 31 3756 
L 31 4666 
z
" transform="scale(0.015625)"/>
     </defs>
     <use xlink:href="#DejaVuSans-Bold-53"/>
     <use xlink:href="#DejaVuSans-Bold-54" transform="translate(72.021484 0)"/>
     <use xlink:href="#DejaVuSans-Bold-45" transform="translate(140.234375 0)"/>
     <use xlink:href="#DejaVuSans-Bold-50" transform="translate(208.544922 0)"/>
    </g>
   </g>
   <g id="text_16">
    <!-- RECOVERY -->
    <g style="fill: #33aa33" transform="translate(652.365052 49.015812) scale(0.1 -0.1)">
     <defs>
      <path id="DejaVuSans-Bold-52" d="M 2297 2597 
Q 2675 2597 2839 2737 
Q 3003 2878 3003 3200 
Q 3003 3519 2839 3656 
Q 2675 3794 2297 3794 
L 1791 3794 
L 1791 2597 
L 2297 2597 
z
M 1791 1766 
L 1791 0 
L 588 0 
L 588 4666 
L 2425 4666 
Q 3347 4666 3776 4356 
Q 4206 4047 4206 3378 
Q 4206 2916 3982 2619 
Q 3759 2322 3309 2181 
Q 3556 2125 3751 1926 
Q 3947 1728 4147 1325 
L 4800 0 
L 3519 0 
L 2950 1159 
Q 2778 1509 2601 1637 
Q 2425 1766 2131 1766 
L 1791 1766 
z
" transform="scale(0.015625)"/>
      <path id="DejaVuSans-Bold-4f" d="M 2719 3878 
Q 2169 3878 1866 3472 
Q 1563 3066 1563 2328 
Q 1563 1594 1866 1187 
Q 2169 781 2719 781 
Q 3272 781 3575 1187 
Q 3878 1594 3878 2328 
Q 3878 3066 3575 3472 
Q 3272 3878 2719 3878 
z
M 2719 4750 
Q 3844 4750 4481 4106 
Q 5119 3463 5119 2328 
Q 5119 1197 4481 553 
Q 3844 -91 2719 -91 
Q 1597 -91 958 553 
Q 319 1197 319 2328 
Q 319 3463 958 4106 
Q 1597 4750 2719 4750 
z
" transform="scale(0.015625)"/>
      <path id="DejaVuSans-Bold-56" d="M 31 4666 
L 1241 4666 
L 2478 1222 
L 3713 4666 
L 4922 4666 
L 3194 0 
L 1759 0 
L 31 4666 
z
" transform="scale(0.015625)"/>
      <path id="DejaVuSans-Bold-59" d="M -63 4666 
L 1253 4666 
L 2316 3003 
L 3378 4666 
L 4697 4666 
L 2919 1966 
L 2919 0 
L 1716 0 
L 1716 1966 
L -63 4666 
z
" transform="scale(0.015625)"/>
     </defs>
     <use xlink:href="#DejaVuSans-Bold-52"/>
     <use xlink:href="#DejaVuSans-Bold-45" transform="translate(77.001953 0)"/>
     <use xlink:href="#DejaVuSans-Bold-43" transform="translate(145.3125 0)"/>
     <use xlink:href="#DejaVuSans-Bold-4f" transform="translate(218.701172 0)"/>
     <use xlink:href="#DejaVuSans-Bold-56" transform="translate(301.085938 0)"/>
     <use xlink:href="#DejaVuSans-Bold-45" transform="translate(378.478516 0)"/>
     <use xlink:href="#DejaVuSans-Bold-52" transform="translate(446.789062 0)"/>
     <use xlink:href="#DejaVuSans-Bold-59" transform="translate(518.291016 0)"/>
    </g>
   </g>
   <g id="text_17">
    <!-- Run 023d: Fleet-Wide Identity Waveforms (25 Models) -->
    <g transform="translate(376.618906 17.837812) scale(0.14 -0.14)">
     <defs>
      <path id="DejaVuSans-Bold-75" d="M 500 1363 
L 500 3500 
L 1625 3500 
L 1625 3150 
Q 1625 2866 1622 2436 
Q 1619 2006 1619 1863 
Q 1619 1441 1641 1255 
Q 1663 1069 1716 984 
Q 1784 875 1895 815 
Q 2006 756 2150 756 
Q 2500 756 2700 1025 
Q 2900 1294 2900 1772 
L 2900 3500 
L 4019 3500 
L 4019 0 
L 2900 0 
L 2900 506 
Q 2647 200 2364 54 
Q 2081 -91 1741 -91 
Q 1134 -91 817 281 
Q 500 653 500 1363 
z
" transform="scale(0.015625)"/>
      <path id="DejaVuSans-Bold-30" d="M 2944 2338 
Q 2944 3213 2780 3570 
Q 2616 3928 2228 3928 
Q 1841 3928 1675 3570 
Q 1509 3213 1509 2338 
Q 1509 1453 1675 1090 
Q 1841 728 2228 728 
Q 2613 728 2778 1090 
Q 2944 1453 2944 2338 
z
M 4147 2328 
Q 4147 1169 3647 539 
Q 3147 -91 2228 -91 
Q 1306 -91 806 539 
Q 306 1169 306 2328 
Q 306 3491 806 4120 
Q 1306 4750 2228 4750 
Q 3147 4750 3647 4120 
Q 4147 3491 4147 2328 
z
" transform="scale(0.015625)"/>
      <path id="DejaVuSans-Bold-32" d="M 1844 884 
L 3897 884 
L 3897 0 
L 506 0 
L 506 884 
L 2209 2388 
Q 2438 2594 2547 2791 
Q 2656 2988 2656 3200 
Q 2656 3528 2436 3728 
Q 2216 3928 1850 3928 
Q 1569 3928 1234 3808 
Q 900 3688 519 3450 
L 519 4475 
Q 925 4609 1322 4679 
Q 1719 4750 2100 4750 
Q 2938 4750 3402 4381 
Q 3866 4013 3866 3353 
Q 3866 2972 3669 2642 
Q 3472 2313 2841 1759 
L 1844 884 
z
" transform="scale(0.015625)"/>
      <path id="DejaVuSans-Bold-33" d="M 2981 2516 
Q 3453 2394 3698 2092 
Q 3944 1791 3944 1325 
Q 3944 631 3412 270 
Q 2881 -91 1863 -91 
Q 1503 -91 1142 -33 
Q 781 25 428 141 
L 428 1069 
Q 766 900 1098 814 
Q 1431 728 1753 728 
Q 2231 728 2486 893 
Q 2741 1059 2741 1369 
Q 2741 1688 2480 1852 
Q 2219 2016 1709 2016 
L 1228 2016 
L 1228 2791 
L 1734 2791 
Q 2188 2791 2409 2933 
Q 2631 3075 2631 3366 
Q 2631 3634 2415 3781 
Q 2200 3928 1806 3928 
Q 1516 3928 1219 3862 
Q 922 3797 628 3669 
L 628 4550 
Q 984 4650 1334 4700 
Q 1684 4750 2022 4750 
Q 2931 4750 3382 4451 
Q 3834 4153 3834 3553 
Q 3834 3144 3618 2883 
Q 3403 2622 2981 2516 
z
" transform="scale(0.015625)"/>
      <path id="DejaVuSans-Bold-3a" d="M 716 3500 
L 1844 3500 
L 1844 2291 
L 716 2291 
L 716 3500 
z
M 716 1209 
L 1844 1209 
L 1844 0 
L 716 0 
L 716 1209 
z
" transform="scale(0.015625)"/>
      <path id="DejaVuSans-Bold-46" d="M 588 4666 
L 3834 4666 
L 3834 3756 
L 1791 3756 
L 1791 2888 
L 3713 2888 
L 3713 1978 
L 1791 1978 
L 1791 0 
L 588 0 
L 588 4666 
z
" transform="scale(0.015625)"/>
      <path id="DejaVuSans-Bold-2d" d="M 347 2297 
L 2309 2297 
L 2309 1388 
L 347 1388 
L 347 2297 
z
" transform="scale(0.015625)"/>
      <path id="DejaVuSans-Bold-57" d="M 191 4666 
L 1344 4666 
L 2150 1275 
L 2950 4666 
L 4109 4666 
L 4909 1275 
L 5716 4666 
L 6859 4666 
L 5759 0 
L 4372 0 
L 3525 3547 
L 2688 0 
L 1300 0 
L 191 4666 
z
" transform="scale(0.015625)"/>
      <path id="DejaVuSans-Bold-79" d="M 78 3500 
L 1197 3500 
L 2138 1125 
L 2938 3500 
L 4056 3500 
L 2584 -331 
Q 2363 -916 2067 -1148 
Q 1772 -1381 1288 -1381 
L 641 -1381 
L 641 -647 
L 991 -647 
Q 1275 -647 1404 -556 
Q 1534 -466 1606 -231 
L 1638 -134 
L 78 3500 
z
" transform="scale(0.015625)"/>
      <path id="DejaVuSans-Bold-76" d="M 97 3500 
L 1216 3500 
L 2088 1081 
L 2956 3500 
L 4078 3500 
L 2700 0 
L 1472 0 
L 97 3500 
z
" transform="scale(0.015625)"/>
      <path id="DejaVuSans-Bold-28" d="M 2413 -844 
L 1484 -844 
Q 1006 -72 778 623 
Q 550 1319 550 2003 
Q 550 2688 779 3389 
Q 1009 4091 1484 4856 
L 2413 4856 
Q 2013 4116 1813 3408 
Q 1613 2700 1613 2009 
Q 1613 1319 1811 609 
Q 2009 -100 2413 -844 
z
" transform="scale(0.015625)"/>
      <path id="DejaVuSans-Bold-35" d="M 678 4666 
L 3669 4666 
L 3669 3781 
L 1638 3781 
L 1638 3059 
Q 1775 3097 1914 3117 
Q 2053 3138 2203 3138 
Q 3056 3138 3531 2711 
Q 4006 2284 4006 1522 
Q 4006 766 3489 337 
Q 2972 -91 2053 -91 
Q 1656 -91 1267 -14 
Q 878 63 494 219 
L 494 1166 
Q 875 947 1217 837 
Q 1559 728 1863 728 
Q 2300 728 2551 942 
Q 2803 1156 2803 1522 
Q 2803 1891 2551 2103 
Q 2300 2316 1863 2316 
Q 1603 2316 1309 2248 
Q 1016 2181 678 2041 
L 678 4666 
z
" transform="scale(0.015625)"/>
      <path id="DejaVuSans-Bold-4d" d="M 588 4666 
L 2119 4666 
L 3181 2169 
L 4250 4666 
L 5778 4666 
L 5778 0 
L 4641 0 
L 4641 3413 
L 3566 897 
L 2803 897 
L 1728 3413 
L 1728 0 
L 588 0 
L 588 4666 
z
" transform="scale(0.015625)"/>
      <path id="DejaVuSans-Bold-29" d="M 513 -844 
Q 913 -100 1113 609 
Q 1313 1319 1313 2009 
Q 1313 2700 1113 3408 
Q 913 4116 513 4856 
L 1441 4856 
Q 1916 4091 2145 3389 
Q 2375 2688 2375 2003 
Q 2375 1319 2147 623 
Q 1919 -72 1441 -844 
L 513 -844 
z
" transform="scale(0.015625)"/>
     </defs>
     <use xlink:href="#DejaVuSans-Bold-52"/>
     <use xlink:href="#DejaVuSans-Bold-75" transform="translate(77.001953 0)"/>
     <use xlink:href="#DejaVuSans-Bold-6e" transform="translate(148.193359 0)"/>
     <use xlink:href="#DejaVuSans-Bold-20" transform="translate(219.384766 0)"/>
     <use xlink:href="#DejaVuSans-Bold-30" transform="translate(254.199219 0)"/>
     <use xlink:href="#DejaVuSans-Bold-32" transform="translate(323.779297 0)"/>
     <use xlink:href="#DejaVuSans-Bold-33" transform="translate(393.359375 0)"/>
     <use xlink:href="#DejaVuSans-Bold-64" transform="translate(462.939453 0)"/>
     <use xlink:href="#DejaVuSans-Bold-3a" transform="translate(534.521484 0)"/>
     <use xlink:href="#DejaVuSans-Bold-20" transform="translate(574.511719 0)"/>
     <use xlink:href="#DejaVuSans-Bold-46" transform="translate(609.326172 0)"/>
     <use xlink:href="#DejaVuSans-Bold-6c" transform="translate(677.636719 0)"/>
     <use xlink:href="#DejaVuSans-Bold-65" transform="translate(711.914062 0)"/>
     <use xlink:href="#DejaVuSans-Bold-65" transform="translate(779.736328 0)"/>
     <use xlink:href="#DejaVuSans-Bold-74" transform="translate(847.558594 0)"/>
     <use xlink:href="#DejaVuSans-Bold-2d" transform="translate(895.361328 0)"/>
     <use xlink:href="#DejaVuSans-Bold-57" transform="translate(932.365234 0)"/>
     <use xlink:href="#DejaVuSans-Bold-69" transform="translate(1042.667969 0)"/>
     <use xlink:href="#DejaVuSans-Bold-64" transform="translate(1076.945312 0)"/>
     <use xlink:href="#DejaVuSans-Bold-65" transform="translate(1148.527344 0)"/>
     <use xlink:href="#DejaVuSans-Bold-20" transform="translate(1216.349609 0)"/>
     <use xlink:href="#DejaVuSans-Bold-49" transform="translate(1251.164062 0)"/>
     <use xlink:href="#DejaVuSans-Bold-64" transform="translate(1288.371094 0)"/>
     <use xlink:href="#DejaVuSans-Bold-65" transform="translate(1359.953125 0)"/>
     <use xlink:href="#DejaVuSans-Bold-6e" transform="translate(1427.775391 0)"/>
     <use xlink:href="#DejaVuSans-Bold-74" transform="translate(1498.966797 0)"/>
     <use xlink:href="#DejaVuSans-Bold-69" transform="translate(1546.769531 0)"/>
     <use xlink:href="#DejaVuSans-Bold-74" transform="translate(1581.046875 0)"/>
     <use xlink:href="#DejaVuSans-Bold-79" transform="translate(1628.849609 0)"/>
     <use xlink:href="#DejaVuSans-Bold-20" transform="translate(1694.035156 0)"/>
     <use xlink:href="#DejaVuSans-Bold-57" transform="translate(1728.849609 0)"/>
     <use xlink:href="#DejaVuSans-Bold-61" transform="translate(1835.527344 0)"/>
     <use xlink:href="#DejaVuSans-Bold-76" transform="translate(1903.007812 0)"/>
     <use xlink:href="#DejaVuSans-Bold-65" transform="translate(1968.193359 0)"/>
     <use xlink:href="#DejaVuSans-Bold-66" transform="translate(2036.015625 0)"/>
     <use xlink:href="#DejaVuSans-Bold-6f" transform="translate(2079.521484 0)"/>
     <use xlink:href="#DejaVuSans-Bold-72" transform="translate(2148.222656 0)"/>
     <use xlink:href="#DejaVuSans-Bold-6d" transform="translate(2197.539062 0)"/>
     <use xlink:href="#DejaVuSans-Bold-73" transform="translate(2301.738281 0)"/>
     <use xlink:href="#DejaVuSans-Bold-20" transform="translate(2361.259766 0)"/>
     <use xlink:href="#DejaVuSans-Bold-28" transform="translate(2396.074219 0)"/>
     <use xlink:href="#DejaVuSans-Bold-32" transform="translate(2441.777344 0)"/>
     <use xlink:href="#DejaVuSans-Bold-35" transform="translate(2511.357422 0)"/>
     <use xlink:href="#DejaVuSans-Bold-20" transform="translate(2580.9375 0)"/>
     <use xlink:href="#DejaVuSans-Bold-4d" transform="translate(2615.751953 0)"/>
     <use xlink:href="#DejaVuSans-Bold-6f" transform="translate(2715.263672 0)"/>
     <use xlink:href="#DejaVuSans-Bold-64" transform="translate(2783.964844 0)"/>
     <use xlink:href="#DejaVuSans-Bold-65" transform="translate(2855.546875 0)"/>
     <use xlink:href="#DejaVuSans-Bold-6c" transform="translate(2923.369141 0)"/>
     <use xlink:href="#DejaVuSans-Bold-73" transform="translate(2957.646484 0)"/>
     <use xlink:href="#DejaVuSans-Bold-29" transform="translate(3017.167969 0)"/>
    </g>
   </g>
   <g id="legend_1">
    <g id="patch_10">
     <path d="M 1038.584062 119.906562 
L 1129.316875 119.906562 
Q 1131.316875 119.906562 1131.316875 117.906562 
L 1131.316875 30.837812 
Q 1131.316875 28.837812 1129.316875 28.837812 
L 1038.584062 28.837812 
Q 1036.584062 28.837812 1036.584062 30.837812 
L 1036.584062 117.906562 
Q 1036.584062 119.906562 1038.584062 119.906562 
z
" style="fill: #ffffff; opacity: 0.9; stroke: #cccccc; stroke-linejoin: miter"/>
    </g>
    <g id="text_18">
     <!-- Providers -->
     <g transform="translate(1060.761406 40.43625) scale(0.1 -0.1)">
      <defs>
       <path id="DejaVuSans-50" d="M 1259 4147 
L 1259 2394 
L 2053 2394 
Q 2494 2394 2734 2622 
Q 2975 2850 2975 3272 
Q 2975 3691 2734 3919 
Q 2494 4147 2053 4147 
L 1259 4147 
z
M 628 4666 
L 2053 4666 
Q 2838 4666 3239 4311 
Q 3641 3956 3641 3272 
Q 3641 2581 3239 2228 
Q 2838 1875 2053 1875 
L 1259 1875 
L 1259 0 
L 628 0 
L 628 4666 
z
" transform="scale(0.015625)"/>
       <path id="DejaVuSans-72" d="M 2631 2963 
Q 2534 3019 2420 3045 
Q 2306 3072 2169 3072 
Q 1681 3072 1420 2755 
Q 1159 2438 1159 1844 
L 1159 0 
L 581 0 
L 581 3500 
L 1159 3500 
L 1159 2956 
Q 1341 3275 1631 3429 
Q 1922 3584 2338 3584 
Q 2397 3584 2469 3576 
Q 2541 3569 2628 3553 
L 2631 2963 
z
" transform="scale(0.015625)"/>
       <path id="DejaVuSans-6f" d="M 1959 3097 
Q 1497 3097 1228 2736 
Q 959 2375 959 1747 
Q 959 1119 1226 758 
Q 1494 397 1959 397 
Q 2419 397 2687 759 
Q 2956 1122 2956 1747 
Q 2956 2369 2687 2733 
Q 2419 3097 1959 3097 
z
M 1959 3584 
Q 2709 3584 3137 3096 
Q 3566 2609 3566 1747 
Q 3566 888 3137 398 
Q 2709 -91 1959 -91 
Q 1206 -91 779 398 
Q 353 888 353 1747 
Q 353 2609 779 3096 
Q 1206 3584 1959 3584 
z
" transform="scale(0.015625)"/>
       <path id="DejaVuSans-76" d="M 191 3500 
L 800 3500 
L 1894 563 
L 2988 3500 
L 3597 3500 
L 2284 0 
L 1503 0 
L 191 3500 
z
" transform="scale(0.015625)"/>
       <path id="DejaVuSans-69" d="M 603 3500 
L 1178 3500 
L 1178 0 
L 603 0 
L 603 3500 
z
M 603 4863 
L 1178 4863 
L 1178 4134 
L 603 4134 
L 603 4863 
z
" transform="scale(0.015625)"/>
       <path id="DejaVuSans-64" d="M 2906 2969 
L 2906 4863 
L 3481 4863 
L 3481 0 
L 2906 0 
L 2906 525 
Q 2725 213 2448 61 
Q 2172 -91 1784 -91 
Q 1150 -91 751 415 
Q 353 922 353 1747 
Q 353 2572 751 3078 
Q 1150 3584 1784 3584 
Q 2172 3584 2448 3432 
Q 2725 3281 2906 2969 
z
M 947 1747 
Q 947 1113 1208 752 
Q 1469 391 1925 391 
Q 2381 391 2643 752 
Q 2906 1113 2906 1747 
Q 2906 2381 2643 2742 
Q 2381 3103 1925 3103 
Q 1469 3103 1208 2742 
Q 947 2381 947 1747 
z
" transform="scale(0.015625)"/>
       <path id="DejaVuSans-65" d="M 3597 1894 
L 3597 1613 
L 953 1613 
Q 991 1019 1311 708 
Q 1631 397 2203 397 
Q 2534 397 2845 478 
Q 3156 559 3463 722 
L 3463 178 
Q 3153 47 2828 -22 
Q 2503 -91 2169 -91 
Q 1331 -91 842 396 
Q 353 884 353 1716 
Q 353 2575 817 3079 
Q 1281 3584 2069 3584 
Q 2775 3584 3186 3129 
Q 3597 2675 3597 1894 
z
M 3022 2063 
Q 3016 2534 2758 2815 
Q 2500 3097 2075 3097 
Q 1594 3097 1305 2825 
Q 1016 2553 972 2059 
L 3022 2063 
z
" transform="scale(0.015625)"/>
       <path id="DejaVuSans-73" d="M 2834 3397 
L 2834 2853 
Q 2591 2978 2328 3040 
Q 2066 3103 1784 3103 
Q 1356 3103 1142 2972 
Q 928 2841 928 2578 
Q 928 2378 1081 2264 
Q 1234 2150 1697 2047 
L 1894 2003 
Q 2506 1872 2764 1633 
Q 3022 1394 3022 966 
Q 3022 478 2636 193 
Q 2250 -91 1575 -91 
Q 1294 -91 989 -36 
Q 684 19 347 128 
L 347 722 
Q 666 556 975 473 
Q 1284 391 1588 391 
Q 1994 391 2212 530 
Q 2431 669 2431 922 
Q 2431 1156 2273 1281 
Q 2116 1406 1581 1522 
L 1381 1569 
Q 847 1681 609 1914 
Q 372 2147 372 2553 
Q 372 3047 722 3315 
Q 1072 3584 1716 3584 
Q 2034 3584 2315 3537 
Q 2597 3491 2834 3397 
z
" transform="scale(0.015625)"/>
      </defs>
      <use xlink:href="#DejaVuSans-50"/>
      <use xlink:href="#DejaVuSans-72" transform="translate(58.552734 0)"/>
      <use xlink:href="#DejaVuSans-6f" transform="translate(97.416016 0)"/>
      <use xlink:href="#DejaVuSans-76" transform="translate(158.597656 0)"/>
      <use xlink:href="#DejaVuSans-69" transform="translate(217.777344 0)"/>
      <use xlink:href="#DejaVuSans-64" transform="translate(245.560547 0)"/>
      <use xlink:href="#DejaVuSans-65" transform="translate(309.037109 0)"/>
      <use xlink:href="#DejaVuSans-72" transform="translate(370.560547 0)"/>
      <use xlink:href="#DejaVuSans-73" transform="translate(411.673828 0)"/>
     </g>
    </g>
    <g id="line2d_49">
     <path d="M 1040.584062 51.614375 
L 1050.584062 51.614375 
L 1060.584062 51.614375 
" style="fill: none; stroke: #e07b53; stroke-width: 3; stroke-linecap: square"/>
    </g>
    <g id="text_19">
     <!-- ANTHROPIC -->
     <g transform="translate(1068.584062 55.114375) scale(0.1 -0.1)">
      <defs>
       <path id="DejaVuSans-41" d="M 2188 4044 
L 1331 1722 
L 3047 1722 
L 2188 4044 
z
M 1831 4666 
L 2547 4666 
L 4325 0 
L 3669 0 
L 3244 1197 
L 1141 1197 
L 716 0 
L 50 0 
L 1831 4666 
z
" transform="scale(0.015625)"/>
       <path id="DejaVuSans-4e" d="M 628 4666 
L 1478 4666 
L 3547 763 
L 3547 4666 
L 4159 4666 
L 4159 0 
L 3309 0 
L 1241 3903 
L 1241 0 
L 628 0 
L 628 4666 
z
" transform="scale(0.015625)"/>
       <path id="DejaVuSans-54" d="M -19 4666 
L 3928 4666 
L 3928 4134 
L 2272 4134 
L 2272 0 
L 1638 0 
L 1638 4134 
L -19 4134 
L -19 4666 
z
" transform="scale(0.015625)"/>
       <path id="DejaVuSans-48" d="M 628 4666 
L 1259 4666 
L 1259 2753 
L 3553 2753 
L 3553 4666 
L 4184 4666 
L 4184 0 
L 3553 0 
L 3553 2222 
L 1259 2222 
L 1259 0 
L 628 0 
L 628 4666 
z
" transform="scale(0.015625)"/>
       <path id="DejaVuSans-52" d="M 2841 2188 
Q 3044 2119 3236 1894 
Q 3428 1669 3622 1275 
L 4263 0 
L 3584 0 
L 2988 1197 
Q 2756 1666 2539 1819 
Q 2322 1972 1947 1972 
L 1259 1972 
L 1259 0 
L 628 0 
L 628 4666 
L 2053 4666 
Q 2853 4666 3247 4331 
Q 3641 3997 3641 3322 
Q 3641 2881 3436 2590 
Q 3231 2300 2841 2188 
z
M 1259 4147 
L 1259 2491 
L 2053 2491 
Q 2509 2491 2742 2702 
Q 2975 2913 2975 3322 
Q 2975 3731 2742 3939 
Q 2509 4147 2053 4147 
L 1259 4147 
z
" transform="scale(0.015625)"/>
       <path id="DejaVuSans-4f" d="M 2522 4238 
Q 1834 4238 1429 3725 
Q 1025 3213 1025 2328 
Q 1025 1447 1429 934 
Q 1834 422 2522 422 
Q 3209 422 3611 934 
Q 4013 1447 4013 2328 
Q 4013 3213 3611 3725 
Q 3209 4238 2522 4238 
z
M 2522 4750 
Q 3503 4750 4090 4092 
Q 4678 3434 4678 2328 
Q 4678 1225 4090 567 
Q 3503 -91 2522 -91 
Q 1538 -91 948 565 
Q 359 1222 359 2328 
Q 359 3434 948 4092 
Q 1538 4750 2522 4750 
z
" transform="scale(0.015625)"/>
       <path id="DejaVuSans-49" d="M 628 4666 
L 1259 4666 
L 1259 0 
L 628 0 
L 628 4666 
z
" transform="scale(0.015625)"/>
       <path id="DejaVuSans-43" d="M 4122 4306 
L 4122 3641 
Q 3803 3938 3442 4084 
Q 3081 4231 2675 4231 
Q 1875 4231 1450 3742 
Q 1025 3253 1025 2328 
Q 1025 1406 1450 917 
Q 1875 428 2675 428 
Q 3081 428 3442 575 
Q 3803 722 4122 1019 
L 4122 359 
Q 3791 134 3420 21 
Q 3050 -91 2638 -91 
Q 1578 -91 968 557 
Q 359 1206 359 2328 
Q 359 3453 968 4101 
Q 1578 4750 2638 4750 
Q 3056 4750 3426 4639 
Q 3797 4528 4122 4306 
z
" transform="scale(0.015625)"/>
      </defs>
      <use xlink:href="#DejaVuSans-41"/>
      <use xlink:href="#DejaVuSans-4e" transform="translate(68.408203 0)"/>
      <use xlink:href="#DejaVuSans-54" transform="translate(143.212891 0)"/>
      <use xlink:href="#DejaVuSans-48" transform="translate(204.296875 0)"/>
      <use xlink:href="#DejaVuSans-52" transform="translate(279.492188 0)"/>
      <use xlink:href="#DejaVuSans-4f" transform="translate(348.974609 0)"/>
      <use xlink:href="#DejaVuSans-50" transform="translate(427.685547 0)"/>
      <use xlink:href="#DejaVuSans-49" transform="translate(487.988281 0)"/>
      <use xlink:href="#DejaVuSans-43" transform="translate(517.480469 0)"/>
     </g>
    </g>
    <g id="line2d_50">
     <path d="M 1040.584062 66.2925 
L 1050.584062 66.2925 
L 1060.584062 66.2925 
" style="fill: none; stroke: #4285f4; stroke-width: 3; stroke-linecap: square"/>
    </g>
    <g id="text_20">
     <!-- GOOGLE -->
     <g transform="translate(1068.584062 69.7925) scale(0.1 -0.1)">
      <defs>
       <path id="DejaVuSans-47" d="M 3809 666 
L 3809 1919 
L 2778 1919 
L 2778 2438 
L 4434 2438 
L 4434 434 
Q 4069 175 3628 42 
Q 3188 -91 2688 -91 
Q 1594 -91 976 548 
Q 359 1188 359 2328 
Q 359 3472 976 4111 
Q 1594 4750 2688 4750 
Q 3144 4750 3555 4637 
Q 3966 4525 4313 4306 
L 4313 3634 
Q 3963 3931 3569 4081 
Q 3175 4231 2741 4231 
Q 1884 4231 1454 3753 
Q 1025 3275 1025 2328 
Q 1025 1384 1454 906 
Q 1884 428 2741 428 
Q 3075 428 3337 486 
Q 3600 544 3809 666 
z
" transform="scale(0.015625)"/>
       <path id="DejaVuSans-4c" d="M 628 4666 
L 1259 4666 
L 1259 531 
L 3531 531 
L 3531 0 
L 628 0 
L 628 4666 
z
" transform="scale(0.015625)"/>
       <path id="DejaVuSans-45" d="M 628 4666 
L 3578 4666 
L 3578 4134 
L 1259 4134 
L 1259 2753 
L 3481 2753 
L 3481 2222 
L 1259 2222 
L 1259 531 
L 3634 531 
L 3634 0 
L 628 0 
L 628 4666 
z
" transform="scale(0.015625)"/>
      </defs>
      <use xlink:href="#DejaVuSans-47"/>
      <use xlink:href="#DejaVuSans-4f" transform="translate(77.490234 0)"/>
      <use xlink:href="#DejaVuSans-4f" transform="translate(156.201172 0)"/>
      <use xlink:href="#DejaVuSans-47" transform="translate(234.912109 0)"/>
      <use xlink:href="#DejaVuSans-4c" transform="translate(312.402344 0)"/>
      <use xlink:href="#DejaVuSans-45" transform="translate(368.115234 0)"/>
     </g>
    </g>
    <g id="line2d_51">
     <path d="M 1040.584062 80.970625 
L 1050.584062 80.970625 
L 1060.584062 80.970625 
" style="fill: none; stroke: #10a37f; stroke-width: 3; stroke-linecap: square"/>
    </g>
    <g id="text_21">
     <!-- OPENAI -->
     <g transform="translate(1068.584062 84.470625) scale(0.1 -0.1)">
      <use xlink:href="#DejaVuSans-4f"/>
      <use xlink:href="#DejaVuSans-50" transform="translate(78.710938 0)"/>
      <use xlink:href="#DejaVuSans-45" transform="translate(139.013672 0)"/>
      <use xlink:href="#DejaVuSans-4e" transform="translate(202.197266 0)"/>
      <use xlink:href="#DejaVuSans-41" transform="translate(277.001953 0)"/>
      <use xlink:href="#DejaVuSans-49" transform="translate(345.410156 0)"/>
     </g>
    </g>
    <g id="line2d_52">
     <path d="M 1040.584062 95.64875 
L 1050.584062 95.64875 
L 1060.584062 95.64875 
" style="fill: none; stroke: #7c3aed; stroke-width: 3; stroke-linecap: square"/>
    </g>
    <g id="text_22">
     <!-- TOGETHER -->
     <g transform="translate(1068.584062 99.14875) scale(0.1 -0.1)">
      <use xlink:href="#DejaVuSans-54"/>
      <use xlink:href="#DejaVuSans-4f" transform="translate(61.083984 0)"/>
      <use xlink:href="#DejaVuSans-47" transform="translate(139.794922 0)"/>
      <use xlink:href="#DejaVuSans-45" transform="translate(217.285156 0)"/>
      <use xlink:href="#DejaVuSans-54" transform="translate(280.46875 0)"/>
      <use xlink:href="#DejaVuSans-48" transform="translate(341.552734 0)"/>
      <use xlink:href="#DejaVuSans-45" transform="translate(416.748047 0)"/>
      <use xlink:href="#DejaVuSans-52" transform="translate(479.931641 0)"/>
     </g>
    </g>
    <g id="line2d_53">
     <path d="M 1040.584062 110.326875 
L 1050.584062 110.326875 
L 1060.584062 110.326875 
" style="fill: none; stroke: #1da1f2; stroke-width: 3; stroke-linecap: square"/>
    </g>
    <g id="text_23">
     <!-- XAI -->
     <g transform="translate(1068.584062 113.826875) scale(0.1 -0.1)">
      <defs>
       <path id="DejaVuSans-58" d="M 403 4666 
L 1081 4666 
L 2241 2931 
L 3406 4666 
L 4084 4666 
L 2584 2425 
L 4184 0 
L 3506 0 
L 2194 1984 
L 872 0 
L 191 0 
L 1856 2491 
L 403 4666 
z
" transform="scale(0.015625)"/>
      </defs>
      <use xlink:href="#DejaVuSans-58"/>
      <use xlink:href="#DejaVuSans-41" transform="translate(68.505859 0)"/>
      <use xlink:href="#DejaVuSans-49" transform="translate(136.914062 0)"/>
     </g>
    </g>
   </g>
  </g>
 </g>
 <defs>
  <clipPath id="p04e8c9a692">
   <rect x="45.716875" y="23.837812" width="1090.6" height="503.56"/>
  </clipPath>
 </defs>
</svg>
