<?xml version="1.0" encoding="utf-8" standalone="no"?>
<!DOCTYPE svg PUBLIC "-//W3C//DTD SVG 1.1//EN"
  "http://www.w3.org/Graphics/SVG/1.1/DTD/svg11.dtd">
<svg xmlns:xlink="http://www.w3.org/1999/xlink" width="999.516875pt" height="569.9975pt" viewBox="0 0 999.516875 569.9975" xmlns="http://www.w3.org/2000/svg" version="1.1">
 <metadata>
  <rdf:RDF xmlns:dc="http://purl.org/dc/elements/1.1/" xmlns:cc="http://creativecommons.org/ns#" xmlns:rdf="http://www.w3.org/1999/02/22-rdf-syntax-ns#">
   <cc:Work>
    <dc:type rdf:resource="http://purl.org/dc/dcmitype/StillImage"/>
    <dc:date>2025-12-24T01:31:50.406707</dc:date>
    <dc:format>image/svg+xml</dc:format>
    <dc:creator>
     <cc:Agent>
      <dc:title>Matplotlib v3.10.7, https://matplotlib.org/</dc:title>
     </cc:Agent>
    </dc:creator>
   </cc:Work>
  </rdf:RDF>
 </metadata>
 <defs>
  <style type="text/css">*{stroke-linejoin: round; stroke-linecap: butt}</style>
 </defs>
 <g id="figure_1">
  <g id="patch_1">
   <path d="M 0 569.9975 
L 999.516875 569.9975 
L 999.516875 0 
L 0 0 
z
" style="fill: #ffffff"/>
  </g>
  <g id="axes_1">
   <g id="patch_2">
    <path d="M 45.716875 504.357813 
L 992.316875 504.357813 
L 992.316875 23.837812 
L 45.716875 23.837812 
z
" style="fill: #fafafa"/>
   </g>
   <g id="patch_3">
    <path d="M 45.716875 504.357813 
L 164.041875 504.357813 
L 164.041875 23.837812 
L 45.716875 23.837812 
z
" clip-path="url(#p8e0b032923)" style="fill: #3366cc; opacity: 0.08; stroke: #3366cc; stroke-linejoin: miter"/>
   </g>
   <g id="patch_4">
    <path d="M 164.041875 504.357813 
L 203.483542 504.357813 
L 203.483542 23.837812 
L 164.041875 23.837812 
z
" clip-path="url(#p8e0b032923)" style="fill: #cc3333; opacity: 0.15; stroke: #cc3333; stroke-linejoin: miter"/>
   </g>
   <g id="patch_5">
    <path d="M 203.483542 504.357813 
L 1031.758542 504.357813 
L 1031.758542 23.837812 
L 203.483542 23.837812 
z
" clip-path="url(#p8e0b032923)" style="fill: #33aa33; opacity: 0.06; stroke: #33aa33; stroke-linejoin: miter"/>
   </g>
   <g id="matplotlib.axis_1">
    <g id="xtick_1">
     <g id="line2d_1">
      <path d="M 45.716875 504.357813 
L 45.716875 23.837812 
" clip-path="url(#p8e0b032923)" style="fill: none; stroke: #b0b0b0; stroke-opacity: 0.3; stroke-width: 0.8; stroke-linecap: square"/>
     </g>
     <g id="line2d_2">
      <defs>
       <path id="m8f11c60534" d="M 0 0 
L 0 3.5 
" style="stroke: #000000; stroke-width: 0.8"/>
      </defs>
      <g>
       <use xlink:href="#m8f11c60534" x="45.716875" y="504.357813" style="stroke: #000000; stroke-width: 0.8"/>
      </g>
     </g>
     <g id="text_1">
      <!-- 0 -->
      <g transform="translate(42.535625 518.95625) scale(0.1 -0.1)">
       <defs>
        <path id="DejaVuSans-30" d="M 2034 4250 
Q 1547 4250 1301 3770 
Q 1056 3291 1056 2328 
Q 1056 1369 1301 889 
Q 1547 409 2034 409 
Q 2525 409 2770 889 
Q 3016 1369 3016 2328 
Q 3016 3291 2770 3770 
Q 2525 4250 2034 4250 
z
M 2034 4750 
Q 2819 4750 3233 4129 
Q 3647 3509 3647 2328 
Q 3647 1150 3233 529 
Q 2819 -91 2034 -91 
Q 1250 -91 836 529 
Q 422 1150 422 2328 
Q 422 3509 836 4129 
Q 1250 4750 2034 4750 
z
" transform="scale(0.015625)"/>
       </defs>
       <use xlink:href="#DejaVuSans-30"/>
      </g>
     </g>
    </g>
    <g id="xtick_2">
     <g id="line2d_3">
      <path d="M 242.925208 504.357813 
L 242.925208 23.837812 
" clip-path="url(#p8e0b032923)" style="fill: none; stroke: #b0b0b0; stroke-opacity: 0.3; stroke-width: 0.8; stroke-linecap: square"/>
     </g>
     <g id="line2d_4">
      <g>
       <use xlink:href="#m8f11c60534" x="242.925208" y="504.357813" style="stroke: #000000; stroke-width: 0.8"/>
      </g>
     </g>
     <g id="text_2">
      <!-- 5 -->
      <g transform="translate(239.743958 518.95625) scale(0.1 -0.1)">
       <defs>
        <path id="DejaVuSans-35" d="M 691 4666 
L 3169 4666 
L 3169 4134 
L 1269 4134 
L 1269 2991 
Q 1406 3038 1543 3061 
Q 1681 3084 1819 3084 
Q 2600 3084 3056 2656 
Q 3513 2228 3513 1497 
Q 3513 744 3044 326 
Q 2575 -91 1722 -91 
Q 1428 -91 1123 -41 
Q 819 9 494 109 
L 494 744 
Q 775 591 1075 516 
Q 1375 441 1709 441 
Q 2250 441 2565 725 
Q 2881 1009 2881 1497 
Q 2881 1984 2565 2268 
Q 2250 2553 1709 2553 
Q 1456 2553 1204 2497 
Q 953 2441 691 2322 
L 691 4666 
z
" transform="scale(0.015625)"/>
       </defs>
       <use xlink:href="#DejaVuSans-35"/>
      </g>
     </g>
    </g>
    <g id="xtick_3">
     <g id="line2d_5">
      <path d="M 440.133542 504.357813 
L 440.133542 23.837812 
" clip-path="url(#p8e0b032923)" style="fill: none; stroke: #b0b0b0; stroke-opacity: 0.3; stroke-width: 0.8; stroke-linecap: square"/>
     </g>
     <g id="line2d_6">
      <g>
       <use xlink:href="#m8f11c60534" x="440.133542" y="504.357813" style="stroke: #000000; stroke-width: 0.8"/>
      </g>
     </g>
     <g id="text_3">
      <!-- 10 -->
      <g transform="translate(433.771042 518.95625) scale(0.1 -0.1)">
       <defs>
        <path id="DejaVuSans-31" d="M 794 531 
L 1825 531 
L 1825 4091 
L 703 3866 
L 703 4441 
L 1819 4666 
L 2450 4666 
L 2450 531 
L 3481 531 
L 3481 0 
L 794 0 
L 794 531 
z
" transform="scale(0.015625)"/>
       </defs>
       <use xlink:href="#DejaVuSans-31"/>
       <use xlink:href="#DejaVuSans-30" transform="translate(63.623047 0)"/>
      </g>
     </g>
    </g>
    <g id="xtick_4">
     <g id="line2d_7">
      <path d="M 637.341875 504.357813 
L 637.341875 23.837812 
" clip-path="url(#p8e0b032923)" style="fill: none; stroke: #b0b0b0; stroke-opacity: 0.3; stroke-width: 0.8; stroke-linecap: square"/>
     </g>
     <g id="line2d_8">
      <g>
       <use xlink:href="#m8f11c60534" x="637.341875" y="504.357813" style="stroke: #000000; stroke-width: 0.8"/>
      </g>
     </g>
     <g id="text_4">
      <!-- 15 -->
      <g transform="translate(630.979375 518.95625) scale(0.1 -0.1)">
       <use xlink:href="#DejaVuSans-31"/>
       <use xlink:href="#DejaVuSans-35" transform="translate(63.623047 0)"/>
      </g>
     </g>
    </g>
    <g id="xtick_5">
     <g id="line2d_9">
      <path d="M 834.550208 504.357813 
L 834.550208 23.837812 
" clip-path="url(#p8e0b032923)" style="fill: none; stroke: #b0b0b0; stroke-opacity: 0.3; stroke-width: 0.8; stroke-linecap: square"/>
     </g>
     <g id="line2d_10">
      <g>
       <use xlink:href="#m8f11c60534" x="834.550208" y="504.357813" style="stroke: #000000; stroke-width: 0.8"/>
      </g>
     </g>
     <g id="text_5">
      <!-- 20 -->
      <g transform="translate(828.187708 518.95625) scale(0.1 -0.1)">
       <defs>
        <path id="DejaVuSans-32" d="M 1228 531 
L 3431 531 
L 3431 0 
L 469 0 
L 469 531 
Q 828 903 1448 1529 
Q 2069 2156 2228 2338 
Q 2531 2678 2651 2914 
Q 2772 3150 2772 3378 
Q 2772 3750 2511 3984 
Q 2250 4219 1831 4219 
Q 1534 4219 1204 4116 
Q 875 4013 500 3803 
L 500 4441 
Q 881 4594 1212 4672 
Q 1544 4750 1819 4750 
Q 2544 4750 2975 4387 
Q 3406 4025 3406 3419 
Q 3406 3131 3298 2873 
Q 3191 2616 2906 2266 
Q 2828 2175 2409 1742 
Q 1991 1309 1228 531 
z
" transform="scale(0.015625)"/>
       </defs>
       <use xlink:href="#DejaVuSans-32"/>
       <use xlink:href="#DejaVuSans-30" transform="translate(63.623047 0)"/>
      </g>
     </g>
    </g>
    <g id="text_6">
     <!-- Probe Index -->
     <g transform="translate(483.57375 534.154063) scale(0.12 -0.12)">
      <defs>
       <path id="DejaVuSans-50" d="M 1259 4147 
L 1259 2394 
L 2053 2394 
Q 2494 2394 2734 2622 
Q 2975 2850 2975 3272 
Q 2975 3691 2734 3919 
Q 2494 4147 2053 4147 
L 1259 4147 
z
M 628 4666 
L 2053 4666 
Q 2838 4666 3239 4311 
Q 3641 3956 3641 3272 
Q 3641 2581 3239 2228 
Q 2838 1875 2053 1875 
L 1259 1875 
L 1259 0 
L 628 0 
L 628 4666 
z
" transform="scale(0.015625)"/>
       <path id="DejaVuSans-72" d="M 2631 2963 
Q 2534 3019 2420 3045 
Q 2306 3072 2169 3072 
Q 1681 3072 1420 2755 
Q 1159 2438 1159 1844 
L 1159 0 
L 581 0 
L 581 3500 
L 1159 3500 
L 1159 2956 
Q 1341 3275 1631 3429 
Q 1922 3584 2338 3584 
Q 2397 3584 2469 3576 
Q 2541 3569 2628 3553 
L 2631 2963 
z
" transform="scale(0.015625)"/>
       <path id="DejaVuSans-6f" d="M 1959 3097 
Q 1497 3097 1228 2736 
Q 959 2375 959 1747 
Q 959 1119 1226 758 
Q 1494 397 1959 397 
Q 2419 397 2687 759 
Q 2956 1122 2956 1747 
Q 2956 2369 2687 2733 
Q 2419 3097 1959 3097 
z
M 1959 3584 
Q 2709 3584 3137 3096 
Q 3566 2609 3566 1747 
Q 3566 888 3137 398 
Q 2709 -91 1959 -91 
Q 1206 -91 779 398 
Q 353 888 353 1747 
Q 353 2609 779 3096 
Q 1206 3584 1959 3584 
z
" transform="scale(0.015625)"/>
       <path id="DejaVuSans-62" d="M 3116 1747 
Q 3116 2381 2855 2742 
Q 2594 3103 2138 3103 
Q 1681 3103 1420 2742 
Q 1159 2381 1159 1747 
Q 1159 1113 1420 752 
Q 1681 391 2138 391 
Q 2594 391 2855 752 
Q 3116 1113 3116 1747 
z
M 1159 2969 
Q 1341 3281 1617 3432 
Q 1894 3584 2278 3584 
Q 2916 3584 3314 3078 
Q 3713 2572 3713 1747 
Q 3713 922 3314 415 
Q 2916 -91 2278 -91 
Q 1894 -91 1617 61 
Q 1341 213 1159 525 
L 1159 0 
L 581 0 
L 581 4863 
L 1159 4863 
L 1159 2969 
z
" transform="scale(0.015625)"/>
       <path id="DejaVuSans-65" d="M 3597 1894 
L 3597 1613 
L 953 1613 
Q 991 1019 1311 708 
Q 1631 397 2203 397 
Q 2534 397 2845 478 
Q 3156 559 3463 722 
L 3463 178 
Q 3153 47 2828 -22 
Q 2503 -91 2169 -91 
Q 1331 -91 842 396 
Q 353 884 353 1716 
Q 353 2575 817 3079 
Q 1281 3584 2069 3584 
Q 2775 3584 3186 3129 
Q 3597 2675 3597 1894 
z
M 3022 2063 
Q 3016 2534 2758 2815 
Q 2500 3097 2075 3097 
Q 1594 3097 1305 2825 
Q 1016 2553 972 2059 
L 3022 2063 
z
" transform="scale(0.015625)"/>
       <path id="DejaVuSans-20" transform="scale(0.015625)"/>
       <path id="DejaVuSans-49" d="M 628 4666 
L 1259 4666 
L 1259 0 
L 628 0 
L 628 4666 
z
" transform="scale(0.015625)"/>
       <path id="DejaVuSans-6e" d="M 3513 2113 
L 3513 0 
L 2938 0 
L 2938 2094 
Q 2938 2591 2744 2837 
Q 2550 3084 2163 3084 
Q 1697 3084 1428 2787 
Q 1159 2491 1159 1978 
L 1159 0 
L 581 0 
L 581 3500 
L 1159 3500 
L 1159 2956 
Q 1366 3272 1645 3428 
Q 1925 3584 2291 3584 
Q 2894 3584 3203 3211 
Q 3513 2838 3513 2113 
z
" transform="scale(0.015625)"/>
       <path id="DejaVuSans-64" d="M 2906 2969 
L 2906 4863 
L 3481 4863 
L 3481 0 
L 2906 0 
L 2906 525 
Q 2725 213 2448 61 
Q 2172 -91 1784 -91 
Q 1150 -91 751 415 
Q 353 922 353 1747 
Q 353 2572 751 3078 
Q 1150 3584 1784 3584 
Q 2172 3584 2448 3432 
Q 2725 3281 2906 2969 
z
M 947 1747 
Q 947 1113 1208 752 
Q 1469 391 1925 391 
Q 2381 391 2643 752 
Q 2906 1113 2906 1747 
Q 2906 2381 2643 2742 
Q 2381 3103 1925 3103 
Q 1469 3103 1208 2742 
Q 947 2381 947 1747 
z
" transform="scale(0.015625)"/>
       <path id="DejaVuSans-78" d="M 3513 3500 
L 2247 1797 
L 3578 0 
L 2900 0 
L 1881 1375 
L 863 0 
L 184 0 
L 1544 1831 
L 300 3500 
L 978 3500 
L 1906 2253 
L 2834 3500 
L 3513 3500 
z
" transform="scale(0.015625)"/>
      </defs>
      <use xlink:href="#DejaVuSans-50"/>
      <use xlink:href="#DejaVuSans-72" transform="translate(58.552734 0)"/>
      <use xlink:href="#DejaVuSans-6f" transform="translate(97.416016 0)"/>
      <use xlink:href="#DejaVuSans-62" transform="translate(158.597656 0)"/>
      <use xlink:href="#DejaVuSans-65" transform="translate(222.074219 0)"/>
      <use xlink:href="#DejaVuSans-20" transform="translate(283.597656 0)"/>
      <use xlink:href="#DejaVuSans-49" transform="translate(315.384766 0)"/>
      <use xlink:href="#DejaVuSans-6e" transform="translate(344.876953 0)"/>
      <use xlink:href="#DejaVuSans-64" transform="translate(408.255859 0)"/>
      <use xlink:href="#DejaVuSans-65" transform="translate(471.732422 0)"/>
      <use xlink:href="#DejaVuSans-78" transform="translate(531.505859 0)"/>
     </g>
    </g>
   </g>
   <g id="matplotlib.axis_2">
    <g id="ytick_1">
     <g id="line2d_11">
      <path d="M 45.716875 504.357813 
L 992.316875 504.357813 
" clip-path="url(#p8e0b032923)" style="fill: none; stroke: #b0b0b0; stroke-opacity: 0.3; stroke-width: 0.8; stroke-linecap: square"/>
     </g>
     <g id="line2d_12">
      <defs>
       <path id="mf8b223f147" d="M 0 0 
L -3.5 0 
" style="stroke: #000000; stroke-width: 0.8"/>
      </defs>
      <g>
       <use xlink:href="#mf8b223f147" x="45.716875" y="504.357813" style="stroke: #000000; stroke-width: 0.8"/>
      </g>
     </g>
     <g id="text_7">
      <!-- 0.0 -->
      <g transform="translate(22.81375 508.157031) scale(0.1 -0.1)">
       <defs>
        <path id="DejaVuSans-2e" d="M 684 794 
L 1344 794 
L 1344 0 
L 684 0 
L 684 794 
z
" transform="scale(0.015625)"/>
       </defs>
       <use xlink:href="#DejaVuSans-30"/>
       <use xlink:href="#DejaVuSans-2e" transform="translate(63.623047 0)"/>
       <use xlink:href="#DejaVuSans-30" transform="translate(95.410156 0)"/>
      </g>
     </g>
    </g>
    <g id="ytick_2">
     <g id="line2d_13">
      <path d="M 45.716875 408.253813 
L 992.316875 408.253813 
" clip-path="url(#p8e0b032923)" style="fill: none; stroke: #b0b0b0; stroke-opacity: 0.3; stroke-width: 0.8; stroke-linecap: square"/>
     </g>
     <g id="line2d_14">
      <g>
       <use xlink:href="#mf8b223f147" x="45.716875" y="408.253813" style="stroke: #000000; stroke-width: 0.8"/>
      </g>
     </g>
     <g id="text_8">
      <!-- 0.2 -->
      <g transform="translate(22.81375 412.053031) scale(0.1 -0.1)">
       <use xlink:href="#DejaVuSans-30"/>
       <use xlink:href="#DejaVuSans-2e" transform="translate(63.623047 0)"/>
       <use xlink:href="#DejaVuSans-32" transform="translate(95.410156 0)"/>
      </g>
     </g>
    </g>
    <g id="ytick_3">
     <g id="line2d_15">
      <path d="M 45.716875 312.149812 
L 992.316875 312.149812 
" clip-path="url(#p8e0b032923)" style="fill: none; stroke: #b0b0b0; stroke-opacity: 0.3; stroke-width: 0.8; stroke-linecap: square"/>
     </g>
     <g id="line2d_16">
      <g>
       <use xlink:href="#mf8b223f147" x="45.716875" y="312.149812" style="stroke: #000000; stroke-width: 0.8"/>
      </g>
     </g>
     <g id="text_9">
      <!-- 0.4 -->
      <g transform="translate(22.81375 315.949031) scale(0.1 -0.1)">
       <defs>
        <path id="DejaVuSans-34" d="M 2419 4116 
L 825 1625 
L 2419 1625 
L 2419 4116 
z
M 2253 4666 
L 3047 4666 
L 3047 1625 
L 3713 1625 
L 3713 1100 
L 3047 1100 
L 3047 0 
L 2419 0 
L 2419 1100 
L 313 1100 
L 313 1709 
L 2253 4666 
z
" transform="scale(0.015625)"/>
       </defs>
       <use xlink:href="#DejaVuSans-30"/>
       <use xlink:href="#DejaVuSans-2e" transform="translate(63.623047 0)"/>
       <use xlink:href="#DejaVuSans-34" transform="translate(95.410156 0)"/>
      </g>
     </g>
    </g>
    <g id="ytick_4">
     <g id="line2d_17">
      <path d="M 45.716875 216.045812 
L 992.316875 216.045812 
" clip-path="url(#p8e0b032923)" style="fill: none; stroke: #b0b0b0; stroke-opacity: 0.3; stroke-width: 0.8; stroke-linecap: square"/>
     </g>
     <g id="line2d_18">
      <g>
       <use xlink:href="#mf8b223f147" x="45.716875" y="216.045812" style="stroke: #000000; stroke-width: 0.8"/>
      </g>
     </g>
     <g id="text_10">
      <!-- 0.6 -->
      <g transform="translate(22.81375 219.845031) scale(0.1 -0.1)">
       <defs>
        <path id="DejaVuSans-36" d="M 2113 2584 
Q 1688 2584 1439 2293 
Q 1191 2003 1191 1497 
Q 1191 994 1439 701 
Q 1688 409 2113 409 
Q 2538 409 2786 701 
Q 3034 994 3034 1497 
Q 3034 2003 2786 2293 
Q 2538 2584 2113 2584 
z
M 3366 4563 
L 3366 3988 
Q 3128 4100 2886 4159 
Q 2644 4219 2406 4219 
Q 1781 4219 1451 3797 
Q 1122 3375 1075 2522 
Q 1259 2794 1537 2939 
Q 1816 3084 2150 3084 
Q 2853 3084 3261 2657 
Q 3669 2231 3669 1497 
Q 3669 778 3244 343 
Q 2819 -91 2113 -91 
Q 1303 -91 875 529 
Q 447 1150 447 2328 
Q 447 3434 972 4092 
Q 1497 4750 2381 4750 
Q 2619 4750 2861 4703 
Q 3103 4656 3366 4563 
z
" transform="scale(0.015625)"/>
       </defs>
       <use xlink:href="#DejaVuSans-30"/>
       <use xlink:href="#DejaVuSans-2e" transform="translate(63.623047 0)"/>
       <use xlink:href="#DejaVuSans-36" transform="translate(95.410156 0)"/>
      </g>
     </g>
    </g>
    <g id="ytick_5">
     <g id="line2d_19">
      <path d="M 45.716875 119.941812 
L 992.316875 119.941812 
" clip-path="url(#p8e0b032923)" style="fill: none; stroke: #b0b0b0; stroke-opacity: 0.3; stroke-width: 0.8; stroke-linecap: square"/>
     </g>
     <g id="line2d_20">
      <g>
       <use xlink:href="#mf8b223f147" x="45.716875" y="119.941812" style="stroke: #000000; stroke-width: 0.8"/>
      </g>
     </g>
     <g id="text_11">
      <!-- 0.8 -->
      <g transform="translate(22.81375 123.741031) scale(0.1 -0.1)">
       <defs>
        <path id="DejaVuSans-38" d="M 2034 2216 
Q 1584 2216 1326 1975 
Q 1069 1734 1069 1313 
Q 1069 891 1326 650 
Q 1584 409 2034 409 
Q 2484 409 2743 651 
Q 3003 894 3003 1313 
Q 3003 1734 2745 1975 
Q 2488 2216 2034 2216 
z
M 1403 2484 
Q 997 2584 770 2862 
Q 544 3141 544 3541 
Q 544 4100 942 4425 
Q 1341 4750 2034 4750 
Q 2731 4750 3128 4425 
Q 3525 4100 3525 3541 
Q 3525 3141 3298 2862 
Q 3072 2584 2669 2484 
Q 3125 2378 3379 2068 
Q 3634 1759 3634 1313 
Q 3634 634 3220 271 
Q 2806 -91 2034 -91 
Q 1263 -91 848 271 
Q 434 634 434 1313 
Q 434 1759 690 2068 
Q 947 2378 1403 2484 
z
M 1172 3481 
Q 1172 3119 1398 2916 
Q 1625 2713 2034 2713 
Q 2441 2713 2670 2916 
Q 2900 3119 2900 3481 
Q 2900 3844 2670 4047 
Q 2441 4250 2034 4250 
Q 1625 4250 1398 4047 
Q 1172 3844 1172 3481 
z
" transform="scale(0.015625)"/>
       </defs>
       <use xlink:href="#DejaVuSans-30"/>
       <use xlink:href="#DejaVuSans-2e" transform="translate(63.623047 0)"/>
       <use xlink:href="#DejaVuSans-38" transform="translate(95.410156 0)"/>
      </g>
     </g>
    </g>
    <g id="ytick_6">
     <g id="line2d_21">
      <path d="M 45.716875 23.837812 
L 992.316875 23.837812 
" clip-path="url(#p8e0b032923)" style="fill: none; stroke: #b0b0b0; stroke-opacity: 0.3; stroke-width: 0.8; stroke-linecap: square"/>
     </g>
     <g id="line2d_22">
      <g>
       <use xlink:href="#mf8b223f147" x="45.716875" y="23.837812" style="stroke: #000000; stroke-width: 0.8"/>
      </g>
     </g>
     <g id="text_12">
      <!-- 1.0 -->
      <g transform="translate(22.81375 27.637031) scale(0.1 -0.1)">
       <use xlink:href="#DejaVuSans-31"/>
       <use xlink:href="#DejaVuSans-2e" transform="translate(63.623047 0)"/>
       <use xlink:href="#DejaVuSans-30" transform="translate(95.410156 0)"/>
      </g>
     </g>
    </g>
    <g id="text_13">
     <!-- Cosine Distance from Baseline -->
     <g transform="translate(16.318125 355.599687) rotate(-90) scale(0.12 -0.12)">
      <defs>
       <path id="DejaVuSans-43" d="M 4122 4306 
L 4122 3641 
Q 3803 3938 3442 4084 
Q 3081 4231 2675 4231 
Q 1875 4231 1450 3742 
Q 1025 3253 1025 2328 
Q 1025 1406 1450 917 
Q 1875 428 2675 428 
Q 3081 428 3442 575 
Q 3803 722 4122 1019 
L 4122 359 
Q 3791 134 3420 21 
Q 3050 -91 2638 -91 
Q 1578 -91 968 557 
Q 359 1206 359 2328 
Q 359 3453 968 4101 
Q 1578 4750 2638 4750 
Q 3056 4750 3426 4639 
Q 3797 4528 4122 4306 
z
" transform="scale(0.015625)"/>
       <path id="DejaVuSans-73" d="M 2834 3397 
L 2834 2853 
Q 2591 2978 2328 3040 
Q 2066 3103 1784 3103 
Q 1356 3103 1142 2972 
Q 928 2841 928 2578 
Q 928 2378 1081 2264 
Q 1234 2150 1697 2047 
L 1894 2003 
Q 2506 1872 2764 1633 
Q 3022 1394 3022 966 
Q 3022 478 2636 193 
Q 2250 -91 1575 -91 
Q 1294 -91 989 -36 
Q 684 19 347 128 
L 347 722 
Q 666 556 975 473 
Q 1284 391 1588 391 
Q 1994 391 2212 530 
Q 2431 669 2431 922 
Q 2431 1156 2273 1281 
Q 2116 1406 1581 1522 
L 1381 1569 
Q 847 1681 609 1914 
Q 372 2147 372 2553 
Q 372 3047 722 3315 
Q 1072 3584 1716 3584 
Q 2034 3584 2315 3537 
Q 2597 3491 2834 3397 
z
" transform="scale(0.015625)"/>
       <path id="DejaVuSans-69" d="M 603 3500 
L 1178 3500 
L 1178 0 
L 603 0 
L 603 3500 
z
M 603 4863 
L 1178 4863 
L 1178 4134 
L 603 4134 
L 603 4863 
z
" transform="scale(0.015625)"/>
       <path id="DejaVuSans-44" d="M 1259 4147 
L 1259 519 
L 2022 519 
Q 2988 519 3436 956 
Q 3884 1394 3884 2338 
Q 3884 3275 3436 3711 
Q 2988 4147 2022 4147 
L 1259 4147 
z
M 628 4666 
L 1925 4666 
Q 3281 4666 3915 4102 
Q 4550 3538 4550 2338 
Q 4550 1131 3912 565 
Q 3275 0 1925 0 
L 628 0 
L 628 4666 
z
" transform="scale(0.015625)"/>
       <path id="DejaVuSans-74" d="M 1172 4494 
L 1172 3500 
L 2356 3500 
L 2356 3053 
L 1172 3053 
L 1172 1153 
Q 1172 725 1289 603 
Q 1406 481 1766 481 
L 2356 481 
L 2356 0 
L 1766 0 
Q 1100 0 847 248 
Q 594 497 594 1153 
L 594 3053 
L 172 3053 
L 172 3500 
L 594 3500 
L 594 4494 
L 1172 4494 
z
" transform="scale(0.015625)"/>
       <path id="DejaVuSans-61" d="M 2194 1759 
Q 1497 1759 1228 1600 
Q 959 1441 959 1056 
Q 959 750 1161 570 
Q 1363 391 1709 391 
Q 2188 391 2477 730 
Q 2766 1069 2766 1631 
L 2766 1759 
L 2194 1759 
z
M 3341 1997 
L 3341 0 
L 2766 0 
L 2766 531 
Q 2569 213 2275 61 
Q 1981 -91 1556 -91 
Q 1019 -91 701 211 
Q 384 513 384 1019 
Q 384 1609 779 1909 
Q 1175 2209 1959 2209 
L 2766 2209 
L 2766 2266 
Q 2766 2663 2505 2880 
Q 2244 3097 1772 3097 
Q 1472 3097 1187 3025 
Q 903 2953 641 2809 
L 641 3341 
Q 956 3463 1253 3523 
Q 1550 3584 1831 3584 
Q 2591 3584 2966 3190 
Q 3341 2797 3341 1997 
z
" transform="scale(0.015625)"/>
       <path id="DejaVuSans-63" d="M 3122 3366 
L 3122 2828 
Q 2878 2963 2633 3030 
Q 2388 3097 2138 3097 
Q 1578 3097 1268 2742 
Q 959 2388 959 1747 
Q 959 1106 1268 751 
Q 1578 397 2138 397 
Q 2388 397 2633 464 
Q 2878 531 3122 666 
L 3122 134 
Q 2881 22 2623 -34 
Q 2366 -91 2075 -91 
Q 1284 -91 818 406 
Q 353 903 353 1747 
Q 353 2603 823 3093 
Q 1294 3584 2113 3584 
Q 2378 3584 2631 3529 
Q 2884 3475 3122 3366 
z
" transform="scale(0.015625)"/>
       <path id="DejaVuSans-66" d="M 2375 4863 
L 2375 4384 
L 1825 4384 
Q 1516 4384 1395 4259 
Q 1275 4134 1275 3809 
L 1275 3500 
L 2222 3500 
L 2222 3053 
L 1275 3053 
L 1275 0 
L 697 0 
L 697 3053 
L 147 3053 
L 147 3500 
L 697 3500 
L 697 3744 
Q 697 4328 969 4595 
Q 1241 4863 1831 4863 
L 2375 4863 
z
" transform="scale(0.015625)"/>
       <path id="DejaVuSans-6d" d="M 3328 2828 
Q 3544 3216 3844 3400 
Q 4144 3584 4550 3584 
Q 5097 3584 5394 3201 
Q 5691 2819 5691 2113 
L 5691 0 
L 5113 0 
L 5113 2094 
Q 5113 2597 4934 2840 
Q 4756 3084 4391 3084 
Q 3944 3084 3684 2787 
Q 3425 2491 3425 1978 
L 3425 0 
L 2847 0 
L 2847 2094 
Q 2847 2600 2669 2842 
Q 2491 3084 2119 3084 
Q 1678 3084 1418 2786 
Q 1159 2488 1159 1978 
L 1159 0 
L 581 0 
L 581 3500 
L 1159 3500 
L 1159 2956 
Q 1356 3278 1631 3431 
Q 1906 3584 2284 3584 
Q 2666 3584 2933 3390 
Q 3200 3197 3328 2828 
z
" transform="scale(0.015625)"/>
       <path id="DejaVuSans-42" d="M 1259 2228 
L 1259 519 
L 2272 519 
Q 2781 519 3026 730 
Q 3272 941 3272 1375 
Q 3272 1813 3026 2020 
Q 2781 2228 2272 2228 
L 1259 2228 
z
M 1259 4147 
L 1259 2741 
L 2194 2741 
Q 2656 2741 2882 2914 
Q 3109 3088 3109 3444 
Q 3109 3797 2882 3972 
Q 2656 4147 2194 4147 
L 1259 4147 
z
M 628 4666 
L 2241 4666 
Q 2963 4666 3353 4366 
Q 3744 4066 3744 3513 
Q 3744 3084 3544 2831 
Q 3344 2578 2956 2516 
Q 3422 2416 3680 2098 
Q 3938 1781 3938 1306 
Q 3938 681 3513 340 
Q 3088 0 2303 0 
L 628 0 
L 628 4666 
z
" transform="scale(0.015625)"/>
       <path id="DejaVuSans-6c" d="M 603 4863 
L 1178 4863 
L 1178 0 
L 603 0 
L 603 4863 
z
" transform="scale(0.015625)"/>
      </defs>
      <use xlink:href="#DejaVuSans-43"/>
      <use xlink:href="#DejaVuSans-6f" transform="translate(69.824219 0)"/>
      <use xlink:href="#DejaVuSans-73" transform="translate(131.005859 0)"/>
      <use xlink:href="#DejaVuSans-69" transform="translate(183.105469 0)"/>
      <use xlink:href="#DejaVuSans-6e" transform="translate(210.888672 0)"/>
      <use xlink:href="#DejaVuSans-65" transform="translate(274.267578 0)"/>
      <use xlink:href="#DejaVuSans-20" transform="translate(335.791016 0)"/>
      <use xlink:href="#DejaVuSans-44" transform="translate(367.578125 0)"/>
      <use xlink:href="#DejaVuSans-69" transform="translate(444.580078 0)"/>
      <use xlink:href="#DejaVuSans-73" transform="translate(472.363281 0)"/>
      <use xlink:href="#DejaVuSans-74" transform="translate(524.462891 0)"/>
      <use xlink:href="#DejaVuSans-61" transform="translate(563.671875 0)"/>
      <use xlink:href="#DejaVuSans-6e" transform="translate(624.951172 0)"/>
      <use xlink:href="#DejaVuSans-63" transform="translate(688.330078 0)"/>
      <use xlink:href="#DejaVuSans-65" transform="translate(743.310547 0)"/>
      <use xlink:href="#DejaVuSans-20" transform="translate(804.833984 0)"/>
      <use xlink:href="#DejaVuSans-66" transform="translate(836.621094 0)"/>
      <use xlink:href="#DejaVuSans-72" transform="translate(871.826172 0)"/>
      <use xlink:href="#DejaVuSans-6f" transform="translate(910.689453 0)"/>
      <use xlink:href="#DejaVuSans-6d" transform="translate(971.871094 0)"/>
      <use xlink:href="#DejaVuSans-20" transform="translate(1069.283203 0)"/>
      <use xlink:href="#DejaVuSans-42" transform="translate(1101.070312 0)"/>
      <use xlink:href="#DejaVuSans-61" transform="translate(1169.673828 0)"/>
      <use xlink:href="#DejaVuSans-73" transform="translate(1230.953125 0)"/>
      <use xlink:href="#DejaVuSans-65" transform="translate(1283.052734 0)"/>
      <use xlink:href="#DejaVuSans-6c" transform="translate(1344.576172 0)"/>
      <use xlink:href="#DejaVuSans-69" transform="translate(1372.359375 0)"/>
      <use xlink:href="#DejaVuSans-6e" transform="translate(1400.142578 0)"/>
      <use xlink:href="#DejaVuSans-65" transform="translate(1463.521484 0)"/>
     </g>
    </g>
   </g>
   <g id="line2d_23">
    <path d="M 45.716875 504.357813 
L 85.158542 504.357813 
L 124.600208 504.357813 
L 164.041875 273.40511 
L 203.483542 306.128693 
L 242.925208 307.957183 
L 282.366875 358.570747 
L 321.808542 279.158243 
L 361.250208 357.980229 
L 400.691875 340.004245 
L 440.133542 326.40644 
L 479.575208 320.836743 
L 519.016875 347.543108 
L 558.458542 336.987136 
L 597.900208 372.124079 
L 637.341875 345.082507 
L 676.783542 315.820582 
L 716.225208 332.463718 
L 755.666875 353.711685 
L 795.108542 316.063832 
L 834.550208 359.979256 
L 873.991875 349.633864 
L 913.433542 334.955063 
L 952.875208 335.169699 
L 992.316875 335.169699 
" clip-path="url(#p8e0b032923)" style="fill: none; stroke: #e07b53; stroke-opacity: 0.7; stroke-width: 1.5; stroke-linecap: square"/>
   </g>
   <g id="line2d_24">
    <path d="M 45.716875 504.357813 
L 85.158542 504.357813 
L 124.600208 504.357813 
L 164.041875 379.962894 
L 203.483542 263.800823 
L 242.925208 182.668925 
L 282.366875 272.147671 
L 321.808542 236.796323 
L 361.250208 438.464622 
L 400.691875 413.348136 
L 440.133542 256.051273 
L 479.575208 189.807331 
L 519.016875 270.638916 
L 558.458542 391.08185 
L 597.900208 362.447362 
L 637.341875 286.869486 
L 676.783542 269.828561 
L 716.225208 193.691971 
L 755.666875 281.846232 
L 795.108542 243.01994 
L 834.550208 418.810663 
L 873.991875 387.084539 
L 913.433542 258.380731 
L 952.875208 200.460129 
L 992.316875 200.460129 
" clip-path="url(#p8e0b032923)" style="fill: none; stroke: #10a37f; stroke-opacity: 0.7; stroke-width: 1.5; stroke-linecap: square"/>
   </g>
   <g id="line2d_25">
    <path d="M 45.716875 504.357813 
L 85.158542 504.357813 
L 124.600208 504.357813 
L 164.041875 190.307877 
L 203.483542 112.787074 
L 242.925208 202.88851 
L 282.366875 210.692933 
L 321.808542 194.246663 
L 361.250208 364.354295 
L 400.691875 341.26783 
L 440.133542 163.53404 
L 479.575208 171.393845 
L 519.016875 172.728434 
L 558.458542 340.4535 
L 597.900208 292.034677 
L 637.341875 158.07444 
L 676.783542 114.576718 
L 716.225208 193.637289 
L 755.666875 215.128689 
L 795.108542 192.615701 
L 834.550208 358.232032 
L 873.991875 345.509976 
L 913.433542 164.615196 
L 952.875208 168.123372 
L 992.316875 168.123372 
" clip-path="url(#p8e0b032923)" style="fill: none; stroke: #10a37f; stroke-opacity: 0.7; stroke-width: 1.5; stroke-linecap: square"/>
   </g>
   <g id="line2d_26">
    <path d="M 45.716875 504.357813 
L 85.158542 504.357813 
L 124.600208 504.357813 
L 164.041875 352.258124 
L 203.483542 331.214505 
L 242.925208 344.990716 
L 282.366875 376.657437 
L 321.808542 375.640115 
L 361.250208 383.842234 
L 400.691875 365.546471 
L 440.133542 379.584276 
L 479.575208 378.758358 
L 519.016875 374.256284 
L 558.458542 380.514854 
L 597.900208 380.382587 
L 637.341875 379.73149 
L 676.783542 376.547803 
L 716.225208 377.729715 
L 755.666875 378.714917 
L 795.108542 379.456604 
L 834.550208 379.456604 
L 873.991875 379.456604 
L 913.433542 379.456604 
L 952.875208 379.456604 
L 992.316875 379.456604 
" clip-path="url(#p8e0b032923)" style="fill: none; stroke: #4285f4; stroke-opacity: 0.7; stroke-width: 1.5; stroke-linecap: square"/>
   </g>
   <g id="line2d_27">
    <path d="M 45.716875 504.357813 
L 85.158542 504.357813 
L 124.600208 504.357813 
L 164.041875 288.83981 
L 203.483542 262.251752 
L 242.925208 282.702868 
L 282.366875 262.695918 
L 321.808542 324.488128 
L 361.250208 324.226109 
L 400.691875 322.684403 
L 440.133542 302.46437 
L 479.575208 300.556155 
L 519.016875 277.938148 
L 558.458542 307.46011 
L 597.900208 309.923229 
L 637.341875 309.667444 
L 676.783542 283.305463 
L 716.225208 297.938134 
L 755.666875 288.697491 
L 795.108542 311.239965 
L 834.550208 312.954338 
L 873.991875 303.227994 
L 913.433542 302.759947 
L 952.875208 299.384447 
L 992.316875 299.384447 
" clip-path="url(#p8e0b032923)" style="fill: none; stroke: #4285f4; stroke-opacity: 0.7; stroke-width: 1.5; stroke-linecap: square"/>
   </g>
   <g id="line2d_28">
    <path d="M 45.716875 504.357813 
L 85.158542 504.357813 
L 124.600208 504.357813 
L 164.041875 167.05262 
L 203.483542 189.537201 
L 242.925208 302.744048 
L 282.366875 310.136906 
L 321.808542 342.621276 
L 361.250208 341.581251 
L 400.691875 343.548624 
L 440.133542 336.823988 
L 479.575208 325.535712 
L 519.016875 324.739406 
L 558.458542 342.971576 
L 597.900208 336.300107 
L 637.341875 329.381372 
L 676.783542 305.628459 
L 716.225208 328.605425 
L 755.666875 332.056353 
L 795.108542 335.829843 
L 834.550208 337.646503 
L 873.991875 339.179729 
L 913.433542 338.745804 
L 952.875208 336.42212 
L 992.316875 336.42212 
" clip-path="url(#p8e0b032923)" style="fill: none; stroke: #1da1f2; stroke-opacity: 0.7; stroke-width: 1.5; stroke-linecap: square"/>
   </g>
   <g id="line2d_29">
    <path d="M 45.716875 504.357813 
L 85.158542 504.357813 
L 124.600208 504.357813 
L 164.041875 271.378626 
L 203.483542 193.468006 
L 242.925208 199.051364 
L 282.366875 273.343129 
L 321.808542 261.010039 
L 361.250208 321.786575 
L 400.691875 307.582877 
L 440.133542 267.660141 
L 479.575208 241.135351 
L 519.016875 270.891778 
L 558.458542 311.16999 
L 597.900208 290.520161 
L 637.341875 267.591447 
L 676.783542 247.077953 
L 716.225208 246.856581 
L 755.666875 269.107965 
L 795.108542 258.563494 
L 834.550208 291.046426 
L 873.991875 287.987204 
L 913.433542 263.609209 
L 952.875208 250.375599 
L 992.316875 250.375599 
" clip-path="url(#p8e0b032923)" style="fill: none; stroke: #1da1f2; stroke-opacity: 0.7; stroke-width: 1.5; stroke-linecap: square"/>
   </g>
   <g id="line2d_30">
    <path d="M 45.716875 504.357813 
L 85.158542 504.357813 
L 124.600208 504.357813 
L 164.041875 259.521789 
L 203.483542 238.067434 
L 242.925208 275.001342 
L 282.366875 297.227973 
L 321.808542 300.310413 
L 361.250208 339.293688 
L 400.691875 327.377831 
L 440.133542 317.961329 
L 479.575208 297.502461 
L 519.016875 300.167813 
L 558.458542 318.793458 
L 597.900208 326.2057 
L 637.341875 303.24729 
L 676.783542 286.660919 
L 716.225208 301.620048 
L 755.666875 305.26335 
L 795.108542 309.370387 
L 834.550208 315.981715 
L 873.991875 313.915014 
L 913.433542 314.220847 
L 952.875208 308.697409 
L 992.316875 308.697409 
" clip-path="url(#p8e0b032923)" style="fill: none; stroke: #1da1f2; stroke-opacity: 0.7; stroke-width: 1.5; stroke-linecap: square"/>
   </g>
   <g id="line2d_31">
    <path d="M 45.716875 504.357813 
L 85.158542 504.357813 
L 124.600208 504.357813 
L 164.041875 381.827781 
L 203.483542 320.44224 
L 242.925208 349.249058 
L 282.366875 355.711157 
L 321.808542 346.038097 
L 361.250208 376.129284 
L 400.691875 375.313382 
L 440.133542 365.626559 
L 479.575208 350.16576 
L 519.016875 344.483998 
L 558.458542 365.79735 
L 597.900208 365.658671 
L 637.341875 355.639213 
L 676.783542 349.780187 
L 716.225208 350.707938 
L 755.666875 351.335674 
L 795.108542 351.951975 
L 834.550208 351.951975 
L 873.991875 351.951975 
L 913.433542 351.951975 
L 952.875208 351.951975 
L 992.316875 351.951975 
" clip-path="url(#p8e0b032923)" style="fill: none; stroke: #1da1f2; stroke-opacity: 0.7; stroke-width: 1.5; stroke-linecap: square"/>
   </g>
   <g id="line2d_32">
    <path d="M 45.716875 504.357813 
L 85.158542 504.357813 
L 124.600208 504.357813 
L 164.041875 250.84203 
L 203.483542 262.400886 
L 242.925208 340.429877 
L 282.366875 326.85058 
L 321.808542 288.251409 
L 361.250208 368.016647 
L 400.691875 302.024065 
L 440.133542 280.301197 
L 479.575208 315.947465 
L 519.016875 313.017704 
L 558.458542 330.925443 
L 597.900208 320.059207 
L 637.341875 318.91632 
L 676.783542 306.451557 
L 716.225208 323.601808 
L 755.666875 320.28837 
L 795.108542 310.183929 
L 834.550208 327.819405 
L 873.991875 314.437888 
L 913.433542 310.134295 
L 952.875208 319.400626 
L 992.316875 319.400626 
" clip-path="url(#p8e0b032923)" style="fill: none; stroke: #7c3aed; stroke-opacity: 0.7; stroke-width: 1.5; stroke-linecap: square"/>
   </g>
   <g id="line2d_33">
    <path d="M 45.716875 504.357813 
L 85.158542 504.357813 
L 124.600208 504.357813 
L 164.041875 286.27474 
L 203.483542 272.855128 
L 242.925208 299.026699 
L 282.366875 324.678201 
L 321.808542 285.748601 
L 361.250208 332.102973 
L 400.691875 318.687528 
L 440.133542 325.950576 
L 479.575208 309.899434 
L 519.016875 300.972805 
L 558.458542 318.050588 
L 597.900208 315.692037 
L 637.341875 318.15161 
L 676.783542 309.330002 
L 716.225208 310.064508 
L 755.666875 316.399102 
L 795.108542 308.441406 
L 834.550208 317.161625 
L 873.991875 312.999416 
L 913.433542 316.21083 
L 952.875208 314.575623 
L 992.316875 314.575623 
" clip-path="url(#p8e0b032923)" style="fill: none; stroke: #7c3aed; stroke-opacity: 0.7; stroke-width: 1.5; stroke-linecap: square"/>
   </g>
   <g id="line2d_34">
    <path d="M 45.716875 504.357813 
L 85.158542 504.357813 
L 124.600208 504.357813 
L 164.041875 299.657724 
L 203.483542 255.266222 
L 242.925208 288.250831 
L 282.366875 262.385574 
L 321.808542 282.068127 
L 361.250208 312.58859 
L 400.691875 299.233629 
L 440.133542 290.896441 
L 479.575208 248.774981 
L 519.016875 238.640417 
L 558.458542 309.202024 
L 597.900208 283.014123 
L 637.341875 307.932971 
L 676.783542 254.184402 
L 716.225208 278.678377 
L 755.666875 261.829337 
L 795.108542 281.342645 
L 834.550208 306.485947 
L 873.991875 295.184309 
L 913.433542 289.204558 
L 952.875208 251.254373 
L 992.316875 251.254373 
" clip-path="url(#p8e0b032923)" style="fill: none; stroke: #7c3aed; stroke-opacity: 0.7; stroke-width: 1.5; stroke-linecap: square"/>
   </g>
   <g id="line2d_35">
    <path d="M 45.716875 504.357813 
L 85.158542 504.357813 
L 124.600208 504.357813 
L 164.041875 320.632493 
L 203.483542 245.405019 
L 242.925208 335.07686 
L 282.366875 355.65284 
L 321.808542 321.692213 
L 361.250208 374.950694 
L 400.691875 364.934544 
L 440.133542 355.676587 
L 479.575208 305.020682 
L 519.016875 354.571273 
L 558.458542 376.851008 
L 597.900208 360.50126 
L 637.341875 346.45834 
L 676.783542 305.89208 
L 716.225208 346.240499 
L 755.666875 358.404157 
L 795.108542 334.271442 
L 834.550208 368.506316 
L 873.991875 362.882914 
L 913.433542 359.910914 
L 952.875208 327.664643 
L 992.316875 327.664643 
" clip-path="url(#p8e0b032923)" style="fill: none; stroke: #7c3aed; stroke-opacity: 0.7; stroke-width: 1.5; stroke-linecap: square"/>
   </g>
   <g id="line2d_36">
    <path d="M 45.716875 504.357813 
L 85.158542 504.357813 
L 124.600208 504.357813 
L 164.041875 299.298547 
L 203.483542 217.938252 
L 242.925208 292.436187 
L 282.366875 316.396925 
L 321.808542 282.590447 
L 361.250208 350.566916 
L 400.691875 343.452042 
L 440.133542 310.276441 
L 479.575208 320.783855 
L 519.016875 299.982574 
L 558.458542 340.776453 
L 597.900208 325.122619 
L 637.341875 319.14119 
L 676.783542 298.430294 
L 716.225208 307.440925 
L 755.666875 320.526552 
L 795.108542 314.450506 
L 834.550208 327.956059 
L 873.991875 326.007182 
L 913.433542 314.634513 
L 952.875208 319.419418 
L 992.316875 319.419418 
" clip-path="url(#p8e0b032923)" style="fill: none; stroke: #7c3aed; stroke-opacity: 0.7; stroke-width: 1.5; stroke-linecap: square"/>
   </g>
   <g id="line2d_37">
    <path d="M 45.716875 504.357813 
L 85.158542 504.357813 
L 124.600208 504.357813 
L 164.041875 406.578219 
L 203.483542 414.01932 
L 242.925208 421.806606 
L 282.366875 405.491801 
L 321.808542 414.205071 
L 361.250208 416.484885 
L 400.691875 415.644901 
L 440.133542 411.049374 
L 479.575208 415.181852 
L 519.016875 409.918142 
L 558.458542 415.611015 
L 597.900208 411.778838 
L 637.341875 412.859313 
L 676.783542 415.441084 
L 716.225208 414.547784 
L 755.666875 413.001215 
L 795.108542 414.731873 
L 834.550208 415.744734 
L 873.991875 415.068223 
L 913.433542 413.732197 
L 952.875208 413.732197 
L 992.316875 413.732197 
" clip-path="url(#p8e0b032923)" style="fill: none; stroke: #e07b53; stroke-opacity: 0.7; stroke-width: 1.5; stroke-linecap: square"/>
   </g>
   <g id="line2d_38">
    <path d="M 45.716875 504.357813 
L 85.158542 504.357813 
L 124.600208 504.357813 
L 164.041875 258.148364 
L 203.483542 158.911236 
L 242.925208 217.453771 
L 282.366875 224.244653 
L 321.808542 223.033774 
L 361.250208 298.595686 
L 400.691875 304.181324 
L 440.133542 188.564111 
L 479.575208 213.264378 
L 519.016875 178.743636 
L 558.458542 305.601606 
L 597.900208 263.292108 
L 637.341875 218.85292 
L 676.783542 179.231568 
L 716.225208 219.76379 
L 755.666875 221.868562 
L 795.108542 222.799112 
L 834.550208 288.638927 
L 873.991875 279.31981 
L 913.433542 197.048566 
L 952.875208 212.184763 
L 992.316875 212.184763 
" clip-path="url(#p8e0b032923)" style="fill: none; stroke: #10a37f; stroke-opacity: 0.7; stroke-width: 1.5; stroke-linecap: square"/>
   </g>
   <g id="line2d_39">
    <path d="M 45.716875 504.357813 
L 85.158542 504.357813 
L 124.600208 504.357813 
L 164.041875 262.950043 
L 203.483542 147.549589 
L 242.925208 197.969718 
L 282.366875 216.16844 
L 321.808542 174.979744 
L 361.250208 290.347644 
L 400.691875 252.82544 
L 440.133542 192.463352 
L 479.575208 182.372846 
L 519.016875 187.146308 
L 558.458542 226.868781 
L 597.900208 218.0562 
L 637.341875 192.812197 
L 676.783542 172.797381 
L 716.225208 192.27387 
L 755.666875 204.737653 
L 795.108542 192.283581 
L 834.550208 238.402557 
L 873.991875 217.710322 
L 913.433542 198.040901 
L 952.875208 190.582331 
L 992.316875 190.582331 
" clip-path="url(#p8e0b032923)" style="fill: none; stroke: #10a37f; stroke-opacity: 0.7; stroke-width: 1.5; stroke-linecap: square"/>
   </g>
   <g id="line2d_40">
    <path d="M 45.716875 504.357813 
L 85.158542 504.357813 
L 124.600208 504.357813 
L 164.041875 319.026583 
L 203.483542 313.539277 
L 242.925208 302.172827 
L 282.366875 344.789616 
L 321.808542 328.2234 
L 361.250208 360.186255 
L 400.691875 356.087245 
L 440.133542 346.978074 
L 479.575208 314.415999 
L 519.016875 335.777448 
L 558.458542 344.586159 
L 597.900208 350.289992 
L 637.341875 339.8501 
L 676.783542 334.39937 
L 716.225208 335.1674 
L 755.666875 340.38561 
L 795.108542 335.825511 
L 834.550208 340.278831 
L 873.991875 340.415721 
L 913.433542 337.253237 
L 952.875208 331.518762 
L 992.316875 331.518762 
" clip-path="url(#p8e0b032923)" style="fill: none; stroke: #4285f4; stroke-opacity: 0.7; stroke-width: 1.5; stroke-linecap: square"/>
   </g>
   <g id="line2d_41">
    <path d="M 45.716875 504.357813 
L 85.158542 504.357813 
L 124.600208 504.357813 
L 164.041875 273.146883 
L 203.483542 255.78908 
L 242.925208 235.995635 
L 282.366875 332.319974 
L 321.808542 280.502212 
L 361.250208 405.310437 
L 400.691875 401.475602 
L 440.133542 322.163864 
L 479.575208 258.219969 
L 519.016875 269.604989 
L 558.458542 375.211766 
L 597.900208 377.0626 
L 637.341875 349.05204 
L 676.783542 254.561017 
L 716.225208 258.621089 
L 755.666875 336.635555 
L 795.108542 292.84021 
L 834.550208 390.826711 
L 873.991875 394.681573 
L 913.433542 313.150865 
L 952.875208 255.51349 
L 992.316875 255.51349 
" clip-path="url(#p8e0b032923)" style="fill: none; stroke: #1da1f2; stroke-opacity: 0.7; stroke-width: 1.5; stroke-linecap: square"/>
   </g>
   <g id="line2d_42">
    <path d="M 45.716875 504.357813 
L 85.158542 504.357813 
L 124.600208 504.357813 
L 164.041875 263.491879 
L 203.483542 281.237724 
L 242.925208 300.429878 
L 282.366875 317.659254 
L 321.808542 317.659254 
L 361.250208 317.659254 
L 400.691875 317.659254 
L 440.133542 317.659254 
L 479.575208 317.659254 
L 519.016875 317.659254 
L 558.458542 317.659254 
L 597.900208 317.659254 
L 637.341875 317.659254 
L 676.783542 317.659254 
L 716.225208 317.659254 
L 755.666875 317.659254 
L 795.108542 317.659254 
L 834.550208 317.659254 
L 873.991875 317.659254 
L 913.433542 317.659254 
L 952.875208 317.659254 
L 992.316875 317.659254 
" clip-path="url(#p8e0b032923)" style="fill: none; stroke: #7c3aed; stroke-opacity: 0.7; stroke-width: 1.5; stroke-linecap: square"/>
   </g>
   <g id="line2d_43">
    <path d="M 45.716875 504.357813 
L 85.158542 504.357813 
L 124.600208 504.357813 
L 164.041875 333.358472 
L 203.483542 242.290431 
L 242.925208 323.365686 
L 282.366875 333.673078 
L 321.808542 323.654695 
L 361.250208 359.559278 
L 400.691875 352.587309 
L 440.133542 340.006239 
L 479.575208 335.546483 
L 519.016875 332.472432 
L 558.458542 349.56913 
L 597.900208 341.296718 
L 637.341875 337.364558 
L 676.783542 325.053433 
L 716.225208 341.163528 
L 755.666875 340.982387 
L 795.108542 340.073675 
L 834.550208 346.454073 
L 873.991875 345.513869 
L 913.433542 345.238831 
L 952.875208 345.437817 
L 992.316875 345.437817 
" clip-path="url(#p8e0b032923)" style="fill: none; stroke: #7c3aed; stroke-opacity: 0.7; stroke-width: 1.5; stroke-linecap: square"/>
   </g>
   <g id="line2d_44">
    <path d="M 45.716875 504.357813 
L 85.158542 504.357813 
L 124.600208 504.357813 
L 164.041875 314.604932 
L 203.483542 353.041288 
L 242.925208 410.973748 
L 282.366875 414.461894 
L 321.808542 407.415479 
L 361.250208 411.316615 
L 400.691875 411.316615 
L 440.133542 411.316615 
L 479.575208 411.316615 
L 519.016875 411.316615 
L 558.458542 411.316615 
L 597.900208 411.316615 
L 637.341875 411.316615 
L 676.783542 411.316615 
L 716.225208 411.316615 
L 755.666875 411.316615 
L 795.108542 411.316615 
L 834.550208 411.316615 
L 873.991875 411.316615 
L 913.433542 411.316615 
L 952.875208 411.316615 
L 992.316875 411.316615 
" clip-path="url(#p8e0b032923)" style="fill: none; stroke: #7c3aed; stroke-opacity: 0.7; stroke-width: 1.5; stroke-linecap: square"/>
   </g>
   <g id="line2d_45">
    <path d="M 45.716875 504.357813 
L 85.158542 504.357813 
L 124.600208 504.357813 
L 164.041875 297.730623 
L 203.483542 231.09104 
L 242.925208 207.419 
L 282.366875 237.208402 
L 321.808542 198.448597 
L 361.250208 198.448597 
L 400.691875 198.448597 
L 440.133542 198.448597 
L 479.575208 198.448597 
L 519.016875 198.448597 
L 558.458542 198.448597 
L 597.900208 198.448597 
L 637.341875 198.448597 
L 676.783542 198.448597 
L 716.225208 198.448597 
L 755.666875 198.448597 
L 795.108542 198.448597 
L 834.550208 198.448597 
L 873.991875 198.448597 
L 913.433542 198.448597 
L 952.875208 198.448597 
L 992.316875 198.448597 
" clip-path="url(#p8e0b032923)" style="fill: none; stroke: #7c3aed; stroke-opacity: 0.7; stroke-width: 1.5; stroke-linecap: square"/>
   </g>
   <g id="line2d_46">
    <path d="M 45.716875 504.357813 
L 85.158542 504.357813 
L 124.600208 504.357813 
L 164.041875 268.426747 
L 203.483542 292.289797 
L 242.925208 282.451447 
L 282.366875 357.058459 
L 321.808542 336.091602 
L 361.250208 362.595676 
L 400.691875 346.055061 
L 440.133542 348.308662 
L 479.575208 349.087442 
L 519.016875 334.513097 
L 558.458542 350.023213 
L 597.900208 346.143389 
L 637.341875 342.290448 
L 676.783542 341.497243 
L 716.225208 340.905825 
L 755.666875 343.280495 
L 795.108542 342.598269 
L 834.550208 344.423955 
L 873.991875 342.800556 
L 913.433542 343.437091 
L 952.875208 344.057375 
L 992.316875 344.057375 
" clip-path="url(#p8e0b032923)" style="fill: none; stroke: #7c3aed; stroke-opacity: 0.7; stroke-width: 1.5; stroke-linecap: square"/>
   </g>
   <g id="line2d_47">
    <path d="M 45.716875 504.357813 
L 85.158542 504.357813 
L 124.600208 504.357813 
L 164.041875 291.201873 
L 203.483542 231.043533 
L 242.925208 245.351645 
L 282.366875 347.083759 
L 321.808542 249.868501 
L 361.250208 387.634351 
L 400.691875 376.591095 
L 440.133542 290.844281 
L 479.575208 303.086465 
L 519.016875 202.766472 
L 558.458542 317.710141 
L 597.900208 373.048012 
L 637.341875 364.294056 
L 676.783542 238.082005 
L 716.225208 275.855416 
L 755.666875 343.705533 
L 795.108542 257.781469 
L 834.550208 385.443472 
L 873.991875 375.498953 
L 913.433542 300.198033 
L 952.875208 306.377132 
L 992.316875 306.377132 
" clip-path="url(#p8e0b032923)" style="fill: none; stroke: #7c3aed; stroke-opacity: 0.7; stroke-width: 1.5; stroke-linecap: square"/>
   </g>
   <g id="line2d_48">
    <path d="M 45.716875 119.941812 
L 992.316875 119.941812 
" clip-path="url(#p8e0b032923)" style="fill: none; stroke-dasharray: 7.4,3.2; stroke-dashoffset: 0; stroke: #ff4444; stroke-opacity: 0.9; stroke-width: 2"/>
   </g>
   <g id="patch_6">
    <path d="M 45.716875 504.357813 
L 45.716875 23.837812 
" style="fill: none; stroke: #000000; stroke-width: 0.8; stroke-linejoin: miter; stroke-linecap: square"/>
   </g>
   <g id="patch_7">
    <path d="M 992.316875 504.357813 
L 992.316875 23.837812 
" style="fill: none; stroke: #000000; stroke-width: 0.8; stroke-linejoin: miter; stroke-linecap: square"/>
   </g>
   <g id="patch_8">
    <path d="M 45.716875 504.357813 
L 992.316875 504.357813 
" style="fill: none; stroke: #000000; stroke-width: 0.8; stroke-linejoin: miter; stroke-linecap: square"/>
   </g>
   <g id="patch_9">
    <path d="M 45.716875 23.837812 
L 992.316875 23.837812 
" style="fill: none; stroke: #000000; stroke-width: 0.8; stroke-linejoin: miter; stroke-linecap: square"/>
   </g>
   <g id="text_14">
    <!-- BASELINE -->
    <g style="fill: #3366cc" transform="translate(77.536406 55.46225) scale(0.1 -0.1)">
     <defs>
      <path id="DejaVuSans-Bold-42" d="M 2456 2859 
Q 2741 2859 2887 2984 
Q 3034 3109 3034 3353 
Q 3034 3594 2887 3720 
Q 2741 3847 2456 3847 
L 1791 3847 
L 1791 2859 
L 2456 2859 
z
M 2497 819 
Q 2859 819 3042 972 
Q 3225 1125 3225 1434 
Q 3225 1738 3044 1889 
Q 2863 2041 2497 2041 
L 1791 2041 
L 1791 819 
L 2497 819 
z
M 3616 2497 
Q 4003 2384 4215 2081 
Q 4428 1778 4428 1338 
Q 4428 663 3972 331 
Q 3516 0 2584 0 
L 588 0 
L 588 4666 
L 2394 4666 
Q 3366 4666 3802 4372 
Q 4238 4078 4238 3431 
Q 4238 3091 4078 2852 
Q 3919 2613 3616 2497 
z
" transform="scale(0.015625)"/>
      <path id="DejaVuSans-Bold-41" d="M 3419 850 
L 1538 850 
L 1241 0 
L 31 0 
L 1759 4666 
L 3194 4666 
L 4922 0 
L 3713 0 
L 3419 850 
z
M 1838 1716 
L 3116 1716 
L 2478 3572 
L 1838 1716 
z
" transform="scale(0.015625)"/>
      <path id="DejaVuSans-Bold-53" d="M 3834 4519 
L 3834 3531 
Q 3450 3703 3084 3790 
Q 2719 3878 2394 3878 
Q 1963 3878 1756 3759 
Q 1550 3641 1550 3391 
Q 1550 3203 1689 3098 
Q 1828 2994 2194 2919 
L 2706 2816 
Q 3484 2659 3812 2340 
Q 4141 2022 4141 1434 
Q 4141 663 3683 286 
Q 3225 -91 2284 -91 
Q 1841 -91 1394 -6 
Q 947 78 500 244 
L 500 1259 
Q 947 1022 1364 901 
Q 1781 781 2169 781 
Q 2563 781 2772 912 
Q 2981 1044 2981 1288 
Q 2981 1506 2839 1625 
Q 2697 1744 2272 1838 
L 1806 1941 
Q 1106 2091 782 2419 
Q 459 2747 459 3303 
Q 459 4000 909 4375 
Q 1359 4750 2203 4750 
Q 2588 4750 2994 4692 
Q 3400 4634 3834 4519 
z
" transform="scale(0.015625)"/>
      <path id="DejaVuSans-Bold-45" d="M 588 4666 
L 3834 4666 
L 3834 3756 
L 1791 3756 
L 1791 2888 
L 3713 2888 
L 3713 1978 
L 1791 1978 
L 1791 909 
L 3903 909 
L 3903 0 
L 588 0 
L 588 4666 
z
" transform="scale(0.015625)"/>
      <path id="DejaVuSans-Bold-4c" d="M 588 4666 
L 1791 4666 
L 1791 909 
L 3903 909 
L 3903 0 
L 588 0 
L 588 4666 
z
" transform="scale(0.015625)"/>
      <path id="DejaVuSans-Bold-49" d="M 588 4666 
L 1791 4666 
L 1791 0 
L 588 0 
L 588 4666 
z
" transform="scale(0.015625)"/>
      <path id="DejaVuSans-Bold-4e" d="M 588 4666 
L 1931 4666 
L 3628 1466 
L 3628 4666 
L 4769 4666 
L 4769 0 
L 3425 0 
L 1728 3200 
L 1728 0 
L 588 0 
L 588 4666 
z
" transform="scale(0.015625)"/>
     </defs>
     <use xlink:href="#DejaVuSans-Bold-42"/>
     <use xlink:href="#DejaVuSans-Bold-41" transform="translate(76.220703 0)"/>
     <use xlink:href="#DejaVuSans-Bold-53" transform="translate(153.613281 0)"/>
     <use xlink:href="#DejaVuSans-Bold-45" transform="translate(225.634766 0)"/>
     <use xlink:href="#DejaVuSans-Bold-4c" transform="translate(293.945312 0)"/>
     <use xlink:href="#DejaVuSans-Bold-49" transform="translate(357.666016 0)"/>
     <use xlink:href="#DejaVuSans-Bold-4e" transform="translate(394.873047 0)"/>
     <use xlink:href="#DejaVuSans-Bold-45" transform="translate(478.564453 0)"/>
    </g>
   </g>
   <g id="text_15">
    <!-- STEP -->
    <g style="fill: #cc3333" transform="translate(169.670521 55.46225) scale(0.1 -0.1)">
     <defs>
      <path id="DejaVuSans-Bold-54" d="M 31 4666 
L 4331 4666 
L 4331 3756 
L 2784 3756 
L 2784 0 
L 1581 0 
L 1581 3756 
L 31 3756 
L 31 4666 
z
" transform="scale(0.015625)"/>
      <path id="DejaVuSans-Bold-50" d="M 588 4666 
L 2584 4666 
Q 3475 4666 3951 4270 
Q 4428 3875 4428 3144 
Q 4428 2409 3951 2014 
Q 3475 1619 2584 1619 
L 1791 1619 
L 1791 0 
L 588 0 
L 588 4666 
z
M 1791 3794 
L 1791 2491 
L 2456 2491 
Q 2806 2491 2997 2661 
Q 3188 2831 3188 3144 
Q 3188 3456 2997 3625 
Q 2806 3794 2456 3794 
L 1791 3794 
z
" transform="scale(0.015625)"/>
     </defs>
     <use xlink:href="#DejaVuSans-Bold-53"/>
     <use xlink:href="#DejaVuSans-Bold-54" transform="translate(72.021484 0)"/>
     <use xlink:href="#DejaVuSans-Bold-45" transform="translate(140.234375 0)"/>
     <use xlink:href="#DejaVuSans-Bold-50" transform="translate(208.544922 0)"/>
    </g>
   </g>
   <g id="text_16">
    <!-- RECOVERY -->
    <g style="fill: #33aa33" transform="translate(568.365052 55.46225) scale(0.1 -0.1)">
     <defs>
      <path id="DejaVuSans-Bold-52" d="M 2297 2597 
Q 2675 2597 2839 2737 
Q 3003 2878 3003 3200 
Q 3003 3519 2839 3656 
Q 2675 3794 2297 3794 
L 1791 3794 
L 1791 2597 
L 2297 2597 
z
M 1791 1766 
L 1791 0 
L 588 0 
L 588 4666 
L 2425 4666 
Q 3347 4666 3776 4356 
Q 4206 4047 4206 3378 
Q 4206 2916 3982 2619 
Q 3759 2322 3309 2181 
Q 3556 2125 3751 1926 
Q 3947 1728 4147 1325 
L 4800 0 
L 3519 0 
L 2950 1159 
Q 2778 1509 2601 1637 
Q 2425 1766 2131 1766 
L 1791 1766 
z
" transform="scale(0.015625)"/>
      <path id="DejaVuSans-Bold-43" d="M 4288 256 
Q 3956 84 3597 -3 
Q 3238 -91 2847 -91 
Q 1681 -91 1000 561 
Q 319 1213 319 2328 
Q 319 3447 1000 4098 
Q 1681 4750 2847 4750 
Q 3238 4750 3597 4662 
Q 3956 4575 4288 4403 
L 4288 3438 
Q 3953 3666 3628 3772 
Q 3303 3878 2944 3878 
Q 2300 3878 1931 3465 
Q 1563 3053 1563 2328 
Q 1563 1606 1931 1193 
Q 2300 781 2944 781 
Q 3303 781 3628 887 
Q 3953 994 4288 1222 
L 4288 256 
z
" transform="scale(0.015625)"/>
      <path id="DejaVuSans-Bold-4f" d="M 2719 3878 
Q 2169 3878 1866 3472 
Q 1563 3066 1563 2328 
Q 1563 1594 1866 1187 
Q 2169 781 2719 781 
Q 3272 781 3575 1187 
Q 3878 1594 3878 2328 
Q 3878 3066 3575 3472 
Q 3272 3878 2719 3878 
z
M 2719 4750 
Q 3844 4750 4481 4106 
Q 5119 3463 5119 2328 
Q 5119 1197 4481 553 
Q 3844 -91 2719 -91 
Q 1597 -91 958 553 
Q 319 1197 319 2328 
Q 319 3463 958 4106 
Q 1597 4750 2719 4750 
z
" transform="scale(0.015625)"/>
      <path id="DejaVuSans-Bold-56" d="M 31 4666 
L 1241 4666 
L 2478 1222 
L 3713 4666 
L 4922 4666 
L 3194 0 
L 1759 0 
L 31 4666 
z
" transform="scale(0.015625)"/>
      <path id="DejaVuSans-Bold-59" d="M -63 4666 
L 1253 4666 
L 2316 3003 
L 3378 4666 
L 4697 4666 
L 2919 1966 
L 2919 0 
L 1716 0 
L 1716 1966 
L -63 4666 
z
" transform="scale(0.015625)"/>
     </defs>
     <use xlink:href="#DejaVuSans-Bold-52"/>
     <use xlink:href="#DejaVuSans-Bold-45" transform="translate(77.001953 0)"/>
     <use xlink:href="#DejaVuSans-Bold-43" transform="translate(145.3125 0)"/>
     <use xlink:href="#DejaVuSans-Bold-4f" transform="translate(218.701172 0)"/>
     <use xlink:href="#DejaVuSans-Bold-56" transform="translate(301.085938 0)"/>
     <use xlink:href="#DejaVuSans-Bold-45" transform="translate(378.478516 0)"/>
     <use xlink:href="#DejaVuSans-Bold-52" transform="translate(446.789062 0)"/>
     <use xlink:href="#DejaVuSans-Bold-59" transform="translate(518.291016 0)"/>
    </g>
   </g>
   <g id="text_17">
    <!-- Run 023d: Fleet-Wide Identity Waveforms (25 Models) -->
    <g transform="translate(304.618906 17.837812) scale(0.14 -0.14)">
     <defs>
      <path id="DejaVuSans-Bold-75" d="M 500 1363 
L 500 3500 
L 1625 3500 
L 1625 3150 
Q 1625 2866 1622 2436 
Q 1619 2006 1619 1863 
Q 1619 1441 1641 1255 
Q 1663 1069 1716 984 
Q 1784 875 1895 815 
Q 2006 756 2150 756 
Q 2500 756 2700 1025 
Q 2900 1294 2900 1772 
L 2900 3500 
L 4019 3500 
L 4019 0 
L 2900 0 
L 2900 506 
Q 2647 200 2364 54 
Q 2081 -91 1741 -91 
Q 1134 -91 817 281 
Q 500 653 500 1363 
z
" transform="scale(0.015625)"/>
      <path id="DejaVuSans-Bold-6e" d="M 4056 2131 
L 4056 0 
L 2931 0 
L 2931 347 
L 2931 1631 
Q 2931 2084 2911 2256 
Q 2891 2428 2841 2509 
Q 2775 2619 2662 2680 
Q 2550 2741 2406 2741 
Q 2056 2741 1856 2470 
Q 1656 2200 1656 1722 
L 1656 0 
L 538 0 
L 538 3500 
L 1656 3500 
L 1656 2988 
Q 1909 3294 2193 3439 
Q 2478 3584 2822 3584 
Q 3428 3584 3742 3212 
Q 4056 2841 4056 2131 
z
" transform="scale(0.015625)"/>
      <path id="DejaVuSans-Bold-20" transform="scale(0.015625)"/>
      <path id="DejaVuSans-Bold-30" d="M 2944 2338 
Q 2944 3213 2780 3570 
Q 2616 3928 2228 3928 
Q 1841 3928 1675 3570 
Q 1509 3213 1509 2338 
Q 1509 1453 1675 1090 
Q 1841 728 2228 728 
Q 2613 728 2778 1090 
Q 2944 1453 2944 2338 
z
M 4147 2328 
Q 4147 1169 3647 539 
Q 3147 -91 2228 -91 
Q 1306 -91 806 539 
Q 306 1169 306 2328 
Q 306 3491 806 4120 
Q 1306 4750 2228 4750 
Q 3147 4750 3647 4120 
Q 4147 3491 4147 2328 
z
" transform="scale(0.015625)"/>
      <path id="DejaVuSans-Bold-32" d="M 1844 884 
L 3897 884 
L 3897 0 
L 506 0 
L 506 884 
L 2209 2388 
Q 2438 2594 2547 2791 
Q 2656 2988 2656 3200 
Q 2656 3528 2436 3728 
Q 2216 3928 1850 3928 
Q 1569 3928 1234 3808 
Q 900 3688 519 3450 
L 519 4475 
Q 925 4609 1322 4679 
Q 1719 4750 2100 4750 
Q 2938 4750 3402 4381 
Q 3866 4013 3866 3353 
Q 3866 2972 3669 2642 
Q 3472 2313 2841 1759 
L 1844 884 
z
" transform="scale(0.015625)"/>
      <path id="DejaVuSans-Bold-33" d="M 2981 2516 
Q 3453 2394 3698 2092 
Q 3944 1791 3944 1325 
Q 3944 631 3412 270 
Q 2881 -91 1863 -91 
Q 1503 -91 1142 -33 
Q 781 25 428 141 
L 428 1069 
Q 766 900 1098 814 
Q 1431 728 1753 728 
Q 2231 728 2486 893 
Q 2741 1059 2741 1369 
Q 2741 1688 2480 1852 
Q 2219 2016 1709 2016 
L 1228 2016 
L 1228 2791 
L 1734 2791 
Q 2188 2791 2409 2933 
Q 2631 3075 2631 3366 
Q 2631 3634 2415 3781 
Q 2200 3928 1806 3928 
Q 1516 3928 1219 3862 
Q 922 3797 628 3669 
L 628 4550 
Q 984 4650 1334 4700 
Q 1684 4750 2022 4750 
Q 2931 4750 3382 4451 
Q 3834 4153 3834 3553 
Q 3834 3144 3618 2883 
Q 3403 2622 2981 2516 
z
" transform="scale(0.015625)"/>
      <path id="DejaVuSans-Bold-64" d="M 2919 2988 
L 2919 4863 
L 4044 4863 
L 4044 0 
L 2919 0 
L 2919 506 
Q 2688 197 2409 53 
Q 2131 -91 1766 -91 
Q 1119 -91 703 423 
Q 288 938 288 1747 
Q 288 2556 703 3070 
Q 1119 3584 1766 3584 
Q 2128 3584 2408 3439 
Q 2688 3294 2919 2988 
z
M 2181 722 
Q 2541 722 2730 984 
Q 2919 1247 2919 1747 
Q 2919 2247 2730 2509 
Q 2541 2772 2181 2772 
Q 1825 2772 1636 2509 
Q 1447 2247 1447 1747 
Q 1447 1247 1636 984 
Q 1825 722 2181 722 
z
" transform="scale(0.015625)"/>
      <path id="DejaVuSans-Bold-3a" d="M 716 3500 
L 1844 3500 
L 1844 2291 
L 716 2291 
L 716 3500 
z
M 716 1209 
L 1844 1209 
L 1844 0 
L 716 0 
L 716 1209 
z
" transform="scale(0.015625)"/>
      <path id="DejaVuSans-Bold-46" d="M 588 4666 
L 3834 4666 
L 3834 3756 
L 1791 3756 
L 1791 2888 
L 3713 2888 
L 3713 1978 
L 1791 1978 
L 1791 0 
L 588 0 
L 588 4666 
z
" transform="scale(0.015625)"/>
      <path id="DejaVuSans-Bold-6c" d="M 538 4863 
L 1656 4863 
L 1656 0 
L 538 0 
L 538 4863 
z
" transform="scale(0.015625)"/>
      <path id="DejaVuSans-Bold-65" d="M 4031 1759 
L 4031 1441 
L 1416 1441 
Q 1456 1047 1700 850 
Q 1944 653 2381 653 
Q 2734 653 3104 758 
Q 3475 863 3866 1075 
L 3866 213 
Q 3469 63 3072 -14 
Q 2675 -91 2278 -91 
Q 1328 -91 801 392 
Q 275 875 275 1747 
Q 275 2603 792 3093 
Q 1309 3584 2216 3584 
Q 3041 3584 3536 3087 
Q 4031 2591 4031 1759 
z
M 2881 2131 
Q 2881 2450 2695 2645 
Q 2509 2841 2209 2841 
Q 1884 2841 1681 2658 
Q 1478 2475 1428 2131 
L 2881 2131 
z
" transform="scale(0.015625)"/>
      <path id="DejaVuSans-Bold-74" d="M 1759 4494 
L 1759 3500 
L 2913 3500 
L 2913 2700 
L 1759 2700 
L 1759 1216 
Q 1759 972 1856 886 
Q 1953 800 2241 800 
L 2816 800 
L 2816 0 
L 1856 0 
Q 1194 0 917 276 
Q 641 553 641 1216 
L 641 2700 
L 84 2700 
L 84 3500 
L 641 3500 
L 641 4494 
L 1759 4494 
z
" transform="scale(0.015625)"/>
      <path id="DejaVuSans-Bold-2d" d="M 347 2297 
L 2309 2297 
L 2309 1388 
L 347 1388 
L 347 2297 
z
" transform="scale(0.015625)"/>
      <path id="DejaVuSans-Bold-57" d="M 191 4666 
L 1344 4666 
L 2150 1275 
L 2950 4666 
L 4109 4666 
L 4909 1275 
L 5716 4666 
L 6859 4666 
L 5759 0 
L 4372 0 
L 3525 3547 
L 2688 0 
L 1300 0 
L 191 4666 
z
" transform="scale(0.015625)"/>
      <path id="DejaVuSans-Bold-69" d="M 538 3500 
L 1656 3500 
L 1656 0 
L 538 0 
L 538 3500 
z
M 538 4863 
L 1656 4863 
L 1656 3950 
L 538 3950 
L 538 4863 
z
" transform="scale(0.015625)"/>
      <path id="DejaVuSans-Bold-79" d="M 78 3500 
L 1197 3500 
L 2138 1125 
L 2938 3500 
L 4056 3500 
L 2584 -331 
Q 2363 -916 2067 -1148 
Q 1772 -1381 1288 -1381 
L 641 -1381 
L 641 -647 
L 991 -647 
Q 1275 -647 1404 -556 
Q 1534 -466 1606 -231 
L 1638 -134 
L 78 3500 
z
" transform="scale(0.015625)"/>
      <path id="DejaVuSans-Bold-61" d="M 2106 1575 
Q 1756 1575 1579 1456 
Q 1403 1338 1403 1106 
Q 1403 894 1545 773 
Q 1688 653 1941 653 
Q 2256 653 2472 879 
Q 2688 1106 2688 1447 
L 2688 1575 
L 2106 1575 
z
M 3816 1997 
L 3816 0 
L 2688 0 
L 2688 519 
Q 2463 200 2181 54 
Q 1900 -91 1497 -91 
Q 953 -91 614 226 
Q 275 544 275 1050 
Q 275 1666 698 1953 
Q 1122 2241 2028 2241 
L 2688 2241 
L 2688 2328 
Q 2688 2594 2478 2717 
Q 2269 2841 1825 2841 
Q 1466 2841 1156 2769 
Q 847 2697 581 2553 
L 581 3406 
Q 941 3494 1303 3539 
Q 1666 3584 2028 3584 
Q 2975 3584 3395 3211 
Q 3816 2838 3816 1997 
z
" transform="scale(0.015625)"/>
      <path id="DejaVuSans-Bold-76" d="M 97 3500 
L 1216 3500 
L 2088 1081 
L 2956 3500 
L 4078 3500 
L 2700 0 
L 1472 0 
L 97 3500 
z
" transform="scale(0.015625)"/>
      <path id="DejaVuSans-Bold-66" d="M 2841 4863 
L 2841 4128 
L 2222 4128 
Q 1984 4128 1890 4042 
Q 1797 3956 1797 3744 
L 1797 3500 
L 2753 3500 
L 2753 2700 
L 1797 2700 
L 1797 0 
L 678 0 
L 678 2700 
L 122 2700 
L 122 3500 
L 678 3500 
L 678 3744 
Q 678 4316 997 4589 
Q 1316 4863 1984 4863 
L 2841 4863 
z
" transform="scale(0.015625)"/>
      <path id="DejaVuSans-Bold-6f" d="M 2203 2784 
Q 1831 2784 1636 2517 
Q 1441 2250 1441 1747 
Q 1441 1244 1636 976 
Q 1831 709 2203 709 
Q 2569 709 2762 976 
Q 2956 1244 2956 1747 
Q 2956 2250 2762 2517 
Q 2569 2784 2203 2784 
z
M 2203 3584 
Q 3106 3584 3614 3096 
Q 4122 2609 4122 1747 
Q 4122 884 3614 396 
Q 3106 -91 2203 -91 
Q 1297 -91 786 396 
Q 275 884 275 1747 
Q 275 2609 786 3096 
Q 1297 3584 2203 3584 
z
" transform="scale(0.015625)"/>
      <path id="DejaVuSans-Bold-72" d="M 3138 2547 
Q 2991 2616 2845 2648 
Q 2700 2681 2553 2681 
Q 2122 2681 1889 2404 
Q 1656 2128 1656 1613 
L 1656 0 
L 538 0 
L 538 3500 
L 1656 3500 
L 1656 2925 
Q 1872 3269 2151 3426 
Q 2431 3584 2822 3584 
Q 2878 3584 2943 3579 
Q 3009 3575 3134 3559 
L 3138 2547 
z
" transform="scale(0.015625)"/>
      <path id="DejaVuSans-Bold-6d" d="M 3781 2919 
Q 3994 3244 4286 3414 
Q 4578 3584 4928 3584 
Q 5531 3584 5847 3212 
Q 6163 2841 6163 2131 
L 6163 0 
L 5038 0 
L 5038 1825 
Q 5041 1866 5042 1909 
Q 5044 1953 5044 2034 
Q 5044 2406 4934 2573 
Q 4825 2741 4581 2741 
Q 4263 2741 4089 2478 
Q 3916 2216 3909 1719 
L 3909 0 
L 2784 0 
L 2784 1825 
Q 2784 2406 2684 2573 
Q 2584 2741 2328 2741 
Q 2006 2741 1831 2477 
Q 1656 2213 1656 1722 
L 1656 0 
L 531 0 
L 531 3500 
L 1656 3500 
L 1656 2988 
Q 1863 3284 2130 3434 
Q 2397 3584 2719 3584 
Q 3081 3584 3359 3409 
Q 3638 3234 3781 2919 
z
" transform="scale(0.015625)"/>
      <path id="DejaVuSans-Bold-73" d="M 3272 3391 
L 3272 2541 
Q 2913 2691 2578 2766 
Q 2244 2841 1947 2841 
Q 1628 2841 1473 2761 
Q 1319 2681 1319 2516 
Q 1319 2381 1436 2309 
Q 1553 2238 1856 2203 
L 2053 2175 
Q 2913 2066 3209 1816 
Q 3506 1566 3506 1031 
Q 3506 472 3093 190 
Q 2681 -91 1863 -91 
Q 1516 -91 1145 -36 
Q 775 19 384 128 
L 384 978 
Q 719 816 1070 734 
Q 1422 653 1784 653 
Q 2113 653 2278 743 
Q 2444 834 2444 1013 
Q 2444 1163 2330 1236 
Q 2216 1309 1875 1350 
L 1678 1375 
Q 931 1469 631 1722 
Q 331 1975 331 2491 
Q 331 3047 712 3315 
Q 1094 3584 1881 3584 
Q 2191 3584 2531 3537 
Q 2872 3491 3272 3391 
z
" transform="scale(0.015625)"/>
      <path id="DejaVuSans-Bold-28" d="M 2413 -844 
L 1484 -844 
Q 1006 -72 778 623 
Q 550 1319 550 2003 
Q 550 2688 779 3389 
Q 1009 4091 1484 4856 
L 2413 4856 
Q 2013 4116 1813 3408 
Q 1613 2700 1613 2009 
Q 1613 1319 1811 609 
Q 2009 -100 2413 -844 
z
" transform="scale(0.015625)"/>
      <path id="DejaVuSans-Bold-35" d="M 678 4666 
L 3669 4666 
L 3669 3781 
L 1638 3781 
L 1638 3059 
Q 1775 3097 1914 3117 
Q 2053 3138 2203 3138 
Q 3056 3138 3531 2711 
Q 4006 2284 4006 1522 
Q 4006 766 3489 337 
Q 2972 -91 2053 -91 
Q 1656 -91 1267 -14 
Q 878 63 494 219 
L 494 1166 
Q 875 947 1217 837 
Q 1559 728 1863 728 
Q 2300 728 2551 942 
Q 2803 1156 2803 1522 
Q 2803 1891 2551 2103 
Q 2300 2316 1863 2316 
Q 1603 2316 1309 2248 
Q 1016 2181 678 2041 
L 678 4666 
z
" transform="scale(0.015625)"/>
      <path id="DejaVuSans-Bold-4d" d="M 588 4666 
L 2119 4666 
L 3181 2169 
L 4250 4666 
L 5778 4666 
L 5778 0 
L 4641 0 
L 4641 3413 
L 3566 897 
L 2803 897 
L 1728 3413 
L 1728 0 
L 588 0 
L 588 4666 
z
" transform="scale(0.015625)"/>
      <path id="DejaVuSans-Bold-29" d="M 513 -844 
Q 913 -100 1113 609 
Q 1313 1319 1313 2009 
Q 1313 2700 1113 3408 
Q 913 4116 513 4856 
L 1441 4856 
Q 1916 4091 2145 3389 
Q 2375 2688 2375 2003 
Q 2375 1319 2147 623 
Q 1919 -72 1441 -844 
L 513 -844 
z
" transform="scale(0.015625)"/>
     </defs>
     <use xlink:href="#DejaVuSans-Bold-52"/>
     <use xlink:href="#DejaVuSans-Bold-75" transform="translate(77.001953 0)"/>
     <use xlink:href="#DejaVuSans-Bold-6e" transform="translate(148.193359 0)"/>
     <use xlink:href="#DejaVuSans-Bold-20" transform="translate(219.384766 0)"/>
     <use xlink:href="#DejaVuSans-Bold-30" transform="translate(254.199219 0)"/>
     <use xlink:href="#DejaVuSans-Bold-32" transform="translate(323.779297 0)"/>
     <use xlink:href="#DejaVuSans-Bold-33" transform="translate(393.359375 0)"/>
     <use xlink:href="#DejaVuSans-Bold-64" transform="translate(462.939453 0)"/>
     <use xlink:href="#DejaVuSans-Bold-3a" transform="translate(534.521484 0)"/>
     <use xlink:href="#DejaVuSans-Bold-20" transform="translate(574.511719 0)"/>
     <use xlink:href="#DejaVuSans-Bold-46" transform="translate(609.326172 0)"/>
     <use xlink:href="#DejaVuSans-Bold-6c" transform="translate(677.636719 0)"/>
     <use xlink:href="#DejaVuSans-Bold-65" transform="translate(711.914062 0)"/>
     <use xlink:href="#DejaVuSans-Bold-65" transform="translate(779.736328 0)"/>
     <use xlink:href="#DejaVuSans-Bold-74" transform="translate(847.558594 0)"/>
     <use xlink:href="#DejaVuSans-Bold-2d" transform="translate(895.361328 0)"/>
     <use xlink:href="#DejaVuSans-Bold-57" transform="translate(932.365234 0)"/>
     <use xlink:href="#DejaVuSans-Bold-69" transform="translate(1042.667969 0)"/>
     <use xlink:href="#DejaVuSans-Bold-64" transform="translate(1076.945312 0)"/>
     <use xlink:href="#DejaVuSans-Bold-65" transform="translate(1148.527344 0)"/>
     <use xlink:href="#DejaVuSans-Bold-20" transform="translate(1216.349609 0)"/>
     <use xlink:href="#DejaVuSans-Bold-49" transform="translate(1251.164062 0)"/>
     <use xlink:href="#DejaVuSans-Bold-64" transform="translate(1288.371094 0)"/>
     <use xlink:href="#DejaVuSans-Bold-65" transform="translate(1359.953125 0)"/>
     <use xlink:href="#DejaVuSans-Bold-6e" transform="translate(1427.775391 0)"/>
     <use xlink:href="#DejaVuSans-Bold-74" transform="translate(1498.966797 0)"/>
     <use xlink:href="#DejaVuSans-Bold-69" transform="translate(1546.769531 0)"/>
     <use xlink:href="#DejaVuSans-Bold-74" transform="translate(1581.046875 0)"/>
     <use xlink:href="#DejaVuSans-Bold-79" transform="translate(1628.849609 0)"/>
     <use xlink:href="#DejaVuSans-Bold-20" transform="translate(1694.035156 0)"/>
     <use xlink:href="#DejaVuSans-Bold-57" transform="translate(1728.849609 0)"/>
     <use xlink:href="#DejaVuSans-Bold-61" transform="translate(1835.527344 0)"/>
     <use xlink:href="#DejaVuSans-Bold-76" transform="translate(1903.007812 0)"/>
     <use xlink:href="#DejaVuSans-Bold-65" transform="translate(1968.193359 0)"/>
     <use xlink:href="#DejaVuSans-Bold-66" transform="translate(2036.015625 0)"/>
     <use xlink:href="#DejaVuSans-Bold-6f" transform="translate(2079.521484 0)"/>
     <use xlink:href="#DejaVuSans-Bold-72" transform="translate(2148.222656 0)"/>
     <use xlink:href="#DejaVuSans-Bold-6d" transform="translate(2197.539062 0)"/>
     <use xlink:href="#DejaVuSans-Bold-73" transform="translate(2301.738281 0)"/>
     <use xlink:href="#DejaVuSans-Bold-20" transform="translate(2361.259766 0)"/>
     <use xlink:href="#DejaVuSans-Bold-28" transform="translate(2396.074219 0)"/>
     <use xlink:href="#DejaVuSans-Bold-32" transform="translate(2441.777344 0)"/>
     <use xlink:href="#DejaVuSans-Bold-35" transform="translate(2511.357422 0)"/>
     <use xlink:href="#DejaVuSans-Bold-20" transform="translate(2580.9375 0)"/>
     <use xlink:href="#DejaVuSans-Bold-4d" transform="translate(2615.751953 0)"/>
     <use xlink:href="#DejaVuSans-Bold-6f" transform="translate(2715.263672 0)"/>
     <use xlink:href="#DejaVuSans-Bold-64" transform="translate(2783.964844 0)"/>
     <use xlink:href="#DejaVuSans-Bold-65" transform="translate(2855.546875 0)"/>
     <use xlink:href="#DejaVuSans-Bold-6c" transform="translate(2923.369141 0)"/>
     <use xlink:href="#DejaVuSans-Bold-73" transform="translate(2957.646484 0)"/>
     <use xlink:href="#DejaVuSans-Bold-29" transform="translate(3017.167969 0)"/>
    </g>
   </g>
   <g id="legend_1">
    <g id="patch_10">
     <path d="M 883.2575 134.584687 
L 985.316875 134.584687 
Q 987.316875 134.584687 987.316875 132.584687 
L 987.316875 30.837812 
Q 987.316875 28.837812 985.316875 28.837812 
L 883.2575 28.837812 
Q 881.2575 28.837812 881.2575 30.837812 
L 881.2575 132.584687 
Q 881.2575 134.584687 883.2575 134.584687 
z
" style="fill: #ffffff; opacity: 0.9; stroke: #cccccc; stroke-linejoin: miter"/>
    </g>
    <g id="text_18">
     <!-- Providers -->
     <g transform="translate(911.098125 40.43625) scale(0.1 -0.1)">
      <defs>
       <path id="DejaVuSans-76" d="M 191 3500 
L 800 3500 
L 1894 563 
L 2988 3500 
L 3597 3500 
L 2284 0 
L 1503 0 
L 191 3500 
z
" transform="scale(0.015625)"/>
      </defs>
      <use xlink:href="#DejaVuSans-50"/>
      <use xlink:href="#DejaVuSans-72" transform="translate(58.552734 0)"/>
      <use xlink:href="#DejaVuSans-6f" transform="translate(97.416016 0)"/>
      <use xlink:href="#DejaVuSans-76" transform="translate(158.597656 0)"/>
      <use xlink:href="#DejaVuSans-69" transform="translate(217.777344 0)"/>
      <use xlink:href="#DejaVuSans-64" transform="translate(245.560547 0)"/>
      <use xlink:href="#DejaVuSans-65" transform="translate(309.037109 0)"/>
      <use xlink:href="#DejaVuSans-72" transform="translate(370.560547 0)"/>
      <use xlink:href="#DejaVuSans-73" transform="translate(411.673828 0)"/>
     </g>
    </g>
    <g id="line2d_49">
     <path d="M 885.2575 51.614375 
L 895.2575 51.614375 
L 905.2575 51.614375 
" style="fill: none; stroke: #e07b53; stroke-opacity: 0.7; stroke-width: 1.5; stroke-linecap: square"/>
    </g>
    <g id="text_19">
     <!-- ANTHROPIC -->
     <g transform="translate(913.2575 55.114375) scale(0.1 -0.1)">
      <defs>
       <path id="DejaVuSans-41" d="M 2188 4044 
L 1331 1722 
L 3047 1722 
L 2188 4044 
z
M 1831 4666 
L 2547 4666 
L 4325 0 
L 3669 0 
L 3244 1197 
L 1141 1197 
L 716 0 
L 50 0 
L 1831 4666 
z
" transform="scale(0.015625)"/>
       <path id="DejaVuSans-4e" d="M 628 4666 
L 1478 4666 
L 3547 763 
L 3547 4666 
L 4159 4666 
L 4159 0 
L 3309 0 
L 1241 3903 
L 1241 0 
L 628 0 
L 628 4666 
z
" transform="scale(0.015625)"/>
       <path id="DejaVuSans-54" d="M -19 4666 
L 3928 4666 
L 3928 4134 
L 2272 4134 
L 2272 0 
L 1638 0 
L 1638 4134 
L -19 4134 
L -19 4666 
z
" transform="scale(0.015625)"/>
       <path id="DejaVuSans-48" d="M 628 4666 
L 1259 4666 
L 1259 2753 
L 3553 2753 
L 3553 4666 
L 4184 4666 
L 4184 0 
L 3553 0 
L 3553 2222 
L 1259 2222 
L 1259 0 
L 628 0 
L 628 4666 
z
" transform="scale(0.015625)"/>
       <path id="DejaVuSans-52" d="M 2841 2188 
Q 3044 2119 3236 1894 
Q 3428 1669 3622 1275 
L 4263 0 
L 3584 0 
L 2988 1197 
Q 2756 1666 2539 1819 
Q 2322 1972 1947 1972 
L 1259 1972 
L 1259 0 
L 628 0 
L 628 4666 
L 2053 4666 
Q 2853 4666 3247 4331 
Q 3641 3997 3641 3322 
Q 3641 2881 3436 2590 
Q 3231 2300 2841 2188 
z
M 1259 4147 
L 1259 2491 
L 2053 2491 
Q 2509 2491 2742 2702 
Q 2975 2913 2975 3322 
Q 2975 3731 2742 3939 
Q 2509 4147 2053 4147 
L 1259 4147 
z
" transform="scale(0.015625)"/>
       <path id="DejaVuSans-4f" d="M 2522 4238 
Q 1834 4238 1429 3725 
Q 1025 3213 1025 2328 
Q 1025 1447 1429 934 
Q 1834 422 2522 422 
Q 3209 422 3611 934 
Q 4013 1447 4013 2328 
Q 4013 3213 3611 3725 
Q 3209 4238 2522 4238 
z
M 2522 4750 
Q 3503 4750 4090 4092 
Q 4678 3434 4678 2328 
Q 4678 1225 4090 567 
Q 3503 -91 2522 -91 
Q 1538 -91 948 565 
Q 359 1222 359 2328 
Q 359 3434 948 4092 
Q 1538 4750 2522 4750 
z
" transform="scale(0.015625)"/>
      </defs>
      <use xlink:href="#DejaVuSans-41"/>
      <use xlink:href="#DejaVuSans-4e" transform="translate(68.408203 0)"/>
      <use xlink:href="#DejaVuSans-54" transform="translate(143.212891 0)"/>
      <use xlink:href="#DejaVuSans-48" transform="translate(204.296875 0)"/>
      <use xlink:href="#DejaVuSans-52" transform="translate(279.492188 0)"/>
      <use xlink:href="#DejaVuSans-4f" transform="translate(348.974609 0)"/>
      <use xlink:href="#DejaVuSans-50" transform="translate(427.685547 0)"/>
      <use xlink:href="#DejaVuSans-49" transform="translate(487.988281 0)"/>
      <use xlink:href="#DejaVuSans-43" transform="translate(517.480469 0)"/>
     </g>
    </g>
    <g id="line2d_50">
     <path d="M 885.2575 66.2925 
L 895.2575 66.2925 
L 905.2575 66.2925 
" style="fill: none; stroke: #10a37f; stroke-opacity: 0.7; stroke-width: 1.5; stroke-linecap: square"/>
    </g>
    <g id="text_20">
     <!-- OPENAI -->
     <g transform="translate(913.2575 69.7925) scale(0.1 -0.1)">
      <defs>
       <path id="DejaVuSans-45" d="M 628 4666 
L 3578 4666 
L 3578 4134 
L 1259 4134 
L 1259 2753 
L 3481 2753 
L 3481 2222 
L 1259 2222 
L 1259 531 
L 3634 531 
L 3634 0 
L 628 0 
L 628 4666 
z
" transform="scale(0.015625)"/>
      </defs>
      <use xlink:href="#DejaVuSans-4f"/>
      <use xlink:href="#DejaVuSans-50" transform="translate(78.710938 0)"/>
      <use xlink:href="#DejaVuSans-45" transform="translate(139.013672 0)"/>
      <use xlink:href="#DejaVuSans-4e" transform="translate(202.197266 0)"/>
      <use xlink:href="#DejaVuSans-41" transform="translate(277.001953 0)"/>
      <use xlink:href="#DejaVuSans-49" transform="translate(345.410156 0)"/>
     </g>
    </g>
    <g id="line2d_51">
     <path d="M 885.2575 80.970625 
L 895.2575 80.970625 
L 905.2575 80.970625 
" style="fill: none; stroke: #4285f4; stroke-opacity: 0.7; stroke-width: 1.5; stroke-linecap: square"/>
    </g>
    <g id="text_21">
     <!-- GOOGLE -->
     <g transform="translate(913.2575 84.470625) scale(0.1 -0.1)">
      <defs>
       <path id="DejaVuSans-47" d="M 3809 666 
L 3809 1919 
L 2778 1919 
L 2778 2438 
L 4434 2438 
L 4434 434 
Q 4069 175 3628 42 
Q 3188 -91 2688 -91 
Q 1594 -91 976 548 
Q 359 1188 359 2328 
Q 359 3472 976 4111 
Q 1594 4750 2688 4750 
Q 3144 4750 3555 4637 
Q 3966 4525 4313 4306 
L 4313 3634 
Q 3963 3931 3569 4081 
Q 3175 4231 2741 4231 
Q 1884 4231 1454 3753 
Q 1025 3275 1025 2328 
Q 1025 1384 1454 906 
Q 1884 428 2741 428 
Q 3075 428 3337 486 
Q 3600 544 3809 666 
z
" transform="scale(0.015625)"/>
       <path id="DejaVuSans-4c" d="M 628 4666 
L 1259 4666 
L 1259 531 
L 3531 531 
L 3531 0 
L 628 0 
L 628 4666 
z
" transform="scale(0.015625)"/>
      </defs>
      <use xlink:href="#DejaVuSans-47"/>
      <use xlink:href="#DejaVuSans-4f" transform="translate(77.490234 0)"/>
      <use xlink:href="#DejaVuSans-4f" transform="translate(156.201172 0)"/>
      <use xlink:href="#DejaVuSans-47" transform="translate(234.912109 0)"/>
      <use xlink:href="#DejaVuSans-4c" transform="translate(312.402344 0)"/>
      <use xlink:href="#DejaVuSans-45" transform="translate(368.115234 0)"/>
     </g>
    </g>
    <g id="line2d_52">
     <path d="M 885.2575 95.64875 
L 895.2575 95.64875 
L 905.2575 95.64875 
" style="fill: none; stroke: #1da1f2; stroke-opacity: 0.7; stroke-width: 1.5; stroke-linecap: square"/>
    </g>
    <g id="text_22">
     <!-- XAI -->
     <g transform="translate(913.2575 99.14875) scale(0.1 -0.1)">
      <defs>
       <path id="DejaVuSans-58" d="M 403 4666 
L 1081 4666 
L 2241 2931 
L 3406 4666 
L 4084 4666 
L 2584 2425 
L 4184 0 
L 3506 0 
L 2194 1984 
L 872 0 
L 191 0 
L 1856 2491 
L 403 4666 
z
" transform="scale(0.015625)"/>
      </defs>
      <use xlink:href="#DejaVuSans-58"/>
      <use xlink:href="#DejaVuSans-41" transform="translate(68.505859 0)"/>
      <use xlink:href="#DejaVuSans-49" transform="translate(136.914062 0)"/>
     </g>
    </g>
    <g id="line2d_53">
     <path d="M 885.2575 110.326875 
L 895.2575 110.326875 
L 905.2575 110.326875 
" style="fill: none; stroke: #7c3aed; stroke-opacity: 0.7; stroke-width: 1.5; stroke-linecap: square"/>
    </g>
    <g id="text_23">
     <!-- TOGETHER -->
     <g transform="translate(913.2575 113.826875) scale(0.1 -0.1)">
      <use xlink:href="#DejaVuSans-54"/>
      <use xlink:href="#DejaVuSans-4f" transform="translate(61.083984 0)"/>
      <use xlink:href="#DejaVuSans-47" transform="translate(139.794922 0)"/>
      <use xlink:href="#DejaVuSans-45" transform="translate(217.285156 0)"/>
      <use xlink:href="#DejaVuSans-54" transform="translate(280.46875 0)"/>
      <use xlink:href="#DejaVuSans-48" transform="translate(341.552734 0)"/>
      <use xlink:href="#DejaVuSans-45" transform="translate(416.748047 0)"/>
      <use xlink:href="#DejaVuSans-52" transform="translate(479.931641 0)"/>
     </g>
    </g>
    <g id="line2d_54">
     <path d="M 885.2575 125.005 
L 895.2575 125.005 
L 905.2575 125.005 
" style="fill: none; stroke-dasharray: 7.4,3.2; stroke-dashoffset: 0; stroke: #ff4444; stroke-width: 2"/>
    </g>
    <g id="text_24">
     <!-- Event Horizon -->
     <g transform="translate(913.2575 128.505) scale(0.1 -0.1)">
      <defs>
       <path id="DejaVuSans-7a" d="M 353 3500 
L 3084 3500 
L 3084 2975 
L 922 459 
L 3084 459 
L 3084 0 
L 275 0 
L 275 525 
L 2438 3041 
L 353 3041 
L 353 3500 
z
" transform="scale(0.015625)"/>
      </defs>
      <use xlink:href="#DejaVuSans-45"/>
      <use xlink:href="#DejaVuSans-76" transform="translate(63.183594 0)"/>
      <use xlink:href="#DejaVuSans-65" transform="translate(122.363281 0)"/>
      <use xlink:href="#DejaVuSans-6e" transform="translate(183.886719 0)"/>
      <use xlink:href="#DejaVuSans-74" transform="translate(247.265625 0)"/>
      <use xlink:href="#DejaVuSans-20" transform="translate(286.474609 0)"/>
      <use xlink:href="#DejaVuSans-48" transform="translate(318.261719 0)"/>
      <use xlink:href="#DejaVuSans-6f" transform="translate(393.457031 0)"/>
      <use xlink:href="#DejaVuSans-72" transform="translate(454.638672 0)"/>
      <use xlink:href="#DejaVuSans-69" transform="translate(495.751953 0)"/>
      <use xlink:href="#DejaVuSans-7a" transform="translate(523.535156 0)"/>
      <use xlink:href="#DejaVuSans-6f" transform="translate(576.025391 0)"/>
      <use xlink:href="#DejaVuSans-6e" transform="translate(637.207031 0)"/>
     </g>
    </g>
   </g>
  </g>
  <g id="text_25">
   <!-- All 25 model mean waveforms overlaid. Color indicates provider. -->
   <g transform="translate(337.091875 560.717813) scale(0.1 -0.1)">
    <defs>
     <path id="DejaVuSans-Oblique-41" d="M 2356 4666 
L 3072 4666 
L 3938 0 
L 3278 0 
L 3084 1197 
L 984 1197 
L 325 0 
L -341 0 
L 2356 4666 
z
M 2584 4044 
L 1275 1722 
L 2988 1722 
L 2584 4044 
z
" transform="scale(0.015625)"/>
     <path id="DejaVuSans-Oblique-6c" d="M 1172 4863 
L 1747 4863 
L 800 0 
L 225 0 
L 1172 4863 
z
" transform="scale(0.015625)"/>
     <path id="DejaVuSans-Oblique-20" transform="scale(0.015625)"/>
     <path id="DejaVuSans-Oblique-32" d="M 2950 2253 
L 934 525 
L 3163 525 
L 3053 0 
L 25 0 
L 128 531 
L 2234 2338 
Q 2656 2703 2832 2979 
Q 3009 3256 3009 3547 
Q 3009 3850 2796 4040 
Q 2584 4231 2241 4231 
Q 1944 4231 1581 4125 
Q 1219 4019 806 3816 
L 922 4441 
Q 1309 4594 1662 4672 
Q 2016 4750 2316 4750 
Q 2928 4750 3301 4425 
Q 3675 4100 3675 3572 
Q 3675 3216 3497 2892 
Q 3319 2569 2950 2253 
z
" transform="scale(0.015625)"/>
     <path id="DejaVuSans-Oblique-35" d="M 3719 4666 
L 3622 4141 
L 1691 4141 
L 1466 2988 
Q 1609 3034 1757 3056 
Q 1906 3078 2059 3078 
Q 2706 3078 3081 2731 
Q 3456 2384 3456 1791 
Q 3456 1375 3264 994 
Q 3072 613 2719 325 
Q 2469 125 2108 17 
Q 1747 -91 1319 -91 
Q 1038 -91 744 -41 
Q 450 9 128 109 
L 244 697 
Q 531 556 820 486 
Q 1109 416 1403 416 
Q 2013 416 2411 781 
Q 2809 1147 2809 1697 
Q 2809 2103 2548 2328 
Q 2288 2553 1819 2553 
Q 1572 2553 1305 2495 
Q 1038 2438 756 2322 
L 1209 4666 
L 3719 4666 
z
" transform="scale(0.015625)"/>
     <path id="DejaVuSans-Oblique-6d" d="M 5747 2113 
L 5338 0 
L 4763 0 
L 5166 2094 
Q 5191 2228 5203 2325 
Q 5216 2422 5216 2491 
Q 5216 2772 5059 2928 
Q 4903 3084 4622 3084 
Q 4203 3084 3875 2770 
Q 3547 2456 3450 1953 
L 3066 0 
L 2491 0 
L 2900 2094 
Q 2925 2209 2937 2307 
Q 2950 2406 2950 2484 
Q 2950 2769 2794 2926 
Q 2638 3084 2363 3084 
Q 1938 3084 1609 2770 
Q 1281 2456 1184 1953 
L 800 0 
L 225 0 
L 909 3500 
L 1484 3500 
L 1375 2956 
Q 1609 3263 1923 3423 
Q 2238 3584 2597 3584 
Q 2978 3584 3223 3384 
Q 3469 3184 3519 2828 
Q 3781 3197 4126 3390 
Q 4472 3584 4856 3584 
Q 5306 3584 5551 3325 
Q 5797 3066 5797 2591 
Q 5797 2488 5784 2364 
Q 5772 2241 5747 2113 
z
" transform="scale(0.015625)"/>
     <path id="DejaVuSans-Oblique-6f" d="M 1625 -91 
Q 1009 -91 651 289 
Q 294 669 294 1325 
Q 294 1706 417 2101 
Q 541 2497 738 2766 
Q 1047 3184 1428 3384 
Q 1809 3584 2291 3584 
Q 2888 3584 3255 3212 
Q 3622 2841 3622 2241 
Q 3622 1825 3500 1412 
Q 3378 1000 3181 728 
Q 2875 309 2494 109 
Q 2113 -91 1625 -91 
z
M 891 1344 
Q 891 869 1089 633 
Q 1288 397 1691 397 
Q 2269 397 2648 901 
Q 3028 1406 3028 2181 
Q 3028 2634 2825 2865 
Q 2622 3097 2228 3097 
Q 1903 3097 1650 2945 
Q 1397 2794 1197 2484 
Q 1050 2253 970 1956 
Q 891 1659 891 1344 
z
" transform="scale(0.015625)"/>
     <path id="DejaVuSans-Oblique-64" d="M 2675 525 
Q 2444 222 2128 65 
Q 1813 -91 1428 -91 
Q 903 -91 598 267 
Q 294 625 294 1247 
Q 294 1766 478 2236 
Q 663 2706 1013 3078 
Q 1244 3325 1534 3454 
Q 1825 3584 2144 3584 
Q 2481 3584 2739 3421 
Q 2997 3259 3138 2956 
L 3513 4863 
L 4091 4863 
L 3144 0 
L 2566 0 
L 2675 525 
z
M 891 1350 
Q 891 897 1095 644 
Q 1300 391 1663 391 
Q 1931 391 2161 520 
Q 2391 650 2566 903 
Q 2750 1166 2856 1509 
Q 2963 1853 2963 2188 
Q 2963 2622 2758 2865 
Q 2553 3109 2194 3109 
Q 1922 3109 1687 2981 
Q 1453 2853 1288 2613 
Q 1106 2353 998 2009 
Q 891 1666 891 1350 
z
" transform="scale(0.015625)"/>
     <path id="DejaVuSans-Oblique-65" d="M 3078 2063 
Q 3088 2113 3092 2166 
Q 3097 2219 3097 2272 
Q 3097 2653 2873 2875 
Q 2650 3097 2266 3097 
Q 1838 3097 1509 2826 
Q 1181 2556 1013 2059 
L 3078 2063 
z
M 3578 1613 
L 903 1613 
Q 884 1494 878 1425 
Q 872 1356 872 1306 
Q 872 872 1139 634 
Q 1406 397 1894 397 
Q 2269 397 2603 481 
Q 2938 566 3225 728 
L 3116 159 
Q 2806 34 2476 -28 
Q 2147 -91 1806 -91 
Q 1078 -91 686 257 
Q 294 606 294 1247 
Q 294 1794 489 2264 
Q 684 2734 1063 3103 
Q 1306 3334 1642 3459 
Q 1978 3584 2356 3584 
Q 2950 3584 3301 3228 
Q 3653 2872 3653 2272 
Q 3653 2128 3634 1964 
Q 3616 1800 3578 1613 
z
" transform="scale(0.015625)"/>
     <path id="DejaVuSans-Oblique-61" d="M 3438 1997 
L 3047 0 
L 2472 0 
L 2578 531 
Q 2325 219 2001 64 
Q 1678 -91 1281 -91 
Q 834 -91 548 182 
Q 263 456 263 884 
Q 263 1497 752 1853 
Q 1241 2209 2100 2209 
L 2900 2209 
L 2931 2363 
Q 2938 2388 2941 2417 
Q 2944 2447 2944 2509 
Q 2944 2788 2717 2942 
Q 2491 3097 2081 3097 
Q 1800 3097 1504 3025 
Q 1209 2953 897 2809 
L 997 3341 
Q 1322 3463 1633 3523 
Q 1944 3584 2234 3584 
Q 2853 3584 3176 3315 
Q 3500 3047 3500 2534 
Q 3500 2431 3484 2292 
Q 3469 2153 3438 1997 
z
M 2816 1759 
L 2241 1759 
Q 1534 1759 1195 1570 
Q 856 1381 856 984 
Q 856 709 1029 553 
Q 1203 397 1509 397 
Q 1978 397 2328 733 
Q 2678 1069 2791 1631 
L 2816 1759 
z
" transform="scale(0.015625)"/>
     <path id="DejaVuSans-Oblique-6e" d="M 3566 2113 
L 3156 0 
L 2578 0 
L 2988 2091 
Q 3016 2238 3031 2350 
Q 3047 2463 3047 2528 
Q 3047 2791 2881 2937 
Q 2716 3084 2419 3084 
Q 1956 3084 1622 2776 
Q 1288 2469 1184 1941 
L 800 0 
L 225 0 
L 903 3500 
L 1478 3500 
L 1363 2950 
Q 1603 3253 1940 3418 
Q 2278 3584 2650 3584 
Q 3113 3584 3367 3334 
Q 3622 3084 3622 2631 
Q 3622 2519 3608 2391 
Q 3594 2263 3566 2113 
z
" transform="scale(0.015625)"/>
     <path id="DejaVuSans-Oblique-77" d="M 544 3500 
L 1113 3500 
L 1259 684 
L 2566 3500 
L 3231 3500 
L 3425 684 
L 4666 3500 
L 5241 3500 
L 3641 0 
L 2969 0 
L 2797 2900 
L 1459 0 
L 781 0 
L 544 3500 
z
" transform="scale(0.015625)"/>
     <path id="DejaVuSans-Oblique-76" d="M 459 3500 
L 1069 3500 
L 1581 525 
L 3256 3500 
L 3866 3500 
L 1875 0 
L 1100 0 
L 459 3500 
z
" transform="scale(0.015625)"/>
     <path id="DejaVuSans-Oblique-66" d="M 3059 4863 
L 2969 4384 
L 2419 4384 
Q 2106 4384 1964 4261 
Q 1822 4138 1753 3809 
L 1691 3500 
L 2638 3500 
L 2553 3053 
L 1606 3053 
L 1013 0 
L 434 0 
L 1031 3053 
L 481 3053 
L 563 3500 
L 1113 3500 
L 1159 3744 
Q 1278 4363 1576 4613 
Q 1875 4863 2516 4863 
L 3059 4863 
z
" transform="scale(0.015625)"/>
     <path id="DejaVuSans-Oblique-72" d="M 2853 2969 
Q 2766 3016 2653 3041 
Q 2541 3066 2413 3066 
Q 1953 3066 1609 2717 
Q 1266 2369 1153 1784 
L 800 0 
L 225 0 
L 909 3500 
L 1484 3500 
L 1375 2956 
Q 1603 3259 1920 3421 
Q 2238 3584 2597 3584 
Q 2691 3584 2781 3573 
Q 2872 3563 2963 3538 
L 2853 2969 
z
" transform="scale(0.015625)"/>
     <path id="DejaVuSans-Oblique-73" d="M 3200 3397 
L 3091 2853 
Q 2863 2978 2609 3040 
Q 2356 3103 2088 3103 
Q 1634 3103 1373 2948 
Q 1113 2794 1113 2528 
Q 1113 2219 1719 2053 
Q 1766 2041 1788 2034 
L 1972 1978 
Q 2547 1819 2739 1644 
Q 2931 1469 2931 1166 
Q 2931 609 2489 259 
Q 2047 -91 1331 -91 
Q 1053 -91 747 -37 
Q 441 16 72 128 
L 184 722 
Q 500 559 806 475 
Q 1113 391 1394 391 
Q 1816 391 2080 572 
Q 2344 753 2344 1031 
Q 2344 1331 1650 1516 
L 1591 1531 
L 1394 1581 
Q 956 1697 753 1886 
Q 550 2075 550 2369 
Q 550 2928 970 3256 
Q 1391 3584 2113 3584 
Q 2397 3584 2667 3537 
Q 2938 3491 3200 3397 
z
" transform="scale(0.015625)"/>
     <path id="DejaVuSans-Oblique-69" d="M 1172 4863 
L 1747 4863 
L 1606 4134 
L 1031 4134 
L 1172 4863 
z
M 909 3500 
L 1484 3500 
L 800 0 
L 225 0 
L 909 3500 
z
" transform="scale(0.015625)"/>
     <path id="DejaVuSans-Oblique-2e" d="M 525 794 
L 1184 794 
L 1031 0 
L 372 0 
L 525 794 
z
" transform="scale(0.015625)"/>
     <path id="DejaVuSans-Oblique-43" d="M 4447 4306 
L 4319 3641 
Q 4019 3944 3683 4091 
Q 3347 4238 2956 4238 
Q 2422 4238 2017 3981 
Q 1613 3725 1319 3200 
Q 1131 2863 1032 2486 
Q 934 2109 934 1728 
Q 934 1091 1264 756 
Q 1594 422 2222 422 
Q 2656 422 3056 561 
Q 3456 700 3834 978 
L 3688 231 
Q 3316 72 2936 -9 
Q 2556 -91 2175 -91 
Q 1278 -91 773 396 
Q 269 884 269 1753 
Q 269 2309 461 2846 
Q 653 3384 1013 3828 
Q 1394 4300 1883 4525 
Q 2372 4750 3022 4750 
Q 3422 4750 3780 4639 
Q 4138 4528 4447 4306 
z
" transform="scale(0.015625)"/>
     <path id="DejaVuSans-Oblique-63" d="M 3431 3366 
L 3316 2797 
Q 3109 2947 2876 3022 
Q 2644 3097 2394 3097 
Q 2119 3097 1870 3000 
Q 1622 2903 1453 2725 
Q 1184 2453 1037 2087 
Q 891 1722 891 1331 
Q 891 859 1127 628 
Q 1363 397 1844 397 
Q 2081 397 2348 469 
Q 2616 541 2906 684 
L 2797 116 
Q 2547 13 2283 -39 
Q 2019 -91 1741 -91 
Q 1044 -91 669 257 
Q 294 606 294 1253 
Q 294 1797 489 2255 
Q 684 2713 1069 3078 
Q 1331 3328 1684 3456 
Q 2038 3584 2456 3584 
Q 2700 3584 2940 3529 
Q 3181 3475 3431 3366 
z
" transform="scale(0.015625)"/>
     <path id="DejaVuSans-Oblique-74" d="M 2706 3500 
L 2619 3053 
L 1472 3053 
L 1100 1153 
Q 1081 1047 1072 975 
Q 1063 903 1063 863 
Q 1063 663 1183 572 
Q 1303 481 1569 481 
L 2150 481 
L 2053 0 
L 1503 0 
Q 991 0 739 200 
Q 488 400 488 806 
Q 488 878 497 964 
Q 506 1050 525 1153 
L 897 3053 
L 409 3053 
L 500 3500 
L 978 3500 
L 1172 4494 
L 1747 4494 
L 1556 3500 
L 2706 3500 
z
" transform="scale(0.015625)"/>
     <path id="DejaVuSans-Oblique-70" d="M 3175 2156 
Q 3175 2616 2975 2859 
Q 2775 3103 2400 3103 
Q 2144 3103 1911 2972 
Q 1678 2841 1497 2591 
Q 1319 2344 1212 1994 
Q 1106 1644 1106 1300 
Q 1106 863 1306 627 
Q 1506 391 1875 391 
Q 2147 391 2380 519 
Q 2613 647 2778 891 
Q 2956 1147 3065 1494 
Q 3175 1841 3175 2156 
z
M 1394 2969 
Q 1625 3272 1939 3428 
Q 2253 3584 2638 3584 
Q 3175 3584 3472 3232 
Q 3769 2881 3769 2247 
Q 3769 1728 3584 1258 
Q 3400 788 3053 416 
Q 2822 169 2531 39 
Q 2241 -91 1919 -91 
Q 1547 -91 1294 64 
Q 1041 219 916 525 
L 556 -1331 
L -19 -1331 
L 922 3500 
L 1497 3500 
L 1394 2969 
z
" transform="scale(0.015625)"/>
    </defs>
    <use xlink:href="#DejaVuSans-Oblique-41"/>
    <use xlink:href="#DejaVuSans-Oblique-6c" transform="translate(68.408203 0)"/>
    <use xlink:href="#DejaVuSans-Oblique-6c" transform="translate(96.191406 0)"/>
    <use xlink:href="#DejaVuSans-Oblique-20" transform="translate(123.974609 0)"/>
    <use xlink:href="#DejaVuSans-Oblique-32" transform="translate(155.761719 0)"/>
    <use xlink:href="#DejaVuSans-Oblique-35" transform="translate(219.384766 0)"/>
    <use xlink:href="#DejaVuSans-Oblique-20" transform="translate(283.007812 0)"/>
    <use xlink:href="#DejaVuSans-Oblique-6d" transform="translate(314.794922 0)"/>
    <use xlink:href="#DejaVuSans-Oblique-6f" transform="translate(412.207031 0)"/>
    <use xlink:href="#DejaVuSans-Oblique-64" transform="translate(473.388672 0)"/>
    <use xlink:href="#DejaVuSans-Oblique-65" transform="translate(536.865234 0)"/>
    <use xlink:href="#DejaVuSans-Oblique-6c" transform="translate(598.388672 0)"/>
    <use xlink:href="#DejaVuSans-Oblique-20" transform="translate(626.171875 0)"/>
    <use xlink:href="#DejaVuSans-Oblique-6d" transform="translate(657.958984 0)"/>
    <use xlink:href="#DejaVuSans-Oblique-65" transform="translate(755.371094 0)"/>
    <use xlink:href="#DejaVuSans-Oblique-61" transform="translate(816.894531 0)"/>
    <use xlink:href="#DejaVuSans-Oblique-6e" transform="translate(878.173828 0)"/>
    <use xlink:href="#DejaVuSans-Oblique-20" transform="translate(941.552734 0)"/>
    <use xlink:href="#DejaVuSans-Oblique-77" transform="translate(973.339844 0)"/>
    <use xlink:href="#DejaVuSans-Oblique-61" transform="translate(1055.126953 0)"/>
    <use xlink:href="#DejaVuSans-Oblique-76" transform="translate(1116.40625 0)"/>
    <use xlink:href="#DejaVuSans-Oblique-65" transform="translate(1175.585938 0)"/>
    <use xlink:href="#DejaVuSans-Oblique-66" transform="translate(1237.109375 0)"/>
    <use xlink:href="#DejaVuSans-Oblique-6f" transform="translate(1272.314453 0)"/>
    <use xlink:href="#DejaVuSans-Oblique-72" transform="translate(1333.496094 0)"/>
    <use xlink:href="#DejaVuSans-Oblique-6d" transform="translate(1374.609375 0)"/>
    <use xlink:href="#DejaVuSans-Oblique-73" transform="translate(1472.021484 0)"/>
    <use xlink:href="#DejaVuSans-Oblique-20" transform="translate(1524.121094 0)"/>
    <use xlink:href="#DejaVuSans-Oblique-6f" transform="translate(1555.908203 0)"/>
    <use xlink:href="#DejaVuSans-Oblique-76" transform="translate(1617.089844 0)"/>
    <use xlink:href="#DejaVuSans-Oblique-65" transform="translate(1676.269531 0)"/>
    <use xlink:href="#DejaVuSans-Oblique-72" transform="translate(1737.792969 0)"/>
    <use xlink:href="#DejaVuSans-Oblique-6c" transform="translate(1778.90625 0)"/>
    <use xlink:href="#DejaVuSans-Oblique-61" transform="translate(1806.689453 0)"/>
    <use xlink:href="#DejaVuSans-Oblique-69" transform="translate(1867.96875 0)"/>
    <use xlink:href="#DejaVuSans-Oblique-64" transform="translate(1895.751953 0)"/>
    <use xlink:href="#DejaVuSans-Oblique-2e" transform="translate(1959.228516 0)"/>
    <use xlink:href="#DejaVuSans-Oblique-20" transform="translate(1991.015625 0)"/>
    <use xlink:href="#DejaVuSans-Oblique-43" transform="translate(2022.802734 0)"/>
    <use xlink:href="#DejaVuSans-Oblique-6f" transform="translate(2092.626953 0)"/>
    <use xlink:href="#DejaVuSans-Oblique-6c" transform="translate(2153.808594 0)"/>
    <use xlink:href="#DejaVuSans-Oblique-6f" transform="translate(2181.591797 0)"/>
    <use xlink:href="#DejaVuSans-Oblique-72" transform="translate(2242.773438 0)"/>
    <use xlink:href="#DejaVuSans-Oblique-20" transform="translate(2283.886719 0)"/>
    <use xlink:href="#DejaVuSans-Oblique-69" transform="translate(2315.673828 0)"/>
    <use xlink:href="#DejaVuSans-Oblique-6e" transform="translate(2343.457031 0)"/>
    <use xlink:href="#DejaVuSans-Oblique-64" transform="translate(2406.835938 0)"/>
    <use xlink:href="#DejaVuSans-Oblique-69" transform="translate(2470.3125 0)"/>
    <use xlink:href="#DejaVuSans-Oblique-63" transform="translate(2498.095703 0)"/>
    <use xlink:href="#DejaVuSans-Oblique-61" transform="translate(2553.076172 0)"/>
    <use xlink:href="#DejaVuSans-Oblique-74" transform="translate(2614.355469 0)"/>
    <use xlink:href="#DejaVuSans-Oblique-65" transform="translate(2653.564453 0)"/>
    <use xlink:href="#DejaVuSans-Oblique-73" transform="translate(2715.087891 0)"/>
    <use xlink:href="#DejaVuSans-Oblique-20" transform="translate(2767.1875 0)"/>
    <use xlink:href="#DejaVuSans-Oblique-70" transform="translate(2798.974609 0)"/>
    <use xlink:href="#DejaVuSans-Oblique-72" transform="translate(2862.451172 0)"/>
    <use xlink:href="#DejaVuSans-Oblique-6f" transform="translate(2903.564453 0)"/>
    <use xlink:href="#DejaVuSans-Oblique-76" transform="translate(2964.746094 0)"/>
    <use xlink:href="#DejaVuSans-Oblique-69" transform="translate(3023.925781 0)"/>
    <use xlink:href="#DejaVuSans-Oblique-64" transform="translate(3051.708984 0)"/>
    <use xlink:href="#DejaVuSans-Oblique-65" transform="translate(3115.185547 0)"/>
    <use xlink:href="#DejaVuSans-Oblique-72" transform="translate(3176.708984 0)"/>
    <use xlink:href="#DejaVuSans-Oblique-2e" transform="translate(3208.697266 0)"/>
   </g>
  </g>
 </g>
 <defs>
  <clipPath id="p8e0b032923">
   <rect x="45.716875" y="23.837812" width="946.6" height="480.52"/>
  </clipPath>
 </defs>
</svg>
