<?xml version="1.0" encoding="utf-8" standalone="no"?>
<!DOCTYPE svg PUBLIC "-//W3C//DTD SVG 1.1//EN"
  "http://www.w3.org/Graphics/SVG/1.1/DTD/svg11.dtd">
<svg xmlns:xlink="http://www.w3.org/1999/xlink" width="692.051405pt" height="709.680833pt" viewBox="0 0 692.051405 709.680833" xmlns="http://www.w3.org/2000/svg" version="1.1">
 <metadata>
  <rdf:RDF xmlns:dc="http://purl.org/dc/elements/1.1/" xmlns:cc="http://creativecommons.org/ns#" xmlns:rdf="http://www.w3.org/1999/02/22-rdf-syntax-ns#">
   <cc:Work>
    <dc:type rdf:resource="http://purl.org/dc/dcmitype/StillImage"/>
    <dc:date>2025-12-17T18:41:20.712699</dc:date>
    <dc:format>image/svg+xml</dc:format>
    <dc:creator>
     <cc:Agent>
      <dc:title>Matplotlib v3.10.7, https://matplotlib.org/</dc:title>
     </cc:Agent>
    </dc:creator>
   </cc:Work>
  </rdf:RDF>
 </metadata>
 <defs>
  <style type="text/css">*{stroke-linejoin: round; stroke-linecap: butt}</style>
 </defs>
 <g id="figure_1">
  <g id="patch_1">
   <path d="M 0 709.680833 
L 692.051405 709.680833 
L 692.051405 0 
L 0 0 
z
" style="fill: #ffffff"/>
  </g>
  <g id="axes_1">
   <g id="patch_2">
    <path d="M 652.732342 376.390296 
C 652.732342 334.005031 644.383369 292.031909 628.163231 252.87303 
C 611.943092 213.714151 588.167228 178.131056 558.19632 148.160148 
C 528.225411 118.189239 492.642317 94.413376 453.483437 78.193237 
C 414.324558 61.973098 372.351436 53.624125 329.966171 53.624125 
C 287.580906 53.624125 245.607784 61.973098 206.448905 78.193237 
C 167.290026 94.413376 131.706931 118.189239 101.736023 148.160148 
C 71.765114 178.131056 47.989251 213.714151 31.769112 252.87303 
C 15.548973 292.031909 7.2 334.005031 7.2 376.390296 
C 7.2 418.775561 15.548973 460.748683 31.769112 499.907562 
C 47.989251 539.066442 71.765114 574.649536 101.736023 604.620445 
C 131.706931 634.591353 167.290026 658.367217 206.448905 674.587356 
C 245.607784 690.807494 287.580906 699.156467 329.966171 699.156467 
C 372.351436 699.156467 414.324558 690.807494 453.483437 674.587356 
C 492.642317 658.367217 528.225411 634.591353 558.19632 604.620445 
C 588.167228 574.649536 611.943092 539.066442 628.163231 499.907562 
C 644.383369 460.748683 652.732342 418.775561 652.732342 376.390296 
M 329.966171 376.390296 
C 329.966171 376.390296 329.966171 376.390296 329.966171 376.390296 
C 329.966171 376.390296 329.966171 376.390296 329.966171 376.390296 
C 329.966171 376.390296 329.966171 376.390296 329.966171 376.390296 
C 329.966171 376.390296 329.966171 376.390296 329.966171 376.390296 
C 329.966171 376.390296 329.966171 376.390296 329.966171 376.390296 
C 329.966171 376.390296 329.966171 376.390296 329.966171 376.390296 
C 329.966171 376.390296 329.966171 376.390296 329.966171 376.390296 
C 329.966171 376.390296 329.966171 376.390296 329.966171 376.390296 
C 329.966171 376.390296 329.966171 376.390296 329.966171 376.390296 
C 329.966171 376.390296 329.966171 376.390296 329.966171 376.390296 
C 329.966171 376.390296 329.966171 376.390296 329.966171 376.390296 
C 329.966171 376.390296 329.966171 376.390296 329.966171 376.390296 
C 329.966171 376.390296 329.966171 376.390296 329.966171 376.390296 
C 329.966171 376.390296 329.966171 376.390296 329.966171 376.390296 
C 329.966171 376.390296 329.966171 376.390296 329.966171 376.390296 
C 329.966171 376.390296 329.966171 376.390296 329.966171 376.390296 
z
" style="fill: #ffffff"/>
   </g>
   <g id="patch_3">
    <path d="M 329.966171 376.390296 
L 329.966171 376.390296 
L 329.966171 376.390296 
L 329.966171 376.390296 
L 329.966171 376.390296 
z
" clip-path="url(#pcdb303e137)" style="fill: #cccccc; opacity: 0.1; stroke: #cccccc; stroke-linejoin: miter"/>
   </g>
   <g id="matplotlib.axis_1">
    <g id="xtick_1">
     <g id="line2d_1">
      <path d="M 329.966171 376.390296 
L 652.732342 376.390296 
" clip-path="url(#pcdb303e137)" style="fill: none; stroke: #b0b0b0; stroke-width: 0.8; stroke-linecap: square"/>
     </g>
     <g id="text_1">
      <!-- Voice -->
      <g transform="translate(648.61328 379.701546) scale(0.12 -0.12)">
       <defs>
        <path id="DejaVuSans-Bold-56" d="M 31 4666 
L 1241 4666 
L 2478 1222 
L 3713 4666 
L 4922 4666 
L 3194 0 
L 1759 0 
L 31 4666 
z
" transform="scale(0.015625)"/>
        <path id="DejaVuSans-Bold-6f" d="M 2203 2784 
Q 1831 2784 1636 2517 
Q 1441 2250 1441 1747 
Q 1441 1244 1636 976 
Q 1831 709 2203 709 
Q 2569 709 2762 976 
Q 2956 1244 2956 1747 
Q 2956 2250 2762 2517 
Q 2569 2784 2203 2784 
z
M 2203 3584 
Q 3106 3584 3614 3096 
Q 4122 2609 4122 1747 
Q 4122 884 3614 396 
Q 3106 -91 2203 -91 
Q 1297 -91 786 396 
Q 275 884 275 1747 
Q 275 2609 786 3096 
Q 1297 3584 2203 3584 
z
" transform="scale(0.015625)"/>
        <path id="DejaVuSans-Bold-69" d="M 538 3500 
L 1656 3500 
L 1656 0 
L 538 0 
L 538 3500 
z
M 538 4863 
L 1656 4863 
L 1656 3950 
L 538 3950 
L 538 4863 
z
" transform="scale(0.015625)"/>
        <path id="DejaVuSans-Bold-63" d="M 3366 3391 
L 3366 2478 
Q 3138 2634 2908 2709 
Q 2678 2784 2431 2784 
Q 1963 2784 1702 2511 
Q 1441 2238 1441 1747 
Q 1441 1256 1702 982 
Q 1963 709 2431 709 
Q 2694 709 2930 787 
Q 3166 866 3366 1019 
L 3366 103 
Q 3103 6 2833 -42 
Q 2563 -91 2291 -91 
Q 1344 -91 809 395 
Q 275 881 275 1747 
Q 275 2613 809 3098 
Q 1344 3584 2291 3584 
Q 2566 3584 2833 3536 
Q 3100 3488 3366 3391 
z
" transform="scale(0.015625)"/>
        <path id="DejaVuSans-Bold-65" d="M 4031 1759 
L 4031 1441 
L 1416 1441 
Q 1456 1047 1700 850 
Q 1944 653 2381 653 
Q 2734 653 3104 758 
Q 3475 863 3866 1075 
L 3866 213 
Q 3469 63 3072 -14 
Q 2675 -91 2278 -91 
Q 1328 -91 801 392 
Q 275 875 275 1747 
Q 275 2603 792 3093 
Q 1309 3584 2216 3584 
Q 3041 3584 3536 3087 
Q 4031 2591 4031 1759 
z
M 2881 2131 
Q 2881 2450 2695 2645 
Q 2509 2841 2209 2841 
Q 1884 2841 1681 2658 
Q 1478 2475 1428 2131 
L 2881 2131 
z
" transform="scale(0.015625)"/>
       </defs>
       <use xlink:href="#DejaVuSans-Bold-56"/>
       <use xlink:href="#DejaVuSans-Bold-6f" transform="translate(71.892578 0)"/>
       <use xlink:href="#DejaVuSans-Bold-69" transform="translate(140.59375 0)"/>
       <use xlink:href="#DejaVuSans-Bold-63" transform="translate(174.871094 0)"/>
       <use xlink:href="#DejaVuSans-Bold-65" transform="translate(234.148438 0)"/>
      </g>
     </g>
    </g>
    <g id="xtick_2">
     <g id="line2d_2">
      <path d="M 329.966171 376.390296 
L 429.706403 69.421426 
" clip-path="url(#pcdb303e137)" style="fill: none; stroke: #b0b0b0; stroke-width: 0.8; stroke-linecap: square"/>
     </g>
     <g id="text_2">
      <!-- Values -->
      <g transform="translate(411.701391 59.417885) scale(0.12 -0.12)">
       <defs>
        <path id="DejaVuSans-Bold-61" d="M 2106 1575 
Q 1756 1575 1579 1456 
Q 1403 1338 1403 1106 
Q 1403 894 1545 773 
Q 1688 653 1941 653 
Q 2256 653 2472 879 
Q 2688 1106 2688 1447 
L 2688 1575 
L 2106 1575 
z
M 3816 1997 
L 3816 0 
L 2688 0 
L 2688 519 
Q 2463 200 2181 54 
Q 1900 -91 1497 -91 
Q 953 -91 614 226 
Q 275 544 275 1050 
Q 275 1666 698 1953 
Q 1122 2241 2028 2241 
L 2688 2241 
L 2688 2328 
Q 2688 2594 2478 2717 
Q 2269 2841 1825 2841 
Q 1466 2841 1156 2769 
Q 847 2697 581 2553 
L 581 3406 
Q 941 3494 1303 3539 
Q 1666 3584 2028 3584 
Q 2975 3584 3395 3211 
Q 3816 2838 3816 1997 
z
" transform="scale(0.015625)"/>
        <path id="DejaVuSans-Bold-6c" d="M 538 4863 
L 1656 4863 
L 1656 0 
L 538 0 
L 538 4863 
z
" transform="scale(0.015625)"/>
        <path id="DejaVuSans-Bold-75" d="M 500 1363 
L 500 3500 
L 1625 3500 
L 1625 3150 
Q 1625 2866 1622 2436 
Q 1619 2006 1619 1863 
Q 1619 1441 1641 1255 
Q 1663 1069 1716 984 
Q 1784 875 1895 815 
Q 2006 756 2150 756 
Q 2500 756 2700 1025 
Q 2900 1294 2900 1772 
L 2900 3500 
L 4019 3500 
L 4019 0 
L 2900 0 
L 2900 506 
Q 2647 200 2364 54 
Q 2081 -91 1741 -91 
Q 1134 -91 817 281 
Q 500 653 500 1363 
z
" transform="scale(0.015625)"/>
        <path id="DejaVuSans-Bold-73" d="M 3272 3391 
L 3272 2541 
Q 2913 2691 2578 2766 
Q 2244 2841 1947 2841 
Q 1628 2841 1473 2761 
Q 1319 2681 1319 2516 
Q 1319 2381 1436 2309 
Q 1553 2238 1856 2203 
L 2053 2175 
Q 2913 2066 3209 1816 
Q 3506 1566 3506 1031 
Q 3506 472 3093 190 
Q 2681 -91 1863 -91 
Q 1516 -91 1145 -36 
Q 775 19 384 128 
L 384 978 
Q 719 816 1070 734 
Q 1422 653 1784 653 
Q 2113 653 2278 743 
Q 2444 834 2444 1013 
Q 2444 1163 2330 1236 
Q 2216 1309 1875 1350 
L 1678 1375 
Q 931 1469 631 1722 
Q 331 1975 331 2491 
Q 331 3047 712 3315 
Q 1094 3584 1881 3584 
Q 2191 3584 2531 3537 
Q 2872 3491 3272 3391 
z
" transform="scale(0.015625)"/>
       </defs>
       <use xlink:href="#DejaVuSans-Bold-56"/>
       <use xlink:href="#DejaVuSans-Bold-61" transform="translate(71.892578 0)"/>
       <use xlink:href="#DejaVuSans-Bold-6c" transform="translate(139.373047 0)"/>
       <use xlink:href="#DejaVuSans-Bold-75" transform="translate(173.650391 0)"/>
       <use xlink:href="#DejaVuSans-Bold-65" transform="translate(244.841797 0)"/>
       <use xlink:href="#DejaVuSans-Bold-73" transform="translate(312.664062 0)"/>
      </g>
     </g>
    </g>
    <g id="xtick_3">
     <g id="line2d_3">
      <path d="M 329.966171 376.390296 
L 68.842853 186.673101 
" clip-path="url(#pcdb303e137)" style="fill: none; stroke: #b0b0b0; stroke-width: 0.8; stroke-linecap: square"/>
     </g>
     <g id="text_3">
      <!-- Reasoning -->
      <g transform="translate(22.190678 181.708482) scale(0.12 -0.12)">
       <defs>
        <path id="DejaVuSans-Bold-52" d="M 2297 2597 
Q 2675 2597 2839 2737 
Q 3003 2878 3003 3200 
Q 3003 3519 2839 3656 
Q 2675 3794 2297 3794 
L 1791 3794 
L 1791 2597 
L 2297 2597 
z
M 1791 1766 
L 1791 0 
L 588 0 
L 588 4666 
L 2425 4666 
Q 3347 4666 3776 4356 
Q 4206 4047 4206 3378 
Q 4206 2916 3982 2619 
Q 3759 2322 3309 2181 
Q 3556 2125 3751 1926 
Q 3947 1728 4147 1325 
L 4800 0 
L 3519 0 
L 2950 1159 
Q 2778 1509 2601 1637 
Q 2425 1766 2131 1766 
L 1791 1766 
z
" transform="scale(0.015625)"/>
        <path id="DejaVuSans-Bold-6e" d="M 4056 2131 
L 4056 0 
L 2931 0 
L 2931 347 
L 2931 1631 
Q 2931 2084 2911 2256 
Q 2891 2428 2841 2509 
Q 2775 2619 2662 2680 
Q 2550 2741 2406 2741 
Q 2056 2741 1856 2470 
Q 1656 2200 1656 1722 
L 1656 0 
L 538 0 
L 538 3500 
L 1656 3500 
L 1656 2988 
Q 1909 3294 2193 3439 
Q 2478 3584 2822 3584 
Q 3428 3584 3742 3212 
Q 4056 2841 4056 2131 
z
" transform="scale(0.015625)"/>
        <path id="DejaVuSans-Bold-67" d="M 2919 594 
Q 2688 288 2409 144 
Q 2131 0 1766 0 
Q 1125 0 706 504 
Q 288 1009 288 1791 
Q 288 2575 706 3076 
Q 1125 3578 1766 3578 
Q 2131 3578 2409 3434 
Q 2688 3291 2919 2981 
L 2919 3500 
L 4044 3500 
L 4044 353 
Q 4044 -491 3511 -936 
Q 2978 -1381 1966 -1381 
Q 1638 -1381 1331 -1331 
Q 1025 -1281 716 -1178 
L 716 -306 
Q 1009 -475 1290 -558 
Q 1572 -641 1856 -641 
Q 2406 -641 2662 -400 
Q 2919 -159 2919 353 
L 2919 594 
z
M 2181 2772 
Q 1834 2772 1640 2515 
Q 1447 2259 1447 1791 
Q 1447 1309 1634 1061 
Q 1822 813 2181 813 
Q 2531 813 2725 1069 
Q 2919 1325 2919 1791 
Q 2919 2259 2725 2515 
Q 2531 2772 2181 2772 
z
" transform="scale(0.015625)"/>
       </defs>
       <use xlink:href="#DejaVuSans-Bold-52"/>
       <use xlink:href="#DejaVuSans-Bold-65" transform="translate(77.001953 0)"/>
       <use xlink:href="#DejaVuSans-Bold-61" transform="translate(144.824219 0)"/>
       <use xlink:href="#DejaVuSans-Bold-73" transform="translate(212.304688 0)"/>
       <use xlink:href="#DejaVuSans-Bold-6f" transform="translate(271.826172 0)"/>
       <use xlink:href="#DejaVuSans-Bold-6e" transform="translate(340.527344 0)"/>
       <use xlink:href="#DejaVuSans-Bold-69" transform="translate(411.71875 0)"/>
       <use xlink:href="#DejaVuSans-Bold-6e" transform="translate(445.996094 0)"/>
       <use xlink:href="#DejaVuSans-Bold-67" transform="translate(517.1875 0)"/>
      </g>
     </g>
    </g>
    <g id="xtick_4">
     <g id="line2d_4">
      <path d="M 329.966171 376.390296 
L 68.842853 566.107492 
" clip-path="url(#pcdb303e137)" style="fill: none; stroke: #b0b0b0; stroke-width: 0.8; stroke-linecap: square"/>
     </g>
     <g id="text_4">
      <!-- Self-Model -->
      <g transform="translate(21.559741 577.647735) scale(0.12 -0.12)">
       <defs>
        <path id="DejaVuSans-Bold-53" d="M 3834 4519 
L 3834 3531 
Q 3450 3703 3084 3790 
Q 2719 3878 2394 3878 
Q 1963 3878 1756 3759 
Q 1550 3641 1550 3391 
Q 1550 3203 1689 3098 
Q 1828 2994 2194 2919 
L 2706 2816 
Q 3484 2659 3812 2340 
Q 4141 2022 4141 1434 
Q 4141 663 3683 286 
Q 3225 -91 2284 -91 
Q 1841 -91 1394 -6 
Q 947 78 500 244 
L 500 1259 
Q 947 1022 1364 901 
Q 1781 781 2169 781 
Q 2563 781 2772 912 
Q 2981 1044 2981 1288 
Q 2981 1506 2839 1625 
Q 2697 1744 2272 1838 
L 1806 1941 
Q 1106 2091 782 2419 
Q 459 2747 459 3303 
Q 459 4000 909 4375 
Q 1359 4750 2203 4750 
Q 2588 4750 2994 4692 
Q 3400 4634 3834 4519 
z
" transform="scale(0.015625)"/>
        <path id="DejaVuSans-Bold-66" d="M 2841 4863 
L 2841 4128 
L 2222 4128 
Q 1984 4128 1890 4042 
Q 1797 3956 1797 3744 
L 1797 3500 
L 2753 3500 
L 2753 2700 
L 1797 2700 
L 1797 0 
L 678 0 
L 678 2700 
L 122 2700 
L 122 3500 
L 678 3500 
L 678 3744 
Q 678 4316 997 4589 
Q 1316 4863 1984 4863 
L 2841 4863 
z
" transform="scale(0.015625)"/>
        <path id="DejaVuSans-Bold-2d" d="M 347 2297 
L 2309 2297 
L 2309 1388 
L 347 1388 
L 347 2297 
z
" transform="scale(0.015625)"/>
        <path id="DejaVuSans-Bold-4d" d="M 588 4666 
L 2119 4666 
L 3181 2169 
L 4250 4666 
L 5778 4666 
L 5778 0 
L 4641 0 
L 4641 3413 
L 3566 897 
L 2803 897 
L 1728 3413 
L 1728 0 
L 588 0 
L 588 4666 
z
" transform="scale(0.015625)"/>
        <path id="DejaVuSans-Bold-64" d="M 2919 2988 
L 2919 4863 
L 4044 4863 
L 4044 0 
L 2919 0 
L 2919 506 
Q 2688 197 2409 53 
Q 2131 -91 1766 -91 
Q 1119 -91 703 423 
Q 288 938 288 1747 
Q 288 2556 703 3070 
Q 1119 3584 1766 3584 
Q 2128 3584 2408 3439 
Q 2688 3294 2919 2988 
z
M 2181 722 
Q 2541 722 2730 984 
Q 2919 1247 2919 1747 
Q 2919 2247 2730 2509 
Q 2541 2772 2181 2772 
Q 1825 2772 1636 2509 
Q 1447 2247 1447 1747 
Q 1447 1247 1636 984 
Q 1825 722 2181 722 
z
" transform="scale(0.015625)"/>
       </defs>
       <use xlink:href="#DejaVuSans-Bold-53"/>
       <use xlink:href="#DejaVuSans-Bold-65" transform="translate(72.021484 0)"/>
       <use xlink:href="#DejaVuSans-Bold-6c" transform="translate(139.84375 0)"/>
       <use xlink:href="#DejaVuSans-Bold-66" transform="translate(174.121094 0)"/>
       <use xlink:href="#DejaVuSans-Bold-2d" transform="translate(215.876953 0)"/>
       <use xlink:href="#DejaVuSans-Bold-4d" transform="translate(257.380859 0)"/>
       <use xlink:href="#DejaVuSans-Bold-6f" transform="translate(356.892578 0)"/>
       <use xlink:href="#DejaVuSans-Bold-64" transform="translate(425.59375 0)"/>
       <use xlink:href="#DejaVuSans-Bold-65" transform="translate(497.175781 0)"/>
       <use xlink:href="#DejaVuSans-Bold-6c" transform="translate(564.998047 0)"/>
      </g>
     </g>
    </g>
    <g id="xtick_5">
     <g id="line2d_5">
      <path d="M 329.966171 376.390296 
L 429.706403 683.359167 
" clip-path="url(#pcdb303e137)" style="fill: none; stroke: #b0b0b0; stroke-width: 0.8; stroke-linecap: square"/>
     </g>
     <g id="text_5">
      <!-- Narrative -->
      <g transform="translate(402.090141 699.985208) scale(0.12 -0.12)">
       <defs>
        <path id="DejaVuSans-Bold-4e" d="M 588 4666 
L 1931 4666 
L 3628 1466 
L 3628 4666 
L 4769 4666 
L 4769 0 
L 3425 0 
L 1728 3200 
L 1728 0 
L 588 0 
L 588 4666 
z
" transform="scale(0.015625)"/>
        <path id="DejaVuSans-Bold-72" d="M 3138 2547 
Q 2991 2616 2845 2648 
Q 2700 2681 2553 2681 
Q 2122 2681 1889 2404 
Q 1656 2128 1656 1613 
L 1656 0 
L 538 0 
L 538 3500 
L 1656 3500 
L 1656 2925 
Q 1872 3269 2151 3426 
Q 2431 3584 2822 3584 
Q 2878 3584 2943 3579 
Q 3009 3575 3134 3559 
L 3138 2547 
z
" transform="scale(0.015625)"/>
        <path id="DejaVuSans-Bold-74" d="M 1759 4494 
L 1759 3500 
L 2913 3500 
L 2913 2700 
L 1759 2700 
L 1759 1216 
Q 1759 972 1856 886 
Q 1953 800 2241 800 
L 2816 800 
L 2816 0 
L 1856 0 
Q 1194 0 917 276 
Q 641 553 641 1216 
L 641 2700 
L 84 2700 
L 84 3500 
L 641 3500 
L 641 4494 
L 1759 4494 
z
" transform="scale(0.015625)"/>
        <path id="DejaVuSans-Bold-76" d="M 97 3500 
L 1216 3500 
L 2088 1081 
L 2956 3500 
L 4078 3500 
L 2700 0 
L 1472 0 
L 97 3500 
z
" transform="scale(0.015625)"/>
       </defs>
       <use xlink:href="#DejaVuSans-Bold-4e"/>
       <use xlink:href="#DejaVuSans-Bold-61" transform="translate(83.691406 0)"/>
       <use xlink:href="#DejaVuSans-Bold-72" transform="translate(151.171875 0)"/>
       <use xlink:href="#DejaVuSans-Bold-72" transform="translate(200.488281 0)"/>
       <use xlink:href="#DejaVuSans-Bold-61" transform="translate(249.804688 0)"/>
       <use xlink:href="#DejaVuSans-Bold-74" transform="translate(317.285156 0)"/>
       <use xlink:href="#DejaVuSans-Bold-69" transform="translate(365.087891 0)"/>
       <use xlink:href="#DejaVuSans-Bold-76" transform="translate(399.365234 0)"/>
       <use xlink:href="#DejaVuSans-Bold-65" transform="translate(464.550781 0)"/>
      </g>
     </g>
    </g>
   </g>
   <g id="matplotlib.axis_2">
    <g id="ytick_1">
     <g id="line2d_6">
      <path d="M 410.657714 376.390296 
C 410.657714 365.79398 408.570471 355.300699 404.515436 345.51098 
C 400.460401 335.72126 394.516435 326.825486 387.023708 319.332759 
C 379.530981 311.840032 370.635208 305.896066 360.845488 301.841031 
C 351.055768 297.785997 340.562488 295.698753 329.966171 295.698753 
C 319.369855 295.698753 308.876574 297.785997 299.086855 301.841031 
C 289.297135 305.896066 280.401361 311.840032 272.908634 319.332759 
C 265.415907 326.825486 259.471941 335.72126 255.416906 345.51098 
C 251.361872 355.300699 249.274628 365.79398 249.274628 376.390296 
C 249.274628 386.986613 251.361872 397.479893 255.416906 407.269613 
C 259.471941 417.059333 265.415907 425.955106 272.908634 433.447833 
C 280.401361 440.94056 289.297135 446.884526 299.086855 450.939561 
C 308.876574 454.994596 319.369855 457.081839 329.966171 457.081839 
C 340.562488 457.081839 351.055768 454.994596 360.845488 450.939561 
C 370.635208 446.884526 379.530981 440.94056 387.023708 433.447833 
C 394.516435 425.955106 400.460401 417.059333 404.515436 407.269613 
C 408.570471 397.479893 410.657714 386.986613 410.657714 376.390296 
" clip-path="url(#pcdb303e137)" style="fill: none; stroke: #b0b0b0; stroke-width: 0.8; stroke-linecap: square"/>
     </g>
     <g id="text_6">
      <!-- 25% -->
      <g transform="translate(404.515436 343.639261) scale(0.09 -0.09)">
       <defs>
        <path id="DejaVuSans-32" d="M 1228 531 
L 3431 531 
L 3431 0 
L 469 0 
L 469 531 
Q 828 903 1448 1529 
Q 2069 2156 2228 2338 
Q 2531 2678 2651 2914 
Q 2772 3150 2772 3378 
Q 2772 3750 2511 3984 
Q 2250 4219 1831 4219 
Q 1534 4219 1204 4116 
Q 875 4013 500 3803 
L 500 4441 
Q 881 4594 1212 4672 
Q 1544 4750 1819 4750 
Q 2544 4750 2975 4387 
Q 3406 4025 3406 3419 
Q 3406 3131 3298 2873 
Q 3191 2616 2906 2266 
Q 2828 2175 2409 1742 
Q 1991 1309 1228 531 
z
" transform="scale(0.015625)"/>
        <path id="DejaVuSans-35" d="M 691 4666 
L 3169 4666 
L 3169 4134 
L 1269 4134 
L 1269 2991 
Q 1406 3038 1543 3061 
Q 1681 3084 1819 3084 
Q 2600 3084 3056 2656 
Q 3513 2228 3513 1497 
Q 3513 744 3044 326 
Q 2575 -91 1722 -91 
Q 1428 -91 1123 -41 
Q 819 9 494 109 
L 494 744 
Q 775 591 1075 516 
Q 1375 441 1709 441 
Q 2250 441 2565 725 
Q 2881 1009 2881 1497 
Q 2881 1984 2565 2268 
Q 2250 2553 1709 2553 
Q 1456 2553 1204 2497 
Q 953 2441 691 2322 
L 691 4666 
z
" transform="scale(0.015625)"/>
        <path id="DejaVuSans-25" d="M 4653 2053 
Q 4381 2053 4226 1822 
Q 4072 1591 4072 1178 
Q 4072 772 4226 539 
Q 4381 306 4653 306 
Q 4919 306 5073 539 
Q 5228 772 5228 1178 
Q 5228 1588 5073 1820 
Q 4919 2053 4653 2053 
z
M 4653 2450 
Q 5147 2450 5437 2106 
Q 5728 1763 5728 1178 
Q 5728 594 5436 251 
Q 5144 -91 4653 -91 
Q 4153 -91 3862 251 
Q 3572 594 3572 1178 
Q 3572 1766 3864 2108 
Q 4156 2450 4653 2450 
z
M 1428 4353 
Q 1159 4353 1004 4120 
Q 850 3888 850 3481 
Q 850 3069 1003 2837 
Q 1156 2606 1428 2606 
Q 1700 2606 1854 2837 
Q 2009 3069 2009 3481 
Q 2009 3884 1853 4118 
Q 1697 4353 1428 4353 
z
M 4250 4750 
L 4750 4750 
L 1831 -91 
L 1331 -91 
L 4250 4750 
z
M 1428 4750 
Q 1922 4750 2215 4408 
Q 2509 4066 2509 3481 
Q 2509 2891 2217 2550 
Q 1925 2209 1428 2209 
Q 931 2209 642 2551 
Q 353 2894 353 3481 
Q 353 4063 643 4406 
Q 934 4750 1428 4750 
z
" transform="scale(0.015625)"/>
       </defs>
       <use xlink:href="#DejaVuSans-32"/>
       <use xlink:href="#DejaVuSans-35" transform="translate(63.623047 0)"/>
       <use xlink:href="#DejaVuSans-25" transform="translate(127.246094 0)"/>
      </g>
     </g>
    </g>
    <g id="ytick_2">
     <g id="line2d_7">
      <path d="M 491.349257 376.390296 
C 491.349257 355.197664 487.17477 334.211103 479.064701 314.631663 
C 470.954632 295.052224 459.0667 277.260676 444.081245 262.275222 
C 429.095791 247.289768 411.304244 235.401836 391.724804 227.291767 
C 372.145365 219.181697 351.158804 215.007211 329.966171 215.007211 
C 308.773539 215.007211 287.786978 219.181697 268.207538 227.291767 
C 248.628099 235.401836 230.836551 247.289768 215.851097 262.275222 
C 200.865643 277.260676 188.977711 295.052224 180.867642 314.631663 
C 172.757572 334.211103 168.583086 355.197664 168.583086 376.390296 
C 168.583086 397.582929 172.757572 418.56949 180.867642 438.148929 
C 188.977711 457.728369 200.865643 475.519916 215.851097 490.50537 
C 230.836551 505.490825 248.628099 517.378757 268.207538 525.488826 
C 287.786978 533.598895 308.773539 537.773382 329.966171 537.773382 
C 351.158804 537.773382 372.145365 533.598895 391.724804 525.488826 
C 411.304244 517.378757 429.095791 505.490825 444.081245 490.50537 
C 459.0667 475.519916 470.954632 457.728369 479.064701 438.148929 
C 487.17477 418.56949 491.349257 397.582929 491.349257 376.390296 
" clip-path="url(#pcdb303e137)" style="fill: none; stroke: #b0b0b0; stroke-width: 0.8; stroke-linecap: square"/>
     </g>
     <g id="text_7">
      <!-- 50% -->
      <g transform="translate(479.064701 312.759944) scale(0.09 -0.09)">
       <defs>
        <path id="DejaVuSans-30" d="M 2034 4250 
Q 1547 4250 1301 3770 
Q 1056 3291 1056 2328 
Q 1056 1369 1301 889 
Q 1547 409 2034 409 
Q 2525 409 2770 889 
Q 3016 1369 3016 2328 
Q 3016 3291 2770 3770 
Q 2525 4250 2034 4250 
z
M 2034 4750 
Q 2819 4750 3233 4129 
Q 3647 3509 3647 2328 
Q 3647 1150 3233 529 
Q 2819 -91 2034 -91 
Q 1250 -91 836 529 
Q 422 1150 422 2328 
Q 422 3509 836 4129 
Q 1250 4750 2034 4750 
z
" transform="scale(0.015625)"/>
       </defs>
       <use xlink:href="#DejaVuSans-35"/>
       <use xlink:href="#DejaVuSans-30" transform="translate(63.623047 0)"/>
       <use xlink:href="#DejaVuSans-25" transform="translate(127.246094 0)"/>
      </g>
     </g>
    </g>
    <g id="ytick_3">
     <g id="line2d_8">
      <path d="M 572.0408 376.390296 
C 572.0408 344.601347 565.77907 313.121506 553.613966 283.752347 
C 541.448862 254.383187 523.616964 227.695866 501.138783 205.217685 
C 478.660601 182.739504 451.97328 164.907606 422.604121 152.742502 
C 393.234962 140.577398 361.75512 134.315668 329.966171 134.315668 
C 298.177222 134.315668 266.697381 140.577398 237.328222 152.742502 
C 207.959062 164.907606 181.271741 182.739504 158.79356 205.217685 
C 136.315379 227.695866 118.483481 254.383187 106.318377 283.752347 
C 94.153273 313.121506 87.891543 344.601347 87.891543 376.390296 
C 87.891543 408.179245 94.153273 439.659087 106.318377 469.028246 
C 118.483481 498.397405 136.315379 525.084726 158.79356 547.562908 
C 181.271741 570.041089 207.959062 587.872987 237.328222 600.038091 
C 266.697381 612.203195 298.177222 618.464925 329.966171 618.464925 
C 361.75512 618.464925 393.234962 612.203195 422.604121 600.038091 
C 451.97328 587.872987 478.660601 570.041089 501.138783 547.562908 
C 523.616964 525.084726 541.448862 498.397405 553.613966 469.028246 
C 565.77907 439.659087 572.0408 408.179245 572.0408 376.390296 
" clip-path="url(#pcdb303e137)" style="fill: none; stroke: #b0b0b0; stroke-width: 0.8; stroke-linecap: square"/>
     </g>
     <g id="text_8">
      <!-- 75% -->
      <g transform="translate(553.613966 281.880628) scale(0.09 -0.09)">
       <defs>
        <path id="DejaVuSans-37" d="M 525 4666 
L 3525 4666 
L 3525 4397 
L 1831 0 
L 1172 0 
L 2766 4134 
L 525 4134 
L 525 4666 
z
" transform="scale(0.015625)"/>
       </defs>
       <use xlink:href="#DejaVuSans-37"/>
       <use xlink:href="#DejaVuSans-35" transform="translate(63.623047 0)"/>
       <use xlink:href="#DejaVuSans-25" transform="translate(127.246094 0)"/>
      </g>
     </g>
    </g>
    <g id="ytick_4">
     <g id="line2d_9">
      <path d="M 652.732342 376.390296 
C 652.732342 334.005031 644.383369 292.031909 628.163231 252.87303 
C 611.943092 213.714151 588.167228 178.131056 558.19632 148.160148 
C 528.225411 118.189239 492.642317 94.413376 453.483437 78.193237 
C 414.324558 61.973098 372.351436 53.624125 329.966171 53.624125 
C 287.580906 53.624125 245.607784 61.973098 206.448905 78.193237 
C 167.290026 94.413376 131.706931 118.189239 101.736023 148.160148 
C 71.765114 178.131056 47.989251 213.714151 31.769112 252.87303 
C 15.548973 292.031909 7.2 334.005031 7.2 376.390296 
C 7.2 418.775561 15.548973 460.748683 31.769112 499.907562 
C 47.989251 539.066442 71.765114 574.649536 101.736023 604.620445 
C 131.706931 634.591353 167.290026 658.367217 206.448905 674.587356 
C 245.607784 690.807494 287.580906 699.156467 329.966171 699.156467 
C 372.351436 699.156467 414.324558 690.807494 453.483437 674.587356 
C 492.642317 658.367217 528.225411 634.591353 558.19632 604.620445 
C 588.167228 574.649536 611.943092 539.066442 628.163231 499.907562 
C 644.383369 460.748683 652.732342 418.775561 652.732342 376.390296 
" clip-path="url(#pcdb303e137)" style="fill: none; stroke: #b0b0b0; stroke-width: 0.8; stroke-linecap: square"/>
     </g>
     <g id="text_9">
      <!-- 100% -->
      <g transform="translate(628.163231 251.001311) scale(0.09 -0.09)">
       <defs>
        <path id="DejaVuSans-31" d="M 794 531 
L 1825 531 
L 1825 4091 
L 703 3866 
L 703 4441 
L 1819 4666 
L 2450 4666 
L 2450 531 
L 3481 531 
L 3481 0 
L 794 0 
L 794 531 
z
" transform="scale(0.015625)"/>
       </defs>
       <use xlink:href="#DejaVuSans-31"/>
       <use xlink:href="#DejaVuSans-30" transform="translate(63.623047 0)"/>
       <use xlink:href="#DejaVuSans-30" transform="translate(127.246094 0)"/>
       <use xlink:href="#DejaVuSans-25" transform="translate(190.869141 0)"/>
      </g>
     </g>
    </g>
   </g>
   <g id="line2d_10">
    <path d="M 329.966171 376.390296 
L 329.966171 376.390296 
L 329.966171 376.390296 
L 329.966171 376.390296 
L 329.966171 376.390296 
L 329.966171 376.390296 
" clip-path="url(#pcdb303e137)" style="fill: none; stroke: #cccccc; stroke-opacity: 0.5; stroke-width: 2; stroke-linecap: square"/>
    <defs>
     <path id="m0f41623e43" d="M 0 3 
C 0.795609 3 1.55874 2.683901 2.12132 2.12132 
C 2.683901 1.55874 3 0.795609 3 0 
C 3 -0.795609 2.683901 -1.55874 2.12132 -2.12132 
C 1.55874 -2.683901 0.795609 -3 0 -3 
C -0.795609 -3 -1.55874 -2.683901 -2.12132 -2.12132 
C -2.683901 -1.55874 -3 -0.795609 -3 0 
C -3 0.795609 -2.683901 1.55874 -2.12132 2.12132 
C -1.55874 2.683901 -0.795609 3 0 3 
z
" style="stroke: #cccccc; stroke-opacity: 0.5"/>
    </defs>
    <g clip-path="url(#pcdb303e137)">
     <use xlink:href="#m0f41623e43" x="329.966171" y="376.390296" style="fill: #cccccc; fill-opacity: 0.5; stroke: #cccccc; stroke-opacity: 0.5"/>
     <use xlink:href="#m0f41623e43" x="329.966171" y="376.390296" style="fill: #cccccc; fill-opacity: 0.5; stroke: #cccccc; stroke-opacity: 0.5"/>
     <use xlink:href="#m0f41623e43" x="329.966171" y="376.390296" style="fill: #cccccc; fill-opacity: 0.5; stroke: #cccccc; stroke-opacity: 0.5"/>
     <use xlink:href="#m0f41623e43" x="329.966171" y="376.390296" style="fill: #cccccc; fill-opacity: 0.5; stroke: #cccccc; stroke-opacity: 0.5"/>
     <use xlink:href="#m0f41623e43" x="329.966171" y="376.390296" style="fill: #cccccc; fill-opacity: 0.5; stroke: #cccccc; stroke-opacity: 0.5"/>
     <use xlink:href="#m0f41623e43" x="329.966171" y="376.390296" style="fill: #cccccc; fill-opacity: 0.5; stroke: #cccccc; stroke-opacity: 0.5"/>
    </g>
   </g>
   <g id="line2d_11">
    <path d="M 410.657714 376.390296 
L 410.495256 371.272522 
L 410.008535 366.175356 
L 409.199513 361.119321 
L 408.071445 356.124778 
L 406.628875 351.211836 
L 404.877612 346.400279 
L 402.824707 341.709482 
L 400.478426 337.158331 
L 397.848217 332.765155 
L 394.944671 328.547641 
L 391.779479 324.522772 
L 388.365387 320.706756 
L 384.716142 317.114958 
L 380.846439 313.761841 
L 376.771858 310.660906 
L 372.508808 307.82464 
L 368.074453 305.264464 
L 363.48665 302.990687 
L 358.763871 301.012464 
L 353.925134 299.337761 
L 348.989923 297.973321 
L 343.978111 296.924639 
L 338.909877 296.195937 
L 333.805629 295.79015 
L 328.685922 295.70891 
L 323.57137 295.952546 
L 318.482567 296.520077 
L 313.440005 297.409217 
L 308.463988 298.616385 
L 303.574553 300.136722 
L 298.791387 301.964105 
L 294.133751 304.091176 
L 289.6204 306.50937 
L 285.269507 309.20895 
L 281.098591 312.179046 
L 277.124448 315.407697 
L 273.36308 318.881904 
L 269.829633 322.587677 
L 266.538334 326.510094 
L 263.502437 330.633361 
L 260.734166 334.940875 
L 258.244668 339.415291 
L 256.043966 344.038593 
L 254.140924 348.792163 
L 252.543203 353.656862 
L 251.257237 358.613099 
L 250.288204 363.64092 
L 249.640006 368.720077 
L 249.315253 373.83012 
L 249.315253 378.950472 
L 249.640006 384.060515 
L 250.288204 389.139673 
L 251.257237 394.167493 
L 252.543203 399.123731 
L 254.140924 403.988429 
L 256.043966 408.742 
L 258.244668 413.365301 
L 260.734166 417.839717 
L 263.502437 422.147232 
L 266.538334 426.270499 
L 269.829633 430.192916 
L 273.36308 433.898688 
L 277.124448 437.372895 
L 281.098591 440.601547 
L 285.269507 443.571642 
L 289.6204 446.271222 
L 294.133751 448.689416 
L 298.791387 450.816487 
L 303.574553 452.64387 
L 308.463988 454.164207 
L 313.440005 455.371376 
L 318.482567 456.260515 
L 323.57137 456.828046 
L 328.685922 457.071682 
L 333.805629 456.990443 
L 338.909877 456.584655 
L 343.978111 455.855953 
L 348.989923 454.807271 
L 353.925134 453.442831 
L 358.763871 451.768128 
L 363.48665 449.789905 
L 368.074453 447.516128 
L 372.508808 444.955952 
L 376.771858 442.119687 
L 380.846439 439.018752 
L 384.716142 435.665635 
L 388.365387 432.073836 
L 391.779479 428.25782 
L 394.944671 424.232952 
L 397.848217 420.015438 
L 400.478426 415.622261 
L 402.824707 411.071111 
L 404.877612 406.380313 
L 406.628875 401.568756 
L 408.071445 396.655815 
L 409.199513 391.661271 
L 410.008535 386.605237 
L 410.495256 381.50807 
L 410.657714 376.390296 
" clip-path="url(#pcdb303e137)" style="fill: none; stroke-dasharray: 1.85,0.8; stroke-dashoffset: 0; stroke: #dddddd; stroke-width: 0.5"/>
   </g>
   <g id="line2d_12">
    <path d="M 491.349257 376.390296 
L 491.02434 366.154748 
L 490.0509 355.960415 
L 488.432854 345.848346 
L 486.176719 335.859259 
L 483.29158 326.033376 
L 479.789053 316.410262 
L 475.683242 307.028667 
L 470.99068 297.926367 
L 465.730262 289.140013 
L 459.92317 280.704985 
L 453.592787 272.655248 
L 446.764603 265.023216 
L 439.466114 257.83962 
L 431.726706 251.133385 
L 423.577545 244.931516 
L 415.051444 239.258984 
L 406.182735 234.138633 
L 397.007128 229.591078 
L 387.561571 225.634632 
L 377.884098 222.285226 
L 368.013676 219.556347 
L 357.99005 217.458982 
L 347.853582 216.001578 
L 337.645088 215.190003 
L 327.405673 215.027524 
L 317.176569 215.514797 
L 306.998963 216.649858 
L 296.913839 218.428137 
L 286.961805 220.842475 
L 277.182934 223.883148 
L 267.616603 227.537914 
L 258.301331 231.792056 
L 249.274628 236.628444 
L 240.572842 242.027604 
L 232.231011 247.967795 
L 224.282725 254.425098 
L 216.759989 261.373512 
L 209.693095 268.785058 
L 203.110497 276.629892 
L 197.038703 284.876426 
L 191.502161 293.491454 
L 186.523164 302.440286 
L 182.121762 311.686889 
L 178.315677 321.19403 
L 175.120235 330.923427 
L 172.548302 340.835903 
L 170.610237 350.891543 
L 169.313841 361.049859 
L 168.664335 371.269944 
L 168.664335 381.510648 
L 169.313841 391.730734 
L 170.610237 401.889049 
L 172.548302 411.94469 
L 175.120235 421.857166 
L 178.315677 431.586562 
L 182.121762 441.093703 
L 186.523164 450.340306 
L 191.502161 459.289139 
L 197.038703 467.904167 
L 203.110497 476.150701 
L 209.693095 483.995535 
L 216.759989 491.407081 
L 224.282725 498.355494 
L 232.231011 504.812797 
L 240.572842 510.752988 
L 249.274628 516.152148 
L 258.301331 520.988536 
L 267.616603 525.242678 
L 277.182934 528.897444 
L 286.961805 531.938118 
L 296.913839 534.352455 
L 306.998963 536.130735 
L 317.176569 537.265796 
L 327.405673 537.753068 
L 337.645088 537.59059 
L 347.853582 536.779014 
L 357.99005 535.32161 
L 368.013676 533.224246 
L 377.884098 530.495366 
L 387.561571 527.14596 
L 397.007128 523.189514 
L 406.182735 518.64196 
L 415.051444 513.521608 
L 423.577545 507.849077 
L 431.726706 501.647208 
L 439.466114 494.940973 
L 446.764603 487.757376 
L 453.592787 480.125344 
L 459.92317 472.075607 
L 465.730262 463.64058 
L 470.99068 454.854226 
L 475.683242 445.751925 
L 479.789053 436.37033 
L 483.29158 426.747217 
L 486.176719 416.921333 
L 488.432854 406.932246 
L 490.0509 396.820177 
L 491.02434 386.625844 
L 491.349257 376.390296 
" clip-path="url(#pcdb303e137)" style="fill: none; stroke-dasharray: 1.85,0.8; stroke-dashoffset: 0; stroke: #dddddd; stroke-width: 0.5"/>
   </g>
   <g id="line2d_13">
    <path d="M 572.0408 376.390296 
L 571.553425 361.036974 
L 570.093264 345.745475 
L 567.666196 330.577372 
L 564.281993 315.593741 
L 559.954284 300.854916 
L 554.700494 286.420245 
L 548.541777 272.347853 
L 541.502934 258.694402 
L 533.612308 245.514871 
L 524.90167 232.86233 
L 515.406095 220.787724 
L 505.16382 209.339676 
L 494.216085 198.564281 
L 482.606974 188.504929 
L 470.383232 179.202125 
L 457.59408 170.693329 
L 444.291016 163.012801 
L 430.527606 156.191469 
L 416.359271 150.2568 
L 401.843061 145.232691 
L 387.037428 141.139372 
L 372.001989 137.993325 
L 356.797287 135.807219 
L 341.484546 134.589856 
L 326.125424 134.346138 
L 310.781767 135.077047 
L 295.51536 136.779638 
L 280.387673 139.447058 
L 265.459622 143.068564 
L 250.791316 147.629574 
L 236.441818 153.111723 
L 222.468911 159.492936 
L 208.928857 166.747518 
L 195.876178 174.846258 
L 183.363431 183.756544 
L 171.441002 193.442499 
L 160.156898 203.86512 
L 149.556556 214.982438 
L 139.68266 226.749689 
L 130.574969 239.11949 
L 122.270155 252.042033 
L 114.80166 265.465281 
L 108.199557 279.335186 
L 102.490429 293.595897 
L 97.697266 308.189992 
L 93.839368 323.058706 
L 90.932269 338.142167 
L 88.987675 353.37964 
L 88.013417 368.709769 
L 88.013417 384.070824 
L 88.987675 399.400953 
L 90.932269 414.638425 
L 93.839368 429.721887 
L 97.697266 444.5906 
L 102.490429 459.184695 
L 108.199557 473.445407 
L 114.80166 487.315311 
L 122.270155 500.73856 
L 130.574969 513.661102 
L 139.68266 526.030903 
L 149.556556 537.798154 
L 160.156898 548.915473 
L 171.441002 559.338094 
L 183.363431 569.024048 
L 195.876178 577.934334 
L 208.928857 586.033074 
L 222.468911 593.287656 
L 236.441818 599.668869 
L 250.791316 605.151018 
L 265.459622 609.712029 
L 280.387673 613.333535 
L 295.51536 616.000954 
L 310.781767 617.703546 
L 326.125424 618.434454 
L 341.484546 618.190736 
L 356.797287 616.973373 
L 372.001989 614.787267 
L 387.037428 611.641221 
L 401.843061 607.547902 
L 416.359271 602.523792 
L 430.527606 596.589124 
L 444.291016 589.767792 
L 457.59408 582.087264 
L 470.383232 573.578467 
L 482.606974 564.275663 
L 494.216085 554.216311 
L 505.16382 543.440917 
L 515.406095 531.992868 
L 524.90167 519.918263 
L 533.612308 507.265721 
L 541.502934 494.08619 
L 548.541777 480.43274 
L 554.700494 466.360347 
L 559.954284 451.925677 
L 564.281993 437.186852 
L 567.666196 422.203221 
L 570.093264 407.035117 
L 571.553425 391.743618 
L 572.0408 376.390296 
" clip-path="url(#pcdb303e137)" style="fill: none; stroke-dasharray: 1.85,0.8; stroke-dashoffset: 0; stroke: #dddddd; stroke-width: 0.5"/>
   </g>
   <g id="line2d_14">
    <path d="M 652.732342 376.390296 
L 652.08251 355.919201 
L 650.135628 335.530535 
L 646.899537 315.306397 
L 642.387268 295.328222 
L 636.616988 275.676456 
L 629.611934 256.430228 
L 621.400313 237.667038 
L 612.015189 219.462437 
L 601.494353 201.88973 
L 589.880169 185.019674 
L 577.219403 168.920201 
L 563.563036 153.656136 
L 548.966056 139.288943 
L 533.487241 125.876474 
L 517.188919 113.472735 
L 500.136717 102.127673 
L 482.399298 91.886969 
L 464.048084 82.79186 
L 445.156971 74.878968 
L 425.802024 68.180156 
L 406.06118 62.722397 
L 386.013929 58.527668 
L 365.740993 55.61286 
L 345.324004 53.98971 
L 324.845175 53.664752 
L 304.386966 54.639297 
L 284.031756 56.909419 
L 263.861507 60.465978 
L 243.957439 65.294653 
L 224.399697 71.376 
L 205.267034 78.685532 
L 186.636491 87.193816 
L 168.583086 96.866592 
L 151.179513 107.664912 
L 134.495851 119.545294 
L 118.599279 132.4599 
L 103.553808 146.356727 
L 89.420018 161.179819 
L 76.254823 176.869487 
L 64.111235 193.362555 
L 53.03815 210.592611 
L 43.080157 228.490276 
L 34.277352 246.983482 
L 26.665182 265.997764 
L 20.274298 285.456558 
L 15.130434 305.281509 
L 11.254302 325.392791 
L 8.66151 345.709421 
L 7.362499 366.149593 
L 7.362499 386.631 
L 8.66151 407.071171 
L 11.254302 427.387802 
L 15.130434 447.499083 
L 20.274298 467.324035 
L 26.665182 486.782828 
L 34.277352 505.79711 
L 43.080157 524.290316 
L 53.03815 542.187981 
L 64.111235 559.418037 
L 76.254823 575.911105 
L 89.420018 591.600774 
L 103.553808 606.423865 
L 118.599279 620.320693 
L 134.495851 633.235299 
L 151.179513 645.11568 
L 168.583086 655.914 
L 186.636491 665.586776 
L 205.267034 674.09506 
L 224.399697 681.404592 
L 243.957439 687.485939 
L 263.861507 692.314614 
L 284.031756 695.871173 
L 304.386966 698.141296 
L 324.845175 699.11584 
L 345.324004 698.790883 
L 365.740993 697.167732 
L 386.013929 694.252924 
L 406.06118 690.058195 
L 425.802024 684.600437 
L 445.156971 677.901624 
L 464.048084 669.988733 
L 482.399298 660.893623 
L 500.136717 650.65292 
L 517.188919 639.307857 
L 533.487241 626.904119 
L 548.966056 613.491649 
L 563.563036 599.124457 
L 577.219403 583.860392 
L 589.880169 567.760918 
L 601.494353 550.890863 
L 612.015189 533.318155 
L 621.400313 515.113554 
L 629.611934 496.350364 
L 636.616988 477.104137 
L 642.387268 457.45237 
L 646.899537 437.474196 
L 650.135628 417.250058 
L 652.08251 396.861392 
L 652.732342 376.390296 
" clip-path="url(#pcdb303e137)" style="fill: none; stroke-dasharray: 1.85,0.8; stroke-dashoffset: 0; stroke: #dddddd; stroke-width: 0.5"/>
   </g>
   <g id="patch_4">
    <path d="M 652.732342 376.390296 
C 652.732342 334.005031 644.383369 292.031909 628.163231 252.87303 
C 611.943092 213.714151 588.167228 178.131056 558.19632 148.160148 
C 528.225411 118.189239 492.642317 94.413376 453.483437 78.193237 
C 414.324558 61.973098 372.351436 53.624125 329.966171 53.624125 
C 287.580906 53.624125 245.607784 61.973098 206.448905 78.193237 
C 167.290026 94.413376 131.706931 118.189239 101.736023 148.160148 
C 71.765114 178.131056 47.989251 213.714151 31.769112 252.87303 
C 15.548973 292.031909 7.2 334.005031 7.2 376.390296 
C 7.2 418.775561 15.548973 460.748683 31.769112 499.907562 
C 47.989251 539.066442 71.765114 574.649536 101.736023 604.620445 
C 131.706931 634.591353 167.290026 658.367217 206.448905 674.587356 
C 245.607784 690.807494 287.580906 699.156467 329.966171 699.156467 
C 372.351436 699.156467 414.324558 690.807494 453.483437 674.587356 
C 492.642317 658.367217 528.225411 634.591353 558.19632 604.620445 
C 588.167228 574.649536 611.943092 539.066442 628.163231 499.907562 
C 644.383369 460.748683 652.732342 418.775561 652.732342 376.390296 
" style="fill: none; stroke: #000000; stroke-width: 0.8; stroke-linejoin: miter; stroke-linecap: square"/>
   </g>
   <g id="text_10">
    <!-- PLACEHOLDER -->
    <g style="fill: #999999; opacity: 0.5" transform="translate(248.280234 370.711234) scale(0.2 -0.2)">
     <defs>
      <path id="DejaVuSans-Bold-50" d="M 588 4666 
L 2584 4666 
Q 3475 4666 3951 4270 
Q 4428 3875 4428 3144 
Q 4428 2409 3951 2014 
Q 3475 1619 2584 1619 
L 1791 1619 
L 1791 0 
L 588 0 
L 588 4666 
z
M 1791 3794 
L 1791 2491 
L 2456 2491 
Q 2806 2491 2997 2661 
Q 3188 2831 3188 3144 
Q 3188 3456 2997 3625 
Q 2806 3794 2456 3794 
L 1791 3794 
z
" transform="scale(0.015625)"/>
      <path id="DejaVuSans-Bold-4c" d="M 588 4666 
L 1791 4666 
L 1791 909 
L 3903 909 
L 3903 0 
L 588 0 
L 588 4666 
z
" transform="scale(0.015625)"/>
      <path id="DejaVuSans-Bold-41" d="M 3419 850 
L 1538 850 
L 1241 0 
L 31 0 
L 1759 4666 
L 3194 4666 
L 4922 0 
L 3713 0 
L 3419 850 
z
M 1838 1716 
L 3116 1716 
L 2478 3572 
L 1838 1716 
z
" transform="scale(0.015625)"/>
      <path id="DejaVuSans-Bold-43" d="M 4288 256 
Q 3956 84 3597 -3 
Q 3238 -91 2847 -91 
Q 1681 -91 1000 561 
Q 319 1213 319 2328 
Q 319 3447 1000 4098 
Q 1681 4750 2847 4750 
Q 3238 4750 3597 4662 
Q 3956 4575 4288 4403 
L 4288 3438 
Q 3953 3666 3628 3772 
Q 3303 3878 2944 3878 
Q 2300 3878 1931 3465 
Q 1563 3053 1563 2328 
Q 1563 1606 1931 1193 
Q 2300 781 2944 781 
Q 3303 781 3628 887 
Q 3953 994 4288 1222 
L 4288 256 
z
" transform="scale(0.015625)"/>
      <path id="DejaVuSans-Bold-45" d="M 588 4666 
L 3834 4666 
L 3834 3756 
L 1791 3756 
L 1791 2888 
L 3713 2888 
L 3713 1978 
L 1791 1978 
L 1791 909 
L 3903 909 
L 3903 0 
L 588 0 
L 588 4666 
z
" transform="scale(0.015625)"/>
      <path id="DejaVuSans-Bold-48" d="M 588 4666 
L 1791 4666 
L 1791 2888 
L 3566 2888 
L 3566 4666 
L 4769 4666 
L 4769 0 
L 3566 0 
L 3566 1978 
L 1791 1978 
L 1791 0 
L 588 0 
L 588 4666 
z
" transform="scale(0.015625)"/>
      <path id="DejaVuSans-Bold-4f" d="M 2719 3878 
Q 2169 3878 1866 3472 
Q 1563 3066 1563 2328 
Q 1563 1594 1866 1187 
Q 2169 781 2719 781 
Q 3272 781 3575 1187 
Q 3878 1594 3878 2328 
Q 3878 3066 3575 3472 
Q 3272 3878 2719 3878 
z
M 2719 4750 
Q 3844 4750 4481 4106 
Q 5119 3463 5119 2328 
Q 5119 1197 4481 553 
Q 3844 -91 2719 -91 
Q 1597 -91 958 553 
Q 319 1197 319 2328 
Q 319 3463 958 4106 
Q 1597 4750 2719 4750 
z
" transform="scale(0.015625)"/>
      <path id="DejaVuSans-Bold-44" d="M 1791 3756 
L 1791 909 
L 2222 909 
Q 2959 909 3348 1275 
Q 3738 1641 3738 2338 
Q 3738 3031 3350 3393 
Q 2963 3756 2222 3756 
L 1791 3756 
z
M 588 4666 
L 1856 4666 
Q 2919 4666 3439 4514 
Q 3959 4363 4331 4000 
Q 4659 3684 4818 3271 
Q 4978 2859 4978 2338 
Q 4978 1809 4818 1395 
Q 4659 981 4331 666 
Q 3956 303 3431 151 
Q 2906 0 1856 0 
L 588 0 
L 588 4666 
z
" transform="scale(0.015625)"/>
     </defs>
     <use xlink:href="#DejaVuSans-Bold-50"/>
     <use xlink:href="#DejaVuSans-Bold-4c" transform="translate(73.291016 0)"/>
     <use xlink:href="#DejaVuSans-Bold-41" transform="translate(137.011719 0)"/>
     <use xlink:href="#DejaVuSans-Bold-43" transform="translate(214.404297 0)"/>
     <use xlink:href="#DejaVuSans-Bold-45" transform="translate(287.792969 0)"/>
     <use xlink:href="#DejaVuSans-Bold-48" transform="translate(356.103516 0)"/>
     <use xlink:href="#DejaVuSans-Bold-4f" transform="translate(439.794922 0)"/>
     <use xlink:href="#DejaVuSans-Bold-4c" transform="translate(524.804688 0)"/>
     <use xlink:href="#DejaVuSans-Bold-44" transform="translate(588.525391 0)"/>
     <use xlink:href="#DejaVuSans-Bold-45" transform="translate(671.533203 0)"/>
     <use xlink:href="#DejaVuSans-Bold-52" transform="translate(739.84375 0)"/>
    </g>
    <!-- No Data Yet -->
    <g style="fill: #999999; opacity: 0.5" transform="translate(263.295859 393.106859) scale(0.2 -0.2)">
     <defs>
      <path id="DejaVuSans-Bold-20" transform="scale(0.015625)"/>
      <path id="DejaVuSans-Bold-59" d="M -63 4666 
L 1253 4666 
L 2316 3003 
L 3378 4666 
L 4697 4666 
L 2919 1966 
L 2919 0 
L 1716 0 
L 1716 1966 
L -63 4666 
z
" transform="scale(0.015625)"/>
     </defs>
     <use xlink:href="#DejaVuSans-Bold-4e"/>
     <use xlink:href="#DejaVuSans-Bold-6f" transform="translate(83.691406 0)"/>
     <use xlink:href="#DejaVuSans-Bold-20" transform="translate(152.392578 0)"/>
     <use xlink:href="#DejaVuSans-Bold-44" transform="translate(187.207031 0)"/>
     <use xlink:href="#DejaVuSans-Bold-61" transform="translate(270.214844 0)"/>
     <use xlink:href="#DejaVuSans-Bold-74" transform="translate(337.695312 0)"/>
     <use xlink:href="#DejaVuSans-Bold-61" transform="translate(385.498047 0)"/>
     <use xlink:href="#DejaVuSans-Bold-20" transform="translate(452.978516 0)"/>
     <use xlink:href="#DejaVuSans-Bold-59" transform="translate(487.792969 0)"/>
     <use xlink:href="#DejaVuSans-Bold-65" transform="translate(551.080078 0)"/>
     <use xlink:href="#DejaVuSans-Bold-74" transform="translate(618.902344 0)"/>
    </g>
   </g>
   <g id="text_11">
    <!-- Nyquist Pillar Radar -->
    <g transform="translate(250.960234 17.837812) scale(0.14 -0.14)">
     <defs>
      <path id="DejaVuSans-Bold-79" d="M 78 3500 
L 1197 3500 
L 2138 1125 
L 2938 3500 
L 4056 3500 
L 2584 -331 
Q 2363 -916 2067 -1148 
Q 1772 -1381 1288 -1381 
L 641 -1381 
L 641 -647 
L 991 -647 
Q 1275 -647 1404 -556 
Q 1534 -466 1606 -231 
L 1638 -134 
L 78 3500 
z
" transform="scale(0.015625)"/>
      <path id="DejaVuSans-Bold-71" d="M 2181 2772 
Q 1825 2772 1636 2509 
Q 1447 2247 1447 1747 
Q 1447 1247 1636 984 
Q 1825 722 2181 722 
Q 2541 722 2730 984 
Q 2919 1247 2919 1747 
Q 2919 2247 2730 2509 
Q 2541 2772 2181 2772 
z
M 2919 506 
Q 2688 197 2409 53 
Q 2131 -91 1766 -91 
Q 1119 -91 703 423 
Q 288 938 288 1747 
Q 288 2556 703 3067 
Q 1119 3578 1766 3578 
Q 2131 3578 2409 3434 
Q 2688 3291 2919 2981 
L 2919 3500 
L 4044 3500 
L 4044 -1331 
L 2919 -1331 
L 2919 506 
z
" transform="scale(0.015625)"/>
     </defs>
     <use xlink:href="#DejaVuSans-Bold-4e"/>
     <use xlink:href="#DejaVuSans-Bold-79" transform="translate(83.691406 0)"/>
     <use xlink:href="#DejaVuSans-Bold-71" transform="translate(148.876953 0)"/>
     <use xlink:href="#DejaVuSans-Bold-75" transform="translate(220.458984 0)"/>
     <use xlink:href="#DejaVuSans-Bold-69" transform="translate(291.650391 0)"/>
     <use xlink:href="#DejaVuSans-Bold-73" transform="translate(325.927734 0)"/>
     <use xlink:href="#DejaVuSans-Bold-74" transform="translate(385.449219 0)"/>
     <use xlink:href="#DejaVuSans-Bold-20" transform="translate(433.251953 0)"/>
     <use xlink:href="#DejaVuSans-Bold-50" transform="translate(468.066406 0)"/>
     <use xlink:href="#DejaVuSans-Bold-69" transform="translate(541.357422 0)"/>
     <use xlink:href="#DejaVuSans-Bold-6c" transform="translate(575.634766 0)"/>
     <use xlink:href="#DejaVuSans-Bold-6c" transform="translate(609.912109 0)"/>
     <use xlink:href="#DejaVuSans-Bold-61" transform="translate(644.189453 0)"/>
     <use xlink:href="#DejaVuSans-Bold-72" transform="translate(711.669922 0)"/>
     <use xlink:href="#DejaVuSans-Bold-20" transform="translate(760.986328 0)"/>
     <use xlink:href="#DejaVuSans-Bold-52" transform="translate(795.800781 0)"/>
     <use xlink:href="#DejaVuSans-Bold-61" transform="translate(872.802734 0)"/>
     <use xlink:href="#DejaVuSans-Bold-64" transform="translate(940.283203 0)"/>
     <use xlink:href="#DejaVuSans-Bold-61" transform="translate(1011.865234 0)"/>
     <use xlink:href="#DejaVuSans-Bold-72" transform="translate(1079.345703 0)"/>
    </g>
    <!-- (PLACEHOLDER - Awaiting Run 010 v2 Data) -->
    <g transform="translate(156.108046 33.624125) scale(0.14 -0.14)">
     <defs>
      <path id="DejaVuSans-Bold-28" d="M 2413 -844 
L 1484 -844 
Q 1006 -72 778 623 
Q 550 1319 550 2003 
Q 550 2688 779 3389 
Q 1009 4091 1484 4856 
L 2413 4856 
Q 2013 4116 1813 3408 
Q 1613 2700 1613 2009 
Q 1613 1319 1811 609 
Q 2009 -100 2413 -844 
z
" transform="scale(0.015625)"/>
      <path id="DejaVuSans-Bold-77" d="M 225 3500 
L 1313 3500 
L 1900 1088 
L 2491 3500 
L 3425 3500 
L 4013 1113 
L 4603 3500 
L 5691 3500 
L 4769 0 
L 3547 0 
L 2956 2406 
L 2369 0 
L 1147 0 
L 225 3500 
z
" transform="scale(0.015625)"/>
      <path id="DejaVuSans-Bold-30" d="M 2944 2338 
Q 2944 3213 2780 3570 
Q 2616 3928 2228 3928 
Q 1841 3928 1675 3570 
Q 1509 3213 1509 2338 
Q 1509 1453 1675 1090 
Q 1841 728 2228 728 
Q 2613 728 2778 1090 
Q 2944 1453 2944 2338 
z
M 4147 2328 
Q 4147 1169 3647 539 
Q 3147 -91 2228 -91 
Q 1306 -91 806 539 
Q 306 1169 306 2328 
Q 306 3491 806 4120 
Q 1306 4750 2228 4750 
Q 3147 4750 3647 4120 
Q 4147 3491 4147 2328 
z
" transform="scale(0.015625)"/>
      <path id="DejaVuSans-Bold-31" d="M 750 831 
L 1813 831 
L 1813 3847 
L 722 3622 
L 722 4441 
L 1806 4666 
L 2950 4666 
L 2950 831 
L 4013 831 
L 4013 0 
L 750 0 
L 750 831 
z
" transform="scale(0.015625)"/>
      <path id="DejaVuSans-Bold-32" d="M 1844 884 
L 3897 884 
L 3897 0 
L 506 0 
L 506 884 
L 2209 2388 
Q 2438 2594 2547 2791 
Q 2656 2988 2656 3200 
Q 2656 3528 2436 3728 
Q 2216 3928 1850 3928 
Q 1569 3928 1234 3808 
Q 900 3688 519 3450 
L 519 4475 
Q 925 4609 1322 4679 
Q 1719 4750 2100 4750 
Q 2938 4750 3402 4381 
Q 3866 4013 3866 3353 
Q 3866 2972 3669 2642 
Q 3472 2313 2841 1759 
L 1844 884 
z
" transform="scale(0.015625)"/>
      <path id="DejaVuSans-Bold-29" d="M 513 -844 
Q 913 -100 1113 609 
Q 1313 1319 1313 2009 
Q 1313 2700 1113 3408 
Q 913 4116 513 4856 
L 1441 4856 
Q 1916 4091 2145 3389 
Q 2375 2688 2375 2003 
Q 2375 1319 2147 623 
Q 1919 -72 1441 -844 
L 513 -844 
z
" transform="scale(0.015625)"/>
     </defs>
     <use xlink:href="#DejaVuSans-Bold-28"/>
     <use xlink:href="#DejaVuSans-Bold-50" transform="translate(45.703125 0)"/>
     <use xlink:href="#DejaVuSans-Bold-4c" transform="translate(118.994141 0)"/>
     <use xlink:href="#DejaVuSans-Bold-41" transform="translate(182.714844 0)"/>
     <use xlink:href="#DejaVuSans-Bold-43" transform="translate(260.107422 0)"/>
     <use xlink:href="#DejaVuSans-Bold-45" transform="translate(333.496094 0)"/>
     <use xlink:href="#DejaVuSans-Bold-48" transform="translate(401.806641 0)"/>
     <use xlink:href="#DejaVuSans-Bold-4f" transform="translate(485.498047 0)"/>
     <use xlink:href="#DejaVuSans-Bold-4c" transform="translate(570.507812 0)"/>
     <use xlink:href="#DejaVuSans-Bold-44" transform="translate(634.228516 0)"/>
     <use xlink:href="#DejaVuSans-Bold-45" transform="translate(717.236328 0)"/>
     <use xlink:href="#DejaVuSans-Bold-52" transform="translate(785.546875 0)"/>
     <use xlink:href="#DejaVuSans-Bold-20" transform="translate(862.548828 0)"/>
     <use xlink:href="#DejaVuSans-Bold-2d" transform="translate(897.363281 0)"/>
     <use xlink:href="#DejaVuSans-Bold-20" transform="translate(938.867188 0)"/>
     <use xlink:href="#DejaVuSans-Bold-41" transform="translate(973.681641 0)"/>
     <use xlink:href="#DejaVuSans-Bold-77" transform="translate(1051.074219 0)"/>
     <use xlink:href="#DejaVuSans-Bold-61" transform="translate(1143.457031 0)"/>
     <use xlink:href="#DejaVuSans-Bold-69" transform="translate(1210.9375 0)"/>
     <use xlink:href="#DejaVuSans-Bold-74" transform="translate(1245.214844 0)"/>
     <use xlink:href="#DejaVuSans-Bold-69" transform="translate(1293.017578 0)"/>
     <use xlink:href="#DejaVuSans-Bold-6e" transform="translate(1327.294922 0)"/>
     <use xlink:href="#DejaVuSans-Bold-67" transform="translate(1398.486328 0)"/>
     <use xlink:href="#DejaVuSans-Bold-20" transform="translate(1470.068359 0)"/>
     <use xlink:href="#DejaVuSans-Bold-52" transform="translate(1504.882812 0)"/>
     <use xlink:href="#DejaVuSans-Bold-75" transform="translate(1581.884766 0)"/>
     <use xlink:href="#DejaVuSans-Bold-6e" transform="translate(1653.076172 0)"/>
     <use xlink:href="#DejaVuSans-Bold-20" transform="translate(1724.267578 0)"/>
     <use xlink:href="#DejaVuSans-Bold-30" transform="translate(1759.082031 0)"/>
     <use xlink:href="#DejaVuSans-Bold-31" transform="translate(1828.662109 0)"/>
     <use xlink:href="#DejaVuSans-Bold-30" transform="translate(1898.242188 0)"/>
     <use xlink:href="#DejaVuSans-Bold-20" transform="translate(1967.822266 0)"/>
     <use xlink:href="#DejaVuSans-Bold-76" transform="translate(2002.636719 0)"/>
     <use xlink:href="#DejaVuSans-Bold-32" transform="translate(2067.822266 0)"/>
     <use xlink:href="#DejaVuSans-Bold-20" transform="translate(2137.402344 0)"/>
     <use xlink:href="#DejaVuSans-Bold-44" transform="translate(2172.216797 0)"/>
     <use xlink:href="#DejaVuSans-Bold-61" transform="translate(2255.224609 0)"/>
     <use xlink:href="#DejaVuSans-Bold-74" transform="translate(2322.705078 0)"/>
     <use xlink:href="#DejaVuSans-Bold-61" transform="translate(2370.507812 0)"/>
     <use xlink:href="#DejaVuSans-Bold-29" transform="translate(2437.988281 0)"/>
    </g>
   </g>
  </g>
 </g>
 <defs>
  <clipPath id="pcdb303e137">
   <path d="M 652.732342 376.390296 
C 652.732342 334.005031 644.383369 292.031909 628.163231 252.87303 
C 611.943092 213.714151 588.167228 178.131056 558.19632 148.160148 
C 528.225411 118.189239 492.642317 94.413376 453.483437 78.193237 
C 414.324558 61.973098 372.351436 53.624125 329.966171 53.624125 
C 287.580906 53.624125 245.607784 61.973098 206.448905 78.193237 
C 167.290026 94.413376 131.706931 118.189239 101.736023 148.160148 
C 71.765114 178.131056 47.989251 213.714151 31.769112 252.87303 
C 15.548973 292.031909 7.2 334.005031 7.2 376.390296 
C 7.2 418.775561 15.548973 460.748683 31.769112 499.907562 
C 47.989251 539.066442 71.765114 574.649536 101.736023 604.620445 
C 131.706931 634.591353 167.290026 658.367217 206.448905 674.587356 
C 245.607784 690.807494 287.580906 699.156467 329.966171 699.156467 
C 372.351436 699.156467 414.324558 690.807494 453.483437 674.587356 
C 492.642317 658.367217 528.225411 634.591353 558.19632 604.620445 
C 588.167228 574.649536 611.943092 539.066442 628.163231 499.907562 
C 644.383369 460.748683 652.732342 418.775561 652.732342 376.390296 
M 329.966171 376.390296 
C 329.966171 376.390296 329.966171 376.390296 329.966171 376.390296 
C 329.966171 376.390296 329.966171 376.390296 329.966171 376.390296 
C 329.966171 376.390296 329.966171 376.390296 329.966171 376.390296 
C 329.966171 376.390296 329.966171 376.390296 329.966171 376.390296 
C 329.966171 376.390296 329.966171 376.390296 329.966171 376.390296 
C 329.966171 376.390296 329.966171 376.390296 329.966171 376.390296 
C 329.966171 376.390296 329.966171 376.390296 329.966171 376.390296 
C 329.966171 376.390296 329.966171 376.390296 329.966171 376.390296 
C 329.966171 376.390296 329.966171 376.390296 329.966171 376.390296 
C 329.966171 376.390296 329.966171 376.390296 329.966171 376.390296 
C 329.966171 376.390296 329.966171 376.390296 329.966171 376.390296 
C 329.966171 376.390296 329.966171 376.390296 329.966171 376.390296 
C 329.966171 376.390296 329.966171 376.390296 329.966171 376.390296 
C 329.966171 376.390296 329.966171 376.390296 329.966171 376.390296 
C 329.966171 376.390296 329.966171 376.390296 329.966171 376.390296 
C 329.966171 376.390296 329.966171 376.390296 329.966171 376.390296 
z
"/>
  </clipPath>
 </defs>
</svg>
