<?xml version="1.0" encoding="utf-8" standalone="no"?>
<!DOCTYPE svg PUBLIC "-//W3C//DTD SVG 1.1//EN"
  "http://www.w3.org/Graphics/SVG/1.1/DTD/svg11.dtd">
<svg xmlns:xlink="http://www.w3.org/1999/xlink" width="722.584pt" height="672.538839pt" viewBox="0 0 722.584 672.538839" xmlns="http://www.w3.org/2000/svg" version="1.1">
 <metadata>
  <rdf:RDF xmlns:dc="http://purl.org/dc/elements/1.1/" xmlns:cc="http://creativecommons.org/ns#" xmlns:rdf="http://www.w3.org/1999/02/22-rdf-syntax-ns#">
   <cc:Work>
    <dc:type rdf:resource="http://purl.org/dc/dcmitype/StillImage"/>
    <dc:date>2025-12-17T18:14:23.580995</dc:date>
    <dc:format>image/svg+xml</dc:format>
    <dc:creator>
     <cc:Agent>
      <dc:title>Matplotlib v3.10.7, https://matplotlib.org/</dc:title>
     </cc:Agent>
    </dc:creator>
   </cc:Work>
  </rdf:RDF>
 </metadata>
 <defs>
  <style type="text/css">*{stroke-linejoin: round; stroke-linecap: butt}</style>
 </defs>
 <g id="figure_1">
  <g id="patch_1">
   <path d="M 0 672.538839 
L 722.584 672.538839 
L 722.584 0 
L 0 0 
z
" style="fill: #ffffff"/>
  </g>
  <g id="axes_1">
   <g id="patch_2">
    <path d="M 601.52 358.792 
C 601.52 319.769306 593.83338 281.126059 578.900042 245.073791 
C 563.966704 209.021523 542.077062 176.26136 514.483851 148.668149 
C 486.89064 121.074938 454.130477 99.185296 418.078209 84.251958 
C 382.025941 69.31862 343.382694 61.632 304.36 61.632 
C 265.337306 61.632 226.694059 69.31862 190.641791 84.251958 
C 154.589523 99.185296 121.82936 121.074938 94.236149 148.668149 
C 66.642938 176.26136 44.753296 209.021523 29.819958 245.073791 
C 14.88662 281.126059 7.2 319.769306 7.2 358.792 
C 7.2 397.814694 14.88662 436.457941 29.819958 472.510209 
C 44.753296 508.562477 66.642938 541.32264 94.236149 568.915851 
C 121.82936 596.509062 154.589523 618.398704 190.641791 633.332042 
C 226.694059 648.26538 265.337306 655.952 304.36 655.952 
C 343.382694 655.952 382.025941 648.26538 418.078209 633.332042 
C 454.130477 618.398704 486.89064 596.509062 514.483851 568.915851 
C 542.077062 541.32264 563.966704 508.562477 578.900042 472.510209 
C 593.83338 436.457941 601.52 397.814694 601.52 358.792 
M 304.36 358.792 
C 304.36 358.792 304.36 358.792 304.36 358.792 
C 304.36 358.792 304.36 358.792 304.36 358.792 
C 304.36 358.792 304.36 358.792 304.36 358.792 
C 304.36 358.792 304.36 358.792 304.36 358.792 
C 304.36 358.792 304.36 358.792 304.36 358.792 
C 304.36 358.792 304.36 358.792 304.36 358.792 
C 304.36 358.792 304.36 358.792 304.36 358.792 
C 304.36 358.792 304.36 358.792 304.36 358.792 
C 304.36 358.792 304.36 358.792 304.36 358.792 
C 304.36 358.792 304.36 358.792 304.36 358.792 
C 304.36 358.792 304.36 358.792 304.36 358.792 
C 304.36 358.792 304.36 358.792 304.36 358.792 
C 304.36 358.792 304.36 358.792 304.36 358.792 
C 304.36 358.792 304.36 358.792 304.36 358.792 
C 304.36 358.792 304.36 358.792 304.36 358.792 
C 304.36 358.792 304.36 358.792 304.36 358.792 
z
" style="fill: #ffffff"/>
   </g>
   <g id="patch_3">
    <path d="M 482.656 358.792 
L 354.209209 205.37191 
L 139.50915 239.020846 
L 194.459433 438.639436 
L 356.832851 520.286831 
z
" clip-path="url(#p1a89bc5c8d)" style="fill: #e57373; opacity: 0.2; stroke: #e57373; stroke-linejoin: miter"/>
   </g>
   <g id="patch_4">
    <path d="M 457.185143 358.792 
L 362.080137 181.147686 
L 166.984291 258.982705 
L 153.246721 468.582224 
L 351.585566 504.137348 
z
" clip-path="url(#p1a89bc5c8d)" style="fill: #64b5f6; opacity: 0.2; stroke: #64b5f6; stroke-linejoin: miter"/>
   </g>
   <g id="patch_5">
    <path d="M 474.165714 358.792 
L 356.832851 197.297169 
L 153.246721 249.001776 
L 180.721862 448.620365 
L 356.832851 520.286831 
z
" clip-path="url(#p1a89bc5c8d)" style="fill: #81c784; opacity: 0.2; stroke: #81c784; stroke-linejoin: miter"/>
   </g>
   <g id="patch_6">
    <path d="M 491.146286 358.792 
L 351.585566 213.446652 
L 180.721862 268.963635 
L 139.50915 478.563154 
L 351.585566 504.137348 
z
" clip-path="url(#p1a89bc5c8d)" style="fill: #ffd54f; opacity: 0.2; stroke: #ffd54f; stroke-linejoin: miter"/>
   </g>
   <g id="matplotlib.axis_1">
    <g id="xtick_1">
     <g id="line2d_1">
      <path d="M 304.36 358.792 
L 601.52 358.792 
" clip-path="url(#p1a89bc5c8d)" style="fill: none; stroke: #b0b0b0; stroke-width: 0.8; stroke-linecap: square"/>
     </g>
     <g id="text_1">
      <!-- A_pole -->
      <g transform="translate(597.030937 355.774344) scale(0.1 -0.1)">
       <defs>
        <path id="DejaVuSans-Bold-41" d="M 3419 850 
L 1538 850 
L 1241 0 
L 31 0 
L 1759 4666 
L 3194 4666 
L 4922 0 
L 3713 0 
L 3419 850 
z
M 1838 1716 
L 3116 1716 
L 2478 3572 
L 1838 1716 
z
" transform="scale(0.015625)"/>
        <path id="DejaVuSans-Bold-5f" d="M 3200 -916 
L 3200 -1509 
L 0 -1509 
L 0 -916 
L 3200 -916 
z
" transform="scale(0.015625)"/>
        <path id="DejaVuSans-Bold-70" d="M 1656 506 
L 1656 -1331 
L 538 -1331 
L 538 3500 
L 1656 3500 
L 1656 2988 
Q 1888 3294 2169 3439 
Q 2450 3584 2816 3584 
Q 3463 3584 3878 3070 
Q 4294 2556 4294 1747 
Q 4294 938 3878 423 
Q 3463 -91 2816 -91 
Q 2450 -91 2169 54 
Q 1888 200 1656 506 
z
M 2400 2772 
Q 2041 2772 1848 2508 
Q 1656 2244 1656 1747 
Q 1656 1250 1848 986 
Q 2041 722 2400 722 
Q 2759 722 2948 984 
Q 3138 1247 3138 1747 
Q 3138 2247 2948 2509 
Q 2759 2772 2400 2772 
z
" transform="scale(0.015625)"/>
        <path id="DejaVuSans-Bold-6f" d="M 2203 2784 
Q 1831 2784 1636 2517 
Q 1441 2250 1441 1747 
Q 1441 1244 1636 976 
Q 1831 709 2203 709 
Q 2569 709 2762 976 
Q 2956 1244 2956 1747 
Q 2956 2250 2762 2517 
Q 2569 2784 2203 2784 
z
M 2203 3584 
Q 3106 3584 3614 3096 
Q 4122 2609 4122 1747 
Q 4122 884 3614 396 
Q 3106 -91 2203 -91 
Q 1297 -91 786 396 
Q 275 884 275 1747 
Q 275 2609 786 3096 
Q 1297 3584 2203 3584 
z
" transform="scale(0.015625)"/>
        <path id="DejaVuSans-Bold-6c" d="M 538 4863 
L 1656 4863 
L 1656 0 
L 538 0 
L 538 4863 
z
" transform="scale(0.015625)"/>
        <path id="DejaVuSans-Bold-65" d="M 4031 1759 
L 4031 1441 
L 1416 1441 
Q 1456 1047 1700 850 
Q 1944 653 2381 653 
Q 2734 653 3104 758 
Q 3475 863 3866 1075 
L 3866 213 
Q 3469 63 3072 -14 
Q 2675 -91 2278 -91 
Q 1328 -91 801 392 
Q 275 875 275 1747 
Q 275 2603 792 3093 
Q 1309 3584 2216 3584 
Q 3041 3584 3536 3087 
Q 4031 2591 4031 1759 
z
M 2881 2131 
Q 2881 2450 2695 2645 
Q 2509 2841 2209 2841 
Q 1884 2841 1681 2658 
Q 1478 2475 1428 2131 
L 2881 2131 
z
" transform="scale(0.015625)"/>
       </defs>
       <use xlink:href="#DejaVuSans-Bold-41"/>
       <use xlink:href="#DejaVuSans-Bold-5f" transform="translate(77.392578 0)"/>
       <use xlink:href="#DejaVuSans-Bold-70" transform="translate(127.392578 0)"/>
       <use xlink:href="#DejaVuSans-Bold-6f" transform="translate(198.974609 0)"/>
       <use xlink:href="#DejaVuSans-Bold-6c" transform="translate(267.675781 0)"/>
       <use xlink:href="#DejaVuSans-Bold-65" transform="translate(301.953125 0)"/>
      </g>
      <!-- (Boundary) -->
      <g transform="translate(583.906719 367.250281) scale(0.1 -0.1)">
       <defs>
        <path id="DejaVuSans-Bold-28" d="M 2413 -844 
L 1484 -844 
Q 1006 -72 778 623 
Q 550 1319 550 2003 
Q 550 2688 779 3389 
Q 1009 4091 1484 4856 
L 2413 4856 
Q 2013 4116 1813 3408 
Q 1613 2700 1613 2009 
Q 1613 1319 1811 609 
Q 2009 -100 2413 -844 
z
" transform="scale(0.015625)"/>
        <path id="DejaVuSans-Bold-42" d="M 2456 2859 
Q 2741 2859 2887 2984 
Q 3034 3109 3034 3353 
Q 3034 3594 2887 3720 
Q 2741 3847 2456 3847 
L 1791 3847 
L 1791 2859 
L 2456 2859 
z
M 2497 819 
Q 2859 819 3042 972 
Q 3225 1125 3225 1434 
Q 3225 1738 3044 1889 
Q 2863 2041 2497 2041 
L 1791 2041 
L 1791 819 
L 2497 819 
z
M 3616 2497 
Q 4003 2384 4215 2081 
Q 4428 1778 4428 1338 
Q 4428 663 3972 331 
Q 3516 0 2584 0 
L 588 0 
L 588 4666 
L 2394 4666 
Q 3366 4666 3802 4372 
Q 4238 4078 4238 3431 
Q 4238 3091 4078 2852 
Q 3919 2613 3616 2497 
z
" transform="scale(0.015625)"/>
        <path id="DejaVuSans-Bold-75" d="M 500 1363 
L 500 3500 
L 1625 3500 
L 1625 3150 
Q 1625 2866 1622 2436 
Q 1619 2006 1619 1863 
Q 1619 1441 1641 1255 
Q 1663 1069 1716 984 
Q 1784 875 1895 815 
Q 2006 756 2150 756 
Q 2500 756 2700 1025 
Q 2900 1294 2900 1772 
L 2900 3500 
L 4019 3500 
L 4019 0 
L 2900 0 
L 2900 506 
Q 2647 200 2364 54 
Q 2081 -91 1741 -91 
Q 1134 -91 817 281 
Q 500 653 500 1363 
z
" transform="scale(0.015625)"/>
        <path id="DejaVuSans-Bold-6e" d="M 4056 2131 
L 4056 0 
L 2931 0 
L 2931 347 
L 2931 1631 
Q 2931 2084 2911 2256 
Q 2891 2428 2841 2509 
Q 2775 2619 2662 2680 
Q 2550 2741 2406 2741 
Q 2056 2741 1856 2470 
Q 1656 2200 1656 1722 
L 1656 0 
L 538 0 
L 538 3500 
L 1656 3500 
L 1656 2988 
Q 1909 3294 2193 3439 
Q 2478 3584 2822 3584 
Q 3428 3584 3742 3212 
Q 4056 2841 4056 2131 
z
" transform="scale(0.015625)"/>
        <path id="DejaVuSans-Bold-64" d="M 2919 2988 
L 2919 4863 
L 4044 4863 
L 4044 0 
L 2919 0 
L 2919 506 
Q 2688 197 2409 53 
Q 2131 -91 1766 -91 
Q 1119 -91 703 423 
Q 288 938 288 1747 
Q 288 2556 703 3070 
Q 1119 3584 1766 3584 
Q 2128 3584 2408 3439 
Q 2688 3294 2919 2988 
z
M 2181 722 
Q 2541 722 2730 984 
Q 2919 1247 2919 1747 
Q 2919 2247 2730 2509 
Q 2541 2772 2181 2772 
Q 1825 2772 1636 2509 
Q 1447 2247 1447 1747 
Q 1447 1247 1636 984 
Q 1825 722 2181 722 
z
" transform="scale(0.015625)"/>
        <path id="DejaVuSans-Bold-61" d="M 2106 1575 
Q 1756 1575 1579 1456 
Q 1403 1338 1403 1106 
Q 1403 894 1545 773 
Q 1688 653 1941 653 
Q 2256 653 2472 879 
Q 2688 1106 2688 1447 
L 2688 1575 
L 2106 1575 
z
M 3816 1997 
L 3816 0 
L 2688 0 
L 2688 519 
Q 2463 200 2181 54 
Q 1900 -91 1497 -91 
Q 953 -91 614 226 
Q 275 544 275 1050 
Q 275 1666 698 1953 
Q 1122 2241 2028 2241 
L 2688 2241 
L 2688 2328 
Q 2688 2594 2478 2717 
Q 2269 2841 1825 2841 
Q 1466 2841 1156 2769 
Q 847 2697 581 2553 
L 581 3406 
Q 941 3494 1303 3539 
Q 1666 3584 2028 3584 
Q 2975 3584 3395 3211 
Q 3816 2838 3816 1997 
z
" transform="scale(0.015625)"/>
        <path id="DejaVuSans-Bold-72" d="M 3138 2547 
Q 2991 2616 2845 2648 
Q 2700 2681 2553 2681 
Q 2122 2681 1889 2404 
Q 1656 2128 1656 1613 
L 1656 0 
L 538 0 
L 538 3500 
L 1656 3500 
L 1656 2925 
Q 1872 3269 2151 3426 
Q 2431 3584 2822 3584 
Q 2878 3584 2943 3579 
Q 3009 3575 3134 3559 
L 3138 2547 
z
" transform="scale(0.015625)"/>
        <path id="DejaVuSans-Bold-79" d="M 78 3500 
L 1197 3500 
L 2138 1125 
L 2938 3500 
L 4056 3500 
L 2584 -331 
Q 2363 -916 2067 -1148 
Q 1772 -1381 1288 -1381 
L 641 -1381 
L 641 -647 
L 991 -647 
Q 1275 -647 1404 -556 
Q 1534 -466 1606 -231 
L 1638 -134 
L 78 3500 
z
" transform="scale(0.015625)"/>
        <path id="DejaVuSans-Bold-29" d="M 513 -844 
Q 913 -100 1113 609 
Q 1313 1319 1313 2009 
Q 1313 2700 1113 3408 
Q 913 4116 513 4856 
L 1441 4856 
Q 1916 4091 2145 3389 
Q 2375 2688 2375 2003 
Q 2375 1319 2147 623 
Q 1919 -72 1441 -844 
L 513 -844 
z
" transform="scale(0.015625)"/>
       </defs>
       <use xlink:href="#DejaVuSans-Bold-28"/>
       <use xlink:href="#DejaVuSans-Bold-42" transform="translate(45.703125 0)"/>
       <use xlink:href="#DejaVuSans-Bold-6f" transform="translate(121.923828 0)"/>
       <use xlink:href="#DejaVuSans-Bold-75" transform="translate(190.625 0)"/>
       <use xlink:href="#DejaVuSans-Bold-6e" transform="translate(261.816406 0)"/>
       <use xlink:href="#DejaVuSans-Bold-64" transform="translate(333.007812 0)"/>
       <use xlink:href="#DejaVuSans-Bold-61" transform="translate(404.589844 0)"/>
       <use xlink:href="#DejaVuSans-Bold-72" transform="translate(472.070312 0)"/>
       <use xlink:href="#DejaVuSans-Bold-79" transform="translate(521.386719 0)"/>
       <use xlink:href="#DejaVuSans-Bold-29" transform="translate(586.572266 0)"/>
      </g>
     </g>
    </g>
    <g id="xtick_2">
     <g id="line2d_2">
      <path d="M 304.36 358.792 
L 396.18749 76.176046 
" clip-path="url(#p1a89bc5c8d)" style="fill: none; stroke: #b0b0b0; stroke-width: 0.8; stroke-linecap: square"/>
     </g>
     <g id="text_2">
      <!-- B_zero -->
      <g transform="translate(382.000447 59.743598) scale(0.1 -0.1)">
       <defs>
        <path id="DejaVuSans-Bold-7a" d="M 366 3500 
L 3419 3500 
L 3419 2719 
L 1575 800 
L 3419 800 
L 3419 0 
L 288 0 
L 288 781 
L 2131 2700 
L 366 2700 
L 366 3500 
z
" transform="scale(0.015625)"/>
       </defs>
       <use xlink:href="#DejaVuSans-Bold-42"/>
       <use xlink:href="#DejaVuSans-Bold-5f" transform="translate(76.220703 0)"/>
       <use xlink:href="#DejaVuSans-Bold-7a" transform="translate(126.220703 0)"/>
       <use xlink:href="#DejaVuSans-Bold-65" transform="translate(184.423828 0)"/>
       <use xlink:href="#DejaVuSans-Bold-72" transform="translate(252.246094 0)"/>
       <use xlink:href="#DejaVuSans-Bold-6f" transform="translate(301.5625 0)"/>
      </g>
      <!-- (Ground) -->
      <g transform="translate(375.241072 71.219536) scale(0.1 -0.1)">
       <defs>
        <path id="DejaVuSans-Bold-47" d="M 4781 347 
Q 4331 128 3847 18 
Q 3363 -91 2847 -91 
Q 1681 -91 1000 561 
Q 319 1213 319 2328 
Q 319 3456 1012 4103 
Q 1706 4750 2913 4750 
Q 3378 4750 3804 4662 
Q 4231 4575 4609 4403 
L 4609 3438 
Q 4219 3659 3833 3768 
Q 3447 3878 3059 3878 
Q 2341 3878 1952 3476 
Q 1563 3075 1563 2328 
Q 1563 1588 1938 1184 
Q 2313 781 3003 781 
Q 3191 781 3352 804 
Q 3513 828 3641 878 
L 3641 1784 
L 2906 1784 
L 2906 2591 
L 4781 2591 
L 4781 347 
z
" transform="scale(0.015625)"/>
       </defs>
       <use xlink:href="#DejaVuSans-Bold-28"/>
       <use xlink:href="#DejaVuSans-Bold-47" transform="translate(45.703125 0)"/>
       <use xlink:href="#DejaVuSans-Bold-72" transform="translate(127.783203 0)"/>
       <use xlink:href="#DejaVuSans-Bold-6f" transform="translate(177.099609 0)"/>
       <use xlink:href="#DejaVuSans-Bold-75" transform="translate(245.800781 0)"/>
       <use xlink:href="#DejaVuSans-Bold-6e" transform="translate(316.992188 0)"/>
       <use xlink:href="#DejaVuSans-Bold-64" transform="translate(388.183594 0)"/>
       <use xlink:href="#DejaVuSans-Bold-29" transform="translate(459.765625 0)"/>
      </g>
     </g>
    </g>
    <g id="xtick_3">
     <g id="line2d_3">
      <path d="M 304.36 358.792 
L 63.95251 184.125734 
" clip-path="url(#p1a89bc5c8d)" style="fill: none; stroke: #b0b0b0; stroke-width: 0.8; stroke-linecap: square"/>
     </g>
     <g id="text_3">
      <!-- C_meta -->
      <g transform="translate(32.091116 172.829866) scale(0.1 -0.1)">
       <defs>
        <path id="DejaVuSans-Bold-43" d="M 4288 256 
Q 3956 84 3597 -3 
Q 3238 -91 2847 -91 
Q 1681 -91 1000 561 
Q 319 1213 319 2328 
Q 319 3447 1000 4098 
Q 1681 4750 2847 4750 
Q 3238 4750 3597 4662 
Q 3956 4575 4288 4403 
L 4288 3438 
Q 3953 3666 3628 3772 
Q 3303 3878 2944 3878 
Q 2300 3878 1931 3465 
Q 1563 3053 1563 2328 
Q 1563 1606 1931 1193 
Q 2300 781 2944 781 
Q 3303 781 3628 887 
Q 3953 994 4288 1222 
L 4288 256 
z
" transform="scale(0.015625)"/>
        <path id="DejaVuSans-Bold-6d" d="M 3781 2919 
Q 3994 3244 4286 3414 
Q 4578 3584 4928 3584 
Q 5531 3584 5847 3212 
Q 6163 2841 6163 2131 
L 6163 0 
L 5038 0 
L 5038 1825 
Q 5041 1866 5042 1909 
Q 5044 1953 5044 2034 
Q 5044 2406 4934 2573 
Q 4825 2741 4581 2741 
Q 4263 2741 4089 2478 
Q 3916 2216 3909 1719 
L 3909 0 
L 2784 0 
L 2784 1825 
Q 2784 2406 2684 2573 
Q 2584 2741 2328 2741 
Q 2006 2741 1831 2477 
Q 1656 2213 1656 1722 
L 1656 0 
L 531 0 
L 531 3500 
L 1656 3500 
L 1656 2988 
Q 1863 3284 2130 3434 
Q 2397 3584 2719 3584 
Q 3081 3584 3359 3409 
Q 3638 3234 3781 2919 
z
" transform="scale(0.015625)"/>
        <path id="DejaVuSans-Bold-74" d="M 1759 4494 
L 1759 3500 
L 2913 3500 
L 2913 2700 
L 1759 2700 
L 1759 1216 
Q 1759 972 1856 886 
Q 1953 800 2241 800 
L 2816 800 
L 2816 0 
L 1856 0 
Q 1194 0 917 276 
Q 641 553 641 1216 
L 641 2700 
L 84 2700 
L 84 3500 
L 641 3500 
L 641 4494 
L 1759 4494 
z
" transform="scale(0.015625)"/>
       </defs>
       <use xlink:href="#DejaVuSans-Bold-43"/>
       <use xlink:href="#DejaVuSans-Bold-5f" transform="translate(73.388672 0)"/>
       <use xlink:href="#DejaVuSans-Bold-6d" transform="translate(123.388672 0)"/>
       <use xlink:href="#DejaVuSans-Bold-65" transform="translate(227.587891 0)"/>
       <use xlink:href="#DejaVuSans-Bold-74" transform="translate(295.410156 0)"/>
       <use xlink:href="#DejaVuSans-Bold-61" transform="translate(343.212891 0)"/>
      </g>
      <!-- (Awareness) -->
      <g transform="translate(17.433303 184.305803) scale(0.1 -0.1)">
       <defs>
        <path id="DejaVuSans-Bold-77" d="M 225 3500 
L 1313 3500 
L 1900 1088 
L 2491 3500 
L 3425 3500 
L 4013 1113 
L 4603 3500 
L 5691 3500 
L 4769 0 
L 3547 0 
L 2956 2406 
L 2369 0 
L 1147 0 
L 225 3500 
z
" transform="scale(0.015625)"/>
        <path id="DejaVuSans-Bold-73" d="M 3272 3391 
L 3272 2541 
Q 2913 2691 2578 2766 
Q 2244 2841 1947 2841 
Q 1628 2841 1473 2761 
Q 1319 2681 1319 2516 
Q 1319 2381 1436 2309 
Q 1553 2238 1856 2203 
L 2053 2175 
Q 2913 2066 3209 1816 
Q 3506 1566 3506 1031 
Q 3506 472 3093 190 
Q 2681 -91 1863 -91 
Q 1516 -91 1145 -36 
Q 775 19 384 128 
L 384 978 
Q 719 816 1070 734 
Q 1422 653 1784 653 
Q 2113 653 2278 743 
Q 2444 834 2444 1013 
Q 2444 1163 2330 1236 
Q 2216 1309 1875 1350 
L 1678 1375 
Q 931 1469 631 1722 
Q 331 1975 331 2491 
Q 331 3047 712 3315 
Q 1094 3584 1881 3584 
Q 2191 3584 2531 3537 
Q 2872 3491 3272 3391 
z
" transform="scale(0.015625)"/>
       </defs>
       <use xlink:href="#DejaVuSans-Bold-28"/>
       <use xlink:href="#DejaVuSans-Bold-41" transform="translate(45.703125 0)"/>
       <use xlink:href="#DejaVuSans-Bold-77" transform="translate(123.095703 0)"/>
       <use xlink:href="#DejaVuSans-Bold-61" transform="translate(215.478516 0)"/>
       <use xlink:href="#DejaVuSans-Bold-72" transform="translate(282.958984 0)"/>
       <use xlink:href="#DejaVuSans-Bold-65" transform="translate(332.275391 0)"/>
       <use xlink:href="#DejaVuSans-Bold-6e" transform="translate(400.097656 0)"/>
       <use xlink:href="#DejaVuSans-Bold-65" transform="translate(471.289062 0)"/>
       <use xlink:href="#DejaVuSans-Bold-73" transform="translate(539.111328 0)"/>
       <use xlink:href="#DejaVuSans-Bold-73" transform="translate(598.632812 0)"/>
       <use xlink:href="#DejaVuSans-Bold-29" transform="translate(658.154297 0)"/>
      </g>
     </g>
    </g>
    <g id="xtick_4">
     <g id="line2d_4">
      <path d="M 304.36 358.792 
L 63.95251 533.458266 
" clip-path="url(#p1a89bc5c8d)" style="fill: none; stroke: #b0b0b0; stroke-width: 0.8; stroke-linecap: square"/>
     </g>
     <g id="text_4">
      <!-- D_identity -->
      <g transform="translate(23.978616 538.708665) scale(0.1 -0.1)">
       <defs>
        <path id="DejaVuSans-Bold-44" d="M 1791 3756 
L 1791 909 
L 2222 909 
Q 2959 909 3348 1275 
Q 3738 1641 3738 2338 
Q 3738 3031 3350 3393 
Q 2963 3756 2222 3756 
L 1791 3756 
z
M 588 4666 
L 1856 4666 
Q 2919 4666 3439 4514 
Q 3959 4363 4331 4000 
Q 4659 3684 4818 3271 
Q 4978 2859 4978 2338 
Q 4978 1809 4818 1395 
Q 4659 981 4331 666 
Q 3956 303 3431 151 
Q 2906 0 1856 0 
L 588 0 
L 588 4666 
z
" transform="scale(0.015625)"/>
        <path id="DejaVuSans-Bold-69" d="M 538 3500 
L 1656 3500 
L 1656 0 
L 538 0 
L 538 3500 
z
M 538 4863 
L 1656 4863 
L 1656 3950 
L 538 3950 
L 538 4863 
z
" transform="scale(0.015625)"/>
       </defs>
       <use xlink:href="#DejaVuSans-Bold-44"/>
       <use xlink:href="#DejaVuSans-Bold-5f" transform="translate(83.007812 0)"/>
       <use xlink:href="#DejaVuSans-Bold-69" transform="translate(133.007812 0)"/>
       <use xlink:href="#DejaVuSans-Bold-64" transform="translate(167.285156 0)"/>
       <use xlink:href="#DejaVuSans-Bold-65" transform="translate(238.867188 0)"/>
       <use xlink:href="#DejaVuSans-Bold-6e" transform="translate(306.689453 0)"/>
       <use xlink:href="#DejaVuSans-Bold-74" transform="translate(377.880859 0)"/>
       <use xlink:href="#DejaVuSans-Bold-69" transform="translate(425.683594 0)"/>
       <use xlink:href="#DejaVuSans-Bold-74" transform="translate(459.960938 0)"/>
       <use xlink:href="#DejaVuSans-Bold-79" transform="translate(507.763672 0)"/>
      </g>
      <!-- (Self-Model) -->
      <g transform="translate(18.091897 550.184603) scale(0.1 -0.1)">
       <defs>
        <path id="DejaVuSans-Bold-53" d="M 3834 4519 
L 3834 3531 
Q 3450 3703 3084 3790 
Q 2719 3878 2394 3878 
Q 1963 3878 1756 3759 
Q 1550 3641 1550 3391 
Q 1550 3203 1689 3098 
Q 1828 2994 2194 2919 
L 2706 2816 
Q 3484 2659 3812 2340 
Q 4141 2022 4141 1434 
Q 4141 663 3683 286 
Q 3225 -91 2284 -91 
Q 1841 -91 1394 -6 
Q 947 78 500 244 
L 500 1259 
Q 947 1022 1364 901 
Q 1781 781 2169 781 
Q 2563 781 2772 912 
Q 2981 1044 2981 1288 
Q 2981 1506 2839 1625 
Q 2697 1744 2272 1838 
L 1806 1941 
Q 1106 2091 782 2419 
Q 459 2747 459 3303 
Q 459 4000 909 4375 
Q 1359 4750 2203 4750 
Q 2588 4750 2994 4692 
Q 3400 4634 3834 4519 
z
" transform="scale(0.015625)"/>
        <path id="DejaVuSans-Bold-66" d="M 2841 4863 
L 2841 4128 
L 2222 4128 
Q 1984 4128 1890 4042 
Q 1797 3956 1797 3744 
L 1797 3500 
L 2753 3500 
L 2753 2700 
L 1797 2700 
L 1797 0 
L 678 0 
L 678 2700 
L 122 2700 
L 122 3500 
L 678 3500 
L 678 3744 
Q 678 4316 997 4589 
Q 1316 4863 1984 4863 
L 2841 4863 
z
" transform="scale(0.015625)"/>
        <path id="DejaVuSans-Bold-2d" d="M 347 2297 
L 2309 2297 
L 2309 1388 
L 347 1388 
L 347 2297 
z
" transform="scale(0.015625)"/>
        <path id="DejaVuSans-Bold-4d" d="M 588 4666 
L 2119 4666 
L 3181 2169 
L 4250 4666 
L 5778 4666 
L 5778 0 
L 4641 0 
L 4641 3413 
L 3566 897 
L 2803 897 
L 1728 3413 
L 1728 0 
L 588 0 
L 588 4666 
z
" transform="scale(0.015625)"/>
       </defs>
       <use xlink:href="#DejaVuSans-Bold-28"/>
       <use xlink:href="#DejaVuSans-Bold-53" transform="translate(45.703125 0)"/>
       <use xlink:href="#DejaVuSans-Bold-65" transform="translate(117.724609 0)"/>
       <use xlink:href="#DejaVuSans-Bold-6c" transform="translate(185.546875 0)"/>
       <use xlink:href="#DejaVuSans-Bold-66" transform="translate(219.824219 0)"/>
       <use xlink:href="#DejaVuSans-Bold-2d" transform="translate(261.580078 0)"/>
       <use xlink:href="#DejaVuSans-Bold-4d" transform="translate(303.083984 0)"/>
       <use xlink:href="#DejaVuSans-Bold-6f" transform="translate(402.595703 0)"/>
       <use xlink:href="#DejaVuSans-Bold-64" transform="translate(471.296875 0)"/>
       <use xlink:href="#DejaVuSans-Bold-65" transform="translate(542.878906 0)"/>
       <use xlink:href="#DejaVuSans-Bold-6c" transform="translate(610.701172 0)"/>
       <use xlink:href="#DejaVuSans-Bold-29" transform="translate(644.978516 0)"/>
      </g>
     </g>
    </g>
    <g id="xtick_5">
     <g id="line2d_5">
      <path d="M 304.36 358.792 
L 396.18749 641.407954 
" clip-path="url(#p1a89bc5c8d)" style="fill: none; stroke: #b0b0b0; stroke-width: 0.8; stroke-linecap: square"/>
     </g>
     <g id="text_5">
      <!-- E_hedging -->
      <g transform="translate(371.637165 651.705089) scale(0.1 -0.1)">
       <defs>
        <path id="DejaVuSans-Bold-45" d="M 588 4666 
L 3834 4666 
L 3834 3756 
L 1791 3756 
L 1791 2888 
L 3713 2888 
L 3713 1978 
L 1791 1978 
L 1791 909 
L 3903 909 
L 3903 0 
L 588 0 
L 588 4666 
z
" transform="scale(0.015625)"/>
        <path id="DejaVuSans-Bold-68" d="M 4056 2131 
L 4056 0 
L 2931 0 
L 2931 347 
L 2931 1625 
Q 2931 2084 2911 2256 
Q 2891 2428 2841 2509 
Q 2775 2619 2662 2680 
Q 2550 2741 2406 2741 
Q 2056 2741 1856 2470 
Q 1656 2200 1656 1722 
L 1656 0 
L 538 0 
L 538 4863 
L 1656 4863 
L 1656 2988 
Q 1909 3294 2193 3439 
Q 2478 3584 2822 3584 
Q 3428 3584 3742 3212 
Q 4056 2841 4056 2131 
z
" transform="scale(0.015625)"/>
        <path id="DejaVuSans-Bold-67" d="M 2919 594 
Q 2688 288 2409 144 
Q 2131 0 1766 0 
Q 1125 0 706 504 
Q 288 1009 288 1791 
Q 288 2575 706 3076 
Q 1125 3578 1766 3578 
Q 2131 3578 2409 3434 
Q 2688 3291 2919 2981 
L 2919 3500 
L 4044 3500 
L 4044 353 
Q 4044 -491 3511 -936 
Q 2978 -1381 1966 -1381 
Q 1638 -1381 1331 -1331 
Q 1025 -1281 716 -1178 
L 716 -306 
Q 1009 -475 1290 -558 
Q 1572 -641 1856 -641 
Q 2406 -641 2662 -400 
Q 2919 -159 2919 353 
L 2919 594 
z
M 2181 2772 
Q 1834 2772 1640 2515 
Q 1447 2259 1447 1791 
Q 1447 1309 1634 1061 
Q 1822 813 2181 813 
Q 2531 813 2725 1069 
Q 2919 1325 2919 1791 
Q 2919 2259 2725 2515 
Q 2531 2772 2181 2772 
z
" transform="scale(0.015625)"/>
       </defs>
       <use xlink:href="#DejaVuSans-Bold-45"/>
       <use xlink:href="#DejaVuSans-Bold-5f" transform="translate(68.310547 0)"/>
       <use xlink:href="#DejaVuSans-Bold-68" transform="translate(118.310547 0)"/>
       <use xlink:href="#DejaVuSans-Bold-65" transform="translate(189.501953 0)"/>
       <use xlink:href="#DejaVuSans-Bold-64" transform="translate(257.324219 0)"/>
       <use xlink:href="#DejaVuSans-Bold-67" transform="translate(328.90625 0)"/>
       <use xlink:href="#DejaVuSans-Bold-69" transform="translate(400.488281 0)"/>
       <use xlink:href="#DejaVuSans-Bold-6e" transform="translate(434.765625 0)"/>
       <use xlink:href="#DejaVuSans-Bold-67" transform="translate(505.957031 0)"/>
      </g>
      <!-- (Uncertainty) -->
      <g transform="translate(362.816072 663.181027) scale(0.1 -0.1)">
       <defs>
        <path id="DejaVuSans-Bold-55" d="M 588 4666 
L 1791 4666 
L 1791 1869 
Q 1791 1291 1980 1042 
Q 2169 794 2597 794 
Q 3028 794 3217 1042 
Q 3406 1291 3406 1869 
L 3406 4666 
L 4609 4666 
L 4609 1869 
Q 4609 878 4112 393 
Q 3616 -91 2597 -91 
Q 1581 -91 1084 393 
Q 588 878 588 1869 
L 588 4666 
z
" transform="scale(0.015625)"/>
        <path id="DejaVuSans-Bold-63" d="M 3366 3391 
L 3366 2478 
Q 3138 2634 2908 2709 
Q 2678 2784 2431 2784 
Q 1963 2784 1702 2511 
Q 1441 2238 1441 1747 
Q 1441 1256 1702 982 
Q 1963 709 2431 709 
Q 2694 709 2930 787 
Q 3166 866 3366 1019 
L 3366 103 
Q 3103 6 2833 -42 
Q 2563 -91 2291 -91 
Q 1344 -91 809 395 
Q 275 881 275 1747 
Q 275 2613 809 3098 
Q 1344 3584 2291 3584 
Q 2566 3584 2833 3536 
Q 3100 3488 3366 3391 
z
" transform="scale(0.015625)"/>
       </defs>
       <use xlink:href="#DejaVuSans-Bold-28"/>
       <use xlink:href="#DejaVuSans-Bold-55" transform="translate(45.703125 0)"/>
       <use xlink:href="#DejaVuSans-Bold-6e" transform="translate(126.904297 0)"/>
       <use xlink:href="#DejaVuSans-Bold-63" transform="translate(198.095703 0)"/>
       <use xlink:href="#DejaVuSans-Bold-65" transform="translate(257.373047 0)"/>
       <use xlink:href="#DejaVuSans-Bold-72" transform="translate(325.195312 0)"/>
       <use xlink:href="#DejaVuSans-Bold-74" transform="translate(374.511719 0)"/>
       <use xlink:href="#DejaVuSans-Bold-61" transform="translate(422.314453 0)"/>
       <use xlink:href="#DejaVuSans-Bold-69" transform="translate(489.794922 0)"/>
       <use xlink:href="#DejaVuSans-Bold-6e" transform="translate(524.072266 0)"/>
       <use xlink:href="#DejaVuSans-Bold-74" transform="translate(595.263672 0)"/>
       <use xlink:href="#DejaVuSans-Bold-79" transform="translate(643.066406 0)"/>
       <use xlink:href="#DejaVuSans-Bold-29" transform="translate(708.251953 0)"/>
      </g>
     </g>
    </g>
   </g>
   <g id="matplotlib.axis_2">
    <g id="ytick_1">
     <g id="line2d_6">
      <path d="M 389.262857 358.792 
C 389.262857 347.642659 387.06668 336.601731 382.800012 326.301083 
C 378.533344 316.000435 372.279161 306.640389 364.395386 298.756614 
C 356.511611 290.872839 347.151565 284.618656 336.850917 280.351988 
C 326.550269 276.08532 315.509341 273.889143 304.36 273.889143 
C 293.210659 273.889143 282.169731 276.08532 271.869083 280.351988 
C 261.568435 284.618656 252.208389 290.872839 244.324614 298.756614 
C 236.440839 306.640389 230.186656 316.000435 225.919988 326.301083 
C 221.65332 336.601731 219.457143 347.642659 219.457143 358.792 
C 219.457143 369.941341 221.65332 380.982269 225.919988 391.282917 
C 230.186656 401.583565 236.440839 410.943611 244.324614 418.827386 
C 252.208389 426.711161 261.568435 432.965344 271.869083 437.232012 
C 282.169731 441.49868 293.210659 443.694857 304.36 443.694857 
C 315.509341 443.694857 326.550269 441.49868 336.850917 437.232012 
C 347.151565 432.965344 356.511611 426.711161 364.395386 418.827386 
C 372.279161 410.943611 378.533344 401.583565 382.800012 391.282917 
C 387.06668 380.982269 389.262857 369.941341 389.262857 358.792 
" clip-path="url(#p1a89bc5c8d)" style="fill: none; stroke: #b0b0b0; stroke-width: 0.8; stroke-linecap: square"/>
     </g>
     <g id="text_6">
      <!-- 10% -->
      <g transform="translate(382.800012 324.429364) scale(0.09 -0.09)">
       <defs>
        <path id="DejaVuSans-31" d="M 794 531 
L 1825 531 
L 1825 4091 
L 703 3866 
L 703 4441 
L 1819 4666 
L 2450 4666 
L 2450 531 
L 3481 531 
L 3481 0 
L 794 0 
L 794 531 
z
" transform="scale(0.015625)"/>
        <path id="DejaVuSans-30" d="M 2034 4250 
Q 1547 4250 1301 3770 
Q 1056 3291 1056 2328 
Q 1056 1369 1301 889 
Q 1547 409 2034 409 
Q 2525 409 2770 889 
Q 3016 1369 3016 2328 
Q 3016 3291 2770 3770 
Q 2525 4250 2034 4250 
z
M 2034 4750 
Q 2819 4750 3233 4129 
Q 3647 3509 3647 2328 
Q 3647 1150 3233 529 
Q 2819 -91 2034 -91 
Q 1250 -91 836 529 
Q 422 1150 422 2328 
Q 422 3509 836 4129 
Q 1250 4750 2034 4750 
z
" transform="scale(0.015625)"/>
        <path id="DejaVuSans-25" d="M 4653 2053 
Q 4381 2053 4226 1822 
Q 4072 1591 4072 1178 
Q 4072 772 4226 539 
Q 4381 306 4653 306 
Q 4919 306 5073 539 
Q 5228 772 5228 1178 
Q 5228 1588 5073 1820 
Q 4919 2053 4653 2053 
z
M 4653 2450 
Q 5147 2450 5437 2106 
Q 5728 1763 5728 1178 
Q 5728 594 5436 251 
Q 5144 -91 4653 -91 
Q 4153 -91 3862 251 
Q 3572 594 3572 1178 
Q 3572 1766 3864 2108 
Q 4156 2450 4653 2450 
z
M 1428 4353 
Q 1159 4353 1004 4120 
Q 850 3888 850 3481 
Q 850 3069 1003 2837 
Q 1156 2606 1428 2606 
Q 1700 2606 1854 2837 
Q 2009 3069 2009 3481 
Q 2009 3884 1853 4118 
Q 1697 4353 1428 4353 
z
M 4250 4750 
L 4750 4750 
L 1831 -91 
L 1331 -91 
L 4250 4750 
z
M 1428 4750 
Q 1922 4750 2215 4408 
Q 2509 4066 2509 3481 
Q 2509 2891 2217 2550 
Q 1925 2209 1428 2209 
Q 931 2209 642 2551 
Q 353 2894 353 3481 
Q 353 4063 643 4406 
Q 934 4750 1428 4750 
z
" transform="scale(0.015625)"/>
       </defs>
       <use xlink:href="#DejaVuSans-31"/>
       <use xlink:href="#DejaVuSans-30" transform="translate(63.623047 0)"/>
       <use xlink:href="#DejaVuSans-25" transform="translate(127.246094 0)"/>
      </g>
     </g>
    </g>
    <g id="ytick_2">
     <g id="line2d_7">
      <path d="M 474.165714 358.792 
C 474.165714 336.493318 469.77336 314.411462 461.240024 293.810166 
C 452.706688 273.20887 440.198321 254.488777 424.430772 238.721228 
C 408.663223 222.953679 389.94313 210.445312 369.341834 201.911976 
C 348.740538 193.37864 326.658682 188.986286 304.36 188.986286 
C 282.061318 188.986286 259.979462 193.37864 239.378166 201.911976 
C 218.77687 210.445312 200.056777 222.953679 184.289228 238.721228 
C 168.521679 254.488777 156.013312 273.20887 147.479976 293.810166 
C 138.94664 314.411462 134.554286 336.493318 134.554286 358.792 
C 134.554286 381.090682 138.94664 403.172538 147.479976 423.773834 
C 156.013312 444.37513 168.521679 463.095223 184.289228 478.862772 
C 200.056777 494.630321 218.77687 507.138688 239.378166 515.672024 
C 259.979462 524.20536 282.061318 528.597714 304.36 528.597714 
C 326.658682 528.597714 348.740538 524.20536 369.341834 515.672024 
C 389.94313 507.138688 408.663223 494.630321 424.430772 478.862772 
C 440.198321 463.095223 452.706688 444.37513 461.240024 423.773834 
C 469.77336 403.172538 474.165714 381.090682 474.165714 358.792 
" clip-path="url(#p1a89bc5c8d)" style="fill: none; stroke: #b0b0b0; stroke-width: 0.8; stroke-linecap: square"/>
     </g>
     <g id="text_7">
      <!-- 20% -->
      <g transform="translate(461.240024 291.938448) scale(0.09 -0.09)">
       <defs>
        <path id="DejaVuSans-32" d="M 1228 531 
L 3431 531 
L 3431 0 
L 469 0 
L 469 531 
Q 828 903 1448 1529 
Q 2069 2156 2228 2338 
Q 2531 2678 2651 2914 
Q 2772 3150 2772 3378 
Q 2772 3750 2511 3984 
Q 2250 4219 1831 4219 
Q 1534 4219 1204 4116 
Q 875 4013 500 3803 
L 500 4441 
Q 881 4594 1212 4672 
Q 1544 4750 1819 4750 
Q 2544 4750 2975 4387 
Q 3406 4025 3406 3419 
Q 3406 3131 3298 2873 
Q 3191 2616 2906 2266 
Q 2828 2175 2409 1742 
Q 1991 1309 1228 531 
z
" transform="scale(0.015625)"/>
       </defs>
       <use xlink:href="#DejaVuSans-32"/>
       <use xlink:href="#DejaVuSans-30" transform="translate(63.623047 0)"/>
       <use xlink:href="#DejaVuSans-25" transform="translate(127.246094 0)"/>
      </g>
     </g>
    </g>
    <g id="ytick_3">
     <g id="line2d_8">
      <path d="M 559.068571 358.792 
C 559.068571 325.343977 552.48004 292.221194 539.680036 261.31925 
C 526.880032 230.417306 508.117482 202.337166 484.466158 178.685842 
C 460.814834 155.034518 432.734694 136.271968 401.83275 123.471964 
C 370.930806 110.67196 337.808023 104.083429 304.36 104.083429 
C 270.911977 104.083429 237.789194 110.67196 206.88725 123.471964 
C 175.985306 136.271968 147.905166 155.034518 124.253842 178.685842 
C 100.602518 202.337166 81.839968 230.417306 69.039964 261.31925 
C 56.23996 292.221194 49.651429 325.343977 49.651429 358.792 
C 49.651429 392.240023 56.23996 425.362806 69.039964 456.26475 
C 81.839968 487.166694 100.602518 515.246834 124.253842 538.898158 
C 147.905166 562.549482 175.985306 581.312032 206.88725 594.112036 
C 237.789194 606.91204 270.911977 613.500571 304.36 613.500571 
C 337.808023 613.500571 370.930806 606.91204 401.83275 594.112036 
C 432.734694 581.312032 460.814834 562.549482 484.466158 538.898158 
C 508.117482 515.246834 526.880032 487.166694 539.680036 456.26475 
C 552.48004 425.362806 559.068571 392.240023 559.068571 358.792 
" clip-path="url(#p1a89bc5c8d)" style="fill: none; stroke: #b0b0b0; stroke-width: 0.8; stroke-linecap: square"/>
     </g>
     <g id="text_8">
      <!-- 30% -->
      <g transform="translate(539.680036 259.447531) scale(0.09 -0.09)">
       <defs>
        <path id="DejaVuSans-33" d="M 2597 2516 
Q 3050 2419 3304 2112 
Q 3559 1806 3559 1356 
Q 3559 666 3084 287 
Q 2609 -91 1734 -91 
Q 1441 -91 1130 -33 
Q 819 25 488 141 
L 488 750 
Q 750 597 1062 519 
Q 1375 441 1716 441 
Q 2309 441 2620 675 
Q 2931 909 2931 1356 
Q 2931 1769 2642 2001 
Q 2353 2234 1838 2234 
L 1294 2234 
L 1294 2753 
L 1863 2753 
Q 2328 2753 2575 2939 
Q 2822 3125 2822 3475 
Q 2822 3834 2567 4026 
Q 2313 4219 1838 4219 
Q 1578 4219 1281 4162 
Q 984 4106 628 3988 
L 628 4550 
Q 988 4650 1302 4700 
Q 1616 4750 1894 4750 
Q 2613 4750 3031 4423 
Q 3450 4097 3450 3541 
Q 3450 3153 3228 2886 
Q 3006 2619 2597 2516 
z
" transform="scale(0.015625)"/>
       </defs>
       <use xlink:href="#DejaVuSans-33"/>
       <use xlink:href="#DejaVuSans-30" transform="translate(63.623047 0)"/>
       <use xlink:href="#DejaVuSans-25" transform="translate(127.246094 0)"/>
      </g>
     </g>
    </g>
   </g>
   <g id="line2d_9">
    <path d="M 482.656 358.792 
L 354.209209 205.37191 
L 139.50915 239.020846 
L 194.459433 438.639436 
L 356.832851 520.286831 
L 482.656 358.792 
" clip-path="url(#p1a89bc5c8d)" style="fill: none; stroke: #e57373; stroke-width: 2; stroke-linecap: square"/>
    <defs>
     <path id="m6392175b2d" d="M 0 3 
C 0.795609 3 1.55874 2.683901 2.12132 2.12132 
C 2.683901 1.55874 3 0.795609 3 0 
C 3 -0.795609 2.683901 -1.55874 2.12132 -2.12132 
C 1.55874 -2.683901 0.795609 -3 0 -3 
C -0.795609 -3 -1.55874 -2.683901 -2.12132 -2.12132 
C -2.683901 -1.55874 -3 -0.795609 -3 0 
C -3 0.795609 -2.683901 1.55874 -2.12132 2.12132 
C -1.55874 2.683901 -0.795609 3 0 3 
z
" style="stroke: #e57373"/>
    </defs>
    <g clip-path="url(#p1a89bc5c8d)">
     <use xlink:href="#m6392175b2d" x="482.656" y="358.792" style="fill: #e57373; stroke: #e57373"/>
     <use xlink:href="#m6392175b2d" x="354.209209" y="205.37191" style="fill: #e57373; stroke: #e57373"/>
     <use xlink:href="#m6392175b2d" x="139.50915" y="239.020846" style="fill: #e57373; stroke: #e57373"/>
     <use xlink:href="#m6392175b2d" x="194.459433" y="438.639436" style="fill: #e57373; stroke: #e57373"/>
     <use xlink:href="#m6392175b2d" x="356.832851" y="520.286831" style="fill: #e57373; stroke: #e57373"/>
     <use xlink:href="#m6392175b2d" x="482.656" y="358.792" style="fill: #e57373; stroke: #e57373"/>
    </g>
   </g>
   <g id="line2d_10">
    <path d="M 457.185143 358.792 
L 362.080137 181.147686 
L 166.984291 258.982705 
L 153.246721 468.582224 
L 351.585566 504.137348 
L 457.185143 358.792 
" clip-path="url(#p1a89bc5c8d)" style="fill: none; stroke: #64b5f6; stroke-width: 2; stroke-linecap: square"/>
    <defs>
     <path id="m95dfde095c" d="M 0 3 
C 0.795609 3 1.55874 2.683901 2.12132 2.12132 
C 2.683901 1.55874 3 0.795609 3 0 
C 3 -0.795609 2.683901 -1.55874 2.12132 -2.12132 
C 1.55874 -2.683901 0.795609 -3 0 -3 
C -0.795609 -3 -1.55874 -2.683901 -2.12132 -2.12132 
C -2.683901 -1.55874 -3 -0.795609 -3 0 
C -3 0.795609 -2.683901 1.55874 -2.12132 2.12132 
C -1.55874 2.683901 -0.795609 3 0 3 
z
" style="stroke: #64b5f6"/>
    </defs>
    <g clip-path="url(#p1a89bc5c8d)">
     <use xlink:href="#m95dfde095c" x="457.185143" y="358.792" style="fill: #64b5f6; stroke: #64b5f6"/>
     <use xlink:href="#m95dfde095c" x="362.080137" y="181.147686" style="fill: #64b5f6; stroke: #64b5f6"/>
     <use xlink:href="#m95dfde095c" x="166.984291" y="258.982705" style="fill: #64b5f6; stroke: #64b5f6"/>
     <use xlink:href="#m95dfde095c" x="153.246721" y="468.582224" style="fill: #64b5f6; stroke: #64b5f6"/>
     <use xlink:href="#m95dfde095c" x="351.585566" y="504.137348" style="fill: #64b5f6; stroke: #64b5f6"/>
     <use xlink:href="#m95dfde095c" x="457.185143" y="358.792" style="fill: #64b5f6; stroke: #64b5f6"/>
    </g>
   </g>
   <g id="line2d_11">
    <path d="M 474.165714 358.792 
L 356.832851 197.297169 
L 153.246721 249.001776 
L 180.721862 448.620365 
L 356.832851 520.286831 
L 474.165714 358.792 
" clip-path="url(#p1a89bc5c8d)" style="fill: none; stroke: #81c784; stroke-width: 2; stroke-linecap: square"/>
    <defs>
     <path id="mac15987c7d" d="M 0 3 
C 0.795609 3 1.55874 2.683901 2.12132 2.12132 
C 2.683901 1.55874 3 0.795609 3 0 
C 3 -0.795609 2.683901 -1.55874 2.12132 -2.12132 
C 1.55874 -2.683901 0.795609 -3 0 -3 
C -0.795609 -3 -1.55874 -2.683901 -2.12132 -2.12132 
C -2.683901 -1.55874 -3 -0.795609 -3 0 
C -3 0.795609 -2.683901 1.55874 -2.12132 2.12132 
C -1.55874 2.683901 -0.795609 3 0 3 
z
" style="stroke: #81c784"/>
    </defs>
    <g clip-path="url(#p1a89bc5c8d)">
     <use xlink:href="#mac15987c7d" x="474.165714" y="358.792" style="fill: #81c784; stroke: #81c784"/>
     <use xlink:href="#mac15987c7d" x="356.832851" y="197.297169" style="fill: #81c784; stroke: #81c784"/>
     <use xlink:href="#mac15987c7d" x="153.246721" y="249.001776" style="fill: #81c784; stroke: #81c784"/>
     <use xlink:href="#mac15987c7d" x="180.721862" y="448.620365" style="fill: #81c784; stroke: #81c784"/>
     <use xlink:href="#mac15987c7d" x="356.832851" y="520.286831" style="fill: #81c784; stroke: #81c784"/>
     <use xlink:href="#mac15987c7d" x="474.165714" y="358.792" style="fill: #81c784; stroke: #81c784"/>
    </g>
   </g>
   <g id="line2d_12">
    <path d="M 491.146286 358.792 
L 351.585566 213.446652 
L 180.721862 268.963635 
L 139.50915 478.563154 
L 351.585566 504.137348 
L 491.146286 358.792 
" clip-path="url(#p1a89bc5c8d)" style="fill: none; stroke: #ffd54f; stroke-width: 2; stroke-linecap: square"/>
    <defs>
     <path id="md091a31ace" d="M 0 3 
C 0.795609 3 1.55874 2.683901 2.12132 2.12132 
C 2.683901 1.55874 3 0.795609 3 0 
C 3 -0.795609 2.683901 -1.55874 2.12132 -2.12132 
C 1.55874 -2.683901 0.795609 -3 0 -3 
C -0.795609 -3 -1.55874 -2.683901 -2.12132 -2.12132 
C -2.683901 -1.55874 -3 -0.795609 -3 0 
C -3 0.795609 -2.683901 1.55874 -2.12132 2.12132 
C -1.55874 2.683901 -0.795609 3 0 3 
z
" style="stroke: #ffd54f"/>
    </defs>
    <g clip-path="url(#p1a89bc5c8d)">
     <use xlink:href="#md091a31ace" x="491.146286" y="358.792" style="fill: #ffd54f; stroke: #ffd54f"/>
     <use xlink:href="#md091a31ace" x="351.585566" y="213.446652" style="fill: #ffd54f; stroke: #ffd54f"/>
     <use xlink:href="#md091a31ace" x="180.721862" y="268.963635" style="fill: #ffd54f; stroke: #ffd54f"/>
     <use xlink:href="#md091a31ace" x="139.50915" y="478.563154" style="fill: #ffd54f; stroke: #ffd54f"/>
     <use xlink:href="#md091a31ace" x="351.585566" y="504.137348" style="fill: #ffd54f; stroke: #ffd54f"/>
     <use xlink:href="#md091a31ace" x="491.146286" y="358.792" style="fill: #ffd54f; stroke: #ffd54f"/>
    </g>
   </g>
   <g id="patch_7">
    <path d="M 601.52 358.792 
C 601.52 319.769306 593.83338 281.126059 578.900042 245.073791 
C 563.966704 209.021523 542.077062 176.26136 514.483851 148.668149 
C 486.89064 121.074938 454.130477 99.185296 418.078209 84.251958 
C 382.025941 69.31862 343.382694 61.632 304.36 61.632 
C 265.337306 61.632 226.694059 69.31862 190.641791 84.251958 
C 154.589523 99.185296 121.82936 121.074938 94.236149 148.668149 
C 66.642938 176.26136 44.753296 209.021523 29.819958 245.073791 
C 14.88662 281.126059 7.2 319.769306 7.2 358.792 
C 7.2 397.814694 14.88662 436.457941 29.819958 472.510209 
C 44.753296 508.562477 66.642938 541.32264 94.236149 568.915851 
C 121.82936 596.509062 154.589523 618.398704 190.641791 633.332042 
C 226.694059 648.26538 265.337306 655.952 304.36 655.952 
C 343.382694 655.952 382.025941 648.26538 418.078209 633.332042 
C 454.130477 618.398704 486.89064 596.509062 514.483851 568.915851 
C 542.077062 541.32264 563.966704 508.562477 578.900042 472.510209 
C 593.83338 436.457941 601.52 397.814694 601.52 358.792 
" style="fill: none; stroke: #000000; stroke-width: 0.8; stroke-linejoin: miter; stroke-linecap: square"/>
   </g>
   <g id="text_9">
    <!-- PFI Component Distribution by Provider -->
    <g transform="translate(146.730937 25.845688) scale(0.14 -0.14)">
     <defs>
      <path id="DejaVuSans-Bold-50" d="M 588 4666 
L 2584 4666 
Q 3475 4666 3951 4270 
Q 4428 3875 4428 3144 
Q 4428 2409 3951 2014 
Q 3475 1619 2584 1619 
L 1791 1619 
L 1791 0 
L 588 0 
L 588 4666 
z
M 1791 3794 
L 1791 2491 
L 2456 2491 
Q 2806 2491 2997 2661 
Q 3188 2831 3188 3144 
Q 3188 3456 2997 3625 
Q 2806 3794 2456 3794 
L 1791 3794 
z
" transform="scale(0.015625)"/>
      <path id="DejaVuSans-Bold-46" d="M 588 4666 
L 3834 4666 
L 3834 3756 
L 1791 3756 
L 1791 2888 
L 3713 2888 
L 3713 1978 
L 1791 1978 
L 1791 0 
L 588 0 
L 588 4666 
z
" transform="scale(0.015625)"/>
      <path id="DejaVuSans-Bold-49" d="M 588 4666 
L 1791 4666 
L 1791 0 
L 588 0 
L 588 4666 
z
" transform="scale(0.015625)"/>
      <path id="DejaVuSans-Bold-20" transform="scale(0.015625)"/>
      <path id="DejaVuSans-Bold-62" d="M 2400 722 
Q 2759 722 2948 984 
Q 3138 1247 3138 1747 
Q 3138 2247 2948 2509 
Q 2759 2772 2400 2772 
Q 2041 2772 1848 2508 
Q 1656 2244 1656 1747 
Q 1656 1250 1848 986 
Q 2041 722 2400 722 
z
M 1656 2988 
Q 1888 3294 2169 3439 
Q 2450 3584 2816 3584 
Q 3463 3584 3878 3070 
Q 4294 2556 4294 1747 
Q 4294 938 3878 423 
Q 3463 -91 2816 -91 
Q 2450 -91 2169 54 
Q 1888 200 1656 506 
L 1656 0 
L 538 0 
L 538 4863 
L 1656 4863 
L 1656 2988 
z
" transform="scale(0.015625)"/>
      <path id="DejaVuSans-Bold-76" d="M 97 3500 
L 1216 3500 
L 2088 1081 
L 2956 3500 
L 4078 3500 
L 2700 0 
L 1472 0 
L 97 3500 
z
" transform="scale(0.015625)"/>
     </defs>
     <use xlink:href="#DejaVuSans-Bold-50"/>
     <use xlink:href="#DejaVuSans-Bold-46" transform="translate(73.291016 0)"/>
     <use xlink:href="#DejaVuSans-Bold-49" transform="translate(141.601562 0)"/>
     <use xlink:href="#DejaVuSans-Bold-20" transform="translate(178.808594 0)"/>
     <use xlink:href="#DejaVuSans-Bold-43" transform="translate(213.623047 0)"/>
     <use xlink:href="#DejaVuSans-Bold-6f" transform="translate(287.011719 0)"/>
     <use xlink:href="#DejaVuSans-Bold-6d" transform="translate(355.712891 0)"/>
     <use xlink:href="#DejaVuSans-Bold-70" transform="translate(459.912109 0)"/>
     <use xlink:href="#DejaVuSans-Bold-6f" transform="translate(531.494141 0)"/>
     <use xlink:href="#DejaVuSans-Bold-6e" transform="translate(600.195312 0)"/>
     <use xlink:href="#DejaVuSans-Bold-65" transform="translate(671.386719 0)"/>
     <use xlink:href="#DejaVuSans-Bold-6e" transform="translate(739.208984 0)"/>
     <use xlink:href="#DejaVuSans-Bold-74" transform="translate(810.400391 0)"/>
     <use xlink:href="#DejaVuSans-Bold-20" transform="translate(858.203125 0)"/>
     <use xlink:href="#DejaVuSans-Bold-44" transform="translate(893.017578 0)"/>
     <use xlink:href="#DejaVuSans-Bold-69" transform="translate(976.025391 0)"/>
     <use xlink:href="#DejaVuSans-Bold-73" transform="translate(1010.302734 0)"/>
     <use xlink:href="#DejaVuSans-Bold-74" transform="translate(1069.824219 0)"/>
     <use xlink:href="#DejaVuSans-Bold-72" transform="translate(1117.626953 0)"/>
     <use xlink:href="#DejaVuSans-Bold-69" transform="translate(1166.943359 0)"/>
     <use xlink:href="#DejaVuSans-Bold-62" transform="translate(1201.220703 0)"/>
     <use xlink:href="#DejaVuSans-Bold-75" transform="translate(1272.802734 0)"/>
     <use xlink:href="#DejaVuSans-Bold-74" transform="translate(1343.994141 0)"/>
     <use xlink:href="#DejaVuSans-Bold-69" transform="translate(1391.796875 0)"/>
     <use xlink:href="#DejaVuSans-Bold-6f" transform="translate(1426.074219 0)"/>
     <use xlink:href="#DejaVuSans-Bold-6e" transform="translate(1494.775391 0)"/>
     <use xlink:href="#DejaVuSans-Bold-20" transform="translate(1565.966797 0)"/>
     <use xlink:href="#DejaVuSans-Bold-62" transform="translate(1600.78125 0)"/>
     <use xlink:href="#DejaVuSans-Bold-79" transform="translate(1672.363281 0)"/>
     <use xlink:href="#DejaVuSans-Bold-20" transform="translate(1737.548828 0)"/>
     <use xlink:href="#DejaVuSans-Bold-50" transform="translate(1772.363281 0)"/>
     <use xlink:href="#DejaVuSans-Bold-72" transform="translate(1845.654297 0)"/>
     <use xlink:href="#DejaVuSans-Bold-6f" transform="translate(1894.970703 0)"/>
     <use xlink:href="#DejaVuSans-Bold-76" transform="translate(1963.671875 0)"/>
     <use xlink:href="#DejaVuSans-Bold-69" transform="translate(2028.857422 0)"/>
     <use xlink:href="#DejaVuSans-Bold-64" transform="translate(2063.134766 0)"/>
     <use xlink:href="#DejaVuSans-Bold-65" transform="translate(2134.716797 0)"/>
     <use xlink:href="#DejaVuSans-Bold-72" transform="translate(2202.539062 0)"/>
    </g>
    <!-- (Identity Dimension Weights) -->
    <g transform="translate(188.373281 41.632) scale(0.14 -0.14)">
     <defs>
      <path id="DejaVuSans-Bold-57" d="M 191 4666 
L 1344 4666 
L 2150 1275 
L 2950 4666 
L 4109 4666 
L 4909 1275 
L 5716 4666 
L 6859 4666 
L 5759 0 
L 4372 0 
L 3525 3547 
L 2688 0 
L 1300 0 
L 191 4666 
z
" transform="scale(0.015625)"/>
     </defs>
     <use xlink:href="#DejaVuSans-Bold-28"/>
     <use xlink:href="#DejaVuSans-Bold-49" transform="translate(45.703125 0)"/>
     <use xlink:href="#DejaVuSans-Bold-64" transform="translate(82.910156 0)"/>
     <use xlink:href="#DejaVuSans-Bold-65" transform="translate(154.492188 0)"/>
     <use xlink:href="#DejaVuSans-Bold-6e" transform="translate(222.314453 0)"/>
     <use xlink:href="#DejaVuSans-Bold-74" transform="translate(293.505859 0)"/>
     <use xlink:href="#DejaVuSans-Bold-69" transform="translate(341.308594 0)"/>
     <use xlink:href="#DejaVuSans-Bold-74" transform="translate(375.585938 0)"/>
     <use xlink:href="#DejaVuSans-Bold-79" transform="translate(423.388672 0)"/>
     <use xlink:href="#DejaVuSans-Bold-20" transform="translate(488.574219 0)"/>
     <use xlink:href="#DejaVuSans-Bold-44" transform="translate(523.388672 0)"/>
     <use xlink:href="#DejaVuSans-Bold-69" transform="translate(606.396484 0)"/>
     <use xlink:href="#DejaVuSans-Bold-6d" transform="translate(640.673828 0)"/>
     <use xlink:href="#DejaVuSans-Bold-65" transform="translate(744.873047 0)"/>
     <use xlink:href="#DejaVuSans-Bold-6e" transform="translate(812.695312 0)"/>
     <use xlink:href="#DejaVuSans-Bold-73" transform="translate(883.886719 0)"/>
     <use xlink:href="#DejaVuSans-Bold-69" transform="translate(943.408203 0)"/>
     <use xlink:href="#DejaVuSans-Bold-6f" transform="translate(977.685547 0)"/>
     <use xlink:href="#DejaVuSans-Bold-6e" transform="translate(1046.386719 0)"/>
     <use xlink:href="#DejaVuSans-Bold-20" transform="translate(1117.578125 0)"/>
     <use xlink:href="#DejaVuSans-Bold-57" transform="translate(1152.392578 0)"/>
     <use xlink:href="#DejaVuSans-Bold-65" transform="translate(1259.070312 0)"/>
     <use xlink:href="#DejaVuSans-Bold-69" transform="translate(1326.892578 0)"/>
     <use xlink:href="#DejaVuSans-Bold-67" transform="translate(1361.169922 0)"/>
     <use xlink:href="#DejaVuSans-Bold-68" transform="translate(1432.751953 0)"/>
     <use xlink:href="#DejaVuSans-Bold-74" transform="translate(1503.943359 0)"/>
     <use xlink:href="#DejaVuSans-Bold-73" transform="translate(1551.746094 0)"/>
     <use xlink:href="#DejaVuSans-Bold-29" transform="translate(1611.267578 0)"/>
    </g>
   </g>
   <g id="legend_1">
    <g id="patch_8">
     <path d="M 645.848062 68.9125 
L 713.384 68.9125 
Q 715.384 68.9125 715.384 66.9125 
L 715.384 9.2 
Q 715.384 7.2 713.384 7.2 
L 645.848062 7.2 
Q 643.848062 7.2 643.848062 9.2 
L 643.848062 66.9125 
Q 643.848062 68.9125 645.848062 68.9125 
z
" style="fill: #ffffff; opacity: 0.8; stroke: #cccccc; stroke-linejoin: miter"/>
    </g>
    <g id="line2d_13">
     <path d="M 647.848062 15.298438 
L 657.848062 15.298438 
L 667.848062 15.298438 
" style="fill: none; stroke: #e57373; stroke-width: 2; stroke-linecap: square"/>
     <g>
      <use xlink:href="#m6392175b2d" x="657.848062" y="15.298438" style="fill: #e57373; stroke: #e57373"/>
     </g>
    </g>
    <g id="text_10">
     <!-- Claude -->
     <g transform="translate(675.848062 18.798438) scale(0.1 -0.1)">
      <defs>
       <path id="DejaVuSans-43" d="M 4122 4306 
L 4122 3641 
Q 3803 3938 3442 4084 
Q 3081 4231 2675 4231 
Q 1875 4231 1450 3742 
Q 1025 3253 1025 2328 
Q 1025 1406 1450 917 
Q 1875 428 2675 428 
Q 3081 428 3442 575 
Q 3803 722 4122 1019 
L 4122 359 
Q 3791 134 3420 21 
Q 3050 -91 2638 -91 
Q 1578 -91 968 557 
Q 359 1206 359 2328 
Q 359 3453 968 4101 
Q 1578 4750 2638 4750 
Q 3056 4750 3426 4639 
Q 3797 4528 4122 4306 
z
" transform="scale(0.015625)"/>
       <path id="DejaVuSans-6c" d="M 603 4863 
L 1178 4863 
L 1178 0 
L 603 0 
L 603 4863 
z
" transform="scale(0.015625)"/>
       <path id="DejaVuSans-61" d="M 2194 1759 
Q 1497 1759 1228 1600 
Q 959 1441 959 1056 
Q 959 750 1161 570 
Q 1363 391 1709 391 
Q 2188 391 2477 730 
Q 2766 1069 2766 1631 
L 2766 1759 
L 2194 1759 
z
M 3341 1997 
L 3341 0 
L 2766 0 
L 2766 531 
Q 2569 213 2275 61 
Q 1981 -91 1556 -91 
Q 1019 -91 701 211 
Q 384 513 384 1019 
Q 384 1609 779 1909 
Q 1175 2209 1959 2209 
L 2766 2209 
L 2766 2266 
Q 2766 2663 2505 2880 
Q 2244 3097 1772 3097 
Q 1472 3097 1187 3025 
Q 903 2953 641 2809 
L 641 3341 
Q 956 3463 1253 3523 
Q 1550 3584 1831 3584 
Q 2591 3584 2966 3190 
Q 3341 2797 3341 1997 
z
" transform="scale(0.015625)"/>
       <path id="DejaVuSans-75" d="M 544 1381 
L 544 3500 
L 1119 3500 
L 1119 1403 
Q 1119 906 1312 657 
Q 1506 409 1894 409 
Q 2359 409 2629 706 
Q 2900 1003 2900 1516 
L 2900 3500 
L 3475 3500 
L 3475 0 
L 2900 0 
L 2900 538 
Q 2691 219 2414 64 
Q 2138 -91 1772 -91 
Q 1169 -91 856 284 
Q 544 659 544 1381 
z
M 1991 3584 
L 1991 3584 
z
" transform="scale(0.015625)"/>
       <path id="DejaVuSans-64" d="M 2906 2969 
L 2906 4863 
L 3481 4863 
L 3481 0 
L 2906 0 
L 2906 525 
Q 2725 213 2448 61 
Q 2172 -91 1784 -91 
Q 1150 -91 751 415 
Q 353 922 353 1747 
Q 353 2572 751 3078 
Q 1150 3584 1784 3584 
Q 2172 3584 2448 3432 
Q 2725 3281 2906 2969 
z
M 947 1747 
Q 947 1113 1208 752 
Q 1469 391 1925 391 
Q 2381 391 2643 752 
Q 2906 1113 2906 1747 
Q 2906 2381 2643 2742 
Q 2381 3103 1925 3103 
Q 1469 3103 1208 2742 
Q 947 2381 947 1747 
z
" transform="scale(0.015625)"/>
       <path id="DejaVuSans-65" d="M 3597 1894 
L 3597 1613 
L 953 1613 
Q 991 1019 1311 708 
Q 1631 397 2203 397 
Q 2534 397 2845 478 
Q 3156 559 3463 722 
L 3463 178 
Q 3153 47 2828 -22 
Q 2503 -91 2169 -91 
Q 1331 -91 842 396 
Q 353 884 353 1716 
Q 353 2575 817 3079 
Q 1281 3584 2069 3584 
Q 2775 3584 3186 3129 
Q 3597 2675 3597 1894 
z
M 3022 2063 
Q 3016 2534 2758 2815 
Q 2500 3097 2075 3097 
Q 1594 3097 1305 2825 
Q 1016 2553 972 2059 
L 3022 2063 
z
" transform="scale(0.015625)"/>
      </defs>
      <use xlink:href="#DejaVuSans-43"/>
      <use xlink:href="#DejaVuSans-6c" transform="translate(69.824219 0)"/>
      <use xlink:href="#DejaVuSans-61" transform="translate(97.607422 0)"/>
      <use xlink:href="#DejaVuSans-75" transform="translate(158.886719 0)"/>
      <use xlink:href="#DejaVuSans-64" transform="translate(222.265625 0)"/>
      <use xlink:href="#DejaVuSans-65" transform="translate(285.742188 0)"/>
     </g>
    </g>
    <g id="line2d_14">
     <path d="M 647.848062 29.976563 
L 657.848062 29.976563 
L 667.848062 29.976563 
" style="fill: none; stroke: #64b5f6; stroke-width: 2; stroke-linecap: square"/>
     <g>
      <use xlink:href="#m95dfde095c" x="657.848062" y="29.976563" style="fill: #64b5f6; stroke: #64b5f6"/>
     </g>
    </g>
    <g id="text_11">
     <!-- GPT -->
     <g transform="translate(675.848062 33.476563) scale(0.1 -0.1)">
      <defs>
       <path id="DejaVuSans-47" d="M 3809 666 
L 3809 1919 
L 2778 1919 
L 2778 2438 
L 4434 2438 
L 4434 434 
Q 4069 175 3628 42 
Q 3188 -91 2688 -91 
Q 1594 -91 976 548 
Q 359 1188 359 2328 
Q 359 3472 976 4111 
Q 1594 4750 2688 4750 
Q 3144 4750 3555 4637 
Q 3966 4525 4313 4306 
L 4313 3634 
Q 3963 3931 3569 4081 
Q 3175 4231 2741 4231 
Q 1884 4231 1454 3753 
Q 1025 3275 1025 2328 
Q 1025 1384 1454 906 
Q 1884 428 2741 428 
Q 3075 428 3337 486 
Q 3600 544 3809 666 
z
" transform="scale(0.015625)"/>
       <path id="DejaVuSans-50" d="M 1259 4147 
L 1259 2394 
L 2053 2394 
Q 2494 2394 2734 2622 
Q 2975 2850 2975 3272 
Q 2975 3691 2734 3919 
Q 2494 4147 2053 4147 
L 1259 4147 
z
M 628 4666 
L 2053 4666 
Q 2838 4666 3239 4311 
Q 3641 3956 3641 3272 
Q 3641 2581 3239 2228 
Q 2838 1875 2053 1875 
L 1259 1875 
L 1259 0 
L 628 0 
L 628 4666 
z
" transform="scale(0.015625)"/>
       <path id="DejaVuSans-54" d="M -19 4666 
L 3928 4666 
L 3928 4134 
L 2272 4134 
L 2272 0 
L 1638 0 
L 1638 4134 
L -19 4134 
L -19 4666 
z
" transform="scale(0.015625)"/>
      </defs>
      <use xlink:href="#DejaVuSans-47"/>
      <use xlink:href="#DejaVuSans-50" transform="translate(77.490234 0)"/>
      <use xlink:href="#DejaVuSans-54" transform="translate(137.792969 0)"/>
     </g>
    </g>
    <g id="line2d_15">
     <path d="M 647.848062 44.654688 
L 657.848062 44.654688 
L 667.848062 44.654688 
" style="fill: none; stroke: #81c784; stroke-width: 2; stroke-linecap: square"/>
     <g>
      <use xlink:href="#mac15987c7d" x="657.848062" y="44.654688" style="fill: #81c784; stroke: #81c784"/>
     </g>
    </g>
    <g id="text_12">
     <!-- Gemini -->
     <g transform="translate(675.848062 48.154688) scale(0.1 -0.1)">
      <defs>
       <path id="DejaVuSans-6d" d="M 3328 2828 
Q 3544 3216 3844 3400 
Q 4144 3584 4550 3584 
Q 5097 3584 5394 3201 
Q 5691 2819 5691 2113 
L 5691 0 
L 5113 0 
L 5113 2094 
Q 5113 2597 4934 2840 
Q 4756 3084 4391 3084 
Q 3944 3084 3684 2787 
Q 3425 2491 3425 1978 
L 3425 0 
L 2847 0 
L 2847 2094 
Q 2847 2600 2669 2842 
Q 2491 3084 2119 3084 
Q 1678 3084 1418 2786 
Q 1159 2488 1159 1978 
L 1159 0 
L 581 0 
L 581 3500 
L 1159 3500 
L 1159 2956 
Q 1356 3278 1631 3431 
Q 1906 3584 2284 3584 
Q 2666 3584 2933 3390 
Q 3200 3197 3328 2828 
z
" transform="scale(0.015625)"/>
       <path id="DejaVuSans-69" d="M 603 3500 
L 1178 3500 
L 1178 0 
L 603 0 
L 603 3500 
z
M 603 4863 
L 1178 4863 
L 1178 4134 
L 603 4134 
L 603 4863 
z
" transform="scale(0.015625)"/>
       <path id="DejaVuSans-6e" d="M 3513 2113 
L 3513 0 
L 2938 0 
L 2938 2094 
Q 2938 2591 2744 2837 
Q 2550 3084 2163 3084 
Q 1697 3084 1428 2787 
Q 1159 2491 1159 1978 
L 1159 0 
L 581 0 
L 581 3500 
L 1159 3500 
L 1159 2956 
Q 1366 3272 1645 3428 
Q 1925 3584 2291 3584 
Q 2894 3584 3203 3211 
Q 3513 2838 3513 2113 
z
" transform="scale(0.015625)"/>
      </defs>
      <use xlink:href="#DejaVuSans-47"/>
      <use xlink:href="#DejaVuSans-65" transform="translate(77.490234 0)"/>
      <use xlink:href="#DejaVuSans-6d" transform="translate(139.013672 0)"/>
      <use xlink:href="#DejaVuSans-69" transform="translate(236.425781 0)"/>
      <use xlink:href="#DejaVuSans-6e" transform="translate(264.208984 0)"/>
      <use xlink:href="#DejaVuSans-69" transform="translate(327.587891 0)"/>
     </g>
    </g>
    <g id="line2d_16">
     <path d="M 647.848062 59.332813 
L 657.848062 59.332813 
L 667.848062 59.332813 
" style="fill: none; stroke: #ffd54f; stroke-width: 2; stroke-linecap: square"/>
     <g>
      <use xlink:href="#md091a31ace" x="657.848062" y="59.332813" style="fill: #ffd54f; stroke: #ffd54f"/>
     </g>
    </g>
    <g id="text_13">
     <!-- Grok -->
     <g transform="translate(675.848062 62.832813) scale(0.1 -0.1)">
      <defs>
       <path id="DejaVuSans-72" d="M 2631 2963 
Q 2534 3019 2420 3045 
Q 2306 3072 2169 3072 
Q 1681 3072 1420 2755 
Q 1159 2438 1159 1844 
L 1159 0 
L 581 0 
L 581 3500 
L 1159 3500 
L 1159 2956 
Q 1341 3275 1631 3429 
Q 1922 3584 2338 3584 
Q 2397 3584 2469 3576 
Q 2541 3569 2628 3553 
L 2631 2963 
z
" transform="scale(0.015625)"/>
       <path id="DejaVuSans-6f" d="M 1959 3097 
Q 1497 3097 1228 2736 
Q 959 2375 959 1747 
Q 959 1119 1226 758 
Q 1494 397 1959 397 
Q 2419 397 2687 759 
Q 2956 1122 2956 1747 
Q 2956 2369 2687 2733 
Q 2419 3097 1959 3097 
z
M 1959 3584 
Q 2709 3584 3137 3096 
Q 3566 2609 3566 1747 
Q 3566 888 3137 398 
Q 2709 -91 1959 -91 
Q 1206 -91 779 398 
Q 353 888 353 1747 
Q 353 2609 779 3096 
Q 1206 3584 1959 3584 
z
" transform="scale(0.015625)"/>
       <path id="DejaVuSans-6b" d="M 581 4863 
L 1159 4863 
L 1159 1991 
L 2875 3500 
L 3609 3500 
L 1753 1863 
L 3688 0 
L 2938 0 
L 1159 1709 
L 1159 0 
L 581 0 
L 581 4863 
z
" transform="scale(0.015625)"/>
      </defs>
      <use xlink:href="#DejaVuSans-47"/>
      <use xlink:href="#DejaVuSans-72" transform="translate(77.490234 0)"/>
      <use xlink:href="#DejaVuSans-6f" transform="translate(116.353516 0)"/>
      <use xlink:href="#DejaVuSans-6b" transform="translate(177.535156 0)"/>
     </g>
    </g>
   </g>
  </g>
 </g>
 <defs>
  <clipPath id="p1a89bc5c8d">
   <path d="M 601.52 358.792 
C 601.52 319.769306 593.83338 281.126059 578.900042 245.073791 
C 563.966704 209.021523 542.077062 176.26136 514.483851 148.668149 
C 486.89064 121.074938 454.130477 99.185296 418.078209 84.251958 
C 382.025941 69.31862 343.382694 61.632 304.36 61.632 
C 265.337306 61.632 226.694059 69.31862 190.641791 84.251958 
C 154.589523 99.185296 121.82936 121.074938 94.236149 148.668149 
C 66.642938 176.26136 44.753296 209.021523 29.819958 245.073791 
C 14.88662 281.126059 7.2 319.769306 7.2 358.792 
C 7.2 397.814694 14.88662 436.457941 29.819958 472.510209 
C 44.753296 508.562477 66.642938 541.32264 94.236149 568.915851 
C 121.82936 596.509062 154.589523 618.398704 190.641791 633.332042 
C 226.694059 648.26538 265.337306 655.952 304.36 655.952 
C 343.382694 655.952 382.025941 648.26538 418.078209 633.332042 
C 454.130477 618.398704 486.89064 596.509062 514.483851 568.915851 
C 542.077062 541.32264 563.966704 508.562477 578.900042 472.510209 
C 593.83338 436.457941 601.52 397.814694 601.52 358.792 
M 304.36 358.792 
C 304.36 358.792 304.36 358.792 304.36 358.792 
C 304.36 358.792 304.36 358.792 304.36 358.792 
C 304.36 358.792 304.36 358.792 304.36 358.792 
C 304.36 358.792 304.36 358.792 304.36 358.792 
C 304.36 358.792 304.36 358.792 304.36 358.792 
C 304.36 358.792 304.36 358.792 304.36 358.792 
C 304.36 358.792 304.36 358.792 304.36 358.792 
C 304.36 358.792 304.36 358.792 304.36 358.792 
C 304.36 358.792 304.36 358.792 304.36 358.792 
C 304.36 358.792 304.36 358.792 304.36 358.792 
C 304.36 358.792 304.36 358.792 304.36 358.792 
C 304.36 358.792 304.36 358.792 304.36 358.792 
C 304.36 358.792 304.36 358.792 304.36 358.792 
C 304.36 358.792 304.36 358.792 304.36 358.792 
C 304.36 358.792 304.36 358.792 304.36 358.792 
C 304.36 358.792 304.36 358.792 304.36 358.792 
z
"/>
  </clipPath>
 </defs>
</svg>
