<?xml version="1.0" encoding="utf-8" standalone="no"?>
<!DOCTYPE svg PUBLIC "-//W3C//DTD SVG 1.1//EN"
  "http://www.w3.org/Graphics/SVG/1.1/DTD/svg11.dtd">
<svg xmlns:xlink="http://www.w3.org/1999/xlink" width="855.620312pt" height="568.430062pt" viewBox="0 0 855.620312 568.430062" xmlns="http://www.w3.org/2000/svg" version="1.1">
 <metadata>
  <rdf:RDF xmlns:dc="http://purl.org/dc/elements/1.1/" xmlns:cc="http://creativecommons.org/ns#" xmlns:rdf="http://www.w3.org/1999/02/22-rdf-syntax-ns#">
   <cc:Work>
    <dc:type rdf:resource="http://purl.org/dc/dcmitype/StillImage"/>
    <dc:date>2025-12-22T11:02:05.798208</dc:date>
    <dc:format>image/svg+xml</dc:format>
    <dc:creator>
     <cc:Agent>
      <dc:title>Matplotlib v3.10.7, https://matplotlib.org/</dc:title>
     </cc:Agent>
    </dc:creator>
   </cc:Work>
  </rdf:RDF>
 </metadata>
 <defs>
  <style type="text/css">*{stroke-linejoin: round; stroke-linecap: butt}</style>
 </defs>
 <g id="figure_1">
  <g id="patch_1">
   <path d="M 0 568.430062 
L 855.620312 568.430062 
L 855.620312 0 
L 0 0 
z
" style="fill: #ffffff"/>
  </g>
  <g id="axes_1">
   <g id="patch_2">
    <path d="M 54.190313 543.584125 
L 848.420313 543.584125 
L 848.420313 39.624125 
L 54.190313 39.624125 
z
" style="fill: #ffffff"/>
   </g>
   <g id="matplotlib.axis_1">
    <g id="xtick_1">
     <g id="line2d_1">
      <defs>
       <path id="m33ac7b98a1" d="M 0 0 
L 0 3.5 
" style="stroke: #000000; stroke-width: 0.8"/>
      </defs>
      <g>
       <use xlink:href="#m33ac7b98a1" x="133.613313" y="543.584125" style="stroke: #000000; stroke-width: 0.8"/>
      </g>
     </g>
     <g id="text_1">
      <!-- ANTHROPIC -->
      <g transform="translate(97.374328 558.942406) scale(0.11 -0.11)">
       <defs>
        <path id="DejaVuSans-Bold-41" d="M 3419 850 
L 1538 850 
L 1241 0 
L 31 0 
L 1759 4666 
L 3194 4666 
L 4922 0 
L 3713 0 
L 3419 850 
z
M 1838 1716 
L 3116 1716 
L 2478 3572 
L 1838 1716 
z
" transform="scale(0.015625)"/>
        <path id="DejaVuSans-Bold-4e" d="M 588 4666 
L 1931 4666 
L 3628 1466 
L 3628 4666 
L 4769 4666 
L 4769 0 
L 3425 0 
L 1728 3200 
L 1728 0 
L 588 0 
L 588 4666 
z
" transform="scale(0.015625)"/>
        <path id="DejaVuSans-Bold-54" d="M 31 4666 
L 4331 4666 
L 4331 3756 
L 2784 3756 
L 2784 0 
L 1581 0 
L 1581 3756 
L 31 3756 
L 31 4666 
z
" transform="scale(0.015625)"/>
        <path id="DejaVuSans-Bold-48" d="M 588 4666 
L 1791 4666 
L 1791 2888 
L 3566 2888 
L 3566 4666 
L 4769 4666 
L 4769 0 
L 3566 0 
L 3566 1978 
L 1791 1978 
L 1791 0 
L 588 0 
L 588 4666 
z
" transform="scale(0.015625)"/>
        <path id="DejaVuSans-Bold-52" d="M 2297 2597 
Q 2675 2597 2839 2737 
Q 3003 2878 3003 3200 
Q 3003 3519 2839 3656 
Q 2675 3794 2297 3794 
L 1791 3794 
L 1791 2597 
L 2297 2597 
z
M 1791 1766 
L 1791 0 
L 588 0 
L 588 4666 
L 2425 4666 
Q 3347 4666 3776 4356 
Q 4206 4047 4206 3378 
Q 4206 2916 3982 2619 
Q 3759 2322 3309 2181 
Q 3556 2125 3751 1926 
Q 3947 1728 4147 1325 
L 4800 0 
L 3519 0 
L 2950 1159 
Q 2778 1509 2601 1637 
Q 2425 1766 2131 1766 
L 1791 1766 
z
" transform="scale(0.015625)"/>
        <path id="DejaVuSans-Bold-4f" d="M 2719 3878 
Q 2169 3878 1866 3472 
Q 1563 3066 1563 2328 
Q 1563 1594 1866 1187 
Q 2169 781 2719 781 
Q 3272 781 3575 1187 
Q 3878 1594 3878 2328 
Q 3878 3066 3575 3472 
Q 3272 3878 2719 3878 
z
M 2719 4750 
Q 3844 4750 4481 4106 
Q 5119 3463 5119 2328 
Q 5119 1197 4481 553 
Q 3844 -91 2719 -91 
Q 1597 -91 958 553 
Q 319 1197 319 2328 
Q 319 3463 958 4106 
Q 1597 4750 2719 4750 
z
" transform="scale(0.015625)"/>
        <path id="DejaVuSans-Bold-50" d="M 588 4666 
L 2584 4666 
Q 3475 4666 3951 4270 
Q 4428 3875 4428 3144 
Q 4428 2409 3951 2014 
Q 3475 1619 2584 1619 
L 1791 1619 
L 1791 0 
L 588 0 
L 588 4666 
z
M 1791 3794 
L 1791 2491 
L 2456 2491 
Q 2806 2491 2997 2661 
Q 3188 2831 3188 3144 
Q 3188 3456 2997 3625 
Q 2806 3794 2456 3794 
L 1791 3794 
z
" transform="scale(0.015625)"/>
        <path id="DejaVuSans-Bold-49" d="M 588 4666 
L 1791 4666 
L 1791 0 
L 588 0 
L 588 4666 
z
" transform="scale(0.015625)"/>
        <path id="DejaVuSans-Bold-43" d="M 4288 256 
Q 3956 84 3597 -3 
Q 3238 -91 2847 -91 
Q 1681 -91 1000 561 
Q 319 1213 319 2328 
Q 319 3447 1000 4098 
Q 1681 4750 2847 4750 
Q 3238 4750 3597 4662 
Q 3956 4575 4288 4403 
L 4288 3438 
Q 3953 3666 3628 3772 
Q 3303 3878 2944 3878 
Q 2300 3878 1931 3465 
Q 1563 3053 1563 2328 
Q 1563 1606 1931 1193 
Q 2300 781 2944 781 
Q 3303 781 3628 887 
Q 3953 994 4288 1222 
L 4288 256 
z
" transform="scale(0.015625)"/>
       </defs>
       <use xlink:href="#DejaVuSans-Bold-41"/>
       <use xlink:href="#DejaVuSans-Bold-4e" transform="translate(77.392578 0)"/>
       <use xlink:href="#DejaVuSans-Bold-54" transform="translate(161.083984 0)"/>
       <use xlink:href="#DejaVuSans-Bold-48" transform="translate(229.296875 0)"/>
       <use xlink:href="#DejaVuSans-Bold-52" transform="translate(312.988281 0)"/>
       <use xlink:href="#DejaVuSans-Bold-4f" transform="translate(389.990234 0)"/>
       <use xlink:href="#DejaVuSans-Bold-50" transform="translate(475 0)"/>
       <use xlink:href="#DejaVuSans-Bold-49" transform="translate(548.291016 0)"/>
       <use xlink:href="#DejaVuSans-Bold-43" transform="translate(585.498047 0)"/>
      </g>
     </g>
    </g>
    <g id="xtick_2">
     <g id="line2d_2">
      <g>
       <use xlink:href="#m33ac7b98a1" x="292.459313" y="543.584125" style="stroke: #000000; stroke-width: 0.8"/>
      </g>
     </g>
     <g id="text_2">
      <!-- GOOGLE -->
      <g transform="translate(266.817281 558.942406) scale(0.11 -0.11)">
       <defs>
        <path id="DejaVuSans-Bold-47" d="M 4781 347 
Q 4331 128 3847 18 
Q 3363 -91 2847 -91 
Q 1681 -91 1000 561 
Q 319 1213 319 2328 
Q 319 3456 1012 4103 
Q 1706 4750 2913 4750 
Q 3378 4750 3804 4662 
Q 4231 4575 4609 4403 
L 4609 3438 
Q 4219 3659 3833 3768 
Q 3447 3878 3059 3878 
Q 2341 3878 1952 3476 
Q 1563 3075 1563 2328 
Q 1563 1588 1938 1184 
Q 2313 781 3003 781 
Q 3191 781 3352 804 
Q 3513 828 3641 878 
L 3641 1784 
L 2906 1784 
L 2906 2591 
L 4781 2591 
L 4781 347 
z
" transform="scale(0.015625)"/>
        <path id="DejaVuSans-Bold-4c" d="M 588 4666 
L 1791 4666 
L 1791 909 
L 3903 909 
L 3903 0 
L 588 0 
L 588 4666 
z
" transform="scale(0.015625)"/>
        <path id="DejaVuSans-Bold-45" d="M 588 4666 
L 3834 4666 
L 3834 3756 
L 1791 3756 
L 1791 2888 
L 3713 2888 
L 3713 1978 
L 1791 1978 
L 1791 909 
L 3903 909 
L 3903 0 
L 588 0 
L 588 4666 
z
" transform="scale(0.015625)"/>
       </defs>
       <use xlink:href="#DejaVuSans-Bold-47"/>
       <use xlink:href="#DejaVuSans-Bold-4f" transform="translate(82.080078 0)"/>
       <use xlink:href="#DejaVuSans-Bold-4f" transform="translate(167.089844 0)"/>
       <use xlink:href="#DejaVuSans-Bold-47" transform="translate(252.099609 0)"/>
       <use xlink:href="#DejaVuSans-Bold-4c" transform="translate(334.179688 0)"/>
       <use xlink:href="#DejaVuSans-Bold-45" transform="translate(397.900391 0)"/>
      </g>
     </g>
    </g>
    <g id="xtick_3">
     <g id="line2d_3">
      <g>
       <use xlink:href="#m33ac7b98a1" x="451.305313" y="543.584125" style="stroke: #000000; stroke-width: 0.8"/>
      </g>
     </g>
     <g id="text_3">
      <!-- OPENAI -->
      <g transform="translate(427.935469 558.942406) scale(0.11 -0.11)">
       <use xlink:href="#DejaVuSans-Bold-4f"/>
       <use xlink:href="#DejaVuSans-Bold-50" transform="translate(85.009766 0)"/>
       <use xlink:href="#DejaVuSans-Bold-45" transform="translate(158.300781 0)"/>
       <use xlink:href="#DejaVuSans-Bold-4e" transform="translate(226.611328 0)"/>
       <use xlink:href="#DejaVuSans-Bold-41" transform="translate(310.302734 0)"/>
       <use xlink:href="#DejaVuSans-Bold-49" transform="translate(387.695312 0)"/>
      </g>
     </g>
    </g>
    <g id="xtick_4">
     <g id="line2d_4">
      <g>
       <use xlink:href="#m33ac7b98a1" x="610.151313" y="543.584125" style="stroke: #000000; stroke-width: 0.8"/>
      </g>
     </g>
     <g id="text_4">
      <!-- TOGETHER -->
      <g transform="translate(577.104906 558.942406) scale(0.11 -0.11)">
       <use xlink:href="#DejaVuSans-Bold-54"/>
       <use xlink:href="#DejaVuSans-Bold-4f" transform="translate(68.212891 0)"/>
       <use xlink:href="#DejaVuSans-Bold-47" transform="translate(153.222656 0)"/>
       <use xlink:href="#DejaVuSans-Bold-45" transform="translate(235.302734 0)"/>
       <use xlink:href="#DejaVuSans-Bold-54" transform="translate(303.613281 0)"/>
       <use xlink:href="#DejaVuSans-Bold-48" transform="translate(371.826172 0)"/>
       <use xlink:href="#DejaVuSans-Bold-45" transform="translate(455.517578 0)"/>
       <use xlink:href="#DejaVuSans-Bold-52" transform="translate(523.828125 0)"/>
      </g>
     </g>
    </g>
    <g id="xtick_5">
     <g id="line2d_5">
      <g>
       <use xlink:href="#m33ac7b98a1" x="768.997313" y="543.584125" style="stroke: #000000; stroke-width: 0.8"/>
      </g>
     </g>
     <g id="text_5">
      <!-- XAI -->
      <g transform="translate(758.4545 558.942406) scale(0.11 -0.11)">
       <defs>
        <path id="DejaVuSans-Bold-58" d="M 3188 2381 
L 4806 0 
L 3553 0 
L 2463 1594 
L 1381 0 
L 122 0 
L 1741 2381 
L 184 4666 
L 1441 4666 
L 2463 3163 
L 3481 4666 
L 4744 4666 
L 3188 2381 
z
" transform="scale(0.015625)"/>
       </defs>
       <use xlink:href="#DejaVuSans-Bold-58"/>
       <use xlink:href="#DejaVuSans-Bold-41" transform="translate(77.099609 0)"/>
       <use xlink:href="#DejaVuSans-Bold-49" transform="translate(154.492188 0)"/>
      </g>
     </g>
    </g>
   </g>
   <g id="matplotlib.axis_2">
    <g id="ytick_1">
     <g id="line2d_6">
      <path d="M 54.190313 465.682399 
L 848.420313 465.682399 
" clip-path="url(#p79e17b4e5e)" style="fill: none; stroke: #b0b0b0; stroke-opacity: 0.3; stroke-width: 0.8; stroke-linecap: square"/>
     </g>
     <g id="line2d_7">
      <defs>
       <path id="mfcff4bacec" d="M 0 0 
L -3.5 0 
" style="stroke: #000000; stroke-width: 0.8"/>
      </defs>
      <g>
       <use xlink:href="#mfcff4bacec" x="54.190313" y="465.682399" style="stroke: #000000; stroke-width: 0.8"/>
      </g>
     </g>
     <g id="text_6">
      <!-- −1.0 -->
      <g transform="translate(22.9075 469.481618) scale(0.1 -0.1)">
       <defs>
        <path id="DejaVuSans-2212" d="M 678 2272 
L 4684 2272 
L 4684 1741 
L 678 1741 
L 678 2272 
z
" transform="scale(0.015625)"/>
        <path id="DejaVuSans-31" d="M 794 531 
L 1825 531 
L 1825 4091 
L 703 3866 
L 703 4441 
L 1819 4666 
L 2450 4666 
L 2450 531 
L 3481 531 
L 3481 0 
L 794 0 
L 794 531 
z
" transform="scale(0.015625)"/>
        <path id="DejaVuSans-2e" d="M 684 794 
L 1344 794 
L 1344 0 
L 684 0 
L 684 794 
z
" transform="scale(0.015625)"/>
        <path id="DejaVuSans-30" d="M 2034 4250 
Q 1547 4250 1301 3770 
Q 1056 3291 1056 2328 
Q 1056 1369 1301 889 
Q 1547 409 2034 409 
Q 2525 409 2770 889 
Q 3016 1369 3016 2328 
Q 3016 3291 2770 3770 
Q 2525 4250 2034 4250 
z
M 2034 4750 
Q 2819 4750 3233 4129 
Q 3647 3509 3647 2328 
Q 3647 1150 3233 529 
Q 2819 -91 2034 -91 
Q 1250 -91 836 529 
Q 422 1150 422 2328 
Q 422 3509 836 4129 
Q 1250 4750 2034 4750 
z
" transform="scale(0.015625)"/>
       </defs>
       <use xlink:href="#DejaVuSans-2212"/>
       <use xlink:href="#DejaVuSans-31" transform="translate(83.789062 0)"/>
       <use xlink:href="#DejaVuSans-2e" transform="translate(147.412109 0)"/>
       <use xlink:href="#DejaVuSans-30" transform="translate(179.199219 0)"/>
      </g>
     </g>
    </g>
    <g id="ytick_2">
     <g id="line2d_8">
      <path d="M 54.190313 364.894649 
L 848.420313 364.894649 
" clip-path="url(#p79e17b4e5e)" style="fill: none; stroke: #b0b0b0; stroke-opacity: 0.3; stroke-width: 0.8; stroke-linecap: square"/>
     </g>
     <g id="line2d_9">
      <g>
       <use xlink:href="#mfcff4bacec" x="54.190313" y="364.894649" style="stroke: #000000; stroke-width: 0.8"/>
      </g>
     </g>
     <g id="text_7">
      <!-- −0.5 -->
      <g transform="translate(22.9075 368.693868) scale(0.1 -0.1)">
       <defs>
        <path id="DejaVuSans-35" d="M 691 4666 
L 3169 4666 
L 3169 4134 
L 1269 4134 
L 1269 2991 
Q 1406 3038 1543 3061 
Q 1681 3084 1819 3084 
Q 2600 3084 3056 2656 
Q 3513 2228 3513 1497 
Q 3513 744 3044 326 
Q 2575 -91 1722 -91 
Q 1428 -91 1123 -41 
Q 819 9 494 109 
L 494 744 
Q 775 591 1075 516 
Q 1375 441 1709 441 
Q 2250 441 2565 725 
Q 2881 1009 2881 1497 
Q 2881 1984 2565 2268 
Q 2250 2553 1709 2553 
Q 1456 2553 1204 2497 
Q 953 2441 691 2322 
L 691 4666 
z
" transform="scale(0.015625)"/>
       </defs>
       <use xlink:href="#DejaVuSans-2212"/>
       <use xlink:href="#DejaVuSans-30" transform="translate(83.789062 0)"/>
       <use xlink:href="#DejaVuSans-2e" transform="translate(147.412109 0)"/>
       <use xlink:href="#DejaVuSans-35" transform="translate(179.199219 0)"/>
      </g>
     </g>
    </g>
    <g id="ytick_3">
     <g id="line2d_10">
      <path d="M 54.190313 264.106899 
L 848.420313 264.106899 
" clip-path="url(#p79e17b4e5e)" style="fill: none; stroke: #b0b0b0; stroke-opacity: 0.3; stroke-width: 0.8; stroke-linecap: square"/>
     </g>
     <g id="line2d_11">
      <g>
       <use xlink:href="#mfcff4bacec" x="54.190313" y="264.106899" style="stroke: #000000; stroke-width: 0.8"/>
      </g>
     </g>
     <g id="text_8">
      <!-- 0.0 -->
      <g transform="translate(31.287188 267.906117) scale(0.1 -0.1)">
       <use xlink:href="#DejaVuSans-30"/>
       <use xlink:href="#DejaVuSans-2e" transform="translate(63.623047 0)"/>
       <use xlink:href="#DejaVuSans-30" transform="translate(95.410156 0)"/>
      </g>
     </g>
    </g>
    <g id="ytick_4">
     <g id="line2d_12">
      <path d="M 54.190313 163.319148 
L 848.420313 163.319148 
" clip-path="url(#p79e17b4e5e)" style="fill: none; stroke: #b0b0b0; stroke-opacity: 0.3; stroke-width: 0.8; stroke-linecap: square"/>
     </g>
     <g id="line2d_13">
      <g>
       <use xlink:href="#mfcff4bacec" x="54.190313" y="163.319148" style="stroke: #000000; stroke-width: 0.8"/>
      </g>
     </g>
     <g id="text_9">
      <!-- 0.5 -->
      <g transform="translate(31.287188 167.118367) scale(0.1 -0.1)">
       <use xlink:href="#DejaVuSans-30"/>
       <use xlink:href="#DejaVuSans-2e" transform="translate(63.623047 0)"/>
       <use xlink:href="#DejaVuSans-35" transform="translate(95.410156 0)"/>
      </g>
     </g>
    </g>
    <g id="ytick_5">
     <g id="line2d_14">
      <path d="M 54.190313 62.531398 
L 848.420313 62.531398 
" clip-path="url(#p79e17b4e5e)" style="fill: none; stroke: #b0b0b0; stroke-opacity: 0.3; stroke-width: 0.8; stroke-linecap: square"/>
     </g>
     <g id="line2d_15">
      <g>
       <use xlink:href="#mfcff4bacec" x="54.190313" y="62.531398" style="stroke: #000000; stroke-width: 0.8"/>
      </g>
     </g>
     <g id="text_10">
      <!-- 1.0 -->
      <g transform="translate(31.287188 66.330616) scale(0.1 -0.1)">
       <use xlink:href="#DejaVuSans-31"/>
       <use xlink:href="#DejaVuSans-2e" transform="translate(63.623047 0)"/>
       <use xlink:href="#DejaVuSans-30" transform="translate(95.410156 0)"/>
      </g>
     </g>
    </g>
    <g id="text_11">
     <!-- Recovery Efficiency -->
     <g transform="translate(16.318125 357.711) rotate(-90) scale(0.12 -0.12)">
      <defs>
       <path id="DejaVuSans-Bold-65" d="M 4031 1759 
L 4031 1441 
L 1416 1441 
Q 1456 1047 1700 850 
Q 1944 653 2381 653 
Q 2734 653 3104 758 
Q 3475 863 3866 1075 
L 3866 213 
Q 3469 63 3072 -14 
Q 2675 -91 2278 -91 
Q 1328 -91 801 392 
Q 275 875 275 1747 
Q 275 2603 792 3093 
Q 1309 3584 2216 3584 
Q 3041 3584 3536 3087 
Q 4031 2591 4031 1759 
z
M 2881 2131 
Q 2881 2450 2695 2645 
Q 2509 2841 2209 2841 
Q 1884 2841 1681 2658 
Q 1478 2475 1428 2131 
L 2881 2131 
z
" transform="scale(0.015625)"/>
       <path id="DejaVuSans-Bold-63" d="M 3366 3391 
L 3366 2478 
Q 3138 2634 2908 2709 
Q 2678 2784 2431 2784 
Q 1963 2784 1702 2511 
Q 1441 2238 1441 1747 
Q 1441 1256 1702 982 
Q 1963 709 2431 709 
Q 2694 709 2930 787 
Q 3166 866 3366 1019 
L 3366 103 
Q 3103 6 2833 -42 
Q 2563 -91 2291 -91 
Q 1344 -91 809 395 
Q 275 881 275 1747 
Q 275 2613 809 3098 
Q 1344 3584 2291 3584 
Q 2566 3584 2833 3536 
Q 3100 3488 3366 3391 
z
" transform="scale(0.015625)"/>
       <path id="DejaVuSans-Bold-6f" d="M 2203 2784 
Q 1831 2784 1636 2517 
Q 1441 2250 1441 1747 
Q 1441 1244 1636 976 
Q 1831 709 2203 709 
Q 2569 709 2762 976 
Q 2956 1244 2956 1747 
Q 2956 2250 2762 2517 
Q 2569 2784 2203 2784 
z
M 2203 3584 
Q 3106 3584 3614 3096 
Q 4122 2609 4122 1747 
Q 4122 884 3614 396 
Q 3106 -91 2203 -91 
Q 1297 -91 786 396 
Q 275 884 275 1747 
Q 275 2609 786 3096 
Q 1297 3584 2203 3584 
z
" transform="scale(0.015625)"/>
       <path id="DejaVuSans-Bold-76" d="M 97 3500 
L 1216 3500 
L 2088 1081 
L 2956 3500 
L 4078 3500 
L 2700 0 
L 1472 0 
L 97 3500 
z
" transform="scale(0.015625)"/>
       <path id="DejaVuSans-Bold-72" d="M 3138 2547 
Q 2991 2616 2845 2648 
Q 2700 2681 2553 2681 
Q 2122 2681 1889 2404 
Q 1656 2128 1656 1613 
L 1656 0 
L 538 0 
L 538 3500 
L 1656 3500 
L 1656 2925 
Q 1872 3269 2151 3426 
Q 2431 3584 2822 3584 
Q 2878 3584 2943 3579 
Q 3009 3575 3134 3559 
L 3138 2547 
z
" transform="scale(0.015625)"/>
       <path id="DejaVuSans-Bold-79" d="M 78 3500 
L 1197 3500 
L 2138 1125 
L 2938 3500 
L 4056 3500 
L 2584 -331 
Q 2363 -916 2067 -1148 
Q 1772 -1381 1288 -1381 
L 641 -1381 
L 641 -647 
L 991 -647 
Q 1275 -647 1404 -556 
Q 1534 -466 1606 -231 
L 1638 -134 
L 78 3500 
z
" transform="scale(0.015625)"/>
       <path id="DejaVuSans-Bold-20" transform="scale(0.015625)"/>
       <path id="DejaVuSans-Bold-66" d="M 2841 4863 
L 2841 4128 
L 2222 4128 
Q 1984 4128 1890 4042 
Q 1797 3956 1797 3744 
L 1797 3500 
L 2753 3500 
L 2753 2700 
L 1797 2700 
L 1797 0 
L 678 0 
L 678 2700 
L 122 2700 
L 122 3500 
L 678 3500 
L 678 3744 
Q 678 4316 997 4589 
Q 1316 4863 1984 4863 
L 2841 4863 
z
" transform="scale(0.015625)"/>
       <path id="DejaVuSans-Bold-69" d="M 538 3500 
L 1656 3500 
L 1656 0 
L 538 0 
L 538 3500 
z
M 538 4863 
L 1656 4863 
L 1656 3950 
L 538 3950 
L 538 4863 
z
" transform="scale(0.015625)"/>
       <path id="DejaVuSans-Bold-6e" d="M 4056 2131 
L 4056 0 
L 2931 0 
L 2931 347 
L 2931 1631 
Q 2931 2084 2911 2256 
Q 2891 2428 2841 2509 
Q 2775 2619 2662 2680 
Q 2550 2741 2406 2741 
Q 2056 2741 1856 2470 
Q 1656 2200 1656 1722 
L 1656 0 
L 538 0 
L 538 3500 
L 1656 3500 
L 1656 2988 
Q 1909 3294 2193 3439 
Q 2478 3584 2822 3584 
Q 3428 3584 3742 3212 
Q 4056 2841 4056 2131 
z
" transform="scale(0.015625)"/>
      </defs>
      <use xlink:href="#DejaVuSans-Bold-52"/>
      <use xlink:href="#DejaVuSans-Bold-65" transform="translate(77.001953 0)"/>
      <use xlink:href="#DejaVuSans-Bold-63" transform="translate(144.824219 0)"/>
      <use xlink:href="#DejaVuSans-Bold-6f" transform="translate(204.101562 0)"/>
      <use xlink:href="#DejaVuSans-Bold-76" transform="translate(272.802734 0)"/>
      <use xlink:href="#DejaVuSans-Bold-65" transform="translate(337.988281 0)"/>
      <use xlink:href="#DejaVuSans-Bold-72" transform="translate(405.810547 0)"/>
      <use xlink:href="#DejaVuSans-Bold-79" transform="translate(455.126953 0)"/>
      <use xlink:href="#DejaVuSans-Bold-20" transform="translate(520.3125 0)"/>
      <use xlink:href="#DejaVuSans-Bold-45" transform="translate(555.126953 0)"/>
      <use xlink:href="#DejaVuSans-Bold-66" transform="translate(623.4375 0)"/>
      <use xlink:href="#DejaVuSans-Bold-66" transform="translate(666.943359 0)"/>
      <use xlink:href="#DejaVuSans-Bold-69" transform="translate(710.449219 0)"/>
      <use xlink:href="#DejaVuSans-Bold-63" transform="translate(744.726562 0)"/>
      <use xlink:href="#DejaVuSans-Bold-69" transform="translate(804.003906 0)"/>
      <use xlink:href="#DejaVuSans-Bold-65" transform="translate(838.28125 0)"/>
      <use xlink:href="#DejaVuSans-Bold-6e" transform="translate(906.103516 0)"/>
      <use xlink:href="#DejaVuSans-Bold-63" transform="translate(977.294922 0)"/>
      <use xlink:href="#DejaVuSans-Bold-79" transform="translate(1036.572266 0)"/>
     </g>
    </g>
   </g>
   <g id="patch_3">
    <path d="M 85.959513 263.801985 
L 181.267112 263.801985 
L 181.267112 197.97517 
L 85.959513 197.97517 
L 85.959513 263.801985 
z
" clip-path="url(#p79e17b4e5e)" style="fill: #e07b53; opacity: 0.7; stroke: #000000; stroke-linejoin: miter"/>
   </g>
   <g id="line2d_16">
    <path d="M 133.613313 263.801985 
L 133.613313 361.277327 
" clip-path="url(#p79e17b4e5e)" style="fill: none; stroke: #000000; stroke-linecap: square"/>
   </g>
   <g id="line2d_17">
    <path d="M 133.613313 197.97517 
L 133.613313 120.803672 
" clip-path="url(#p79e17b4e5e)" style="fill: none; stroke: #000000; stroke-linecap: square"/>
   </g>
   <g id="line2d_18">
    <path d="M 109.786413 361.277327 
L 157.440213 361.277327 
" clip-path="url(#p79e17b4e5e)" style="fill: none; stroke: #000000; stroke-linecap: square"/>
   </g>
   <g id="line2d_19">
    <path d="M 109.786413 120.803672 
L 157.440213 120.803672 
" clip-path="url(#p79e17b4e5e)" style="fill: none; stroke: #000000; stroke-linecap: square"/>
   </g>
   <g id="line2d_20">
    <defs>
     <path id="m3795c845b6" d="M 0 3 
C 0.795609 3 1.55874 2.683901 2.12132 2.12132 
C 2.683901 1.55874 3 0.795609 3 0 
C 3 -0.795609 2.683901 -1.55874 2.12132 -2.12132 
C 1.55874 -2.683901 0.795609 -3 0 -3 
C -0.795609 -3 -1.55874 -2.683901 -2.12132 -2.12132 
C -2.683901 -1.55874 -3 -0.795609 -3 0 
C -3 0.795609 -2.683901 1.55874 -2.12132 2.12132 
C -1.55874 2.683901 -0.795609 3 0 3 
z
" style="stroke: #000000"/>
    </defs>
    <g clip-path="url(#p79e17b4e5e)">
     <use xlink:href="#m3795c845b6" x="133.613313" y="457.246336" style="fill-opacity: 0; stroke: #000000"/>
    </g>
   </g>
   <g id="patch_4">
    <path d="M 244.805513 265.685046 
L 340.113113 265.685046 
L 340.113113 221.461354 
L 244.805513 221.461354 
L 244.805513 265.685046 
z
" clip-path="url(#p79e17b4e5e)" style="fill: #4285f4; opacity: 0.7; stroke: #000000; stroke-linejoin: miter"/>
   </g>
   <g id="line2d_21">
    <path d="M 292.459313 265.685046 
L 292.459313 312.007506 
" clip-path="url(#p79e17b4e5e)" style="fill: none; stroke: #000000; stroke-linecap: square"/>
   </g>
   <g id="line2d_22">
    <path d="M 292.459313 221.461354 
L 292.459313 178.188685 
" clip-path="url(#p79e17b4e5e)" style="fill: none; stroke: #000000; stroke-linecap: square"/>
   </g>
   <g id="line2d_23">
    <path d="M 268.632412 312.007506 
L 316.286213 312.007506 
" clip-path="url(#p79e17b4e5e)" style="fill: none; stroke: #000000; stroke-linecap: square"/>
   </g>
   <g id="line2d_24">
    <path d="M 268.632412 178.188685 
L 316.286213 178.188685 
" clip-path="url(#p79e17b4e5e)" style="fill: none; stroke: #000000; stroke-linecap: square"/>
   </g>
   <g id="line2d_25">
    <g clip-path="url(#p79e17b4e5e)">
     <use xlink:href="#m3795c845b6" x="292.459313" y="340.402542" style="fill-opacity: 0; stroke: #000000"/>
     <use xlink:href="#m3795c845b6" x="292.459313" y="344.449243" style="fill-opacity: 0; stroke: #000000"/>
     <use xlink:href="#m3795c845b6" x="292.459313" y="146.696956" style="fill-opacity: 0; stroke: #000000"/>
    </g>
   </g>
   <g id="patch_5">
    <path d="M 403.651513 370.17972 
L 498.959113 370.17972 
L 498.959113 264.106899 
L 403.651513 264.106899 
L 403.651513 370.17972 
z
" clip-path="url(#p79e17b4e5e)" style="fill: #10a37f; opacity: 0.7; stroke: #000000; stroke-linejoin: miter"/>
   </g>
   <g id="line2d_26">
    <path d="M 451.305313 370.17972 
L 451.305313 470.068968 
" clip-path="url(#p79e17b4e5e)" style="fill: none; stroke: #000000; stroke-linecap: square"/>
   </g>
   <g id="line2d_27">
    <path d="M 451.305313 264.106899 
L 451.305313 215.558402 
" clip-path="url(#p79e17b4e5e)" style="fill: none; stroke: #000000; stroke-linecap: square"/>
   </g>
   <g id="line2d_28">
    <path d="M 427.478413 470.068968 
L 475.132212 470.068968 
" clip-path="url(#p79e17b4e5e)" style="fill: none; stroke: #000000; stroke-linecap: square"/>
   </g>
   <g id="line2d_29">
    <path d="M 427.478413 215.558402 
L 475.132212 215.558402 
" clip-path="url(#p79e17b4e5e)" style="fill: none; stroke: #000000; stroke-linecap: square"/>
   </g>
   <g id="line2d_30"/>
   <g id="patch_6">
    <path d="M 562.497513 278.310814 
L 657.805112 278.310814 
L 657.805112 207.105001 
L 562.497513 207.105001 
L 562.497513 278.310814 
z
" clip-path="url(#p79e17b4e5e)" style="fill: #7c3aed; opacity: 0.7; stroke: #000000; stroke-linejoin: miter"/>
   </g>
   <g id="line2d_31">
    <path d="M 610.151313 278.310814 
L 610.151313 375.680045 
" clip-path="url(#p79e17b4e5e)" style="fill: none; stroke: #000000; stroke-linecap: square"/>
   </g>
   <g id="line2d_32">
    <path d="M 610.151313 207.105001 
L 610.151313 134.333592 
" clip-path="url(#p79e17b4e5e)" style="fill: none; stroke: #000000; stroke-linecap: square"/>
   </g>
   <g id="line2d_33">
    <path d="M 586.324413 375.680045 
L 633.978212 375.680045 
" clip-path="url(#p79e17b4e5e)" style="fill: none; stroke: #000000; stroke-linecap: square"/>
   </g>
   <g id="line2d_34">
    <path d="M 586.324413 134.333592 
L 633.978212 134.333592 
" clip-path="url(#p79e17b4e5e)" style="fill: none; stroke: #000000; stroke-linecap: square"/>
   </g>
   <g id="line2d_35">
    <g clip-path="url(#p79e17b4e5e)">
     <use xlink:href="#m3795c845b6" x="610.151313" y="474.832649" style="fill-opacity: 0; stroke: #000000"/>
     <use xlink:href="#m3795c845b6" x="610.151313" y="411.69122" style="fill-opacity: 0; stroke: #000000"/>
     <use xlink:href="#m3795c845b6" x="610.151313" y="426.841186" style="fill-opacity: 0; stroke: #000000"/>
     <use xlink:href="#m3795c845b6" x="610.151313" y="458.762311" style="fill-opacity: 0; stroke: #000000"/>
     <use xlink:href="#m3795c845b6" x="610.151313" y="400.889402" style="fill-opacity: 0; stroke: #000000"/>
    </g>
   </g>
   <g id="patch_7">
    <path d="M 721.343513 319.137285 
L 816.651112 319.137285 
L 816.651112 193.321408 
L 721.343513 193.321408 
L 721.343513 319.137285 
z
" clip-path="url(#p79e17b4e5e)" style="fill: #1da1f2; opacity: 0.7; stroke: #000000; stroke-linejoin: miter"/>
   </g>
   <g id="line2d_36">
    <path d="M 768.997313 319.137285 
L 768.997313 472.261478 
" clip-path="url(#p79e17b4e5e)" style="fill: none; stroke: #000000; stroke-linecap: square"/>
   </g>
   <g id="line2d_37">
    <path d="M 768.997313 193.321408 
L 768.997313 111.23065 
" clip-path="url(#p79e17b4e5e)" style="fill: none; stroke: #000000; stroke-linecap: square"/>
   </g>
   <g id="line2d_38">
    <path d="M 745.170412 472.261478 
L 792.824213 472.261478 
" clip-path="url(#p79e17b4e5e)" style="fill: none; stroke: #000000; stroke-linecap: square"/>
   </g>
   <g id="line2d_39">
    <path d="M 745.170412 111.23065 
L 792.824213 111.23065 
" clip-path="url(#p79e17b4e5e)" style="fill: none; stroke: #000000; stroke-linecap: square"/>
   </g>
   <g id="line2d_40">
    <g clip-path="url(#p79e17b4e5e)">
     <use xlink:href="#m3795c845b6" x="768.997313" y="520.676852" style="fill-opacity: 0; stroke: #000000"/>
    </g>
   </g>
   <g id="line2d_41">
    <path d="M 54.190313 62.531398 
L 848.420313 62.531398 
" clip-path="url(#p79e17b4e5e)" style="fill: none; stroke-dasharray: 7.4,3.2; stroke-dashoffset: 0; stroke: #2ecc71; stroke-opacity: 0.7; stroke-width: 2"/>
   </g>
   <g id="line2d_42">
    <path d="M 54.190313 163.319148 
L 848.420313 163.319148 
" clip-path="url(#p79e17b4e5e)" style="fill: none; stroke-dasharray: 2,3.3; stroke-dashoffset: 0; stroke: #f1c40f; stroke-opacity: 0.7; stroke-width: 2"/>
   </g>
   <g id="line2d_43">
    <path d="M 85.959513 222.918402 
L 181.267112 222.918402 
" clip-path="url(#p79e17b4e5e)" style="fill: none; stroke: #000000; stroke-width: 2"/>
   </g>
   <g id="line2d_44">
    <path d="M 244.805513 243.266717 
L 340.113113 243.266717 
" clip-path="url(#p79e17b4e5e)" style="fill: none; stroke: #000000; stroke-width: 2"/>
   </g>
   <g id="line2d_45">
    <path d="M 403.651513 316.404562 
L 498.959113 316.404562 
" clip-path="url(#p79e17b4e5e)" style="fill: none; stroke: #000000; stroke-width: 2"/>
   </g>
   <g id="line2d_46">
    <path d="M 562.497513 230.14626 
L 657.805112 230.14626 
" clip-path="url(#p79e17b4e5e)" style="fill: none; stroke: #000000; stroke-width: 2"/>
   </g>
   <g id="line2d_47">
    <path d="M 721.343513 253.833448 
L 816.651112 253.833448 
" clip-path="url(#p79e17b4e5e)" style="fill: none; stroke: #000000; stroke-width: 2"/>
   </g>
   <g id="patch_8">
    <path d="M 54.190313 543.584125 
L 54.190313 39.624125 
" style="fill: none; stroke: #000000; stroke-width: 0.8; stroke-linejoin: miter; stroke-linecap: square"/>
   </g>
   <g id="patch_9">
    <path d="M 848.420313 543.584125 
L 848.420313 39.624125 
" style="fill: none; stroke: #000000; stroke-width: 0.8; stroke-linejoin: miter; stroke-linecap: square"/>
   </g>
   <g id="patch_10">
    <path d="M 54.190313 543.584125 
L 848.420313 543.584125 
" style="fill: none; stroke: #000000; stroke-width: 0.8; stroke-linejoin: miter; stroke-linecap: square"/>
   </g>
   <g id="patch_11">
    <path d="M 54.190313 39.624125 
L 848.420313 39.624125 
" style="fill: none; stroke: #000000; stroke-width: 0.8; stroke-linejoin: miter; stroke-linecap: square"/>
   </g>
   <g id="text_12">
    <!-- Context Damping: Recovery Efficiency by Provider -->
    <g transform="translate(252.378437 17.837812) scale(0.14 -0.14)">
     <defs>
      <path id="DejaVuSans-Bold-74" d="M 1759 4494 
L 1759 3500 
L 2913 3500 
L 2913 2700 
L 1759 2700 
L 1759 1216 
Q 1759 972 1856 886 
Q 1953 800 2241 800 
L 2816 800 
L 2816 0 
L 1856 0 
Q 1194 0 917 276 
Q 641 553 641 1216 
L 641 2700 
L 84 2700 
L 84 3500 
L 641 3500 
L 641 4494 
L 1759 4494 
z
" transform="scale(0.015625)"/>
      <path id="DejaVuSans-Bold-78" d="M 1422 1791 
L 159 3500 
L 1344 3500 
L 2059 2463 
L 2784 3500 
L 3969 3500 
L 2706 1797 
L 4031 0 
L 2847 0 
L 2059 1106 
L 1281 0 
L 97 0 
L 1422 1791 
z
" transform="scale(0.015625)"/>
      <path id="DejaVuSans-Bold-44" d="M 1791 3756 
L 1791 909 
L 2222 909 
Q 2959 909 3348 1275 
Q 3738 1641 3738 2338 
Q 3738 3031 3350 3393 
Q 2963 3756 2222 3756 
L 1791 3756 
z
M 588 4666 
L 1856 4666 
Q 2919 4666 3439 4514 
Q 3959 4363 4331 4000 
Q 4659 3684 4818 3271 
Q 4978 2859 4978 2338 
Q 4978 1809 4818 1395 
Q 4659 981 4331 666 
Q 3956 303 3431 151 
Q 2906 0 1856 0 
L 588 0 
L 588 4666 
z
" transform="scale(0.015625)"/>
      <path id="DejaVuSans-Bold-61" d="M 2106 1575 
Q 1756 1575 1579 1456 
Q 1403 1338 1403 1106 
Q 1403 894 1545 773 
Q 1688 653 1941 653 
Q 2256 653 2472 879 
Q 2688 1106 2688 1447 
L 2688 1575 
L 2106 1575 
z
M 3816 1997 
L 3816 0 
L 2688 0 
L 2688 519 
Q 2463 200 2181 54 
Q 1900 -91 1497 -91 
Q 953 -91 614 226 
Q 275 544 275 1050 
Q 275 1666 698 1953 
Q 1122 2241 2028 2241 
L 2688 2241 
L 2688 2328 
Q 2688 2594 2478 2717 
Q 2269 2841 1825 2841 
Q 1466 2841 1156 2769 
Q 847 2697 581 2553 
L 581 3406 
Q 941 3494 1303 3539 
Q 1666 3584 2028 3584 
Q 2975 3584 3395 3211 
Q 3816 2838 3816 1997 
z
" transform="scale(0.015625)"/>
      <path id="DejaVuSans-Bold-6d" d="M 3781 2919 
Q 3994 3244 4286 3414 
Q 4578 3584 4928 3584 
Q 5531 3584 5847 3212 
Q 6163 2841 6163 2131 
L 6163 0 
L 5038 0 
L 5038 1825 
Q 5041 1866 5042 1909 
Q 5044 1953 5044 2034 
Q 5044 2406 4934 2573 
Q 4825 2741 4581 2741 
Q 4263 2741 4089 2478 
Q 3916 2216 3909 1719 
L 3909 0 
L 2784 0 
L 2784 1825 
Q 2784 2406 2684 2573 
Q 2584 2741 2328 2741 
Q 2006 2741 1831 2477 
Q 1656 2213 1656 1722 
L 1656 0 
L 531 0 
L 531 3500 
L 1656 3500 
L 1656 2988 
Q 1863 3284 2130 3434 
Q 2397 3584 2719 3584 
Q 3081 3584 3359 3409 
Q 3638 3234 3781 2919 
z
" transform="scale(0.015625)"/>
      <path id="DejaVuSans-Bold-70" d="M 1656 506 
L 1656 -1331 
L 538 -1331 
L 538 3500 
L 1656 3500 
L 1656 2988 
Q 1888 3294 2169 3439 
Q 2450 3584 2816 3584 
Q 3463 3584 3878 3070 
Q 4294 2556 4294 1747 
Q 4294 938 3878 423 
Q 3463 -91 2816 -91 
Q 2450 -91 2169 54 
Q 1888 200 1656 506 
z
M 2400 2772 
Q 2041 2772 1848 2508 
Q 1656 2244 1656 1747 
Q 1656 1250 1848 986 
Q 2041 722 2400 722 
Q 2759 722 2948 984 
Q 3138 1247 3138 1747 
Q 3138 2247 2948 2509 
Q 2759 2772 2400 2772 
z
" transform="scale(0.015625)"/>
      <path id="DejaVuSans-Bold-67" d="M 2919 594 
Q 2688 288 2409 144 
Q 2131 0 1766 0 
Q 1125 0 706 504 
Q 288 1009 288 1791 
Q 288 2575 706 3076 
Q 1125 3578 1766 3578 
Q 2131 3578 2409 3434 
Q 2688 3291 2919 2981 
L 2919 3500 
L 4044 3500 
L 4044 353 
Q 4044 -491 3511 -936 
Q 2978 -1381 1966 -1381 
Q 1638 -1381 1331 -1331 
Q 1025 -1281 716 -1178 
L 716 -306 
Q 1009 -475 1290 -558 
Q 1572 -641 1856 -641 
Q 2406 -641 2662 -400 
Q 2919 -159 2919 353 
L 2919 594 
z
M 2181 2772 
Q 1834 2772 1640 2515 
Q 1447 2259 1447 1791 
Q 1447 1309 1634 1061 
Q 1822 813 2181 813 
Q 2531 813 2725 1069 
Q 2919 1325 2919 1791 
Q 2919 2259 2725 2515 
Q 2531 2772 2181 2772 
z
" transform="scale(0.015625)"/>
      <path id="DejaVuSans-Bold-3a" d="M 716 3500 
L 1844 3500 
L 1844 2291 
L 716 2291 
L 716 3500 
z
M 716 1209 
L 1844 1209 
L 1844 0 
L 716 0 
L 716 1209 
z
" transform="scale(0.015625)"/>
      <path id="DejaVuSans-Bold-62" d="M 2400 722 
Q 2759 722 2948 984 
Q 3138 1247 3138 1747 
Q 3138 2247 2948 2509 
Q 2759 2772 2400 2772 
Q 2041 2772 1848 2508 
Q 1656 2244 1656 1747 
Q 1656 1250 1848 986 
Q 2041 722 2400 722 
z
M 1656 2988 
Q 1888 3294 2169 3439 
Q 2450 3584 2816 3584 
Q 3463 3584 3878 3070 
Q 4294 2556 4294 1747 
Q 4294 938 3878 423 
Q 3463 -91 2816 -91 
Q 2450 -91 2169 54 
Q 1888 200 1656 506 
L 1656 0 
L 538 0 
L 538 4863 
L 1656 4863 
L 1656 2988 
z
" transform="scale(0.015625)"/>
      <path id="DejaVuSans-Bold-64" d="M 2919 2988 
L 2919 4863 
L 4044 4863 
L 4044 0 
L 2919 0 
L 2919 506 
Q 2688 197 2409 53 
Q 2131 -91 1766 -91 
Q 1119 -91 703 423 
Q 288 938 288 1747 
Q 288 2556 703 3070 
Q 1119 3584 1766 3584 
Q 2128 3584 2408 3439 
Q 2688 3294 2919 2988 
z
M 2181 722 
Q 2541 722 2730 984 
Q 2919 1247 2919 1747 
Q 2919 2247 2730 2509 
Q 2541 2772 2181 2772 
Q 1825 2772 1636 2509 
Q 1447 2247 1447 1747 
Q 1447 1247 1636 984 
Q 1825 722 2181 722 
z
" transform="scale(0.015625)"/>
     </defs>
     <use xlink:href="#DejaVuSans-Bold-43"/>
     <use xlink:href="#DejaVuSans-Bold-6f" transform="translate(73.388672 0)"/>
     <use xlink:href="#DejaVuSans-Bold-6e" transform="translate(142.089844 0)"/>
     <use xlink:href="#DejaVuSans-Bold-74" transform="translate(213.28125 0)"/>
     <use xlink:href="#DejaVuSans-Bold-65" transform="translate(261.083984 0)"/>
     <use xlink:href="#DejaVuSans-Bold-78" transform="translate(328.90625 0)"/>
     <use xlink:href="#DejaVuSans-Bold-74" transform="translate(393.408203 0)"/>
     <use xlink:href="#DejaVuSans-Bold-20" transform="translate(441.210938 0)"/>
     <use xlink:href="#DejaVuSans-Bold-44" transform="translate(476.025391 0)"/>
     <use xlink:href="#DejaVuSans-Bold-61" transform="translate(559.033203 0)"/>
     <use xlink:href="#DejaVuSans-Bold-6d" transform="translate(626.513672 0)"/>
     <use xlink:href="#DejaVuSans-Bold-70" transform="translate(730.712891 0)"/>
     <use xlink:href="#DejaVuSans-Bold-69" transform="translate(802.294922 0)"/>
     <use xlink:href="#DejaVuSans-Bold-6e" transform="translate(836.572266 0)"/>
     <use xlink:href="#DejaVuSans-Bold-67" transform="translate(907.763672 0)"/>
     <use xlink:href="#DejaVuSans-Bold-3a" transform="translate(979.345703 0)"/>
     <use xlink:href="#DejaVuSans-Bold-20" transform="translate(1019.335938 0)"/>
     <use xlink:href="#DejaVuSans-Bold-52" transform="translate(1054.150391 0)"/>
     <use xlink:href="#DejaVuSans-Bold-65" transform="translate(1131.152344 0)"/>
     <use xlink:href="#DejaVuSans-Bold-63" transform="translate(1198.974609 0)"/>
     <use xlink:href="#DejaVuSans-Bold-6f" transform="translate(1258.251953 0)"/>
     <use xlink:href="#DejaVuSans-Bold-76" transform="translate(1326.953125 0)"/>
     <use xlink:href="#DejaVuSans-Bold-65" transform="translate(1392.138672 0)"/>
     <use xlink:href="#DejaVuSans-Bold-72" transform="translate(1459.960938 0)"/>
     <use xlink:href="#DejaVuSans-Bold-79" transform="translate(1509.277344 0)"/>
     <use xlink:href="#DejaVuSans-Bold-20" transform="translate(1574.462891 0)"/>
     <use xlink:href="#DejaVuSans-Bold-45" transform="translate(1609.277344 0)"/>
     <use xlink:href="#DejaVuSans-Bold-66" transform="translate(1677.587891 0)"/>
     <use xlink:href="#DejaVuSans-Bold-66" transform="translate(1721.09375 0)"/>
     <use xlink:href="#DejaVuSans-Bold-69" transform="translate(1764.599609 0)"/>
     <use xlink:href="#DejaVuSans-Bold-63" transform="translate(1798.876953 0)"/>
     <use xlink:href="#DejaVuSans-Bold-69" transform="translate(1858.154297 0)"/>
     <use xlink:href="#DejaVuSans-Bold-65" transform="translate(1892.431641 0)"/>
     <use xlink:href="#DejaVuSans-Bold-6e" transform="translate(1960.253906 0)"/>
     <use xlink:href="#DejaVuSans-Bold-63" transform="translate(2031.445312 0)"/>
     <use xlink:href="#DejaVuSans-Bold-79" transform="translate(2090.722656 0)"/>
     <use xlink:href="#DejaVuSans-Bold-20" transform="translate(2155.908203 0)"/>
     <use xlink:href="#DejaVuSans-Bold-62" transform="translate(2190.722656 0)"/>
     <use xlink:href="#DejaVuSans-Bold-79" transform="translate(2262.304688 0)"/>
     <use xlink:href="#DejaVuSans-Bold-20" transform="translate(2327.490234 0)"/>
     <use xlink:href="#DejaVuSans-Bold-50" transform="translate(2362.304688 0)"/>
     <use xlink:href="#DejaVuSans-Bold-72" transform="translate(2435.595703 0)"/>
     <use xlink:href="#DejaVuSans-Bold-6f" transform="translate(2484.912109 0)"/>
     <use xlink:href="#DejaVuSans-Bold-76" transform="translate(2553.613281 0)"/>
     <use xlink:href="#DejaVuSans-Bold-69" transform="translate(2618.798828 0)"/>
     <use xlink:href="#DejaVuSans-Bold-64" transform="translate(2653.076172 0)"/>
     <use xlink:href="#DejaVuSans-Bold-65" transform="translate(2724.658203 0)"/>
     <use xlink:href="#DejaVuSans-Bold-72" transform="translate(2792.480469 0)"/>
    </g>
    <!-- Run 023d: IRON CLAD Foundation -->
    <g transform="translate(318.601719 33.624125) scale(0.14 -0.14)">
     <defs>
      <path id="DejaVuSans-Bold-75" d="M 500 1363 
L 500 3500 
L 1625 3500 
L 1625 3150 
Q 1625 2866 1622 2436 
Q 1619 2006 1619 1863 
Q 1619 1441 1641 1255 
Q 1663 1069 1716 984 
Q 1784 875 1895 815 
Q 2006 756 2150 756 
Q 2500 756 2700 1025 
Q 2900 1294 2900 1772 
L 2900 3500 
L 4019 3500 
L 4019 0 
L 2900 0 
L 2900 506 
Q 2647 200 2364 54 
Q 2081 -91 1741 -91 
Q 1134 -91 817 281 
Q 500 653 500 1363 
z
" transform="scale(0.015625)"/>
      <path id="DejaVuSans-Bold-30" d="M 2944 2338 
Q 2944 3213 2780 3570 
Q 2616 3928 2228 3928 
Q 1841 3928 1675 3570 
Q 1509 3213 1509 2338 
Q 1509 1453 1675 1090 
Q 1841 728 2228 728 
Q 2613 728 2778 1090 
Q 2944 1453 2944 2338 
z
M 4147 2328 
Q 4147 1169 3647 539 
Q 3147 -91 2228 -91 
Q 1306 -91 806 539 
Q 306 1169 306 2328 
Q 306 3491 806 4120 
Q 1306 4750 2228 4750 
Q 3147 4750 3647 4120 
Q 4147 3491 4147 2328 
z
" transform="scale(0.015625)"/>
      <path id="DejaVuSans-Bold-32" d="M 1844 884 
L 3897 884 
L 3897 0 
L 506 0 
L 506 884 
L 2209 2388 
Q 2438 2594 2547 2791 
Q 2656 2988 2656 3200 
Q 2656 3528 2436 3728 
Q 2216 3928 1850 3928 
Q 1569 3928 1234 3808 
Q 900 3688 519 3450 
L 519 4475 
Q 925 4609 1322 4679 
Q 1719 4750 2100 4750 
Q 2938 4750 3402 4381 
Q 3866 4013 3866 3353 
Q 3866 2972 3669 2642 
Q 3472 2313 2841 1759 
L 1844 884 
z
" transform="scale(0.015625)"/>
      <path id="DejaVuSans-Bold-33" d="M 2981 2516 
Q 3453 2394 3698 2092 
Q 3944 1791 3944 1325 
Q 3944 631 3412 270 
Q 2881 -91 1863 -91 
Q 1503 -91 1142 -33 
Q 781 25 428 141 
L 428 1069 
Q 766 900 1098 814 
Q 1431 728 1753 728 
Q 2231 728 2486 893 
Q 2741 1059 2741 1369 
Q 2741 1688 2480 1852 
Q 2219 2016 1709 2016 
L 1228 2016 
L 1228 2791 
L 1734 2791 
Q 2188 2791 2409 2933 
Q 2631 3075 2631 3366 
Q 2631 3634 2415 3781 
Q 2200 3928 1806 3928 
Q 1516 3928 1219 3862 
Q 922 3797 628 3669 
L 628 4550 
Q 984 4650 1334 4700 
Q 1684 4750 2022 4750 
Q 2931 4750 3382 4451 
Q 3834 4153 3834 3553 
Q 3834 3144 3618 2883 
Q 3403 2622 2981 2516 
z
" transform="scale(0.015625)"/>
      <path id="DejaVuSans-Bold-46" d="M 588 4666 
L 3834 4666 
L 3834 3756 
L 1791 3756 
L 1791 2888 
L 3713 2888 
L 3713 1978 
L 1791 1978 
L 1791 0 
L 588 0 
L 588 4666 
z
" transform="scale(0.015625)"/>
     </defs>
     <use xlink:href="#DejaVuSans-Bold-52"/>
     <use xlink:href="#DejaVuSans-Bold-75" transform="translate(77.001953 0)"/>
     <use xlink:href="#DejaVuSans-Bold-6e" transform="translate(148.193359 0)"/>
     <use xlink:href="#DejaVuSans-Bold-20" transform="translate(219.384766 0)"/>
     <use xlink:href="#DejaVuSans-Bold-30" transform="translate(254.199219 0)"/>
     <use xlink:href="#DejaVuSans-Bold-32" transform="translate(323.779297 0)"/>
     <use xlink:href="#DejaVuSans-Bold-33" transform="translate(393.359375 0)"/>
     <use xlink:href="#DejaVuSans-Bold-64" transform="translate(462.939453 0)"/>
     <use xlink:href="#DejaVuSans-Bold-3a" transform="translate(534.521484 0)"/>
     <use xlink:href="#DejaVuSans-Bold-20" transform="translate(574.511719 0)"/>
     <use xlink:href="#DejaVuSans-Bold-49" transform="translate(609.326172 0)"/>
     <use xlink:href="#DejaVuSans-Bold-52" transform="translate(646.533203 0)"/>
     <use xlink:href="#DejaVuSans-Bold-4f" transform="translate(723.535156 0)"/>
     <use xlink:href="#DejaVuSans-Bold-4e" transform="translate(808.544922 0)"/>
     <use xlink:href="#DejaVuSans-Bold-20" transform="translate(892.236328 0)"/>
     <use xlink:href="#DejaVuSans-Bold-43" transform="translate(927.050781 0)"/>
     <use xlink:href="#DejaVuSans-Bold-4c" transform="translate(1000.439453 0)"/>
     <use xlink:href="#DejaVuSans-Bold-41" transform="translate(1064.160156 0)"/>
     <use xlink:href="#DejaVuSans-Bold-44" transform="translate(1141.552734 0)"/>
     <use xlink:href="#DejaVuSans-Bold-20" transform="translate(1224.560547 0)"/>
     <use xlink:href="#DejaVuSans-Bold-46" transform="translate(1259.375 0)"/>
     <use xlink:href="#DejaVuSans-Bold-6f" transform="translate(1323.685547 0)"/>
     <use xlink:href="#DejaVuSans-Bold-75" transform="translate(1392.386719 0)"/>
     <use xlink:href="#DejaVuSans-Bold-6e" transform="translate(1463.578125 0)"/>
     <use xlink:href="#DejaVuSans-Bold-64" transform="translate(1534.769531 0)"/>
     <use xlink:href="#DejaVuSans-Bold-61" transform="translate(1606.351562 0)"/>
     <use xlink:href="#DejaVuSans-Bold-74" transform="translate(1673.832031 0)"/>
     <use xlink:href="#DejaVuSans-Bold-69" transform="translate(1721.634766 0)"/>
     <use xlink:href="#DejaVuSans-Bold-6f" transform="translate(1755.912109 0)"/>
     <use xlink:href="#DejaVuSans-Bold-6e" transform="translate(1824.613281 0)"/>
    </g>
   </g>
   <g id="legend_1">
    <g id="patch_12">
     <path d="M 695.240625 76.980375 
L 841.420313 76.980375 
Q 843.420313 76.980375 843.420313 74.980375 
L 843.420313 46.624125 
Q 843.420313 44.624125 841.420313 44.624125 
L 695.240625 44.624125 
Q 693.240625 44.624125 693.240625 46.624125 
L 693.240625 74.980375 
Q 693.240625 76.980375 695.240625 76.980375 
z
" style="fill: #ffffff; opacity: 0.8; stroke: #cccccc; stroke-linejoin: miter"/>
    </g>
    <g id="line2d_48">
     <path d="M 697.240625 52.722562 
L 707.240625 52.722562 
L 717.240625 52.722562 
" style="fill: none; stroke-dasharray: 7.4,3.2; stroke-dashoffset: 0; stroke: #2ecc71; stroke-opacity: 0.7; stroke-width: 2"/>
    </g>
    <g id="text_13">
     <!-- Full Recovery (100%) -->
     <g transform="translate(725.240625 56.222562) scale(0.1 -0.1)">
      <defs>
       <path id="DejaVuSans-46" d="M 628 4666 
L 3309 4666 
L 3309 4134 
L 1259 4134 
L 1259 2759 
L 3109 2759 
L 3109 2228 
L 1259 2228 
L 1259 0 
L 628 0 
L 628 4666 
z
" transform="scale(0.015625)"/>
       <path id="DejaVuSans-75" d="M 544 1381 
L 544 3500 
L 1119 3500 
L 1119 1403 
Q 1119 906 1312 657 
Q 1506 409 1894 409 
Q 2359 409 2629 706 
Q 2900 1003 2900 1516 
L 2900 3500 
L 3475 3500 
L 3475 0 
L 2900 0 
L 2900 538 
Q 2691 219 2414 64 
Q 2138 -91 1772 -91 
Q 1169 -91 856 284 
Q 544 659 544 1381 
z
M 1991 3584 
L 1991 3584 
z
" transform="scale(0.015625)"/>
       <path id="DejaVuSans-6c" d="M 603 4863 
L 1178 4863 
L 1178 0 
L 603 0 
L 603 4863 
z
" transform="scale(0.015625)"/>
       <path id="DejaVuSans-20" transform="scale(0.015625)"/>
       <path id="DejaVuSans-52" d="M 2841 2188 
Q 3044 2119 3236 1894 
Q 3428 1669 3622 1275 
L 4263 0 
L 3584 0 
L 2988 1197 
Q 2756 1666 2539 1819 
Q 2322 1972 1947 1972 
L 1259 1972 
L 1259 0 
L 628 0 
L 628 4666 
L 2053 4666 
Q 2853 4666 3247 4331 
Q 3641 3997 3641 3322 
Q 3641 2881 3436 2590 
Q 3231 2300 2841 2188 
z
M 1259 4147 
L 1259 2491 
L 2053 2491 
Q 2509 2491 2742 2702 
Q 2975 2913 2975 3322 
Q 2975 3731 2742 3939 
Q 2509 4147 2053 4147 
L 1259 4147 
z
" transform="scale(0.015625)"/>
       <path id="DejaVuSans-65" d="M 3597 1894 
L 3597 1613 
L 953 1613 
Q 991 1019 1311 708 
Q 1631 397 2203 397 
Q 2534 397 2845 478 
Q 3156 559 3463 722 
L 3463 178 
Q 3153 47 2828 -22 
Q 2503 -91 2169 -91 
Q 1331 -91 842 396 
Q 353 884 353 1716 
Q 353 2575 817 3079 
Q 1281 3584 2069 3584 
Q 2775 3584 3186 3129 
Q 3597 2675 3597 1894 
z
M 3022 2063 
Q 3016 2534 2758 2815 
Q 2500 3097 2075 3097 
Q 1594 3097 1305 2825 
Q 1016 2553 972 2059 
L 3022 2063 
z
" transform="scale(0.015625)"/>
       <path id="DejaVuSans-63" d="M 3122 3366 
L 3122 2828 
Q 2878 2963 2633 3030 
Q 2388 3097 2138 3097 
Q 1578 3097 1268 2742 
Q 959 2388 959 1747 
Q 959 1106 1268 751 
Q 1578 397 2138 397 
Q 2388 397 2633 464 
Q 2878 531 3122 666 
L 3122 134 
Q 2881 22 2623 -34 
Q 2366 -91 2075 -91 
Q 1284 -91 818 406 
Q 353 903 353 1747 
Q 353 2603 823 3093 
Q 1294 3584 2113 3584 
Q 2378 3584 2631 3529 
Q 2884 3475 3122 3366 
z
" transform="scale(0.015625)"/>
       <path id="DejaVuSans-6f" d="M 1959 3097 
Q 1497 3097 1228 2736 
Q 959 2375 959 1747 
Q 959 1119 1226 758 
Q 1494 397 1959 397 
Q 2419 397 2687 759 
Q 2956 1122 2956 1747 
Q 2956 2369 2687 2733 
Q 2419 3097 1959 3097 
z
M 1959 3584 
Q 2709 3584 3137 3096 
Q 3566 2609 3566 1747 
Q 3566 888 3137 398 
Q 2709 -91 1959 -91 
Q 1206 -91 779 398 
Q 353 888 353 1747 
Q 353 2609 779 3096 
Q 1206 3584 1959 3584 
z
" transform="scale(0.015625)"/>
       <path id="DejaVuSans-76" d="M 191 3500 
L 800 3500 
L 1894 563 
L 2988 3500 
L 3597 3500 
L 2284 0 
L 1503 0 
L 191 3500 
z
" transform="scale(0.015625)"/>
       <path id="DejaVuSans-72" d="M 2631 2963 
Q 2534 3019 2420 3045 
Q 2306 3072 2169 3072 
Q 1681 3072 1420 2755 
Q 1159 2438 1159 1844 
L 1159 0 
L 581 0 
L 581 3500 
L 1159 3500 
L 1159 2956 
Q 1341 3275 1631 3429 
Q 1922 3584 2338 3584 
Q 2397 3584 2469 3576 
Q 2541 3569 2628 3553 
L 2631 2963 
z
" transform="scale(0.015625)"/>
       <path id="DejaVuSans-79" d="M 2059 -325 
Q 1816 -950 1584 -1140 
Q 1353 -1331 966 -1331 
L 506 -1331 
L 506 -850 
L 844 -850 
Q 1081 -850 1212 -737 
Q 1344 -625 1503 -206 
L 1606 56 
L 191 3500 
L 800 3500 
L 1894 763 
L 2988 3500 
L 3597 3500 
L 2059 -325 
z
" transform="scale(0.015625)"/>
       <path id="DejaVuSans-28" d="M 1984 4856 
Q 1566 4138 1362 3434 
Q 1159 2731 1159 2009 
Q 1159 1288 1364 580 
Q 1569 -128 1984 -844 
L 1484 -844 
Q 1016 -109 783 600 
Q 550 1309 550 2009 
Q 550 2706 781 3412 
Q 1013 4119 1484 4856 
L 1984 4856 
z
" transform="scale(0.015625)"/>
       <path id="DejaVuSans-25" d="M 4653 2053 
Q 4381 2053 4226 1822 
Q 4072 1591 4072 1178 
Q 4072 772 4226 539 
Q 4381 306 4653 306 
Q 4919 306 5073 539 
Q 5228 772 5228 1178 
Q 5228 1588 5073 1820 
Q 4919 2053 4653 2053 
z
M 4653 2450 
Q 5147 2450 5437 2106 
Q 5728 1763 5728 1178 
Q 5728 594 5436 251 
Q 5144 -91 4653 -91 
Q 4153 -91 3862 251 
Q 3572 594 3572 1178 
Q 3572 1766 3864 2108 
Q 4156 2450 4653 2450 
z
M 1428 4353 
Q 1159 4353 1004 4120 
Q 850 3888 850 3481 
Q 850 3069 1003 2837 
Q 1156 2606 1428 2606 
Q 1700 2606 1854 2837 
Q 2009 3069 2009 3481 
Q 2009 3884 1853 4118 
Q 1697 4353 1428 4353 
z
M 4250 4750 
L 4750 4750 
L 1831 -91 
L 1331 -91 
L 4250 4750 
z
M 1428 4750 
Q 1922 4750 2215 4408 
Q 2509 4066 2509 3481 
Q 2509 2891 2217 2550 
Q 1925 2209 1428 2209 
Q 931 2209 642 2551 
Q 353 2894 353 3481 
Q 353 4063 643 4406 
Q 934 4750 1428 4750 
z
" transform="scale(0.015625)"/>
       <path id="DejaVuSans-29" d="M 513 4856 
L 1013 4856 
Q 1481 4119 1714 3412 
Q 1947 2706 1947 2009 
Q 1947 1309 1714 600 
Q 1481 -109 1013 -844 
L 513 -844 
Q 928 -128 1133 580 
Q 1338 1288 1338 2009 
Q 1338 2731 1133 3434 
Q 928 4138 513 4856 
z
" transform="scale(0.015625)"/>
      </defs>
      <use xlink:href="#DejaVuSans-46"/>
      <use xlink:href="#DejaVuSans-75" transform="translate(52.019531 0)"/>
      <use xlink:href="#DejaVuSans-6c" transform="translate(115.398438 0)"/>
      <use xlink:href="#DejaVuSans-6c" transform="translate(143.181641 0)"/>
      <use xlink:href="#DejaVuSans-20" transform="translate(170.964844 0)"/>
      <use xlink:href="#DejaVuSans-52" transform="translate(202.751953 0)"/>
      <use xlink:href="#DejaVuSans-65" transform="translate(267.734375 0)"/>
      <use xlink:href="#DejaVuSans-63" transform="translate(329.257812 0)"/>
      <use xlink:href="#DejaVuSans-6f" transform="translate(384.238281 0)"/>
      <use xlink:href="#DejaVuSans-76" transform="translate(445.419922 0)"/>
      <use xlink:href="#DejaVuSans-65" transform="translate(504.599609 0)"/>
      <use xlink:href="#DejaVuSans-72" transform="translate(566.123047 0)"/>
      <use xlink:href="#DejaVuSans-79" transform="translate(607.236328 0)"/>
      <use xlink:href="#DejaVuSans-20" transform="translate(666.416016 0)"/>
      <use xlink:href="#DejaVuSans-28" transform="translate(698.203125 0)"/>
      <use xlink:href="#DejaVuSans-31" transform="translate(737.216797 0)"/>
      <use xlink:href="#DejaVuSans-30" transform="translate(800.839844 0)"/>
      <use xlink:href="#DejaVuSans-30" transform="translate(864.462891 0)"/>
      <use xlink:href="#DejaVuSans-25" transform="translate(928.085938 0)"/>
      <use xlink:href="#DejaVuSans-29" transform="translate(1023.105469 0)"/>
     </g>
    </g>
    <g id="line2d_49">
     <path d="M 697.240625 67.400688 
L 707.240625 67.400688 
L 717.240625 67.400688 
" style="fill: none; stroke-dasharray: 2,3.3; stroke-dashoffset: 0; stroke: #f1c40f; stroke-opacity: 0.7; stroke-width: 2"/>
    </g>
    <g id="text_14">
     <!-- Partial Recovery (50%) -->
     <g transform="translate(725.240625 70.900688) scale(0.1 -0.1)">
      <defs>
       <path id="DejaVuSans-50" d="M 1259 4147 
L 1259 2394 
L 2053 2394 
Q 2494 2394 2734 2622 
Q 2975 2850 2975 3272 
Q 2975 3691 2734 3919 
Q 2494 4147 2053 4147 
L 1259 4147 
z
M 628 4666 
L 2053 4666 
Q 2838 4666 3239 4311 
Q 3641 3956 3641 3272 
Q 3641 2581 3239 2228 
Q 2838 1875 2053 1875 
L 1259 1875 
L 1259 0 
L 628 0 
L 628 4666 
z
" transform="scale(0.015625)"/>
       <path id="DejaVuSans-61" d="M 2194 1759 
Q 1497 1759 1228 1600 
Q 959 1441 959 1056 
Q 959 750 1161 570 
Q 1363 391 1709 391 
Q 2188 391 2477 730 
Q 2766 1069 2766 1631 
L 2766 1759 
L 2194 1759 
z
M 3341 1997 
L 3341 0 
L 2766 0 
L 2766 531 
Q 2569 213 2275 61 
Q 1981 -91 1556 -91 
Q 1019 -91 701 211 
Q 384 513 384 1019 
Q 384 1609 779 1909 
Q 1175 2209 1959 2209 
L 2766 2209 
L 2766 2266 
Q 2766 2663 2505 2880 
Q 2244 3097 1772 3097 
Q 1472 3097 1187 3025 
Q 903 2953 641 2809 
L 641 3341 
Q 956 3463 1253 3523 
Q 1550 3584 1831 3584 
Q 2591 3584 2966 3190 
Q 3341 2797 3341 1997 
z
" transform="scale(0.015625)"/>
       <path id="DejaVuSans-74" d="M 1172 4494 
L 1172 3500 
L 2356 3500 
L 2356 3053 
L 1172 3053 
L 1172 1153 
Q 1172 725 1289 603 
Q 1406 481 1766 481 
L 2356 481 
L 2356 0 
L 1766 0 
Q 1100 0 847 248 
Q 594 497 594 1153 
L 594 3053 
L 172 3053 
L 172 3500 
L 594 3500 
L 594 4494 
L 1172 4494 
z
" transform="scale(0.015625)"/>
       <path id="DejaVuSans-69" d="M 603 3500 
L 1178 3500 
L 1178 0 
L 603 0 
L 603 3500 
z
M 603 4863 
L 1178 4863 
L 1178 4134 
L 603 4134 
L 603 4863 
z
" transform="scale(0.015625)"/>
      </defs>
      <use xlink:href="#DejaVuSans-50"/>
      <use xlink:href="#DejaVuSans-61" transform="translate(55.802734 0)"/>
      <use xlink:href="#DejaVuSans-72" transform="translate(117.082031 0)"/>
      <use xlink:href="#DejaVuSans-74" transform="translate(158.195312 0)"/>
      <use xlink:href="#DejaVuSans-69" transform="translate(197.404297 0)"/>
      <use xlink:href="#DejaVuSans-61" transform="translate(225.1875 0)"/>
      <use xlink:href="#DejaVuSans-6c" transform="translate(286.466797 0)"/>
      <use xlink:href="#DejaVuSans-20" transform="translate(314.25 0)"/>
      <use xlink:href="#DejaVuSans-52" transform="translate(346.037109 0)"/>
      <use xlink:href="#DejaVuSans-65" transform="translate(411.019531 0)"/>
      <use xlink:href="#DejaVuSans-63" transform="translate(472.542969 0)"/>
      <use xlink:href="#DejaVuSans-6f" transform="translate(527.523438 0)"/>
      <use xlink:href="#DejaVuSans-76" transform="translate(588.705078 0)"/>
      <use xlink:href="#DejaVuSans-65" transform="translate(647.884766 0)"/>
      <use xlink:href="#DejaVuSans-72" transform="translate(709.408203 0)"/>
      <use xlink:href="#DejaVuSans-79" transform="translate(750.521484 0)"/>
      <use xlink:href="#DejaVuSans-20" transform="translate(809.701172 0)"/>
      <use xlink:href="#DejaVuSans-28" transform="translate(841.488281 0)"/>
      <use xlink:href="#DejaVuSans-35" transform="translate(880.501953 0)"/>
      <use xlink:href="#DejaVuSans-30" transform="translate(944.125 0)"/>
      <use xlink:href="#DejaVuSans-25" transform="translate(1007.748047 0)"/>
      <use xlink:href="#DejaVuSans-29" transform="translate(1102.767578 0)"/>
     </g>
    </g>
   </g>
  </g>
 </g>
 <defs>
  <clipPath id="p79e17b4e5e">
   <rect x="54.190313" y="39.624125" width="794.23" height="503.96"/>
  </clipPath>
 </defs>
</svg>
