<?xml version="1.0" encoding="utf-8" standalone="no"?>
<!DOCTYPE svg PUBLIC "-//W3C//DTD SVG 1.1//EN"
  "http://www.w3.org/Graphics/SVG/1.1/DTD/svg11.dtd">
<svg xmlns:xlink="http://www.w3.org/1999/xlink" width="724.746pt" height="697.102326pt" viewBox="0 0 724.746 697.102326" xmlns="http://www.w3.org/2000/svg" version="1.1">
 <metadata>
  <rdf:RDF xmlns:dc="http://purl.org/dc/elements/1.1/" xmlns:cc="http://creativecommons.org/ns#" xmlns:rdf="http://www.w3.org/1999/02/22-rdf-syntax-ns#">
   <cc:Work>
    <dc:type rdf:resource="http://purl.org/dc/dcmitype/StillImage"/>
    <dc:date>2025-12-17T18:41:16.933839</dc:date>
    <dc:format>image/svg+xml</dc:format>
    <dc:creator>
     <cc:Agent>
      <dc:title>Matplotlib v3.10.7, https://matplotlib.org/</dc:title>
     </cc:Agent>
    </dc:creator>
   </cc:Work>
  </rdf:RDF>
 </metadata>
 <defs>
  <style type="text/css">*{stroke-linejoin: round; stroke-linecap: butt}</style>
 </defs>
 <g id="figure_1">
  <g id="patch_1">
   <path d="M 0 697.102326 
L 724.746 697.102326 
L 724.746 0 
L 0 0 
z
" style="fill: #ffffff"/>
  </g>
  <g id="axes_1">
   <g id="patch_2">
    <path d="M 629.24 375.424 
C 629.24 334.581228 621.194864 294.1356 605.565012 256.401799 
C 589.93516 218.667998 567.024552 184.37985 538.144351 155.499649 
C 509.26415 126.619448 474.976002 103.70884 437.242201 88.078988 
C 399.5084 72.449136 359.062772 64.404 318.22 64.404 
C 277.377228 64.404 236.9316 72.449136 199.197799 88.078988 
C 161.463998 103.70884 127.17585 126.619448 98.295649 155.499649 
C 69.415448 184.37985 46.50484 218.667998 30.874988 256.401799 
C 15.245136 294.1356 7.2 334.581228 7.2 375.424 
C 7.2 416.266772 15.245136 456.7124 30.874988 494.446201 
C 46.50484 532.180002 69.415448 566.46815 98.295649 595.348351 
C 127.17585 624.228552 161.463998 647.13916 199.197799 662.769012 
C 236.9316 678.398864 277.377228 686.444 318.22 686.444 
C 359.062772 686.444 399.5084 678.398864 437.242201 662.769012 
C 474.976002 647.13916 509.26415 624.228552 538.144351 595.348351 
C 567.024552 566.46815 589.93516 532.180002 605.565012 494.446201 
C 621.194864 456.7124 629.24 416.266772 629.24 375.424 
M 318.22 375.424 
C 318.22 375.424 318.22 375.424 318.22 375.424 
C 318.22 375.424 318.22 375.424 318.22 375.424 
C 318.22 375.424 318.22 375.424 318.22 375.424 
C 318.22 375.424 318.22 375.424 318.22 375.424 
C 318.22 375.424 318.22 375.424 318.22 375.424 
C 318.22 375.424 318.22 375.424 318.22 375.424 
C 318.22 375.424 318.22 375.424 318.22 375.424 
C 318.22 375.424 318.22 375.424 318.22 375.424 
C 318.22 375.424 318.22 375.424 318.22 375.424 
C 318.22 375.424 318.22 375.424 318.22 375.424 
C 318.22 375.424 318.22 375.424 318.22 375.424 
C 318.22 375.424 318.22 375.424 318.22 375.424 
C 318.22 375.424 318.22 375.424 318.22 375.424 
C 318.22 375.424 318.22 375.424 318.22 375.424 
C 318.22 375.424 318.22 375.424 318.22 375.424 
C 318.22 375.424 318.22 375.424 318.22 375.424 
z
" style="fill: #ffffff"/>
   </g>
   <g id="patch_3">
    <path d="M 451.472648 375.424 
L 355.636701 260.267237 
L 318.22 375.424 
L 66.599534 558.236969 
L 399.972973 627.03378 
z
" clip-path="url(#pe346d5aeee)" style="fill: #e57373; opacity: 0.25; stroke: #e57373; stroke-linejoin: miter"/>
   </g>
   <g id="patch_4">
    <path d="M 441.92702 375.424 
L 354.449005 263.922587 
L 297.818341 360.601327 
L 87.001194 543.414296 
L 395.435524 613.068948 
z
" clip-path="url(#pe346d5aeee)" style="fill: #81c784; opacity: 0.25; stroke: #81c784; stroke-linejoin: miter"/>
   </g>
   <g id="patch_5">
    <path d="M 425.664417 375.424 
L 349.743766 278.403825 
L 318.22 375.424 
L 66.599534 558.236969 
L 401.379831 631.363642 
z
" clip-path="url(#pe346d5aeee)" style="fill: #ffd54f; opacity: 0.25; stroke: #ffd54f; stroke-linejoin: miter"/>
   </g>
   <g id="matplotlib.axis_1">
    <g id="xtick_1">
     <g id="line2d_1">
      <path d="M 318.22 375.424 
L 629.24 375.424 
" clip-path="url(#pe346d5aeee)" style="fill: none; stroke: #b0b0b0; stroke-width: 0.8; stroke-linecap: square"/>
     </g>
     <g id="text_1">
      <!-- Mean Drift -->
      <g transform="translate(610.309609 378.459313) scale(0.11 -0.11)">
       <defs>
        <path id="DejaVuSans-Bold-4d" d="M 588 4666 
L 2119 4666 
L 3181 2169 
L 4250 4666 
L 5778 4666 
L 5778 0 
L 4641 0 
L 4641 3413 
L 3566 897 
L 2803 897 
L 1728 3413 
L 1728 0 
L 588 0 
L 588 4666 
z
" transform="scale(0.015625)"/>
        <path id="DejaVuSans-Bold-65" d="M 4031 1759 
L 4031 1441 
L 1416 1441 
Q 1456 1047 1700 850 
Q 1944 653 2381 653 
Q 2734 653 3104 758 
Q 3475 863 3866 1075 
L 3866 213 
Q 3469 63 3072 -14 
Q 2675 -91 2278 -91 
Q 1328 -91 801 392 
Q 275 875 275 1747 
Q 275 2603 792 3093 
Q 1309 3584 2216 3584 
Q 3041 3584 3536 3087 
Q 4031 2591 4031 1759 
z
M 2881 2131 
Q 2881 2450 2695 2645 
Q 2509 2841 2209 2841 
Q 1884 2841 1681 2658 
Q 1478 2475 1428 2131 
L 2881 2131 
z
" transform="scale(0.015625)"/>
        <path id="DejaVuSans-Bold-61" d="M 2106 1575 
Q 1756 1575 1579 1456 
Q 1403 1338 1403 1106 
Q 1403 894 1545 773 
Q 1688 653 1941 653 
Q 2256 653 2472 879 
Q 2688 1106 2688 1447 
L 2688 1575 
L 2106 1575 
z
M 3816 1997 
L 3816 0 
L 2688 0 
L 2688 519 
Q 2463 200 2181 54 
Q 1900 -91 1497 -91 
Q 953 -91 614 226 
Q 275 544 275 1050 
Q 275 1666 698 1953 
Q 1122 2241 2028 2241 
L 2688 2241 
L 2688 2328 
Q 2688 2594 2478 2717 
Q 2269 2841 1825 2841 
Q 1466 2841 1156 2769 
Q 847 2697 581 2553 
L 581 3406 
Q 941 3494 1303 3539 
Q 1666 3584 2028 3584 
Q 2975 3584 3395 3211 
Q 3816 2838 3816 1997 
z
" transform="scale(0.015625)"/>
        <path id="DejaVuSans-Bold-6e" d="M 4056 2131 
L 4056 0 
L 2931 0 
L 2931 347 
L 2931 1631 
Q 2931 2084 2911 2256 
Q 2891 2428 2841 2509 
Q 2775 2619 2662 2680 
Q 2550 2741 2406 2741 
Q 2056 2741 1856 2470 
Q 1656 2200 1656 1722 
L 1656 0 
L 538 0 
L 538 3500 
L 1656 3500 
L 1656 2988 
Q 1909 3294 2193 3439 
Q 2478 3584 2822 3584 
Q 3428 3584 3742 3212 
Q 4056 2841 4056 2131 
z
" transform="scale(0.015625)"/>
        <path id="DejaVuSans-Bold-20" transform="scale(0.015625)"/>
        <path id="DejaVuSans-Bold-44" d="M 1791 3756 
L 1791 909 
L 2222 909 
Q 2959 909 3348 1275 
Q 3738 1641 3738 2338 
Q 3738 3031 3350 3393 
Q 2963 3756 2222 3756 
L 1791 3756 
z
M 588 4666 
L 1856 4666 
Q 2919 4666 3439 4514 
Q 3959 4363 4331 4000 
Q 4659 3684 4818 3271 
Q 4978 2859 4978 2338 
Q 4978 1809 4818 1395 
Q 4659 981 4331 666 
Q 3956 303 3431 151 
Q 2906 0 1856 0 
L 588 0 
L 588 4666 
z
" transform="scale(0.015625)"/>
        <path id="DejaVuSans-Bold-72" d="M 3138 2547 
Q 2991 2616 2845 2648 
Q 2700 2681 2553 2681 
Q 2122 2681 1889 2404 
Q 1656 2128 1656 1613 
L 1656 0 
L 538 0 
L 538 3500 
L 1656 3500 
L 1656 2925 
Q 1872 3269 2151 3426 
Q 2431 3584 2822 3584 
Q 2878 3584 2943 3579 
Q 3009 3575 3134 3559 
L 3138 2547 
z
" transform="scale(0.015625)"/>
        <path id="DejaVuSans-Bold-69" d="M 538 3500 
L 1656 3500 
L 1656 0 
L 538 0 
L 538 3500 
z
M 538 4863 
L 1656 4863 
L 1656 3950 
L 538 3950 
L 538 4863 
z
" transform="scale(0.015625)"/>
        <path id="DejaVuSans-Bold-66" d="M 2841 4863 
L 2841 4128 
L 2222 4128 
Q 1984 4128 1890 4042 
Q 1797 3956 1797 3744 
L 1797 3500 
L 2753 3500 
L 2753 2700 
L 1797 2700 
L 1797 0 
L 678 0 
L 678 2700 
L 122 2700 
L 122 3500 
L 678 3500 
L 678 3744 
Q 678 4316 997 4589 
Q 1316 4863 1984 4863 
L 2841 4863 
z
" transform="scale(0.015625)"/>
        <path id="DejaVuSans-Bold-74" d="M 1759 4494 
L 1759 3500 
L 2913 3500 
L 2913 2700 
L 1759 2700 
L 1759 1216 
Q 1759 972 1856 886 
Q 1953 800 2241 800 
L 2816 800 
L 2816 0 
L 1856 0 
Q 1194 0 917 276 
Q 641 553 641 1216 
L 641 2700 
L 84 2700 
L 84 3500 
L 641 3500 
L 641 4494 
L 1759 4494 
z
" transform="scale(0.015625)"/>
       </defs>
       <use xlink:href="#DejaVuSans-Bold-4d"/>
       <use xlink:href="#DejaVuSans-Bold-65" transform="translate(99.511719 0)"/>
       <use xlink:href="#DejaVuSans-Bold-61" transform="translate(167.333984 0)"/>
       <use xlink:href="#DejaVuSans-Bold-6e" transform="translate(234.814453 0)"/>
       <use xlink:href="#DejaVuSans-Bold-20" transform="translate(306.005859 0)"/>
       <use xlink:href="#DejaVuSans-Bold-44" transform="translate(340.820312 0)"/>
       <use xlink:href="#DejaVuSans-Bold-72" transform="translate(423.828125 0)"/>
       <use xlink:href="#DejaVuSans-Bold-69" transform="translate(473.144531 0)"/>
       <use xlink:href="#DejaVuSans-Bold-66" transform="translate(507.421875 0)"/>
       <use xlink:href="#DejaVuSans-Bold-74" transform="translate(550.927734 0)"/>
      </g>
     </g>
    </g>
    <g id="xtick_2">
     <g id="line2d_2">
      <path d="M 318.22 375.424 
L 414.330466 79.626402 
" clip-path="url(#pe346d5aeee)" style="fill: none; stroke: #b0b0b0; stroke-width: 0.8; stroke-linecap: square"/>
     </g>
     <g id="text_2">
      <!-- Peak Drift -->
      <g transform="translate(387.426157 69.346924) scale(0.11 -0.11)">
       <defs>
        <path id="DejaVuSans-Bold-50" d="M 588 4666 
L 2584 4666 
Q 3475 4666 3951 4270 
Q 4428 3875 4428 3144 
Q 4428 2409 3951 2014 
Q 3475 1619 2584 1619 
L 1791 1619 
L 1791 0 
L 588 0 
L 588 4666 
z
M 1791 3794 
L 1791 2491 
L 2456 2491 
Q 2806 2491 2997 2661 
Q 3188 2831 3188 3144 
Q 3188 3456 2997 3625 
Q 2806 3794 2456 3794 
L 1791 3794 
z
" transform="scale(0.015625)"/>
        <path id="DejaVuSans-Bold-6b" d="M 538 4863 
L 1656 4863 
L 1656 2216 
L 2944 3500 
L 4244 3500 
L 2534 1894 
L 4378 0 
L 3022 0 
L 1656 1459 
L 1656 0 
L 538 0 
L 538 4863 
z
" transform="scale(0.015625)"/>
       </defs>
       <use xlink:href="#DejaVuSans-Bold-50"/>
       <use xlink:href="#DejaVuSans-Bold-65" transform="translate(73.291016 0)"/>
       <use xlink:href="#DejaVuSans-Bold-61" transform="translate(141.113281 0)"/>
       <use xlink:href="#DejaVuSans-Bold-6b" transform="translate(208.59375 0)"/>
       <use xlink:href="#DejaVuSans-Bold-20" transform="translate(275.097656 0)"/>
       <use xlink:href="#DejaVuSans-Bold-44" transform="translate(309.912109 0)"/>
       <use xlink:href="#DejaVuSans-Bold-72" transform="translate(392.919922 0)"/>
       <use xlink:href="#DejaVuSans-Bold-69" transform="translate(442.236328 0)"/>
       <use xlink:href="#DejaVuSans-Bold-66" transform="translate(476.513672 0)"/>
       <use xlink:href="#DejaVuSans-Bold-74" transform="translate(520.019531 0)"/>
      </g>
     </g>
    </g>
    <g id="xtick_3">
     <g id="line2d_3">
      <path d="M 318.22 375.424 
L 66.599534 192.611031 
" clip-path="url(#pe346d5aeee)" style="fill: none; stroke: #b0b0b0; stroke-width: 0.8; stroke-linecap: square"/>
     </g>
     <g id="text_3">
      <!-- Volatility -->
      <g transform="translate(27.444156 187.374381) scale(0.11 -0.11)">
       <defs>
        <path id="DejaVuSans-Bold-56" d="M 31 4666 
L 1241 4666 
L 2478 1222 
L 3713 4666 
L 4922 4666 
L 3194 0 
L 1759 0 
L 31 4666 
z
" transform="scale(0.015625)"/>
        <path id="DejaVuSans-Bold-6f" d="M 2203 2784 
Q 1831 2784 1636 2517 
Q 1441 2250 1441 1747 
Q 1441 1244 1636 976 
Q 1831 709 2203 709 
Q 2569 709 2762 976 
Q 2956 1244 2956 1747 
Q 2956 2250 2762 2517 
Q 2569 2784 2203 2784 
z
M 2203 3584 
Q 3106 3584 3614 3096 
Q 4122 2609 4122 1747 
Q 4122 884 3614 396 
Q 3106 -91 2203 -91 
Q 1297 -91 786 396 
Q 275 884 275 1747 
Q 275 2609 786 3096 
Q 1297 3584 2203 3584 
z
" transform="scale(0.015625)"/>
        <path id="DejaVuSans-Bold-6c" d="M 538 4863 
L 1656 4863 
L 1656 0 
L 538 0 
L 538 4863 
z
" transform="scale(0.015625)"/>
        <path id="DejaVuSans-Bold-79" d="M 78 3500 
L 1197 3500 
L 2138 1125 
L 2938 3500 
L 4056 3500 
L 2584 -331 
Q 2363 -916 2067 -1148 
Q 1772 -1381 1288 -1381 
L 641 -1381 
L 641 -647 
L 991 -647 
Q 1275 -647 1404 -556 
Q 1534 -466 1606 -231 
L 1638 -134 
L 78 3500 
z
" transform="scale(0.015625)"/>
       </defs>
       <use xlink:href="#DejaVuSans-Bold-56"/>
       <use xlink:href="#DejaVuSans-Bold-6f" transform="translate(71.892578 0)"/>
       <use xlink:href="#DejaVuSans-Bold-6c" transform="translate(140.59375 0)"/>
       <use xlink:href="#DejaVuSans-Bold-61" transform="translate(174.871094 0)"/>
       <use xlink:href="#DejaVuSans-Bold-74" transform="translate(242.351562 0)"/>
       <use xlink:href="#DejaVuSans-Bold-69" transform="translate(290.154297 0)"/>
       <use xlink:href="#DejaVuSans-Bold-6c" transform="translate(324.431641 0)"/>
       <use xlink:href="#DejaVuSans-Bold-69" transform="translate(358.708984 0)"/>
       <use xlink:href="#DejaVuSans-Bold-74" transform="translate(392.986328 0)"/>
       <use xlink:href="#DejaVuSans-Bold-79" transform="translate(440.789062 0)"/>
      </g>
     </g>
    </g>
    <g id="xtick_4">
     <g id="line2d_4">
      <path d="M 318.22 375.424 
L 66.599534 558.236969 
" clip-path="url(#pe346d5aeee)" style="fill: none; stroke: #b0b0b0; stroke-width: 0.8; stroke-linecap: square"/>
     </g>
     <g id="text_4">
      <!-- Stability -->
      <g transform="translate(29.164625 569.458306) scale(0.11 -0.11)">
       <defs>
        <path id="DejaVuSans-Bold-53" d="M 3834 4519 
L 3834 3531 
Q 3450 3703 3084 3790 
Q 2719 3878 2394 3878 
Q 1963 3878 1756 3759 
Q 1550 3641 1550 3391 
Q 1550 3203 1689 3098 
Q 1828 2994 2194 2919 
L 2706 2816 
Q 3484 2659 3812 2340 
Q 4141 2022 4141 1434 
Q 4141 663 3683 286 
Q 3225 -91 2284 -91 
Q 1841 -91 1394 -6 
Q 947 78 500 244 
L 500 1259 
Q 947 1022 1364 901 
Q 1781 781 2169 781 
Q 2563 781 2772 912 
Q 2981 1044 2981 1288 
Q 2981 1506 2839 1625 
Q 2697 1744 2272 1838 
L 1806 1941 
Q 1106 2091 782 2419 
Q 459 2747 459 3303 
Q 459 4000 909 4375 
Q 1359 4750 2203 4750 
Q 2588 4750 2994 4692 
Q 3400 4634 3834 4519 
z
" transform="scale(0.015625)"/>
        <path id="DejaVuSans-Bold-62" d="M 2400 722 
Q 2759 722 2948 984 
Q 3138 1247 3138 1747 
Q 3138 2247 2948 2509 
Q 2759 2772 2400 2772 
Q 2041 2772 1848 2508 
Q 1656 2244 1656 1747 
Q 1656 1250 1848 986 
Q 2041 722 2400 722 
z
M 1656 2988 
Q 1888 3294 2169 3439 
Q 2450 3584 2816 3584 
Q 3463 3584 3878 3070 
Q 4294 2556 4294 1747 
Q 4294 938 3878 423 
Q 3463 -91 2816 -91 
Q 2450 -91 2169 54 
Q 1888 200 1656 506 
L 1656 0 
L 538 0 
L 538 4863 
L 1656 4863 
L 1656 2988 
z
" transform="scale(0.015625)"/>
       </defs>
       <use xlink:href="#DejaVuSans-Bold-53"/>
       <use xlink:href="#DejaVuSans-Bold-74" transform="translate(72.021484 0)"/>
       <use xlink:href="#DejaVuSans-Bold-61" transform="translate(119.824219 0)"/>
       <use xlink:href="#DejaVuSans-Bold-62" transform="translate(187.304688 0)"/>
       <use xlink:href="#DejaVuSans-Bold-69" transform="translate(258.886719 0)"/>
       <use xlink:href="#DejaVuSans-Bold-6c" transform="translate(293.164062 0)"/>
       <use xlink:href="#DejaVuSans-Bold-69" transform="translate(327.441406 0)"/>
       <use xlink:href="#DejaVuSans-Bold-74" transform="translate(361.71875 0)"/>
       <use xlink:href="#DejaVuSans-Bold-79" transform="translate(409.521484 0)"/>
      </g>
     </g>
    </g>
    <g id="xtick_5">
     <g id="line2d_5">
      <path d="M 318.22 375.424 
L 414.330466 671.221598 
" clip-path="url(#pe346d5aeee)" style="fill: none; stroke: #b0b0b0; stroke-width: 0.8; stroke-linecap: square"/>
     </g>
     <g id="text_5">
      <!-- Consistency -->
      <g transform="translate(381.373579 687.528733) scale(0.11 -0.11)">
       <defs>
        <path id="DejaVuSans-Bold-43" d="M 4288 256 
Q 3956 84 3597 -3 
Q 3238 -91 2847 -91 
Q 1681 -91 1000 561 
Q 319 1213 319 2328 
Q 319 3447 1000 4098 
Q 1681 4750 2847 4750 
Q 3238 4750 3597 4662 
Q 3956 4575 4288 4403 
L 4288 3438 
Q 3953 3666 3628 3772 
Q 3303 3878 2944 3878 
Q 2300 3878 1931 3465 
Q 1563 3053 1563 2328 
Q 1563 1606 1931 1193 
Q 2300 781 2944 781 
Q 3303 781 3628 887 
Q 3953 994 4288 1222 
L 4288 256 
z
" transform="scale(0.015625)"/>
        <path id="DejaVuSans-Bold-73" d="M 3272 3391 
L 3272 2541 
Q 2913 2691 2578 2766 
Q 2244 2841 1947 2841 
Q 1628 2841 1473 2761 
Q 1319 2681 1319 2516 
Q 1319 2381 1436 2309 
Q 1553 2238 1856 2203 
L 2053 2175 
Q 2913 2066 3209 1816 
Q 3506 1566 3506 1031 
Q 3506 472 3093 190 
Q 2681 -91 1863 -91 
Q 1516 -91 1145 -36 
Q 775 19 384 128 
L 384 978 
Q 719 816 1070 734 
Q 1422 653 1784 653 
Q 2113 653 2278 743 
Q 2444 834 2444 1013 
Q 2444 1163 2330 1236 
Q 2216 1309 1875 1350 
L 1678 1375 
Q 931 1469 631 1722 
Q 331 1975 331 2491 
Q 331 3047 712 3315 
Q 1094 3584 1881 3584 
Q 2191 3584 2531 3537 
Q 2872 3491 3272 3391 
z
" transform="scale(0.015625)"/>
        <path id="DejaVuSans-Bold-63" d="M 3366 3391 
L 3366 2478 
Q 3138 2634 2908 2709 
Q 2678 2784 2431 2784 
Q 1963 2784 1702 2511 
Q 1441 2238 1441 1747 
Q 1441 1256 1702 982 
Q 1963 709 2431 709 
Q 2694 709 2930 787 
Q 3166 866 3366 1019 
L 3366 103 
Q 3103 6 2833 -42 
Q 2563 -91 2291 -91 
Q 1344 -91 809 395 
Q 275 881 275 1747 
Q 275 2613 809 3098 
Q 1344 3584 2291 3584 
Q 2566 3584 2833 3536 
Q 3100 3488 3366 3391 
z
" transform="scale(0.015625)"/>
       </defs>
       <use xlink:href="#DejaVuSans-Bold-43"/>
       <use xlink:href="#DejaVuSans-Bold-6f" transform="translate(73.388672 0)"/>
       <use xlink:href="#DejaVuSans-Bold-6e" transform="translate(142.089844 0)"/>
       <use xlink:href="#DejaVuSans-Bold-73" transform="translate(213.28125 0)"/>
       <use xlink:href="#DejaVuSans-Bold-69" transform="translate(272.802734 0)"/>
       <use xlink:href="#DejaVuSans-Bold-73" transform="translate(307.080078 0)"/>
       <use xlink:href="#DejaVuSans-Bold-74" transform="translate(366.601562 0)"/>
       <use xlink:href="#DejaVuSans-Bold-65" transform="translate(414.404297 0)"/>
       <use xlink:href="#DejaVuSans-Bold-6e" transform="translate(482.226562 0)"/>
       <use xlink:href="#DejaVuSans-Bold-63" transform="translate(553.417969 0)"/>
       <use xlink:href="#DejaVuSans-Bold-79" transform="translate(612.695312 0)"/>
      </g>
     </g>
    </g>
   </g>
   <g id="matplotlib.axis_2">
    <g id="ytick_1">
     <g id="line2d_6">
      <path d="M 395.975 375.424 
C 395.975 365.213307 393.963716 355.1019 390.056253 345.66845 
C 386.14879 336.234999 380.421138 327.662963 373.201088 320.442912 
C 365.981037 313.222862 357.409001 307.49521 347.97555 303.587747 
C 338.5421 299.680284 328.430693 297.669 318.22 297.669 
C 308.009307 297.669 297.8979 299.680284 288.46445 303.587747 
C 279.030999 307.49521 270.458963 313.222862 263.238912 320.442912 
C 256.018862 327.662963 250.29121 336.234999 246.383747 345.66845 
C 242.476284 355.1019 240.465 365.213307 240.465 375.424 
C 240.465 385.634693 242.476284 395.7461 246.383747 405.17955 
C 250.29121 414.613001 256.018862 423.185037 263.238912 430.405088 
C 270.458963 437.625138 279.030999 443.35279 288.46445 447.260253 
C 297.8979 451.167716 308.009307 453.179 318.22 453.179 
C 328.430693 453.179 338.5421 451.167716 347.97555 447.260253 
C 357.409001 443.35279 365.981037 437.625138 373.201088 430.405088 
C 380.421138 423.185037 386.14879 414.613001 390.056253 405.17955 
C 393.963716 395.7461 395.975 385.634693 395.975 375.424 
" clip-path="url(#pe346d5aeee)" style="fill: none; stroke: #b0b0b0; stroke-width: 0.8; stroke-linecap: square"/>
     </g>
     <g id="text_6">
      <!-- 25% -->
      <g transform="translate(390.056253 343.796731) scale(0.09 -0.09)">
       <defs>
        <path id="DejaVuSans-32" d="M 1228 531 
L 3431 531 
L 3431 0 
L 469 0 
L 469 531 
Q 828 903 1448 1529 
Q 2069 2156 2228 2338 
Q 2531 2678 2651 2914 
Q 2772 3150 2772 3378 
Q 2772 3750 2511 3984 
Q 2250 4219 1831 4219 
Q 1534 4219 1204 4116 
Q 875 4013 500 3803 
L 500 4441 
Q 881 4594 1212 4672 
Q 1544 4750 1819 4750 
Q 2544 4750 2975 4387 
Q 3406 4025 3406 3419 
Q 3406 3131 3298 2873 
Q 3191 2616 2906 2266 
Q 2828 2175 2409 1742 
Q 1991 1309 1228 531 
z
" transform="scale(0.015625)"/>
        <path id="DejaVuSans-35" d="M 691 4666 
L 3169 4666 
L 3169 4134 
L 1269 4134 
L 1269 2991 
Q 1406 3038 1543 3061 
Q 1681 3084 1819 3084 
Q 2600 3084 3056 2656 
Q 3513 2228 3513 1497 
Q 3513 744 3044 326 
Q 2575 -91 1722 -91 
Q 1428 -91 1123 -41 
Q 819 9 494 109 
L 494 744 
Q 775 591 1075 516 
Q 1375 441 1709 441 
Q 2250 441 2565 725 
Q 2881 1009 2881 1497 
Q 2881 1984 2565 2268 
Q 2250 2553 1709 2553 
Q 1456 2553 1204 2497 
Q 953 2441 691 2322 
L 691 4666 
z
" transform="scale(0.015625)"/>
        <path id="DejaVuSans-25" d="M 4653 2053 
Q 4381 2053 4226 1822 
Q 4072 1591 4072 1178 
Q 4072 772 4226 539 
Q 4381 306 4653 306 
Q 4919 306 5073 539 
Q 5228 772 5228 1178 
Q 5228 1588 5073 1820 
Q 4919 2053 4653 2053 
z
M 4653 2450 
Q 5147 2450 5437 2106 
Q 5728 1763 5728 1178 
Q 5728 594 5436 251 
Q 5144 -91 4653 -91 
Q 4153 -91 3862 251 
Q 3572 594 3572 1178 
Q 3572 1766 3864 2108 
Q 4156 2450 4653 2450 
z
M 1428 4353 
Q 1159 4353 1004 4120 
Q 850 3888 850 3481 
Q 850 3069 1003 2837 
Q 1156 2606 1428 2606 
Q 1700 2606 1854 2837 
Q 2009 3069 2009 3481 
Q 2009 3884 1853 4118 
Q 1697 4353 1428 4353 
z
M 4250 4750 
L 4750 4750 
L 1831 -91 
L 1331 -91 
L 4250 4750 
z
M 1428 4750 
Q 1922 4750 2215 4408 
Q 2509 4066 2509 3481 
Q 2509 2891 2217 2550 
Q 1925 2209 1428 2209 
Q 931 2209 642 2551 
Q 353 2894 353 3481 
Q 353 4063 643 4406 
Q 934 4750 1428 4750 
z
" transform="scale(0.015625)"/>
       </defs>
       <use xlink:href="#DejaVuSans-32"/>
       <use xlink:href="#DejaVuSans-35" transform="translate(63.623047 0)"/>
       <use xlink:href="#DejaVuSans-25" transform="translate(127.246094 0)"/>
      </g>
     </g>
    </g>
    <g id="ytick_2">
     <g id="line2d_7">
      <path d="M 473.73 375.424 
C 473.73 355.002614 469.707432 334.7798 461.892506 315.912899 
C 454.07758 297.045999 442.622276 279.901925 428.182176 265.461824 
C 413.742075 251.021724 396.598001 239.56642 377.731101 231.751494 
C 358.8642 223.936568 338.641386 219.914 318.22 219.914 
C 297.798614 219.914 277.5758 223.936568 258.708899 231.751494 
C 239.841999 239.56642 222.697925 251.021724 208.257824 265.461824 
C 193.817724 279.901925 182.36242 297.045999 174.547494 315.912899 
C 166.732568 334.7798 162.71 355.002614 162.71 375.424 
C 162.71 395.845386 166.732568 416.0682 174.547494 434.935101 
C 182.36242 453.802001 193.817724 470.946075 208.257824 485.386176 
C 222.697925 499.826276 239.841999 511.28158 258.708899 519.096506 
C 277.5758 526.911432 297.798614 530.934 318.22 530.934 
C 338.641386 530.934 358.8642 526.911432 377.731101 519.096506 
C 396.598001 511.28158 413.742075 499.826276 428.182176 485.386176 
C 442.622276 470.946075 454.07758 453.802001 461.892506 434.935101 
C 469.707432 416.0682 473.73 395.845386 473.73 375.424 
" clip-path="url(#pe346d5aeee)" style="fill: none; stroke: #b0b0b0; stroke-width: 0.8; stroke-linecap: square"/>
     </g>
     <g id="text_7">
      <!-- 50% -->
      <g transform="translate(461.892506 314.041181) scale(0.09 -0.09)">
       <defs>
        <path id="DejaVuSans-30" d="M 2034 4250 
Q 1547 4250 1301 3770 
Q 1056 3291 1056 2328 
Q 1056 1369 1301 889 
Q 1547 409 2034 409 
Q 2525 409 2770 889 
Q 3016 1369 3016 2328 
Q 3016 3291 2770 3770 
Q 2525 4250 2034 4250 
z
M 2034 4750 
Q 2819 4750 3233 4129 
Q 3647 3509 3647 2328 
Q 3647 1150 3233 529 
Q 2819 -91 2034 -91 
Q 1250 -91 836 529 
Q 422 1150 422 2328 
Q 422 3509 836 4129 
Q 1250 4750 2034 4750 
z
" transform="scale(0.015625)"/>
       </defs>
       <use xlink:href="#DejaVuSans-35"/>
       <use xlink:href="#DejaVuSans-30" transform="translate(63.623047 0)"/>
       <use xlink:href="#DejaVuSans-25" transform="translate(127.246094 0)"/>
      </g>
     </g>
    </g>
    <g id="ytick_3">
     <g id="line2d_8">
      <path d="M 551.485 375.424 
C 551.485 344.791921 545.451148 314.4577 533.728759 286.157349 
C 522.00637 257.856998 504.823414 232.140888 483.163263 210.480737 
C 461.503112 188.820586 435.787002 171.63763 407.486651 159.915241 
C 379.1863 148.192852 348.852079 142.159 318.22 142.159 
C 287.587921 142.159 257.2537 148.192852 228.953349 159.915241 
C 200.652998 171.63763 174.936888 188.820586 153.276737 210.480737 
C 131.616586 232.140888 114.43363 257.856998 102.711241 286.157349 
C 90.988852 314.4577 84.955 344.791921 84.955 375.424 
C 84.955 406.056079 90.988852 436.3903 102.711241 464.690651 
C 114.43363 492.991002 131.616586 518.707112 153.276737 540.367263 
C 174.936888 562.027414 200.652998 579.21037 228.953349 590.932759 
C 257.2537 602.655148 287.587921 608.689 318.22 608.689 
C 348.852079 608.689 379.1863 602.655148 407.486651 590.932759 
C 435.787002 579.21037 461.503112 562.027414 483.163263 540.367263 
C 504.823414 518.707112 522.00637 492.991002 533.728759 464.690651 
C 545.451148 436.3903 551.485 406.056079 551.485 375.424 
" clip-path="url(#pe346d5aeee)" style="fill: none; stroke: #b0b0b0; stroke-width: 0.8; stroke-linecap: square"/>
     </g>
     <g id="text_8">
      <!-- 75% -->
      <g transform="translate(533.728759 284.28563) scale(0.09 -0.09)">
       <defs>
        <path id="DejaVuSans-37" d="M 525 4666 
L 3525 4666 
L 3525 4397 
L 1831 0 
L 1172 0 
L 2766 4134 
L 525 4134 
L 525 4666 
z
" transform="scale(0.015625)"/>
       </defs>
       <use xlink:href="#DejaVuSans-37"/>
       <use xlink:href="#DejaVuSans-35" transform="translate(63.623047 0)"/>
       <use xlink:href="#DejaVuSans-25" transform="translate(127.246094 0)"/>
      </g>
     </g>
    </g>
    <g id="ytick_4">
     <g id="line2d_9">
      <path d="M 629.24 375.424 
C 629.24 334.581228 621.194864 294.1356 605.565012 256.401799 
C 589.93516 218.667998 567.024552 184.37985 538.144351 155.499649 
C 509.26415 126.619448 474.976002 103.70884 437.242201 88.078988 
C 399.5084 72.449136 359.062772 64.404 318.22 64.404 
C 277.377228 64.404 236.9316 72.449136 199.197799 88.078988 
C 161.463998 103.70884 127.17585 126.619448 98.295649 155.499649 
C 69.415448 184.37985 46.50484 218.667998 30.874988 256.401799 
C 15.245136 294.1356 7.2 334.581228 7.2 375.424 
C 7.2 416.266772 15.245136 456.7124 30.874988 494.446201 
C 46.50484 532.180002 69.415448 566.46815 98.295649 595.348351 
C 127.17585 624.228552 161.463998 647.13916 199.197799 662.769012 
C 236.9316 678.398864 277.377228 686.444 318.22 686.444 
C 359.062772 686.444 399.5084 678.398864 437.242201 662.769012 
C 474.976002 647.13916 509.26415 624.228552 538.144351 595.348351 
C 567.024552 566.46815 589.93516 532.180002 605.565012 494.446201 
C 621.194864 456.7124 629.24 416.266772 629.24 375.424 
" clip-path="url(#pe346d5aeee)" style="fill: none; stroke: #b0b0b0; stroke-width: 0.8; stroke-linecap: square"/>
     </g>
     <g id="text_9">
      <!-- 100% -->
      <g transform="translate(605.565012 254.53008) scale(0.09 -0.09)">
       <defs>
        <path id="DejaVuSans-31" d="M 794 531 
L 1825 531 
L 1825 4091 
L 703 3866 
L 703 4441 
L 1819 4666 
L 2450 4666 
L 2450 531 
L 3481 531 
L 3481 0 
L 794 0 
L 794 531 
z
" transform="scale(0.015625)"/>
       </defs>
       <use xlink:href="#DejaVuSans-31"/>
       <use xlink:href="#DejaVuSans-30" transform="translate(63.623047 0)"/>
       <use xlink:href="#DejaVuSans-30" transform="translate(127.246094 0)"/>
       <use xlink:href="#DejaVuSans-25" transform="translate(190.869141 0)"/>
      </g>
     </g>
    </g>
   </g>
   <g id="line2d_10">
    <path d="M 451.472648 375.424 
L 355.636701 260.267237 
L 318.22 375.424 
L 66.599534 558.236969 
L 399.972973 627.03378 
L 451.472648 375.424 
" clip-path="url(#pe346d5aeee)" style="fill: none; stroke: #e57373; stroke-width: 2; stroke-linecap: square"/>
    <defs>
     <path id="me899fc22cb" d="M 0 3 
C 0.795609 3 1.55874 2.683901 2.12132 2.12132 
C 2.683901 1.55874 3 0.795609 3 0 
C 3 -0.795609 2.683901 -1.55874 2.12132 -2.12132 
C 1.55874 -2.683901 0.795609 -3 0 -3 
C -0.795609 -3 -1.55874 -2.683901 -2.12132 -2.12132 
C -2.683901 -1.55874 -3 -0.795609 -3 0 
C -3 0.795609 -2.683901 1.55874 -2.12132 2.12132 
C -1.55874 2.683901 -0.795609 3 0 3 
z
" style="stroke: #e57373"/>
    </defs>
    <g clip-path="url(#pe346d5aeee)">
     <use xlink:href="#me899fc22cb" x="451.472648" y="375.424" style="fill: #e57373; stroke: #e57373"/>
     <use xlink:href="#me899fc22cb" x="355.636701" y="260.267237" style="fill: #e57373; stroke: #e57373"/>
     <use xlink:href="#me899fc22cb" x="318.22" y="375.424" style="fill: #e57373; stroke: #e57373"/>
     <use xlink:href="#me899fc22cb" x="66.599534" y="558.236969" style="fill: #e57373; stroke: #e57373"/>
     <use xlink:href="#me899fc22cb" x="399.972973" y="627.03378" style="fill: #e57373; stroke: #e57373"/>
     <use xlink:href="#me899fc22cb" x="451.472648" y="375.424" style="fill: #e57373; stroke: #e57373"/>
    </g>
   </g>
   <g id="line2d_11">
    <path d="M 441.92702 375.424 
L 354.449005 263.922587 
L 297.818341 360.601327 
L 87.001194 543.414296 
L 395.435524 613.068948 
L 441.92702 375.424 
" clip-path="url(#pe346d5aeee)" style="fill: none; stroke: #81c784; stroke-width: 2; stroke-linecap: square"/>
    <defs>
     <path id="m08a5f83d7b" d="M 0 3 
C 0.795609 3 1.55874 2.683901 2.12132 2.12132 
C 2.683901 1.55874 3 0.795609 3 0 
C 3 -0.795609 2.683901 -1.55874 2.12132 -2.12132 
C 1.55874 -2.683901 0.795609 -3 0 -3 
C -0.795609 -3 -1.55874 -2.683901 -2.12132 -2.12132 
C -2.683901 -1.55874 -3 -0.795609 -3 0 
C -3 0.795609 -2.683901 1.55874 -2.12132 2.12132 
C -1.55874 2.683901 -0.795609 3 0 3 
z
" style="stroke: #81c784"/>
    </defs>
    <g clip-path="url(#pe346d5aeee)">
     <use xlink:href="#m08a5f83d7b" x="441.92702" y="375.424" style="fill: #81c784; stroke: #81c784"/>
     <use xlink:href="#m08a5f83d7b" x="354.449005" y="263.922587" style="fill: #81c784; stroke: #81c784"/>
     <use xlink:href="#m08a5f83d7b" x="297.818341" y="360.601327" style="fill: #81c784; stroke: #81c784"/>
     <use xlink:href="#m08a5f83d7b" x="87.001194" y="543.414296" style="fill: #81c784; stroke: #81c784"/>
     <use xlink:href="#m08a5f83d7b" x="395.435524" y="613.068948" style="fill: #81c784; stroke: #81c784"/>
     <use xlink:href="#m08a5f83d7b" x="441.92702" y="375.424" style="fill: #81c784; stroke: #81c784"/>
    </g>
   </g>
   <g id="line2d_12">
    <path d="M 425.664417 375.424 
L 349.743766 278.403825 
L 318.22 375.424 
L 66.599534 558.236969 
L 401.379831 631.363642 
L 425.664417 375.424 
" clip-path="url(#pe346d5aeee)" style="fill: none; stroke: #ffd54f; stroke-width: 2; stroke-linecap: square"/>
    <defs>
     <path id="m3e1b88fecc" d="M 0 3 
C 0.795609 3 1.55874 2.683901 2.12132 2.12132 
C 2.683901 1.55874 3 0.795609 3 0 
C 3 -0.795609 2.683901 -1.55874 2.12132 -2.12132 
C 1.55874 -2.683901 0.795609 -3 0 -3 
C -0.795609 -3 -1.55874 -2.683901 -2.12132 -2.12132 
C -2.683901 -1.55874 -3 -0.795609 -3 0 
C -3 0.795609 -2.683901 1.55874 -2.12132 2.12132 
C -1.55874 2.683901 -0.795609 3 0 3 
z
" style="stroke: #ffd54f"/>
    </defs>
    <g clip-path="url(#pe346d5aeee)">
     <use xlink:href="#m3e1b88fecc" x="425.664417" y="375.424" style="fill: #ffd54f; stroke: #ffd54f"/>
     <use xlink:href="#m3e1b88fecc" x="349.743766" y="278.403825" style="fill: #ffd54f; stroke: #ffd54f"/>
     <use xlink:href="#m3e1b88fecc" x="318.22" y="375.424" style="fill: #ffd54f; stroke: #ffd54f"/>
     <use xlink:href="#m3e1b88fecc" x="66.599534" y="558.236969" style="fill: #ffd54f; stroke: #ffd54f"/>
     <use xlink:href="#m3e1b88fecc" x="401.379831" y="631.363642" style="fill: #ffd54f; stroke: #ffd54f"/>
     <use xlink:href="#m3e1b88fecc" x="425.664417" y="375.424" style="fill: #ffd54f; stroke: #ffd54f"/>
    </g>
   </g>
   <g id="patch_6">
    <path d="M 629.24 375.424 
C 629.24 334.581228 621.194864 294.1356 605.565012 256.401799 
C 589.93516 218.667998 567.024552 184.37985 538.144351 155.499649 
C 509.26415 126.619448 474.976002 103.70884 437.242201 88.078988 
C 399.5084 72.449136 359.062772 64.404 318.22 64.404 
C 277.377228 64.404 236.9316 72.449136 199.197799 88.078988 
C 161.463998 103.70884 127.17585 126.619448 98.295649 155.499649 
C 69.415448 184.37985 46.50484 218.667998 30.874988 256.401799 
C 15.245136 294.1356 7.2 334.581228 7.2 375.424 
C 7.2 416.266772 15.245136 456.7124 30.874988 494.446201 
C 46.50484 532.180002 69.415448 566.46815 98.295649 595.348351 
C 127.17585 624.228552 161.463998 647.13916 199.197799 662.769012 
C 236.9316 678.398864 277.377228 686.444 318.22 686.444 
C 359.062772 686.444 399.5084 678.398864 437.242201 662.769012 
C 474.976002 647.13916 509.26415 624.228552 538.144351 595.348351 
C 567.024552 566.46815 589.93516 532.180002 605.565012 494.446201 
C 621.194864 456.7124 629.24 416.266772 629.24 375.424 
" style="fill: none; stroke: #000000; stroke-width: 0.8; stroke-linejoin: miter; stroke-linecap: square"/>
   </g>
   <g id="text_10">
    <!-- Run 018: Provider Identity Fingerprints -->
    <g transform="translate(162.40875 28.617688) scale(0.14 -0.14)">
     <defs>
      <path id="DejaVuSans-Bold-52" d="M 2297 2597 
Q 2675 2597 2839 2737 
Q 3003 2878 3003 3200 
Q 3003 3519 2839 3656 
Q 2675 3794 2297 3794 
L 1791 3794 
L 1791 2597 
L 2297 2597 
z
M 1791 1766 
L 1791 0 
L 588 0 
L 588 4666 
L 2425 4666 
Q 3347 4666 3776 4356 
Q 4206 4047 4206 3378 
Q 4206 2916 3982 2619 
Q 3759 2322 3309 2181 
Q 3556 2125 3751 1926 
Q 3947 1728 4147 1325 
L 4800 0 
L 3519 0 
L 2950 1159 
Q 2778 1509 2601 1637 
Q 2425 1766 2131 1766 
L 1791 1766 
z
" transform="scale(0.015625)"/>
      <path id="DejaVuSans-Bold-75" d="M 500 1363 
L 500 3500 
L 1625 3500 
L 1625 3150 
Q 1625 2866 1622 2436 
Q 1619 2006 1619 1863 
Q 1619 1441 1641 1255 
Q 1663 1069 1716 984 
Q 1784 875 1895 815 
Q 2006 756 2150 756 
Q 2500 756 2700 1025 
Q 2900 1294 2900 1772 
L 2900 3500 
L 4019 3500 
L 4019 0 
L 2900 0 
L 2900 506 
Q 2647 200 2364 54 
Q 2081 -91 1741 -91 
Q 1134 -91 817 281 
Q 500 653 500 1363 
z
" transform="scale(0.015625)"/>
      <path id="DejaVuSans-Bold-30" d="M 2944 2338 
Q 2944 3213 2780 3570 
Q 2616 3928 2228 3928 
Q 1841 3928 1675 3570 
Q 1509 3213 1509 2338 
Q 1509 1453 1675 1090 
Q 1841 728 2228 728 
Q 2613 728 2778 1090 
Q 2944 1453 2944 2338 
z
M 4147 2328 
Q 4147 1169 3647 539 
Q 3147 -91 2228 -91 
Q 1306 -91 806 539 
Q 306 1169 306 2328 
Q 306 3491 806 4120 
Q 1306 4750 2228 4750 
Q 3147 4750 3647 4120 
Q 4147 3491 4147 2328 
z
" transform="scale(0.015625)"/>
      <path id="DejaVuSans-Bold-31" d="M 750 831 
L 1813 831 
L 1813 3847 
L 722 3622 
L 722 4441 
L 1806 4666 
L 2950 4666 
L 2950 831 
L 4013 831 
L 4013 0 
L 750 0 
L 750 831 
z
" transform="scale(0.015625)"/>
      <path id="DejaVuSans-Bold-38" d="M 2228 2088 
Q 1891 2088 1709 1903 
Q 1528 1719 1528 1375 
Q 1528 1031 1709 848 
Q 1891 666 2228 666 
Q 2563 666 2741 848 
Q 2919 1031 2919 1375 
Q 2919 1722 2741 1905 
Q 2563 2088 2228 2088 
z
M 1350 2484 
Q 925 2613 709 2878 
Q 494 3144 494 3541 
Q 494 4131 934 4440 
Q 1375 4750 2228 4750 
Q 3075 4750 3515 4442 
Q 3956 4134 3956 3541 
Q 3956 3144 3739 2878 
Q 3522 2613 3097 2484 
Q 3572 2353 3814 2058 
Q 4056 1763 4056 1313 
Q 4056 619 3595 264 
Q 3134 -91 2228 -91 
Q 1319 -91 855 264 
Q 391 619 391 1313 
Q 391 1763 633 2058 
Q 875 2353 1350 2484 
z
M 1631 3419 
Q 1631 3141 1786 2991 
Q 1941 2841 2228 2841 
Q 2509 2841 2662 2991 
Q 2816 3141 2816 3419 
Q 2816 3697 2662 3845 
Q 2509 3994 2228 3994 
Q 1941 3994 1786 3844 
Q 1631 3694 1631 3419 
z
" transform="scale(0.015625)"/>
      <path id="DejaVuSans-Bold-3a" d="M 716 3500 
L 1844 3500 
L 1844 2291 
L 716 2291 
L 716 3500 
z
M 716 1209 
L 1844 1209 
L 1844 0 
L 716 0 
L 716 1209 
z
" transform="scale(0.015625)"/>
      <path id="DejaVuSans-Bold-76" d="M 97 3500 
L 1216 3500 
L 2088 1081 
L 2956 3500 
L 4078 3500 
L 2700 0 
L 1472 0 
L 97 3500 
z
" transform="scale(0.015625)"/>
      <path id="DejaVuSans-Bold-64" d="M 2919 2988 
L 2919 4863 
L 4044 4863 
L 4044 0 
L 2919 0 
L 2919 506 
Q 2688 197 2409 53 
Q 2131 -91 1766 -91 
Q 1119 -91 703 423 
Q 288 938 288 1747 
Q 288 2556 703 3070 
Q 1119 3584 1766 3584 
Q 2128 3584 2408 3439 
Q 2688 3294 2919 2988 
z
M 2181 722 
Q 2541 722 2730 984 
Q 2919 1247 2919 1747 
Q 2919 2247 2730 2509 
Q 2541 2772 2181 2772 
Q 1825 2772 1636 2509 
Q 1447 2247 1447 1747 
Q 1447 1247 1636 984 
Q 1825 722 2181 722 
z
" transform="scale(0.015625)"/>
      <path id="DejaVuSans-Bold-49" d="M 588 4666 
L 1791 4666 
L 1791 0 
L 588 0 
L 588 4666 
z
" transform="scale(0.015625)"/>
      <path id="DejaVuSans-Bold-46" d="M 588 4666 
L 3834 4666 
L 3834 3756 
L 1791 3756 
L 1791 2888 
L 3713 2888 
L 3713 1978 
L 1791 1978 
L 1791 0 
L 588 0 
L 588 4666 
z
" transform="scale(0.015625)"/>
      <path id="DejaVuSans-Bold-67" d="M 2919 594 
Q 2688 288 2409 144 
Q 2131 0 1766 0 
Q 1125 0 706 504 
Q 288 1009 288 1791 
Q 288 2575 706 3076 
Q 1125 3578 1766 3578 
Q 2131 3578 2409 3434 
Q 2688 3291 2919 2981 
L 2919 3500 
L 4044 3500 
L 4044 353 
Q 4044 -491 3511 -936 
Q 2978 -1381 1966 -1381 
Q 1638 -1381 1331 -1331 
Q 1025 -1281 716 -1178 
L 716 -306 
Q 1009 -475 1290 -558 
Q 1572 -641 1856 -641 
Q 2406 -641 2662 -400 
Q 2919 -159 2919 353 
L 2919 594 
z
M 2181 2772 
Q 1834 2772 1640 2515 
Q 1447 2259 1447 1791 
Q 1447 1309 1634 1061 
Q 1822 813 2181 813 
Q 2531 813 2725 1069 
Q 2919 1325 2919 1791 
Q 2919 2259 2725 2515 
Q 2531 2772 2181 2772 
z
" transform="scale(0.015625)"/>
      <path id="DejaVuSans-Bold-70" d="M 1656 506 
L 1656 -1331 
L 538 -1331 
L 538 3500 
L 1656 3500 
L 1656 2988 
Q 1888 3294 2169 3439 
Q 2450 3584 2816 3584 
Q 3463 3584 3878 3070 
Q 4294 2556 4294 1747 
Q 4294 938 3878 423 
Q 3463 -91 2816 -91 
Q 2450 -91 2169 54 
Q 1888 200 1656 506 
z
M 2400 2772 
Q 2041 2772 1848 2508 
Q 1656 2244 1656 1747 
Q 1656 1250 1848 986 
Q 2041 722 2400 722 
Q 2759 722 2948 984 
Q 3138 1247 3138 1747 
Q 3138 2247 2948 2509 
Q 2759 2772 2400 2772 
z
" transform="scale(0.015625)"/>
     </defs>
     <use xlink:href="#DejaVuSans-Bold-52"/>
     <use xlink:href="#DejaVuSans-Bold-75" transform="translate(77.001953 0)"/>
     <use xlink:href="#DejaVuSans-Bold-6e" transform="translate(148.193359 0)"/>
     <use xlink:href="#DejaVuSans-Bold-20" transform="translate(219.384766 0)"/>
     <use xlink:href="#DejaVuSans-Bold-30" transform="translate(254.199219 0)"/>
     <use xlink:href="#DejaVuSans-Bold-31" transform="translate(323.779297 0)"/>
     <use xlink:href="#DejaVuSans-Bold-38" transform="translate(393.359375 0)"/>
     <use xlink:href="#DejaVuSans-Bold-3a" transform="translate(462.939453 0)"/>
     <use xlink:href="#DejaVuSans-Bold-20" transform="translate(502.929688 0)"/>
     <use xlink:href="#DejaVuSans-Bold-50" transform="translate(537.744141 0)"/>
     <use xlink:href="#DejaVuSans-Bold-72" transform="translate(611.035156 0)"/>
     <use xlink:href="#DejaVuSans-Bold-6f" transform="translate(660.351562 0)"/>
     <use xlink:href="#DejaVuSans-Bold-76" transform="translate(729.052734 0)"/>
     <use xlink:href="#DejaVuSans-Bold-69" transform="translate(794.238281 0)"/>
     <use xlink:href="#DejaVuSans-Bold-64" transform="translate(828.515625 0)"/>
     <use xlink:href="#DejaVuSans-Bold-65" transform="translate(900.097656 0)"/>
     <use xlink:href="#DejaVuSans-Bold-72" transform="translate(967.919922 0)"/>
     <use xlink:href="#DejaVuSans-Bold-20" transform="translate(1017.236328 0)"/>
     <use xlink:href="#DejaVuSans-Bold-49" transform="translate(1052.050781 0)"/>
     <use xlink:href="#DejaVuSans-Bold-64" transform="translate(1089.257812 0)"/>
     <use xlink:href="#DejaVuSans-Bold-65" transform="translate(1160.839844 0)"/>
     <use xlink:href="#DejaVuSans-Bold-6e" transform="translate(1228.662109 0)"/>
     <use xlink:href="#DejaVuSans-Bold-74" transform="translate(1299.853516 0)"/>
     <use xlink:href="#DejaVuSans-Bold-69" transform="translate(1347.65625 0)"/>
     <use xlink:href="#DejaVuSans-Bold-74" transform="translate(1381.933594 0)"/>
     <use xlink:href="#DejaVuSans-Bold-79" transform="translate(1429.736328 0)"/>
     <use xlink:href="#DejaVuSans-Bold-20" transform="translate(1494.921875 0)"/>
     <use xlink:href="#DejaVuSans-Bold-46" transform="translate(1529.736328 0)"/>
     <use xlink:href="#DejaVuSans-Bold-69" transform="translate(1598.046875 0)"/>
     <use xlink:href="#DejaVuSans-Bold-6e" transform="translate(1632.324219 0)"/>
     <use xlink:href="#DejaVuSans-Bold-67" transform="translate(1703.515625 0)"/>
     <use xlink:href="#DejaVuSans-Bold-65" transform="translate(1775.097656 0)"/>
     <use xlink:href="#DejaVuSans-Bold-72" transform="translate(1842.919922 0)"/>
     <use xlink:href="#DejaVuSans-Bold-70" transform="translate(1892.236328 0)"/>
     <use xlink:href="#DejaVuSans-Bold-72" transform="translate(1963.818359 0)"/>
     <use xlink:href="#DejaVuSans-Bold-69" transform="translate(2013.134766 0)"/>
     <use xlink:href="#DejaVuSans-Bold-6e" transform="translate(2047.412109 0)"/>
     <use xlink:href="#DejaVuSans-Bold-74" transform="translate(2118.603516 0)"/>
     <use xlink:href="#DejaVuSans-Bold-73" transform="translate(2166.40625 0)"/>
    </g>
    <!-- (5-Dimensional Behavioral Signature) -->
    <g transform="translate(169.629687 44.404) scale(0.14 -0.14)">
     <defs>
      <path id="DejaVuSans-Bold-28" d="M 2413 -844 
L 1484 -844 
Q 1006 -72 778 623 
Q 550 1319 550 2003 
Q 550 2688 779 3389 
Q 1009 4091 1484 4856 
L 2413 4856 
Q 2013 4116 1813 3408 
Q 1613 2700 1613 2009 
Q 1613 1319 1811 609 
Q 2009 -100 2413 -844 
z
" transform="scale(0.015625)"/>
      <path id="DejaVuSans-Bold-35" d="M 678 4666 
L 3669 4666 
L 3669 3781 
L 1638 3781 
L 1638 3059 
Q 1775 3097 1914 3117 
Q 2053 3138 2203 3138 
Q 3056 3138 3531 2711 
Q 4006 2284 4006 1522 
Q 4006 766 3489 337 
Q 2972 -91 2053 -91 
Q 1656 -91 1267 -14 
Q 878 63 494 219 
L 494 1166 
Q 875 947 1217 837 
Q 1559 728 1863 728 
Q 2300 728 2551 942 
Q 2803 1156 2803 1522 
Q 2803 1891 2551 2103 
Q 2300 2316 1863 2316 
Q 1603 2316 1309 2248 
Q 1016 2181 678 2041 
L 678 4666 
z
" transform="scale(0.015625)"/>
      <path id="DejaVuSans-Bold-2d" d="M 347 2297 
L 2309 2297 
L 2309 1388 
L 347 1388 
L 347 2297 
z
" transform="scale(0.015625)"/>
      <path id="DejaVuSans-Bold-6d" d="M 3781 2919 
Q 3994 3244 4286 3414 
Q 4578 3584 4928 3584 
Q 5531 3584 5847 3212 
Q 6163 2841 6163 2131 
L 6163 0 
L 5038 0 
L 5038 1825 
Q 5041 1866 5042 1909 
Q 5044 1953 5044 2034 
Q 5044 2406 4934 2573 
Q 4825 2741 4581 2741 
Q 4263 2741 4089 2478 
Q 3916 2216 3909 1719 
L 3909 0 
L 2784 0 
L 2784 1825 
Q 2784 2406 2684 2573 
Q 2584 2741 2328 2741 
Q 2006 2741 1831 2477 
Q 1656 2213 1656 1722 
L 1656 0 
L 531 0 
L 531 3500 
L 1656 3500 
L 1656 2988 
Q 1863 3284 2130 3434 
Q 2397 3584 2719 3584 
Q 3081 3584 3359 3409 
Q 3638 3234 3781 2919 
z
" transform="scale(0.015625)"/>
      <path id="DejaVuSans-Bold-42" d="M 2456 2859 
Q 2741 2859 2887 2984 
Q 3034 3109 3034 3353 
Q 3034 3594 2887 3720 
Q 2741 3847 2456 3847 
L 1791 3847 
L 1791 2859 
L 2456 2859 
z
M 2497 819 
Q 2859 819 3042 972 
Q 3225 1125 3225 1434 
Q 3225 1738 3044 1889 
Q 2863 2041 2497 2041 
L 1791 2041 
L 1791 819 
L 2497 819 
z
M 3616 2497 
Q 4003 2384 4215 2081 
Q 4428 1778 4428 1338 
Q 4428 663 3972 331 
Q 3516 0 2584 0 
L 588 0 
L 588 4666 
L 2394 4666 
Q 3366 4666 3802 4372 
Q 4238 4078 4238 3431 
Q 4238 3091 4078 2852 
Q 3919 2613 3616 2497 
z
" transform="scale(0.015625)"/>
      <path id="DejaVuSans-Bold-68" d="M 4056 2131 
L 4056 0 
L 2931 0 
L 2931 347 
L 2931 1625 
Q 2931 2084 2911 2256 
Q 2891 2428 2841 2509 
Q 2775 2619 2662 2680 
Q 2550 2741 2406 2741 
Q 2056 2741 1856 2470 
Q 1656 2200 1656 1722 
L 1656 0 
L 538 0 
L 538 4863 
L 1656 4863 
L 1656 2988 
Q 1909 3294 2193 3439 
Q 2478 3584 2822 3584 
Q 3428 3584 3742 3212 
Q 4056 2841 4056 2131 
z
" transform="scale(0.015625)"/>
      <path id="DejaVuSans-Bold-29" d="M 513 -844 
Q 913 -100 1113 609 
Q 1313 1319 1313 2009 
Q 1313 2700 1113 3408 
Q 913 4116 513 4856 
L 1441 4856 
Q 1916 4091 2145 3389 
Q 2375 2688 2375 2003 
Q 2375 1319 2147 623 
Q 1919 -72 1441 -844 
L 513 -844 
z
" transform="scale(0.015625)"/>
     </defs>
     <use xlink:href="#DejaVuSans-Bold-28"/>
     <use xlink:href="#DejaVuSans-Bold-35" transform="translate(45.703125 0)"/>
     <use xlink:href="#DejaVuSans-Bold-2d" transform="translate(115.283203 0)"/>
     <use xlink:href="#DejaVuSans-Bold-44" transform="translate(156.787109 0)"/>
     <use xlink:href="#DejaVuSans-Bold-69" transform="translate(239.794922 0)"/>
     <use xlink:href="#DejaVuSans-Bold-6d" transform="translate(274.072266 0)"/>
     <use xlink:href="#DejaVuSans-Bold-65" transform="translate(378.271484 0)"/>
     <use xlink:href="#DejaVuSans-Bold-6e" transform="translate(446.09375 0)"/>
     <use xlink:href="#DejaVuSans-Bold-73" transform="translate(517.285156 0)"/>
     <use xlink:href="#DejaVuSans-Bold-69" transform="translate(576.806641 0)"/>
     <use xlink:href="#DejaVuSans-Bold-6f" transform="translate(611.083984 0)"/>
     <use xlink:href="#DejaVuSans-Bold-6e" transform="translate(679.785156 0)"/>
     <use xlink:href="#DejaVuSans-Bold-61" transform="translate(750.976562 0)"/>
     <use xlink:href="#DejaVuSans-Bold-6c" transform="translate(818.457031 0)"/>
     <use xlink:href="#DejaVuSans-Bold-20" transform="translate(852.734375 0)"/>
     <use xlink:href="#DejaVuSans-Bold-42" transform="translate(887.548828 0)"/>
     <use xlink:href="#DejaVuSans-Bold-65" transform="translate(963.769531 0)"/>
     <use xlink:href="#DejaVuSans-Bold-68" transform="translate(1031.591797 0)"/>
     <use xlink:href="#DejaVuSans-Bold-61" transform="translate(1102.783203 0)"/>
     <use xlink:href="#DejaVuSans-Bold-76" transform="translate(1170.263672 0)"/>
     <use xlink:href="#DejaVuSans-Bold-69" transform="translate(1235.449219 0)"/>
     <use xlink:href="#DejaVuSans-Bold-6f" transform="translate(1269.726562 0)"/>
     <use xlink:href="#DejaVuSans-Bold-72" transform="translate(1338.427734 0)"/>
     <use xlink:href="#DejaVuSans-Bold-61" transform="translate(1387.744141 0)"/>
     <use xlink:href="#DejaVuSans-Bold-6c" transform="translate(1455.224609 0)"/>
     <use xlink:href="#DejaVuSans-Bold-20" transform="translate(1489.501953 0)"/>
     <use xlink:href="#DejaVuSans-Bold-53" transform="translate(1524.316406 0)"/>
     <use xlink:href="#DejaVuSans-Bold-69" transform="translate(1596.337891 0)"/>
     <use xlink:href="#DejaVuSans-Bold-67" transform="translate(1630.615234 0)"/>
     <use xlink:href="#DejaVuSans-Bold-6e" transform="translate(1702.197266 0)"/>
     <use xlink:href="#DejaVuSans-Bold-61" transform="translate(1773.388672 0)"/>
     <use xlink:href="#DejaVuSans-Bold-74" transform="translate(1840.869141 0)"/>
     <use xlink:href="#DejaVuSans-Bold-75" transform="translate(1888.671875 0)"/>
     <use xlink:href="#DejaVuSans-Bold-72" transform="translate(1959.863281 0)"/>
     <use xlink:href="#DejaVuSans-Bold-65" transform="translate(2009.179688 0)"/>
     <use xlink:href="#DejaVuSans-Bold-29" transform="translate(2077.001953 0)"/>
    </g>
   </g>
   <g id="legend_1">
    <g id="patch_7">
     <path d="M 648.010062 54.234375 
L 715.546 54.234375 
Q 717.546 54.234375 717.546 52.234375 
L 717.546 9.2 
Q 717.546 7.2 715.546 7.2 
L 648.010062 7.2 
Q 646.010062 7.2 646.010062 9.2 
L 646.010062 52.234375 
Q 646.010062 54.234375 648.010062 54.234375 
z
" style="fill: #ffffff; opacity: 0.8; stroke: #cccccc; stroke-linejoin: miter"/>
    </g>
    <g id="line2d_13">
     <path d="M 650.010062 15.298437 
L 660.010062 15.298437 
L 670.010062 15.298437 
" style="fill: none; stroke: #e57373; stroke-width: 2; stroke-linecap: square"/>
     <g>
      <use xlink:href="#me899fc22cb" x="660.010062" y="15.298437" style="fill: #e57373; stroke: #e57373"/>
     </g>
    </g>
    <g id="text_11">
     <!-- Claude -->
     <g transform="translate(678.010062 18.798437) scale(0.1 -0.1)">
      <defs>
       <path id="DejaVuSans-43" d="M 4122 4306 
L 4122 3641 
Q 3803 3938 3442 4084 
Q 3081 4231 2675 4231 
Q 1875 4231 1450 3742 
Q 1025 3253 1025 2328 
Q 1025 1406 1450 917 
Q 1875 428 2675 428 
Q 3081 428 3442 575 
Q 3803 722 4122 1019 
L 4122 359 
Q 3791 134 3420 21 
Q 3050 -91 2638 -91 
Q 1578 -91 968 557 
Q 359 1206 359 2328 
Q 359 3453 968 4101 
Q 1578 4750 2638 4750 
Q 3056 4750 3426 4639 
Q 3797 4528 4122 4306 
z
" transform="scale(0.015625)"/>
       <path id="DejaVuSans-6c" d="M 603 4863 
L 1178 4863 
L 1178 0 
L 603 0 
L 603 4863 
z
" transform="scale(0.015625)"/>
       <path id="DejaVuSans-61" d="M 2194 1759 
Q 1497 1759 1228 1600 
Q 959 1441 959 1056 
Q 959 750 1161 570 
Q 1363 391 1709 391 
Q 2188 391 2477 730 
Q 2766 1069 2766 1631 
L 2766 1759 
L 2194 1759 
z
M 3341 1997 
L 3341 0 
L 2766 0 
L 2766 531 
Q 2569 213 2275 61 
Q 1981 -91 1556 -91 
Q 1019 -91 701 211 
Q 384 513 384 1019 
Q 384 1609 779 1909 
Q 1175 2209 1959 2209 
L 2766 2209 
L 2766 2266 
Q 2766 2663 2505 2880 
Q 2244 3097 1772 3097 
Q 1472 3097 1187 3025 
Q 903 2953 641 2809 
L 641 3341 
Q 956 3463 1253 3523 
Q 1550 3584 1831 3584 
Q 2591 3584 2966 3190 
Q 3341 2797 3341 1997 
z
" transform="scale(0.015625)"/>
       <path id="DejaVuSans-75" d="M 544 1381 
L 544 3500 
L 1119 3500 
L 1119 1403 
Q 1119 906 1312 657 
Q 1506 409 1894 409 
Q 2359 409 2629 706 
Q 2900 1003 2900 1516 
L 2900 3500 
L 3475 3500 
L 3475 0 
L 2900 0 
L 2900 538 
Q 2691 219 2414 64 
Q 2138 -91 1772 -91 
Q 1169 -91 856 284 
Q 544 659 544 1381 
z
M 1991 3584 
L 1991 3584 
z
" transform="scale(0.015625)"/>
       <path id="DejaVuSans-64" d="M 2906 2969 
L 2906 4863 
L 3481 4863 
L 3481 0 
L 2906 0 
L 2906 525 
Q 2725 213 2448 61 
Q 2172 -91 1784 -91 
Q 1150 -91 751 415 
Q 353 922 353 1747 
Q 353 2572 751 3078 
Q 1150 3584 1784 3584 
Q 2172 3584 2448 3432 
Q 2725 3281 2906 2969 
z
M 947 1747 
Q 947 1113 1208 752 
Q 1469 391 1925 391 
Q 2381 391 2643 752 
Q 2906 1113 2906 1747 
Q 2906 2381 2643 2742 
Q 2381 3103 1925 3103 
Q 1469 3103 1208 2742 
Q 947 2381 947 1747 
z
" transform="scale(0.015625)"/>
       <path id="DejaVuSans-65" d="M 3597 1894 
L 3597 1613 
L 953 1613 
Q 991 1019 1311 708 
Q 1631 397 2203 397 
Q 2534 397 2845 478 
Q 3156 559 3463 722 
L 3463 178 
Q 3153 47 2828 -22 
Q 2503 -91 2169 -91 
Q 1331 -91 842 396 
Q 353 884 353 1716 
Q 353 2575 817 3079 
Q 1281 3584 2069 3584 
Q 2775 3584 3186 3129 
Q 3597 2675 3597 1894 
z
M 3022 2063 
Q 3016 2534 2758 2815 
Q 2500 3097 2075 3097 
Q 1594 3097 1305 2825 
Q 1016 2553 972 2059 
L 3022 2063 
z
" transform="scale(0.015625)"/>
      </defs>
      <use xlink:href="#DejaVuSans-43"/>
      <use xlink:href="#DejaVuSans-6c" transform="translate(69.824219 0)"/>
      <use xlink:href="#DejaVuSans-61" transform="translate(97.607422 0)"/>
      <use xlink:href="#DejaVuSans-75" transform="translate(158.886719 0)"/>
      <use xlink:href="#DejaVuSans-64" transform="translate(222.265625 0)"/>
      <use xlink:href="#DejaVuSans-65" transform="translate(285.742188 0)"/>
     </g>
    </g>
    <g id="line2d_14">
     <path d="M 650.010062 29.976562 
L 660.010062 29.976562 
L 670.010062 29.976562 
" style="fill: none; stroke: #81c784; stroke-width: 2; stroke-linecap: square"/>
     <g>
      <use xlink:href="#m08a5f83d7b" x="660.010062" y="29.976562" style="fill: #81c784; stroke: #81c784"/>
     </g>
    </g>
    <g id="text_12">
     <!-- Gemini -->
     <g transform="translate(678.010062 33.476562) scale(0.1 -0.1)">
      <defs>
       <path id="DejaVuSans-47" d="M 3809 666 
L 3809 1919 
L 2778 1919 
L 2778 2438 
L 4434 2438 
L 4434 434 
Q 4069 175 3628 42 
Q 3188 -91 2688 -91 
Q 1594 -91 976 548 
Q 359 1188 359 2328 
Q 359 3472 976 4111 
Q 1594 4750 2688 4750 
Q 3144 4750 3555 4637 
Q 3966 4525 4313 4306 
L 4313 3634 
Q 3963 3931 3569 4081 
Q 3175 4231 2741 4231 
Q 1884 4231 1454 3753 
Q 1025 3275 1025 2328 
Q 1025 1384 1454 906 
Q 1884 428 2741 428 
Q 3075 428 3337 486 
Q 3600 544 3809 666 
z
" transform="scale(0.015625)"/>
       <path id="DejaVuSans-6d" d="M 3328 2828 
Q 3544 3216 3844 3400 
Q 4144 3584 4550 3584 
Q 5097 3584 5394 3201 
Q 5691 2819 5691 2113 
L 5691 0 
L 5113 0 
L 5113 2094 
Q 5113 2597 4934 2840 
Q 4756 3084 4391 3084 
Q 3944 3084 3684 2787 
Q 3425 2491 3425 1978 
L 3425 0 
L 2847 0 
L 2847 2094 
Q 2847 2600 2669 2842 
Q 2491 3084 2119 3084 
Q 1678 3084 1418 2786 
Q 1159 2488 1159 1978 
L 1159 0 
L 581 0 
L 581 3500 
L 1159 3500 
L 1159 2956 
Q 1356 3278 1631 3431 
Q 1906 3584 2284 3584 
Q 2666 3584 2933 3390 
Q 3200 3197 3328 2828 
z
" transform="scale(0.015625)"/>
       <path id="DejaVuSans-69" d="M 603 3500 
L 1178 3500 
L 1178 0 
L 603 0 
L 603 3500 
z
M 603 4863 
L 1178 4863 
L 1178 4134 
L 603 4134 
L 603 4863 
z
" transform="scale(0.015625)"/>
       <path id="DejaVuSans-6e" d="M 3513 2113 
L 3513 0 
L 2938 0 
L 2938 2094 
Q 2938 2591 2744 2837 
Q 2550 3084 2163 3084 
Q 1697 3084 1428 2787 
Q 1159 2491 1159 1978 
L 1159 0 
L 581 0 
L 581 3500 
L 1159 3500 
L 1159 2956 
Q 1366 3272 1645 3428 
Q 1925 3584 2291 3584 
Q 2894 3584 3203 3211 
Q 3513 2838 3513 2113 
z
" transform="scale(0.015625)"/>
      </defs>
      <use xlink:href="#DejaVuSans-47"/>
      <use xlink:href="#DejaVuSans-65" transform="translate(77.490234 0)"/>
      <use xlink:href="#DejaVuSans-6d" transform="translate(139.013672 0)"/>
      <use xlink:href="#DejaVuSans-69" transform="translate(236.425781 0)"/>
      <use xlink:href="#DejaVuSans-6e" transform="translate(264.208984 0)"/>
      <use xlink:href="#DejaVuSans-69" transform="translate(327.587891 0)"/>
     </g>
    </g>
    <g id="line2d_15">
     <path d="M 650.010062 44.654688 
L 660.010062 44.654688 
L 670.010062 44.654688 
" style="fill: none; stroke: #ffd54f; stroke-width: 2; stroke-linecap: square"/>
     <g>
      <use xlink:href="#m3e1b88fecc" x="660.010062" y="44.654688" style="fill: #ffd54f; stroke: #ffd54f"/>
     </g>
    </g>
    <g id="text_13">
     <!-- Grok -->
     <g transform="translate(678.010062 48.154688) scale(0.1 -0.1)">
      <defs>
       <path id="DejaVuSans-72" d="M 2631 2963 
Q 2534 3019 2420 3045 
Q 2306 3072 2169 3072 
Q 1681 3072 1420 2755 
Q 1159 2438 1159 1844 
L 1159 0 
L 581 0 
L 581 3500 
L 1159 3500 
L 1159 2956 
Q 1341 3275 1631 3429 
Q 1922 3584 2338 3584 
Q 2397 3584 2469 3576 
Q 2541 3569 2628 3553 
L 2631 2963 
z
" transform="scale(0.015625)"/>
       <path id="DejaVuSans-6f" d="M 1959 3097 
Q 1497 3097 1228 2736 
Q 959 2375 959 1747 
Q 959 1119 1226 758 
Q 1494 397 1959 397 
Q 2419 397 2687 759 
Q 2956 1122 2956 1747 
Q 2956 2369 2687 2733 
Q 2419 3097 1959 3097 
z
M 1959 3584 
Q 2709 3584 3137 3096 
Q 3566 2609 3566 1747 
Q 3566 888 3137 398 
Q 2709 -91 1959 -91 
Q 1206 -91 779 398 
Q 353 888 353 1747 
Q 353 2609 779 3096 
Q 1206 3584 1959 3584 
z
" transform="scale(0.015625)"/>
       <path id="DejaVuSans-6b" d="M 581 4863 
L 1159 4863 
L 1159 1991 
L 2875 3500 
L 3609 3500 
L 1753 1863 
L 3688 0 
L 2938 0 
L 1159 1709 
L 1159 0 
L 581 0 
L 581 4863 
z
" transform="scale(0.015625)"/>
      </defs>
      <use xlink:href="#DejaVuSans-47"/>
      <use xlink:href="#DejaVuSans-72" transform="translate(77.490234 0)"/>
      <use xlink:href="#DejaVuSans-6f" transform="translate(116.353516 0)"/>
      <use xlink:href="#DejaVuSans-6b" transform="translate(177.535156 0)"/>
     </g>
    </g>
   </g>
  </g>
 </g>
 <defs>
  <clipPath id="pe346d5aeee">
   <path d="M 629.24 375.424 
C 629.24 334.581228 621.194864 294.1356 605.565012 256.401799 
C 589.93516 218.667998 567.024552 184.37985 538.144351 155.499649 
C 509.26415 126.619448 474.976002 103.70884 437.242201 88.078988 
C 399.5084 72.449136 359.062772 64.404 318.22 64.404 
C 277.377228 64.404 236.9316 72.449136 199.197799 88.078988 
C 161.463998 103.70884 127.17585 126.619448 98.295649 155.499649 
C 69.415448 184.37985 46.50484 218.667998 30.874988 256.401799 
C 15.245136 294.1356 7.2 334.581228 7.2 375.424 
C 7.2 416.266772 15.245136 456.7124 30.874988 494.446201 
C 46.50484 532.180002 69.415448 566.46815 98.295649 595.348351 
C 127.17585 624.228552 161.463998 647.13916 199.197799 662.769012 
C 236.9316 678.398864 277.377228 686.444 318.22 686.444 
C 359.062772 686.444 399.5084 678.398864 437.242201 662.769012 
C 474.976002 647.13916 509.26415 624.228552 538.144351 595.348351 
C 567.024552 566.46815 589.93516 532.180002 605.565012 494.446201 
C 621.194864 456.7124 629.24 416.266772 629.24 375.424 
M 318.22 375.424 
C 318.22 375.424 318.22 375.424 318.22 375.424 
C 318.22 375.424 318.22 375.424 318.22 375.424 
C 318.22 375.424 318.22 375.424 318.22 375.424 
C 318.22 375.424 318.22 375.424 318.22 375.424 
C 318.22 375.424 318.22 375.424 318.22 375.424 
C 318.22 375.424 318.22 375.424 318.22 375.424 
C 318.22 375.424 318.22 375.424 318.22 375.424 
C 318.22 375.424 318.22 375.424 318.22 375.424 
C 318.22 375.424 318.22 375.424 318.22 375.424 
C 318.22 375.424 318.22 375.424 318.22 375.424 
C 318.22 375.424 318.22 375.424 318.22 375.424 
C 318.22 375.424 318.22 375.424 318.22 375.424 
C 318.22 375.424 318.22 375.424 318.22 375.424 
C 318.22 375.424 318.22 375.424 318.22 375.424 
C 318.22 375.424 318.22 375.424 318.22 375.424 
C 318.22 375.424 318.22 375.424 318.22 375.424 
z
"/>
  </clipPath>
 </defs>
</svg>
