<?xml version="1.0" encoding="utf-8" standalone="no"?>
<!DOCTYPE svg PUBLIC "-//W3C//DTD SVG 1.1//EN"
  "http://www.w3.org/Graphics/SVG/1.1/DTD/svg11.dtd">
<svg xmlns:xlink="http://www.w3.org/1999/xlink" width="497.796312pt" height="590.31625pt" viewBox="0 0 497.796312 590.31625" xmlns="http://www.w3.org/2000/svg" version="1.1">
 <metadata>
  <rdf:RDF xmlns:dc="http://purl.org/dc/elements/1.1/" xmlns:cc="http://creativecommons.org/ns#" xmlns:rdf="http://www.w3.org/1999/02/22-rdf-syntax-ns#">
   <cc:Work>
    <dc:type rdf:resource="http://purl.org/dc/dcmitype/StillImage"/>
    <dc:date>2025-12-17T10:39:56.757992</dc:date>
    <dc:format>image/svg+xml</dc:format>
    <dc:creator>
     <cc:Agent>
      <dc:title>Matplotlib v3.10.7, https://matplotlib.org/</dc:title>
     </cc:Agent>
    </dc:creator>
   </cc:Work>
  </rdf:RDF>
 </metadata>
 <defs>
  <style type="text/css">*{stroke-linejoin: round; stroke-linecap: butt}</style>
 </defs>
 <g id="figure_1">
  <g id="patch_1">
   <path d="M 0 590.31625 
L 497.796312 590.31625 
L 497.796312 0 
L 0 0 
z
" style="fill: #ffffff"/>
  </g>
  <g id="axes_1">
   <g id="patch_2">
    <path d="M 42.620313 552.76 
L 490.596313 552.76 
L 490.596313 104.784 
L 42.620313 104.784 
z
" style="fill: #ffffff"/>
   </g>
   <g id="PathCollection_1">
    <defs>
     <path id="m6b8815f9a7" d="M 0 1.732051 
C 0.459345 1.732051 0.899939 1.549551 1.224745 1.224745 
C 1.549551 0.899939 1.732051 0.459345 1.732051 0 
C 1.732051 -0.459345 1.549551 -0.899939 1.224745 -1.224745 
C 0.899939 -1.549551 0.459345 -1.732051 0 -1.732051 
C -0.459345 -1.732051 -0.899939 -1.549551 -1.224745 -1.224745 
C -1.549551 -0.899939 -1.732051 -0.459345 -1.732051 0 
C -1.732051 0.459345 -1.549551 0.899939 -1.224745 1.224745 
C -0.899939 1.549551 -0.459345 1.732051 0 1.732051 
z
" style="stroke: #ffffff; stroke-opacity: 0.4; stroke-width: 0.2"/>
    </defs>
    <g clip-path="url(#pdce9d85a52)">
     <use xlink:href="#m6b8815f9a7" x="381.137857" y="328.772" style="fill: #4285f4; fill-opacity: 0.4; stroke: #ffffff; stroke-opacity: 0.4; stroke-width: 0.2"/>
     <use xlink:href="#m6b8815f9a7" x="281.473368" y="258.837411" style="fill: #4285f4; fill-opacity: 0.4; stroke: #ffffff; stroke-opacity: 0.4; stroke-width: 0.2"/>
     <use xlink:href="#m6b8815f9a7" x="164.976052" y="283.522402" style="fill: #4285f4; fill-opacity: 0.4; stroke: #ffffff; stroke-opacity: 0.4; stroke-width: 0.2"/>
     <use xlink:href="#m6b8815f9a7" x="220.744335" y="391.89835" style="fill: #4285f4; fill-opacity: 0.4; stroke: #ffffff; stroke-opacity: 0.4; stroke-width: 0.2"/>
     <use xlink:href="#m6b8815f9a7" x="318.082147" y="385.939485" style="fill: #4285f4; fill-opacity: 0.4; stroke: #ffffff; stroke-opacity: 0.4; stroke-width: 0.2"/>
     <use xlink:href="#m6b8815f9a7" x="344.770331" y="283.645138" style="fill: #4285f4; fill-opacity: 0.4; stroke: #ffffff; stroke-opacity: 0.4; stroke-width: 0.2"/>
     <use xlink:href="#m6b8815f9a7" x="249.297366" y="275.494386" style="fill: #4285f4; fill-opacity: 0.4; stroke: #ffffff; stroke-opacity: 0.4; stroke-width: 0.2"/>
     <use xlink:href="#m6b8815f9a7" x="175.040188" y="338.396198" style="fill: #4285f4; fill-opacity: 0.4; stroke: #ffffff; stroke-opacity: 0.4; stroke-width: 0.2"/>
     <use xlink:href="#m6b8815f9a7" x="259.54551" y="395.970074" style="fill: #4285f4; fill-opacity: 0.4; stroke: #ffffff; stroke-opacity: 0.4; stroke-width: 0.2"/>
     <use xlink:href="#m6b8815f9a7" x="319.783675" y="346.049723" style="fill: #4285f4; fill-opacity: 0.4; stroke: #ffffff; stroke-opacity: 0.4; stroke-width: 0.2"/>
     <use xlink:href="#m6b8815f9a7" x="326.560941" y="224.931002" style="fill: #4285f4; fill-opacity: 0.4; stroke: #ffffff; stroke-opacity: 0.4; stroke-width: 0.2"/>
     <use xlink:href="#m6b8815f9a7" x="196.124386" y="265.307987" style="fill: #4285f4; fill-opacity: 0.4; stroke: #ffffff; stroke-opacity: 0.4; stroke-width: 0.2"/>
     <use xlink:href="#m6b8815f9a7" x="187.466614" y="386.27181" style="fill: #4285f4; fill-opacity: 0.4; stroke: #ffffff; stroke-opacity: 0.4; stroke-width: 0.2"/>
    </g>
   </g>
   <g id="patch_3">
    <path d="M 266.608313 351.1708 
C 272.548544 351.1708 278.246278 348.810721 282.446656 344.610343 
C 286.647034 340.409966 289.007113 334.712231 289.007113 328.772 
C 289.007113 322.831769 286.647034 317.134034 282.446656 312.933657 
C 278.246278 308.733279 272.548544 306.3732 266.608313 306.3732 
C 260.668081 306.3732 254.970347 308.733279 250.769969 312.933657 
C 246.569591 317.134034 244.209513 322.831769 244.209513 328.772 
C 244.209513 334.712231 246.569591 340.409966 250.769969 344.610343 
C 254.970347 348.810721 260.668081 351.1708 266.608313 351.1708 
L 266.608313 351.1708 
z
" clip-path="url(#pdce9d85a52)" style="fill: none; opacity: 0.15; stroke-dasharray: 1,1.65; stroke-dashoffset: 0; stroke: #808080; stroke-linejoin: miter"/>
   </g>
   <g id="patch_4">
    <path d="M 266.608313 373.5696 
C 278.488775 373.5696 289.884244 368.849442 298.284999 360.448687 
C 306.685755 352.047931 311.405912 340.652462 311.405912 328.772 
C 311.405912 316.891538 306.685755 305.496069 298.284999 297.095313 
C 289.884244 288.694558 278.488775 283.9744 266.608313 283.9744 
C 254.72785 283.9744 243.332381 288.694558 234.931626 297.095313 
C 226.53087 305.496069 221.810712 316.891538 221.810712 328.772 
C 221.810712 340.652462 226.53087 352.047931 234.931626 360.448687 
C 243.332381 368.849442 254.72785 373.5696 266.608313 373.5696 
L 266.608313 373.5696 
z
" clip-path="url(#pdce9d85a52)" style="fill: none; opacity: 0.15; stroke-dasharray: 1,1.65; stroke-dashoffset: 0; stroke: #808080; stroke-linejoin: miter"/>
   </g>
   <g id="patch_5">
    <path d="M 266.608313 395.9684 
C 284.429006 395.9684 301.522209 388.888163 314.123343 376.28703 
C 326.724476 363.685897 333.804713 346.592694 333.804713 328.772 
C 333.804713 310.951306 326.724476 293.858103 314.123343 281.25697 
C 301.522209 268.655837 284.429006 261.5756 266.608313 261.5756 
C 248.787619 261.5756 231.694416 268.655837 219.093282 281.25697 
C 206.492149 293.858103 199.411912 310.951306 199.411912 328.772 
C 199.411912 346.592694 206.492149 363.685897 219.093282 376.28703 
C 231.694416 388.888163 248.787619 395.9684 266.608313 395.9684 
L 266.608313 395.9684 
z
" clip-path="url(#pdce9d85a52)" style="fill: none; opacity: 0.15; stroke-dasharray: 1,1.65; stroke-dashoffset: 0; stroke: #808080; stroke-linejoin: miter"/>
   </g>
   <g id="patch_6">
    <path d="M 266.608313 418.3672 
C 290.369237 418.3672 313.160175 408.926885 329.961686 392.125373 
C 346.763197 375.323862 356.203513 352.532925 356.203513 328.772 
C 356.203513 305.011075 346.763197 282.220138 329.961686 265.418627 
C 313.160175 248.617115 290.369237 239.1768 266.608313 239.1768 
C 242.847388 239.1768 220.05645 248.617115 203.254939 265.418627 
C 186.453428 282.220138 177.013112 305.011075 177.013112 328.772 
C 177.013112 352.532925 186.453428 375.323862 203.254939 392.125373 
C 220.05645 408.926885 242.847388 418.3672 266.608313 418.3672 
L 266.608313 418.3672 
z
" clip-path="url(#pdce9d85a52)" style="fill: none; opacity: 0.15; stroke-dasharray: 1,1.65; stroke-dashoffset: 0; stroke: #808080; stroke-linejoin: miter"/>
   </g>
   <g id="patch_7">
    <path d="M 266.608313 440.766 
C 296.309468 440.766 324.798141 428.965606 345.800029 407.963717 
C 366.801918 386.961828 378.602313 358.473156 378.602313 328.772 
C 378.602313 299.070844 366.801918 270.582172 345.800029 249.580283 
C 324.798141 228.578394 296.309468 216.778 266.608313 216.778 
C 236.907157 216.778 208.418484 228.578394 187.416596 249.580283 
C 166.414707 270.582172 154.614312 299.070844 154.614312 328.772 
C 154.614312 358.473156 166.414707 386.961828 187.416596 407.963717 
C 208.418484 428.965606 236.907157 440.766 266.608313 440.766 
L 266.608313 440.766 
z
" clip-path="url(#pdce9d85a52)" style="fill: none; opacity: 0.15; stroke-dasharray: 1,1.65; stroke-dashoffset: 0; stroke: #808080; stroke-linejoin: miter"/>
   </g>
   <g id="patch_8">
    <path d="M 266.608313 463.1648 
C 302.2497 463.1648 336.436106 449.004327 361.638373 423.80206 
C 386.840639 398.599794 401.001113 364.413387 401.001113 328.772 
C 401.001113 293.130613 386.840639 258.944206 361.638373 233.74194 
C 336.436106 208.539673 302.2497 194.3792 266.608313 194.3792 
C 230.966925 194.3792 196.780519 208.539673 171.578252 233.74194 
C 146.375986 258.944206 132.215512 293.130613 132.215512 328.772 
C 132.215512 364.413387 146.375986 398.599794 171.578252 423.80206 
C 196.780519 449.004327 230.966925 463.1648 266.608313 463.1648 
L 266.608313 463.1648 
z
" clip-path="url(#pdce9d85a52)" style="fill: none; opacity: 0.15; stroke-dasharray: 1,1.65; stroke-dashoffset: 0; stroke: #808080; stroke-linejoin: miter"/>
   </g>
   <g id="matplotlib.axis_1">
    <g id="xtick_1">
     <g id="line2d_1">
      <path d="M 87.417912 552.76 
L 87.417912 104.784 
" clip-path="url(#pdce9d85a52)" style="fill: none; stroke: #b0b0b0; stroke-opacity: 0.3; stroke-width: 0.8; stroke-linecap: square"/>
     </g>
     <g id="line2d_2">
      <defs>
       <path id="m7e344c64ec" d="M 0 0 
L 0 3.5 
" style="stroke: #000000; stroke-width: 0.8"/>
      </defs>
      <g>
       <use xlink:href="#m7e344c64ec" x="87.417912" y="552.76" style="stroke: #000000; stroke-width: 0.8"/>
      </g>
     </g>
     <g id="text_1">
      <!-- −4 -->
      <g transform="translate(80.046819 567.358437) scale(0.1 -0.1)">
       <defs>
        <path id="DejaVuSans-2212" d="M 678 2272 
L 4684 2272 
L 4684 1741 
L 678 1741 
L 678 2272 
z
" transform="scale(0.015625)"/>
        <path id="DejaVuSans-34" d="M 2419 4116 
L 825 1625 
L 2419 1625 
L 2419 4116 
z
M 2253 4666 
L 3047 4666 
L 3047 1625 
L 3713 1625 
L 3713 1100 
L 3047 1100 
L 3047 0 
L 2419 0 
L 2419 1100 
L 313 1100 
L 313 1709 
L 2253 4666 
z
" transform="scale(0.015625)"/>
       </defs>
       <use xlink:href="#DejaVuSans-2212"/>
       <use xlink:href="#DejaVuSans-34" transform="translate(83.789062 0)"/>
      </g>
     </g>
    </g>
    <g id="xtick_2">
     <g id="line2d_3">
      <path d="M 177.013112 552.76 
L 177.013112 104.784 
" clip-path="url(#pdce9d85a52)" style="fill: none; stroke: #b0b0b0; stroke-opacity: 0.3; stroke-width: 0.8; stroke-linecap: square"/>
     </g>
     <g id="line2d_4">
      <g>
       <use xlink:href="#m7e344c64ec" x="177.013112" y="552.76" style="stroke: #000000; stroke-width: 0.8"/>
      </g>
     </g>
     <g id="text_2">
      <!-- −2 -->
      <g transform="translate(169.642019 567.358437) scale(0.1 -0.1)">
       <defs>
        <path id="DejaVuSans-32" d="M 1228 531 
L 3431 531 
L 3431 0 
L 469 0 
L 469 531 
Q 828 903 1448 1529 
Q 2069 2156 2228 2338 
Q 2531 2678 2651 2914 
Q 2772 3150 2772 3378 
Q 2772 3750 2511 3984 
Q 2250 4219 1831 4219 
Q 1534 4219 1204 4116 
Q 875 4013 500 3803 
L 500 4441 
Q 881 4594 1212 4672 
Q 1544 4750 1819 4750 
Q 2544 4750 2975 4387 
Q 3406 4025 3406 3419 
Q 3406 3131 3298 2873 
Q 3191 2616 2906 2266 
Q 2828 2175 2409 1742 
Q 1991 1309 1228 531 
z
" transform="scale(0.015625)"/>
       </defs>
       <use xlink:href="#DejaVuSans-2212"/>
       <use xlink:href="#DejaVuSans-32" transform="translate(83.789062 0)"/>
      </g>
     </g>
    </g>
    <g id="xtick_3">
     <g id="line2d_5">
      <path d="M 266.608313 552.76 
L 266.608313 104.784 
" clip-path="url(#pdce9d85a52)" style="fill: none; stroke: #b0b0b0; stroke-opacity: 0.3; stroke-width: 0.8; stroke-linecap: square"/>
     </g>
     <g id="line2d_6">
      <g>
       <use xlink:href="#m7e344c64ec" x="266.608313" y="552.76" style="stroke: #000000; stroke-width: 0.8"/>
      </g>
     </g>
     <g id="text_3">
      <!-- 0 -->
      <g transform="translate(263.427063 567.358437) scale(0.1 -0.1)">
       <defs>
        <path id="DejaVuSans-30" d="M 2034 4250 
Q 1547 4250 1301 3770 
Q 1056 3291 1056 2328 
Q 1056 1369 1301 889 
Q 1547 409 2034 409 
Q 2525 409 2770 889 
Q 3016 1369 3016 2328 
Q 3016 3291 2770 3770 
Q 2525 4250 2034 4250 
z
M 2034 4750 
Q 2819 4750 3233 4129 
Q 3647 3509 3647 2328 
Q 3647 1150 3233 529 
Q 2819 -91 2034 -91 
Q 1250 -91 836 529 
Q 422 1150 422 2328 
Q 422 3509 836 4129 
Q 1250 4750 2034 4750 
z
" transform="scale(0.015625)"/>
       </defs>
       <use xlink:href="#DejaVuSans-30"/>
      </g>
     </g>
    </g>
    <g id="xtick_4">
     <g id="line2d_7">
      <path d="M 356.203513 552.76 
L 356.203513 104.784 
" clip-path="url(#pdce9d85a52)" style="fill: none; stroke: #b0b0b0; stroke-opacity: 0.3; stroke-width: 0.8; stroke-linecap: square"/>
     </g>
     <g id="line2d_8">
      <g>
       <use xlink:href="#m7e344c64ec" x="356.203513" y="552.76" style="stroke: #000000; stroke-width: 0.8"/>
      </g>
     </g>
     <g id="text_4">
      <!-- 2 -->
      <g transform="translate(353.022263 567.358437) scale(0.1 -0.1)">
       <use xlink:href="#DejaVuSans-32"/>
      </g>
     </g>
    </g>
    <g id="xtick_5">
     <g id="line2d_9">
      <path d="M 445.798713 552.76 
L 445.798713 104.784 
" clip-path="url(#pdce9d85a52)" style="fill: none; stroke: #b0b0b0; stroke-opacity: 0.3; stroke-width: 0.8; stroke-linecap: square"/>
     </g>
     <g id="line2d_10">
      <g>
       <use xlink:href="#m7e344c64ec" x="445.798713" y="552.76" style="stroke: #000000; stroke-width: 0.8"/>
      </g>
     </g>
     <g id="text_5">
      <!-- 4 -->
      <g transform="translate(442.617463 567.358437) scale(0.1 -0.1)">
       <use xlink:href="#DejaVuSans-34"/>
      </g>
     </g>
    </g>
    <g id="text_6">
     <!-- X (drift * cos(angle)) -->
     <g transform="translate(215.5755 581.036562) scale(0.1 -0.1)">
      <defs>
       <path id="DejaVuSans-58" d="M 403 4666 
L 1081 4666 
L 2241 2931 
L 3406 4666 
L 4084 4666 
L 2584 2425 
L 4184 0 
L 3506 0 
L 2194 1984 
L 872 0 
L 191 0 
L 1856 2491 
L 403 4666 
z
" transform="scale(0.015625)"/>
       <path id="DejaVuSans-20" transform="scale(0.015625)"/>
       <path id="DejaVuSans-28" d="M 1984 4856 
Q 1566 4138 1362 3434 
Q 1159 2731 1159 2009 
Q 1159 1288 1364 580 
Q 1569 -128 1984 -844 
L 1484 -844 
Q 1016 -109 783 600 
Q 550 1309 550 2009 
Q 550 2706 781 3412 
Q 1013 4119 1484 4856 
L 1984 4856 
z
" transform="scale(0.015625)"/>
       <path id="DejaVuSans-64" d="M 2906 2969 
L 2906 4863 
L 3481 4863 
L 3481 0 
L 2906 0 
L 2906 525 
Q 2725 213 2448 61 
Q 2172 -91 1784 -91 
Q 1150 -91 751 415 
Q 353 922 353 1747 
Q 353 2572 751 3078 
Q 1150 3584 1784 3584 
Q 2172 3584 2448 3432 
Q 2725 3281 2906 2969 
z
M 947 1747 
Q 947 1113 1208 752 
Q 1469 391 1925 391 
Q 2381 391 2643 752 
Q 2906 1113 2906 1747 
Q 2906 2381 2643 2742 
Q 2381 3103 1925 3103 
Q 1469 3103 1208 2742 
Q 947 2381 947 1747 
z
" transform="scale(0.015625)"/>
       <path id="DejaVuSans-72" d="M 2631 2963 
Q 2534 3019 2420 3045 
Q 2306 3072 2169 3072 
Q 1681 3072 1420 2755 
Q 1159 2438 1159 1844 
L 1159 0 
L 581 0 
L 581 3500 
L 1159 3500 
L 1159 2956 
Q 1341 3275 1631 3429 
Q 1922 3584 2338 3584 
Q 2397 3584 2469 3576 
Q 2541 3569 2628 3553 
L 2631 2963 
z
" transform="scale(0.015625)"/>
       <path id="DejaVuSans-69" d="M 603 3500 
L 1178 3500 
L 1178 0 
L 603 0 
L 603 3500 
z
M 603 4863 
L 1178 4863 
L 1178 4134 
L 603 4134 
L 603 4863 
z
" transform="scale(0.015625)"/>
       <path id="DejaVuSans-66" d="M 2375 4863 
L 2375 4384 
L 1825 4384 
Q 1516 4384 1395 4259 
Q 1275 4134 1275 3809 
L 1275 3500 
L 2222 3500 
L 2222 3053 
L 1275 3053 
L 1275 0 
L 697 0 
L 697 3053 
L 147 3053 
L 147 3500 
L 697 3500 
L 697 3744 
Q 697 4328 969 4595 
Q 1241 4863 1831 4863 
L 2375 4863 
z
" transform="scale(0.015625)"/>
       <path id="DejaVuSans-74" d="M 1172 4494 
L 1172 3500 
L 2356 3500 
L 2356 3053 
L 1172 3053 
L 1172 1153 
Q 1172 725 1289 603 
Q 1406 481 1766 481 
L 2356 481 
L 2356 0 
L 1766 0 
Q 1100 0 847 248 
Q 594 497 594 1153 
L 594 3053 
L 172 3053 
L 172 3500 
L 594 3500 
L 594 4494 
L 1172 4494 
z
" transform="scale(0.015625)"/>
       <path id="DejaVuSans-2a" d="M 3009 3897 
L 1888 3291 
L 3009 2681 
L 2828 2375 
L 1778 3009 
L 1778 1831 
L 1422 1831 
L 1422 3009 
L 372 2375 
L 191 2681 
L 1313 3291 
L 191 3897 
L 372 4206 
L 1422 3572 
L 1422 4750 
L 1778 4750 
L 1778 3572 
L 2828 4206 
L 3009 3897 
z
" transform="scale(0.015625)"/>
       <path id="DejaVuSans-63" d="M 3122 3366 
L 3122 2828 
Q 2878 2963 2633 3030 
Q 2388 3097 2138 3097 
Q 1578 3097 1268 2742 
Q 959 2388 959 1747 
Q 959 1106 1268 751 
Q 1578 397 2138 397 
Q 2388 397 2633 464 
Q 2878 531 3122 666 
L 3122 134 
Q 2881 22 2623 -34 
Q 2366 -91 2075 -91 
Q 1284 -91 818 406 
Q 353 903 353 1747 
Q 353 2603 823 3093 
Q 1294 3584 2113 3584 
Q 2378 3584 2631 3529 
Q 2884 3475 3122 3366 
z
" transform="scale(0.015625)"/>
       <path id="DejaVuSans-6f" d="M 1959 3097 
Q 1497 3097 1228 2736 
Q 959 2375 959 1747 
Q 959 1119 1226 758 
Q 1494 397 1959 397 
Q 2419 397 2687 759 
Q 2956 1122 2956 1747 
Q 2956 2369 2687 2733 
Q 2419 3097 1959 3097 
z
M 1959 3584 
Q 2709 3584 3137 3096 
Q 3566 2609 3566 1747 
Q 3566 888 3137 398 
Q 2709 -91 1959 -91 
Q 1206 -91 779 398 
Q 353 888 353 1747 
Q 353 2609 779 3096 
Q 1206 3584 1959 3584 
z
" transform="scale(0.015625)"/>
       <path id="DejaVuSans-73" d="M 2834 3397 
L 2834 2853 
Q 2591 2978 2328 3040 
Q 2066 3103 1784 3103 
Q 1356 3103 1142 2972 
Q 928 2841 928 2578 
Q 928 2378 1081 2264 
Q 1234 2150 1697 2047 
L 1894 2003 
Q 2506 1872 2764 1633 
Q 3022 1394 3022 966 
Q 3022 478 2636 193 
Q 2250 -91 1575 -91 
Q 1294 -91 989 -36 
Q 684 19 347 128 
L 347 722 
Q 666 556 975 473 
Q 1284 391 1588 391 
Q 1994 391 2212 530 
Q 2431 669 2431 922 
Q 2431 1156 2273 1281 
Q 2116 1406 1581 1522 
L 1381 1569 
Q 847 1681 609 1914 
Q 372 2147 372 2553 
Q 372 3047 722 3315 
Q 1072 3584 1716 3584 
Q 2034 3584 2315 3537 
Q 2597 3491 2834 3397 
z
" transform="scale(0.015625)"/>
       <path id="DejaVuSans-61" d="M 2194 1759 
Q 1497 1759 1228 1600 
Q 959 1441 959 1056 
Q 959 750 1161 570 
Q 1363 391 1709 391 
Q 2188 391 2477 730 
Q 2766 1069 2766 1631 
L 2766 1759 
L 2194 1759 
z
M 3341 1997 
L 3341 0 
L 2766 0 
L 2766 531 
Q 2569 213 2275 61 
Q 1981 -91 1556 -91 
Q 1019 -91 701 211 
Q 384 513 384 1019 
Q 384 1609 779 1909 
Q 1175 2209 1959 2209 
L 2766 2209 
L 2766 2266 
Q 2766 2663 2505 2880 
Q 2244 3097 1772 3097 
Q 1472 3097 1187 3025 
Q 903 2953 641 2809 
L 641 3341 
Q 956 3463 1253 3523 
Q 1550 3584 1831 3584 
Q 2591 3584 2966 3190 
Q 3341 2797 3341 1997 
z
" transform="scale(0.015625)"/>
       <path id="DejaVuSans-6e" d="M 3513 2113 
L 3513 0 
L 2938 0 
L 2938 2094 
Q 2938 2591 2744 2837 
Q 2550 3084 2163 3084 
Q 1697 3084 1428 2787 
Q 1159 2491 1159 1978 
L 1159 0 
L 581 0 
L 581 3500 
L 1159 3500 
L 1159 2956 
Q 1366 3272 1645 3428 
Q 1925 3584 2291 3584 
Q 2894 3584 3203 3211 
Q 3513 2838 3513 2113 
z
" transform="scale(0.015625)"/>
       <path id="DejaVuSans-67" d="M 2906 1791 
Q 2906 2416 2648 2759 
Q 2391 3103 1925 3103 
Q 1463 3103 1205 2759 
Q 947 2416 947 1791 
Q 947 1169 1205 825 
Q 1463 481 1925 481 
Q 2391 481 2648 825 
Q 2906 1169 2906 1791 
z
M 3481 434 
Q 3481 -459 3084 -895 
Q 2688 -1331 1869 -1331 
Q 1566 -1331 1297 -1286 
Q 1028 -1241 775 -1147 
L 775 -588 
Q 1028 -725 1275 -790 
Q 1522 -856 1778 -856 
Q 2344 -856 2625 -561 
Q 2906 -266 2906 331 
L 2906 616 
Q 2728 306 2450 153 
Q 2172 0 1784 0 
Q 1141 0 747 490 
Q 353 981 353 1791 
Q 353 2603 747 3093 
Q 1141 3584 1784 3584 
Q 2172 3584 2450 3431 
Q 2728 3278 2906 2969 
L 2906 3500 
L 3481 3500 
L 3481 434 
z
" transform="scale(0.015625)"/>
       <path id="DejaVuSans-6c" d="M 603 4863 
L 1178 4863 
L 1178 0 
L 603 0 
L 603 4863 
z
" transform="scale(0.015625)"/>
       <path id="DejaVuSans-65" d="M 3597 1894 
L 3597 1613 
L 953 1613 
Q 991 1019 1311 708 
Q 1631 397 2203 397 
Q 2534 397 2845 478 
Q 3156 559 3463 722 
L 3463 178 
Q 3153 47 2828 -22 
Q 2503 -91 2169 -91 
Q 1331 -91 842 396 
Q 353 884 353 1716 
Q 353 2575 817 3079 
Q 1281 3584 2069 3584 
Q 2775 3584 3186 3129 
Q 3597 2675 3597 1894 
z
M 3022 2063 
Q 3016 2534 2758 2815 
Q 2500 3097 2075 3097 
Q 1594 3097 1305 2825 
Q 1016 2553 972 2059 
L 3022 2063 
z
" transform="scale(0.015625)"/>
       <path id="DejaVuSans-29" d="M 513 4856 
L 1013 4856 
Q 1481 4119 1714 3412 
Q 1947 2706 1947 2009 
Q 1947 1309 1714 600 
Q 1481 -109 1013 -844 
L 513 -844 
Q 928 -128 1133 580 
Q 1338 1288 1338 2009 
Q 1338 2731 1133 3434 
Q 928 4138 513 4856 
z
" transform="scale(0.015625)"/>
      </defs>
      <use xlink:href="#DejaVuSans-58"/>
      <use xlink:href="#DejaVuSans-20" transform="translate(68.505859 0)"/>
      <use xlink:href="#DejaVuSans-28" transform="translate(100.292969 0)"/>
      <use xlink:href="#DejaVuSans-64" transform="translate(139.306641 0)"/>
      <use xlink:href="#DejaVuSans-72" transform="translate(202.783203 0)"/>
      <use xlink:href="#DejaVuSans-69" transform="translate(243.896484 0)"/>
      <use xlink:href="#DejaVuSans-66" transform="translate(271.679688 0)"/>
      <use xlink:href="#DejaVuSans-74" transform="translate(305.134766 0)"/>
      <use xlink:href="#DejaVuSans-20" transform="translate(344.34375 0)"/>
      <use xlink:href="#DejaVuSans-2a" transform="translate(376.130859 0)"/>
      <use xlink:href="#DejaVuSans-20" transform="translate(426.130859 0)"/>
      <use xlink:href="#DejaVuSans-63" transform="translate(457.917969 0)"/>
      <use xlink:href="#DejaVuSans-6f" transform="translate(512.898438 0)"/>
      <use xlink:href="#DejaVuSans-73" transform="translate(574.080078 0)"/>
      <use xlink:href="#DejaVuSans-28" transform="translate(626.179688 0)"/>
      <use xlink:href="#DejaVuSans-61" transform="translate(665.193359 0)"/>
      <use xlink:href="#DejaVuSans-6e" transform="translate(726.472656 0)"/>
      <use xlink:href="#DejaVuSans-67" transform="translate(789.851562 0)"/>
      <use xlink:href="#DejaVuSans-6c" transform="translate(853.328125 0)"/>
      <use xlink:href="#DejaVuSans-65" transform="translate(881.111328 0)"/>
      <use xlink:href="#DejaVuSans-29" transform="translate(942.634766 0)"/>
      <use xlink:href="#DejaVuSans-29" transform="translate(981.648438 0)"/>
     </g>
    </g>
   </g>
   <g id="matplotlib.axis_2">
    <g id="ytick_1">
     <g id="line2d_11">
      <path d="M 42.620313 507.9624 
L 490.596313 507.9624 
" clip-path="url(#pdce9d85a52)" style="fill: none; stroke: #b0b0b0; stroke-opacity: 0.3; stroke-width: 0.8; stroke-linecap: square"/>
     </g>
     <g id="line2d_12">
      <defs>
       <path id="md21dadd36d" d="M 0 0 
L -3.5 0 
" style="stroke: #000000; stroke-width: 0.8"/>
      </defs>
      <g>
       <use xlink:href="#md21dadd36d" x="42.620313" y="507.9624" style="stroke: #000000; stroke-width: 0.8"/>
      </g>
     </g>
     <g id="text_7">
      <!-- −4 -->
      <g transform="translate(20.878125 511.761619) scale(0.1 -0.1)">
       <use xlink:href="#DejaVuSans-2212"/>
       <use xlink:href="#DejaVuSans-34" transform="translate(83.789062 0)"/>
      </g>
     </g>
    </g>
    <g id="ytick_2">
     <g id="line2d_13">
      <path d="M 42.620313 418.3672 
L 490.596313 418.3672 
" clip-path="url(#pdce9d85a52)" style="fill: none; stroke: #b0b0b0; stroke-opacity: 0.3; stroke-width: 0.8; stroke-linecap: square"/>
     </g>
     <g id="line2d_14">
      <g>
       <use xlink:href="#md21dadd36d" x="42.620313" y="418.3672" style="stroke: #000000; stroke-width: 0.8"/>
      </g>
     </g>
     <g id="text_8">
      <!-- −2 -->
      <g transform="translate(20.878125 422.166419) scale(0.1 -0.1)">
       <use xlink:href="#DejaVuSans-2212"/>
       <use xlink:href="#DejaVuSans-32" transform="translate(83.789062 0)"/>
      </g>
     </g>
    </g>
    <g id="ytick_3">
     <g id="line2d_15">
      <path d="M 42.620313 328.772 
L 490.596313 328.772 
" clip-path="url(#pdce9d85a52)" style="fill: none; stroke: #b0b0b0; stroke-opacity: 0.3; stroke-width: 0.8; stroke-linecap: square"/>
     </g>
     <g id="line2d_16">
      <g>
       <use xlink:href="#md21dadd36d" x="42.620313" y="328.772" style="stroke: #000000; stroke-width: 0.8"/>
      </g>
     </g>
     <g id="text_9">
      <!-- 0 -->
      <g transform="translate(29.257813 332.571219) scale(0.1 -0.1)">
       <use xlink:href="#DejaVuSans-30"/>
      </g>
     </g>
    </g>
    <g id="ytick_4">
     <g id="line2d_17">
      <path d="M 42.620313 239.1768 
L 490.596313 239.1768 
" clip-path="url(#pdce9d85a52)" style="fill: none; stroke: #b0b0b0; stroke-opacity: 0.3; stroke-width: 0.8; stroke-linecap: square"/>
     </g>
     <g id="line2d_18">
      <g>
       <use xlink:href="#md21dadd36d" x="42.620313" y="239.1768" style="stroke: #000000; stroke-width: 0.8"/>
      </g>
     </g>
     <g id="text_10">
      <!-- 2 -->
      <g transform="translate(29.257813 242.976019) scale(0.1 -0.1)">
       <use xlink:href="#DejaVuSans-32"/>
      </g>
     </g>
    </g>
    <g id="ytick_5">
     <g id="line2d_19">
      <path d="M 42.620313 149.5816 
L 490.596313 149.5816 
" clip-path="url(#pdce9d85a52)" style="fill: none; stroke: #b0b0b0; stroke-opacity: 0.3; stroke-width: 0.8; stroke-linecap: square"/>
     </g>
     <g id="line2d_20">
      <g>
       <use xlink:href="#md21dadd36d" x="42.620313" y="149.5816" style="stroke: #000000; stroke-width: 0.8"/>
      </g>
     </g>
     <g id="text_11">
      <!-- 4 -->
      <g transform="translate(29.257813 153.380819) scale(0.1 -0.1)">
       <use xlink:href="#DejaVuSans-34"/>
      </g>
     </g>
    </g>
    <g id="text_12">
     <!-- Y (drift * sin(angle)) -->
     <g transform="translate(14.798438 378.182937) rotate(-90) scale(0.1 -0.1)">
      <defs>
       <path id="DejaVuSans-59" d="M -13 4666 
L 666 4666 
L 1959 2747 
L 3244 4666 
L 3922 4666 
L 2272 2222 
L 2272 0 
L 1638 0 
L 1638 2222 
L -13 4666 
z
" transform="scale(0.015625)"/>
      </defs>
      <use xlink:href="#DejaVuSans-59"/>
      <use xlink:href="#DejaVuSans-20" transform="translate(61.083984 0)"/>
      <use xlink:href="#DejaVuSans-28" transform="translate(92.871094 0)"/>
      <use xlink:href="#DejaVuSans-64" transform="translate(131.884766 0)"/>
      <use xlink:href="#DejaVuSans-72" transform="translate(195.361328 0)"/>
      <use xlink:href="#DejaVuSans-69" transform="translate(236.474609 0)"/>
      <use xlink:href="#DejaVuSans-66" transform="translate(264.257812 0)"/>
      <use xlink:href="#DejaVuSans-74" transform="translate(297.712891 0)"/>
      <use xlink:href="#DejaVuSans-20" transform="translate(336.921875 0)"/>
      <use xlink:href="#DejaVuSans-2a" transform="translate(368.708984 0)"/>
      <use xlink:href="#DejaVuSans-20" transform="translate(418.708984 0)"/>
      <use xlink:href="#DejaVuSans-73" transform="translate(450.496094 0)"/>
      <use xlink:href="#DejaVuSans-69" transform="translate(502.595703 0)"/>
      <use xlink:href="#DejaVuSans-6e" transform="translate(530.378906 0)"/>
      <use xlink:href="#DejaVuSans-28" transform="translate(593.757812 0)"/>
      <use xlink:href="#DejaVuSans-61" transform="translate(632.771484 0)"/>
      <use xlink:href="#DejaVuSans-6e" transform="translate(694.050781 0)"/>
      <use xlink:href="#DejaVuSans-67" transform="translate(757.429688 0)"/>
      <use xlink:href="#DejaVuSans-6c" transform="translate(820.90625 0)"/>
      <use xlink:href="#DejaVuSans-65" transform="translate(848.689453 0)"/>
      <use xlink:href="#DejaVuSans-29" transform="translate(910.212891 0)"/>
      <use xlink:href="#DejaVuSans-29" transform="translate(949.226562 0)"/>
     </g>
    </g>
   </g>
   <g id="line2d_21">
    <path d="M 381.137857 328.772 
L 378.027887 314.05232 
L 369.132147 300.530502 
L 355.417334 288.383021 
L 337.850141 277.786351 
L 317.397265 268.916968 
L 295.0254 261.951345 
L 271.701243 257.065958 
L 248.391487 254.437281 
L 226.062829 254.241788 
L 205.681963 256.655955 
L 188.215584 261.856255 
L 174.630389 270.019165 
L 165.893072 281.321157 
L 162.794435 295.814414 
L 164.955938 312.724824 
L 171.522018 330.941191 
L 181.635705 349.351328 
L 194.440029 366.843046 
L 209.078019 382.304155 
L 224.69419 394.625646 
L 240.612594 403.083007 
L 256.505977 407.698484 
L 272.08715 408.580119 
L 287.068921 405.835955 
L 301.1641 399.574035 
L 314.085494 389.902402 
L 325.54261 376.976036 
L 335.206545 361.495562 
L 342.723614 344.513633 
L 347.739722 327.088771 
L 349.900772 310.279497 
L 348.852668 295.144331 
L 344.241408 282.74166 
L 335.919102 273.834782 
L 324.381006 268.266209 
L 310.247471 265.699352 
L 294.138852 265.797624 
L 276.675499 268.224437 
L 258.477766 272.643203 
L 240.171574 278.720229 
L 222.510963 286.188345 
L 206.37809 294.846915 
L 192.660681 304.49819 
L 182.246463 314.944425 
L 176.023162 325.987873 
L 174.878505 337.430789 
L 179.422086 349.039367 
L 188.833553 360.394431 
L 201.834293 371.017393 
L 217.145485 380.429639 
L 233.488306 388.152554 
L 249.583936 393.707526 
L 264.163784 396.61867 
L 276.573147 396.573951 
L 287.108845 393.515293 
L 296.149552 387.406468 
L 304.07394 378.211249 
L 311.26068 365.893406 
L 318.088447 350.416712 
L 324.849537 331.844994 
L 331.084461 311.112933 
L 335.946643 289.603607 
L 338.586305 268.703801 
L 338.153671 249.800298 
L 333.798963 234.279883 
L 324.674034 223.527792 
L 310.482389 218.404958 
L 292.279831 218.48707 
L 271.325573 223.156488 
L 248.878829 231.795573 
L 226.198814 243.786684 
L 204.544741 258.512183 
L 185.175825 275.35443 
L 169.351281 293.695785 
L 158.330321 312.91861 
L 153.37216 332.405264 
L 155.736012 351.538109 
L 166.681092 369.699504 
L 187.466614 386.27181 
" clip-path="url(#pdce9d85a52)" style="fill: none; stroke: #4285f4; stroke-opacity: 0.9; stroke-width: 2.5; stroke-linecap: square"/>
   </g>
   <g id="line2d_22">
    <path d="M 321.709361 328.772 
L 321.598424 325.277276 
L 321.266062 321.796623 
L 320.713613 318.344058 
L 319.9433 314.933483 
L 318.958227 311.57863 
L 317.762359 308.293009 
L 316.360511 305.08985 
L 314.758329 301.98205 
L 312.962264 298.982124 
L 310.979548 296.102152 
L 308.818164 293.353729 
L 306.486816 290.747923 
L 303.994892 288.295227 
L 301.352425 286.005516 
L 298.570056 283.888011 
L 295.658988 281.951238 
L 292.630944 280.202996 
L 289.498115 278.650324 
L 286.273117 277.299474 
L 282.968936 276.155886 
L 279.598877 275.224164 
L 276.176509 274.508061 
L 272.715613 274.010459 
L 269.230126 273.733363 
L 265.734081 273.677888 
L 262.241557 273.844257 
L 258.766616 274.231801 
L 255.32325 274.838959 
L 251.925326 275.663287 
L 248.586525 276.701465 
L 245.320291 277.949312 
L 242.139777 279.401804 
L 239.057788 281.053093 
L 236.086736 282.896528 
L 233.238584 284.924689 
L 230.5248 287.129406 
L 227.956311 289.501804 
L 225.54346 292.032329 
L 223.295963 294.710792 
L 221.22287 297.526407 
L 219.332527 300.467837 
L 217.632548 303.523238 
L 216.129776 306.680307 
L 214.830264 309.926332 
L 213.739244 313.248241 
L 212.861109 316.632659 
L 212.199395 320.065957 
L 211.756766 323.534312 
L 211.535006 327.023758 
L 211.535006 330.520242 
L 211.756766 334.009688 
L 212.199395 337.478043 
L 212.861109 340.911341 
L 213.739244 344.295759 
L 214.830264 347.617668 
L 216.129776 350.863693 
L 217.632548 354.020762 
L 219.332527 357.076163 
L 221.22287 360.017593 
L 223.295963 362.833208 
L 225.54346 365.511671 
L 227.956311 368.042196 
L 230.5248 370.414594 
L 233.238584 372.619311 
L 236.086736 374.647472 
L 239.057789 376.490907 
L 242.139777 378.142196 
L 245.320291 379.594688 
L 248.586525 380.842535 
L 251.925326 381.880713 
L 255.32325 382.705041 
L 258.766616 383.312199 
L 262.241557 383.699743 
L 265.734081 383.866112 
L 269.230126 383.810637 
L 272.715613 383.533541 
L 276.176509 383.035939 
L 279.598877 382.319836 
L 282.968936 381.388114 
L 286.273117 380.244526 
L 289.498115 378.893676 
L 292.630944 377.341004 
L 295.658988 375.592762 
L 298.570056 373.655989 
L 301.352425 371.538484 
L 303.994892 369.248773 
L 306.486816 366.796077 
L 308.818164 364.190271 
L 310.979548 361.441848 
L 312.962264 358.561876 
L 314.758329 355.56195 
L 316.360511 352.45415 
L 317.762359 349.250991 
L 318.958227 345.96537 
L 319.9433 342.610517 
L 320.713613 339.199942 
L 321.266062 335.747377 
L 321.598424 332.266724 
L 321.709361 328.772 
" clip-path="url(#pdce9d85a52)" style="fill: none; stroke-dasharray: 9.25,4; stroke-dashoffset: 0; stroke: #ff0000; stroke-opacity: 0.7; stroke-width: 2.5"/>
   </g>
   <g id="patch_9">
    <path d="M 42.620313 552.76 
L 42.620313 104.784 
" style="fill: none; stroke: #000000; stroke-width: 0.8; stroke-linejoin: miter; stroke-linecap: square"/>
   </g>
   <g id="patch_10">
    <path d="M 490.596313 552.76 
L 490.596313 104.784 
" style="fill: none; stroke: #000000; stroke-width: 0.8; stroke-linejoin: miter; stroke-linecap: square"/>
   </g>
   <g id="patch_11">
    <path d="M 42.620312 552.76 
L 490.596313 552.76 
" style="fill: none; stroke: #000000; stroke-width: 0.8; stroke-linejoin: miter; stroke-linecap: square"/>
   </g>
   <g id="patch_12">
    <path d="M 42.620312 104.784 
L 490.596313 104.784 
" style="fill: none; stroke: #000000; stroke-width: 0.8; stroke-linejoin: miter; stroke-linecap: square"/>
   </g>
   <g id="text_13">
    <!-- gemini-2.0-flash -->
    <g transform="translate(216.037531 86.380469) scale(0.11 -0.11)">
     <defs>
      <path id="DejaVuSans-Bold-67" d="M 2919 594 
Q 2688 288 2409 144 
Q 2131 0 1766 0 
Q 1125 0 706 504 
Q 288 1009 288 1791 
Q 288 2575 706 3076 
Q 1125 3578 1766 3578 
Q 2131 3578 2409 3434 
Q 2688 3291 2919 2981 
L 2919 3500 
L 4044 3500 
L 4044 353 
Q 4044 -491 3511 -936 
Q 2978 -1381 1966 -1381 
Q 1638 -1381 1331 -1331 
Q 1025 -1281 716 -1178 
L 716 -306 
Q 1009 -475 1290 -558 
Q 1572 -641 1856 -641 
Q 2406 -641 2662 -400 
Q 2919 -159 2919 353 
L 2919 594 
z
M 2181 2772 
Q 1834 2772 1640 2515 
Q 1447 2259 1447 1791 
Q 1447 1309 1634 1061 
Q 1822 813 2181 813 
Q 2531 813 2725 1069 
Q 2919 1325 2919 1791 
Q 2919 2259 2725 2515 
Q 2531 2772 2181 2772 
z
" transform="scale(0.015625)"/>
      <path id="DejaVuSans-Bold-65" d="M 4031 1759 
L 4031 1441 
L 1416 1441 
Q 1456 1047 1700 850 
Q 1944 653 2381 653 
Q 2734 653 3104 758 
Q 3475 863 3866 1075 
L 3866 213 
Q 3469 63 3072 -14 
Q 2675 -91 2278 -91 
Q 1328 -91 801 392 
Q 275 875 275 1747 
Q 275 2603 792 3093 
Q 1309 3584 2216 3584 
Q 3041 3584 3536 3087 
Q 4031 2591 4031 1759 
z
M 2881 2131 
Q 2881 2450 2695 2645 
Q 2509 2841 2209 2841 
Q 1884 2841 1681 2658 
Q 1478 2475 1428 2131 
L 2881 2131 
z
" transform="scale(0.015625)"/>
      <path id="DejaVuSans-Bold-6d" d="M 3781 2919 
Q 3994 3244 4286 3414 
Q 4578 3584 4928 3584 
Q 5531 3584 5847 3212 
Q 6163 2841 6163 2131 
L 6163 0 
L 5038 0 
L 5038 1825 
Q 5041 1866 5042 1909 
Q 5044 1953 5044 2034 
Q 5044 2406 4934 2573 
Q 4825 2741 4581 2741 
Q 4263 2741 4089 2478 
Q 3916 2216 3909 1719 
L 3909 0 
L 2784 0 
L 2784 1825 
Q 2784 2406 2684 2573 
Q 2584 2741 2328 2741 
Q 2006 2741 1831 2477 
Q 1656 2213 1656 1722 
L 1656 0 
L 531 0 
L 531 3500 
L 1656 3500 
L 1656 2988 
Q 1863 3284 2130 3434 
Q 2397 3584 2719 3584 
Q 3081 3584 3359 3409 
Q 3638 3234 3781 2919 
z
" transform="scale(0.015625)"/>
      <path id="DejaVuSans-Bold-69" d="M 538 3500 
L 1656 3500 
L 1656 0 
L 538 0 
L 538 3500 
z
M 538 4863 
L 1656 4863 
L 1656 3950 
L 538 3950 
L 538 4863 
z
" transform="scale(0.015625)"/>
      <path id="DejaVuSans-Bold-6e" d="M 4056 2131 
L 4056 0 
L 2931 0 
L 2931 347 
L 2931 1631 
Q 2931 2084 2911 2256 
Q 2891 2428 2841 2509 
Q 2775 2619 2662 2680 
Q 2550 2741 2406 2741 
Q 2056 2741 1856 2470 
Q 1656 2200 1656 1722 
L 1656 0 
L 538 0 
L 538 3500 
L 1656 3500 
L 1656 2988 
Q 1909 3294 2193 3439 
Q 2478 3584 2822 3584 
Q 3428 3584 3742 3212 
Q 4056 2841 4056 2131 
z
" transform="scale(0.015625)"/>
      <path id="DejaVuSans-Bold-2d" d="M 347 2297 
L 2309 2297 
L 2309 1388 
L 347 1388 
L 347 2297 
z
" transform="scale(0.015625)"/>
      <path id="DejaVuSans-Bold-32" d="M 1844 884 
L 3897 884 
L 3897 0 
L 506 0 
L 506 884 
L 2209 2388 
Q 2438 2594 2547 2791 
Q 2656 2988 2656 3200 
Q 2656 3528 2436 3728 
Q 2216 3928 1850 3928 
Q 1569 3928 1234 3808 
Q 900 3688 519 3450 
L 519 4475 
Q 925 4609 1322 4679 
Q 1719 4750 2100 4750 
Q 2938 4750 3402 4381 
Q 3866 4013 3866 3353 
Q 3866 2972 3669 2642 
Q 3472 2313 2841 1759 
L 1844 884 
z
" transform="scale(0.015625)"/>
      <path id="DejaVuSans-Bold-2e" d="M 653 1209 
L 1778 1209 
L 1778 0 
L 653 0 
L 653 1209 
z
" transform="scale(0.015625)"/>
      <path id="DejaVuSans-Bold-30" d="M 2944 2338 
Q 2944 3213 2780 3570 
Q 2616 3928 2228 3928 
Q 1841 3928 1675 3570 
Q 1509 3213 1509 2338 
Q 1509 1453 1675 1090 
Q 1841 728 2228 728 
Q 2613 728 2778 1090 
Q 2944 1453 2944 2338 
z
M 4147 2328 
Q 4147 1169 3647 539 
Q 3147 -91 2228 -91 
Q 1306 -91 806 539 
Q 306 1169 306 2328 
Q 306 3491 806 4120 
Q 1306 4750 2228 4750 
Q 3147 4750 3647 4120 
Q 4147 3491 4147 2328 
z
" transform="scale(0.015625)"/>
      <path id="DejaVuSans-Bold-66" d="M 2841 4863 
L 2841 4128 
L 2222 4128 
Q 1984 4128 1890 4042 
Q 1797 3956 1797 3744 
L 1797 3500 
L 2753 3500 
L 2753 2700 
L 1797 2700 
L 1797 0 
L 678 0 
L 678 2700 
L 122 2700 
L 122 3500 
L 678 3500 
L 678 3744 
Q 678 4316 997 4589 
Q 1316 4863 1984 4863 
L 2841 4863 
z
" transform="scale(0.015625)"/>
      <path id="DejaVuSans-Bold-6c" d="M 538 4863 
L 1656 4863 
L 1656 0 
L 538 0 
L 538 4863 
z
" transform="scale(0.015625)"/>
      <path id="DejaVuSans-Bold-61" d="M 2106 1575 
Q 1756 1575 1579 1456 
Q 1403 1338 1403 1106 
Q 1403 894 1545 773 
Q 1688 653 1941 653 
Q 2256 653 2472 879 
Q 2688 1106 2688 1447 
L 2688 1575 
L 2106 1575 
z
M 3816 1997 
L 3816 0 
L 2688 0 
L 2688 519 
Q 2463 200 2181 54 
Q 1900 -91 1497 -91 
Q 953 -91 614 226 
Q 275 544 275 1050 
Q 275 1666 698 1953 
Q 1122 2241 2028 2241 
L 2688 2241 
L 2688 2328 
Q 2688 2594 2478 2717 
Q 2269 2841 1825 2841 
Q 1466 2841 1156 2769 
Q 847 2697 581 2553 
L 581 3406 
Q 941 3494 1303 3539 
Q 1666 3584 2028 3584 
Q 2975 3584 3395 3211 
Q 3816 2838 3816 1997 
z
" transform="scale(0.015625)"/>
      <path id="DejaVuSans-Bold-73" d="M 3272 3391 
L 3272 2541 
Q 2913 2691 2578 2766 
Q 2244 2841 1947 2841 
Q 1628 2841 1473 2761 
Q 1319 2681 1319 2516 
Q 1319 2381 1436 2309 
Q 1553 2238 1856 2203 
L 2053 2175 
Q 2913 2066 3209 1816 
Q 3506 1566 3506 1031 
Q 3506 472 3093 190 
Q 2681 -91 1863 -91 
Q 1516 -91 1145 -36 
Q 775 19 384 128 
L 384 978 
Q 719 816 1070 734 
Q 1422 653 1784 653 
Q 2113 653 2278 743 
Q 2444 834 2444 1013 
Q 2444 1163 2330 1236 
Q 2216 1309 1875 1350 
L 1678 1375 
Q 931 1469 631 1722 
Q 331 1975 331 2491 
Q 331 3047 712 3315 
Q 1094 3584 1881 3584 
Q 2191 3584 2531 3537 
Q 2872 3491 3272 3391 
z
" transform="scale(0.015625)"/>
      <path id="DejaVuSans-Bold-68" d="M 4056 2131 
L 4056 0 
L 2931 0 
L 2931 347 
L 2931 1625 
Q 2931 2084 2911 2256 
Q 2891 2428 2841 2509 
Q 2775 2619 2662 2680 
Q 2550 2741 2406 2741 
Q 2056 2741 1856 2470 
Q 1656 2200 1656 1722 
L 1656 0 
L 538 0 
L 538 4863 
L 1656 4863 
L 1656 2988 
Q 1909 3294 2193 3439 
Q 2478 3584 2822 3584 
Q 3428 3584 3742 3212 
Q 4056 2841 4056 2131 
z
" transform="scale(0.015625)"/>
     </defs>
     <use xlink:href="#DejaVuSans-Bold-67"/>
     <use xlink:href="#DejaVuSans-Bold-65" transform="translate(71.582031 0)"/>
     <use xlink:href="#DejaVuSans-Bold-6d" transform="translate(139.404297 0)"/>
     <use xlink:href="#DejaVuSans-Bold-69" transform="translate(243.603516 0)"/>
     <use xlink:href="#DejaVuSans-Bold-6e" transform="translate(277.880859 0)"/>
     <use xlink:href="#DejaVuSans-Bold-69" transform="translate(349.072266 0)"/>
     <use xlink:href="#DejaVuSans-Bold-2d" transform="translate(383.349609 0)"/>
     <use xlink:href="#DejaVuSans-Bold-32" transform="translate(424.853516 0)"/>
     <use xlink:href="#DejaVuSans-Bold-2e" transform="translate(494.433594 0)"/>
     <use xlink:href="#DejaVuSans-Bold-30" transform="translate(532.421875 0)"/>
     <use xlink:href="#DejaVuSans-Bold-2d" transform="translate(602.001953 0)"/>
     <use xlink:href="#DejaVuSans-Bold-66" transform="translate(643.505859 0)"/>
     <use xlink:href="#DejaVuSans-Bold-6c" transform="translate(687.011719 0)"/>
     <use xlink:href="#DejaVuSans-Bold-61" transform="translate(721.289062 0)"/>
     <use xlink:href="#DejaVuSans-Bold-73" transform="translate(788.769531 0)"/>
     <use xlink:href="#DejaVuSans-Bold-68" transform="translate(848.291016 0)"/>
    </g>
    <!-- (n=1, S: 0, V: 1) -->
    <g transform="translate(217.371281 98.784) scale(0.11 -0.11)">
     <defs>
      <path id="DejaVuSans-Bold-28" d="M 2413 -844 
L 1484 -844 
Q 1006 -72 778 623 
Q 550 1319 550 2003 
Q 550 2688 779 3389 
Q 1009 4091 1484 4856 
L 2413 4856 
Q 2013 4116 1813 3408 
Q 1613 2700 1613 2009 
Q 1613 1319 1811 609 
Q 2009 -100 2413 -844 
z
" transform="scale(0.015625)"/>
      <path id="DejaVuSans-Bold-3d" d="M 678 3084 
L 4684 3084 
L 4684 2350 
L 678 2350 
L 678 3084 
z
M 678 1663 
L 4684 1663 
L 4684 922 
L 678 922 
L 678 1663 
z
" transform="scale(0.015625)"/>
      <path id="DejaVuSans-Bold-31" d="M 750 831 
L 1813 831 
L 1813 3847 
L 722 3622 
L 722 4441 
L 1806 4666 
L 2950 4666 
L 2950 831 
L 4013 831 
L 4013 0 
L 750 0 
L 750 831 
z
" transform="scale(0.015625)"/>
      <path id="DejaVuSans-Bold-2c" d="M 653 1209 
L 1778 1209 
L 1778 256 
L 1006 -909 
L 341 -909 
L 653 256 
L 653 1209 
z
" transform="scale(0.015625)"/>
      <path id="DejaVuSans-Bold-20" transform="scale(0.015625)"/>
      <path id="DejaVuSans-Bold-53" d="M 3834 4519 
L 3834 3531 
Q 3450 3703 3084 3790 
Q 2719 3878 2394 3878 
Q 1963 3878 1756 3759 
Q 1550 3641 1550 3391 
Q 1550 3203 1689 3098 
Q 1828 2994 2194 2919 
L 2706 2816 
Q 3484 2659 3812 2340 
Q 4141 2022 4141 1434 
Q 4141 663 3683 286 
Q 3225 -91 2284 -91 
Q 1841 -91 1394 -6 
Q 947 78 500 244 
L 500 1259 
Q 947 1022 1364 901 
Q 1781 781 2169 781 
Q 2563 781 2772 912 
Q 2981 1044 2981 1288 
Q 2981 1506 2839 1625 
Q 2697 1744 2272 1838 
L 1806 1941 
Q 1106 2091 782 2419 
Q 459 2747 459 3303 
Q 459 4000 909 4375 
Q 1359 4750 2203 4750 
Q 2588 4750 2994 4692 
Q 3400 4634 3834 4519 
z
" transform="scale(0.015625)"/>
      <path id="DejaVuSans-Bold-3a" d="M 716 3500 
L 1844 3500 
L 1844 2291 
L 716 2291 
L 716 3500 
z
M 716 1209 
L 1844 1209 
L 1844 0 
L 716 0 
L 716 1209 
z
" transform="scale(0.015625)"/>
      <path id="DejaVuSans-Bold-56" d="M 31 4666 
L 1241 4666 
L 2478 1222 
L 3713 4666 
L 4922 4666 
L 3194 0 
L 1759 0 
L 31 4666 
z
" transform="scale(0.015625)"/>
      <path id="DejaVuSans-Bold-29" d="M 513 -844 
Q 913 -100 1113 609 
Q 1313 1319 1313 2009 
Q 1313 2700 1113 3408 
Q 913 4116 513 4856 
L 1441 4856 
Q 1916 4091 2145 3389 
Q 2375 2688 2375 2003 
Q 2375 1319 2147 623 
Q 1919 -72 1441 -844 
L 513 -844 
z
" transform="scale(0.015625)"/>
     </defs>
     <use xlink:href="#DejaVuSans-Bold-28"/>
     <use xlink:href="#DejaVuSans-Bold-6e" transform="translate(45.703125 0)"/>
     <use xlink:href="#DejaVuSans-Bold-3d" transform="translate(116.894531 0)"/>
     <use xlink:href="#DejaVuSans-Bold-31" transform="translate(200.683594 0)"/>
     <use xlink:href="#DejaVuSans-Bold-2c" transform="translate(270.263672 0)"/>
     <use xlink:href="#DejaVuSans-Bold-20" transform="translate(308.251953 0)"/>
     <use xlink:href="#DejaVuSans-Bold-53" transform="translate(343.066406 0)"/>
     <use xlink:href="#DejaVuSans-Bold-3a" transform="translate(415.087891 0)"/>
     <use xlink:href="#DejaVuSans-Bold-20" transform="translate(455.078125 0)"/>
     <use xlink:href="#DejaVuSans-Bold-30" transform="translate(489.892578 0)"/>
     <use xlink:href="#DejaVuSans-Bold-2c" transform="translate(559.472656 0)"/>
     <use xlink:href="#DejaVuSans-Bold-20" transform="translate(597.460938 0)"/>
     <use xlink:href="#DejaVuSans-Bold-56" transform="translate(632.275391 0)"/>
     <use xlink:href="#DejaVuSans-Bold-3a" transform="translate(705.167969 0)"/>
     <use xlink:href="#DejaVuSans-Bold-20" transform="translate(745.158203 0)"/>
     <use xlink:href="#DejaVuSans-Bold-31" transform="translate(779.972656 0)"/>
     <use xlink:href="#DejaVuSans-Bold-29" transform="translate(849.552734 0)"/>
    </g>
   </g>
   <g id="PathCollection_2">
    <defs>
     <path id="mb2312c19e8" d="M 0 5 
L 5 0 
L 0 -5 
L -5 0 
z
" style="stroke: #006400; stroke-opacity: 0.9; stroke-width: 1.5"/>
    </defs>
    <g clip-path="url(#pdce9d85a52)">
     <use xlink:href="#mb2312c19e8" x="381.137857" y="328.772" style="fill: #00ff00; fill-opacity: 0.9; stroke: #006400; stroke-opacity: 0.9; stroke-width: 1.5"/>
    </g>
   </g>
   <g id="PathCollection_3">
    <defs>
     <path id="m0b2559f41c" d="M -1.936492 3.872983 
L 0 1.936492 
L 1.936492 3.872983 
L 3.872983 1.936492 
L 1.936492 0 
L 3.872983 -1.936492 
L 1.936492 -3.872983 
L 0 -1.936492 
L -1.936492 -3.872983 
L -3.872983 -1.936492 
L -1.936492 0 
L -3.872983 1.936492 
z
" style="stroke: #000000; stroke-opacity: 0.9; stroke-width: 1.5"/>
    </defs>
    <g clip-path="url(#pdce9d85a52)">
     <use xlink:href="#m0b2559f41c" x="187.466614" y="386.27181" style="fill: #ff0000; fill-opacity: 0.9; stroke: #000000; stroke-opacity: 0.9; stroke-width: 1.5"/>
    </g>
   </g>
   <g id="PathCollection_4">
    <defs>
     <path id="m118b15df73" d="M 0 -10 
L -2.24514 -3.09017 
L -9.510565 -3.09017 
L -3.632713 1.18034 
L -5.877853 8.09017 
L -0 3.81966 
L 5.877853 8.09017 
L 3.632713 1.18034 
L 9.510565 -3.09017 
L 2.24514 -3.09017 
z
" style="stroke: #ffd700"/>
    </defs>
    <g clip-path="url(#pdce9d85a52)">
     <use xlink:href="#m118b15df73" x="266.608313" y="328.772" style="fill: #ffd700; stroke: #ffd700"/>
    </g>
   </g>
  </g>
  <g id="text_14">
   <!-- Run 014: Google Identity Field by Model -->
   <g style="fill: #4285f4" transform="translate(45.337531 20.877187) scale(0.18 -0.18)">
    <defs>
     <path id="DejaVuSans-Bold-52" d="M 2297 2597 
Q 2675 2597 2839 2737 
Q 3003 2878 3003 3200 
Q 3003 3519 2839 3656 
Q 2675 3794 2297 3794 
L 1791 3794 
L 1791 2597 
L 2297 2597 
z
M 1791 1766 
L 1791 0 
L 588 0 
L 588 4666 
L 2425 4666 
Q 3347 4666 3776 4356 
Q 4206 4047 4206 3378 
Q 4206 2916 3982 2619 
Q 3759 2322 3309 2181 
Q 3556 2125 3751 1926 
Q 3947 1728 4147 1325 
L 4800 0 
L 3519 0 
L 2950 1159 
Q 2778 1509 2601 1637 
Q 2425 1766 2131 1766 
L 1791 1766 
z
" transform="scale(0.015625)"/>
     <path id="DejaVuSans-Bold-75" d="M 500 1363 
L 500 3500 
L 1625 3500 
L 1625 3150 
Q 1625 2866 1622 2436 
Q 1619 2006 1619 1863 
Q 1619 1441 1641 1255 
Q 1663 1069 1716 984 
Q 1784 875 1895 815 
Q 2006 756 2150 756 
Q 2500 756 2700 1025 
Q 2900 1294 2900 1772 
L 2900 3500 
L 4019 3500 
L 4019 0 
L 2900 0 
L 2900 506 
Q 2647 200 2364 54 
Q 2081 -91 1741 -91 
Q 1134 -91 817 281 
Q 500 653 500 1363 
z
" transform="scale(0.015625)"/>
     <path id="DejaVuSans-Bold-34" d="M 2356 3675 
L 1038 1722 
L 2356 1722 
L 2356 3675 
z
M 2156 4666 
L 3494 4666 
L 3494 1722 
L 4159 1722 
L 4159 850 
L 3494 850 
L 3494 0 
L 2356 0 
L 2356 850 
L 288 850 
L 288 1881 
L 2156 4666 
z
" transform="scale(0.015625)"/>
     <path id="DejaVuSans-Bold-47" d="M 4781 347 
Q 4331 128 3847 18 
Q 3363 -91 2847 -91 
Q 1681 -91 1000 561 
Q 319 1213 319 2328 
Q 319 3456 1012 4103 
Q 1706 4750 2913 4750 
Q 3378 4750 3804 4662 
Q 4231 4575 4609 4403 
L 4609 3438 
Q 4219 3659 3833 3768 
Q 3447 3878 3059 3878 
Q 2341 3878 1952 3476 
Q 1563 3075 1563 2328 
Q 1563 1588 1938 1184 
Q 2313 781 3003 781 
Q 3191 781 3352 804 
Q 3513 828 3641 878 
L 3641 1784 
L 2906 1784 
L 2906 2591 
L 4781 2591 
L 4781 347 
z
" transform="scale(0.015625)"/>
     <path id="DejaVuSans-Bold-6f" d="M 2203 2784 
Q 1831 2784 1636 2517 
Q 1441 2250 1441 1747 
Q 1441 1244 1636 976 
Q 1831 709 2203 709 
Q 2569 709 2762 976 
Q 2956 1244 2956 1747 
Q 2956 2250 2762 2517 
Q 2569 2784 2203 2784 
z
M 2203 3584 
Q 3106 3584 3614 3096 
Q 4122 2609 4122 1747 
Q 4122 884 3614 396 
Q 3106 -91 2203 -91 
Q 1297 -91 786 396 
Q 275 884 275 1747 
Q 275 2609 786 3096 
Q 1297 3584 2203 3584 
z
" transform="scale(0.015625)"/>
     <path id="DejaVuSans-Bold-49" d="M 588 4666 
L 1791 4666 
L 1791 0 
L 588 0 
L 588 4666 
z
" transform="scale(0.015625)"/>
     <path id="DejaVuSans-Bold-64" d="M 2919 2988 
L 2919 4863 
L 4044 4863 
L 4044 0 
L 2919 0 
L 2919 506 
Q 2688 197 2409 53 
Q 2131 -91 1766 -91 
Q 1119 -91 703 423 
Q 288 938 288 1747 
Q 288 2556 703 3070 
Q 1119 3584 1766 3584 
Q 2128 3584 2408 3439 
Q 2688 3294 2919 2988 
z
M 2181 722 
Q 2541 722 2730 984 
Q 2919 1247 2919 1747 
Q 2919 2247 2730 2509 
Q 2541 2772 2181 2772 
Q 1825 2772 1636 2509 
Q 1447 2247 1447 1747 
Q 1447 1247 1636 984 
Q 1825 722 2181 722 
z
" transform="scale(0.015625)"/>
     <path id="DejaVuSans-Bold-74" d="M 1759 4494 
L 1759 3500 
L 2913 3500 
L 2913 2700 
L 1759 2700 
L 1759 1216 
Q 1759 972 1856 886 
Q 1953 800 2241 800 
L 2816 800 
L 2816 0 
L 1856 0 
Q 1194 0 917 276 
Q 641 553 641 1216 
L 641 2700 
L 84 2700 
L 84 3500 
L 641 3500 
L 641 4494 
L 1759 4494 
z
" transform="scale(0.015625)"/>
     <path id="DejaVuSans-Bold-79" d="M 78 3500 
L 1197 3500 
L 2138 1125 
L 2938 3500 
L 4056 3500 
L 2584 -331 
Q 2363 -916 2067 -1148 
Q 1772 -1381 1288 -1381 
L 641 -1381 
L 641 -647 
L 991 -647 
Q 1275 -647 1404 -556 
Q 1534 -466 1606 -231 
L 1638 -134 
L 78 3500 
z
" transform="scale(0.015625)"/>
     <path id="DejaVuSans-Bold-46" d="M 588 4666 
L 3834 4666 
L 3834 3756 
L 1791 3756 
L 1791 2888 
L 3713 2888 
L 3713 1978 
L 1791 1978 
L 1791 0 
L 588 0 
L 588 4666 
z
" transform="scale(0.015625)"/>
     <path id="DejaVuSans-Bold-62" d="M 2400 722 
Q 2759 722 2948 984 
Q 3138 1247 3138 1747 
Q 3138 2247 2948 2509 
Q 2759 2772 2400 2772 
Q 2041 2772 1848 2508 
Q 1656 2244 1656 1747 
Q 1656 1250 1848 986 
Q 2041 722 2400 722 
z
M 1656 2988 
Q 1888 3294 2169 3439 
Q 2450 3584 2816 3584 
Q 3463 3584 3878 3070 
Q 4294 2556 4294 1747 
Q 4294 938 3878 423 
Q 3463 -91 2816 -91 
Q 2450 -91 2169 54 
Q 1888 200 1656 506 
L 1656 0 
L 538 0 
L 538 4863 
L 1656 4863 
L 1656 2988 
z
" transform="scale(0.015625)"/>
     <path id="DejaVuSans-Bold-4d" d="M 588 4666 
L 2119 4666 
L 3181 2169 
L 4250 4666 
L 5778 4666 
L 5778 0 
L 4641 0 
L 4641 3413 
L 3566 897 
L 2803 897 
L 1728 3413 
L 1728 0 
L 588 0 
L 588 4666 
z
" transform="scale(0.015625)"/>
    </defs>
    <use xlink:href="#DejaVuSans-Bold-52"/>
    <use xlink:href="#DejaVuSans-Bold-75" transform="translate(77.001953 0)"/>
    <use xlink:href="#DejaVuSans-Bold-6e" transform="translate(148.193359 0)"/>
    <use xlink:href="#DejaVuSans-Bold-20" transform="translate(219.384766 0)"/>
    <use xlink:href="#DejaVuSans-Bold-30" transform="translate(254.199219 0)"/>
    <use xlink:href="#DejaVuSans-Bold-31" transform="translate(323.779297 0)"/>
    <use xlink:href="#DejaVuSans-Bold-34" transform="translate(393.359375 0)"/>
    <use xlink:href="#DejaVuSans-Bold-3a" transform="translate(462.939453 0)"/>
    <use xlink:href="#DejaVuSans-Bold-20" transform="translate(502.929688 0)"/>
    <use xlink:href="#DejaVuSans-Bold-47" transform="translate(537.744141 0)"/>
    <use xlink:href="#DejaVuSans-Bold-6f" transform="translate(619.824219 0)"/>
    <use xlink:href="#DejaVuSans-Bold-6f" transform="translate(688.525391 0)"/>
    <use xlink:href="#DejaVuSans-Bold-67" transform="translate(757.226562 0)"/>
    <use xlink:href="#DejaVuSans-Bold-6c" transform="translate(828.808594 0)"/>
    <use xlink:href="#DejaVuSans-Bold-65" transform="translate(863.085938 0)"/>
    <use xlink:href="#DejaVuSans-Bold-20" transform="translate(930.908203 0)"/>
    <use xlink:href="#DejaVuSans-Bold-49" transform="translate(965.722656 0)"/>
    <use xlink:href="#DejaVuSans-Bold-64" transform="translate(1002.929688 0)"/>
    <use xlink:href="#DejaVuSans-Bold-65" transform="translate(1074.511719 0)"/>
    <use xlink:href="#DejaVuSans-Bold-6e" transform="translate(1142.333984 0)"/>
    <use xlink:href="#DejaVuSans-Bold-74" transform="translate(1213.525391 0)"/>
    <use xlink:href="#DejaVuSans-Bold-69" transform="translate(1261.328125 0)"/>
    <use xlink:href="#DejaVuSans-Bold-74" transform="translate(1295.605469 0)"/>
    <use xlink:href="#DejaVuSans-Bold-79" transform="translate(1343.408203 0)"/>
    <use xlink:href="#DejaVuSans-Bold-20" transform="translate(1408.59375 0)"/>
    <use xlink:href="#DejaVuSans-Bold-46" transform="translate(1443.408203 0)"/>
    <use xlink:href="#DejaVuSans-Bold-69" transform="translate(1511.71875 0)"/>
    <use xlink:href="#DejaVuSans-Bold-65" transform="translate(1545.996094 0)"/>
    <use xlink:href="#DejaVuSans-Bold-6c" transform="translate(1613.818359 0)"/>
    <use xlink:href="#DejaVuSans-Bold-64" transform="translate(1648.095703 0)"/>
    <use xlink:href="#DejaVuSans-Bold-20" transform="translate(1719.677734 0)"/>
    <use xlink:href="#DejaVuSans-Bold-62" transform="translate(1754.492188 0)"/>
    <use xlink:href="#DejaVuSans-Bold-79" transform="translate(1826.074219 0)"/>
    <use xlink:href="#DejaVuSans-Bold-20" transform="translate(1891.259766 0)"/>
    <use xlink:href="#DejaVuSans-Bold-4d" transform="translate(1926.074219 0)"/>
    <use xlink:href="#DejaVuSans-Bold-6f" transform="translate(2025.585938 0)"/>
    <use xlink:href="#DejaVuSans-Bold-64" transform="translate(2094.287109 0)"/>
    <use xlink:href="#DejaVuSans-Bold-65" transform="translate(2165.869141 0)"/>
    <use xlink:href="#DejaVuSans-Bold-6c" transform="translate(2233.691406 0)"/>
   </g>
   <!-- (Coherence Boundary = 1.23) -->
   <g style="fill: #4285f4" transform="translate(99.714406 41.173875) scale(0.18 -0.18)">
    <defs>
     <path id="DejaVuSans-Bold-43" d="M 4288 256 
Q 3956 84 3597 -3 
Q 3238 -91 2847 -91 
Q 1681 -91 1000 561 
Q 319 1213 319 2328 
Q 319 3447 1000 4098 
Q 1681 4750 2847 4750 
Q 3238 4750 3597 4662 
Q 3956 4575 4288 4403 
L 4288 3438 
Q 3953 3666 3628 3772 
Q 3303 3878 2944 3878 
Q 2300 3878 1931 3465 
Q 1563 3053 1563 2328 
Q 1563 1606 1931 1193 
Q 2300 781 2944 781 
Q 3303 781 3628 887 
Q 3953 994 4288 1222 
L 4288 256 
z
" transform="scale(0.015625)"/>
     <path id="DejaVuSans-Bold-72" d="M 3138 2547 
Q 2991 2616 2845 2648 
Q 2700 2681 2553 2681 
Q 2122 2681 1889 2404 
Q 1656 2128 1656 1613 
L 1656 0 
L 538 0 
L 538 3500 
L 1656 3500 
L 1656 2925 
Q 1872 3269 2151 3426 
Q 2431 3584 2822 3584 
Q 2878 3584 2943 3579 
Q 3009 3575 3134 3559 
L 3138 2547 
z
" transform="scale(0.015625)"/>
     <path id="DejaVuSans-Bold-63" d="M 3366 3391 
L 3366 2478 
Q 3138 2634 2908 2709 
Q 2678 2784 2431 2784 
Q 1963 2784 1702 2511 
Q 1441 2238 1441 1747 
Q 1441 1256 1702 982 
Q 1963 709 2431 709 
Q 2694 709 2930 787 
Q 3166 866 3366 1019 
L 3366 103 
Q 3103 6 2833 -42 
Q 2563 -91 2291 -91 
Q 1344 -91 809 395 
Q 275 881 275 1747 
Q 275 2613 809 3098 
Q 1344 3584 2291 3584 
Q 2566 3584 2833 3536 
Q 3100 3488 3366 3391 
z
" transform="scale(0.015625)"/>
     <path id="DejaVuSans-Bold-42" d="M 2456 2859 
Q 2741 2859 2887 2984 
Q 3034 3109 3034 3353 
Q 3034 3594 2887 3720 
Q 2741 3847 2456 3847 
L 1791 3847 
L 1791 2859 
L 2456 2859 
z
M 2497 819 
Q 2859 819 3042 972 
Q 3225 1125 3225 1434 
Q 3225 1738 3044 1889 
Q 2863 2041 2497 2041 
L 1791 2041 
L 1791 819 
L 2497 819 
z
M 3616 2497 
Q 4003 2384 4215 2081 
Q 4428 1778 4428 1338 
Q 4428 663 3972 331 
Q 3516 0 2584 0 
L 588 0 
L 588 4666 
L 2394 4666 
Q 3366 4666 3802 4372 
Q 4238 4078 4238 3431 
Q 4238 3091 4078 2852 
Q 3919 2613 3616 2497 
z
" transform="scale(0.015625)"/>
     <path id="DejaVuSans-Bold-33" d="M 2981 2516 
Q 3453 2394 3698 2092 
Q 3944 1791 3944 1325 
Q 3944 631 3412 270 
Q 2881 -91 1863 -91 
Q 1503 -91 1142 -33 
Q 781 25 428 141 
L 428 1069 
Q 766 900 1098 814 
Q 1431 728 1753 728 
Q 2231 728 2486 893 
Q 2741 1059 2741 1369 
Q 2741 1688 2480 1852 
Q 2219 2016 1709 2016 
L 1228 2016 
L 1228 2791 
L 1734 2791 
Q 2188 2791 2409 2933 
Q 2631 3075 2631 3366 
Q 2631 3634 2415 3781 
Q 2200 3928 1806 3928 
Q 1516 3928 1219 3862 
Q 922 3797 628 3669 
L 628 4550 
Q 984 4650 1334 4700 
Q 1684 4750 2022 4750 
Q 2931 4750 3382 4451 
Q 3834 4153 3834 3553 
Q 3834 3144 3618 2883 
Q 3403 2622 2981 2516 
z
" transform="scale(0.015625)"/>
    </defs>
    <use xlink:href="#DejaVuSans-Bold-28"/>
    <use xlink:href="#DejaVuSans-Bold-43" transform="translate(45.703125 0)"/>
    <use xlink:href="#DejaVuSans-Bold-6f" transform="translate(119.091797 0)"/>
    <use xlink:href="#DejaVuSans-Bold-68" transform="translate(187.792969 0)"/>
    <use xlink:href="#DejaVuSans-Bold-65" transform="translate(258.984375 0)"/>
    <use xlink:href="#DejaVuSans-Bold-72" transform="translate(326.806641 0)"/>
    <use xlink:href="#DejaVuSans-Bold-65" transform="translate(376.123047 0)"/>
    <use xlink:href="#DejaVuSans-Bold-6e" transform="translate(443.945312 0)"/>
    <use xlink:href="#DejaVuSans-Bold-63" transform="translate(515.136719 0)"/>
    <use xlink:href="#DejaVuSans-Bold-65" transform="translate(574.414062 0)"/>
    <use xlink:href="#DejaVuSans-Bold-20" transform="translate(642.236328 0)"/>
    <use xlink:href="#DejaVuSans-Bold-42" transform="translate(677.050781 0)"/>
    <use xlink:href="#DejaVuSans-Bold-6f" transform="translate(753.271484 0)"/>
    <use xlink:href="#DejaVuSans-Bold-75" transform="translate(821.972656 0)"/>
    <use xlink:href="#DejaVuSans-Bold-6e" transform="translate(893.164062 0)"/>
    <use xlink:href="#DejaVuSans-Bold-64" transform="translate(964.355469 0)"/>
    <use xlink:href="#DejaVuSans-Bold-61" transform="translate(1035.9375 0)"/>
    <use xlink:href="#DejaVuSans-Bold-72" transform="translate(1103.417969 0)"/>
    <use xlink:href="#DejaVuSans-Bold-79" transform="translate(1152.734375 0)"/>
    <use xlink:href="#DejaVuSans-Bold-20" transform="translate(1217.919922 0)"/>
    <use xlink:href="#DejaVuSans-Bold-3d" transform="translate(1252.734375 0)"/>
    <use xlink:href="#DejaVuSans-Bold-20" transform="translate(1336.523438 0)"/>
    <use xlink:href="#DejaVuSans-Bold-31" transform="translate(1371.337891 0)"/>
    <use xlink:href="#DejaVuSans-Bold-2e" transform="translate(1440.917969 0)"/>
    <use xlink:href="#DejaVuSans-Bold-32" transform="translate(1478.90625 0)"/>
    <use xlink:href="#DejaVuSans-Bold-33" transform="translate(1548.486328 0)"/>
    <use xlink:href="#DejaVuSans-Bold-29" transform="translate(1618.066406 0)"/>
   </g>
  </g>
 </g>
 <defs>
  <clipPath id="pdce9d85a52">
   <rect x="42.620313" y="104.784" width="447.976" height="447.976"/>
  </clipPath>
 </defs>
</svg>
