<?xml version="1.0" encoding="utf-8" standalone="no"?>
<!DOCTYPE svg PUBLIC "-//W3C//DTD SVG 1.1//EN"
  "http://www.w3.org/Graphics/SVG/1.1/DTD/svg11.dtd">
<svg xmlns:xlink="http://www.w3.org/1999/xlink" width="497.796312pt" height="590.31625pt" viewBox="0 0 497.796312 590.31625" xmlns="http://www.w3.org/2000/svg" version="1.1">
 <metadata>
  <rdf:RDF xmlns:dc="http://purl.org/dc/elements/1.1/" xmlns:cc="http://creativecommons.org/ns#" xmlns:rdf="http://www.w3.org/1999/02/22-rdf-syntax-ns#">
   <cc:Work>
    <dc:type rdf:resource="http://purl.org/dc/dcmitype/StillImage"/>
    <dc:date>2025-12-17T13:05:23.010720</dc:date>
    <dc:format>image/svg+xml</dc:format>
    <dc:creator>
     <cc:Agent>
      <dc:title>Matplotlib v3.10.7, https://matplotlib.org/</dc:title>
     </cc:Agent>
    </dc:creator>
   </cc:Work>
  </rdf:RDF>
 </metadata>
 <defs>
  <style type="text/css">*{stroke-linejoin: round; stroke-linecap: butt}</style>
 </defs>
 <g id="figure_1">
  <g id="patch_1">
   <path d="M 0 590.31625 
L 497.796312 590.31625 
L 497.796312 0 
L 0 0 
z
" style="fill: #ffffff"/>
  </g>
  <g id="axes_1">
   <g id="patch_2">
    <path d="M 42.620313 552.76 
L 490.596313 552.76 
L 490.596313 104.784 
L 42.620313 104.784 
z
" style="fill: #ffffff"/>
   </g>
   <g id="PathCollection_1">
    <defs>
     <path id="m0f7c46f51b" d="M 0 1.732051 
C 0.459345 1.732051 0.899939 1.549551 1.224745 1.224745 
C 1.549551 0.899939 1.732051 0.459345 1.732051 0 
C 1.732051 -0.459345 1.549551 -0.899939 1.224745 -1.224745 
C 0.899939 -1.549551 0.459345 -1.732051 0 -1.732051 
C -0.459345 -1.732051 -0.899939 -1.549551 -1.224745 -1.224745 
C -1.549551 -0.899939 -1.732051 -0.459345 -1.732051 0 
C -1.732051 0.459345 -1.549551 0.899939 -1.224745 1.224745 
C -0.899939 1.549551 -0.459345 1.732051 0 1.732051 
z
" style="stroke: #ffffff; stroke-opacity: 0.4; stroke-width: 0.2"/>
    </defs>
    <g clip-path="url(#p5def5e9717)">
     <use xlink:href="#m0f7c46f51b" x="406.82899" y="328.772" style="fill: #10a37f; fill-opacity: 0.4; stroke: #ffffff; stroke-opacity: 0.4; stroke-width: 0.2"/>
     <use xlink:href="#m0f7c46f51b" x="281.093166" y="237.318234" style="fill: #10a37f; fill-opacity: 0.4; stroke: #ffffff; stroke-opacity: 0.4; stroke-width: 0.2"/>
     <use xlink:href="#m0f7c46f51b" x="86.160269" y="270.140877" style="fill: #10a37f; fill-opacity: 0.4; stroke: #ffffff; stroke-opacity: 0.4; stroke-width: 0.2"/>
     <use xlink:href="#m0f7c46f51b" x="221.915975" y="416.485651" style="fill: #10a37f; fill-opacity: 0.4; stroke: #ffffff; stroke-opacity: 0.4; stroke-width: 0.2"/>
     <use xlink:href="#m0f7c46f51b" x="366.520666" y="401.362574" style="fill: #10a37f; fill-opacity: 0.4; stroke: #ffffff; stroke-opacity: 0.4; stroke-width: 0.2"/>
     <use xlink:href="#m0f7c46f51b" x="340.305886" y="255.074426" style="fill: #10a37f; fill-opacity: 0.4; stroke: #ffffff; stroke-opacity: 0.4; stroke-width: 0.2"/>
     <use xlink:href="#m0f7c46f51b" x="218.048535" y="261.9352" style="fill: #10a37f; fill-opacity: 0.4; stroke: #ffffff; stroke-opacity: 0.4; stroke-width: 0.2"/>
     <use xlink:href="#m0f7c46f51b" x="195.803755" y="364.848724" style="fill: #10a37f; fill-opacity: 0.4; stroke: #ffffff; stroke-opacity: 0.4; stroke-width: 0.2"/>
     <use xlink:href="#m0f7c46f51b" x="290.785446" y="403.181566" style="fill: #10a37f; fill-opacity: 0.4; stroke: #ffffff; stroke-opacity: 0.4; stroke-width: 0.2"/>
    </g>
   </g>
   <g id="PathCollection_2">
    <g clip-path="url(#p5def5e9717)">
     <use xlink:href="#m0f7c46f51b" x="369.652582" y="328.772" style="fill: #10a37f; fill-opacity: 0.4; stroke: #ffffff; stroke-opacity: 0.4; stroke-width: 0.2"/>
     <use xlink:href="#m0f7c46f51b" x="263.10606" y="295.450295" style="fill: #10a37f; fill-opacity: 0.4; stroke: #ffffff; stroke-opacity: 0.4; stroke-width: 0.2"/>
     <use xlink:href="#m0f7c46f51b" x="172.532027" y="348.768532" style="fill: #10a37f; fill-opacity: 0.4; stroke: #ffffff; stroke-opacity: 0.4; stroke-width: 0.2"/>
     <use xlink:href="#m0f7c46f51b" x="292.133948" y="407.331829" style="fill: #10a37f; fill-opacity: 0.4; stroke: #ffffff; stroke-opacity: 0.4; stroke-width: 0.2"/>
    </g>
   </g>
   <g id="PathCollection_3">
    <g clip-path="url(#p5def5e9717)">
     <use xlink:href="#m0f7c46f51b" x="301.470258" y="328.772" style="fill: #10a37f; fill-opacity: 0.4; stroke: #ffffff; stroke-opacity: 0.4; stroke-width: 0.2"/>
     <use xlink:href="#m0f7c46f51b" x="268.263512" y="302.463364" style="fill: #10a37f; fill-opacity: 0.4; stroke: #ffffff; stroke-opacity: 0.4; stroke-width: 0.2"/>
     <use xlink:href="#m0f7c46f51b" x="228.082838" y="323.905101" style="fill: #10a37f; fill-opacity: 0.4; stroke: #ffffff; stroke-opacity: 0.4; stroke-width: 0.2"/>
     <use xlink:href="#m0f7c46f51b" x="254.733067" y="391.024215" style="fill: #10a37f; fill-opacity: 0.4; stroke: #ffffff; stroke-opacity: 0.4; stroke-width: 0.2"/>
     <use xlink:href="#m0f7c46f51b" x="286.013" y="333.754277" style="fill: #10a37f; fill-opacity: 0.4; stroke: #ffffff; stroke-opacity: 0.4; stroke-width: 0.2"/>
     <use xlink:href="#m0f7c46f51b" x="291.371817" y="252.557771" style="fill: #10a37f; fill-opacity: 0.4; stroke: #ffffff; stroke-opacity: 0.4; stroke-width: 0.2"/>
    </g>
   </g>
   <g id="PathCollection_4">
    <g clip-path="url(#p5def5e9717)">
     <use xlink:href="#m0f7c46f51b" x="313.712482" y="328.772" style="fill: #10a37f; fill-opacity: 0.4; stroke: #ffffff; stroke-opacity: 0.4; stroke-width: 0.2"/>
     <use xlink:href="#m0f7c46f51b" x="269.771541" y="278.493922" style="fill: #10a37f; fill-opacity: 0.4; stroke: #ffffff; stroke-opacity: 0.4; stroke-width: 0.2"/>
     <use xlink:href="#m0f7c46f51b" x="223.778926" y="323.36139" style="fill: #10a37f; fill-opacity: 0.4; stroke: #ffffff; stroke-opacity: 0.4; stroke-width: 0.2"/>
     <use xlink:href="#m0f7c46f51b" x="254.701535" y="391.189512" style="fill: #10a37f; fill-opacity: 0.4; stroke: #ffffff; stroke-opacity: 0.4; stroke-width: 0.2"/>
     <use xlink:href="#m0f7c46f51b" x="286.013" y="333.754277" style="fill: #10a37f; fill-opacity: 0.4; stroke: #ffffff; stroke-opacity: 0.4; stroke-width: 0.2"/>
     <use xlink:href="#m0f7c46f51b" x="278.990065" y="290.664885" style="fill: #10a37f; fill-opacity: 0.4; stroke: #ffffff; stroke-opacity: 0.4; stroke-width: 0.2"/>
    </g>
   </g>
   <g id="PathCollection_5">
    <g clip-path="url(#p5def5e9717)">
     <use xlink:href="#m0f7c46f51b" x="294.940802" y="328.772" style="fill: #10a37f; fill-opacity: 0.4; stroke: #ffffff; stroke-opacity: 0.4; stroke-width: 0.2"/>
     <use xlink:href="#m0f7c46f51b" x="270.087197" y="309.042267" style="fill: #10a37f; fill-opacity: 0.4; stroke: #ffffff; stroke-opacity: 0.4; stroke-width: 0.2"/>
     <use xlink:href="#m0f7c46f51b" x="221.389055" y="312.313536" style="fill: #10a37f; fill-opacity: 0.4; stroke: #ffffff; stroke-opacity: 0.4; stroke-width: 0.2"/>
     <use xlink:href="#m0f7c46f51b" x="266.608313" y="328.772" style="fill: #10a37f; fill-opacity: 0.4; stroke: #ffffff; stroke-opacity: 0.4; stroke-width: 0.2"/>
     <use xlink:href="#m0f7c46f51b" x="315.139812" y="369.494764" style="fill: #10a37f; fill-opacity: 0.4; stroke: #ffffff; stroke-opacity: 0.4; stroke-width: 0.2"/>
     <use xlink:href="#m0f7c46f51b" x="312.649336" y="290.138994" style="fill: #10a37f; fill-opacity: 0.4; stroke: #ffffff; stroke-opacity: 0.4; stroke-width: 0.2"/>
     <use xlink:href="#m0f7c46f51b" x="206.506025" y="224.671785" style="fill: #10a37f; fill-opacity: 0.4; stroke: #ffffff; stroke-opacity: 0.4; stroke-width: 0.2"/>
     <use xlink:href="#m0f7c46f51b" x="228.956529" y="342.476129" style="fill: #10a37f; fill-opacity: 0.4; stroke: #ffffff; stroke-opacity: 0.4; stroke-width: 0.2"/>
     <use xlink:href="#m0f7c46f51b" x="275.377798" y="378.506224" style="fill: #10a37f; fill-opacity: 0.4; stroke: #ffffff; stroke-opacity: 0.4; stroke-width: 0.2"/>
     <use xlink:href="#m0f7c46f51b" x="370.427926" y="328.772" style="fill: #10a37f; fill-opacity: 0.4; stroke: #ffffff; stroke-opacity: 0.4; stroke-width: 0.2"/>
    </g>
   </g>
   <g id="PathCollection_6">
    <g clip-path="url(#p5def5e9717)">
     <use xlink:href="#m0f7c46f51b" x="332.190681" y="328.772" style="fill: #10a37f; fill-opacity: 0.4; stroke: #ffffff; stroke-opacity: 0.4; stroke-width: 0.2"/>
     <use xlink:href="#m0f7c46f51b" x="234.526288" y="230.03368" style="fill: #10a37f; fill-opacity: 0.4; stroke: #ffffff; stroke-opacity: 0.4; stroke-width: 0.2"/>
     <use xlink:href="#m0f7c46f51b" x="155.481034" y="409.510694" style="fill: #10a37f; fill-opacity: 0.4; stroke: #ffffff; stroke-opacity: 0.4; stroke-width: 0.2"/>
    </g>
   </g>
   <g id="patch_3">
    <path d="M 266.608313 351.1708 
C 272.548544 351.1708 278.246278 348.810721 282.446656 344.610343 
C 286.647034 340.409966 289.007113 334.712231 289.007113 328.772 
C 289.007113 322.831769 286.647034 317.134034 282.446656 312.933657 
C 278.246278 308.733279 272.548544 306.3732 266.608313 306.3732 
C 260.668081 306.3732 254.970347 308.733279 250.769969 312.933657 
C 246.569591 317.134034 244.209513 322.831769 244.209513 328.772 
C 244.209513 334.712231 246.569591 340.409966 250.769969 344.610343 
C 254.970347 348.810721 260.668081 351.1708 266.608313 351.1708 
L 266.608313 351.1708 
z
" clip-path="url(#p5def5e9717)" style="fill: none; opacity: 0.15; stroke-dasharray: 1,1.65; stroke-dashoffset: 0; stroke: #808080; stroke-linejoin: miter"/>
   </g>
   <g id="patch_4">
    <path d="M 266.608313 373.5696 
C 278.488775 373.5696 289.884244 368.849442 298.284999 360.448687 
C 306.685755 352.047931 311.405912 340.652462 311.405912 328.772 
C 311.405912 316.891538 306.685755 305.496069 298.284999 297.095313 
C 289.884244 288.694558 278.488775 283.9744 266.608313 283.9744 
C 254.72785 283.9744 243.332381 288.694558 234.931626 297.095313 
C 226.53087 305.496069 221.810712 316.891538 221.810712 328.772 
C 221.810712 340.652462 226.53087 352.047931 234.931626 360.448687 
C 243.332381 368.849442 254.72785 373.5696 266.608313 373.5696 
L 266.608313 373.5696 
z
" clip-path="url(#p5def5e9717)" style="fill: none; opacity: 0.15; stroke-dasharray: 1,1.65; stroke-dashoffset: 0; stroke: #808080; stroke-linejoin: miter"/>
   </g>
   <g id="patch_5">
    <path d="M 266.608313 395.9684 
C 284.429006 395.9684 301.522209 388.888163 314.123343 376.28703 
C 326.724476 363.685897 333.804713 346.592694 333.804713 328.772 
C 333.804713 310.951306 326.724476 293.858103 314.123343 281.25697 
C 301.522209 268.655837 284.429006 261.5756 266.608313 261.5756 
C 248.787619 261.5756 231.694416 268.655837 219.093282 281.25697 
C 206.492149 293.858103 199.411912 310.951306 199.411912 328.772 
C 199.411912 346.592694 206.492149 363.685897 219.093282 376.28703 
C 231.694416 388.888163 248.787619 395.9684 266.608313 395.9684 
L 266.608313 395.9684 
z
" clip-path="url(#p5def5e9717)" style="fill: none; opacity: 0.15; stroke-dasharray: 1,1.65; stroke-dashoffset: 0; stroke: #808080; stroke-linejoin: miter"/>
   </g>
   <g id="patch_6">
    <path d="M 266.608313 418.3672 
C 290.369237 418.3672 313.160175 408.926885 329.961686 392.125373 
C 346.763197 375.323862 356.203513 352.532925 356.203513 328.772 
C 356.203513 305.011075 346.763197 282.220138 329.961686 265.418627 
C 313.160175 248.617115 290.369237 239.1768 266.608313 239.1768 
C 242.847388 239.1768 220.05645 248.617115 203.254939 265.418627 
C 186.453428 282.220138 177.013112 305.011075 177.013112 328.772 
C 177.013112 352.532925 186.453428 375.323862 203.254939 392.125373 
C 220.05645 408.926885 242.847388 418.3672 266.608313 418.3672 
L 266.608313 418.3672 
z
" clip-path="url(#p5def5e9717)" style="fill: none; opacity: 0.15; stroke-dasharray: 1,1.65; stroke-dashoffset: 0; stroke: #808080; stroke-linejoin: miter"/>
   </g>
   <g id="patch_7">
    <path d="M 266.608313 440.766 
C 296.309468 440.766 324.798141 428.965606 345.800029 407.963717 
C 366.801918 386.961828 378.602313 358.473156 378.602313 328.772 
C 378.602313 299.070844 366.801918 270.582172 345.800029 249.580283 
C 324.798141 228.578394 296.309468 216.778 266.608313 216.778 
C 236.907157 216.778 208.418484 228.578394 187.416596 249.580283 
C 166.414707 270.582172 154.614312 299.070844 154.614312 328.772 
C 154.614312 358.473156 166.414707 386.961828 187.416596 407.963717 
C 208.418484 428.965606 236.907157 440.766 266.608313 440.766 
L 266.608313 440.766 
z
" clip-path="url(#p5def5e9717)" style="fill: none; opacity: 0.15; stroke-dasharray: 1,1.65; stroke-dashoffset: 0; stroke: #808080; stroke-linejoin: miter"/>
   </g>
   <g id="patch_8">
    <path d="M 266.608313 463.1648 
C 302.2497 463.1648 336.436106 449.004327 361.638373 423.80206 
C 386.840639 398.599794 401.001113 364.413387 401.001113 328.772 
C 401.001113 293.130613 386.840639 258.944206 361.638373 233.74194 
C 336.436106 208.539673 302.2497 194.3792 266.608313 194.3792 
C 230.966925 194.3792 196.780519 208.539673 171.578252 233.74194 
C 146.375986 258.944206 132.215512 293.130613 132.215512 328.772 
C 132.215512 364.413387 146.375986 398.599794 171.578252 423.80206 
C 196.780519 449.004327 230.966925 463.1648 266.608313 463.1648 
L 266.608313 463.1648 
z
" clip-path="url(#p5def5e9717)" style="fill: none; opacity: 0.15; stroke-dasharray: 1,1.65; stroke-dashoffset: 0; stroke: #808080; stroke-linejoin: miter"/>
   </g>
   <g id="matplotlib.axis_1">
    <g id="xtick_1">
     <g id="line2d_1">
      <path d="M 87.417912 552.76 
L 87.417912 104.784 
" clip-path="url(#p5def5e9717)" style="fill: none; stroke: #b0b0b0; stroke-opacity: 0.3; stroke-width: 0.8; stroke-linecap: square"/>
     </g>
     <g id="line2d_2">
      <defs>
       <path id="mb0aca4e87d" d="M 0 0 
L 0 3.5 
" style="stroke: #000000; stroke-width: 0.8"/>
      </defs>
      <g>
       <use xlink:href="#mb0aca4e87d" x="87.417912" y="552.76" style="stroke: #000000; stroke-width: 0.8"/>
      </g>
     </g>
     <g id="text_1">
      <!-- −4 -->
      <g transform="translate(80.046819 567.358437) scale(0.1 -0.1)">
       <defs>
        <path id="DejaVuSans-2212" d="M 678 2272 
L 4684 2272 
L 4684 1741 
L 678 1741 
L 678 2272 
z
" transform="scale(0.015625)"/>
        <path id="DejaVuSans-34" d="M 2419 4116 
L 825 1625 
L 2419 1625 
L 2419 4116 
z
M 2253 4666 
L 3047 4666 
L 3047 1625 
L 3713 1625 
L 3713 1100 
L 3047 1100 
L 3047 0 
L 2419 0 
L 2419 1100 
L 313 1100 
L 313 1709 
L 2253 4666 
z
" transform="scale(0.015625)"/>
       </defs>
       <use xlink:href="#DejaVuSans-2212"/>
       <use xlink:href="#DejaVuSans-34" transform="translate(83.789062 0)"/>
      </g>
     </g>
    </g>
    <g id="xtick_2">
     <g id="line2d_3">
      <path d="M 177.013112 552.76 
L 177.013112 104.784 
" clip-path="url(#p5def5e9717)" style="fill: none; stroke: #b0b0b0; stroke-opacity: 0.3; stroke-width: 0.8; stroke-linecap: square"/>
     </g>
     <g id="line2d_4">
      <g>
       <use xlink:href="#mb0aca4e87d" x="177.013112" y="552.76" style="stroke: #000000; stroke-width: 0.8"/>
      </g>
     </g>
     <g id="text_2">
      <!-- −2 -->
      <g transform="translate(169.642019 567.358437) scale(0.1 -0.1)">
       <defs>
        <path id="DejaVuSans-32" d="M 1228 531 
L 3431 531 
L 3431 0 
L 469 0 
L 469 531 
Q 828 903 1448 1529 
Q 2069 2156 2228 2338 
Q 2531 2678 2651 2914 
Q 2772 3150 2772 3378 
Q 2772 3750 2511 3984 
Q 2250 4219 1831 4219 
Q 1534 4219 1204 4116 
Q 875 4013 500 3803 
L 500 4441 
Q 881 4594 1212 4672 
Q 1544 4750 1819 4750 
Q 2544 4750 2975 4387 
Q 3406 4025 3406 3419 
Q 3406 3131 3298 2873 
Q 3191 2616 2906 2266 
Q 2828 2175 2409 1742 
Q 1991 1309 1228 531 
z
" transform="scale(0.015625)"/>
       </defs>
       <use xlink:href="#DejaVuSans-2212"/>
       <use xlink:href="#DejaVuSans-32" transform="translate(83.789062 0)"/>
      </g>
     </g>
    </g>
    <g id="xtick_3">
     <g id="line2d_5">
      <path d="M 266.608313 552.76 
L 266.608313 104.784 
" clip-path="url(#p5def5e9717)" style="fill: none; stroke: #b0b0b0; stroke-opacity: 0.3; stroke-width: 0.8; stroke-linecap: square"/>
     </g>
     <g id="line2d_6">
      <g>
       <use xlink:href="#mb0aca4e87d" x="266.608313" y="552.76" style="stroke: #000000; stroke-width: 0.8"/>
      </g>
     </g>
     <g id="text_3">
      <!-- 0 -->
      <g transform="translate(263.427063 567.358437) scale(0.1 -0.1)">
       <defs>
        <path id="DejaVuSans-30" d="M 2034 4250 
Q 1547 4250 1301 3770 
Q 1056 3291 1056 2328 
Q 1056 1369 1301 889 
Q 1547 409 2034 409 
Q 2525 409 2770 889 
Q 3016 1369 3016 2328 
Q 3016 3291 2770 3770 
Q 2525 4250 2034 4250 
z
M 2034 4750 
Q 2819 4750 3233 4129 
Q 3647 3509 3647 2328 
Q 3647 1150 3233 529 
Q 2819 -91 2034 -91 
Q 1250 -91 836 529 
Q 422 1150 422 2328 
Q 422 3509 836 4129 
Q 1250 4750 2034 4750 
z
" transform="scale(0.015625)"/>
       </defs>
       <use xlink:href="#DejaVuSans-30"/>
      </g>
     </g>
    </g>
    <g id="xtick_4">
     <g id="line2d_7">
      <path d="M 356.203513 552.76 
L 356.203513 104.784 
" clip-path="url(#p5def5e9717)" style="fill: none; stroke: #b0b0b0; stroke-opacity: 0.3; stroke-width: 0.8; stroke-linecap: square"/>
     </g>
     <g id="line2d_8">
      <g>
       <use xlink:href="#mb0aca4e87d" x="356.203513" y="552.76" style="stroke: #000000; stroke-width: 0.8"/>
      </g>
     </g>
     <g id="text_4">
      <!-- 2 -->
      <g transform="translate(353.022263 567.358437) scale(0.1 -0.1)">
       <use xlink:href="#DejaVuSans-32"/>
      </g>
     </g>
    </g>
    <g id="xtick_5">
     <g id="line2d_9">
      <path d="M 445.798713 552.76 
L 445.798713 104.784 
" clip-path="url(#p5def5e9717)" style="fill: none; stroke: #b0b0b0; stroke-opacity: 0.3; stroke-width: 0.8; stroke-linecap: square"/>
     </g>
     <g id="line2d_10">
      <g>
       <use xlink:href="#mb0aca4e87d" x="445.798713" y="552.76" style="stroke: #000000; stroke-width: 0.8"/>
      </g>
     </g>
     <g id="text_5">
      <!-- 4 -->
      <g transform="translate(442.617463 567.358437) scale(0.1 -0.1)">
       <use xlink:href="#DejaVuSans-34"/>
      </g>
     </g>
    </g>
    <g id="text_6">
     <!-- X (drift * cos(angle)) -->
     <g transform="translate(215.5755 581.036562) scale(0.1 -0.1)">
      <defs>
       <path id="DejaVuSans-58" d="M 403 4666 
L 1081 4666 
L 2241 2931 
L 3406 4666 
L 4084 4666 
L 2584 2425 
L 4184 0 
L 3506 0 
L 2194 1984 
L 872 0 
L 191 0 
L 1856 2491 
L 403 4666 
z
" transform="scale(0.015625)"/>
       <path id="DejaVuSans-20" transform="scale(0.015625)"/>
       <path id="DejaVuSans-28" d="M 1984 4856 
Q 1566 4138 1362 3434 
Q 1159 2731 1159 2009 
Q 1159 1288 1364 580 
Q 1569 -128 1984 -844 
L 1484 -844 
Q 1016 -109 783 600 
Q 550 1309 550 2009 
Q 550 2706 781 3412 
Q 1013 4119 1484 4856 
L 1984 4856 
z
" transform="scale(0.015625)"/>
       <path id="DejaVuSans-64" d="M 2906 2969 
L 2906 4863 
L 3481 4863 
L 3481 0 
L 2906 0 
L 2906 525 
Q 2725 213 2448 61 
Q 2172 -91 1784 -91 
Q 1150 -91 751 415 
Q 353 922 353 1747 
Q 353 2572 751 3078 
Q 1150 3584 1784 3584 
Q 2172 3584 2448 3432 
Q 2725 3281 2906 2969 
z
M 947 1747 
Q 947 1113 1208 752 
Q 1469 391 1925 391 
Q 2381 391 2643 752 
Q 2906 1113 2906 1747 
Q 2906 2381 2643 2742 
Q 2381 3103 1925 3103 
Q 1469 3103 1208 2742 
Q 947 2381 947 1747 
z
" transform="scale(0.015625)"/>
       <path id="DejaVuSans-72" d="M 2631 2963 
Q 2534 3019 2420 3045 
Q 2306 3072 2169 3072 
Q 1681 3072 1420 2755 
Q 1159 2438 1159 1844 
L 1159 0 
L 581 0 
L 581 3500 
L 1159 3500 
L 1159 2956 
Q 1341 3275 1631 3429 
Q 1922 3584 2338 3584 
Q 2397 3584 2469 3576 
Q 2541 3569 2628 3553 
L 2631 2963 
z
" transform="scale(0.015625)"/>
       <path id="DejaVuSans-69" d="M 603 3500 
L 1178 3500 
L 1178 0 
L 603 0 
L 603 3500 
z
M 603 4863 
L 1178 4863 
L 1178 4134 
L 603 4134 
L 603 4863 
z
" transform="scale(0.015625)"/>
       <path id="DejaVuSans-66" d="M 2375 4863 
L 2375 4384 
L 1825 4384 
Q 1516 4384 1395 4259 
Q 1275 4134 1275 3809 
L 1275 3500 
L 2222 3500 
L 2222 3053 
L 1275 3053 
L 1275 0 
L 697 0 
L 697 3053 
L 147 3053 
L 147 3500 
L 697 3500 
L 697 3744 
Q 697 4328 969 4595 
Q 1241 4863 1831 4863 
L 2375 4863 
z
" transform="scale(0.015625)"/>
       <path id="DejaVuSans-74" d="M 1172 4494 
L 1172 3500 
L 2356 3500 
L 2356 3053 
L 1172 3053 
L 1172 1153 
Q 1172 725 1289 603 
Q 1406 481 1766 481 
L 2356 481 
L 2356 0 
L 1766 0 
Q 1100 0 847 248 
Q 594 497 594 1153 
L 594 3053 
L 172 3053 
L 172 3500 
L 594 3500 
L 594 4494 
L 1172 4494 
z
" transform="scale(0.015625)"/>
       <path id="DejaVuSans-2a" d="M 3009 3897 
L 1888 3291 
L 3009 2681 
L 2828 2375 
L 1778 3009 
L 1778 1831 
L 1422 1831 
L 1422 3009 
L 372 2375 
L 191 2681 
L 1313 3291 
L 191 3897 
L 372 4206 
L 1422 3572 
L 1422 4750 
L 1778 4750 
L 1778 3572 
L 2828 4206 
L 3009 3897 
z
" transform="scale(0.015625)"/>
       <path id="DejaVuSans-63" d="M 3122 3366 
L 3122 2828 
Q 2878 2963 2633 3030 
Q 2388 3097 2138 3097 
Q 1578 3097 1268 2742 
Q 959 2388 959 1747 
Q 959 1106 1268 751 
Q 1578 397 2138 397 
Q 2388 397 2633 464 
Q 2878 531 3122 666 
L 3122 134 
Q 2881 22 2623 -34 
Q 2366 -91 2075 -91 
Q 1284 -91 818 406 
Q 353 903 353 1747 
Q 353 2603 823 3093 
Q 1294 3584 2113 3584 
Q 2378 3584 2631 3529 
Q 2884 3475 3122 3366 
z
" transform="scale(0.015625)"/>
       <path id="DejaVuSans-6f" d="M 1959 3097 
Q 1497 3097 1228 2736 
Q 959 2375 959 1747 
Q 959 1119 1226 758 
Q 1494 397 1959 397 
Q 2419 397 2687 759 
Q 2956 1122 2956 1747 
Q 2956 2369 2687 2733 
Q 2419 3097 1959 3097 
z
M 1959 3584 
Q 2709 3584 3137 3096 
Q 3566 2609 3566 1747 
Q 3566 888 3137 398 
Q 2709 -91 1959 -91 
Q 1206 -91 779 398 
Q 353 888 353 1747 
Q 353 2609 779 3096 
Q 1206 3584 1959 3584 
z
" transform="scale(0.015625)"/>
       <path id="DejaVuSans-73" d="M 2834 3397 
L 2834 2853 
Q 2591 2978 2328 3040 
Q 2066 3103 1784 3103 
Q 1356 3103 1142 2972 
Q 928 2841 928 2578 
Q 928 2378 1081 2264 
Q 1234 2150 1697 2047 
L 1894 2003 
Q 2506 1872 2764 1633 
Q 3022 1394 3022 966 
Q 3022 478 2636 193 
Q 2250 -91 1575 -91 
Q 1294 -91 989 -36 
Q 684 19 347 128 
L 347 722 
Q 666 556 975 473 
Q 1284 391 1588 391 
Q 1994 391 2212 530 
Q 2431 669 2431 922 
Q 2431 1156 2273 1281 
Q 2116 1406 1581 1522 
L 1381 1569 
Q 847 1681 609 1914 
Q 372 2147 372 2553 
Q 372 3047 722 3315 
Q 1072 3584 1716 3584 
Q 2034 3584 2315 3537 
Q 2597 3491 2834 3397 
z
" transform="scale(0.015625)"/>
       <path id="DejaVuSans-61" d="M 2194 1759 
Q 1497 1759 1228 1600 
Q 959 1441 959 1056 
Q 959 750 1161 570 
Q 1363 391 1709 391 
Q 2188 391 2477 730 
Q 2766 1069 2766 1631 
L 2766 1759 
L 2194 1759 
z
M 3341 1997 
L 3341 0 
L 2766 0 
L 2766 531 
Q 2569 213 2275 61 
Q 1981 -91 1556 -91 
Q 1019 -91 701 211 
Q 384 513 384 1019 
Q 384 1609 779 1909 
Q 1175 2209 1959 2209 
L 2766 2209 
L 2766 2266 
Q 2766 2663 2505 2880 
Q 2244 3097 1772 3097 
Q 1472 3097 1187 3025 
Q 903 2953 641 2809 
L 641 3341 
Q 956 3463 1253 3523 
Q 1550 3584 1831 3584 
Q 2591 3584 2966 3190 
Q 3341 2797 3341 1997 
z
" transform="scale(0.015625)"/>
       <path id="DejaVuSans-6e" d="M 3513 2113 
L 3513 0 
L 2938 0 
L 2938 2094 
Q 2938 2591 2744 2837 
Q 2550 3084 2163 3084 
Q 1697 3084 1428 2787 
Q 1159 2491 1159 1978 
L 1159 0 
L 581 0 
L 581 3500 
L 1159 3500 
L 1159 2956 
Q 1366 3272 1645 3428 
Q 1925 3584 2291 3584 
Q 2894 3584 3203 3211 
Q 3513 2838 3513 2113 
z
" transform="scale(0.015625)"/>
       <path id="DejaVuSans-67" d="M 2906 1791 
Q 2906 2416 2648 2759 
Q 2391 3103 1925 3103 
Q 1463 3103 1205 2759 
Q 947 2416 947 1791 
Q 947 1169 1205 825 
Q 1463 481 1925 481 
Q 2391 481 2648 825 
Q 2906 1169 2906 1791 
z
M 3481 434 
Q 3481 -459 3084 -895 
Q 2688 -1331 1869 -1331 
Q 1566 -1331 1297 -1286 
Q 1028 -1241 775 -1147 
L 775 -588 
Q 1028 -725 1275 -790 
Q 1522 -856 1778 -856 
Q 2344 -856 2625 -561 
Q 2906 -266 2906 331 
L 2906 616 
Q 2728 306 2450 153 
Q 2172 0 1784 0 
Q 1141 0 747 490 
Q 353 981 353 1791 
Q 353 2603 747 3093 
Q 1141 3584 1784 3584 
Q 2172 3584 2450 3431 
Q 2728 3278 2906 2969 
L 2906 3500 
L 3481 3500 
L 3481 434 
z
" transform="scale(0.015625)"/>
       <path id="DejaVuSans-6c" d="M 603 4863 
L 1178 4863 
L 1178 0 
L 603 0 
L 603 4863 
z
" transform="scale(0.015625)"/>
       <path id="DejaVuSans-65" d="M 3597 1894 
L 3597 1613 
L 953 1613 
Q 991 1019 1311 708 
Q 1631 397 2203 397 
Q 2534 397 2845 478 
Q 3156 559 3463 722 
L 3463 178 
Q 3153 47 2828 -22 
Q 2503 -91 2169 -91 
Q 1331 -91 842 396 
Q 353 884 353 1716 
Q 353 2575 817 3079 
Q 1281 3584 2069 3584 
Q 2775 3584 3186 3129 
Q 3597 2675 3597 1894 
z
M 3022 2063 
Q 3016 2534 2758 2815 
Q 2500 3097 2075 3097 
Q 1594 3097 1305 2825 
Q 1016 2553 972 2059 
L 3022 2063 
z
" transform="scale(0.015625)"/>
       <path id="DejaVuSans-29" d="M 513 4856 
L 1013 4856 
Q 1481 4119 1714 3412 
Q 1947 2706 1947 2009 
Q 1947 1309 1714 600 
Q 1481 -109 1013 -844 
L 513 -844 
Q 928 -128 1133 580 
Q 1338 1288 1338 2009 
Q 1338 2731 1133 3434 
Q 928 4138 513 4856 
z
" transform="scale(0.015625)"/>
      </defs>
      <use xlink:href="#DejaVuSans-58"/>
      <use xlink:href="#DejaVuSans-20" transform="translate(68.505859 0)"/>
      <use xlink:href="#DejaVuSans-28" transform="translate(100.292969 0)"/>
      <use xlink:href="#DejaVuSans-64" transform="translate(139.306641 0)"/>
      <use xlink:href="#DejaVuSans-72" transform="translate(202.783203 0)"/>
      <use xlink:href="#DejaVuSans-69" transform="translate(243.896484 0)"/>
      <use xlink:href="#DejaVuSans-66" transform="translate(271.679688 0)"/>
      <use xlink:href="#DejaVuSans-74" transform="translate(305.134766 0)"/>
      <use xlink:href="#DejaVuSans-20" transform="translate(344.34375 0)"/>
      <use xlink:href="#DejaVuSans-2a" transform="translate(376.130859 0)"/>
      <use xlink:href="#DejaVuSans-20" transform="translate(426.130859 0)"/>
      <use xlink:href="#DejaVuSans-63" transform="translate(457.917969 0)"/>
      <use xlink:href="#DejaVuSans-6f" transform="translate(512.898438 0)"/>
      <use xlink:href="#DejaVuSans-73" transform="translate(574.080078 0)"/>
      <use xlink:href="#DejaVuSans-28" transform="translate(626.179688 0)"/>
      <use xlink:href="#DejaVuSans-61" transform="translate(665.193359 0)"/>
      <use xlink:href="#DejaVuSans-6e" transform="translate(726.472656 0)"/>
      <use xlink:href="#DejaVuSans-67" transform="translate(789.851562 0)"/>
      <use xlink:href="#DejaVuSans-6c" transform="translate(853.328125 0)"/>
      <use xlink:href="#DejaVuSans-65" transform="translate(881.111328 0)"/>
      <use xlink:href="#DejaVuSans-29" transform="translate(942.634766 0)"/>
      <use xlink:href="#DejaVuSans-29" transform="translate(981.648438 0)"/>
     </g>
    </g>
   </g>
   <g id="matplotlib.axis_2">
    <g id="ytick_1">
     <g id="line2d_11">
      <path d="M 42.620313 507.9624 
L 490.596313 507.9624 
" clip-path="url(#p5def5e9717)" style="fill: none; stroke: #b0b0b0; stroke-opacity: 0.3; stroke-width: 0.8; stroke-linecap: square"/>
     </g>
     <g id="line2d_12">
      <defs>
       <path id="m07fea3b41e" d="M 0 0 
L -3.5 0 
" style="stroke: #000000; stroke-width: 0.8"/>
      </defs>
      <g>
       <use xlink:href="#m07fea3b41e" x="42.620313" y="507.9624" style="stroke: #000000; stroke-width: 0.8"/>
      </g>
     </g>
     <g id="text_7">
      <!-- −4 -->
      <g transform="translate(20.878125 511.761619) scale(0.1 -0.1)">
       <use xlink:href="#DejaVuSans-2212"/>
       <use xlink:href="#DejaVuSans-34" transform="translate(83.789062 0)"/>
      </g>
     </g>
    </g>
    <g id="ytick_2">
     <g id="line2d_13">
      <path d="M 42.620313 418.3672 
L 490.596313 418.3672 
" clip-path="url(#p5def5e9717)" style="fill: none; stroke: #b0b0b0; stroke-opacity: 0.3; stroke-width: 0.8; stroke-linecap: square"/>
     </g>
     <g id="line2d_14">
      <g>
       <use xlink:href="#m07fea3b41e" x="42.620313" y="418.3672" style="stroke: #000000; stroke-width: 0.8"/>
      </g>
     </g>
     <g id="text_8">
      <!-- −2 -->
      <g transform="translate(20.878125 422.166419) scale(0.1 -0.1)">
       <use xlink:href="#DejaVuSans-2212"/>
       <use xlink:href="#DejaVuSans-32" transform="translate(83.789062 0)"/>
      </g>
     </g>
    </g>
    <g id="ytick_3">
     <g id="line2d_15">
      <path d="M 42.620313 328.772 
L 490.596313 328.772 
" clip-path="url(#p5def5e9717)" style="fill: none; stroke: #b0b0b0; stroke-opacity: 0.3; stroke-width: 0.8; stroke-linecap: square"/>
     </g>
     <g id="line2d_16">
      <g>
       <use xlink:href="#m07fea3b41e" x="42.620313" y="328.772" style="stroke: #000000; stroke-width: 0.8"/>
      </g>
     </g>
     <g id="text_9">
      <!-- 0 -->
      <g transform="translate(29.257813 332.571219) scale(0.1 -0.1)">
       <use xlink:href="#DejaVuSans-30"/>
      </g>
     </g>
    </g>
    <g id="ytick_4">
     <g id="line2d_17">
      <path d="M 42.620313 239.1768 
L 490.596313 239.1768 
" clip-path="url(#p5def5e9717)" style="fill: none; stroke: #b0b0b0; stroke-opacity: 0.3; stroke-width: 0.8; stroke-linecap: square"/>
     </g>
     <g id="line2d_18">
      <g>
       <use xlink:href="#m07fea3b41e" x="42.620313" y="239.1768" style="stroke: #000000; stroke-width: 0.8"/>
      </g>
     </g>
     <g id="text_10">
      <!-- 2 -->
      <g transform="translate(29.257813 242.976019) scale(0.1 -0.1)">
       <use xlink:href="#DejaVuSans-32"/>
      </g>
     </g>
    </g>
    <g id="ytick_5">
     <g id="line2d_19">
      <path d="M 42.620313 149.5816 
L 490.596313 149.5816 
" clip-path="url(#p5def5e9717)" style="fill: none; stroke: #b0b0b0; stroke-opacity: 0.3; stroke-width: 0.8; stroke-linecap: square"/>
     </g>
     <g id="line2d_20">
      <g>
       <use xlink:href="#m07fea3b41e" x="42.620313" y="149.5816" style="stroke: #000000; stroke-width: 0.8"/>
      </g>
     </g>
     <g id="text_11">
      <!-- 4 -->
      <g transform="translate(29.257813 153.380819) scale(0.1 -0.1)">
       <use xlink:href="#DejaVuSans-34"/>
      </g>
     </g>
    </g>
    <g id="text_12">
     <!-- Y (drift * sin(angle)) -->
     <g transform="translate(14.798438 378.182937) rotate(-90) scale(0.1 -0.1)">
      <defs>
       <path id="DejaVuSans-59" d="M -13 4666 
L 666 4666 
L 1959 2747 
L 3244 4666 
L 3922 4666 
L 2272 2222 
L 2272 0 
L 1638 0 
L 1638 2222 
L -13 4666 
z
" transform="scale(0.015625)"/>
      </defs>
      <use xlink:href="#DejaVuSans-59"/>
      <use xlink:href="#DejaVuSans-20" transform="translate(61.083984 0)"/>
      <use xlink:href="#DejaVuSans-28" transform="translate(92.871094 0)"/>
      <use xlink:href="#DejaVuSans-64" transform="translate(131.884766 0)"/>
      <use xlink:href="#DejaVuSans-72" transform="translate(195.361328 0)"/>
      <use xlink:href="#DejaVuSans-69" transform="translate(236.474609 0)"/>
      <use xlink:href="#DejaVuSans-66" transform="translate(264.257812 0)"/>
      <use xlink:href="#DejaVuSans-74" transform="translate(297.712891 0)"/>
      <use xlink:href="#DejaVuSans-20" transform="translate(336.921875 0)"/>
      <use xlink:href="#DejaVuSans-2a" transform="translate(368.708984 0)"/>
      <use xlink:href="#DejaVuSans-20" transform="translate(418.708984 0)"/>
      <use xlink:href="#DejaVuSans-73" transform="translate(450.496094 0)"/>
      <use xlink:href="#DejaVuSans-69" transform="translate(502.595703 0)"/>
      <use xlink:href="#DejaVuSans-6e" transform="translate(530.378906 0)"/>
      <use xlink:href="#DejaVuSans-28" transform="translate(593.757812 0)"/>
      <use xlink:href="#DejaVuSans-61" transform="translate(632.771484 0)"/>
      <use xlink:href="#DejaVuSans-6e" transform="translate(694.050781 0)"/>
      <use xlink:href="#DejaVuSans-67" transform="translate(757.429688 0)"/>
      <use xlink:href="#DejaVuSans-6c" transform="translate(820.90625 0)"/>
      <use xlink:href="#DejaVuSans-65" transform="translate(848.689453 0)"/>
      <use xlink:href="#DejaVuSans-29" transform="translate(910.212891 0)"/>
      <use xlink:href="#DejaVuSans-29" transform="translate(949.226562 0)"/>
     </g>
    </g>
   </g>
   <g id="line2d_21">
    <path d="M 406.82899 328.772 
L 414.509441 316.029 
L 415.955703 303.864936 
L 411.790263 292.358173 
L 402.635612 281.587077 
L 389.114238 271.630011 
L 371.848631 262.565342 
L 351.461278 254.471435 
L 328.57467 247.426653 
L 303.811295 241.509363 
L 277.793643 236.797929 
L 251.144201 233.370716 
L 224.48546 231.306089 
L 198.439909 230.682414 
L 173.630035 231.578055 
L 150.678329 234.071377 
L 130.207279 238.240745 
L 112.839375 244.164524 
L 99.197104 251.92108 
L 89.902958 261.588776 
L 85.576185 273.24458 
L 86.444254 286.796184 
L 91.973727 301.822528 
L 101.543746 317.86478 
L 114.53345 334.464107 
L 130.321979 351.161677 
L 148.288475 367.498659 
L 167.812078 383.01622 
L 188.271927 397.255528 
L 209.047164 409.757751 
L 229.521117 420.068473 
L 249.266818 427.933289 
L 268.120527 433.375329 
L 285.937893 436.438163 
L 302.574565 437.165362 
L 317.886191 435.600498 
L 331.728422 431.787141 
L 343.956905 425.768863 
L 354.42729 417.589235 
L 362.995226 407.291828 
L 369.521011 394.929167 
L 373.971866 380.759717 
L 376.421939 365.247878 
L 376.950025 348.867009 
L 375.634919 332.090464 
L 372.555417 315.391602 
L 367.790314 299.243778 
L 361.418405 284.120349 
L 353.518487 270.494671 
L 344.169354 258.840101 
L 333.458604 249.604 
L 321.593311 242.880813 
L 308.866661 238.510647 
L 295.573738 236.327991 
L 282.009628 236.167338 
L 268.469415 237.863178 
L 255.248184 241.250002 
L 242.641021 246.1623 
L 230.94301 252.434563 
L 220.449236 259.901282 
L 211.431395 268.396839 
L 203.957607 277.754657 
L 197.991172 287.80767 
L 193.494524 298.388806 
L 190.430098 309.330995 
L 188.760327 320.467164 
L 188.447646 331.630243 
L 189.454488 342.65316 
L 191.743288 353.368843 
L 195.27648 363.610222 
L 200.016498 373.210225 
L 205.925776 382.001781 
L 212.966747 389.817818 
L 221.101847 396.491266 
L 230.293509 401.855052 
L 240.504168 405.742105 
L 251.696257 407.985355 
L 263.83221 408.417729 
L 276.874462 406.872157 
L 290.785446 403.181566 
" clip-path="url(#p5def5e9717)" style="fill: none; stroke: #10a37f; stroke-opacity: 0.9; stroke-width: 2.5; stroke-linecap: square"/>
   </g>
   <g id="line2d_22">
    <path d="M 369.652582 328.772 
L 367.634769 324.951658 
L 365.370569 321.369178 
L 362.870616 318.020103 
L 360.145546 314.899974 
L 357.205993 312.004335 
L 354.062592 309.328728 
L 350.725979 306.868695 
L 347.206789 304.619781 
L 343.515656 302.577526 
L 339.663216 300.737474 
L 335.660104 299.095167 
L 331.516954 297.646148 
L 327.244403 296.38596 
L 322.853084 295.310145 
L 318.353633 294.414246 
L 313.756686 293.693805 
L 309.072876 293.144365 
L 304.312839 292.761468 
L 299.487211 292.540658 
L 294.606626 292.477477 
L 289.681719 292.567468 
L 284.723125 292.806172 
L 279.74148 293.189133 
L 274.747418 293.711894 
L 269.751575 294.369997 
L 264.764585 295.158984 
L 259.797083 296.074398 
L 254.859705 297.111782 
L 249.963086 298.266679 
L 245.11786 299.534631 
L 240.334664 300.91118 
L 235.624131 302.39187 
L 230.996896 303.972243 
L 226.463596 305.647841 
L 222.034864 307.414208 
L 217.721337 309.266885 
L 213.533649 311.201416 
L 209.482434 313.213343 
L 205.578329 315.298209 
L 201.831968 317.451555 
L 198.253986 319.668926 
L 194.855018 321.945864 
L 191.6457 324.27791 
L 188.636666 326.660608 
L 185.838552 329.089501 
L 183.261991 331.56013 
L 180.917621 334.06804 
L 178.816075 336.608771 
L 176.967988 339.177868 
L 175.383997 341.770872 
L 174.074734 344.383326 
L 173.050837 347.010773 
L 172.32294 349.648755 
L 171.901677 352.292815 
L 171.797684 354.938496 
L 172.021596 357.58134 
L 172.584048 360.216889 
L 173.495675 362.840688 
L 174.767113 365.448277 
L 176.408995 368.0352 
L 178.431957 370.597 
L 180.846635 373.129218 
L 183.663663 375.627398 
L 186.893677 378.087082 
L 190.54731 380.503813 
L 194.635199 382.873133 
L 199.167979 385.190586 
L 204.156284 387.451713 
L 209.61075 389.652057 
L 215.542011 391.787162 
L 221.960703 393.852569 
L 228.877461 395.843821 
L 236.302919 397.75646 
L 244.247713 399.586031 
L 252.722478 401.328074 
L 261.737849 402.978133 
L 271.304461 404.53175 
L 281.432949 405.984468 
L 292.133948 407.331829 
" clip-path="url(#p5def5e9717)" style="fill: none; stroke: #10a37f; stroke-opacity: 0.9; stroke-width: 2.5; stroke-linecap: square"/>
   </g>
   <g id="line2d_23">
    <path d="M 301.470258 328.772 
L 301.722074 326.854186 
L 301.525017 324.899661 
L 300.907527 322.923829 
L 299.898047 320.942096 
L 298.525019 318.969865 
L 296.816884 317.022541 
L 294.802083 315.11553 
L 292.50906 313.264235 
L 289.966254 311.484061 
L 287.202109 309.790413 
L 284.245066 308.198695 
L 281.123567 306.724312 
L 277.866052 305.382668 
L 274.500965 304.189169 
L 271.056747 303.159218 
L 267.56184 302.308221 
L 264.044685 301.651581 
L 260.533724 301.204704 
L 257.0574 300.982993 
L 253.644152 301.001855 
L 250.322425 301.276692 
L 247.120658 301.822911 
L 244.067294 302.655915 
L 241.190775 303.791108 
L 238.519542 305.243897 
L 236.082038 307.029684 
L 233.906703 309.163876 
L 232.02198 311.661875 
L 230.456311 314.539088 
L 229.238136 317.810918 
L 228.395899 321.49277 
L 227.957417 325.59903 
L 227.926302 330.104447 
L 228.274717 334.932288 
L 228.972723 340.002374 
L 229.990382 345.23453 
L 231.297756 350.54858 
L 232.864905 355.864347 
L 234.661892 361.101655 
L 236.658778 366.180327 
L 238.825625 371.020187 
L 241.132493 375.541059 
L 243.549445 379.662767 
L 246.046543 383.305133 
L 248.593847 386.387983 
L 251.161419 388.831138 
L 253.71932 390.554424 
L 256.238572 391.482227 
L 258.70454 391.607226 
L 261.113632 390.974667 
L 263.462542 389.631149 
L 265.747963 387.623273 
L 267.966588 384.997638 
L 270.115109 381.800844 
L 272.190221 378.079489 
L 274.188616 373.880174 
L 276.106987 369.249499 
L 277.942026 364.234061 
L 279.690428 358.880462 
L 281.348886 353.235301 
L 282.914091 347.345177 
L 284.382738 341.256689 
L 285.751519 335.016438 
L 287.017128 328.671023 
L 288.176257 322.267043 
L 289.225599 315.851098 
L 290.161848 309.469787 
L 290.981697 303.16971 
L 291.681838 296.997467 
L 292.258965 290.999656 
L 292.709771 285.222879 
L 293.030948 279.713733 
L 293.21919 274.518819 
L 293.271191 269.684736 
L 293.183642 265.258083 
L 292.953237 261.285461 
L 292.576669 257.813468 
L 292.050631 254.888705 
L 291.371817 252.557771 
" clip-path="url(#p5def5e9717)" style="fill: none; stroke: #10a37f; stroke-opacity: 0.9; stroke-width: 2.5; stroke-linecap: square"/>
   </g>
   <g id="line2d_24">
    <path d="M 313.712482 328.772 
L 313.345088 322.143351 
L 312.508129 316.018602 
L 311.232779 310.389458 
L 309.550209 305.247624 
L 307.491591 300.584804 
L 305.088098 296.392704 
L 302.3709 292.663028 
L 299.371171 289.387481 
L 296.120082 286.557767 
L 292.648805 284.165592 
L 288.988512 282.20266 
L 285.170375 280.660676 
L 281.225566 279.531345 
L 277.185257 278.806371 
L 273.080619 278.47746 
L 268.942826 278.536317 
L 264.803049 278.974645 
L 260.692459 279.78415 
L 256.642229 280.956536 
L 252.683531 282.483509 
L 248.847537 284.356773 
L 245.165419 286.568032 
L 241.668348 289.108993 
L 238.387497 291.971359 
L 235.354037 295.146835 
L 232.599141 298.627126 
L 230.153981 302.403937 
L 228.049728 306.468973 
L 226.317555 310.813938 
L 224.988633 315.430537 
L 224.094134 320.310475 
L 223.664518 325.444817 
L 223.702496 330.799732 
L 224.174741 336.309052 
L 225.045515 341.904446 
L 226.279082 347.517585 
L 227.839703 353.080139 
L 229.691643 358.523777 
L 231.799163 363.78017 
L 234.126528 368.780988 
L 236.637998 373.4579 
L 239.297838 377.742578 
L 242.07031 381.56669 
L 244.919677 384.861906 
L 247.810202 387.559898 
L 250.706148 389.592334 
L 253.571777 390.890886 
L 256.372473 391.391703 
L 259.090371 391.097984 
L 261.720508 390.064543 
L 264.258248 388.347518 
L 266.698959 386.003051 
L 269.038008 383.087281 
L 271.27076 379.656348 
L 273.392582 375.766392 
L 275.398841 371.473554 
L 277.284902 366.833974 
L 279.046133 361.903791 
L 280.6779 356.739146 
L 282.175569 351.396178 
L 283.534506 345.931029 
L 284.750079 340.399837 
L 285.817653 334.858744 
L 286.732595 329.363888 
L 287.490272 323.971411 
L 288.086049 318.737452 
L 288.515294 313.718151 
L 288.773373 308.969649 
L 288.855651 304.548085 
L 288.757497 300.5096 
L 288.474275 296.910334 
L 288.001353 293.806426 
L 287.334097 291.254018 
L 286.467873 289.309248 
L 285.398048 288.028257 
L 284.119988 287.467185 
L 282.62906 287.682173 
L 280.92063 288.729359 
L 278.990065 290.664885 
" clip-path="url(#p5def5e9717)" style="fill: none; stroke: #10a37f; stroke-opacity: 0.9; stroke-width: 2.5; stroke-linecap: square"/>
   </g>
   <g id="line2d_25">
    <path d="M 294.940802 328.772 
L 298.965584 324.377958 
L 300.632263 320.639573 
L 300.204235 317.51093 
L 297.944894 314.94611 
L 294.117637 312.899196 
L 288.985859 311.324271 
L 282.812955 310.175417 
L 275.862322 309.406717 
L 268.397355 308.972253 
L 260.68145 308.826108 
L 252.978002 308.922365 
L 245.550406 309.215105 
L 238.662059 309.658413 
L 232.576355 310.20637 
L 227.556691 310.813059 
L 223.866462 311.432563 
L 221.769064 312.018963 
L 221.520055 312.529101 
L 223.137294 313.003438 
L 226.363837 313.579112 
L 230.927433 314.398648 
L 236.55583 315.604569 
L 242.976775 317.3394 
L 249.918018 319.745663 
L 257.107306 322.965882 
L 264.272387 327.142582 
L 271.155531 332.390215 
L 277.66782 338.496913 
L 283.829245 345.040278 
L 289.661613 351.594404 
L 295.186733 357.733382 
L 300.426411 363.031306 
L 305.402455 367.062269 
L 310.136672 369.400364 
L 314.650869 369.619684 
L 318.929535 367.377018 
L 322.748336 362.791901 
L 325.81034 356.144735 
L 327.818544 347.716087 
L 328.475942 337.786521 
L 327.485532 326.636605 
L 324.550309 314.546902 
L 319.37327 301.797978 
L 311.657637 288.670447 
L 301.333501 275.4931 
L 288.983534 262.733307 
L 275.307029 250.883202 
L 261.00328 240.434922 
L 246.771579 231.880601 
L 233.311221 225.712375 
L 221.321499 222.422379 
L 211.501707 222.502749 
L 204.544106 226.437975 
L 200.719076 234.253821 
L 199.643075 245.265026 
L 200.876312 258.725166 
L 203.978996 273.887816 
L 208.511334 290.006553 
L 214.033534 306.334952 
L 220.105805 322.126588 
L 226.288356 336.635039 
L 232.157726 349.139275 
L 237.583654 359.374161 
L 242.689488 367.4689 
L 247.606936 373.565699 
L 252.467708 377.806762 
L 257.403513 380.334294 
L 262.546061 381.2905 
L 268.02706 380.817587 
L 273.97822 379.057758 
L 280.53125 376.15322 
L 287.81786 372.246178 
L 295.969758 367.478837 
L 305.118654 361.993401 
L 315.396257 355.932077 
L 326.934277 349.43707 
L 339.864422 342.650584 
L 354.318402 335.714826 
L 370.427926 328.772 
" clip-path="url(#p5def5e9717)" style="fill: none; stroke: #10a37f; stroke-opacity: 0.9; stroke-width: 2.5; stroke-linecap: square"/>
   </g>
   <g id="line2d_26">
    <path d="M 332.190681 328.772 
L 329.718165 326.272296 
L 327.245649 323.772591 
L 324.773132 321.272887 
L 322.300616 318.773183 
L 319.8281 316.273478 
L 317.355583 313.773774 
L 314.883067 311.27407 
L 312.410551 308.774366 
L 309.938035 306.274661 
L 307.465518 303.774957 
L 304.993002 301.275253 
L 302.520486 298.775548 
L 300.047969 296.275844 
L 297.575453 293.77614 
L 295.102937 291.276435 
L 292.63042 288.776731 
L 290.157904 286.277027 
L 287.685388 283.777322 
L 285.212872 281.277618 
L 282.740355 278.777914 
L 280.267839 276.27821 
L 277.795323 273.778505 
L 275.322806 271.278801 
L 272.85029 268.779097 
L 270.377774 266.279392 
L 267.905258 263.779688 
L 265.432741 261.279984 
L 262.960225 258.780279 
L 260.487709 256.280575 
L 258.015192 253.780871 
L 255.542676 251.281166 
L 253.07016 248.781462 
L 250.597643 246.281758 
L 248.125127 243.782054 
L 245.652611 241.282349 
L 243.180095 238.782645 
L 240.707578 236.282941 
L 238.235062 233.783236 
L 235.762546 231.283532 
L 233.525715 232.305541 
L 231.524569 236.849263 
L 229.523423 241.392985 
L 227.522278 245.936706 
L 225.521132 250.480428 
L 223.519986 255.02415 
L 221.518841 259.567872 
L 219.517695 264.111594 
L 217.516549 268.655316 
L 215.515404 273.199038 
L 213.514258 277.74276 
L 211.513112 282.286481 
L 209.511967 286.830203 
L 207.510821 291.373925 
L 205.509676 295.917647 
L 203.50853 300.461369 
L 201.507384 305.005091 
L 199.506239 309.548813 
L 197.505093 314.092534 
L 195.503947 318.636256 
L 193.502802 323.179978 
L 191.501656 327.7237 
L 189.50051 332.267422 
L 187.499365 336.811144 
L 185.498219 341.354866 
L 183.497073 345.898588 
L 181.495928 350.442309 
L 179.494782 354.986031 
L 177.493636 359.529753 
L 175.492491 364.073475 
L 173.491345 368.617197 
L 171.490199 373.160919 
L 169.489054 377.704641 
L 167.487908 382.248363 
L 165.486762 386.792084 
L 163.485617 391.335806 
L 161.484471 395.879528 
L 159.483325 400.42325 
L 157.48218 404.966972 
L 155.481034 409.510694 
" clip-path="url(#p5def5e9717)" style="fill: none; stroke: #10a37f; stroke-opacity: 0.9; stroke-width: 2.5; stroke-linecap: square"/>
   </g>
   <g id="line2d_27">
    <path d="M 321.709361 328.772 
L 321.598424 325.277276 
L 321.266062 321.796623 
L 320.713613 318.344058 
L 319.9433 314.933483 
L 318.958227 311.57863 
L 317.762359 308.293009 
L 316.360511 305.08985 
L 314.758329 301.98205 
L 312.962264 298.982124 
L 310.979548 296.102152 
L 308.818164 293.353729 
L 306.486816 290.747923 
L 303.994892 288.295227 
L 301.352425 286.005516 
L 298.570056 283.888011 
L 295.658988 281.951238 
L 292.630944 280.202996 
L 289.498115 278.650324 
L 286.273117 277.299474 
L 282.968936 276.155886 
L 279.598877 275.224164 
L 276.176509 274.508061 
L 272.715613 274.010459 
L 269.230126 273.733363 
L 265.734081 273.677888 
L 262.241557 273.844257 
L 258.766616 274.231801 
L 255.32325 274.838959 
L 251.925326 275.663287 
L 248.586525 276.701465 
L 245.320291 277.949312 
L 242.139777 279.401804 
L 239.057788 281.053093 
L 236.086736 282.896528 
L 233.238584 284.924689 
L 230.5248 287.129406 
L 227.956311 289.501804 
L 225.54346 292.032329 
L 223.295963 294.710792 
L 221.22287 297.526407 
L 219.332527 300.467837 
L 217.632548 303.523238 
L 216.129776 306.680307 
L 214.830264 309.926332 
L 213.739244 313.248241 
L 212.861109 316.632659 
L 212.199395 320.065957 
L 211.756766 323.534312 
L 211.535006 327.023758 
L 211.535006 330.520242 
L 211.756766 334.009688 
L 212.199395 337.478043 
L 212.861109 340.911341 
L 213.739244 344.295759 
L 214.830264 347.617668 
L 216.129776 350.863693 
L 217.632548 354.020762 
L 219.332527 357.076163 
L 221.22287 360.017593 
L 223.295963 362.833208 
L 225.54346 365.511671 
L 227.956311 368.042196 
L 230.5248 370.414594 
L 233.238584 372.619311 
L 236.086736 374.647472 
L 239.057789 376.490907 
L 242.139777 378.142196 
L 245.320291 379.594688 
L 248.586525 380.842535 
L 251.925326 381.880713 
L 255.32325 382.705041 
L 258.766616 383.312199 
L 262.241557 383.699743 
L 265.734081 383.866112 
L 269.230126 383.810637 
L 272.715613 383.533541 
L 276.176509 383.035939 
L 279.598877 382.319836 
L 282.968936 381.388114 
L 286.273117 380.244526 
L 289.498115 378.893676 
L 292.630944 377.341004 
L 295.658988 375.592762 
L 298.570056 373.655989 
L 301.352425 371.538484 
L 303.994892 369.248773 
L 306.486816 366.796077 
L 308.818164 364.190271 
L 310.979548 361.441848 
L 312.962264 358.561876 
L 314.758329 355.56195 
L 316.360511 352.45415 
L 317.762359 349.250991 
L 318.958227 345.96537 
L 319.9433 342.610517 
L 320.713613 339.199942 
L 321.266062 335.747377 
L 321.598424 332.266724 
L 321.709361 328.772 
" clip-path="url(#p5def5e9717)" style="fill: none; stroke-dasharray: 9.25,4; stroke-dashoffset: 0; stroke: #ff0000; stroke-opacity: 0.7; stroke-width: 2.5"/>
   </g>
   <g id="patch_9">
    <path d="M 42.620313 552.76 
L 42.620313 104.784 
" style="fill: none; stroke: #000000; stroke-width: 0.8; stroke-linejoin: miter; stroke-linecap: square"/>
   </g>
   <g id="patch_10">
    <path d="M 490.596313 552.76 
L 490.596313 104.784 
" style="fill: none; stroke: #000000; stroke-width: 0.8; stroke-linejoin: miter; stroke-linecap: square"/>
   </g>
   <g id="patch_11">
    <path d="M 42.620312 552.76 
L 490.596313 552.76 
" style="fill: none; stroke: #000000; stroke-width: 0.8; stroke-linejoin: miter; stroke-linecap: square"/>
   </g>
   <g id="patch_12">
    <path d="M 42.620312 104.784 
L 490.596313 104.784 
" style="fill: none; stroke: #000000; stroke-width: 0.8; stroke-linejoin: miter; stroke-linecap: square"/>
   </g>
   <g id="text_13">
    <!-- gpt-4 -->
    <g transform="translate(249.996594 86.380469) scale(0.11 -0.11)">
     <defs>
      <path id="DejaVuSans-Bold-67" d="M 2919 594 
Q 2688 288 2409 144 
Q 2131 0 1766 0 
Q 1125 0 706 504 
Q 288 1009 288 1791 
Q 288 2575 706 3076 
Q 1125 3578 1766 3578 
Q 2131 3578 2409 3434 
Q 2688 3291 2919 2981 
L 2919 3500 
L 4044 3500 
L 4044 353 
Q 4044 -491 3511 -936 
Q 2978 -1381 1966 -1381 
Q 1638 -1381 1331 -1331 
Q 1025 -1281 716 -1178 
L 716 -306 
Q 1009 -475 1290 -558 
Q 1572 -641 1856 -641 
Q 2406 -641 2662 -400 
Q 2919 -159 2919 353 
L 2919 594 
z
M 2181 2772 
Q 1834 2772 1640 2515 
Q 1447 2259 1447 1791 
Q 1447 1309 1634 1061 
Q 1822 813 2181 813 
Q 2531 813 2725 1069 
Q 2919 1325 2919 1791 
Q 2919 2259 2725 2515 
Q 2531 2772 2181 2772 
z
" transform="scale(0.015625)"/>
      <path id="DejaVuSans-Bold-70" d="M 1656 506 
L 1656 -1331 
L 538 -1331 
L 538 3500 
L 1656 3500 
L 1656 2988 
Q 1888 3294 2169 3439 
Q 2450 3584 2816 3584 
Q 3463 3584 3878 3070 
Q 4294 2556 4294 1747 
Q 4294 938 3878 423 
Q 3463 -91 2816 -91 
Q 2450 -91 2169 54 
Q 1888 200 1656 506 
z
M 2400 2772 
Q 2041 2772 1848 2508 
Q 1656 2244 1656 1747 
Q 1656 1250 1848 986 
Q 2041 722 2400 722 
Q 2759 722 2948 984 
Q 3138 1247 3138 1747 
Q 3138 2247 2948 2509 
Q 2759 2772 2400 2772 
z
" transform="scale(0.015625)"/>
      <path id="DejaVuSans-Bold-74" d="M 1759 4494 
L 1759 3500 
L 2913 3500 
L 2913 2700 
L 1759 2700 
L 1759 1216 
Q 1759 972 1856 886 
Q 1953 800 2241 800 
L 2816 800 
L 2816 0 
L 1856 0 
Q 1194 0 917 276 
Q 641 553 641 1216 
L 641 2700 
L 84 2700 
L 84 3500 
L 641 3500 
L 641 4494 
L 1759 4494 
z
" transform="scale(0.015625)"/>
      <path id="DejaVuSans-Bold-2d" d="M 347 2297 
L 2309 2297 
L 2309 1388 
L 347 1388 
L 347 2297 
z
" transform="scale(0.015625)"/>
      <path id="DejaVuSans-Bold-34" d="M 2356 3675 
L 1038 1722 
L 2356 1722 
L 2356 3675 
z
M 2156 4666 
L 3494 4666 
L 3494 1722 
L 4159 1722 
L 4159 850 
L 3494 850 
L 3494 0 
L 2356 0 
L 2356 850 
L 288 850 
L 288 1881 
L 2156 4666 
z
" transform="scale(0.015625)"/>
     </defs>
     <use xlink:href="#DejaVuSans-Bold-67"/>
     <use xlink:href="#DejaVuSans-Bold-70" transform="translate(71.582031 0)"/>
     <use xlink:href="#DejaVuSans-Bold-74" transform="translate(143.164062 0)"/>
     <use xlink:href="#DejaVuSans-Bold-2d" transform="translate(190.966797 0)"/>
     <use xlink:href="#DejaVuSans-Bold-34" transform="translate(232.470703 0)"/>
    </g>
    <!-- (n=6, S: 0, V: 6) -->
    <g transform="translate(217.371281 98.784) scale(0.11 -0.11)">
     <defs>
      <path id="DejaVuSans-Bold-28" d="M 2413 -844 
L 1484 -844 
Q 1006 -72 778 623 
Q 550 1319 550 2003 
Q 550 2688 779 3389 
Q 1009 4091 1484 4856 
L 2413 4856 
Q 2013 4116 1813 3408 
Q 1613 2700 1613 2009 
Q 1613 1319 1811 609 
Q 2009 -100 2413 -844 
z
" transform="scale(0.015625)"/>
      <path id="DejaVuSans-Bold-6e" d="M 4056 2131 
L 4056 0 
L 2931 0 
L 2931 347 
L 2931 1631 
Q 2931 2084 2911 2256 
Q 2891 2428 2841 2509 
Q 2775 2619 2662 2680 
Q 2550 2741 2406 2741 
Q 2056 2741 1856 2470 
Q 1656 2200 1656 1722 
L 1656 0 
L 538 0 
L 538 3500 
L 1656 3500 
L 1656 2988 
Q 1909 3294 2193 3439 
Q 2478 3584 2822 3584 
Q 3428 3584 3742 3212 
Q 4056 2841 4056 2131 
z
" transform="scale(0.015625)"/>
      <path id="DejaVuSans-Bold-3d" d="M 678 3084 
L 4684 3084 
L 4684 2350 
L 678 2350 
L 678 3084 
z
M 678 1663 
L 4684 1663 
L 4684 922 
L 678 922 
L 678 1663 
z
" transform="scale(0.015625)"/>
      <path id="DejaVuSans-Bold-36" d="M 2316 2303 
Q 2000 2303 1842 2098 
Q 1684 1894 1684 1484 
Q 1684 1075 1842 870 
Q 2000 666 2316 666 
Q 2634 666 2792 870 
Q 2950 1075 2950 1484 
Q 2950 1894 2792 2098 
Q 2634 2303 2316 2303 
z
M 3803 4544 
L 3803 3681 
Q 3506 3822 3243 3889 
Q 2981 3956 2731 3956 
Q 2194 3956 1894 3657 
Q 1594 3359 1544 2772 
Q 1750 2925 1990 3001 
Q 2231 3078 2516 3078 
Q 3231 3078 3670 2659 
Q 4109 2241 4109 1563 
Q 4109 813 3618 361 
Q 3128 -91 2303 -91 
Q 1394 -91 895 523 
Q 397 1138 397 2266 
Q 397 3422 980 4083 
Q 1563 4744 2578 4744 
Q 2900 4744 3203 4694 
Q 3506 4644 3803 4544 
z
" transform="scale(0.015625)"/>
      <path id="DejaVuSans-Bold-2c" d="M 653 1209 
L 1778 1209 
L 1778 256 
L 1006 -909 
L 341 -909 
L 653 256 
L 653 1209 
z
" transform="scale(0.015625)"/>
      <path id="DejaVuSans-Bold-20" transform="scale(0.015625)"/>
      <path id="DejaVuSans-Bold-53" d="M 3834 4519 
L 3834 3531 
Q 3450 3703 3084 3790 
Q 2719 3878 2394 3878 
Q 1963 3878 1756 3759 
Q 1550 3641 1550 3391 
Q 1550 3203 1689 3098 
Q 1828 2994 2194 2919 
L 2706 2816 
Q 3484 2659 3812 2340 
Q 4141 2022 4141 1434 
Q 4141 663 3683 286 
Q 3225 -91 2284 -91 
Q 1841 -91 1394 -6 
Q 947 78 500 244 
L 500 1259 
Q 947 1022 1364 901 
Q 1781 781 2169 781 
Q 2563 781 2772 912 
Q 2981 1044 2981 1288 
Q 2981 1506 2839 1625 
Q 2697 1744 2272 1838 
L 1806 1941 
Q 1106 2091 782 2419 
Q 459 2747 459 3303 
Q 459 4000 909 4375 
Q 1359 4750 2203 4750 
Q 2588 4750 2994 4692 
Q 3400 4634 3834 4519 
z
" transform="scale(0.015625)"/>
      <path id="DejaVuSans-Bold-3a" d="M 716 3500 
L 1844 3500 
L 1844 2291 
L 716 2291 
L 716 3500 
z
M 716 1209 
L 1844 1209 
L 1844 0 
L 716 0 
L 716 1209 
z
" transform="scale(0.015625)"/>
      <path id="DejaVuSans-Bold-30" d="M 2944 2338 
Q 2944 3213 2780 3570 
Q 2616 3928 2228 3928 
Q 1841 3928 1675 3570 
Q 1509 3213 1509 2338 
Q 1509 1453 1675 1090 
Q 1841 728 2228 728 
Q 2613 728 2778 1090 
Q 2944 1453 2944 2338 
z
M 4147 2328 
Q 4147 1169 3647 539 
Q 3147 -91 2228 -91 
Q 1306 -91 806 539 
Q 306 1169 306 2328 
Q 306 3491 806 4120 
Q 1306 4750 2228 4750 
Q 3147 4750 3647 4120 
Q 4147 3491 4147 2328 
z
" transform="scale(0.015625)"/>
      <path id="DejaVuSans-Bold-56" d="M 31 4666 
L 1241 4666 
L 2478 1222 
L 3713 4666 
L 4922 4666 
L 3194 0 
L 1759 0 
L 31 4666 
z
" transform="scale(0.015625)"/>
      <path id="DejaVuSans-Bold-29" d="M 513 -844 
Q 913 -100 1113 609 
Q 1313 1319 1313 2009 
Q 1313 2700 1113 3408 
Q 913 4116 513 4856 
L 1441 4856 
Q 1916 4091 2145 3389 
Q 2375 2688 2375 2003 
Q 2375 1319 2147 623 
Q 1919 -72 1441 -844 
L 513 -844 
z
" transform="scale(0.015625)"/>
     </defs>
     <use xlink:href="#DejaVuSans-Bold-28"/>
     <use xlink:href="#DejaVuSans-Bold-6e" transform="translate(45.703125 0)"/>
     <use xlink:href="#DejaVuSans-Bold-3d" transform="translate(116.894531 0)"/>
     <use xlink:href="#DejaVuSans-Bold-36" transform="translate(200.683594 0)"/>
     <use xlink:href="#DejaVuSans-Bold-2c" transform="translate(270.263672 0)"/>
     <use xlink:href="#DejaVuSans-Bold-20" transform="translate(308.251953 0)"/>
     <use xlink:href="#DejaVuSans-Bold-53" transform="translate(343.066406 0)"/>
     <use xlink:href="#DejaVuSans-Bold-3a" transform="translate(415.087891 0)"/>
     <use xlink:href="#DejaVuSans-Bold-20" transform="translate(455.078125 0)"/>
     <use xlink:href="#DejaVuSans-Bold-30" transform="translate(489.892578 0)"/>
     <use xlink:href="#DejaVuSans-Bold-2c" transform="translate(559.472656 0)"/>
     <use xlink:href="#DejaVuSans-Bold-20" transform="translate(597.460938 0)"/>
     <use xlink:href="#DejaVuSans-Bold-56" transform="translate(632.275391 0)"/>
     <use xlink:href="#DejaVuSans-Bold-3a" transform="translate(705.167969 0)"/>
     <use xlink:href="#DejaVuSans-Bold-20" transform="translate(745.158203 0)"/>
     <use xlink:href="#DejaVuSans-Bold-36" transform="translate(779.972656 0)"/>
     <use xlink:href="#DejaVuSans-Bold-29" transform="translate(849.552734 0)"/>
    </g>
   </g>
   <g id="PathCollection_7">
    <defs>
     <path id="mde456c5a1e" d="M 0 5 
L 5 0 
L 0 -5 
L -5 0 
z
" style="stroke: #006400; stroke-opacity: 0.9; stroke-width: 1.5"/>
    </defs>
    <g clip-path="url(#p5def5e9717)">
     <use xlink:href="#mde456c5a1e" x="406.82899" y="328.772" style="fill: #00ff00; fill-opacity: 0.9; stroke: #006400; stroke-opacity: 0.9; stroke-width: 1.5"/>
    </g>
   </g>
   <g id="PathCollection_8">
    <defs>
     <path id="mf82de12c87" d="M -1.936492 3.872983 
L 0 1.936492 
L 1.936492 3.872983 
L 3.872983 1.936492 
L 1.936492 0 
L 3.872983 -1.936492 
L 1.936492 -3.872983 
L 0 -1.936492 
L -1.936492 -3.872983 
L -3.872983 -1.936492 
L -1.936492 0 
L -3.872983 1.936492 
z
" style="stroke: #000000; stroke-opacity: 0.9; stroke-width: 1.5"/>
    </defs>
    <g clip-path="url(#p5def5e9717)">
     <use xlink:href="#mf82de12c87" x="290.785446" y="403.181566" style="fill: #ff0000; fill-opacity: 0.9; stroke: #000000; stroke-opacity: 0.9; stroke-width: 1.5"/>
    </g>
   </g>
   <g id="PathCollection_9">
    <g clip-path="url(#p5def5e9717)">
     <use xlink:href="#mde456c5a1e" x="369.652582" y="328.772" style="fill: #00ff00; fill-opacity: 0.9; stroke: #006400; stroke-opacity: 0.9; stroke-width: 1.5"/>
    </g>
   </g>
   <g id="PathCollection_10">
    <g clip-path="url(#p5def5e9717)">
     <use xlink:href="#mf82de12c87" x="292.133948" y="407.331829" style="fill: #ff0000; fill-opacity: 0.9; stroke: #000000; stroke-opacity: 0.9; stroke-width: 1.5"/>
    </g>
   </g>
   <g id="PathCollection_11">
    <g clip-path="url(#p5def5e9717)">
     <use xlink:href="#mde456c5a1e" x="301.470258" y="328.772" style="fill: #00ff00; fill-opacity: 0.9; stroke: #006400; stroke-opacity: 0.9; stroke-width: 1.5"/>
    </g>
   </g>
   <g id="PathCollection_12">
    <g clip-path="url(#p5def5e9717)">
     <use xlink:href="#mf82de12c87" x="291.371817" y="252.557771" style="fill: #ff0000; fill-opacity: 0.9; stroke: #000000; stroke-opacity: 0.9; stroke-width: 1.5"/>
    </g>
   </g>
   <g id="PathCollection_13">
    <g clip-path="url(#p5def5e9717)">
     <use xlink:href="#mde456c5a1e" x="313.712482" y="328.772" style="fill: #00ff00; fill-opacity: 0.9; stroke: #006400; stroke-opacity: 0.9; stroke-width: 1.5"/>
    </g>
   </g>
   <g id="PathCollection_14">
    <g clip-path="url(#p5def5e9717)">
     <use xlink:href="#mf82de12c87" x="278.990065" y="290.664885" style="fill: #ff0000; fill-opacity: 0.9; stroke: #000000; stroke-opacity: 0.9; stroke-width: 1.5"/>
    </g>
   </g>
   <g id="PathCollection_15">
    <g clip-path="url(#p5def5e9717)">
     <use xlink:href="#mde456c5a1e" x="294.940802" y="328.772" style="fill: #00ff00; fill-opacity: 0.9; stroke: #006400; stroke-opacity: 0.9; stroke-width: 1.5"/>
    </g>
   </g>
   <g id="PathCollection_16">
    <g clip-path="url(#p5def5e9717)">
     <use xlink:href="#mf82de12c87" x="370.427926" y="328.772" style="fill: #ff0000; fill-opacity: 0.9; stroke: #000000; stroke-opacity: 0.9; stroke-width: 1.5"/>
    </g>
   </g>
   <g id="PathCollection_17">
    <g clip-path="url(#p5def5e9717)">
     <use xlink:href="#mde456c5a1e" x="332.190681" y="328.772" style="fill: #00ff00; fill-opacity: 0.9; stroke: #006400; stroke-opacity: 0.9; stroke-width: 1.5"/>
    </g>
   </g>
   <g id="PathCollection_18">
    <g clip-path="url(#p5def5e9717)">
     <use xlink:href="#mf82de12c87" x="155.481034" y="409.510694" style="fill: #ff0000; fill-opacity: 0.9; stroke: #000000; stroke-opacity: 0.9; stroke-width: 1.5"/>
    </g>
   </g>
   <g id="PathCollection_19">
    <defs>
     <path id="macbe555d47" d="M 0 -10 
L -2.24514 -3.09017 
L -9.510565 -3.09017 
L -3.632713 1.18034 
L -5.877853 8.09017 
L -0 3.81966 
L 5.877853 8.09017 
L 3.632713 1.18034 
L 9.510565 -3.09017 
L 2.24514 -3.09017 
z
" style="stroke: #ffd700"/>
    </defs>
    <g clip-path="url(#p5def5e9717)">
     <use xlink:href="#macbe555d47" x="266.608313" y="328.772" style="fill: #ffd700; stroke: #ffd700"/>
    </g>
   </g>
  </g>
  <g id="text_14">
   <!-- Run 008: OpenAI Identity Field by Model -->
   <g style="fill: #10a37f" transform="translate(43.804719 20.877187) scale(0.18 -0.18)">
    <defs>
     <path id="DejaVuSans-Bold-52" d="M 2297 2597 
Q 2675 2597 2839 2737 
Q 3003 2878 3003 3200 
Q 3003 3519 2839 3656 
Q 2675 3794 2297 3794 
L 1791 3794 
L 1791 2597 
L 2297 2597 
z
M 1791 1766 
L 1791 0 
L 588 0 
L 588 4666 
L 2425 4666 
Q 3347 4666 3776 4356 
Q 4206 4047 4206 3378 
Q 4206 2916 3982 2619 
Q 3759 2322 3309 2181 
Q 3556 2125 3751 1926 
Q 3947 1728 4147 1325 
L 4800 0 
L 3519 0 
L 2950 1159 
Q 2778 1509 2601 1637 
Q 2425 1766 2131 1766 
L 1791 1766 
z
" transform="scale(0.015625)"/>
     <path id="DejaVuSans-Bold-75" d="M 500 1363 
L 500 3500 
L 1625 3500 
L 1625 3150 
Q 1625 2866 1622 2436 
Q 1619 2006 1619 1863 
Q 1619 1441 1641 1255 
Q 1663 1069 1716 984 
Q 1784 875 1895 815 
Q 2006 756 2150 756 
Q 2500 756 2700 1025 
Q 2900 1294 2900 1772 
L 2900 3500 
L 4019 3500 
L 4019 0 
L 2900 0 
L 2900 506 
Q 2647 200 2364 54 
Q 2081 -91 1741 -91 
Q 1134 -91 817 281 
Q 500 653 500 1363 
z
" transform="scale(0.015625)"/>
     <path id="DejaVuSans-Bold-38" d="M 2228 2088 
Q 1891 2088 1709 1903 
Q 1528 1719 1528 1375 
Q 1528 1031 1709 848 
Q 1891 666 2228 666 
Q 2563 666 2741 848 
Q 2919 1031 2919 1375 
Q 2919 1722 2741 1905 
Q 2563 2088 2228 2088 
z
M 1350 2484 
Q 925 2613 709 2878 
Q 494 3144 494 3541 
Q 494 4131 934 4440 
Q 1375 4750 2228 4750 
Q 3075 4750 3515 4442 
Q 3956 4134 3956 3541 
Q 3956 3144 3739 2878 
Q 3522 2613 3097 2484 
Q 3572 2353 3814 2058 
Q 4056 1763 4056 1313 
Q 4056 619 3595 264 
Q 3134 -91 2228 -91 
Q 1319 -91 855 264 
Q 391 619 391 1313 
Q 391 1763 633 2058 
Q 875 2353 1350 2484 
z
M 1631 3419 
Q 1631 3141 1786 2991 
Q 1941 2841 2228 2841 
Q 2509 2841 2662 2991 
Q 2816 3141 2816 3419 
Q 2816 3697 2662 3845 
Q 2509 3994 2228 3994 
Q 1941 3994 1786 3844 
Q 1631 3694 1631 3419 
z
" transform="scale(0.015625)"/>
     <path id="DejaVuSans-Bold-4f" d="M 2719 3878 
Q 2169 3878 1866 3472 
Q 1563 3066 1563 2328 
Q 1563 1594 1866 1187 
Q 2169 781 2719 781 
Q 3272 781 3575 1187 
Q 3878 1594 3878 2328 
Q 3878 3066 3575 3472 
Q 3272 3878 2719 3878 
z
M 2719 4750 
Q 3844 4750 4481 4106 
Q 5119 3463 5119 2328 
Q 5119 1197 4481 553 
Q 3844 -91 2719 -91 
Q 1597 -91 958 553 
Q 319 1197 319 2328 
Q 319 3463 958 4106 
Q 1597 4750 2719 4750 
z
" transform="scale(0.015625)"/>
     <path id="DejaVuSans-Bold-65" d="M 4031 1759 
L 4031 1441 
L 1416 1441 
Q 1456 1047 1700 850 
Q 1944 653 2381 653 
Q 2734 653 3104 758 
Q 3475 863 3866 1075 
L 3866 213 
Q 3469 63 3072 -14 
Q 2675 -91 2278 -91 
Q 1328 -91 801 392 
Q 275 875 275 1747 
Q 275 2603 792 3093 
Q 1309 3584 2216 3584 
Q 3041 3584 3536 3087 
Q 4031 2591 4031 1759 
z
M 2881 2131 
Q 2881 2450 2695 2645 
Q 2509 2841 2209 2841 
Q 1884 2841 1681 2658 
Q 1478 2475 1428 2131 
L 2881 2131 
z
" transform="scale(0.015625)"/>
     <path id="DejaVuSans-Bold-41" d="M 3419 850 
L 1538 850 
L 1241 0 
L 31 0 
L 1759 4666 
L 3194 4666 
L 4922 0 
L 3713 0 
L 3419 850 
z
M 1838 1716 
L 3116 1716 
L 2478 3572 
L 1838 1716 
z
" transform="scale(0.015625)"/>
     <path id="DejaVuSans-Bold-49" d="M 588 4666 
L 1791 4666 
L 1791 0 
L 588 0 
L 588 4666 
z
" transform="scale(0.015625)"/>
     <path id="DejaVuSans-Bold-64" d="M 2919 2988 
L 2919 4863 
L 4044 4863 
L 4044 0 
L 2919 0 
L 2919 506 
Q 2688 197 2409 53 
Q 2131 -91 1766 -91 
Q 1119 -91 703 423 
Q 288 938 288 1747 
Q 288 2556 703 3070 
Q 1119 3584 1766 3584 
Q 2128 3584 2408 3439 
Q 2688 3294 2919 2988 
z
M 2181 722 
Q 2541 722 2730 984 
Q 2919 1247 2919 1747 
Q 2919 2247 2730 2509 
Q 2541 2772 2181 2772 
Q 1825 2772 1636 2509 
Q 1447 2247 1447 1747 
Q 1447 1247 1636 984 
Q 1825 722 2181 722 
z
" transform="scale(0.015625)"/>
     <path id="DejaVuSans-Bold-69" d="M 538 3500 
L 1656 3500 
L 1656 0 
L 538 0 
L 538 3500 
z
M 538 4863 
L 1656 4863 
L 1656 3950 
L 538 3950 
L 538 4863 
z
" transform="scale(0.015625)"/>
     <path id="DejaVuSans-Bold-79" d="M 78 3500 
L 1197 3500 
L 2138 1125 
L 2938 3500 
L 4056 3500 
L 2584 -331 
Q 2363 -916 2067 -1148 
Q 1772 -1381 1288 -1381 
L 641 -1381 
L 641 -647 
L 991 -647 
Q 1275 -647 1404 -556 
Q 1534 -466 1606 -231 
L 1638 -134 
L 78 3500 
z
" transform="scale(0.015625)"/>
     <path id="DejaVuSans-Bold-46" d="M 588 4666 
L 3834 4666 
L 3834 3756 
L 1791 3756 
L 1791 2888 
L 3713 2888 
L 3713 1978 
L 1791 1978 
L 1791 0 
L 588 0 
L 588 4666 
z
" transform="scale(0.015625)"/>
     <path id="DejaVuSans-Bold-6c" d="M 538 4863 
L 1656 4863 
L 1656 0 
L 538 0 
L 538 4863 
z
" transform="scale(0.015625)"/>
     <path id="DejaVuSans-Bold-62" d="M 2400 722 
Q 2759 722 2948 984 
Q 3138 1247 3138 1747 
Q 3138 2247 2948 2509 
Q 2759 2772 2400 2772 
Q 2041 2772 1848 2508 
Q 1656 2244 1656 1747 
Q 1656 1250 1848 986 
Q 2041 722 2400 722 
z
M 1656 2988 
Q 1888 3294 2169 3439 
Q 2450 3584 2816 3584 
Q 3463 3584 3878 3070 
Q 4294 2556 4294 1747 
Q 4294 938 3878 423 
Q 3463 -91 2816 -91 
Q 2450 -91 2169 54 
Q 1888 200 1656 506 
L 1656 0 
L 538 0 
L 538 4863 
L 1656 4863 
L 1656 2988 
z
" transform="scale(0.015625)"/>
     <path id="DejaVuSans-Bold-4d" d="M 588 4666 
L 2119 4666 
L 3181 2169 
L 4250 4666 
L 5778 4666 
L 5778 0 
L 4641 0 
L 4641 3413 
L 3566 897 
L 2803 897 
L 1728 3413 
L 1728 0 
L 588 0 
L 588 4666 
z
" transform="scale(0.015625)"/>
     <path id="DejaVuSans-Bold-6f" d="M 2203 2784 
Q 1831 2784 1636 2517 
Q 1441 2250 1441 1747 
Q 1441 1244 1636 976 
Q 1831 709 2203 709 
Q 2569 709 2762 976 
Q 2956 1244 2956 1747 
Q 2956 2250 2762 2517 
Q 2569 2784 2203 2784 
z
M 2203 3584 
Q 3106 3584 3614 3096 
Q 4122 2609 4122 1747 
Q 4122 884 3614 396 
Q 3106 -91 2203 -91 
Q 1297 -91 786 396 
Q 275 884 275 1747 
Q 275 2609 786 3096 
Q 1297 3584 2203 3584 
z
" transform="scale(0.015625)"/>
    </defs>
    <use xlink:href="#DejaVuSans-Bold-52"/>
    <use xlink:href="#DejaVuSans-Bold-75" transform="translate(77.001953 0)"/>
    <use xlink:href="#DejaVuSans-Bold-6e" transform="translate(148.193359 0)"/>
    <use xlink:href="#DejaVuSans-Bold-20" transform="translate(219.384766 0)"/>
    <use xlink:href="#DejaVuSans-Bold-30" transform="translate(254.199219 0)"/>
    <use xlink:href="#DejaVuSans-Bold-30" transform="translate(323.779297 0)"/>
    <use xlink:href="#DejaVuSans-Bold-38" transform="translate(393.359375 0)"/>
    <use xlink:href="#DejaVuSans-Bold-3a" transform="translate(462.939453 0)"/>
    <use xlink:href="#DejaVuSans-Bold-20" transform="translate(502.929688 0)"/>
    <use xlink:href="#DejaVuSans-Bold-4f" transform="translate(537.744141 0)"/>
    <use xlink:href="#DejaVuSans-Bold-70" transform="translate(622.753906 0)"/>
    <use xlink:href="#DejaVuSans-Bold-65" transform="translate(694.335938 0)"/>
    <use xlink:href="#DejaVuSans-Bold-6e" transform="translate(762.158203 0)"/>
    <use xlink:href="#DejaVuSans-Bold-41" transform="translate(833.349609 0)"/>
    <use xlink:href="#DejaVuSans-Bold-49" transform="translate(910.742188 0)"/>
    <use xlink:href="#DejaVuSans-Bold-20" transform="translate(947.949219 0)"/>
    <use xlink:href="#DejaVuSans-Bold-49" transform="translate(982.763672 0)"/>
    <use xlink:href="#DejaVuSans-Bold-64" transform="translate(1019.970703 0)"/>
    <use xlink:href="#DejaVuSans-Bold-65" transform="translate(1091.552734 0)"/>
    <use xlink:href="#DejaVuSans-Bold-6e" transform="translate(1159.375 0)"/>
    <use xlink:href="#DejaVuSans-Bold-74" transform="translate(1230.566406 0)"/>
    <use xlink:href="#DejaVuSans-Bold-69" transform="translate(1278.369141 0)"/>
    <use xlink:href="#DejaVuSans-Bold-74" transform="translate(1312.646484 0)"/>
    <use xlink:href="#DejaVuSans-Bold-79" transform="translate(1360.449219 0)"/>
    <use xlink:href="#DejaVuSans-Bold-20" transform="translate(1425.634766 0)"/>
    <use xlink:href="#DejaVuSans-Bold-46" transform="translate(1460.449219 0)"/>
    <use xlink:href="#DejaVuSans-Bold-69" transform="translate(1528.759766 0)"/>
    <use xlink:href="#DejaVuSans-Bold-65" transform="translate(1563.037109 0)"/>
    <use xlink:href="#DejaVuSans-Bold-6c" transform="translate(1630.859375 0)"/>
    <use xlink:href="#DejaVuSans-Bold-64" transform="translate(1665.136719 0)"/>
    <use xlink:href="#DejaVuSans-Bold-20" transform="translate(1736.71875 0)"/>
    <use xlink:href="#DejaVuSans-Bold-62" transform="translate(1771.533203 0)"/>
    <use xlink:href="#DejaVuSans-Bold-79" transform="translate(1843.115234 0)"/>
    <use xlink:href="#DejaVuSans-Bold-20" transform="translate(1908.300781 0)"/>
    <use xlink:href="#DejaVuSans-Bold-4d" transform="translate(1943.115234 0)"/>
    <use xlink:href="#DejaVuSans-Bold-6f" transform="translate(2042.626953 0)"/>
    <use xlink:href="#DejaVuSans-Bold-64" transform="translate(2111.328125 0)"/>
    <use xlink:href="#DejaVuSans-Bold-65" transform="translate(2182.910156 0)"/>
    <use xlink:href="#DejaVuSans-Bold-6c" transform="translate(2250.732422 0)"/>
   </g>
   <!-- (Coherence Boundary = 1.23) -->
   <g style="fill: #10a37f" transform="translate(99.714406 41.173875) scale(0.18 -0.18)">
    <defs>
     <path id="DejaVuSans-Bold-43" d="M 4288 256 
Q 3956 84 3597 -3 
Q 3238 -91 2847 -91 
Q 1681 -91 1000 561 
Q 319 1213 319 2328 
Q 319 3447 1000 4098 
Q 1681 4750 2847 4750 
Q 3238 4750 3597 4662 
Q 3956 4575 4288 4403 
L 4288 3438 
Q 3953 3666 3628 3772 
Q 3303 3878 2944 3878 
Q 2300 3878 1931 3465 
Q 1563 3053 1563 2328 
Q 1563 1606 1931 1193 
Q 2300 781 2944 781 
Q 3303 781 3628 887 
Q 3953 994 4288 1222 
L 4288 256 
z
" transform="scale(0.015625)"/>
     <path id="DejaVuSans-Bold-68" d="M 4056 2131 
L 4056 0 
L 2931 0 
L 2931 347 
L 2931 1625 
Q 2931 2084 2911 2256 
Q 2891 2428 2841 2509 
Q 2775 2619 2662 2680 
Q 2550 2741 2406 2741 
Q 2056 2741 1856 2470 
Q 1656 2200 1656 1722 
L 1656 0 
L 538 0 
L 538 4863 
L 1656 4863 
L 1656 2988 
Q 1909 3294 2193 3439 
Q 2478 3584 2822 3584 
Q 3428 3584 3742 3212 
Q 4056 2841 4056 2131 
z
" transform="scale(0.015625)"/>
     <path id="DejaVuSans-Bold-72" d="M 3138 2547 
Q 2991 2616 2845 2648 
Q 2700 2681 2553 2681 
Q 2122 2681 1889 2404 
Q 1656 2128 1656 1613 
L 1656 0 
L 538 0 
L 538 3500 
L 1656 3500 
L 1656 2925 
Q 1872 3269 2151 3426 
Q 2431 3584 2822 3584 
Q 2878 3584 2943 3579 
Q 3009 3575 3134 3559 
L 3138 2547 
z
" transform="scale(0.015625)"/>
     <path id="DejaVuSans-Bold-63" d="M 3366 3391 
L 3366 2478 
Q 3138 2634 2908 2709 
Q 2678 2784 2431 2784 
Q 1963 2784 1702 2511 
Q 1441 2238 1441 1747 
Q 1441 1256 1702 982 
Q 1963 709 2431 709 
Q 2694 709 2930 787 
Q 3166 866 3366 1019 
L 3366 103 
Q 3103 6 2833 -42 
Q 2563 -91 2291 -91 
Q 1344 -91 809 395 
Q 275 881 275 1747 
Q 275 2613 809 3098 
Q 1344 3584 2291 3584 
Q 2566 3584 2833 3536 
Q 3100 3488 3366 3391 
z
" transform="scale(0.015625)"/>
     <path id="DejaVuSans-Bold-42" d="M 2456 2859 
Q 2741 2859 2887 2984 
Q 3034 3109 3034 3353 
Q 3034 3594 2887 3720 
Q 2741 3847 2456 3847 
L 1791 3847 
L 1791 2859 
L 2456 2859 
z
M 2497 819 
Q 2859 819 3042 972 
Q 3225 1125 3225 1434 
Q 3225 1738 3044 1889 
Q 2863 2041 2497 2041 
L 1791 2041 
L 1791 819 
L 2497 819 
z
M 3616 2497 
Q 4003 2384 4215 2081 
Q 4428 1778 4428 1338 
Q 4428 663 3972 331 
Q 3516 0 2584 0 
L 588 0 
L 588 4666 
L 2394 4666 
Q 3366 4666 3802 4372 
Q 4238 4078 4238 3431 
Q 4238 3091 4078 2852 
Q 3919 2613 3616 2497 
z
" transform="scale(0.015625)"/>
     <path id="DejaVuSans-Bold-61" d="M 2106 1575 
Q 1756 1575 1579 1456 
Q 1403 1338 1403 1106 
Q 1403 894 1545 773 
Q 1688 653 1941 653 
Q 2256 653 2472 879 
Q 2688 1106 2688 1447 
L 2688 1575 
L 2106 1575 
z
M 3816 1997 
L 3816 0 
L 2688 0 
L 2688 519 
Q 2463 200 2181 54 
Q 1900 -91 1497 -91 
Q 953 -91 614 226 
Q 275 544 275 1050 
Q 275 1666 698 1953 
Q 1122 2241 2028 2241 
L 2688 2241 
L 2688 2328 
Q 2688 2594 2478 2717 
Q 2269 2841 1825 2841 
Q 1466 2841 1156 2769 
Q 847 2697 581 2553 
L 581 3406 
Q 941 3494 1303 3539 
Q 1666 3584 2028 3584 
Q 2975 3584 3395 3211 
Q 3816 2838 3816 1997 
z
" transform="scale(0.015625)"/>
     <path id="DejaVuSans-Bold-31" d="M 750 831 
L 1813 831 
L 1813 3847 
L 722 3622 
L 722 4441 
L 1806 4666 
L 2950 4666 
L 2950 831 
L 4013 831 
L 4013 0 
L 750 0 
L 750 831 
z
" transform="scale(0.015625)"/>
     <path id="DejaVuSans-Bold-2e" d="M 653 1209 
L 1778 1209 
L 1778 0 
L 653 0 
L 653 1209 
z
" transform="scale(0.015625)"/>
     <path id="DejaVuSans-Bold-32" d="M 1844 884 
L 3897 884 
L 3897 0 
L 506 0 
L 506 884 
L 2209 2388 
Q 2438 2594 2547 2791 
Q 2656 2988 2656 3200 
Q 2656 3528 2436 3728 
Q 2216 3928 1850 3928 
Q 1569 3928 1234 3808 
Q 900 3688 519 3450 
L 519 4475 
Q 925 4609 1322 4679 
Q 1719 4750 2100 4750 
Q 2938 4750 3402 4381 
Q 3866 4013 3866 3353 
Q 3866 2972 3669 2642 
Q 3472 2313 2841 1759 
L 1844 884 
z
" transform="scale(0.015625)"/>
     <path id="DejaVuSans-Bold-33" d="M 2981 2516 
Q 3453 2394 3698 2092 
Q 3944 1791 3944 1325 
Q 3944 631 3412 270 
Q 2881 -91 1863 -91 
Q 1503 -91 1142 -33 
Q 781 25 428 141 
L 428 1069 
Q 766 900 1098 814 
Q 1431 728 1753 728 
Q 2231 728 2486 893 
Q 2741 1059 2741 1369 
Q 2741 1688 2480 1852 
Q 2219 2016 1709 2016 
L 1228 2016 
L 1228 2791 
L 1734 2791 
Q 2188 2791 2409 2933 
Q 2631 3075 2631 3366 
Q 2631 3634 2415 3781 
Q 2200 3928 1806 3928 
Q 1516 3928 1219 3862 
Q 922 3797 628 3669 
L 628 4550 
Q 984 4650 1334 4700 
Q 1684 4750 2022 4750 
Q 2931 4750 3382 4451 
Q 3834 4153 3834 3553 
Q 3834 3144 3618 2883 
Q 3403 2622 2981 2516 
z
" transform="scale(0.015625)"/>
    </defs>
    <use xlink:href="#DejaVuSans-Bold-28"/>
    <use xlink:href="#DejaVuSans-Bold-43" transform="translate(45.703125 0)"/>
    <use xlink:href="#DejaVuSans-Bold-6f" transform="translate(119.091797 0)"/>
    <use xlink:href="#DejaVuSans-Bold-68" transform="translate(187.792969 0)"/>
    <use xlink:href="#DejaVuSans-Bold-65" transform="translate(258.984375 0)"/>
    <use xlink:href="#DejaVuSans-Bold-72" transform="translate(326.806641 0)"/>
    <use xlink:href="#DejaVuSans-Bold-65" transform="translate(376.123047 0)"/>
    <use xlink:href="#DejaVuSans-Bold-6e" transform="translate(443.945312 0)"/>
    <use xlink:href="#DejaVuSans-Bold-63" transform="translate(515.136719 0)"/>
    <use xlink:href="#DejaVuSans-Bold-65" transform="translate(574.414062 0)"/>
    <use xlink:href="#DejaVuSans-Bold-20" transform="translate(642.236328 0)"/>
    <use xlink:href="#DejaVuSans-Bold-42" transform="translate(677.050781 0)"/>
    <use xlink:href="#DejaVuSans-Bold-6f" transform="translate(753.271484 0)"/>
    <use xlink:href="#DejaVuSans-Bold-75" transform="translate(821.972656 0)"/>
    <use xlink:href="#DejaVuSans-Bold-6e" transform="translate(893.164062 0)"/>
    <use xlink:href="#DejaVuSans-Bold-64" transform="translate(964.355469 0)"/>
    <use xlink:href="#DejaVuSans-Bold-61" transform="translate(1035.9375 0)"/>
    <use xlink:href="#DejaVuSans-Bold-72" transform="translate(1103.417969 0)"/>
    <use xlink:href="#DejaVuSans-Bold-79" transform="translate(1152.734375 0)"/>
    <use xlink:href="#DejaVuSans-Bold-20" transform="translate(1217.919922 0)"/>
    <use xlink:href="#DejaVuSans-Bold-3d" transform="translate(1252.734375 0)"/>
    <use xlink:href="#DejaVuSans-Bold-20" transform="translate(1336.523438 0)"/>
    <use xlink:href="#DejaVuSans-Bold-31" transform="translate(1371.337891 0)"/>
    <use xlink:href="#DejaVuSans-Bold-2e" transform="translate(1440.917969 0)"/>
    <use xlink:href="#DejaVuSans-Bold-32" transform="translate(1478.90625 0)"/>
    <use xlink:href="#DejaVuSans-Bold-33" transform="translate(1548.486328 0)"/>
    <use xlink:href="#DejaVuSans-Bold-29" transform="translate(1618.066406 0)"/>
   </g>
  </g>
 </g>
 <defs>
  <clipPath id="p5def5e9717">
   <rect x="42.620313" y="104.784" width="447.976" height="447.976"/>
  </clipPath>
 </defs>
</svg>
