<?xml version="1.0" encoding="utf-8" standalone="no"?>
<!DOCTYPE svg PUBLIC "-//W3C//DTD SVG 1.1//EN"
  "http://www.w3.org/Graphics/SVG/1.1/DTD/svg11.dtd">
<svg xmlns:xlink="http://www.w3.org/1999/xlink" width="1106.098131pt" height="609.167159pt" viewBox="0 0 1106.098131 609.167159" xmlns="http://www.w3.org/2000/svg" version="1.1">
 <metadata>
  <rdf:RDF xmlns:dc="http://purl.org/dc/elements/1.1/" xmlns:cc="http://creativecommons.org/ns#" xmlns:rdf="http://www.w3.org/1999/02/22-rdf-syntax-ns#">
   <cc:Work>
    <dc:type rdf:resource="http://purl.org/dc/dcmitype/StillImage"/>
    <dc:date>2025-12-17T12:07:19.460829</dc:date>
    <dc:format>image/svg+xml</dc:format>
    <dc:creator>
     <cc:Agent>
      <dc:title>Matplotlib v3.10.7, https://matplotlib.org/</dc:title>
     </cc:Agent>
    </dc:creator>
   </cc:Work>
  </rdf:RDF>
 </metadata>
 <defs>
  <style type="text/css">*{stroke-linejoin: round; stroke-linecap: butt}</style>
 </defs>
 <g id="figure_1">
  <g id="patch_1">
   <path d="M 0 609.167159 
L 1106.098131 609.167159 
L 1106.098131 0 
L 0 0 
z
" style="fill: #ffffff"/>
  </g>
  <g id="axes_1">
   <g id="patch_2">
    <path d="M 42.620313 571.610909 
L 528.298131 571.610909 
L 528.298131 85.933091 
L 42.620313 85.933091 
z
" style="fill: #ffffff"/>
   </g>
   <g id="PathCollection_1">
    <defs>
     <path id="md75a7ebd45" d="M 0 1.732051 
C 0.459345 1.732051 0.899939 1.549551 1.224745 1.224745 
C 1.549551 0.899939 1.732051 0.459345 1.732051 0 
C 1.732051 -0.459345 1.549551 -0.899939 1.224745 -1.224745 
C 0.899939 -1.549551 0.459345 -1.732051 0 -1.732051 
C -0.459345 -1.732051 -0.899939 -1.549551 -1.224745 -1.224745 
C -1.549551 -0.899939 -1.732051 -0.459345 -1.732051 0 
C -1.732051 0.459345 -1.549551 0.899939 -1.224745 1.224745 
C -0.899939 1.549551 -0.459345 1.732051 0 1.732051 
z
" style="stroke: #ffffff; stroke-opacity: 0.4; stroke-width: 0.2"/>
    </defs>
    <g clip-path="url(#pd6fef275ad)">
     <use xlink:href="#md75a7ebd45" x="414.4156" y="328.772" style="fill: #10a37f; fill-opacity: 0.4; stroke: #ffffff; stroke-opacity: 0.4; stroke-width: 0.2"/>
     <use xlink:href="#md75a7ebd45" x="305.494558" y="234.513152" style="fill: #10a37f; fill-opacity: 0.4; stroke: #ffffff; stroke-opacity: 0.4; stroke-width: 0.2"/>
     <use xlink:href="#md75a7ebd45" x="196.16858" y="289.017245" style="fill: #10a37f; fill-opacity: 0.4; stroke: #ffffff; stroke-opacity: 0.4; stroke-width: 0.2"/>
     <use xlink:href="#md75a7ebd45" x="246.194246" y="382.815602" style="fill: #10a37f; fill-opacity: 0.4; stroke: #ffffff; stroke-opacity: 0.4; stroke-width: 0.2"/>
     <use xlink:href="#md75a7ebd45" x="350.990242" y="401.551571" style="fill: #10a37f; fill-opacity: 0.4; stroke: #ffffff; stroke-opacity: 0.4; stroke-width: 0.2"/>
     <use xlink:href="#md75a7ebd45" x="398.320548" y="263.611483" style="fill: #10a37f; fill-opacity: 0.4; stroke: #ffffff; stroke-opacity: 0.4; stroke-width: 0.2"/>
     <use xlink:href="#md75a7ebd45" x="251.182237" y="223.27829" style="fill: #10a37f; fill-opacity: 0.4; stroke: #ffffff; stroke-opacity: 0.4; stroke-width: 0.2"/>
     <use xlink:href="#md75a7ebd45" x="165.946074" y="341.333338" style="fill: #10a37f; fill-opacity: 0.4; stroke: #ffffff; stroke-opacity: 0.4; stroke-width: 0.2"/>
     <use xlink:href="#md75a7ebd45" x="275.202405" y="426.359095" style="fill: #10a37f; fill-opacity: 0.4; stroke: #ffffff; stroke-opacity: 0.4; stroke-width: 0.2"/>
     <use xlink:href="#md75a7ebd45" x="402.539787" y="366.813782" style="fill: #10a37f; fill-opacity: 0.4; stroke: #ffffff; stroke-opacity: 0.4; stroke-width: 0.2"/>
     <use xlink:href="#md75a7ebd45" x="320.430731" y="268.199568" style="fill: #10a37f; fill-opacity: 0.4; stroke: #ffffff; stroke-opacity: 0.4; stroke-width: 0.2"/>
     <use xlink:href="#md75a7ebd45" x="214.197687" y="264.607826" style="fill: #10a37f; fill-opacity: 0.4; stroke: #ffffff; stroke-opacity: 0.4; stroke-width: 0.2"/>
     <use xlink:href="#md75a7ebd45" x="192.519295" y="396.296809" style="fill: #10a37f; fill-opacity: 0.4; stroke: #ffffff; stroke-opacity: 0.4; stroke-width: 0.2"/>
    </g>
   </g>
   <g id="patch_3">
    <path d="M 285.459222 353.055891 
C 291.899385 353.055891 298.076642 350.497187 302.630526 345.943304 
C 307.184409 341.389421 309.743113 335.212163 309.743113 328.772 
C 309.743113 322.331837 307.184409 316.154579 302.630526 311.600696 
C 298.076642 307.046813 291.899385 304.488109 285.459222 304.488109 
C 279.019058 304.488109 272.841801 307.046813 268.287918 311.600696 
C 263.734035 316.154579 261.175331 322.331837 261.175331 328.772 
C 261.175331 335.212163 263.734035 341.389421 268.287918 345.943304 
C 272.841801 350.497187 279.019058 353.055891 285.459222 353.055891 
L 285.459222 353.055891 
z
" clip-path="url(#pd6fef275ad)" style="fill: none; opacity: 0.15; stroke-dasharray: 1,1.65; stroke-dashoffset: 0; stroke: #808080; stroke-linejoin: miter"/>
   </g>
   <g id="patch_4">
    <path d="M 285.459222 377.339782 
C 298.339548 377.339782 310.694063 372.222374 319.801829 363.114608 
C 328.909596 354.006842 334.027003 341.652326 334.027003 328.772 
C 334.027003 315.891674 328.909596 303.537158 319.801829 294.429392 
C 310.694063 285.321626 298.339548 280.204218 285.459222 280.204218 
C 272.578895 280.204218 260.22438 285.321626 251.116614 294.429392 
C 242.008848 303.537158 236.89144 315.891674 236.89144 328.772 
C 236.89144 341.652326 242.008848 354.006842 251.116614 363.114608 
C 260.22438 372.222374 272.578895 377.339782 285.459222 377.339782 
L 285.459222 377.339782 
z
" clip-path="url(#pd6fef275ad)" style="fill: none; opacity: 0.15; stroke-dasharray: 1,1.65; stroke-dashoffset: 0; stroke: #808080; stroke-linejoin: miter"/>
   </g>
   <g id="patch_5">
    <path d="M 285.459222 401.623673 
C 304.779711 401.623673 323.311484 393.947561 336.973133 380.285912 
C 350.634783 366.624263 358.310894 348.092489 358.310894 328.772 
C 358.310894 309.451511 350.634783 290.919737 336.973133 277.258088 
C 323.311484 263.596439 304.779711 255.920327 285.459222 255.920327 
C 266.138732 255.920327 247.606959 263.596439 233.94531 277.258088 
C 220.283661 290.919737 212.607549 309.451511 212.607549 328.772 
C 212.607549 348.092489 220.283661 366.624263 233.94531 380.285912 
C 247.606959 393.947561 266.138732 401.623673 285.459222 401.623673 
L 285.459222 401.623673 
z
" clip-path="url(#pd6fef275ad)" style="fill: none; opacity: 0.15; stroke-dasharray: 1,1.65; stroke-dashoffset: 0; stroke: #808080; stroke-linejoin: miter"/>
   </g>
   <g id="patch_6">
    <path d="M 285.459222 425.907564 
C 311.219874 425.907564 335.928905 415.672748 354.144437 397.457216 
C 372.359969 379.241684 382.594785 354.532653 382.594785 328.772 
C 382.594785 303.011347 372.359969 278.302316 354.144437 260.086784 
C 335.928905 241.871252 311.219874 231.636436 285.459222 231.636436 
C 259.698569 231.636436 234.989538 241.871252 216.774006 260.086784 
C 198.558474 278.302316 188.323658 303.011347 188.323658 328.772 
C 188.323658 354.532653 198.558474 379.241684 216.774006 397.457216 
C 234.989538 415.672748 259.698569 425.907564 285.459222 425.907564 
L 285.459222 425.907564 
z
" clip-path="url(#pd6fef275ad)" style="fill: none; opacity: 0.15; stroke-dasharray: 1,1.65; stroke-dashoffset: 0; stroke: #808080; stroke-linejoin: miter"/>
   </g>
   <g id="patch_7">
    <path d="M 285.459222 450.191455 
C 317.660037 450.191455 348.546326 437.397935 371.315741 414.62852 
C 394.085156 391.859105 406.878676 360.972816 406.878676 328.772 
C 406.878676 296.571184 394.085156 265.684895 371.315741 242.91548 
C 348.546326 220.146065 317.660037 207.352545 285.459222 207.352545 
C 253.258406 207.352545 222.372117 220.146065 199.602702 242.91548 
C 176.833287 265.684895 164.039767 296.571184 164.039767 328.772 
C 164.039767 360.972816 176.833287 391.859105 199.602702 414.62852 
C 222.372117 437.397935 253.258406 450.191455 285.459222 450.191455 
L 285.459222 450.191455 
z
" clip-path="url(#pd6fef275ad)" style="fill: none; opacity: 0.15; stroke-dasharray: 1,1.65; stroke-dashoffset: 0; stroke: #808080; stroke-linejoin: miter"/>
   </g>
   <g id="patch_8">
    <path d="M 285.459222 474.475345 
C 324.1002 474.475345 361.163747 459.123122 388.487045 431.799824 
C 415.810343 404.476525 431.162567 367.412979 431.162567 328.772 
C 431.162567 290.131021 415.810343 253.067475 388.487045 225.744176 
C 361.163747 198.420878 324.1002 183.068655 285.459222 183.068655 
C 246.818243 183.068655 209.754696 198.420878 182.431398 225.744176 
C 155.1081 253.067475 139.755876 290.131021 139.755876 328.772 
C 139.755876 367.412979 155.1081 404.476525 182.431398 431.799824 
C 209.754696 459.123122 246.818243 474.475345 285.459222 474.475345 
L 285.459222 474.475345 
z
" clip-path="url(#pd6fef275ad)" style="fill: none; opacity: 0.15; stroke-dasharray: 1,1.65; stroke-dashoffset: 0; stroke: #808080; stroke-linejoin: miter"/>
   </g>
   <g id="matplotlib.axis_1">
    <g id="xtick_1">
     <g id="line2d_1">
      <path d="M 91.188094 571.610909 
L 91.188094 85.933091 
" clip-path="url(#pd6fef275ad)" style="fill: none; stroke: #b0b0b0; stroke-opacity: 0.3; stroke-width: 0.8; stroke-linecap: square"/>
     </g>
     <g id="line2d_2">
      <defs>
       <path id="mb80c8dd3e1" d="M 0 0 
L 0 3.5 
" style="stroke: #000000; stroke-width: 0.8"/>
      </defs>
      <g>
       <use xlink:href="#mb80c8dd3e1" x="91.188094" y="571.610909" style="stroke: #000000; stroke-width: 0.8"/>
      </g>
     </g>
     <g id="text_1">
      <!-- −4 -->
      <g transform="translate(83.817001 586.209347) scale(0.1 -0.1)">
       <defs>
        <path id="DejaVuSans-2212" d="M 678 2272 
L 4684 2272 
L 4684 1741 
L 678 1741 
L 678 2272 
z
" transform="scale(0.015625)"/>
        <path id="DejaVuSans-34" d="M 2419 4116 
L 825 1625 
L 2419 1625 
L 2419 4116 
z
M 2253 4666 
L 3047 4666 
L 3047 1625 
L 3713 1625 
L 3713 1100 
L 3047 1100 
L 3047 0 
L 2419 0 
L 2419 1100 
L 313 1100 
L 313 1709 
L 2253 4666 
z
" transform="scale(0.015625)"/>
       </defs>
       <use xlink:href="#DejaVuSans-2212"/>
       <use xlink:href="#DejaVuSans-34" transform="translate(83.789062 0)"/>
      </g>
     </g>
    </g>
    <g id="xtick_2">
     <g id="line2d_3">
      <path d="M 188.323658 571.610909 
L 188.323658 85.933091 
" clip-path="url(#pd6fef275ad)" style="fill: none; stroke: #b0b0b0; stroke-opacity: 0.3; stroke-width: 0.8; stroke-linecap: square"/>
     </g>
     <g id="line2d_4">
      <g>
       <use xlink:href="#mb80c8dd3e1" x="188.323658" y="571.610909" style="stroke: #000000; stroke-width: 0.8"/>
      </g>
     </g>
     <g id="text_2">
      <!-- −2 -->
      <g transform="translate(180.952564 586.209347) scale(0.1 -0.1)">
       <defs>
        <path id="DejaVuSans-32" d="M 1228 531 
L 3431 531 
L 3431 0 
L 469 0 
L 469 531 
Q 828 903 1448 1529 
Q 2069 2156 2228 2338 
Q 2531 2678 2651 2914 
Q 2772 3150 2772 3378 
Q 2772 3750 2511 3984 
Q 2250 4219 1831 4219 
Q 1534 4219 1204 4116 
Q 875 4013 500 3803 
L 500 4441 
Q 881 4594 1212 4672 
Q 1544 4750 1819 4750 
Q 2544 4750 2975 4387 
Q 3406 4025 3406 3419 
Q 3406 3131 3298 2873 
Q 3191 2616 2906 2266 
Q 2828 2175 2409 1742 
Q 1991 1309 1228 531 
z
" transform="scale(0.015625)"/>
       </defs>
       <use xlink:href="#DejaVuSans-2212"/>
       <use xlink:href="#DejaVuSans-32" transform="translate(83.789062 0)"/>
      </g>
     </g>
    </g>
    <g id="xtick_3">
     <g id="line2d_5">
      <path d="M 285.459222 571.610909 
L 285.459222 85.933091 
" clip-path="url(#pd6fef275ad)" style="fill: none; stroke: #b0b0b0; stroke-opacity: 0.3; stroke-width: 0.8; stroke-linecap: square"/>
     </g>
     <g id="line2d_6">
      <g>
       <use xlink:href="#mb80c8dd3e1" x="285.459222" y="571.610909" style="stroke: #000000; stroke-width: 0.8"/>
      </g>
     </g>
     <g id="text_3">
      <!-- 0 -->
      <g transform="translate(282.277972 586.209347) scale(0.1 -0.1)">
       <defs>
        <path id="DejaVuSans-30" d="M 2034 4250 
Q 1547 4250 1301 3770 
Q 1056 3291 1056 2328 
Q 1056 1369 1301 889 
Q 1547 409 2034 409 
Q 2525 409 2770 889 
Q 3016 1369 3016 2328 
Q 3016 3291 2770 3770 
Q 2525 4250 2034 4250 
z
M 2034 4750 
Q 2819 4750 3233 4129 
Q 3647 3509 3647 2328 
Q 3647 1150 3233 529 
Q 2819 -91 2034 -91 
Q 1250 -91 836 529 
Q 422 1150 422 2328 
Q 422 3509 836 4129 
Q 1250 4750 2034 4750 
z
" transform="scale(0.015625)"/>
       </defs>
       <use xlink:href="#DejaVuSans-30"/>
      </g>
     </g>
    </g>
    <g id="xtick_4">
     <g id="line2d_7">
      <path d="M 382.594785 571.610909 
L 382.594785 85.933091 
" clip-path="url(#pd6fef275ad)" style="fill: none; stroke: #b0b0b0; stroke-opacity: 0.3; stroke-width: 0.8; stroke-linecap: square"/>
     </g>
     <g id="line2d_8">
      <g>
       <use xlink:href="#mb80c8dd3e1" x="382.594785" y="571.610909" style="stroke: #000000; stroke-width: 0.8"/>
      </g>
     </g>
     <g id="text_4">
      <!-- 2 -->
      <g transform="translate(379.413535 586.209347) scale(0.1 -0.1)">
       <use xlink:href="#DejaVuSans-32"/>
      </g>
     </g>
    </g>
    <g id="xtick_5">
     <g id="line2d_9">
      <path d="M 479.730349 571.610909 
L 479.730349 85.933091 
" clip-path="url(#pd6fef275ad)" style="fill: none; stroke: #b0b0b0; stroke-opacity: 0.3; stroke-width: 0.8; stroke-linecap: square"/>
     </g>
     <g id="line2d_10">
      <g>
       <use xlink:href="#mb80c8dd3e1" x="479.730349" y="571.610909" style="stroke: #000000; stroke-width: 0.8"/>
      </g>
     </g>
     <g id="text_5">
      <!-- 4 -->
      <g transform="translate(476.549099 586.209347) scale(0.1 -0.1)">
       <use xlink:href="#DejaVuSans-34"/>
      </g>
     </g>
    </g>
    <g id="text_6">
     <!-- X (drift * cos(angle)) -->
     <g transform="translate(234.426409 599.887472) scale(0.1 -0.1)">
      <defs>
       <path id="DejaVuSans-58" d="M 403 4666 
L 1081 4666 
L 2241 2931 
L 3406 4666 
L 4084 4666 
L 2584 2425 
L 4184 0 
L 3506 0 
L 2194 1984 
L 872 0 
L 191 0 
L 1856 2491 
L 403 4666 
z
" transform="scale(0.015625)"/>
       <path id="DejaVuSans-20" transform="scale(0.015625)"/>
       <path id="DejaVuSans-28" d="M 1984 4856 
Q 1566 4138 1362 3434 
Q 1159 2731 1159 2009 
Q 1159 1288 1364 580 
Q 1569 -128 1984 -844 
L 1484 -844 
Q 1016 -109 783 600 
Q 550 1309 550 2009 
Q 550 2706 781 3412 
Q 1013 4119 1484 4856 
L 1984 4856 
z
" transform="scale(0.015625)"/>
       <path id="DejaVuSans-64" d="M 2906 2969 
L 2906 4863 
L 3481 4863 
L 3481 0 
L 2906 0 
L 2906 525 
Q 2725 213 2448 61 
Q 2172 -91 1784 -91 
Q 1150 -91 751 415 
Q 353 922 353 1747 
Q 353 2572 751 3078 
Q 1150 3584 1784 3584 
Q 2172 3584 2448 3432 
Q 2725 3281 2906 2969 
z
M 947 1747 
Q 947 1113 1208 752 
Q 1469 391 1925 391 
Q 2381 391 2643 752 
Q 2906 1113 2906 1747 
Q 2906 2381 2643 2742 
Q 2381 3103 1925 3103 
Q 1469 3103 1208 2742 
Q 947 2381 947 1747 
z
" transform="scale(0.015625)"/>
       <path id="DejaVuSans-72" d="M 2631 2963 
Q 2534 3019 2420 3045 
Q 2306 3072 2169 3072 
Q 1681 3072 1420 2755 
Q 1159 2438 1159 1844 
L 1159 0 
L 581 0 
L 581 3500 
L 1159 3500 
L 1159 2956 
Q 1341 3275 1631 3429 
Q 1922 3584 2338 3584 
Q 2397 3584 2469 3576 
Q 2541 3569 2628 3553 
L 2631 2963 
z
" transform="scale(0.015625)"/>
       <path id="DejaVuSans-69" d="M 603 3500 
L 1178 3500 
L 1178 0 
L 603 0 
L 603 3500 
z
M 603 4863 
L 1178 4863 
L 1178 4134 
L 603 4134 
L 603 4863 
z
" transform="scale(0.015625)"/>
       <path id="DejaVuSans-66" d="M 2375 4863 
L 2375 4384 
L 1825 4384 
Q 1516 4384 1395 4259 
Q 1275 4134 1275 3809 
L 1275 3500 
L 2222 3500 
L 2222 3053 
L 1275 3053 
L 1275 0 
L 697 0 
L 697 3053 
L 147 3053 
L 147 3500 
L 697 3500 
L 697 3744 
Q 697 4328 969 4595 
Q 1241 4863 1831 4863 
L 2375 4863 
z
" transform="scale(0.015625)"/>
       <path id="DejaVuSans-74" d="M 1172 4494 
L 1172 3500 
L 2356 3500 
L 2356 3053 
L 1172 3053 
L 1172 1153 
Q 1172 725 1289 603 
Q 1406 481 1766 481 
L 2356 481 
L 2356 0 
L 1766 0 
Q 1100 0 847 248 
Q 594 497 594 1153 
L 594 3053 
L 172 3053 
L 172 3500 
L 594 3500 
L 594 4494 
L 1172 4494 
z
" transform="scale(0.015625)"/>
       <path id="DejaVuSans-2a" d="M 3009 3897 
L 1888 3291 
L 3009 2681 
L 2828 2375 
L 1778 3009 
L 1778 1831 
L 1422 1831 
L 1422 3009 
L 372 2375 
L 191 2681 
L 1313 3291 
L 191 3897 
L 372 4206 
L 1422 3572 
L 1422 4750 
L 1778 4750 
L 1778 3572 
L 2828 4206 
L 3009 3897 
z
" transform="scale(0.015625)"/>
       <path id="DejaVuSans-63" d="M 3122 3366 
L 3122 2828 
Q 2878 2963 2633 3030 
Q 2388 3097 2138 3097 
Q 1578 3097 1268 2742 
Q 959 2388 959 1747 
Q 959 1106 1268 751 
Q 1578 397 2138 397 
Q 2388 397 2633 464 
Q 2878 531 3122 666 
L 3122 134 
Q 2881 22 2623 -34 
Q 2366 -91 2075 -91 
Q 1284 -91 818 406 
Q 353 903 353 1747 
Q 353 2603 823 3093 
Q 1294 3584 2113 3584 
Q 2378 3584 2631 3529 
Q 2884 3475 3122 3366 
z
" transform="scale(0.015625)"/>
       <path id="DejaVuSans-6f" d="M 1959 3097 
Q 1497 3097 1228 2736 
Q 959 2375 959 1747 
Q 959 1119 1226 758 
Q 1494 397 1959 397 
Q 2419 397 2687 759 
Q 2956 1122 2956 1747 
Q 2956 2369 2687 2733 
Q 2419 3097 1959 3097 
z
M 1959 3584 
Q 2709 3584 3137 3096 
Q 3566 2609 3566 1747 
Q 3566 888 3137 398 
Q 2709 -91 1959 -91 
Q 1206 -91 779 398 
Q 353 888 353 1747 
Q 353 2609 779 3096 
Q 1206 3584 1959 3584 
z
" transform="scale(0.015625)"/>
       <path id="DejaVuSans-73" d="M 2834 3397 
L 2834 2853 
Q 2591 2978 2328 3040 
Q 2066 3103 1784 3103 
Q 1356 3103 1142 2972 
Q 928 2841 928 2578 
Q 928 2378 1081 2264 
Q 1234 2150 1697 2047 
L 1894 2003 
Q 2506 1872 2764 1633 
Q 3022 1394 3022 966 
Q 3022 478 2636 193 
Q 2250 -91 1575 -91 
Q 1294 -91 989 -36 
Q 684 19 347 128 
L 347 722 
Q 666 556 975 473 
Q 1284 391 1588 391 
Q 1994 391 2212 530 
Q 2431 669 2431 922 
Q 2431 1156 2273 1281 
Q 2116 1406 1581 1522 
L 1381 1569 
Q 847 1681 609 1914 
Q 372 2147 372 2553 
Q 372 3047 722 3315 
Q 1072 3584 1716 3584 
Q 2034 3584 2315 3537 
Q 2597 3491 2834 3397 
z
" transform="scale(0.015625)"/>
       <path id="DejaVuSans-61" d="M 2194 1759 
Q 1497 1759 1228 1600 
Q 959 1441 959 1056 
Q 959 750 1161 570 
Q 1363 391 1709 391 
Q 2188 391 2477 730 
Q 2766 1069 2766 1631 
L 2766 1759 
L 2194 1759 
z
M 3341 1997 
L 3341 0 
L 2766 0 
L 2766 531 
Q 2569 213 2275 61 
Q 1981 -91 1556 -91 
Q 1019 -91 701 211 
Q 384 513 384 1019 
Q 384 1609 779 1909 
Q 1175 2209 1959 2209 
L 2766 2209 
L 2766 2266 
Q 2766 2663 2505 2880 
Q 2244 3097 1772 3097 
Q 1472 3097 1187 3025 
Q 903 2953 641 2809 
L 641 3341 
Q 956 3463 1253 3523 
Q 1550 3584 1831 3584 
Q 2591 3584 2966 3190 
Q 3341 2797 3341 1997 
z
" transform="scale(0.015625)"/>
       <path id="DejaVuSans-6e" d="M 3513 2113 
L 3513 0 
L 2938 0 
L 2938 2094 
Q 2938 2591 2744 2837 
Q 2550 3084 2163 3084 
Q 1697 3084 1428 2787 
Q 1159 2491 1159 1978 
L 1159 0 
L 581 0 
L 581 3500 
L 1159 3500 
L 1159 2956 
Q 1366 3272 1645 3428 
Q 1925 3584 2291 3584 
Q 2894 3584 3203 3211 
Q 3513 2838 3513 2113 
z
" transform="scale(0.015625)"/>
       <path id="DejaVuSans-67" d="M 2906 1791 
Q 2906 2416 2648 2759 
Q 2391 3103 1925 3103 
Q 1463 3103 1205 2759 
Q 947 2416 947 1791 
Q 947 1169 1205 825 
Q 1463 481 1925 481 
Q 2391 481 2648 825 
Q 2906 1169 2906 1791 
z
M 3481 434 
Q 3481 -459 3084 -895 
Q 2688 -1331 1869 -1331 
Q 1566 -1331 1297 -1286 
Q 1028 -1241 775 -1147 
L 775 -588 
Q 1028 -725 1275 -790 
Q 1522 -856 1778 -856 
Q 2344 -856 2625 -561 
Q 2906 -266 2906 331 
L 2906 616 
Q 2728 306 2450 153 
Q 2172 0 1784 0 
Q 1141 0 747 490 
Q 353 981 353 1791 
Q 353 2603 747 3093 
Q 1141 3584 1784 3584 
Q 2172 3584 2450 3431 
Q 2728 3278 2906 2969 
L 2906 3500 
L 3481 3500 
L 3481 434 
z
" transform="scale(0.015625)"/>
       <path id="DejaVuSans-6c" d="M 603 4863 
L 1178 4863 
L 1178 0 
L 603 0 
L 603 4863 
z
" transform="scale(0.015625)"/>
       <path id="DejaVuSans-65" d="M 3597 1894 
L 3597 1613 
L 953 1613 
Q 991 1019 1311 708 
Q 1631 397 2203 397 
Q 2534 397 2845 478 
Q 3156 559 3463 722 
L 3463 178 
Q 3153 47 2828 -22 
Q 2503 -91 2169 -91 
Q 1331 -91 842 396 
Q 353 884 353 1716 
Q 353 2575 817 3079 
Q 1281 3584 2069 3584 
Q 2775 3584 3186 3129 
Q 3597 2675 3597 1894 
z
M 3022 2063 
Q 3016 2534 2758 2815 
Q 2500 3097 2075 3097 
Q 1594 3097 1305 2825 
Q 1016 2553 972 2059 
L 3022 2063 
z
" transform="scale(0.015625)"/>
       <path id="DejaVuSans-29" d="M 513 4856 
L 1013 4856 
Q 1481 4119 1714 3412 
Q 1947 2706 1947 2009 
Q 1947 1309 1714 600 
Q 1481 -109 1013 -844 
L 513 -844 
Q 928 -128 1133 580 
Q 1338 1288 1338 2009 
Q 1338 2731 1133 3434 
Q 928 4138 513 4856 
z
" transform="scale(0.015625)"/>
      </defs>
      <use xlink:href="#DejaVuSans-58"/>
      <use xlink:href="#DejaVuSans-20" transform="translate(68.505859 0)"/>
      <use xlink:href="#DejaVuSans-28" transform="translate(100.292969 0)"/>
      <use xlink:href="#DejaVuSans-64" transform="translate(139.306641 0)"/>
      <use xlink:href="#DejaVuSans-72" transform="translate(202.783203 0)"/>
      <use xlink:href="#DejaVuSans-69" transform="translate(243.896484 0)"/>
      <use xlink:href="#DejaVuSans-66" transform="translate(271.679688 0)"/>
      <use xlink:href="#DejaVuSans-74" transform="translate(305.134766 0)"/>
      <use xlink:href="#DejaVuSans-20" transform="translate(344.34375 0)"/>
      <use xlink:href="#DejaVuSans-2a" transform="translate(376.130859 0)"/>
      <use xlink:href="#DejaVuSans-20" transform="translate(426.130859 0)"/>
      <use xlink:href="#DejaVuSans-63" transform="translate(457.917969 0)"/>
      <use xlink:href="#DejaVuSans-6f" transform="translate(512.898438 0)"/>
      <use xlink:href="#DejaVuSans-73" transform="translate(574.080078 0)"/>
      <use xlink:href="#DejaVuSans-28" transform="translate(626.179688 0)"/>
      <use xlink:href="#DejaVuSans-61" transform="translate(665.193359 0)"/>
      <use xlink:href="#DejaVuSans-6e" transform="translate(726.472656 0)"/>
      <use xlink:href="#DejaVuSans-67" transform="translate(789.851562 0)"/>
      <use xlink:href="#DejaVuSans-6c" transform="translate(853.328125 0)"/>
      <use xlink:href="#DejaVuSans-65" transform="translate(881.111328 0)"/>
      <use xlink:href="#DejaVuSans-29" transform="translate(942.634766 0)"/>
      <use xlink:href="#DejaVuSans-29" transform="translate(981.648438 0)"/>
     </g>
    </g>
   </g>
   <g id="matplotlib.axis_2">
    <g id="ytick_1">
     <g id="line2d_11">
      <path d="M 42.620313 523.043127 
L 528.298131 523.043127 
" clip-path="url(#pd6fef275ad)" style="fill: none; stroke: #b0b0b0; stroke-opacity: 0.3; stroke-width: 0.8; stroke-linecap: square"/>
     </g>
     <g id="line2d_12">
      <defs>
       <path id="m6e61c6c414" d="M 0 0 
L -3.5 0 
" style="stroke: #000000; stroke-width: 0.8"/>
      </defs>
      <g>
       <use xlink:href="#m6e61c6c414" x="42.620313" y="523.043127" style="stroke: #000000; stroke-width: 0.8"/>
      </g>
     </g>
     <g id="text_7">
      <!-- −4 -->
      <g transform="translate(20.878125 526.842346) scale(0.1 -0.1)">
       <use xlink:href="#DejaVuSans-2212"/>
       <use xlink:href="#DejaVuSans-34" transform="translate(83.789062 0)"/>
      </g>
     </g>
    </g>
    <g id="ytick_2">
     <g id="line2d_13">
      <path d="M 42.620313 425.907564 
L 528.298131 425.907564 
" clip-path="url(#pd6fef275ad)" style="fill: none; stroke: #b0b0b0; stroke-opacity: 0.3; stroke-width: 0.8; stroke-linecap: square"/>
     </g>
     <g id="line2d_14">
      <g>
       <use xlink:href="#m6e61c6c414" x="42.620313" y="425.907564" style="stroke: #000000; stroke-width: 0.8"/>
      </g>
     </g>
     <g id="text_8">
      <!-- −2 -->
      <g transform="translate(20.878125 429.706782) scale(0.1 -0.1)">
       <use xlink:href="#DejaVuSans-2212"/>
       <use xlink:href="#DejaVuSans-32" transform="translate(83.789062 0)"/>
      </g>
     </g>
    </g>
    <g id="ytick_3">
     <g id="line2d_15">
      <path d="M 42.620313 328.772 
L 528.298131 328.772 
" clip-path="url(#pd6fef275ad)" style="fill: none; stroke: #b0b0b0; stroke-opacity: 0.3; stroke-width: 0.8; stroke-linecap: square"/>
     </g>
     <g id="line2d_16">
      <g>
       <use xlink:href="#m6e61c6c414" x="42.620313" y="328.772" style="stroke: #000000; stroke-width: 0.8"/>
      </g>
     </g>
     <g id="text_9">
      <!-- 0 -->
      <g transform="translate(29.257813 332.571219) scale(0.1 -0.1)">
       <use xlink:href="#DejaVuSans-30"/>
      </g>
     </g>
    </g>
    <g id="ytick_4">
     <g id="line2d_17">
      <path d="M 42.620313 231.636436 
L 528.298131 231.636436 
" clip-path="url(#pd6fef275ad)" style="fill: none; stroke: #b0b0b0; stroke-opacity: 0.3; stroke-width: 0.8; stroke-linecap: square"/>
     </g>
     <g id="line2d_18">
      <g>
       <use xlink:href="#m6e61c6c414" x="42.620313" y="231.636436" style="stroke: #000000; stroke-width: 0.8"/>
      </g>
     </g>
     <g id="text_10">
      <!-- 2 -->
      <g transform="translate(29.257813 235.435655) scale(0.1 -0.1)">
       <use xlink:href="#DejaVuSans-32"/>
      </g>
     </g>
    </g>
    <g id="ytick_5">
     <g id="line2d_19">
      <path d="M 42.620313 134.500873 
L 528.298131 134.500873 
" clip-path="url(#pd6fef275ad)" style="fill: none; stroke: #b0b0b0; stroke-opacity: 0.3; stroke-width: 0.8; stroke-linecap: square"/>
     </g>
     <g id="line2d_20">
      <g>
       <use xlink:href="#m6e61c6c414" x="42.620313" y="134.500873" style="stroke: #000000; stroke-width: 0.8"/>
      </g>
     </g>
     <g id="text_11">
      <!-- 4 -->
      <g transform="translate(29.257813 138.300091) scale(0.1 -0.1)">
       <use xlink:href="#DejaVuSans-34"/>
      </g>
     </g>
    </g>
    <g id="text_12">
     <!-- Y (drift * sin(angle)) -->
     <g transform="translate(14.798438 378.182938) rotate(-90) scale(0.1 -0.1)">
      <defs>
       <path id="DejaVuSans-59" d="M -13 4666 
L 666 4666 
L 1959 2747 
L 3244 4666 
L 3922 4666 
L 2272 2222 
L 2272 0 
L 1638 0 
L 1638 2222 
L -13 4666 
z
" transform="scale(0.015625)"/>
      </defs>
      <use xlink:href="#DejaVuSans-59"/>
      <use xlink:href="#DejaVuSans-20" transform="translate(61.083984 0)"/>
      <use xlink:href="#DejaVuSans-28" transform="translate(92.871094 0)"/>
      <use xlink:href="#DejaVuSans-64" transform="translate(131.884766 0)"/>
      <use xlink:href="#DejaVuSans-72" transform="translate(195.361328 0)"/>
      <use xlink:href="#DejaVuSans-69" transform="translate(236.474609 0)"/>
      <use xlink:href="#DejaVuSans-66" transform="translate(264.257812 0)"/>
      <use xlink:href="#DejaVuSans-74" transform="translate(297.712891 0)"/>
      <use xlink:href="#DejaVuSans-20" transform="translate(336.921875 0)"/>
      <use xlink:href="#DejaVuSans-2a" transform="translate(368.708984 0)"/>
      <use xlink:href="#DejaVuSans-20" transform="translate(418.708984 0)"/>
      <use xlink:href="#DejaVuSans-73" transform="translate(450.496094 0)"/>
      <use xlink:href="#DejaVuSans-69" transform="translate(502.595703 0)"/>
      <use xlink:href="#DejaVuSans-6e" transform="translate(530.378906 0)"/>
      <use xlink:href="#DejaVuSans-28" transform="translate(593.757812 0)"/>
      <use xlink:href="#DejaVuSans-61" transform="translate(632.771484 0)"/>
      <use xlink:href="#DejaVuSans-6e" transform="translate(694.050781 0)"/>
      <use xlink:href="#DejaVuSans-67" transform="translate(757.429688 0)"/>
      <use xlink:href="#DejaVuSans-6c" transform="translate(820.90625 0)"/>
      <use xlink:href="#DejaVuSans-65" transform="translate(848.689453 0)"/>
      <use xlink:href="#DejaVuSans-29" transform="translate(910.212891 0)"/>
      <use xlink:href="#DejaVuSans-29" transform="translate(949.226562 0)"/>
     </g>
    </g>
   </g>
   <g id="line2d_21">
    <path d="M 414.4156 328.772 
L 407.126916 300.391662 
L 395.277009 277.653232 
L 379.68114 260.160984 
L 361.154573 247.519193 
L 340.512568 239.332133 
L 318.570389 235.204079 
L 296.143297 234.739305 
L 274.046554 237.542087 
L 253.095423 243.216699 
L 234.105165 251.367416 
L 217.891043 261.598511 
L 205.268319 273.514261 
L 197.052254 286.718939 
L 193.910341 300.8238 
L 195.527689 315.486495 
L 201.188652 330.383605 
L 210.176403 345.191767 
L 221.774115 359.587615 
L 235.26496 373.247786 
L 249.933595 385.847894 
L 265.244177 396.939961 
L 281.009484 405.835966 
L 297.082348 411.820313 
L 313.315602 414.177403 
L 329.562076 412.19164 
L 345.674602 405.147426 
L 361.461197 392.43707 
L 376.208896 374.707302 
L 388.868616 353.414151 
L 398.385671 330.027139 
L 403.705379 306.015784 
L 403.773053 282.849607 
L 397.534254 261.998004 
L 384.471708 244.658625 
L 365.744296 231.181176 
L 342.836924 221.75043 
L 317.234495 216.551162 
L 290.421914 215.768147 
L 263.884086 219.586158 
L 239.085527 228.166736 
L 217.021801 241.137037 
L 198.219524 257.589836 
L 183.184922 276.594671 
L 172.424223 297.221083 
L 166.443653 318.53861 
L 165.749437 339.616793 
L 170.69018 359.581945 
L 180.804105 377.852274 
L 195.369732 393.939531 
L 213.66546 407.35551 
L 234.969691 417.612005 
L 258.560825 424.22081 
L 283.713511 426.700051 
L 309.47723 424.94782 
L 334.552463 419.451155 
L 357.609666 410.747754 
L 377.319297 399.375316 
L 392.351812 385.871542 
L 401.377669 370.774129 
L 403.24906 354.622064 
L 398.399958 337.965524 
L 388.07878 321.360452 
L 373.540677 305.362836 
L 356.040799 290.528668 
L 336.834295 277.413935 
L 317.175506 266.574244 
L 298.044353 258.434969 
L 279.748069 253.10225 
L 262.492699 250.634204 
L 246.484289 251.088949 
L 231.928884 254.524604 
L 219.03253 260.999288 
L 208.001272 270.571119 
L 199.041156 283.298214 
L 192.358227 299.238693 
L 188.158531 318.450673 
L 186.648114 340.992274 
L 188.03302 366.921613 
L 192.519295 396.296809 
" clip-path="url(#pd6fef275ad)" style="fill: none; stroke: #10a37f; stroke-opacity: 0.9; stroke-width: 2.5; stroke-linecap: square"/>
   </g>
   <g id="line2d_22">
    <path d="M 345.197593 328.772 
L 345.077321 324.983158 
L 344.716987 321.209573 
L 344.118043 317.466439 
L 343.282901 313.768828 
L 342.214923 310.13163 
L 340.91841 306.56949 
L 339.398583 303.096752 
L 337.66156 299.727399 
L 335.714338 296.474998 
L 333.564756 293.352646 
L 331.221469 290.372915 
L 328.693915 287.547804 
L 325.992269 284.888688 
L 323.127411 282.406274 
L 320.110877 280.110559 
L 316.954813 278.010786 
L 313.671927 276.115411 
L 310.275438 274.432066 
L 306.779023 272.967528 
L 303.196761 271.727695 
L 299.543076 270.717559 
L 295.832681 269.941188 
L 292.080515 269.401708 
L 288.301688 269.101292 
L 284.511415 269.041148 
L 280.724958 269.221519 
L 276.957565 269.641679 
L 273.224405 270.299936 
L 269.54051 271.193639 
L 265.920714 272.31919 
L 262.379593 273.672056 
L 258.931405 275.246791 
L 255.590036 277.037053 
L 252.368939 279.035633 
L 249.281085 281.234483 
L 246.338908 283.624751 
L 243.554254 286.196811 
L 240.938337 288.940306 
L 238.50169 291.844189 
L 236.254124 294.896767 
L 234.20469 298.085749 
L 232.361639 301.398294 
L 230.732394 304.821063 
L 229.323515 308.340274 
L 228.140674 311.941756 
L 227.188634 315.611008 
L 226.47123 319.333254 
L 225.99135 323.093507 
L 225.750926 326.876625 
L 225.750926 330.667375 
L 225.99135 334.450493 
L 226.47123 338.210746 
L 227.188634 341.932992 
L 228.140674 345.602244 
L 229.323515 349.203726 
L 230.732394 352.722937 
L 232.361639 356.145706 
L 234.20469 359.458251 
L 236.254124 362.647233 
L 238.50169 365.699811 
L 240.938337 368.603694 
L 243.554254 371.347189 
L 246.338908 373.919249 
L 249.281085 376.309517 
L 252.368939 378.508367 
L 255.590036 380.506947 
L 258.931405 382.297209 
L 262.379593 383.871944 
L 265.920714 385.22481 
L 269.54051 386.350361 
L 273.224405 387.244064 
L 276.957565 387.902321 
L 280.724958 388.322481 
L 284.511415 388.502852 
L 288.301688 388.442708 
L 292.080515 388.142292 
L 295.832681 387.602812 
L 299.543076 386.826441 
L 303.196761 385.816305 
L 306.779023 384.576472 
L 310.275438 383.111934 
L 313.671927 381.428589 
L 316.954813 379.533214 
L 320.110877 377.433441 
L 323.127411 375.137726 
L 325.992269 372.655312 
L 328.693915 369.996196 
L 331.221469 367.171085 
L 333.564756 364.191354 
L 335.714338 361.069002 
L 337.66156 357.816601 
L 339.398583 354.447248 
L 340.91841 350.97451 
L 342.214923 347.41237 
L 343.282901 343.775172 
L 344.118043 340.077561 
L 344.716987 336.334427 
L 345.077321 332.560842 
L 345.197593 328.772 
" clip-path="url(#pd6fef275ad)" style="fill: none; stroke-dasharray: 9.25,4; stroke-dashoffset: 0; stroke: #ff0000; stroke-opacity: 0.7; stroke-width: 2.5"/>
   </g>
   <g id="patch_9">
    <path d="M 42.620313 571.610909 
L 42.620313 85.933091 
" style="fill: none; stroke: #000000; stroke-width: 0.8; stroke-linejoin: miter; stroke-linecap: square"/>
   </g>
   <g id="patch_10">
    <path d="M 528.298131 571.610909 
L 528.298131 85.933091 
" style="fill: none; stroke: #000000; stroke-width: 0.8; stroke-linejoin: miter; stroke-linecap: square"/>
   </g>
   <g id="patch_11">
    <path d="M 42.620313 571.610909 
L 528.298131 571.610909 
" style="fill: none; stroke: #000000; stroke-width: 0.8; stroke-linejoin: miter; stroke-linecap: square"/>
   </g>
   <g id="patch_12">
    <path d="M 42.620313 85.933091 
L 528.298131 85.933091 
" style="fill: none; stroke: #000000; stroke-width: 0.8; stroke-linejoin: miter; stroke-linecap: square"/>
   </g>
   <g id="text_13">
    <!-- gpt-4o -->
    <g transform="translate(265.068831 67.52956) scale(0.11 -0.11)">
     <defs>
      <path id="DejaVuSans-Bold-67" d="M 2919 594 
Q 2688 288 2409 144 
Q 2131 0 1766 0 
Q 1125 0 706 504 
Q 288 1009 288 1791 
Q 288 2575 706 3076 
Q 1125 3578 1766 3578 
Q 2131 3578 2409 3434 
Q 2688 3291 2919 2981 
L 2919 3500 
L 4044 3500 
L 4044 353 
Q 4044 -491 3511 -936 
Q 2978 -1381 1966 -1381 
Q 1638 -1381 1331 -1331 
Q 1025 -1281 716 -1178 
L 716 -306 
Q 1009 -475 1290 -558 
Q 1572 -641 1856 -641 
Q 2406 -641 2662 -400 
Q 2919 -159 2919 353 
L 2919 594 
z
M 2181 2772 
Q 1834 2772 1640 2515 
Q 1447 2259 1447 1791 
Q 1447 1309 1634 1061 
Q 1822 813 2181 813 
Q 2531 813 2725 1069 
Q 2919 1325 2919 1791 
Q 2919 2259 2725 2515 
Q 2531 2772 2181 2772 
z
" transform="scale(0.015625)"/>
      <path id="DejaVuSans-Bold-70" d="M 1656 506 
L 1656 -1331 
L 538 -1331 
L 538 3500 
L 1656 3500 
L 1656 2988 
Q 1888 3294 2169 3439 
Q 2450 3584 2816 3584 
Q 3463 3584 3878 3070 
Q 4294 2556 4294 1747 
Q 4294 938 3878 423 
Q 3463 -91 2816 -91 
Q 2450 -91 2169 54 
Q 1888 200 1656 506 
z
M 2400 2772 
Q 2041 2772 1848 2508 
Q 1656 2244 1656 1747 
Q 1656 1250 1848 986 
Q 2041 722 2400 722 
Q 2759 722 2948 984 
Q 3138 1247 3138 1747 
Q 3138 2247 2948 2509 
Q 2759 2772 2400 2772 
z
" transform="scale(0.015625)"/>
      <path id="DejaVuSans-Bold-74" d="M 1759 4494 
L 1759 3500 
L 2913 3500 
L 2913 2700 
L 1759 2700 
L 1759 1216 
Q 1759 972 1856 886 
Q 1953 800 2241 800 
L 2816 800 
L 2816 0 
L 1856 0 
Q 1194 0 917 276 
Q 641 553 641 1216 
L 641 2700 
L 84 2700 
L 84 3500 
L 641 3500 
L 641 4494 
L 1759 4494 
z
" transform="scale(0.015625)"/>
      <path id="DejaVuSans-Bold-2d" d="M 347 2297 
L 2309 2297 
L 2309 1388 
L 347 1388 
L 347 2297 
z
" transform="scale(0.015625)"/>
      <path id="DejaVuSans-Bold-34" d="M 2356 3675 
L 1038 1722 
L 2356 1722 
L 2356 3675 
z
M 2156 4666 
L 3494 4666 
L 3494 1722 
L 4159 1722 
L 4159 850 
L 3494 850 
L 3494 0 
L 2356 0 
L 2356 850 
L 288 850 
L 288 1881 
L 2156 4666 
z
" transform="scale(0.015625)"/>
      <path id="DejaVuSans-Bold-6f" d="M 2203 2784 
Q 1831 2784 1636 2517 
Q 1441 2250 1441 1747 
Q 1441 1244 1636 976 
Q 1831 709 2203 709 
Q 2569 709 2762 976 
Q 2956 1244 2956 1747 
Q 2956 2250 2762 2517 
Q 2569 2784 2203 2784 
z
M 2203 3584 
Q 3106 3584 3614 3096 
Q 4122 2609 4122 1747 
Q 4122 884 3614 396 
Q 3106 -91 2203 -91 
Q 1297 -91 786 396 
Q 275 884 275 1747 
Q 275 2609 786 3096 
Q 1297 3584 2203 3584 
z
" transform="scale(0.015625)"/>
     </defs>
     <use xlink:href="#DejaVuSans-Bold-67"/>
     <use xlink:href="#DejaVuSans-Bold-70" transform="translate(71.582031 0)"/>
     <use xlink:href="#DejaVuSans-Bold-74" transform="translate(143.164062 0)"/>
     <use xlink:href="#DejaVuSans-Bold-2d" transform="translate(190.966797 0)"/>
     <use xlink:href="#DejaVuSans-Bold-34" transform="translate(232.470703 0)"/>
     <use xlink:href="#DejaVuSans-Bold-6f" transform="translate(302.050781 0)"/>
    </g>
    <!-- (n=1, S: 0, V: 1) -->
    <g transform="translate(236.22219 79.933091) scale(0.11 -0.11)">
     <defs>
      <path id="DejaVuSans-Bold-28" d="M 2413 -844 
L 1484 -844 
Q 1006 -72 778 623 
Q 550 1319 550 2003 
Q 550 2688 779 3389 
Q 1009 4091 1484 4856 
L 2413 4856 
Q 2013 4116 1813 3408 
Q 1613 2700 1613 2009 
Q 1613 1319 1811 609 
Q 2009 -100 2413 -844 
z
" transform="scale(0.015625)"/>
      <path id="DejaVuSans-Bold-6e" d="M 4056 2131 
L 4056 0 
L 2931 0 
L 2931 347 
L 2931 1631 
Q 2931 2084 2911 2256 
Q 2891 2428 2841 2509 
Q 2775 2619 2662 2680 
Q 2550 2741 2406 2741 
Q 2056 2741 1856 2470 
Q 1656 2200 1656 1722 
L 1656 0 
L 538 0 
L 538 3500 
L 1656 3500 
L 1656 2988 
Q 1909 3294 2193 3439 
Q 2478 3584 2822 3584 
Q 3428 3584 3742 3212 
Q 4056 2841 4056 2131 
z
" transform="scale(0.015625)"/>
      <path id="DejaVuSans-Bold-3d" d="M 678 3084 
L 4684 3084 
L 4684 2350 
L 678 2350 
L 678 3084 
z
M 678 1663 
L 4684 1663 
L 4684 922 
L 678 922 
L 678 1663 
z
" transform="scale(0.015625)"/>
      <path id="DejaVuSans-Bold-31" d="M 750 831 
L 1813 831 
L 1813 3847 
L 722 3622 
L 722 4441 
L 1806 4666 
L 2950 4666 
L 2950 831 
L 4013 831 
L 4013 0 
L 750 0 
L 750 831 
z
" transform="scale(0.015625)"/>
      <path id="DejaVuSans-Bold-2c" d="M 653 1209 
L 1778 1209 
L 1778 256 
L 1006 -909 
L 341 -909 
L 653 256 
L 653 1209 
z
" transform="scale(0.015625)"/>
      <path id="DejaVuSans-Bold-20" transform="scale(0.015625)"/>
      <path id="DejaVuSans-Bold-53" d="M 3834 4519 
L 3834 3531 
Q 3450 3703 3084 3790 
Q 2719 3878 2394 3878 
Q 1963 3878 1756 3759 
Q 1550 3641 1550 3391 
Q 1550 3203 1689 3098 
Q 1828 2994 2194 2919 
L 2706 2816 
Q 3484 2659 3812 2340 
Q 4141 2022 4141 1434 
Q 4141 663 3683 286 
Q 3225 -91 2284 -91 
Q 1841 -91 1394 -6 
Q 947 78 500 244 
L 500 1259 
Q 947 1022 1364 901 
Q 1781 781 2169 781 
Q 2563 781 2772 912 
Q 2981 1044 2981 1288 
Q 2981 1506 2839 1625 
Q 2697 1744 2272 1838 
L 1806 1941 
Q 1106 2091 782 2419 
Q 459 2747 459 3303 
Q 459 4000 909 4375 
Q 1359 4750 2203 4750 
Q 2588 4750 2994 4692 
Q 3400 4634 3834 4519 
z
" transform="scale(0.015625)"/>
      <path id="DejaVuSans-Bold-3a" d="M 716 3500 
L 1844 3500 
L 1844 2291 
L 716 2291 
L 716 3500 
z
M 716 1209 
L 1844 1209 
L 1844 0 
L 716 0 
L 716 1209 
z
" transform="scale(0.015625)"/>
      <path id="DejaVuSans-Bold-30" d="M 2944 2338 
Q 2944 3213 2780 3570 
Q 2616 3928 2228 3928 
Q 1841 3928 1675 3570 
Q 1509 3213 1509 2338 
Q 1509 1453 1675 1090 
Q 1841 728 2228 728 
Q 2613 728 2778 1090 
Q 2944 1453 2944 2338 
z
M 4147 2328 
Q 4147 1169 3647 539 
Q 3147 -91 2228 -91 
Q 1306 -91 806 539 
Q 306 1169 306 2328 
Q 306 3491 806 4120 
Q 1306 4750 2228 4750 
Q 3147 4750 3647 4120 
Q 4147 3491 4147 2328 
z
" transform="scale(0.015625)"/>
      <path id="DejaVuSans-Bold-56" d="M 31 4666 
L 1241 4666 
L 2478 1222 
L 3713 4666 
L 4922 4666 
L 3194 0 
L 1759 0 
L 31 4666 
z
" transform="scale(0.015625)"/>
      <path id="DejaVuSans-Bold-29" d="M 513 -844 
Q 913 -100 1113 609 
Q 1313 1319 1313 2009 
Q 1313 2700 1113 3408 
Q 913 4116 513 4856 
L 1441 4856 
Q 1916 4091 2145 3389 
Q 2375 2688 2375 2003 
Q 2375 1319 2147 623 
Q 1919 -72 1441 -844 
L 513 -844 
z
" transform="scale(0.015625)"/>
     </defs>
     <use xlink:href="#DejaVuSans-Bold-28"/>
     <use xlink:href="#DejaVuSans-Bold-6e" transform="translate(45.703125 0)"/>
     <use xlink:href="#DejaVuSans-Bold-3d" transform="translate(116.894531 0)"/>
     <use xlink:href="#DejaVuSans-Bold-31" transform="translate(200.683594 0)"/>
     <use xlink:href="#DejaVuSans-Bold-2c" transform="translate(270.263672 0)"/>
     <use xlink:href="#DejaVuSans-Bold-20" transform="translate(308.251953 0)"/>
     <use xlink:href="#DejaVuSans-Bold-53" transform="translate(343.066406 0)"/>
     <use xlink:href="#DejaVuSans-Bold-3a" transform="translate(415.087891 0)"/>
     <use xlink:href="#DejaVuSans-Bold-20" transform="translate(455.078125 0)"/>
     <use xlink:href="#DejaVuSans-Bold-30" transform="translate(489.892578 0)"/>
     <use xlink:href="#DejaVuSans-Bold-2c" transform="translate(559.472656 0)"/>
     <use xlink:href="#DejaVuSans-Bold-20" transform="translate(597.460938 0)"/>
     <use xlink:href="#DejaVuSans-Bold-56" transform="translate(632.275391 0)"/>
     <use xlink:href="#DejaVuSans-Bold-3a" transform="translate(705.167969 0)"/>
     <use xlink:href="#DejaVuSans-Bold-20" transform="translate(745.158203 0)"/>
     <use xlink:href="#DejaVuSans-Bold-31" transform="translate(779.972656 0)"/>
     <use xlink:href="#DejaVuSans-Bold-29" transform="translate(849.552734 0)"/>
    </g>
   </g>
   <g id="PathCollection_2">
    <defs>
     <path id="m33655cd322" d="M 0 5 
L 5 0 
L 0 -5 
L -5 0 
z
" style="stroke: #006400; stroke-opacity: 0.9; stroke-width: 1.5"/>
    </defs>
    <g clip-path="url(#pd6fef275ad)">
     <use xlink:href="#m33655cd322" x="414.4156" y="328.772" style="fill: #00ff00; fill-opacity: 0.9; stroke: #006400; stroke-opacity: 0.9; stroke-width: 1.5"/>
    </g>
   </g>
   <g id="PathCollection_3">
    <defs>
     <path id="m0dbb109084" d="M -1.936492 3.872983 
L 0 1.936492 
L 1.936492 3.872983 
L 3.872983 1.936492 
L 1.936492 0 
L 3.872983 -1.936492 
L 1.936492 -3.872983 
L 0 -1.936492 
L -1.936492 -3.872983 
L -3.872983 -1.936492 
L -1.936492 0 
L -3.872983 1.936492 
z
" style="stroke: #000000; stroke-opacity: 0.9; stroke-width: 1.5"/>
    </defs>
    <g clip-path="url(#pd6fef275ad)">
     <use xlink:href="#m0dbb109084" x="192.519295" y="396.296809" style="fill: #ff0000; fill-opacity: 0.9; stroke: #000000; stroke-opacity: 0.9; stroke-width: 1.5"/>
    </g>
   </g>
   <g id="PathCollection_4">
    <defs>
     <path id="mf6710d567b" d="M 0 -10 
L -2.24514 -3.09017 
L -9.510565 -3.09017 
L -3.632713 1.18034 
L -5.877853 8.09017 
L -0 3.81966 
L 5.877853 8.09017 
L 3.632713 1.18034 
L 9.510565 -3.09017 
L 2.24514 -3.09017 
z
" style="stroke: #ffd700"/>
    </defs>
    <g clip-path="url(#pd6fef275ad)">
     <use xlink:href="#mf6710d567b" x="285.459222" y="328.772" style="fill: #ffd700; stroke: #ffd700"/>
    </g>
   </g>
  </g>
  <g id="axes_2">
   <g id="patch_13">
    <path d="M 613.220313 571.610909 
L 1098.898131 571.610909 
L 1098.898131 85.933091 
L 613.220313 85.933091 
z
" style="fill: #ffffff"/>
   </g>
   <g id="PathCollection_5">
    <g clip-path="url(#p1d9b732d2a)">
     <use xlink:href="#md75a7ebd45" x="964.532713" y="328.772" style="fill: #10a37f; fill-opacity: 0.4; stroke: #ffffff; stroke-opacity: 0.4; stroke-width: 0.2"/>
     <use xlink:href="#md75a7ebd45" x="872.761018" y="250.196225" style="fill: #10a37f; fill-opacity: 0.4; stroke: #ffffff; stroke-opacity: 0.4; stroke-width: 0.2"/>
     <use xlink:href="#md75a7ebd45" x="746.923084" y="280.181461" style="fill: #10a37f; fill-opacity: 0.4; stroke: #ffffff; stroke-opacity: 0.4; stroke-width: 0.2"/>
     <use xlink:href="#md75a7ebd45" x="826.659818" y="369.236808" style="fill: #10a37f; fill-opacity: 0.4; stroke: #ffffff; stroke-opacity: 0.4; stroke-width: 0.2"/>
     <use xlink:href="#md75a7ebd45" x="896.86745" y="374.094129" style="fill: #10a37f; fill-opacity: 0.4; stroke: #ffffff; stroke-opacity: 0.4; stroke-width: 0.2"/>
     <use xlink:href="#md75a7ebd45" x="963.440405" y="266.775445" style="fill: #10a37f; fill-opacity: 0.4; stroke: #ffffff; stroke-opacity: 0.4; stroke-width: 0.2"/>
     <use xlink:href="#md75a7ebd45" x="825.793577" y="235.623925" style="fill: #10a37f; fill-opacity: 0.4; stroke: #ffffff; stroke-opacity: 0.4; stroke-width: 0.2"/>
     <use xlink:href="#md75a7ebd45" x="763.117336" y="338.540586" style="fill: #10a37f; fill-opacity: 0.4; stroke: #ffffff; stroke-opacity: 0.4; stroke-width: 0.2"/>
     <use xlink:href="#md75a7ebd45" x="845.431624" y="429.88684" style="fill: #10a37f; fill-opacity: 0.4; stroke: #ffffff; stroke-opacity: 0.4; stroke-width: 0.2"/>
     <use xlink:href="#md75a7ebd45" x="944.858373" y="357.624593" style="fill: #10a37f; fill-opacity: 0.4; stroke: #ffffff; stroke-opacity: 0.4; stroke-width: 0.2"/>
     <use xlink:href="#md75a7ebd45" x="889.104558" y="271.535798" style="fill: #10a37f; fill-opacity: 0.4; stroke: #ffffff; stroke-opacity: 0.4; stroke-width: 0.2"/>
     <use xlink:href="#md75a7ebd45" x="791.677971" y="270.802862" style="fill: #10a37f; fill-opacity: 0.4; stroke: #ffffff; stroke-opacity: 0.4; stroke-width: 0.2"/>
     <use xlink:href="#md75a7ebd45" x="777.986846" y="385.494901" style="fill: #10a37f; fill-opacity: 0.4; stroke: #ffffff; stroke-opacity: 0.4; stroke-width: 0.2"/>
    </g>
   </g>
   <g id="patch_14">
    <path d="M 856.059222 353.055891 
C 862.499385 353.055891 868.676642 350.497187 873.230526 345.943304 
C 877.784409 341.389421 880.343112 335.212163 880.343112 328.772 
C 880.343112 322.331837 877.784409 316.154579 873.230526 311.600696 
C 868.676642 307.046813 862.499385 304.488109 856.059222 304.488109 
C 849.619058 304.488109 843.441801 307.046813 838.887918 311.600696 
C 834.334035 316.154579 831.775331 322.331837 831.775331 328.772 
C 831.775331 335.212163 834.334035 341.389421 838.887918 345.943304 
C 843.441801 350.497187 849.619058 353.055891 856.059222 353.055891 
L 856.059222 353.055891 
z
" clip-path="url(#p1d9b732d2a)" style="fill: none; opacity: 0.15; stroke-dasharray: 1,1.65; stroke-dashoffset: 0; stroke: #808080; stroke-linejoin: miter"/>
   </g>
   <g id="patch_15">
    <path d="M 856.059222 377.339782 
C 868.939548 377.339782 881.294063 372.222374 890.401829 363.114608 
C 899.509596 354.006842 904.627003 341.652326 904.627003 328.772 
C 904.627003 315.891674 899.509596 303.537158 890.401829 294.429392 
C 881.294063 285.321626 868.939548 280.204218 856.059222 280.204218 
C 843.178895 280.204218 830.82438 285.321626 821.716614 294.429392 
C 812.608848 303.537158 807.49144 315.891674 807.49144 328.772 
C 807.49144 341.652326 812.608848 354.006842 821.716614 363.114608 
C 830.82438 372.222374 843.178895 377.339782 856.059222 377.339782 
L 856.059222 377.339782 
z
" clip-path="url(#p1d9b732d2a)" style="fill: none; opacity: 0.15; stroke-dasharray: 1,1.65; stroke-dashoffset: 0; stroke: #808080; stroke-linejoin: miter"/>
   </g>
   <g id="patch_16">
    <path d="M 856.059222 401.623673 
C 875.379711 401.623673 893.911484 393.947561 907.573133 380.285912 
C 921.234783 366.624263 928.910894 348.092489 928.910894 328.772 
C 928.910894 309.451511 921.234783 290.919737 907.573133 277.258088 
C 893.911484 263.596439 875.379711 255.920327 856.059222 255.920327 
C 836.738732 255.920327 818.206959 263.596439 804.54531 277.258088 
C 790.883661 290.919737 783.207549 309.451511 783.207549 328.772 
C 783.207549 348.092489 790.883661 366.624263 804.54531 380.285912 
C 818.206959 393.947561 836.738732 401.623673 856.059222 401.623673 
L 856.059222 401.623673 
z
" clip-path="url(#p1d9b732d2a)" style="fill: none; opacity: 0.15; stroke-dasharray: 1,1.65; stroke-dashoffset: 0; stroke: #808080; stroke-linejoin: miter"/>
   </g>
   <g id="patch_17">
    <path d="M 856.059222 425.907564 
C 881.819874 425.907564 906.528905 415.672748 924.744437 397.457216 
C 942.959969 379.241684 953.194785 354.532653 953.194785 328.772 
C 953.194785 303.011347 942.959969 278.302316 924.744437 260.086784 
C 906.528905 241.871252 881.819874 231.636436 856.059222 231.636436 
C 830.298569 231.636436 805.589538 241.871252 787.374006 260.086784 
C 769.158474 278.302316 758.923658 303.011347 758.923658 328.772 
C 758.923658 354.532653 769.158474 379.241684 787.374006 397.457216 
C 805.589538 415.672748 830.298569 425.907564 856.059222 425.907564 
L 856.059222 425.907564 
z
" clip-path="url(#p1d9b732d2a)" style="fill: none; opacity: 0.15; stroke-dasharray: 1,1.65; stroke-dashoffset: 0; stroke: #808080; stroke-linejoin: miter"/>
   </g>
   <g id="patch_18">
    <path d="M 856.059222 450.191455 
C 888.260037 450.191455 919.146326 437.397935 941.915741 414.62852 
C 964.685156 391.859105 977.478676 360.972816 977.478676 328.772 
C 977.478676 296.571184 964.685156 265.684895 941.915741 242.91548 
C 919.146326 220.146065 888.260037 207.352545 856.059222 207.352545 
C 823.858406 207.352545 792.972117 220.146065 770.202702 242.91548 
C 747.433287 265.684895 734.639767 296.571184 734.639767 328.772 
C 734.639767 360.972816 747.433287 391.859105 770.202702 414.62852 
C 792.972117 437.397935 823.858406 450.191455 856.059222 450.191455 
L 856.059222 450.191455 
z
" clip-path="url(#p1d9b732d2a)" style="fill: none; opacity: 0.15; stroke-dasharray: 1,1.65; stroke-dashoffset: 0; stroke: #808080; stroke-linejoin: miter"/>
   </g>
   <g id="patch_19">
    <path d="M 856.059222 474.475345 
C 894.7002 474.475345 931.763747 459.123122 959.087045 431.799824 
C 986.410343 404.476525 1001.762567 367.412979 1001.762567 328.772 
C 1001.762567 290.131021 986.410343 253.067475 959.087045 225.744176 
C 931.763747 198.420878 894.7002 183.068655 856.059222 183.068655 
C 817.418243 183.068655 780.354696 198.420878 753.031398 225.744176 
C 725.7081 253.067475 710.355876 290.131021 710.355876 328.772 
C 710.355876 367.412979 725.7081 404.476525 753.031398 431.799824 
C 780.354696 459.123122 817.418243 474.475345 856.059222 474.475345 
L 856.059222 474.475345 
z
" clip-path="url(#p1d9b732d2a)" style="fill: none; opacity: 0.15; stroke-dasharray: 1,1.65; stroke-dashoffset: 0; stroke: #808080; stroke-linejoin: miter"/>
   </g>
   <g id="matplotlib.axis_3">
    <g id="xtick_6">
     <g id="line2d_23">
      <path d="M 661.788094 571.610909 
L 661.788094 85.933091 
" clip-path="url(#p1d9b732d2a)" style="fill: none; stroke: #b0b0b0; stroke-opacity: 0.3; stroke-width: 0.8; stroke-linecap: square"/>
     </g>
     <g id="line2d_24">
      <g>
       <use xlink:href="#mb80c8dd3e1" x="661.788094" y="571.610909" style="stroke: #000000; stroke-width: 0.8"/>
      </g>
     </g>
     <g id="text_14">
      <!-- −4 -->
      <g transform="translate(654.417001 586.209347) scale(0.1 -0.1)">
       <use xlink:href="#DejaVuSans-2212"/>
       <use xlink:href="#DejaVuSans-34" transform="translate(83.789062 0)"/>
      </g>
     </g>
    </g>
    <g id="xtick_7">
     <g id="line2d_25">
      <path d="M 758.923658 571.610909 
L 758.923658 85.933091 
" clip-path="url(#p1d9b732d2a)" style="fill: none; stroke: #b0b0b0; stroke-opacity: 0.3; stroke-width: 0.8; stroke-linecap: square"/>
     </g>
     <g id="line2d_26">
      <g>
       <use xlink:href="#mb80c8dd3e1" x="758.923658" y="571.610909" style="stroke: #000000; stroke-width: 0.8"/>
      </g>
     </g>
     <g id="text_15">
      <!-- −2 -->
      <g transform="translate(751.552564 586.209347) scale(0.1 -0.1)">
       <use xlink:href="#DejaVuSans-2212"/>
       <use xlink:href="#DejaVuSans-32" transform="translate(83.789062 0)"/>
      </g>
     </g>
    </g>
    <g id="xtick_8">
     <g id="line2d_27">
      <path d="M 856.059222 571.610909 
L 856.059222 85.933091 
" clip-path="url(#p1d9b732d2a)" style="fill: none; stroke: #b0b0b0; stroke-opacity: 0.3; stroke-width: 0.8; stroke-linecap: square"/>
     </g>
     <g id="line2d_28">
      <g>
       <use xlink:href="#mb80c8dd3e1" x="856.059222" y="571.610909" style="stroke: #000000; stroke-width: 0.8"/>
      </g>
     </g>
     <g id="text_16">
      <!-- 0 -->
      <g transform="translate(852.877972 586.209347) scale(0.1 -0.1)">
       <use xlink:href="#DejaVuSans-30"/>
      </g>
     </g>
    </g>
    <g id="xtick_9">
     <g id="line2d_29">
      <path d="M 953.194785 571.610909 
L 953.194785 85.933091 
" clip-path="url(#p1d9b732d2a)" style="fill: none; stroke: #b0b0b0; stroke-opacity: 0.3; stroke-width: 0.8; stroke-linecap: square"/>
     </g>
     <g id="line2d_30">
      <g>
       <use xlink:href="#mb80c8dd3e1" x="953.194785" y="571.610909" style="stroke: #000000; stroke-width: 0.8"/>
      </g>
     </g>
     <g id="text_17">
      <!-- 2 -->
      <g transform="translate(950.013535 586.209347) scale(0.1 -0.1)">
       <use xlink:href="#DejaVuSans-32"/>
      </g>
     </g>
    </g>
    <g id="xtick_10">
     <g id="line2d_31">
      <path d="M 1050.330349 571.610909 
L 1050.330349 85.933091 
" clip-path="url(#p1d9b732d2a)" style="fill: none; stroke: #b0b0b0; stroke-opacity: 0.3; stroke-width: 0.8; stroke-linecap: square"/>
     </g>
     <g id="line2d_32">
      <g>
       <use xlink:href="#mb80c8dd3e1" x="1050.330349" y="571.610909" style="stroke: #000000; stroke-width: 0.8"/>
      </g>
     </g>
     <g id="text_18">
      <!-- 4 -->
      <g transform="translate(1047.149099 586.209347) scale(0.1 -0.1)">
       <use xlink:href="#DejaVuSans-34"/>
      </g>
     </g>
    </g>
    <g id="text_19">
     <!-- X (drift * cos(angle)) -->
     <g transform="translate(805.026409 599.887472) scale(0.1 -0.1)">
      <use xlink:href="#DejaVuSans-58"/>
      <use xlink:href="#DejaVuSans-20" transform="translate(68.505859 0)"/>
      <use xlink:href="#DejaVuSans-28" transform="translate(100.292969 0)"/>
      <use xlink:href="#DejaVuSans-64" transform="translate(139.306641 0)"/>
      <use xlink:href="#DejaVuSans-72" transform="translate(202.783203 0)"/>
      <use xlink:href="#DejaVuSans-69" transform="translate(243.896484 0)"/>
      <use xlink:href="#DejaVuSans-66" transform="translate(271.679688 0)"/>
      <use xlink:href="#DejaVuSans-74" transform="translate(305.134766 0)"/>
      <use xlink:href="#DejaVuSans-20" transform="translate(344.34375 0)"/>
      <use xlink:href="#DejaVuSans-2a" transform="translate(376.130859 0)"/>
      <use xlink:href="#DejaVuSans-20" transform="translate(426.130859 0)"/>
      <use xlink:href="#DejaVuSans-63" transform="translate(457.917969 0)"/>
      <use xlink:href="#DejaVuSans-6f" transform="translate(512.898438 0)"/>
      <use xlink:href="#DejaVuSans-73" transform="translate(574.080078 0)"/>
      <use xlink:href="#DejaVuSans-28" transform="translate(626.179688 0)"/>
      <use xlink:href="#DejaVuSans-61" transform="translate(665.193359 0)"/>
      <use xlink:href="#DejaVuSans-6e" transform="translate(726.472656 0)"/>
      <use xlink:href="#DejaVuSans-67" transform="translate(789.851562 0)"/>
      <use xlink:href="#DejaVuSans-6c" transform="translate(853.328125 0)"/>
      <use xlink:href="#DejaVuSans-65" transform="translate(881.111328 0)"/>
      <use xlink:href="#DejaVuSans-29" transform="translate(942.634766 0)"/>
      <use xlink:href="#DejaVuSans-29" transform="translate(981.648438 0)"/>
     </g>
    </g>
   </g>
   <g id="matplotlib.axis_4">
    <g id="ytick_6">
     <g id="line2d_33">
      <path d="M 613.220313 523.043127 
L 1098.898131 523.043127 
" clip-path="url(#p1d9b732d2a)" style="fill: none; stroke: #b0b0b0; stroke-opacity: 0.3; stroke-width: 0.8; stroke-linecap: square"/>
     </g>
     <g id="line2d_34">
      <g>
       <use xlink:href="#m6e61c6c414" x="613.220313" y="523.043127" style="stroke: #000000; stroke-width: 0.8"/>
      </g>
     </g>
     <g id="text_20">
      <!-- −4 -->
      <g transform="translate(591.478125 526.842346) scale(0.1 -0.1)">
       <use xlink:href="#DejaVuSans-2212"/>
       <use xlink:href="#DejaVuSans-34" transform="translate(83.789062 0)"/>
      </g>
     </g>
    </g>
    <g id="ytick_7">
     <g id="line2d_35">
      <path d="M 613.220313 425.907564 
L 1098.898131 425.907564 
" clip-path="url(#p1d9b732d2a)" style="fill: none; stroke: #b0b0b0; stroke-opacity: 0.3; stroke-width: 0.8; stroke-linecap: square"/>
     </g>
     <g id="line2d_36">
      <g>
       <use xlink:href="#m6e61c6c414" x="613.220313" y="425.907564" style="stroke: #000000; stroke-width: 0.8"/>
      </g>
     </g>
     <g id="text_21">
      <!-- −2 -->
      <g transform="translate(591.478125 429.706782) scale(0.1 -0.1)">
       <use xlink:href="#DejaVuSans-2212"/>
       <use xlink:href="#DejaVuSans-32" transform="translate(83.789062 0)"/>
      </g>
     </g>
    </g>
    <g id="ytick_8">
     <g id="line2d_37">
      <path d="M 613.220313 328.772 
L 1098.898131 328.772 
" clip-path="url(#p1d9b732d2a)" style="fill: none; stroke: #b0b0b0; stroke-opacity: 0.3; stroke-width: 0.8; stroke-linecap: square"/>
     </g>
     <g id="line2d_38">
      <g>
       <use xlink:href="#m6e61c6c414" x="613.220313" y="328.772" style="stroke: #000000; stroke-width: 0.8"/>
      </g>
     </g>
     <g id="text_22">
      <!-- 0 -->
      <g transform="translate(599.857813 332.571219) scale(0.1 -0.1)">
       <use xlink:href="#DejaVuSans-30"/>
      </g>
     </g>
    </g>
    <g id="ytick_9">
     <g id="line2d_39">
      <path d="M 613.220313 231.636436 
L 1098.898131 231.636436 
" clip-path="url(#p1d9b732d2a)" style="fill: none; stroke: #b0b0b0; stroke-opacity: 0.3; stroke-width: 0.8; stroke-linecap: square"/>
     </g>
     <g id="line2d_40">
      <g>
       <use xlink:href="#m6e61c6c414" x="613.220313" y="231.636436" style="stroke: #000000; stroke-width: 0.8"/>
      </g>
     </g>
     <g id="text_23">
      <!-- 2 -->
      <g transform="translate(599.857813 235.435655) scale(0.1 -0.1)">
       <use xlink:href="#DejaVuSans-32"/>
      </g>
     </g>
    </g>
    <g id="ytick_10">
     <g id="line2d_41">
      <path d="M 613.220313 134.500873 
L 1098.898131 134.500873 
" clip-path="url(#p1d9b732d2a)" style="fill: none; stroke: #b0b0b0; stroke-opacity: 0.3; stroke-width: 0.8; stroke-linecap: square"/>
     </g>
     <g id="line2d_42">
      <g>
       <use xlink:href="#m6e61c6c414" x="613.220313" y="134.500873" style="stroke: #000000; stroke-width: 0.8"/>
      </g>
     </g>
     <g id="text_24">
      <!-- 4 -->
      <g transform="translate(599.857813 138.300091) scale(0.1 -0.1)">
       <use xlink:href="#DejaVuSans-34"/>
      </g>
     </g>
    </g>
    <g id="text_25">
     <!-- Y (drift * sin(angle)) -->
     <g transform="translate(585.398438 378.182938) rotate(-90) scale(0.1 -0.1)">
      <use xlink:href="#DejaVuSans-59"/>
      <use xlink:href="#DejaVuSans-20" transform="translate(61.083984 0)"/>
      <use xlink:href="#DejaVuSans-28" transform="translate(92.871094 0)"/>
      <use xlink:href="#DejaVuSans-64" transform="translate(131.884766 0)"/>
      <use xlink:href="#DejaVuSans-72" transform="translate(195.361328 0)"/>
      <use xlink:href="#DejaVuSans-69" transform="translate(236.474609 0)"/>
      <use xlink:href="#DejaVuSans-66" transform="translate(264.257812 0)"/>
      <use xlink:href="#DejaVuSans-74" transform="translate(297.712891 0)"/>
      <use xlink:href="#DejaVuSans-20" transform="translate(336.921875 0)"/>
      <use xlink:href="#DejaVuSans-2a" transform="translate(368.708984 0)"/>
      <use xlink:href="#DejaVuSans-20" transform="translate(418.708984 0)"/>
      <use xlink:href="#DejaVuSans-73" transform="translate(450.496094 0)"/>
      <use xlink:href="#DejaVuSans-69" transform="translate(502.595703 0)"/>
      <use xlink:href="#DejaVuSans-6e" transform="translate(530.378906 0)"/>
      <use xlink:href="#DejaVuSans-28" transform="translate(593.757812 0)"/>
      <use xlink:href="#DejaVuSans-61" transform="translate(632.771484 0)"/>
      <use xlink:href="#DejaVuSans-6e" transform="translate(694.050781 0)"/>
      <use xlink:href="#DejaVuSans-67" transform="translate(757.429688 0)"/>
      <use xlink:href="#DejaVuSans-6c" transform="translate(820.90625 0)"/>
      <use xlink:href="#DejaVuSans-65" transform="translate(848.689453 0)"/>
      <use xlink:href="#DejaVuSans-29" transform="translate(910.212891 0)"/>
      <use xlink:href="#DejaVuSans-29" transform="translate(949.226562 0)"/>
     </g>
    </g>
   </g>
   <g id="line2d_43">
    <path d="M 964.532713 328.772 
L 968.025455 309.023456 
L 963.217329 292.184281 
L 951.454278 278.182024 
L 934.082246 266.944236 
L 912.447175 258.398464 
L 887.89501 252.472259 
L 861.771692 249.09317 
L 835.423167 248.188745 
L 810.195376 249.686534 
L 787.434264 253.514087 
L 768.485774 259.598953 
L 754.695848 267.86868 
L 747.41043 278.250818 
L 747.682611 290.614465 
L 754.618586 304.440131 
L 766.530335 319.049805 
L 781.727492 333.765007 
L 798.519693 347.907261 
L 815.216573 360.798086 
L 830.134492 371.760182 
L 842.403572 380.258703 
L 852.73438 386.035476 
L 862.019065 388.864114 
L 871.149778 388.51823 
L 881.018668 384.771438 
L 892.517884 377.397352 
L 906.40889 366.229934 
L 921.933897 351.804705 
L 937.354962 335.109802 
L 950.917801 317.140909 
L 960.868134 298.893708 
L 965.451678 281.363879 
L 962.914504 265.54703 
L 952.277088 252.271372 
L 934.97634 241.842783 
L 912.919183 234.465546 
L 888.012537 230.343941 
L 862.163323 229.682252 
L 837.278462 232.68476 
L 815.225099 239.53909 
L 796.955507 250.049772 
L 782.507087 263.638239 
L 771.877466 279.709269 
L 765.064269 297.667639 
L 762.06512 316.918125 
L 762.877645 336.865505 
L 767.445216 356.877229 
L 775.432274 376.128836 
L 786.41387 393.734366 
L 799.965016 408.807829 
L 815.66072 420.463235 
L 833.075995 427.814596 
L 851.782383 429.987205 
L 871.143353 426.783393 
L 890.199864 419.054896 
L 907.965131 407.743722 
L 923.45237 393.79188 
L 935.674793 378.141376 
L 943.645618 361.734218 
L 946.500108 345.465002 
L 944.435802 329.815651 
L 938.197202 315.05561 
L 928.533328 301.452565 
L 916.193199 289.274205 
L 901.925837 278.788216 
L 886.479976 270.262135 
L 870.507202 263.912556 
L 854.42097 259.831188 
L 838.59891 258.090959 
L 823.418656 258.764792 
L 809.257838 261.925615 
L 796.494089 267.646353 
L 785.50504 275.999931 
L 776.668324 287.059276 
L 770.361572 300.897313 
L 766.962416 317.586969 
L 766.848489 337.201168 
L 770.397421 359.812837 
L 777.986846 385.494901 
" clip-path="url(#p1d9b732d2a)" style="fill: none; stroke: #10a37f; stroke-opacity: 0.9; stroke-width: 2.5; stroke-linecap: square"/>
   </g>
   <g id="line2d_44">
    <path d="M 915.797593 328.772 
L 915.677321 324.983158 
L 915.316987 321.209573 
L 914.718043 317.466439 
L 913.882901 313.768828 
L 912.814923 310.13163 
L 911.51841 306.56949 
L 909.998583 303.096752 
L 908.26156 299.727399 
L 906.314338 296.474998 
L 904.164756 293.352646 
L 901.821469 290.372915 
L 899.293915 287.547804 
L 896.592269 284.888688 
L 893.727411 282.406274 
L 890.710877 280.110559 
L 887.554813 278.010786 
L 884.271927 276.115411 
L 880.875438 274.432066 
L 877.379023 272.967528 
L 873.796761 271.727695 
L 870.143076 270.717559 
L 866.432681 269.941188 
L 862.680515 269.401708 
L 858.901688 269.101292 
L 855.111415 269.041148 
L 851.324958 269.221519 
L 847.557565 269.641679 
L 843.824405 270.299936 
L 840.14051 271.193639 
L 836.520714 272.31919 
L 832.979593 273.672056 
L 829.531405 275.246791 
L 826.190036 277.037053 
L 822.968939 279.035633 
L 819.881085 281.234483 
L 816.938908 283.624751 
L 814.154254 286.196811 
L 811.538337 288.940306 
L 809.10169 291.844189 
L 806.854124 294.896767 
L 804.80469 298.085749 
L 802.961639 301.398294 
L 801.332394 304.821063 
L 799.923515 308.340274 
L 798.740674 311.941756 
L 797.788634 315.611008 
L 797.07123 319.333254 
L 796.59135 323.093507 
L 796.350926 326.876625 
L 796.350926 330.667375 
L 796.59135 334.450493 
L 797.07123 338.210746 
L 797.788634 341.932992 
L 798.740674 345.602244 
L 799.923515 349.203726 
L 801.332394 352.722937 
L 802.961639 356.145706 
L 804.80469 359.458251 
L 806.854124 362.647233 
L 809.10169 365.699811 
L 811.538337 368.603694 
L 814.154254 371.347189 
L 816.938908 373.919249 
L 819.881085 376.309517 
L 822.968939 378.508367 
L 826.190036 380.506947 
L 829.531405 382.297209 
L 832.979593 383.871944 
L 836.520714 385.22481 
L 840.14051 386.350361 
L 843.824405 387.244064 
L 847.557565 387.902321 
L 851.324958 388.322481 
L 855.111415 388.502852 
L 858.901688 388.442708 
L 862.680515 388.142292 
L 866.432681 387.602812 
L 870.143076 386.826441 
L 873.796761 385.816305 
L 877.379023 384.576472 
L 880.875438 383.111934 
L 884.271927 381.428589 
L 887.554813 379.533214 
L 890.710877 377.433441 
L 893.727411 375.137726 
L 896.592269 372.655312 
L 899.293915 369.996196 
L 901.821469 367.171085 
L 904.164756 364.191354 
L 906.314338 361.069002 
L 908.26156 357.816601 
L 909.998583 354.447248 
L 911.51841 350.97451 
L 912.814923 347.41237 
L 913.882901 343.775172 
L 914.718043 340.077561 
L 915.316987 336.334427 
L 915.677321 332.560842 
L 915.797593 328.772 
" clip-path="url(#p1d9b732d2a)" style="fill: none; stroke-dasharray: 9.25,4; stroke-dashoffset: 0; stroke: #ff0000; stroke-opacity: 0.7; stroke-width: 2.5"/>
   </g>
   <g id="patch_20">
    <path d="M 613.220313 571.610909 
L 613.220313 85.933091 
" style="fill: none; stroke: #000000; stroke-width: 0.8; stroke-linejoin: miter; stroke-linecap: square"/>
   </g>
   <g id="patch_21">
    <path d="M 1098.898131 571.610909 
L 1098.898131 85.933091 
" style="fill: none; stroke: #000000; stroke-width: 0.8; stroke-linejoin: miter; stroke-linecap: square"/>
   </g>
   <g id="patch_22">
    <path d="M 613.220313 571.610909 
L 1098.898131 571.610909 
" style="fill: none; stroke: #000000; stroke-width: 0.8; stroke-linejoin: miter; stroke-linecap: square"/>
   </g>
   <g id="patch_23">
    <path d="M 613.220313 85.933091 
L 1098.898131 85.933091 
" style="fill: none; stroke: #000000; stroke-width: 0.8; stroke-linejoin: miter; stroke-linecap: square"/>
   </g>
   <g id="text_26">
    <!-- gpt-4o-mini -->
    <g transform="translate(819.968909 67.52956) scale(0.11 -0.11)">
     <defs>
      <path id="DejaVuSans-Bold-6d" d="M 3781 2919 
Q 3994 3244 4286 3414 
Q 4578 3584 4928 3584 
Q 5531 3584 5847 3212 
Q 6163 2841 6163 2131 
L 6163 0 
L 5038 0 
L 5038 1825 
Q 5041 1866 5042 1909 
Q 5044 1953 5044 2034 
Q 5044 2406 4934 2573 
Q 4825 2741 4581 2741 
Q 4263 2741 4089 2478 
Q 3916 2216 3909 1719 
L 3909 0 
L 2784 0 
L 2784 1825 
Q 2784 2406 2684 2573 
Q 2584 2741 2328 2741 
Q 2006 2741 1831 2477 
Q 1656 2213 1656 1722 
L 1656 0 
L 531 0 
L 531 3500 
L 1656 3500 
L 1656 2988 
Q 1863 3284 2130 3434 
Q 2397 3584 2719 3584 
Q 3081 3584 3359 3409 
Q 3638 3234 3781 2919 
z
" transform="scale(0.015625)"/>
      <path id="DejaVuSans-Bold-69" d="M 538 3500 
L 1656 3500 
L 1656 0 
L 538 0 
L 538 3500 
z
M 538 4863 
L 1656 4863 
L 1656 3950 
L 538 3950 
L 538 4863 
z
" transform="scale(0.015625)"/>
     </defs>
     <use xlink:href="#DejaVuSans-Bold-67"/>
     <use xlink:href="#DejaVuSans-Bold-70" transform="translate(71.582031 0)"/>
     <use xlink:href="#DejaVuSans-Bold-74" transform="translate(143.164062 0)"/>
     <use xlink:href="#DejaVuSans-Bold-2d" transform="translate(190.966797 0)"/>
     <use xlink:href="#DejaVuSans-Bold-34" transform="translate(232.470703 0)"/>
     <use xlink:href="#DejaVuSans-Bold-6f" transform="translate(302.050781 0)"/>
     <use xlink:href="#DejaVuSans-Bold-2d" transform="translate(370.751953 0)"/>
     <use xlink:href="#DejaVuSans-Bold-6d" transform="translate(412.255859 0)"/>
     <use xlink:href="#DejaVuSans-Bold-69" transform="translate(516.455078 0)"/>
     <use xlink:href="#DejaVuSans-Bold-6e" transform="translate(550.732422 0)"/>
     <use xlink:href="#DejaVuSans-Bold-69" transform="translate(621.923828 0)"/>
    </g>
    <!-- (n=1, S: 0, V: 1) -->
    <g transform="translate(806.82219 79.933091) scale(0.11 -0.11)">
     <use xlink:href="#DejaVuSans-Bold-28"/>
     <use xlink:href="#DejaVuSans-Bold-6e" transform="translate(45.703125 0)"/>
     <use xlink:href="#DejaVuSans-Bold-3d" transform="translate(116.894531 0)"/>
     <use xlink:href="#DejaVuSans-Bold-31" transform="translate(200.683594 0)"/>
     <use xlink:href="#DejaVuSans-Bold-2c" transform="translate(270.263672 0)"/>
     <use xlink:href="#DejaVuSans-Bold-20" transform="translate(308.251953 0)"/>
     <use xlink:href="#DejaVuSans-Bold-53" transform="translate(343.066406 0)"/>
     <use xlink:href="#DejaVuSans-Bold-3a" transform="translate(415.087891 0)"/>
     <use xlink:href="#DejaVuSans-Bold-20" transform="translate(455.078125 0)"/>
     <use xlink:href="#DejaVuSans-Bold-30" transform="translate(489.892578 0)"/>
     <use xlink:href="#DejaVuSans-Bold-2c" transform="translate(559.472656 0)"/>
     <use xlink:href="#DejaVuSans-Bold-20" transform="translate(597.460938 0)"/>
     <use xlink:href="#DejaVuSans-Bold-56" transform="translate(632.275391 0)"/>
     <use xlink:href="#DejaVuSans-Bold-3a" transform="translate(705.167969 0)"/>
     <use xlink:href="#DejaVuSans-Bold-20" transform="translate(745.158203 0)"/>
     <use xlink:href="#DejaVuSans-Bold-31" transform="translate(779.972656 0)"/>
     <use xlink:href="#DejaVuSans-Bold-29" transform="translate(849.552734 0)"/>
    </g>
   </g>
   <g id="PathCollection_6">
    <g clip-path="url(#p1d9b732d2a)">
     <use xlink:href="#m33655cd322" x="964.532713" y="328.772" style="fill: #00ff00; fill-opacity: 0.9; stroke: #006400; stroke-opacity: 0.9; stroke-width: 1.5"/>
    </g>
   </g>
   <g id="PathCollection_7">
    <g clip-path="url(#p1d9b732d2a)">
     <use xlink:href="#m0dbb109084" x="777.986846" y="385.494901" style="fill: #ff0000; fill-opacity: 0.9; stroke: #000000; stroke-opacity: 0.9; stroke-width: 1.5"/>
    </g>
   </g>
   <g id="PathCollection_8">
    <g clip-path="url(#p1d9b732d2a)">
     <use xlink:href="#mf6710d567b" x="856.059222" y="328.772" style="fill: #ffd700; stroke: #ffd700"/>
    </g>
   </g>
  </g>
  <g id="text_27">
   <!-- Run 013: OpenAI Identity Field by Model -->
   <g style="fill: #10a37f" transform="translate(347.235628 20.877187) scale(0.18 -0.18)">
    <defs>
     <path id="DejaVuSans-Bold-52" d="M 2297 2597 
Q 2675 2597 2839 2737 
Q 3003 2878 3003 3200 
Q 3003 3519 2839 3656 
Q 2675 3794 2297 3794 
L 1791 3794 
L 1791 2597 
L 2297 2597 
z
M 1791 1766 
L 1791 0 
L 588 0 
L 588 4666 
L 2425 4666 
Q 3347 4666 3776 4356 
Q 4206 4047 4206 3378 
Q 4206 2916 3982 2619 
Q 3759 2322 3309 2181 
Q 3556 2125 3751 1926 
Q 3947 1728 4147 1325 
L 4800 0 
L 3519 0 
L 2950 1159 
Q 2778 1509 2601 1637 
Q 2425 1766 2131 1766 
L 1791 1766 
z
" transform="scale(0.015625)"/>
     <path id="DejaVuSans-Bold-75" d="M 500 1363 
L 500 3500 
L 1625 3500 
L 1625 3150 
Q 1625 2866 1622 2436 
Q 1619 2006 1619 1863 
Q 1619 1441 1641 1255 
Q 1663 1069 1716 984 
Q 1784 875 1895 815 
Q 2006 756 2150 756 
Q 2500 756 2700 1025 
Q 2900 1294 2900 1772 
L 2900 3500 
L 4019 3500 
L 4019 0 
L 2900 0 
L 2900 506 
Q 2647 200 2364 54 
Q 2081 -91 1741 -91 
Q 1134 -91 817 281 
Q 500 653 500 1363 
z
" transform="scale(0.015625)"/>
     <path id="DejaVuSans-Bold-33" d="M 2981 2516 
Q 3453 2394 3698 2092 
Q 3944 1791 3944 1325 
Q 3944 631 3412 270 
Q 2881 -91 1863 -91 
Q 1503 -91 1142 -33 
Q 781 25 428 141 
L 428 1069 
Q 766 900 1098 814 
Q 1431 728 1753 728 
Q 2231 728 2486 893 
Q 2741 1059 2741 1369 
Q 2741 1688 2480 1852 
Q 2219 2016 1709 2016 
L 1228 2016 
L 1228 2791 
L 1734 2791 
Q 2188 2791 2409 2933 
Q 2631 3075 2631 3366 
Q 2631 3634 2415 3781 
Q 2200 3928 1806 3928 
Q 1516 3928 1219 3862 
Q 922 3797 628 3669 
L 628 4550 
Q 984 4650 1334 4700 
Q 1684 4750 2022 4750 
Q 2931 4750 3382 4451 
Q 3834 4153 3834 3553 
Q 3834 3144 3618 2883 
Q 3403 2622 2981 2516 
z
" transform="scale(0.015625)"/>
     <path id="DejaVuSans-Bold-4f" d="M 2719 3878 
Q 2169 3878 1866 3472 
Q 1563 3066 1563 2328 
Q 1563 1594 1866 1187 
Q 2169 781 2719 781 
Q 3272 781 3575 1187 
Q 3878 1594 3878 2328 
Q 3878 3066 3575 3472 
Q 3272 3878 2719 3878 
z
M 2719 4750 
Q 3844 4750 4481 4106 
Q 5119 3463 5119 2328 
Q 5119 1197 4481 553 
Q 3844 -91 2719 -91 
Q 1597 -91 958 553 
Q 319 1197 319 2328 
Q 319 3463 958 4106 
Q 1597 4750 2719 4750 
z
" transform="scale(0.015625)"/>
     <path id="DejaVuSans-Bold-65" d="M 4031 1759 
L 4031 1441 
L 1416 1441 
Q 1456 1047 1700 850 
Q 1944 653 2381 653 
Q 2734 653 3104 758 
Q 3475 863 3866 1075 
L 3866 213 
Q 3469 63 3072 -14 
Q 2675 -91 2278 -91 
Q 1328 -91 801 392 
Q 275 875 275 1747 
Q 275 2603 792 3093 
Q 1309 3584 2216 3584 
Q 3041 3584 3536 3087 
Q 4031 2591 4031 1759 
z
M 2881 2131 
Q 2881 2450 2695 2645 
Q 2509 2841 2209 2841 
Q 1884 2841 1681 2658 
Q 1478 2475 1428 2131 
L 2881 2131 
z
" transform="scale(0.015625)"/>
     <path id="DejaVuSans-Bold-41" d="M 3419 850 
L 1538 850 
L 1241 0 
L 31 0 
L 1759 4666 
L 3194 4666 
L 4922 0 
L 3713 0 
L 3419 850 
z
M 1838 1716 
L 3116 1716 
L 2478 3572 
L 1838 1716 
z
" transform="scale(0.015625)"/>
     <path id="DejaVuSans-Bold-49" d="M 588 4666 
L 1791 4666 
L 1791 0 
L 588 0 
L 588 4666 
z
" transform="scale(0.015625)"/>
     <path id="DejaVuSans-Bold-64" d="M 2919 2988 
L 2919 4863 
L 4044 4863 
L 4044 0 
L 2919 0 
L 2919 506 
Q 2688 197 2409 53 
Q 2131 -91 1766 -91 
Q 1119 -91 703 423 
Q 288 938 288 1747 
Q 288 2556 703 3070 
Q 1119 3584 1766 3584 
Q 2128 3584 2408 3439 
Q 2688 3294 2919 2988 
z
M 2181 722 
Q 2541 722 2730 984 
Q 2919 1247 2919 1747 
Q 2919 2247 2730 2509 
Q 2541 2772 2181 2772 
Q 1825 2772 1636 2509 
Q 1447 2247 1447 1747 
Q 1447 1247 1636 984 
Q 1825 722 2181 722 
z
" transform="scale(0.015625)"/>
     <path id="DejaVuSans-Bold-79" d="M 78 3500 
L 1197 3500 
L 2138 1125 
L 2938 3500 
L 4056 3500 
L 2584 -331 
Q 2363 -916 2067 -1148 
Q 1772 -1381 1288 -1381 
L 641 -1381 
L 641 -647 
L 991 -647 
Q 1275 -647 1404 -556 
Q 1534 -466 1606 -231 
L 1638 -134 
L 78 3500 
z
" transform="scale(0.015625)"/>
     <path id="DejaVuSans-Bold-46" d="M 588 4666 
L 3834 4666 
L 3834 3756 
L 1791 3756 
L 1791 2888 
L 3713 2888 
L 3713 1978 
L 1791 1978 
L 1791 0 
L 588 0 
L 588 4666 
z
" transform="scale(0.015625)"/>
     <path id="DejaVuSans-Bold-6c" d="M 538 4863 
L 1656 4863 
L 1656 0 
L 538 0 
L 538 4863 
z
" transform="scale(0.015625)"/>
     <path id="DejaVuSans-Bold-62" d="M 2400 722 
Q 2759 722 2948 984 
Q 3138 1247 3138 1747 
Q 3138 2247 2948 2509 
Q 2759 2772 2400 2772 
Q 2041 2772 1848 2508 
Q 1656 2244 1656 1747 
Q 1656 1250 1848 986 
Q 2041 722 2400 722 
z
M 1656 2988 
Q 1888 3294 2169 3439 
Q 2450 3584 2816 3584 
Q 3463 3584 3878 3070 
Q 4294 2556 4294 1747 
Q 4294 938 3878 423 
Q 3463 -91 2816 -91 
Q 2450 -91 2169 54 
Q 1888 200 1656 506 
L 1656 0 
L 538 0 
L 538 4863 
L 1656 4863 
L 1656 2988 
z
" transform="scale(0.015625)"/>
     <path id="DejaVuSans-Bold-4d" d="M 588 4666 
L 2119 4666 
L 3181 2169 
L 4250 4666 
L 5778 4666 
L 5778 0 
L 4641 0 
L 4641 3413 
L 3566 897 
L 2803 897 
L 1728 3413 
L 1728 0 
L 588 0 
L 588 4666 
z
" transform="scale(0.015625)"/>
    </defs>
    <use xlink:href="#DejaVuSans-Bold-52"/>
    <use xlink:href="#DejaVuSans-Bold-75" transform="translate(77.001953 0)"/>
    <use xlink:href="#DejaVuSans-Bold-6e" transform="translate(148.193359 0)"/>
    <use xlink:href="#DejaVuSans-Bold-20" transform="translate(219.384766 0)"/>
    <use xlink:href="#DejaVuSans-Bold-30" transform="translate(254.199219 0)"/>
    <use xlink:href="#DejaVuSans-Bold-31" transform="translate(323.779297 0)"/>
    <use xlink:href="#DejaVuSans-Bold-33" transform="translate(393.359375 0)"/>
    <use xlink:href="#DejaVuSans-Bold-3a" transform="translate(462.939453 0)"/>
    <use xlink:href="#DejaVuSans-Bold-20" transform="translate(502.929688 0)"/>
    <use xlink:href="#DejaVuSans-Bold-4f" transform="translate(537.744141 0)"/>
    <use xlink:href="#DejaVuSans-Bold-70" transform="translate(622.753906 0)"/>
    <use xlink:href="#DejaVuSans-Bold-65" transform="translate(694.335938 0)"/>
    <use xlink:href="#DejaVuSans-Bold-6e" transform="translate(762.158203 0)"/>
    <use xlink:href="#DejaVuSans-Bold-41" transform="translate(833.349609 0)"/>
    <use xlink:href="#DejaVuSans-Bold-49" transform="translate(910.742188 0)"/>
    <use xlink:href="#DejaVuSans-Bold-20" transform="translate(947.949219 0)"/>
    <use xlink:href="#DejaVuSans-Bold-49" transform="translate(982.763672 0)"/>
    <use xlink:href="#DejaVuSans-Bold-64" transform="translate(1019.970703 0)"/>
    <use xlink:href="#DejaVuSans-Bold-65" transform="translate(1091.552734 0)"/>
    <use xlink:href="#DejaVuSans-Bold-6e" transform="translate(1159.375 0)"/>
    <use xlink:href="#DejaVuSans-Bold-74" transform="translate(1230.566406 0)"/>
    <use xlink:href="#DejaVuSans-Bold-69" transform="translate(1278.369141 0)"/>
    <use xlink:href="#DejaVuSans-Bold-74" transform="translate(1312.646484 0)"/>
    <use xlink:href="#DejaVuSans-Bold-79" transform="translate(1360.449219 0)"/>
    <use xlink:href="#DejaVuSans-Bold-20" transform="translate(1425.634766 0)"/>
    <use xlink:href="#DejaVuSans-Bold-46" transform="translate(1460.449219 0)"/>
    <use xlink:href="#DejaVuSans-Bold-69" transform="translate(1528.759766 0)"/>
    <use xlink:href="#DejaVuSans-Bold-65" transform="translate(1563.037109 0)"/>
    <use xlink:href="#DejaVuSans-Bold-6c" transform="translate(1630.859375 0)"/>
    <use xlink:href="#DejaVuSans-Bold-64" transform="translate(1665.136719 0)"/>
    <use xlink:href="#DejaVuSans-Bold-20" transform="translate(1736.71875 0)"/>
    <use xlink:href="#DejaVuSans-Bold-62" transform="translate(1771.533203 0)"/>
    <use xlink:href="#DejaVuSans-Bold-79" transform="translate(1843.115234 0)"/>
    <use xlink:href="#DejaVuSans-Bold-20" transform="translate(1908.300781 0)"/>
    <use xlink:href="#DejaVuSans-Bold-4d" transform="translate(1943.115234 0)"/>
    <use xlink:href="#DejaVuSans-Bold-6f" transform="translate(2042.626953 0)"/>
    <use xlink:href="#DejaVuSans-Bold-64" transform="translate(2111.328125 0)"/>
    <use xlink:href="#DejaVuSans-Bold-65" transform="translate(2182.910156 0)"/>
    <use xlink:href="#DejaVuSans-Bold-6c" transform="translate(2250.732422 0)"/>
   </g>
   <!-- (Coherence Boundary = 1.23) -->
   <g style="fill: #10a37f" transform="translate(403.145315 41.173875) scale(0.18 -0.18)">
    <defs>
     <path id="DejaVuSans-Bold-43" d="M 4288 256 
Q 3956 84 3597 -3 
Q 3238 -91 2847 -91 
Q 1681 -91 1000 561 
Q 319 1213 319 2328 
Q 319 3447 1000 4098 
Q 1681 4750 2847 4750 
Q 3238 4750 3597 4662 
Q 3956 4575 4288 4403 
L 4288 3438 
Q 3953 3666 3628 3772 
Q 3303 3878 2944 3878 
Q 2300 3878 1931 3465 
Q 1563 3053 1563 2328 
Q 1563 1606 1931 1193 
Q 2300 781 2944 781 
Q 3303 781 3628 887 
Q 3953 994 4288 1222 
L 4288 256 
z
" transform="scale(0.015625)"/>
     <path id="DejaVuSans-Bold-68" d="M 4056 2131 
L 4056 0 
L 2931 0 
L 2931 347 
L 2931 1625 
Q 2931 2084 2911 2256 
Q 2891 2428 2841 2509 
Q 2775 2619 2662 2680 
Q 2550 2741 2406 2741 
Q 2056 2741 1856 2470 
Q 1656 2200 1656 1722 
L 1656 0 
L 538 0 
L 538 4863 
L 1656 4863 
L 1656 2988 
Q 1909 3294 2193 3439 
Q 2478 3584 2822 3584 
Q 3428 3584 3742 3212 
Q 4056 2841 4056 2131 
z
" transform="scale(0.015625)"/>
     <path id="DejaVuSans-Bold-72" d="M 3138 2547 
Q 2991 2616 2845 2648 
Q 2700 2681 2553 2681 
Q 2122 2681 1889 2404 
Q 1656 2128 1656 1613 
L 1656 0 
L 538 0 
L 538 3500 
L 1656 3500 
L 1656 2925 
Q 1872 3269 2151 3426 
Q 2431 3584 2822 3584 
Q 2878 3584 2943 3579 
Q 3009 3575 3134 3559 
L 3138 2547 
z
" transform="scale(0.015625)"/>
     <path id="DejaVuSans-Bold-63" d="M 3366 3391 
L 3366 2478 
Q 3138 2634 2908 2709 
Q 2678 2784 2431 2784 
Q 1963 2784 1702 2511 
Q 1441 2238 1441 1747 
Q 1441 1256 1702 982 
Q 1963 709 2431 709 
Q 2694 709 2930 787 
Q 3166 866 3366 1019 
L 3366 103 
Q 3103 6 2833 -42 
Q 2563 -91 2291 -91 
Q 1344 -91 809 395 
Q 275 881 275 1747 
Q 275 2613 809 3098 
Q 1344 3584 2291 3584 
Q 2566 3584 2833 3536 
Q 3100 3488 3366 3391 
z
" transform="scale(0.015625)"/>
     <path id="DejaVuSans-Bold-42" d="M 2456 2859 
Q 2741 2859 2887 2984 
Q 3034 3109 3034 3353 
Q 3034 3594 2887 3720 
Q 2741 3847 2456 3847 
L 1791 3847 
L 1791 2859 
L 2456 2859 
z
M 2497 819 
Q 2859 819 3042 972 
Q 3225 1125 3225 1434 
Q 3225 1738 3044 1889 
Q 2863 2041 2497 2041 
L 1791 2041 
L 1791 819 
L 2497 819 
z
M 3616 2497 
Q 4003 2384 4215 2081 
Q 4428 1778 4428 1338 
Q 4428 663 3972 331 
Q 3516 0 2584 0 
L 588 0 
L 588 4666 
L 2394 4666 
Q 3366 4666 3802 4372 
Q 4238 4078 4238 3431 
Q 4238 3091 4078 2852 
Q 3919 2613 3616 2497 
z
" transform="scale(0.015625)"/>
     <path id="DejaVuSans-Bold-61" d="M 2106 1575 
Q 1756 1575 1579 1456 
Q 1403 1338 1403 1106 
Q 1403 894 1545 773 
Q 1688 653 1941 653 
Q 2256 653 2472 879 
Q 2688 1106 2688 1447 
L 2688 1575 
L 2106 1575 
z
M 3816 1997 
L 3816 0 
L 2688 0 
L 2688 519 
Q 2463 200 2181 54 
Q 1900 -91 1497 -91 
Q 953 -91 614 226 
Q 275 544 275 1050 
Q 275 1666 698 1953 
Q 1122 2241 2028 2241 
L 2688 2241 
L 2688 2328 
Q 2688 2594 2478 2717 
Q 2269 2841 1825 2841 
Q 1466 2841 1156 2769 
Q 847 2697 581 2553 
L 581 3406 
Q 941 3494 1303 3539 
Q 1666 3584 2028 3584 
Q 2975 3584 3395 3211 
Q 3816 2838 3816 1997 
z
" transform="scale(0.015625)"/>
     <path id="DejaVuSans-Bold-2e" d="M 653 1209 
L 1778 1209 
L 1778 0 
L 653 0 
L 653 1209 
z
" transform="scale(0.015625)"/>
     <path id="DejaVuSans-Bold-32" d="M 1844 884 
L 3897 884 
L 3897 0 
L 506 0 
L 506 884 
L 2209 2388 
Q 2438 2594 2547 2791 
Q 2656 2988 2656 3200 
Q 2656 3528 2436 3728 
Q 2216 3928 1850 3928 
Q 1569 3928 1234 3808 
Q 900 3688 519 3450 
L 519 4475 
Q 925 4609 1322 4679 
Q 1719 4750 2100 4750 
Q 2938 4750 3402 4381 
Q 3866 4013 3866 3353 
Q 3866 2972 3669 2642 
Q 3472 2313 2841 1759 
L 1844 884 
z
" transform="scale(0.015625)"/>
    </defs>
    <use xlink:href="#DejaVuSans-Bold-28"/>
    <use xlink:href="#DejaVuSans-Bold-43" transform="translate(45.703125 0)"/>
    <use xlink:href="#DejaVuSans-Bold-6f" transform="translate(119.091797 0)"/>
    <use xlink:href="#DejaVuSans-Bold-68" transform="translate(187.792969 0)"/>
    <use xlink:href="#DejaVuSans-Bold-65" transform="translate(258.984375 0)"/>
    <use xlink:href="#DejaVuSans-Bold-72" transform="translate(326.806641 0)"/>
    <use xlink:href="#DejaVuSans-Bold-65" transform="translate(376.123047 0)"/>
    <use xlink:href="#DejaVuSans-Bold-6e" transform="translate(443.945312 0)"/>
    <use xlink:href="#DejaVuSans-Bold-63" transform="translate(515.136719 0)"/>
    <use xlink:href="#DejaVuSans-Bold-65" transform="translate(574.414062 0)"/>
    <use xlink:href="#DejaVuSans-Bold-20" transform="translate(642.236328 0)"/>
    <use xlink:href="#DejaVuSans-Bold-42" transform="translate(677.050781 0)"/>
    <use xlink:href="#DejaVuSans-Bold-6f" transform="translate(753.271484 0)"/>
    <use xlink:href="#DejaVuSans-Bold-75" transform="translate(821.972656 0)"/>
    <use xlink:href="#DejaVuSans-Bold-6e" transform="translate(893.164062 0)"/>
    <use xlink:href="#DejaVuSans-Bold-64" transform="translate(964.355469 0)"/>
    <use xlink:href="#DejaVuSans-Bold-61" transform="translate(1035.9375 0)"/>
    <use xlink:href="#DejaVuSans-Bold-72" transform="translate(1103.417969 0)"/>
    <use xlink:href="#DejaVuSans-Bold-79" transform="translate(1152.734375 0)"/>
    <use xlink:href="#DejaVuSans-Bold-20" transform="translate(1217.919922 0)"/>
    <use xlink:href="#DejaVuSans-Bold-3d" transform="translate(1252.734375 0)"/>
    <use xlink:href="#DejaVuSans-Bold-20" transform="translate(1336.523438 0)"/>
    <use xlink:href="#DejaVuSans-Bold-31" transform="translate(1371.337891 0)"/>
    <use xlink:href="#DejaVuSans-Bold-2e" transform="translate(1440.917969 0)"/>
    <use xlink:href="#DejaVuSans-Bold-32" transform="translate(1478.90625 0)"/>
    <use xlink:href="#DejaVuSans-Bold-33" transform="translate(1548.486328 0)"/>
    <use xlink:href="#DejaVuSans-Bold-29" transform="translate(1618.066406 0)"/>
   </g>
  </g>
 </g>
 <defs>
  <clipPath id="pd6fef275ad">
   <rect x="42.620313" y="85.933091" width="485.677818" height="485.677818"/>
  </clipPath>
  <clipPath id="p1d9b732d2a">
   <rect x="613.220313" y="85.933091" width="485.677818" height="485.677818"/>
  </clipPath>
 </defs>
</svg>
