<?xml version="1.0" encoding="utf-8" standalone="no"?>
<!DOCTYPE svg PUBLIC "-//W3C//DTD SVG 1.1//EN"
  "http://www.w3.org/Graphics/SVG/1.1/DTD/svg11.dtd">
<svg xmlns:xlink="http://www.w3.org/1999/xlink" width="711.48875pt" height="494.431pt" viewBox="0 0 711.48875 494.431" xmlns="http://www.w3.org/2000/svg" version="1.1">
 <metadata>
  <rdf:RDF xmlns:dc="http://purl.org/dc/elements/1.1/" xmlns:cc="http://creativecommons.org/ns#" xmlns:rdf="http://www.w3.org/1999/02/22-rdf-syntax-ns#">
   <cc:Work>
    <dc:type rdf:resource="http://purl.org/dc/dcmitype/StillImage"/>
    <dc:date>2025-12-31T16:42:05.319527</dc:date>
    <dc:format>image/svg+xml</dc:format>
    <dc:creator>
     <cc:Agent>
      <dc:title>Matplotlib v3.10.7, https://matplotlib.org/</dc:title>
     </cc:Agent>
    </dc:creator>
   </cc:Work>
  </rdf:RDF>
 </metadata>
 <defs>
  <style type="text/css">*{stroke-linejoin: round; stroke-linecap: butt}</style>
 </defs>
 <g id="figure_1">
  <g id="patch_1">
   <path d="M 0 494.431 
L 711.48875 494.431 
L 711.48875 0 
L 0 0 
z
" style="fill: #ffffff"/>
  </g>
  <g id="axes_1">
   <g id="patch_2">
    <path d="M 42.53875 454.939125 
L 704.28875 454.939125 
L 704.28875 37.635125 
L 42.53875 37.635125 
z
" style="fill: #ffffff"/>
   </g>
   <g id="patch_3">
    <path d="M 72.618295 454.939125 
L 93.36281 454.939125 
L 93.36281 339.555531 
L 72.618295 339.555531 
z
" clip-path="url(#p2e367860b7)" style="fill: #4285f4; opacity: 0.6; stroke: #000000; stroke-width: 0.5; stroke-linejoin: miter"/>
   </g>
   <g id="patch_4">
    <path d="M 93.36281 454.939125 
L 114.107324 454.939125 
L 114.107324 365.196329 
L 93.36281 365.196329 
z
" clip-path="url(#p2e367860b7)" style="fill: #4285f4; opacity: 0.6; stroke: #000000; stroke-width: 0.5; stroke-linejoin: miter"/>
   </g>
   <g id="patch_5">
    <path d="M 114.107324 454.939125 
L 134.851838 454.939125 
L 134.851838 378.016729 
L 114.107324 378.016729 
z
" clip-path="url(#p2e367860b7)" style="fill: #4285f4; opacity: 0.6; stroke: #000000; stroke-width: 0.5; stroke-linejoin: miter"/>
   </g>
   <g id="patch_6">
    <path d="M 134.851838 454.939125 
L 155.596352 454.939125 
L 155.596352 365.196329 
L 134.851838 365.196329 
z
" clip-path="url(#p2e367860b7)" style="fill: #4285f4; opacity: 0.6; stroke: #000000; stroke-width: 0.5; stroke-linejoin: miter"/>
   </g>
   <g id="patch_7">
    <path d="M 155.596352 454.939125 
L 176.340866 454.939125 
L 176.340866 339.555531 
L 155.596352 339.555531 
z
" clip-path="url(#p2e367860b7)" style="fill: #4285f4; opacity: 0.6; stroke: #000000; stroke-width: 0.5; stroke-linejoin: miter"/>
   </g>
   <g id="patch_8">
    <path d="M 176.340866 454.939125 
L 197.08538 454.939125 
L 197.08538 378.016729 
L 176.340866 378.016729 
z
" clip-path="url(#p2e367860b7)" style="fill: #4285f4; opacity: 0.6; stroke: #000000; stroke-width: 0.5; stroke-linejoin: miter"/>
   </g>
   <g id="patch_9">
    <path d="M 197.08538 454.939125 
L 217.829894 454.939125 
L 217.829894 442.118726 
L 197.08538 442.118726 
z
" clip-path="url(#p2e367860b7)" style="fill: #4285f4; opacity: 0.6; stroke: #000000; stroke-width: 0.5; stroke-linejoin: miter"/>
   </g>
   <g id="patch_10">
    <path d="M 217.829894 454.939125 
L 238.574408 454.939125 
L 238.574408 416.477927 
L 217.829894 416.477927 
z
" clip-path="url(#p2e367860b7)" style="fill: #4285f4; opacity: 0.6; stroke: #000000; stroke-width: 0.5; stroke-linejoin: miter"/>
   </g>
   <g id="patch_11">
    <path d="M 238.574408 454.939125 
L 259.318922 454.939125 
L 259.318922 429.298326 
L 238.574408 429.298326 
z
" clip-path="url(#p2e367860b7)" style="fill: #4285f4; opacity: 0.6; stroke: #000000; stroke-width: 0.5; stroke-linejoin: miter"/>
   </g>
   <g id="patch_12">
    <path d="M 259.318922 454.939125 
L 280.063437 454.939125 
L 280.063437 390.837128 
L 259.318922 390.837128 
z
" clip-path="url(#p2e367860b7)" style="fill: #4285f4; opacity: 0.6; stroke: #000000; stroke-width: 0.5; stroke-linejoin: miter"/>
   </g>
   <g id="patch_13">
    <path d="M 280.063437 454.939125 
L 300.807951 454.939125 
L 300.807951 429.298326 
L 280.063437 429.298326 
z
" clip-path="url(#p2e367860b7)" style="fill: #4285f4; opacity: 0.6; stroke: #000000; stroke-width: 0.5; stroke-linejoin: miter"/>
   </g>
   <g id="patch_14">
    <path d="M 300.807951 454.939125 
L 321.552465 454.939125 
L 321.552465 454.939125 
L 300.807951 454.939125 
z
" clip-path="url(#p2e367860b7)" style="fill: #4285f4; opacity: 0.6; stroke: #000000; stroke-width: 0.5; stroke-linejoin: miter"/>
   </g>
   <g id="patch_15">
    <path d="M 321.552465 454.939125 
L 342.296979 454.939125 
L 342.296979 390.837128 
L 321.552465 390.837128 
z
" clip-path="url(#p2e367860b7)" style="fill: #4285f4; opacity: 0.6; stroke: #000000; stroke-width: 0.5; stroke-linejoin: miter"/>
   </g>
   <g id="patch_16">
    <path d="M 342.296979 454.939125 
L 363.041493 454.939125 
L 363.041493 378.016729 
L 342.296979 378.016729 
z
" clip-path="url(#p2e367860b7)" style="fill: #4285f4; opacity: 0.6; stroke: #000000; stroke-width: 0.5; stroke-linejoin: miter"/>
   </g>
   <g id="patch_17">
    <path d="M 363.041493 454.939125 
L 383.786007 454.939125 
L 383.786007 442.118726 
L 363.041493 442.118726 
z
" clip-path="url(#p2e367860b7)" style="fill: #4285f4; opacity: 0.6; stroke: #000000; stroke-width: 0.5; stroke-linejoin: miter"/>
   </g>
   <g id="patch_18">
    <path d="M 383.786007 454.939125 
L 404.530521 454.939125 
L 404.530521 454.939125 
L 383.786007 454.939125 
z
" clip-path="url(#p2e367860b7)" style="fill: #4285f4; opacity: 0.6; stroke: #000000; stroke-width: 0.5; stroke-linejoin: miter"/>
   </g>
   <g id="patch_19">
    <path d="M 404.530521 454.939125 
L 425.275035 454.939125 
L 425.275035 442.118726 
L 404.530521 442.118726 
z
" clip-path="url(#p2e367860b7)" style="fill: #4285f4; opacity: 0.6; stroke: #000000; stroke-width: 0.5; stroke-linejoin: miter"/>
   </g>
   <g id="patch_20">
    <path d="M 425.275035 454.939125 
L 446.019549 454.939125 
L 446.019549 429.298326 
L 425.275035 429.298326 
z
" clip-path="url(#p2e367860b7)" style="fill: #4285f4; opacity: 0.6; stroke: #000000; stroke-width: 0.5; stroke-linejoin: miter"/>
   </g>
   <g id="patch_21">
    <path d="M 446.019549 454.939125 
L 466.764063 454.939125 
L 466.764063 442.118726 
L 446.019549 442.118726 
z
" clip-path="url(#p2e367860b7)" style="fill: #4285f4; opacity: 0.6; stroke: #000000; stroke-width: 0.5; stroke-linejoin: miter"/>
   </g>
   <g id="patch_22">
    <path d="M 466.764063 454.939125 
L 487.508578 454.939125 
L 487.508578 454.939125 
L 466.764063 454.939125 
z
" clip-path="url(#p2e367860b7)" style="fill: #4285f4; opacity: 0.6; stroke: #000000; stroke-width: 0.5; stroke-linejoin: miter"/>
   </g>
   <g id="patch_23">
    <path d="M 487.508578 454.939125 
L 508.253092 454.939125 
L 508.253092 454.939125 
L 487.508578 454.939125 
z
" clip-path="url(#p2e367860b7)" style="fill: #4285f4; opacity: 0.6; stroke: #000000; stroke-width: 0.5; stroke-linejoin: miter"/>
   </g>
   <g id="patch_24">
    <path d="M 508.253092 454.939125 
L 528.997606 454.939125 
L 528.997606 454.939125 
L 508.253092 454.939125 
z
" clip-path="url(#p2e367860b7)" style="fill: #4285f4; opacity: 0.6; stroke: #000000; stroke-width: 0.5; stroke-linejoin: miter"/>
   </g>
   <g id="patch_25">
    <path d="M 528.997606 454.939125 
L 549.74212 454.939125 
L 549.74212 454.939125 
L 528.997606 454.939125 
z
" clip-path="url(#p2e367860b7)" style="fill: #4285f4; opacity: 0.6; stroke: #000000; stroke-width: 0.5; stroke-linejoin: miter"/>
   </g>
   <g id="patch_26">
    <path d="M 549.74212 454.939125 
L 570.486634 454.939125 
L 570.486634 442.118726 
L 549.74212 442.118726 
z
" clip-path="url(#p2e367860b7)" style="fill: #4285f4; opacity: 0.6; stroke: #000000; stroke-width: 0.5; stroke-linejoin: miter"/>
   </g>
   <g id="patch_27">
    <path d="M 570.486634 454.939125 
L 591.231148 454.939125 
L 591.231148 454.939125 
L 570.486634 454.939125 
z
" clip-path="url(#p2e367860b7)" style="fill: #4285f4; opacity: 0.6; stroke: #000000; stroke-width: 0.5; stroke-linejoin: miter"/>
   </g>
   <g id="patch_28">
    <path d="M 591.231148 454.939125 
L 611.975662 454.939125 
L 611.975662 454.939125 
L 591.231148 454.939125 
z
" clip-path="url(#p2e367860b7)" style="fill: #4285f4; opacity: 0.6; stroke: #000000; stroke-width: 0.5; stroke-linejoin: miter"/>
   </g>
   <g id="patch_29">
    <path d="M 611.975662 454.939125 
L 632.720176 454.939125 
L 632.720176 442.118726 
L 611.975662 442.118726 
z
" clip-path="url(#p2e367860b7)" style="fill: #4285f4; opacity: 0.6; stroke: #000000; stroke-width: 0.5; stroke-linejoin: miter"/>
   </g>
   <g id="patch_30">
    <path d="M 632.720176 454.939125 
L 653.46469 454.939125 
L 653.46469 454.939125 
L 632.720176 454.939125 
z
" clip-path="url(#p2e367860b7)" style="fill: #4285f4; opacity: 0.6; stroke: #000000; stroke-width: 0.5; stroke-linejoin: miter"/>
   </g>
   <g id="patch_31">
    <path d="M 653.46469 454.939125 
L 674.209205 454.939125 
L 674.209205 454.939125 
L 653.46469 454.939125 
z
" clip-path="url(#p2e367860b7)" style="fill: #4285f4; opacity: 0.6; stroke: #000000; stroke-width: 0.5; stroke-linejoin: miter"/>
   </g>
   <g id="patch_32">
    <path d="M 72.618295 454.939125 
L 93.36281 454.939125 
L 93.36281 57.506744 
L 72.618295 57.506744 
z
" clip-path="url(#p2e367860b7)" style="fill: #e07b53; opacity: 0.6; stroke: #000000; stroke-width: 0.5; stroke-linejoin: miter"/>
   </g>
   <g id="patch_33">
    <path d="M 93.36281 454.939125 
L 114.107324 454.939125 
L 114.107324 70.327143 
L 93.36281 70.327143 
z
" clip-path="url(#p2e367860b7)" style="fill: #e07b53; opacity: 0.6; stroke: #000000; stroke-width: 0.5; stroke-linejoin: miter"/>
   </g>
   <g id="patch_34">
    <path d="M 114.107324 454.939125 
L 134.851838 454.939125 
L 134.851838 121.608741 
L 114.107324 121.608741 
z
" clip-path="url(#p2e367860b7)" style="fill: #e07b53; opacity: 0.6; stroke: #000000; stroke-width: 0.5; stroke-linejoin: miter"/>
   </g>
   <g id="patch_35">
    <path d="M 134.851838 454.939125 
L 155.596352 454.939125 
L 155.596352 211.351537 
L 134.851838 211.351537 
z
" clip-path="url(#p2e367860b7)" style="fill: #e07b53; opacity: 0.6; stroke: #000000; stroke-width: 0.5; stroke-linejoin: miter"/>
   </g>
   <g id="patch_36">
    <path d="M 155.596352 454.939125 
L 176.340866 454.939125 
L 176.340866 339.555531 
L 155.596352 339.555531 
z
" clip-path="url(#p2e367860b7)" style="fill: #e07b53; opacity: 0.6; stroke: #000000; stroke-width: 0.5; stroke-linejoin: miter"/>
   </g>
   <g id="patch_37">
    <path d="M 176.340866 454.939125 
L 197.08538 454.939125 
L 197.08538 378.016729 
L 176.340866 378.016729 
z
" clip-path="url(#p2e367860b7)" style="fill: #e07b53; opacity: 0.6; stroke: #000000; stroke-width: 0.5; stroke-linejoin: miter"/>
   </g>
   <g id="patch_38">
    <path d="M 197.08538 454.939125 
L 217.829894 454.939125 
L 217.829894 352.37593 
L 197.08538 352.37593 
z
" clip-path="url(#p2e367860b7)" style="fill: #e07b53; opacity: 0.6; stroke: #000000; stroke-width: 0.5; stroke-linejoin: miter"/>
   </g>
   <g id="patch_39">
    <path d="M 217.829894 454.939125 
L 238.574408 454.939125 
L 238.574408 390.837128 
L 217.829894 390.837128 
z
" clip-path="url(#p2e367860b7)" style="fill: #e07b53; opacity: 0.6; stroke: #000000; stroke-width: 0.5; stroke-linejoin: miter"/>
   </g>
   <g id="patch_40">
    <path d="M 238.574408 454.939125 
L 259.318922 454.939125 
L 259.318922 378.016729 
L 238.574408 378.016729 
z
" clip-path="url(#p2e367860b7)" style="fill: #e07b53; opacity: 0.6; stroke: #000000; stroke-width: 0.5; stroke-linejoin: miter"/>
   </g>
   <g id="patch_41">
    <path d="M 259.318922 454.939125 
L 280.063437 454.939125 
L 280.063437 352.37593 
L 259.318922 352.37593 
z
" clip-path="url(#p2e367860b7)" style="fill: #e07b53; opacity: 0.6; stroke: #000000; stroke-width: 0.5; stroke-linejoin: miter"/>
   </g>
   <g id="patch_42">
    <path d="M 280.063437 454.939125 
L 300.807951 454.939125 
L 300.807951 275.453534 
L 280.063437 275.453534 
z
" clip-path="url(#p2e367860b7)" style="fill: #e07b53; opacity: 0.6; stroke: #000000; stroke-width: 0.5; stroke-linejoin: miter"/>
   </g>
   <g id="patch_43">
    <path d="M 300.807951 454.939125 
L 321.552465 454.939125 
L 321.552465 262.633134 
L 300.807951 262.633134 
z
" clip-path="url(#p2e367860b7)" style="fill: #e07b53; opacity: 0.6; stroke: #000000; stroke-width: 0.5; stroke-linejoin: miter"/>
   </g>
   <g id="patch_44">
    <path d="M 321.552465 454.939125 
L 342.296979 454.939125 
L 342.296979 352.37593 
L 321.552465 352.37593 
z
" clip-path="url(#p2e367860b7)" style="fill: #e07b53; opacity: 0.6; stroke: #000000; stroke-width: 0.5; stroke-linejoin: miter"/>
   </g>
   <g id="patch_45">
    <path d="M 342.296979 454.939125 
L 363.041493 454.939125 
L 363.041493 339.555531 
L 342.296979 339.555531 
z
" clip-path="url(#p2e367860b7)" style="fill: #e07b53; opacity: 0.6; stroke: #000000; stroke-width: 0.5; stroke-linejoin: miter"/>
   </g>
   <g id="patch_46">
    <path d="M 363.041493 454.939125 
L 383.786007 454.939125 
L 383.786007 313.914732 
L 363.041493 313.914732 
z
" clip-path="url(#p2e367860b7)" style="fill: #e07b53; opacity: 0.6; stroke: #000000; stroke-width: 0.5; stroke-linejoin: miter"/>
   </g>
   <g id="patch_47">
    <path d="M 383.786007 454.939125 
L 404.530521 454.939125 
L 404.530521 378.016729 
L 383.786007 378.016729 
z
" clip-path="url(#p2e367860b7)" style="fill: #e07b53; opacity: 0.6; stroke: #000000; stroke-width: 0.5; stroke-linejoin: miter"/>
   </g>
   <g id="patch_48">
    <path d="M 404.530521 454.939125 
L 425.275035 454.939125 
L 425.275035 416.477927 
L 404.530521 416.477927 
z
" clip-path="url(#p2e367860b7)" style="fill: #e07b53; opacity: 0.6; stroke: #000000; stroke-width: 0.5; stroke-linejoin: miter"/>
   </g>
   <g id="patch_49">
    <path d="M 425.275035 454.939125 
L 446.019549 454.939125 
L 446.019549 416.477927 
L 425.275035 416.477927 
z
" clip-path="url(#p2e367860b7)" style="fill: #e07b53; opacity: 0.6; stroke: #000000; stroke-width: 0.5; stroke-linejoin: miter"/>
   </g>
   <g id="patch_50">
    <path d="M 446.019549 454.939125 
L 466.764063 454.939125 
L 466.764063 454.939125 
L 446.019549 454.939125 
z
" clip-path="url(#p2e367860b7)" style="fill: #e07b53; opacity: 0.6; stroke: #000000; stroke-width: 0.5; stroke-linejoin: miter"/>
   </g>
   <g id="patch_51">
    <path d="M 466.764063 454.939125 
L 487.508578 454.939125 
L 487.508578 442.118726 
L 466.764063 442.118726 
z
" clip-path="url(#p2e367860b7)" style="fill: #e07b53; opacity: 0.6; stroke: #000000; stroke-width: 0.5; stroke-linejoin: miter"/>
   </g>
   <g id="patch_52">
    <path d="M 487.508578 454.939125 
L 508.253092 454.939125 
L 508.253092 442.118726 
L 487.508578 442.118726 
z
" clip-path="url(#p2e367860b7)" style="fill: #e07b53; opacity: 0.6; stroke: #000000; stroke-width: 0.5; stroke-linejoin: miter"/>
   </g>
   <g id="patch_53">
    <path d="M 508.253092 454.939125 
L 528.997606 454.939125 
L 528.997606 454.939125 
L 508.253092 454.939125 
z
" clip-path="url(#p2e367860b7)" style="fill: #e07b53; opacity: 0.6; stroke: #000000; stroke-width: 0.5; stroke-linejoin: miter"/>
   </g>
   <g id="patch_54">
    <path d="M 528.997606 454.939125 
L 549.74212 454.939125 
L 549.74212 442.118726 
L 528.997606 442.118726 
z
" clip-path="url(#p2e367860b7)" style="fill: #e07b53; opacity: 0.6; stroke: #000000; stroke-width: 0.5; stroke-linejoin: miter"/>
   </g>
   <g id="patch_55">
    <path d="M 549.74212 454.939125 
L 570.486634 454.939125 
L 570.486634 442.118726 
L 549.74212 442.118726 
z
" clip-path="url(#p2e367860b7)" style="fill: #e07b53; opacity: 0.6; stroke: #000000; stroke-width: 0.5; stroke-linejoin: miter"/>
   </g>
   <g id="patch_56">
    <path d="M 570.486634 454.939125 
L 591.231148 454.939125 
L 591.231148 429.298326 
L 570.486634 429.298326 
z
" clip-path="url(#p2e367860b7)" style="fill: #e07b53; opacity: 0.6; stroke: #000000; stroke-width: 0.5; stroke-linejoin: miter"/>
   </g>
   <g id="patch_57">
    <path d="M 591.231148 454.939125 
L 611.975662 454.939125 
L 611.975662 454.939125 
L 591.231148 454.939125 
z
" clip-path="url(#p2e367860b7)" style="fill: #e07b53; opacity: 0.6; stroke: #000000; stroke-width: 0.5; stroke-linejoin: miter"/>
   </g>
   <g id="patch_58">
    <path d="M 611.975662 454.939125 
L 632.720176 454.939125 
L 632.720176 454.939125 
L 611.975662 454.939125 
z
" clip-path="url(#p2e367860b7)" style="fill: #e07b53; opacity: 0.6; stroke: #000000; stroke-width: 0.5; stroke-linejoin: miter"/>
   </g>
   <g id="patch_59">
    <path d="M 632.720176 454.939125 
L 653.46469 454.939125 
L 653.46469 442.118726 
L 632.720176 442.118726 
z
" clip-path="url(#p2e367860b7)" style="fill: #e07b53; opacity: 0.6; stroke: #000000; stroke-width: 0.5; stroke-linejoin: miter"/>
   </g>
   <g id="patch_60">
    <path d="M 653.46469 454.939125 
L 674.209205 454.939125 
L 674.209205 442.118726 
L 653.46469 442.118726 
z
" clip-path="url(#p2e367860b7)" style="fill: #e07b53; opacity: 0.6; stroke: #000000; stroke-width: 0.5; stroke-linejoin: miter"/>
   </g>
   <g id="matplotlib.axis_1">
    <g id="xtick_1">
     <g id="line2d_1">
      <path d="M 72.618295 454.939125 
L 72.618295 37.635125 
" clip-path="url(#p2e367860b7)" style="fill: none; stroke: #b0b0b0; stroke-opacity: 0.3; stroke-width: 0.8; stroke-linecap: square"/>
     </g>
     <g id="line2d_2">
      <defs>
       <path id="maad9c3870a" d="M 0 0 
L 0 3.5 
" style="stroke: #000000; stroke-width: 0.8"/>
      </defs>
      <g>
       <use xlink:href="#maad9c3870a" x="72.618295" y="454.939125" style="stroke: #000000; stroke-width: 0.8"/>
      </g>
     </g>
     <g id="text_1">
      <!-- 0.00 -->
      <g transform="translate(61.485483 469.537562) scale(0.1 -0.1)">
       <defs>
        <path id="DejaVuSans-30" d="M 2034 4250 
Q 1547 4250 1301 3770 
Q 1056 3291 1056 2328 
Q 1056 1369 1301 889 
Q 1547 409 2034 409 
Q 2525 409 2770 889 
Q 3016 1369 3016 2328 
Q 3016 3291 2770 3770 
Q 2525 4250 2034 4250 
z
M 2034 4750 
Q 2819 4750 3233 4129 
Q 3647 3509 3647 2328 
Q 3647 1150 3233 529 
Q 2819 -91 2034 -91 
Q 1250 -91 836 529 
Q 422 1150 422 2328 
Q 422 3509 836 4129 
Q 1250 4750 2034 4750 
z
" transform="scale(0.015625)"/>
        <path id="DejaVuSans-2e" d="M 684 794 
L 1344 794 
L 1344 0 
L 684 0 
L 684 794 
z
" transform="scale(0.015625)"/>
       </defs>
       <use xlink:href="#DejaVuSans-30"/>
       <use xlink:href="#DejaVuSans-2e" transform="translate(63.623047 0)"/>
       <use xlink:href="#DejaVuSans-30" transform="translate(95.410156 0)"/>
       <use xlink:href="#DejaVuSans-30" transform="translate(159.033203 0)"/>
      </g>
     </g>
    </g>
    <g id="xtick_2">
     <g id="line2d_3">
      <path d="M 164.134667 454.939125 
L 164.134667 37.635125 
" clip-path="url(#p2e367860b7)" style="fill: none; stroke: #b0b0b0; stroke-opacity: 0.3; stroke-width: 0.8; stroke-linecap: square"/>
     </g>
     <g id="line2d_4">
      <g>
       <use xlink:href="#maad9c3870a" x="164.134667" y="454.939125" style="stroke: #000000; stroke-width: 0.8"/>
      </g>
     </g>
     <g id="text_2">
      <!-- 0.05 -->
      <g transform="translate(153.001855 469.537562) scale(0.1 -0.1)">
       <defs>
        <path id="DejaVuSans-35" d="M 691 4666 
L 3169 4666 
L 3169 4134 
L 1269 4134 
L 1269 2991 
Q 1406 3038 1543 3061 
Q 1681 3084 1819 3084 
Q 2600 3084 3056 2656 
Q 3513 2228 3513 1497 
Q 3513 744 3044 326 
Q 2575 -91 1722 -91 
Q 1428 -91 1123 -41 
Q 819 9 494 109 
L 494 744 
Q 775 591 1075 516 
Q 1375 441 1709 441 
Q 2250 441 2565 725 
Q 2881 1009 2881 1497 
Q 2881 1984 2565 2268 
Q 2250 2553 1709 2553 
Q 1456 2553 1204 2497 
Q 953 2441 691 2322 
L 691 4666 
z
" transform="scale(0.015625)"/>
       </defs>
       <use xlink:href="#DejaVuSans-30"/>
       <use xlink:href="#DejaVuSans-2e" transform="translate(63.623047 0)"/>
       <use xlink:href="#DejaVuSans-30" transform="translate(95.410156 0)"/>
       <use xlink:href="#DejaVuSans-35" transform="translate(159.033203 0)"/>
      </g>
     </g>
    </g>
    <g id="xtick_3">
     <g id="line2d_5">
      <path d="M 255.651039 454.939125 
L 255.651039 37.635125 
" clip-path="url(#p2e367860b7)" style="fill: none; stroke: #b0b0b0; stroke-opacity: 0.3; stroke-width: 0.8; stroke-linecap: square"/>
     </g>
     <g id="line2d_6">
      <g>
       <use xlink:href="#maad9c3870a" x="255.651039" y="454.939125" style="stroke: #000000; stroke-width: 0.8"/>
      </g>
     </g>
     <g id="text_3">
      <!-- 0.10 -->
      <g transform="translate(244.518227 469.537562) scale(0.1 -0.1)">
       <defs>
        <path id="DejaVuSans-31" d="M 794 531 
L 1825 531 
L 1825 4091 
L 703 3866 
L 703 4441 
L 1819 4666 
L 2450 4666 
L 2450 531 
L 3481 531 
L 3481 0 
L 794 0 
L 794 531 
z
" transform="scale(0.015625)"/>
       </defs>
       <use xlink:href="#DejaVuSans-30"/>
       <use xlink:href="#DejaVuSans-2e" transform="translate(63.623047 0)"/>
       <use xlink:href="#DejaVuSans-31" transform="translate(95.410156 0)"/>
       <use xlink:href="#DejaVuSans-30" transform="translate(159.033203 0)"/>
      </g>
     </g>
    </g>
    <g id="xtick_4">
     <g id="line2d_7">
      <path d="M 347.167411 454.939125 
L 347.167411 37.635125 
" clip-path="url(#p2e367860b7)" style="fill: none; stroke: #b0b0b0; stroke-opacity: 0.3; stroke-width: 0.8; stroke-linecap: square"/>
     </g>
     <g id="line2d_8">
      <g>
       <use xlink:href="#maad9c3870a" x="347.167411" y="454.939125" style="stroke: #000000; stroke-width: 0.8"/>
      </g>
     </g>
     <g id="text_4">
      <!-- 0.15 -->
      <g transform="translate(336.034599 469.537562) scale(0.1 -0.1)">
       <use xlink:href="#DejaVuSans-30"/>
       <use xlink:href="#DejaVuSans-2e" transform="translate(63.623047 0)"/>
       <use xlink:href="#DejaVuSans-31" transform="translate(95.410156 0)"/>
       <use xlink:href="#DejaVuSans-35" transform="translate(159.033203 0)"/>
      </g>
     </g>
    </g>
    <g id="xtick_5">
     <g id="line2d_9">
      <path d="M 438.683783 454.939125 
L 438.683783 37.635125 
" clip-path="url(#p2e367860b7)" style="fill: none; stroke: #b0b0b0; stroke-opacity: 0.3; stroke-width: 0.8; stroke-linecap: square"/>
     </g>
     <g id="line2d_10">
      <g>
       <use xlink:href="#maad9c3870a" x="438.683783" y="454.939125" style="stroke: #000000; stroke-width: 0.8"/>
      </g>
     </g>
     <g id="text_5">
      <!-- 0.20 -->
      <g transform="translate(427.550971 469.537562) scale(0.1 -0.1)">
       <defs>
        <path id="DejaVuSans-32" d="M 1228 531 
L 3431 531 
L 3431 0 
L 469 0 
L 469 531 
Q 828 903 1448 1529 
Q 2069 2156 2228 2338 
Q 2531 2678 2651 2914 
Q 2772 3150 2772 3378 
Q 2772 3750 2511 3984 
Q 2250 4219 1831 4219 
Q 1534 4219 1204 4116 
Q 875 4013 500 3803 
L 500 4441 
Q 881 4594 1212 4672 
Q 1544 4750 1819 4750 
Q 2544 4750 2975 4387 
Q 3406 4025 3406 3419 
Q 3406 3131 3298 2873 
Q 3191 2616 2906 2266 
Q 2828 2175 2409 1742 
Q 1991 1309 1228 531 
z
" transform="scale(0.015625)"/>
       </defs>
       <use xlink:href="#DejaVuSans-30"/>
       <use xlink:href="#DejaVuSans-2e" transform="translate(63.623047 0)"/>
       <use xlink:href="#DejaVuSans-32" transform="translate(95.410156 0)"/>
       <use xlink:href="#DejaVuSans-30" transform="translate(159.033203 0)"/>
      </g>
     </g>
    </g>
    <g id="xtick_6">
     <g id="line2d_11">
      <path d="M 530.200155 454.939125 
L 530.200155 37.635125 
" clip-path="url(#p2e367860b7)" style="fill: none; stroke: #b0b0b0; stroke-opacity: 0.3; stroke-width: 0.8; stroke-linecap: square"/>
     </g>
     <g id="line2d_12">
      <g>
       <use xlink:href="#maad9c3870a" x="530.200155" y="454.939125" style="stroke: #000000; stroke-width: 0.8"/>
      </g>
     </g>
     <g id="text_6">
      <!-- 0.25 -->
      <g transform="translate(519.067343 469.537562) scale(0.1 -0.1)">
       <use xlink:href="#DejaVuSans-30"/>
       <use xlink:href="#DejaVuSans-2e" transform="translate(63.623047 0)"/>
       <use xlink:href="#DejaVuSans-32" transform="translate(95.410156 0)"/>
       <use xlink:href="#DejaVuSans-35" transform="translate(159.033203 0)"/>
      </g>
     </g>
    </g>
    <g id="xtick_7">
     <g id="line2d_13">
      <path d="M 621.716527 454.939125 
L 621.716527 37.635125 
" clip-path="url(#p2e367860b7)" style="fill: none; stroke: #b0b0b0; stroke-opacity: 0.3; stroke-width: 0.8; stroke-linecap: square"/>
     </g>
     <g id="line2d_14">
      <g>
       <use xlink:href="#maad9c3870a" x="621.716527" y="454.939125" style="stroke: #000000; stroke-width: 0.8"/>
      </g>
     </g>
     <g id="text_7">
      <!-- 0.30 -->
      <g transform="translate(610.583715 469.537562) scale(0.1 -0.1)">
       <defs>
        <path id="DejaVuSans-33" d="M 2597 2516 
Q 3050 2419 3304 2112 
Q 3559 1806 3559 1356 
Q 3559 666 3084 287 
Q 2609 -91 1734 -91 
Q 1441 -91 1130 -33 
Q 819 25 488 141 
L 488 750 
Q 750 597 1062 519 
Q 1375 441 1716 441 
Q 2309 441 2620 675 
Q 2931 909 2931 1356 
Q 2931 1769 2642 2001 
Q 2353 2234 1838 2234 
L 1294 2234 
L 1294 2753 
L 1863 2753 
Q 2328 2753 2575 2939 
Q 2822 3125 2822 3475 
Q 2822 3834 2567 4026 
Q 2313 4219 1838 4219 
Q 1578 4219 1281 4162 
Q 984 4106 628 3988 
L 628 4550 
Q 988 4650 1302 4700 
Q 1616 4750 1894 4750 
Q 2613 4750 3031 4423 
Q 3450 4097 3450 3541 
Q 3450 3153 3228 2886 
Q 3006 2619 2597 2516 
z
" transform="scale(0.015625)"/>
       </defs>
       <use xlink:href="#DejaVuSans-30"/>
       <use xlink:href="#DejaVuSans-2e" transform="translate(63.623047 0)"/>
       <use xlink:href="#DejaVuSans-33" transform="translate(95.410156 0)"/>
       <use xlink:href="#DejaVuSans-30" transform="translate(159.033203 0)"/>
      </g>
     </g>
    </g>
    <g id="text_8">
     <!-- Drift Difference -->
     <g transform="translate(327.374062 484.735375) scale(0.12 -0.12)">
      <defs>
       <path id="DejaVuSans-44" d="M 1259 4147 
L 1259 519 
L 2022 519 
Q 2988 519 3436 956 
Q 3884 1394 3884 2338 
Q 3884 3275 3436 3711 
Q 2988 4147 2022 4147 
L 1259 4147 
z
M 628 4666 
L 1925 4666 
Q 3281 4666 3915 4102 
Q 4550 3538 4550 2338 
Q 4550 1131 3912 565 
Q 3275 0 1925 0 
L 628 0 
L 628 4666 
z
" transform="scale(0.015625)"/>
       <path id="DejaVuSans-72" d="M 2631 2963 
Q 2534 3019 2420 3045 
Q 2306 3072 2169 3072 
Q 1681 3072 1420 2755 
Q 1159 2438 1159 1844 
L 1159 0 
L 581 0 
L 581 3500 
L 1159 3500 
L 1159 2956 
Q 1341 3275 1631 3429 
Q 1922 3584 2338 3584 
Q 2397 3584 2469 3576 
Q 2541 3569 2628 3553 
L 2631 2963 
z
" transform="scale(0.015625)"/>
       <path id="DejaVuSans-69" d="M 603 3500 
L 1178 3500 
L 1178 0 
L 603 0 
L 603 3500 
z
M 603 4863 
L 1178 4863 
L 1178 4134 
L 603 4134 
L 603 4863 
z
" transform="scale(0.015625)"/>
       <path id="DejaVuSans-66" d="M 2375 4863 
L 2375 4384 
L 1825 4384 
Q 1516 4384 1395 4259 
Q 1275 4134 1275 3809 
L 1275 3500 
L 2222 3500 
L 2222 3053 
L 1275 3053 
L 1275 0 
L 697 0 
L 697 3053 
L 147 3053 
L 147 3500 
L 697 3500 
L 697 3744 
Q 697 4328 969 4595 
Q 1241 4863 1831 4863 
L 2375 4863 
z
" transform="scale(0.015625)"/>
       <path id="DejaVuSans-74" d="M 1172 4494 
L 1172 3500 
L 2356 3500 
L 2356 3053 
L 1172 3053 
L 1172 1153 
Q 1172 725 1289 603 
Q 1406 481 1766 481 
L 2356 481 
L 2356 0 
L 1766 0 
Q 1100 0 847 248 
Q 594 497 594 1153 
L 594 3053 
L 172 3053 
L 172 3500 
L 594 3500 
L 594 4494 
L 1172 4494 
z
" transform="scale(0.015625)"/>
       <path id="DejaVuSans-20" transform="scale(0.015625)"/>
       <path id="DejaVuSans-65" d="M 3597 1894 
L 3597 1613 
L 953 1613 
Q 991 1019 1311 708 
Q 1631 397 2203 397 
Q 2534 397 2845 478 
Q 3156 559 3463 722 
L 3463 178 
Q 3153 47 2828 -22 
Q 2503 -91 2169 -91 
Q 1331 -91 842 396 
Q 353 884 353 1716 
Q 353 2575 817 3079 
Q 1281 3584 2069 3584 
Q 2775 3584 3186 3129 
Q 3597 2675 3597 1894 
z
M 3022 2063 
Q 3016 2534 2758 2815 
Q 2500 3097 2075 3097 
Q 1594 3097 1305 2825 
Q 1016 2553 972 2059 
L 3022 2063 
z
" transform="scale(0.015625)"/>
       <path id="DejaVuSans-6e" d="M 3513 2113 
L 3513 0 
L 2938 0 
L 2938 2094 
Q 2938 2591 2744 2837 
Q 2550 3084 2163 3084 
Q 1697 3084 1428 2787 
Q 1159 2491 1159 1978 
L 1159 0 
L 581 0 
L 581 3500 
L 1159 3500 
L 1159 2956 
Q 1366 3272 1645 3428 
Q 1925 3584 2291 3584 
Q 2894 3584 3203 3211 
Q 3513 2838 3513 2113 
z
" transform="scale(0.015625)"/>
       <path id="DejaVuSans-63" d="M 3122 3366 
L 3122 2828 
Q 2878 2963 2633 3030 
Q 2388 3097 2138 3097 
Q 1578 3097 1268 2742 
Q 959 2388 959 1747 
Q 959 1106 1268 751 
Q 1578 397 2138 397 
Q 2388 397 2633 464 
Q 2878 531 3122 666 
L 3122 134 
Q 2881 22 2623 -34 
Q 2366 -91 2075 -91 
Q 1284 -91 818 406 
Q 353 903 353 1747 
Q 353 2603 823 3093 
Q 1294 3584 2113 3584 
Q 2378 3584 2631 3529 
Q 2884 3475 3122 3366 
z
" transform="scale(0.015625)"/>
      </defs>
      <use xlink:href="#DejaVuSans-44"/>
      <use xlink:href="#DejaVuSans-72" transform="translate(77.001953 0)"/>
      <use xlink:href="#DejaVuSans-69" transform="translate(118.115234 0)"/>
      <use xlink:href="#DejaVuSans-66" transform="translate(145.898438 0)"/>
      <use xlink:href="#DejaVuSans-74" transform="translate(179.353516 0)"/>
      <use xlink:href="#DejaVuSans-20" transform="translate(218.5625 0)"/>
      <use xlink:href="#DejaVuSans-44" transform="translate(250.349609 0)"/>
      <use xlink:href="#DejaVuSans-69" transform="translate(327.351562 0)"/>
      <use xlink:href="#DejaVuSans-66" transform="translate(355.134766 0)"/>
      <use xlink:href="#DejaVuSans-66" transform="translate(390.339844 0)"/>
      <use xlink:href="#DejaVuSans-65" transform="translate(425.544922 0)"/>
      <use xlink:href="#DejaVuSans-72" transform="translate(487.068359 0)"/>
      <use xlink:href="#DejaVuSans-65" transform="translate(525.931641 0)"/>
      <use xlink:href="#DejaVuSans-6e" transform="translate(587.455078 0)"/>
      <use xlink:href="#DejaVuSans-63" transform="translate(650.833984 0)"/>
      <use xlink:href="#DejaVuSans-65" transform="translate(705.814453 0)"/>
     </g>
    </g>
   </g>
   <g id="matplotlib.axis_2">
    <g id="ytick_1">
     <g id="line2d_15">
      <path d="M 42.53875 454.939125 
L 704.28875 454.939125 
" clip-path="url(#p2e367860b7)" style="fill: none; stroke: #b0b0b0; stroke-opacity: 0.3; stroke-width: 0.8; stroke-linecap: square"/>
     </g>
     <g id="line2d_16">
      <defs>
       <path id="mb36ac93651" d="M 0 0 
L -3.5 0 
" style="stroke: #000000; stroke-width: 0.8"/>
      </defs>
      <g>
       <use xlink:href="#mb36ac93651" x="42.53875" y="454.939125" style="stroke: #000000; stroke-width: 0.8"/>
      </g>
     </g>
     <g id="text_9">
      <!-- 0 -->
      <g transform="translate(29.17625 458.738344) scale(0.1 -0.1)">
       <use xlink:href="#DejaVuSans-30"/>
      </g>
     </g>
    </g>
    <g id="ytick_2">
     <g id="line2d_17">
      <path d="M 42.53875 390.837128 
L 704.28875 390.837128 
" clip-path="url(#p2e367860b7)" style="fill: none; stroke: #b0b0b0; stroke-opacity: 0.3; stroke-width: 0.8; stroke-linecap: square"/>
     </g>
     <g id="line2d_18">
      <g>
       <use xlink:href="#mb36ac93651" x="42.53875" y="390.837128" style="stroke: #000000; stroke-width: 0.8"/>
      </g>
     </g>
     <g id="text_10">
      <!-- 5 -->
      <g transform="translate(29.17625 394.636347) scale(0.1 -0.1)">
       <use xlink:href="#DejaVuSans-35"/>
      </g>
     </g>
    </g>
    <g id="ytick_3">
     <g id="line2d_19">
      <path d="M 42.53875 326.735131 
L 704.28875 326.735131 
" clip-path="url(#p2e367860b7)" style="fill: none; stroke: #b0b0b0; stroke-opacity: 0.3; stroke-width: 0.8; stroke-linecap: square"/>
     </g>
     <g id="line2d_20">
      <g>
       <use xlink:href="#mb36ac93651" x="42.53875" y="326.735131" style="stroke: #000000; stroke-width: 0.8"/>
      </g>
     </g>
     <g id="text_11">
      <!-- 10 -->
      <g transform="translate(22.81375 330.53435) scale(0.1 -0.1)">
       <use xlink:href="#DejaVuSans-31"/>
       <use xlink:href="#DejaVuSans-30" transform="translate(63.623047 0)"/>
      </g>
     </g>
    </g>
    <g id="ytick_4">
     <g id="line2d_21">
      <path d="M 42.53875 262.633134 
L 704.28875 262.633134 
" clip-path="url(#p2e367860b7)" style="fill: none; stroke: #b0b0b0; stroke-opacity: 0.3; stroke-width: 0.8; stroke-linecap: square"/>
     </g>
     <g id="line2d_22">
      <g>
       <use xlink:href="#mb36ac93651" x="42.53875" y="262.633134" style="stroke: #000000; stroke-width: 0.8"/>
      </g>
     </g>
     <g id="text_12">
      <!-- 15 -->
      <g transform="translate(22.81375 266.432353) scale(0.1 -0.1)">
       <use xlink:href="#DejaVuSans-31"/>
       <use xlink:href="#DejaVuSans-35" transform="translate(63.623047 0)"/>
      </g>
     </g>
    </g>
    <g id="ytick_5">
     <g id="line2d_23">
      <path d="M 42.53875 198.531137 
L 704.28875 198.531137 
" clip-path="url(#p2e367860b7)" style="fill: none; stroke: #b0b0b0; stroke-opacity: 0.3; stroke-width: 0.8; stroke-linecap: square"/>
     </g>
     <g id="line2d_24">
      <g>
       <use xlink:href="#mb36ac93651" x="42.53875" y="198.531137" style="stroke: #000000; stroke-width: 0.8"/>
      </g>
     </g>
     <g id="text_13">
      <!-- 20 -->
      <g transform="translate(22.81375 202.330356) scale(0.1 -0.1)">
       <use xlink:href="#DejaVuSans-32"/>
       <use xlink:href="#DejaVuSans-30" transform="translate(63.623047 0)"/>
      </g>
     </g>
    </g>
    <g id="ytick_6">
     <g id="line2d_25">
      <path d="M 42.53875 134.42914 
L 704.28875 134.42914 
" clip-path="url(#p2e367860b7)" style="fill: none; stroke: #b0b0b0; stroke-opacity: 0.3; stroke-width: 0.8; stroke-linecap: square"/>
     </g>
     <g id="line2d_26">
      <g>
       <use xlink:href="#mb36ac93651" x="42.53875" y="134.42914" style="stroke: #000000; stroke-width: 0.8"/>
      </g>
     </g>
     <g id="text_14">
      <!-- 25 -->
      <g transform="translate(22.81375 138.228359) scale(0.1 -0.1)">
       <use xlink:href="#DejaVuSans-32"/>
       <use xlink:href="#DejaVuSans-35" transform="translate(63.623047 0)"/>
      </g>
     </g>
    </g>
    <g id="ytick_7">
     <g id="line2d_27">
      <path d="M 42.53875 70.327143 
L 704.28875 70.327143 
" clip-path="url(#p2e367860b7)" style="fill: none; stroke: #b0b0b0; stroke-opacity: 0.3; stroke-width: 0.8; stroke-linecap: square"/>
     </g>
     <g id="line2d_28">
      <g>
       <use xlink:href="#mb36ac93651" x="42.53875" y="70.327143" style="stroke: #000000; stroke-width: 0.8"/>
      </g>
     </g>
     <g id="text_15">
      <!-- 30 -->
      <g transform="translate(22.81375 74.126362) scale(0.1 -0.1)">
       <use xlink:href="#DejaVuSans-33"/>
       <use xlink:href="#DejaVuSans-30" transform="translate(63.623047 0)"/>
      </g>
     </g>
    </g>
    <g id="text_16">
     <!-- Count -->
     <g transform="translate(16.318125 264.10525) rotate(-90) scale(0.12 -0.12)">
      <defs>
       <path id="DejaVuSans-43" d="M 4122 4306 
L 4122 3641 
Q 3803 3938 3442 4084 
Q 3081 4231 2675 4231 
Q 1875 4231 1450 3742 
Q 1025 3253 1025 2328 
Q 1025 1406 1450 917 
Q 1875 428 2675 428 
Q 3081 428 3442 575 
Q 3803 722 4122 1019 
L 4122 359 
Q 3791 134 3420 21 
Q 3050 -91 2638 -91 
Q 1578 -91 968 557 
Q 359 1206 359 2328 
Q 359 3453 968 4101 
Q 1578 4750 2638 4750 
Q 3056 4750 3426 4639 
Q 3797 4528 4122 4306 
z
" transform="scale(0.015625)"/>
       <path id="DejaVuSans-6f" d="M 1959 3097 
Q 1497 3097 1228 2736 
Q 959 2375 959 1747 
Q 959 1119 1226 758 
Q 1494 397 1959 397 
Q 2419 397 2687 759 
Q 2956 1122 2956 1747 
Q 2956 2369 2687 2733 
Q 2419 3097 1959 3097 
z
M 1959 3584 
Q 2709 3584 3137 3096 
Q 3566 2609 3566 1747 
Q 3566 888 3137 398 
Q 2709 -91 1959 -91 
Q 1206 -91 779 398 
Q 353 888 353 1747 
Q 353 2609 779 3096 
Q 1206 3584 1959 3584 
z
" transform="scale(0.015625)"/>
       <path id="DejaVuSans-75" d="M 544 1381 
L 544 3500 
L 1119 3500 
L 1119 1403 
Q 1119 906 1312 657 
Q 1506 409 1894 409 
Q 2359 409 2629 706 
Q 2900 1003 2900 1516 
L 2900 3500 
L 3475 3500 
L 3475 0 
L 2900 0 
L 2900 538 
Q 2691 219 2414 64 
Q 2138 -91 1772 -91 
Q 1169 -91 856 284 
Q 544 659 544 1381 
z
M 1991 3584 
L 1991 3584 
z
" transform="scale(0.015625)"/>
      </defs>
      <use xlink:href="#DejaVuSans-43"/>
      <use xlink:href="#DejaVuSans-6f" transform="translate(69.824219 0)"/>
      <use xlink:href="#DejaVuSans-75" transform="translate(131.005859 0)"/>
      <use xlink:href="#DejaVuSans-6e" transform="translate(194.384766 0)"/>
      <use xlink:href="#DejaVuSans-74" transform="translate(257.763672 0)"/>
     </g>
    </g>
   </g>
   <g id="patch_61">
    <path d="M 42.53875 454.939125 
L 42.53875 37.635125 
" style="fill: none; stroke: #cccccc; stroke-width: 0.8; stroke-linejoin: miter; stroke-linecap: square"/>
   </g>
   <g id="patch_62">
    <path d="M 704.28875 454.939125 
L 704.28875 37.635125 
" style="fill: none; stroke: #cccccc; stroke-width: 0.8; stroke-linejoin: miter; stroke-linecap: square"/>
   </g>
   <g id="patch_63">
    <path d="M 42.53875 454.939125 
L 704.28875 454.939125 
" style="fill: none; stroke: #cccccc; stroke-width: 0.8; stroke-linejoin: miter; stroke-linecap: square"/>
   </g>
   <g id="patch_64">
    <path d="M 42.53875 37.635125 
L 704.28875 37.635125 
" style="fill: none; stroke: #cccccc; stroke-width: 0.8; stroke-linejoin: miter; stroke-linecap: square"/>
   </g>
   <g id="text_17">
    <!-- Distribution of Cross-Model Drift Differences -->
    <g transform="translate(209.404531 17.077969) scale(0.13 -0.13)">
     <defs>
      <path id="DejaVuSans-Bold-44" d="M 1791 3756 
L 1791 909 
L 2222 909 
Q 2959 909 3348 1275 
Q 3738 1641 3738 2338 
Q 3738 3031 3350 3393 
Q 2963 3756 2222 3756 
L 1791 3756 
z
M 588 4666 
L 1856 4666 
Q 2919 4666 3439 4514 
Q 3959 4363 4331 4000 
Q 4659 3684 4818 3271 
Q 4978 2859 4978 2338 
Q 4978 1809 4818 1395 
Q 4659 981 4331 666 
Q 3956 303 3431 151 
Q 2906 0 1856 0 
L 588 0 
L 588 4666 
z
" transform="scale(0.015625)"/>
      <path id="DejaVuSans-Bold-69" d="M 538 3500 
L 1656 3500 
L 1656 0 
L 538 0 
L 538 3500 
z
M 538 4863 
L 1656 4863 
L 1656 3950 
L 538 3950 
L 538 4863 
z
" transform="scale(0.015625)"/>
      <path id="DejaVuSans-Bold-73" d="M 3272 3391 
L 3272 2541 
Q 2913 2691 2578 2766 
Q 2244 2841 1947 2841 
Q 1628 2841 1473 2761 
Q 1319 2681 1319 2516 
Q 1319 2381 1436 2309 
Q 1553 2238 1856 2203 
L 2053 2175 
Q 2913 2066 3209 1816 
Q 3506 1566 3506 1031 
Q 3506 472 3093 190 
Q 2681 -91 1863 -91 
Q 1516 -91 1145 -36 
Q 775 19 384 128 
L 384 978 
Q 719 816 1070 734 
Q 1422 653 1784 653 
Q 2113 653 2278 743 
Q 2444 834 2444 1013 
Q 2444 1163 2330 1236 
Q 2216 1309 1875 1350 
L 1678 1375 
Q 931 1469 631 1722 
Q 331 1975 331 2491 
Q 331 3047 712 3315 
Q 1094 3584 1881 3584 
Q 2191 3584 2531 3537 
Q 2872 3491 3272 3391 
z
" transform="scale(0.015625)"/>
      <path id="DejaVuSans-Bold-74" d="M 1759 4494 
L 1759 3500 
L 2913 3500 
L 2913 2700 
L 1759 2700 
L 1759 1216 
Q 1759 972 1856 886 
Q 1953 800 2241 800 
L 2816 800 
L 2816 0 
L 1856 0 
Q 1194 0 917 276 
Q 641 553 641 1216 
L 641 2700 
L 84 2700 
L 84 3500 
L 641 3500 
L 641 4494 
L 1759 4494 
z
" transform="scale(0.015625)"/>
      <path id="DejaVuSans-Bold-72" d="M 3138 2547 
Q 2991 2616 2845 2648 
Q 2700 2681 2553 2681 
Q 2122 2681 1889 2404 
Q 1656 2128 1656 1613 
L 1656 0 
L 538 0 
L 538 3500 
L 1656 3500 
L 1656 2925 
Q 1872 3269 2151 3426 
Q 2431 3584 2822 3584 
Q 2878 3584 2943 3579 
Q 3009 3575 3134 3559 
L 3138 2547 
z
" transform="scale(0.015625)"/>
      <path id="DejaVuSans-Bold-62" d="M 2400 722 
Q 2759 722 2948 984 
Q 3138 1247 3138 1747 
Q 3138 2247 2948 2509 
Q 2759 2772 2400 2772 
Q 2041 2772 1848 2508 
Q 1656 2244 1656 1747 
Q 1656 1250 1848 986 
Q 2041 722 2400 722 
z
M 1656 2988 
Q 1888 3294 2169 3439 
Q 2450 3584 2816 3584 
Q 3463 3584 3878 3070 
Q 4294 2556 4294 1747 
Q 4294 938 3878 423 
Q 3463 -91 2816 -91 
Q 2450 -91 2169 54 
Q 1888 200 1656 506 
L 1656 0 
L 538 0 
L 538 4863 
L 1656 4863 
L 1656 2988 
z
" transform="scale(0.015625)"/>
      <path id="DejaVuSans-Bold-75" d="M 500 1363 
L 500 3500 
L 1625 3500 
L 1625 3150 
Q 1625 2866 1622 2436 
Q 1619 2006 1619 1863 
Q 1619 1441 1641 1255 
Q 1663 1069 1716 984 
Q 1784 875 1895 815 
Q 2006 756 2150 756 
Q 2500 756 2700 1025 
Q 2900 1294 2900 1772 
L 2900 3500 
L 4019 3500 
L 4019 0 
L 2900 0 
L 2900 506 
Q 2647 200 2364 54 
Q 2081 -91 1741 -91 
Q 1134 -91 817 281 
Q 500 653 500 1363 
z
" transform="scale(0.015625)"/>
      <path id="DejaVuSans-Bold-6f" d="M 2203 2784 
Q 1831 2784 1636 2517 
Q 1441 2250 1441 1747 
Q 1441 1244 1636 976 
Q 1831 709 2203 709 
Q 2569 709 2762 976 
Q 2956 1244 2956 1747 
Q 2956 2250 2762 2517 
Q 2569 2784 2203 2784 
z
M 2203 3584 
Q 3106 3584 3614 3096 
Q 4122 2609 4122 1747 
Q 4122 884 3614 396 
Q 3106 -91 2203 -91 
Q 1297 -91 786 396 
Q 275 884 275 1747 
Q 275 2609 786 3096 
Q 1297 3584 2203 3584 
z
" transform="scale(0.015625)"/>
      <path id="DejaVuSans-Bold-6e" d="M 4056 2131 
L 4056 0 
L 2931 0 
L 2931 347 
L 2931 1631 
Q 2931 2084 2911 2256 
Q 2891 2428 2841 2509 
Q 2775 2619 2662 2680 
Q 2550 2741 2406 2741 
Q 2056 2741 1856 2470 
Q 1656 2200 1656 1722 
L 1656 0 
L 538 0 
L 538 3500 
L 1656 3500 
L 1656 2988 
Q 1909 3294 2193 3439 
Q 2478 3584 2822 3584 
Q 3428 3584 3742 3212 
Q 4056 2841 4056 2131 
z
" transform="scale(0.015625)"/>
      <path id="DejaVuSans-Bold-20" transform="scale(0.015625)"/>
      <path id="DejaVuSans-Bold-66" d="M 2841 4863 
L 2841 4128 
L 2222 4128 
Q 1984 4128 1890 4042 
Q 1797 3956 1797 3744 
L 1797 3500 
L 2753 3500 
L 2753 2700 
L 1797 2700 
L 1797 0 
L 678 0 
L 678 2700 
L 122 2700 
L 122 3500 
L 678 3500 
L 678 3744 
Q 678 4316 997 4589 
Q 1316 4863 1984 4863 
L 2841 4863 
z
" transform="scale(0.015625)"/>
      <path id="DejaVuSans-Bold-43" d="M 4288 256 
Q 3956 84 3597 -3 
Q 3238 -91 2847 -91 
Q 1681 -91 1000 561 
Q 319 1213 319 2328 
Q 319 3447 1000 4098 
Q 1681 4750 2847 4750 
Q 3238 4750 3597 4662 
Q 3956 4575 4288 4403 
L 4288 3438 
Q 3953 3666 3628 3772 
Q 3303 3878 2944 3878 
Q 2300 3878 1931 3465 
Q 1563 3053 1563 2328 
Q 1563 1606 1931 1193 
Q 2300 781 2944 781 
Q 3303 781 3628 887 
Q 3953 994 4288 1222 
L 4288 256 
z
" transform="scale(0.015625)"/>
      <path id="DejaVuSans-Bold-2d" d="M 347 2297 
L 2309 2297 
L 2309 1388 
L 347 1388 
L 347 2297 
z
" transform="scale(0.015625)"/>
      <path id="DejaVuSans-Bold-4d" d="M 588 4666 
L 2119 4666 
L 3181 2169 
L 4250 4666 
L 5778 4666 
L 5778 0 
L 4641 0 
L 4641 3413 
L 3566 897 
L 2803 897 
L 1728 3413 
L 1728 0 
L 588 0 
L 588 4666 
z
" transform="scale(0.015625)"/>
      <path id="DejaVuSans-Bold-64" d="M 2919 2988 
L 2919 4863 
L 4044 4863 
L 4044 0 
L 2919 0 
L 2919 506 
Q 2688 197 2409 53 
Q 2131 -91 1766 -91 
Q 1119 -91 703 423 
Q 288 938 288 1747 
Q 288 2556 703 3070 
Q 1119 3584 1766 3584 
Q 2128 3584 2408 3439 
Q 2688 3294 2919 2988 
z
M 2181 722 
Q 2541 722 2730 984 
Q 2919 1247 2919 1747 
Q 2919 2247 2730 2509 
Q 2541 2772 2181 2772 
Q 1825 2772 1636 2509 
Q 1447 2247 1447 1747 
Q 1447 1247 1636 984 
Q 1825 722 2181 722 
z
" transform="scale(0.015625)"/>
      <path id="DejaVuSans-Bold-65" d="M 4031 1759 
L 4031 1441 
L 1416 1441 
Q 1456 1047 1700 850 
Q 1944 653 2381 653 
Q 2734 653 3104 758 
Q 3475 863 3866 1075 
L 3866 213 
Q 3469 63 3072 -14 
Q 2675 -91 2278 -91 
Q 1328 -91 801 392 
Q 275 875 275 1747 
Q 275 2603 792 3093 
Q 1309 3584 2216 3584 
Q 3041 3584 3536 3087 
Q 4031 2591 4031 1759 
z
M 2881 2131 
Q 2881 2450 2695 2645 
Q 2509 2841 2209 2841 
Q 1884 2841 1681 2658 
Q 1478 2475 1428 2131 
L 2881 2131 
z
" transform="scale(0.015625)"/>
      <path id="DejaVuSans-Bold-6c" d="M 538 4863 
L 1656 4863 
L 1656 0 
L 538 0 
L 538 4863 
z
" transform="scale(0.015625)"/>
      <path id="DejaVuSans-Bold-63" d="M 3366 3391 
L 3366 2478 
Q 3138 2634 2908 2709 
Q 2678 2784 2431 2784 
Q 1963 2784 1702 2511 
Q 1441 2238 1441 1747 
Q 1441 1256 1702 982 
Q 1963 709 2431 709 
Q 2694 709 2930 787 
Q 3166 866 3366 1019 
L 3366 103 
Q 3103 6 2833 -42 
Q 2563 -91 2291 -91 
Q 1344 -91 809 395 
Q 275 881 275 1747 
Q 275 2613 809 3098 
Q 1344 3584 2291 3584 
Q 2566 3584 2833 3536 
Q 3100 3488 3366 3391 
z
" transform="scale(0.015625)"/>
     </defs>
     <use xlink:href="#DejaVuSans-Bold-44"/>
     <use xlink:href="#DejaVuSans-Bold-69" transform="translate(83.007812 0)"/>
     <use xlink:href="#DejaVuSans-Bold-73" transform="translate(117.285156 0)"/>
     <use xlink:href="#DejaVuSans-Bold-74" transform="translate(176.806641 0)"/>
     <use xlink:href="#DejaVuSans-Bold-72" transform="translate(224.609375 0)"/>
     <use xlink:href="#DejaVuSans-Bold-69" transform="translate(273.925781 0)"/>
     <use xlink:href="#DejaVuSans-Bold-62" transform="translate(308.203125 0)"/>
     <use xlink:href="#DejaVuSans-Bold-75" transform="translate(379.785156 0)"/>
     <use xlink:href="#DejaVuSans-Bold-74" transform="translate(450.976562 0)"/>
     <use xlink:href="#DejaVuSans-Bold-69" transform="translate(498.779297 0)"/>
     <use xlink:href="#DejaVuSans-Bold-6f" transform="translate(533.056641 0)"/>
     <use xlink:href="#DejaVuSans-Bold-6e" transform="translate(601.757812 0)"/>
     <use xlink:href="#DejaVuSans-Bold-20" transform="translate(672.949219 0)"/>
     <use xlink:href="#DejaVuSans-Bold-6f" transform="translate(707.763672 0)"/>
     <use xlink:href="#DejaVuSans-Bold-66" transform="translate(776.464844 0)"/>
     <use xlink:href="#DejaVuSans-Bold-20" transform="translate(819.970703 0)"/>
     <use xlink:href="#DejaVuSans-Bold-43" transform="translate(854.785156 0)"/>
     <use xlink:href="#DejaVuSans-Bold-72" transform="translate(928.173828 0)"/>
     <use xlink:href="#DejaVuSans-Bold-6f" transform="translate(977.490234 0)"/>
     <use xlink:href="#DejaVuSans-Bold-73" transform="translate(1046.191406 0)"/>
     <use xlink:href="#DejaVuSans-Bold-73" transform="translate(1105.712891 0)"/>
     <use xlink:href="#DejaVuSans-Bold-2d" transform="translate(1165.234375 0)"/>
     <use xlink:href="#DejaVuSans-Bold-4d" transform="translate(1206.738281 0)"/>
     <use xlink:href="#DejaVuSans-Bold-6f" transform="translate(1306.25 0)"/>
     <use xlink:href="#DejaVuSans-Bold-64" transform="translate(1374.951172 0)"/>
     <use xlink:href="#DejaVuSans-Bold-65" transform="translate(1446.533203 0)"/>
     <use xlink:href="#DejaVuSans-Bold-6c" transform="translate(1514.355469 0)"/>
     <use xlink:href="#DejaVuSans-Bold-20" transform="translate(1548.632812 0)"/>
     <use xlink:href="#DejaVuSans-Bold-44" transform="translate(1583.447266 0)"/>
     <use xlink:href="#DejaVuSans-Bold-72" transform="translate(1666.455078 0)"/>
     <use xlink:href="#DejaVuSans-Bold-69" transform="translate(1715.771484 0)"/>
     <use xlink:href="#DejaVuSans-Bold-66" transform="translate(1750.048828 0)"/>
     <use xlink:href="#DejaVuSans-Bold-74" transform="translate(1793.554688 0)"/>
     <use xlink:href="#DejaVuSans-Bold-20" transform="translate(1841.357422 0)"/>
     <use xlink:href="#DejaVuSans-Bold-44" transform="translate(1876.171875 0)"/>
     <use xlink:href="#DejaVuSans-Bold-69" transform="translate(1959.179688 0)"/>
     <use xlink:href="#DejaVuSans-Bold-66" transform="translate(1993.457031 0)"/>
     <use xlink:href="#DejaVuSans-Bold-66" transform="translate(2036.962891 0)"/>
     <use xlink:href="#DejaVuSans-Bold-65" transform="translate(2080.46875 0)"/>
     <use xlink:href="#DejaVuSans-Bold-72" transform="translate(2148.291016 0)"/>
     <use xlink:href="#DejaVuSans-Bold-65" transform="translate(2197.607422 0)"/>
     <use xlink:href="#DejaVuSans-Bold-6e" transform="translate(2265.429688 0)"/>
     <use xlink:href="#DejaVuSans-Bold-63" transform="translate(2336.621094 0)"/>
     <use xlink:href="#DejaVuSans-Bold-65" transform="translate(2395.898438 0)"/>
     <use xlink:href="#DejaVuSans-Bold-73" transform="translate(2463.720703 0)"/>
    </g>
    <!-- (Separated distributions = genuine identity differences) -->
    <g transform="translate(166.463906 31.635125) scale(0.13 -0.13)">
     <defs>
      <path id="DejaVuSans-Bold-28" d="M 2413 -844 
L 1484 -844 
Q 1006 -72 778 623 
Q 550 1319 550 2003 
Q 550 2688 779 3389 
Q 1009 4091 1484 4856 
L 2413 4856 
Q 2013 4116 1813 3408 
Q 1613 2700 1613 2009 
Q 1613 1319 1811 609 
Q 2009 -100 2413 -844 
z
" transform="scale(0.015625)"/>
      <path id="DejaVuSans-Bold-53" d="M 3834 4519 
L 3834 3531 
Q 3450 3703 3084 3790 
Q 2719 3878 2394 3878 
Q 1963 3878 1756 3759 
Q 1550 3641 1550 3391 
Q 1550 3203 1689 3098 
Q 1828 2994 2194 2919 
L 2706 2816 
Q 3484 2659 3812 2340 
Q 4141 2022 4141 1434 
Q 4141 663 3683 286 
Q 3225 -91 2284 -91 
Q 1841 -91 1394 -6 
Q 947 78 500 244 
L 500 1259 
Q 947 1022 1364 901 
Q 1781 781 2169 781 
Q 2563 781 2772 912 
Q 2981 1044 2981 1288 
Q 2981 1506 2839 1625 
Q 2697 1744 2272 1838 
L 1806 1941 
Q 1106 2091 782 2419 
Q 459 2747 459 3303 
Q 459 4000 909 4375 
Q 1359 4750 2203 4750 
Q 2588 4750 2994 4692 
Q 3400 4634 3834 4519 
z
" transform="scale(0.015625)"/>
      <path id="DejaVuSans-Bold-70" d="M 1656 506 
L 1656 -1331 
L 538 -1331 
L 538 3500 
L 1656 3500 
L 1656 2988 
Q 1888 3294 2169 3439 
Q 2450 3584 2816 3584 
Q 3463 3584 3878 3070 
Q 4294 2556 4294 1747 
Q 4294 938 3878 423 
Q 3463 -91 2816 -91 
Q 2450 -91 2169 54 
Q 1888 200 1656 506 
z
M 2400 2772 
Q 2041 2772 1848 2508 
Q 1656 2244 1656 1747 
Q 1656 1250 1848 986 
Q 2041 722 2400 722 
Q 2759 722 2948 984 
Q 3138 1247 3138 1747 
Q 3138 2247 2948 2509 
Q 2759 2772 2400 2772 
z
" transform="scale(0.015625)"/>
      <path id="DejaVuSans-Bold-61" d="M 2106 1575 
Q 1756 1575 1579 1456 
Q 1403 1338 1403 1106 
Q 1403 894 1545 773 
Q 1688 653 1941 653 
Q 2256 653 2472 879 
Q 2688 1106 2688 1447 
L 2688 1575 
L 2106 1575 
z
M 3816 1997 
L 3816 0 
L 2688 0 
L 2688 519 
Q 2463 200 2181 54 
Q 1900 -91 1497 -91 
Q 953 -91 614 226 
Q 275 544 275 1050 
Q 275 1666 698 1953 
Q 1122 2241 2028 2241 
L 2688 2241 
L 2688 2328 
Q 2688 2594 2478 2717 
Q 2269 2841 1825 2841 
Q 1466 2841 1156 2769 
Q 847 2697 581 2553 
L 581 3406 
Q 941 3494 1303 3539 
Q 1666 3584 2028 3584 
Q 2975 3584 3395 3211 
Q 3816 2838 3816 1997 
z
" transform="scale(0.015625)"/>
      <path id="DejaVuSans-Bold-3d" d="M 678 3084 
L 4684 3084 
L 4684 2350 
L 678 2350 
L 678 3084 
z
M 678 1663 
L 4684 1663 
L 4684 922 
L 678 922 
L 678 1663 
z
" transform="scale(0.015625)"/>
      <path id="DejaVuSans-Bold-67" d="M 2919 594 
Q 2688 288 2409 144 
Q 2131 0 1766 0 
Q 1125 0 706 504 
Q 288 1009 288 1791 
Q 288 2575 706 3076 
Q 1125 3578 1766 3578 
Q 2131 3578 2409 3434 
Q 2688 3291 2919 2981 
L 2919 3500 
L 4044 3500 
L 4044 353 
Q 4044 -491 3511 -936 
Q 2978 -1381 1966 -1381 
Q 1638 -1381 1331 -1331 
Q 1025 -1281 716 -1178 
L 716 -306 
Q 1009 -475 1290 -558 
Q 1572 -641 1856 -641 
Q 2406 -641 2662 -400 
Q 2919 -159 2919 353 
L 2919 594 
z
M 2181 2772 
Q 1834 2772 1640 2515 
Q 1447 2259 1447 1791 
Q 1447 1309 1634 1061 
Q 1822 813 2181 813 
Q 2531 813 2725 1069 
Q 2919 1325 2919 1791 
Q 2919 2259 2725 2515 
Q 2531 2772 2181 2772 
z
" transform="scale(0.015625)"/>
      <path id="DejaVuSans-Bold-79" d="M 78 3500 
L 1197 3500 
L 2138 1125 
L 2938 3500 
L 4056 3500 
L 2584 -331 
Q 2363 -916 2067 -1148 
Q 1772 -1381 1288 -1381 
L 641 -1381 
L 641 -647 
L 991 -647 
Q 1275 -647 1404 -556 
Q 1534 -466 1606 -231 
L 1638 -134 
L 78 3500 
z
" transform="scale(0.015625)"/>
      <path id="DejaVuSans-Bold-29" d="M 513 -844 
Q 913 -100 1113 609 
Q 1313 1319 1313 2009 
Q 1313 2700 1113 3408 
Q 913 4116 513 4856 
L 1441 4856 
Q 1916 4091 2145 3389 
Q 2375 2688 2375 2003 
Q 2375 1319 2147 623 
Q 1919 -72 1441 -844 
L 513 -844 
z
" transform="scale(0.015625)"/>
     </defs>
     <use xlink:href="#DejaVuSans-Bold-28"/>
     <use xlink:href="#DejaVuSans-Bold-53" transform="translate(45.703125 0)"/>
     <use xlink:href="#DejaVuSans-Bold-65" transform="translate(117.724609 0)"/>
     <use xlink:href="#DejaVuSans-Bold-70" transform="translate(185.546875 0)"/>
     <use xlink:href="#DejaVuSans-Bold-61" transform="translate(257.128906 0)"/>
     <use xlink:href="#DejaVuSans-Bold-72" transform="translate(324.609375 0)"/>
     <use xlink:href="#DejaVuSans-Bold-61" transform="translate(373.925781 0)"/>
     <use xlink:href="#DejaVuSans-Bold-74" transform="translate(441.40625 0)"/>
     <use xlink:href="#DejaVuSans-Bold-65" transform="translate(489.208984 0)"/>
     <use xlink:href="#DejaVuSans-Bold-64" transform="translate(557.03125 0)"/>
     <use xlink:href="#DejaVuSans-Bold-20" transform="translate(628.613281 0)"/>
     <use xlink:href="#DejaVuSans-Bold-64" transform="translate(663.427734 0)"/>
     <use xlink:href="#DejaVuSans-Bold-69" transform="translate(735.009766 0)"/>
     <use xlink:href="#DejaVuSans-Bold-73" transform="translate(769.287109 0)"/>
     <use xlink:href="#DejaVuSans-Bold-74" transform="translate(828.808594 0)"/>
     <use xlink:href="#DejaVuSans-Bold-72" transform="translate(876.611328 0)"/>
     <use xlink:href="#DejaVuSans-Bold-69" transform="translate(925.927734 0)"/>
     <use xlink:href="#DejaVuSans-Bold-62" transform="translate(960.205078 0)"/>
     <use xlink:href="#DejaVuSans-Bold-75" transform="translate(1031.787109 0)"/>
     <use xlink:href="#DejaVuSans-Bold-74" transform="translate(1102.978516 0)"/>
     <use xlink:href="#DejaVuSans-Bold-69" transform="translate(1150.78125 0)"/>
     <use xlink:href="#DejaVuSans-Bold-6f" transform="translate(1185.058594 0)"/>
     <use xlink:href="#DejaVuSans-Bold-6e" transform="translate(1253.759766 0)"/>
     <use xlink:href="#DejaVuSans-Bold-73" transform="translate(1324.951172 0)"/>
     <use xlink:href="#DejaVuSans-Bold-20" transform="translate(1384.472656 0)"/>
     <use xlink:href="#DejaVuSans-Bold-3d" transform="translate(1419.287109 0)"/>
     <use xlink:href="#DejaVuSans-Bold-20" transform="translate(1503.076172 0)"/>
     <use xlink:href="#DejaVuSans-Bold-67" transform="translate(1537.890625 0)"/>
     <use xlink:href="#DejaVuSans-Bold-65" transform="translate(1609.472656 0)"/>
     <use xlink:href="#DejaVuSans-Bold-6e" transform="translate(1677.294922 0)"/>
     <use xlink:href="#DejaVuSans-Bold-75" transform="translate(1748.486328 0)"/>
     <use xlink:href="#DejaVuSans-Bold-69" transform="translate(1819.677734 0)"/>
     <use xlink:href="#DejaVuSans-Bold-6e" transform="translate(1853.955078 0)"/>
     <use xlink:href="#DejaVuSans-Bold-65" transform="translate(1925.146484 0)"/>
     <use xlink:href="#DejaVuSans-Bold-20" transform="translate(1992.96875 0)"/>
     <use xlink:href="#DejaVuSans-Bold-69" transform="translate(2027.783203 0)"/>
     <use xlink:href="#DejaVuSans-Bold-64" transform="translate(2062.060547 0)"/>
     <use xlink:href="#DejaVuSans-Bold-65" transform="translate(2133.642578 0)"/>
     <use xlink:href="#DejaVuSans-Bold-6e" transform="translate(2201.464844 0)"/>
     <use xlink:href="#DejaVuSans-Bold-74" transform="translate(2272.65625 0)"/>
     <use xlink:href="#DejaVuSans-Bold-69" transform="translate(2320.458984 0)"/>
     <use xlink:href="#DejaVuSans-Bold-74" transform="translate(2354.736328 0)"/>
     <use xlink:href="#DejaVuSans-Bold-79" transform="translate(2402.539062 0)"/>
     <use xlink:href="#DejaVuSans-Bold-20" transform="translate(2467.724609 0)"/>
     <use xlink:href="#DejaVuSans-Bold-64" transform="translate(2502.539062 0)"/>
     <use xlink:href="#DejaVuSans-Bold-69" transform="translate(2574.121094 0)"/>
     <use xlink:href="#DejaVuSans-Bold-66" transform="translate(2608.398438 0)"/>
     <use xlink:href="#DejaVuSans-Bold-66" transform="translate(2651.904297 0)"/>
     <use xlink:href="#DejaVuSans-Bold-65" transform="translate(2695.410156 0)"/>
     <use xlink:href="#DejaVuSans-Bold-72" transform="translate(2763.232422 0)"/>
     <use xlink:href="#DejaVuSans-Bold-65" transform="translate(2812.548828 0)"/>
     <use xlink:href="#DejaVuSans-Bold-6e" transform="translate(2880.371094 0)"/>
     <use xlink:href="#DejaVuSans-Bold-63" transform="translate(2951.5625 0)"/>
     <use xlink:href="#DejaVuSans-Bold-65" transform="translate(3010.839844 0)"/>
     <use xlink:href="#DejaVuSans-Bold-73" transform="translate(3078.662109 0)"/>
     <use xlink:href="#DejaVuSans-Bold-29" transform="translate(3138.183594 0)"/>
    </g>
   </g>
   <g id="legend_1">
    <g id="patch_65">
     <path d="M 548.32 74.991375 
L 697.28875 74.991375 
Q 699.28875 74.991375 699.28875 72.991375 
L 699.28875 44.635125 
Q 699.28875 42.635125 697.28875 42.635125 
L 548.32 42.635125 
Q 546.32 42.635125 546.32 44.635125 
L 546.32 72.991375 
Q 546.32 74.991375 548.32 74.991375 
z
" style="fill: #ffffff; opacity: 0.8; stroke: #cccccc; stroke-linejoin: miter"/>
    </g>
    <g id="patch_66">
     <path d="M 550.32 54.233562 
L 570.32 54.233562 
L 570.32 47.233562 
L 550.32 47.233562 
z
" style="fill: #4285f4; opacity: 0.6; stroke: #000000; stroke-width: 0.5; stroke-linejoin: miter"/>
    </g>
    <g id="text_18">
     <!-- Within-Provider (n=75) -->
     <g transform="translate(578.32 54.233562) scale(0.1 -0.1)">
      <defs>
       <path id="DejaVuSans-57" d="M 213 4666 
L 850 4666 
L 1831 722 
L 2809 4666 
L 3519 4666 
L 4500 722 
L 5478 4666 
L 6119 4666 
L 4947 0 
L 4153 0 
L 3169 4050 
L 2175 0 
L 1381 0 
L 213 4666 
z
" transform="scale(0.015625)"/>
       <path id="DejaVuSans-68" d="M 3513 2113 
L 3513 0 
L 2938 0 
L 2938 2094 
Q 2938 2591 2744 2837 
Q 2550 3084 2163 3084 
Q 1697 3084 1428 2787 
Q 1159 2491 1159 1978 
L 1159 0 
L 581 0 
L 581 4863 
L 1159 4863 
L 1159 2956 
Q 1366 3272 1645 3428 
Q 1925 3584 2291 3584 
Q 2894 3584 3203 3211 
Q 3513 2838 3513 2113 
z
" transform="scale(0.015625)"/>
       <path id="DejaVuSans-2d" d="M 313 2009 
L 1997 2009 
L 1997 1497 
L 313 1497 
L 313 2009 
z
" transform="scale(0.015625)"/>
       <path id="DejaVuSans-50" d="M 1259 4147 
L 1259 2394 
L 2053 2394 
Q 2494 2394 2734 2622 
Q 2975 2850 2975 3272 
Q 2975 3691 2734 3919 
Q 2494 4147 2053 4147 
L 1259 4147 
z
M 628 4666 
L 2053 4666 
Q 2838 4666 3239 4311 
Q 3641 3956 3641 3272 
Q 3641 2581 3239 2228 
Q 2838 1875 2053 1875 
L 1259 1875 
L 1259 0 
L 628 0 
L 628 4666 
z
" transform="scale(0.015625)"/>
       <path id="DejaVuSans-76" d="M 191 3500 
L 800 3500 
L 1894 563 
L 2988 3500 
L 3597 3500 
L 2284 0 
L 1503 0 
L 191 3500 
z
" transform="scale(0.015625)"/>
       <path id="DejaVuSans-64" d="M 2906 2969 
L 2906 4863 
L 3481 4863 
L 3481 0 
L 2906 0 
L 2906 525 
Q 2725 213 2448 61 
Q 2172 -91 1784 -91 
Q 1150 -91 751 415 
Q 353 922 353 1747 
Q 353 2572 751 3078 
Q 1150 3584 1784 3584 
Q 2172 3584 2448 3432 
Q 2725 3281 2906 2969 
z
M 947 1747 
Q 947 1113 1208 752 
Q 1469 391 1925 391 
Q 2381 391 2643 752 
Q 2906 1113 2906 1747 
Q 2906 2381 2643 2742 
Q 2381 3103 1925 3103 
Q 1469 3103 1208 2742 
Q 947 2381 947 1747 
z
" transform="scale(0.015625)"/>
       <path id="DejaVuSans-28" d="M 1984 4856 
Q 1566 4138 1362 3434 
Q 1159 2731 1159 2009 
Q 1159 1288 1364 580 
Q 1569 -128 1984 -844 
L 1484 -844 
Q 1016 -109 783 600 
Q 550 1309 550 2009 
Q 550 2706 781 3412 
Q 1013 4119 1484 4856 
L 1984 4856 
z
" transform="scale(0.015625)"/>
       <path id="DejaVuSans-3d" d="M 678 2906 
L 4684 2906 
L 4684 2381 
L 678 2381 
L 678 2906 
z
M 678 1631 
L 4684 1631 
L 4684 1100 
L 678 1100 
L 678 1631 
z
" transform="scale(0.015625)"/>
       <path id="DejaVuSans-37" d="M 525 4666 
L 3525 4666 
L 3525 4397 
L 1831 0 
L 1172 0 
L 2766 4134 
L 525 4134 
L 525 4666 
z
" transform="scale(0.015625)"/>
       <path id="DejaVuSans-29" d="M 513 4856 
L 1013 4856 
Q 1481 4119 1714 3412 
Q 1947 2706 1947 2009 
Q 1947 1309 1714 600 
Q 1481 -109 1013 -844 
L 513 -844 
Q 928 -128 1133 580 
Q 1338 1288 1338 2009 
Q 1338 2731 1133 3434 
Q 928 4138 513 4856 
z
" transform="scale(0.015625)"/>
      </defs>
      <use xlink:href="#DejaVuSans-57"/>
      <use xlink:href="#DejaVuSans-69" transform="translate(96.626953 0)"/>
      <use xlink:href="#DejaVuSans-74" transform="translate(124.410156 0)"/>
      <use xlink:href="#DejaVuSans-68" transform="translate(163.619141 0)"/>
      <use xlink:href="#DejaVuSans-69" transform="translate(226.998047 0)"/>
      <use xlink:href="#DejaVuSans-6e" transform="translate(254.78125 0)"/>
      <use xlink:href="#DejaVuSans-2d" transform="translate(318.160156 0)"/>
      <use xlink:href="#DejaVuSans-50" transform="translate(354.244141 0)"/>
      <use xlink:href="#DejaVuSans-72" transform="translate(412.796875 0)"/>
      <use xlink:href="#DejaVuSans-6f" transform="translate(451.660156 0)"/>
      <use xlink:href="#DejaVuSans-76" transform="translate(512.841797 0)"/>
      <use xlink:href="#DejaVuSans-69" transform="translate(572.021484 0)"/>
      <use xlink:href="#DejaVuSans-64" transform="translate(599.804688 0)"/>
      <use xlink:href="#DejaVuSans-65" transform="translate(663.28125 0)"/>
      <use xlink:href="#DejaVuSans-72" transform="translate(724.804688 0)"/>
      <use xlink:href="#DejaVuSans-20" transform="translate(765.917969 0)"/>
      <use xlink:href="#DejaVuSans-28" transform="translate(797.705078 0)"/>
      <use xlink:href="#DejaVuSans-6e" transform="translate(836.71875 0)"/>
      <use xlink:href="#DejaVuSans-3d" transform="translate(900.097656 0)"/>
      <use xlink:href="#DejaVuSans-37" transform="translate(983.886719 0)"/>
      <use xlink:href="#DejaVuSans-35" transform="translate(1047.509766 0)"/>
      <use xlink:href="#DejaVuSans-29" transform="translate(1111.132812 0)"/>
     </g>
    </g>
    <g id="patch_67">
     <path d="M 550.32 68.911687 
L 570.32 68.911687 
L 570.32 61.911687 
L 550.32 61.911687 
z
" style="fill: #e07b53; opacity: 0.6; stroke: #000000; stroke-width: 0.5; stroke-linejoin: miter"/>
    </g>
    <g id="text_19">
     <!-- Cross-Provider (n=225) -->
     <g transform="translate(578.32 68.911687) scale(0.1 -0.1)">
      <defs>
       <path id="DejaVuSans-73" d="M 2834 3397 
L 2834 2853 
Q 2591 2978 2328 3040 
Q 2066 3103 1784 3103 
Q 1356 3103 1142 2972 
Q 928 2841 928 2578 
Q 928 2378 1081 2264 
Q 1234 2150 1697 2047 
L 1894 2003 
Q 2506 1872 2764 1633 
Q 3022 1394 3022 966 
Q 3022 478 2636 193 
Q 2250 -91 1575 -91 
Q 1294 -91 989 -36 
Q 684 19 347 128 
L 347 722 
Q 666 556 975 473 
Q 1284 391 1588 391 
Q 1994 391 2212 530 
Q 2431 669 2431 922 
Q 2431 1156 2273 1281 
Q 2116 1406 1581 1522 
L 1381 1569 
Q 847 1681 609 1914 
Q 372 2147 372 2553 
Q 372 3047 722 3315 
Q 1072 3584 1716 3584 
Q 2034 3584 2315 3537 
Q 2597 3491 2834 3397 
z
" transform="scale(0.015625)"/>
      </defs>
      <use xlink:href="#DejaVuSans-43"/>
      <use xlink:href="#DejaVuSans-72" transform="translate(69.824219 0)"/>
      <use xlink:href="#DejaVuSans-6f" transform="translate(108.6875 0)"/>
      <use xlink:href="#DejaVuSans-73" transform="translate(169.869141 0)"/>
      <use xlink:href="#DejaVuSans-73" transform="translate(221.96875 0)"/>
      <use xlink:href="#DejaVuSans-2d" transform="translate(274.068359 0)"/>
      <use xlink:href="#DejaVuSans-50" transform="translate(310.152344 0)"/>
      <use xlink:href="#DejaVuSans-72" transform="translate(368.705078 0)"/>
      <use xlink:href="#DejaVuSans-6f" transform="translate(407.568359 0)"/>
      <use xlink:href="#DejaVuSans-76" transform="translate(468.75 0)"/>
      <use xlink:href="#DejaVuSans-69" transform="translate(527.929688 0)"/>
      <use xlink:href="#DejaVuSans-64" transform="translate(555.712891 0)"/>
      <use xlink:href="#DejaVuSans-65" transform="translate(619.189453 0)"/>
      <use xlink:href="#DejaVuSans-72" transform="translate(680.712891 0)"/>
      <use xlink:href="#DejaVuSans-20" transform="translate(721.826172 0)"/>
      <use xlink:href="#DejaVuSans-28" transform="translate(753.613281 0)"/>
      <use xlink:href="#DejaVuSans-6e" transform="translate(792.626953 0)"/>
      <use xlink:href="#DejaVuSans-3d" transform="translate(856.005859 0)"/>
      <use xlink:href="#DejaVuSans-32" transform="translate(939.794922 0)"/>
      <use xlink:href="#DejaVuSans-32" transform="translate(1003.417969 0)"/>
      <use xlink:href="#DejaVuSans-35" transform="translate(1067.041016 0)"/>
      <use xlink:href="#DejaVuSans-29" transform="translate(1130.664062 0)"/>
     </g>
    </g>
   </g>
  </g>
 </g>
 <defs>
  <clipPath id="p2e367860b7">
   <rect x="42.53875" y="37.635125" width="661.75" height="417.304"/>
  </clipPath>
 </defs>
</svg>
