<?xml version="1.0" encoding="utf-8" standalone="no"?>
<!DOCTYPE svg PUBLIC "-//W3C//DTD SVG 1.1//EN"
  "http://www.w3.org/Graphics/SVG/1.1/DTD/svg11.dtd">
<svg xmlns:xlink="http://www.w3.org/1999/xlink" width="763.980781pt" height="317.137187pt" viewBox="0 0 763.980781 317.137187" xmlns="http://www.w3.org/2000/svg" version="1.1">
 <metadata>
  <rdf:RDF xmlns:dc="http://purl.org/dc/elements/1.1/" xmlns:cc="http://creativecommons.org/ns#" xmlns:rdf="http://www.w3.org/1999/02/22-rdf-syntax-ns#">
   <cc:Work>
    <dc:type rdf:resource="http://purl.org/dc/dcmitype/StillImage"/>
    <dc:date>2025-12-17T22:10:08.908263</dc:date>
    <dc:format>image/svg+xml</dc:format>
    <dc:creator>
     <cc:Agent>
      <dc:title>Matplotlib v3.10.7, https://matplotlib.org/</dc:title>
     </cc:Agent>
    </dc:creator>
   </cc:Work>
  </rdf:RDF>
 </metadata>
 <defs>
  <style type="text/css">*{stroke-linejoin: round; stroke-linecap: butt}</style>
 </defs>
 <g id="figure_1">
  <g id="patch_1">
   <path d="M 0 317.137187 
L 763.980781 317.137187 
L 763.980781 0 
L 0 0 
z
"/>
  </g>
  <g id="axes_1">
   <g id="patch_2">
    <path d="M 43.78125 284.42 
L 353.074583 284.42 
L 353.074583 44.16 
L 43.78125 44.16 
z
"/>
   </g>
   <g id="matplotlib.axis_1">
    <g id="xtick_1">
     <g id="line2d_1">
      <path d="M 57.840038 284.42 
L 57.840038 44.16 
" clip-path="url(#pe38072b758)" style="fill: none; stroke: #1a3a1a; stroke-opacity: 0.7; stroke-width: 0.5; stroke-linecap: square"/>
     </g>
     <g id="line2d_2">
      <defs>
       <path id="me9daa7bda9" d="M 0 0 
L 0 3.5 
" style="stroke: #00aa00; stroke-width: 0.8"/>
      </defs>
      <g>
       <use xlink:href="#me9daa7bda9" x="57.840038" y="284.42" style="fill: #00aa00; stroke: #00aa00; stroke-width: 0.8"/>
      </g>
     </g>
     <g id="text_1">
      <!-- 0 -->
      <g style="fill: #00ff00" transform="translate(55.613163 296.738906) scale(0.07 -0.07)">
       <defs>
        <path id="DejaVuSans-30" d="M 2034 4250 
Q 1547 4250 1301 3770 
Q 1056 3291 1056 2328 
Q 1056 1369 1301 889 
Q 1547 409 2034 409 
Q 2525 409 2770 889 
Q 3016 1369 3016 2328 
Q 3016 3291 2770 3770 
Q 2525 4250 2034 4250 
z
M 2034 4750 
Q 2819 4750 3233 4129 
Q 3647 3509 3647 2328 
Q 3647 1150 3233 529 
Q 2819 -91 2034 -91 
Q 1250 -91 836 529 
Q 422 1150 422 2328 
Q 422 3509 836 4129 
Q 1250 4750 2034 4750 
z
" transform="scale(0.015625)"/>
       </defs>
       <use xlink:href="#DejaVuSans-30"/>
      </g>
     </g>
    </g>
    <g id="xtick_2">
     <g id="line2d_3">
      <path d="M 85.957614 284.42 
L 85.957614 44.16 
" clip-path="url(#pe38072b758)" style="fill: none; stroke: #1a3a1a; stroke-opacity: 0.7; stroke-width: 0.5; stroke-linecap: square"/>
     </g>
     <g id="line2d_4">
      <g>
       <use xlink:href="#me9daa7bda9" x="85.957614" y="284.42" style="fill: #00aa00; stroke: #00aa00; stroke-width: 0.8"/>
      </g>
     </g>
     <g id="text_2">
      <!-- 1 -->
      <g style="fill: #00ff00" transform="translate(83.730739 296.738906) scale(0.07 -0.07)">
       <defs>
        <path id="DejaVuSans-31" d="M 794 531 
L 1825 531 
L 1825 4091 
L 703 3866 
L 703 4441 
L 1819 4666 
L 2450 4666 
L 2450 531 
L 3481 531 
L 3481 0 
L 794 0 
L 794 531 
z
" transform="scale(0.015625)"/>
       </defs>
       <use xlink:href="#DejaVuSans-31"/>
      </g>
     </g>
    </g>
    <g id="xtick_3">
     <g id="line2d_5">
      <path d="M 114.075189 284.42 
L 114.075189 44.16 
" clip-path="url(#pe38072b758)" style="fill: none; stroke: #1a3a1a; stroke-opacity: 0.7; stroke-width: 0.5; stroke-linecap: square"/>
     </g>
     <g id="line2d_6">
      <g>
       <use xlink:href="#me9daa7bda9" x="114.075189" y="284.42" style="fill: #00aa00; stroke: #00aa00; stroke-width: 0.8"/>
      </g>
     </g>
     <g id="text_3">
      <!-- 2 -->
      <g style="fill: #00ff00" transform="translate(111.848314 296.738906) scale(0.07 -0.07)">
       <defs>
        <path id="DejaVuSans-32" d="M 1228 531 
L 3431 531 
L 3431 0 
L 469 0 
L 469 531 
Q 828 903 1448 1529 
Q 2069 2156 2228 2338 
Q 2531 2678 2651 2914 
Q 2772 3150 2772 3378 
Q 2772 3750 2511 3984 
Q 2250 4219 1831 4219 
Q 1534 4219 1204 4116 
Q 875 4013 500 3803 
L 500 4441 
Q 881 4594 1212 4672 
Q 1544 4750 1819 4750 
Q 2544 4750 2975 4387 
Q 3406 4025 3406 3419 
Q 3406 3131 3298 2873 
Q 3191 2616 2906 2266 
Q 2828 2175 2409 1742 
Q 1991 1309 1228 531 
z
" transform="scale(0.015625)"/>
       </defs>
       <use xlink:href="#DejaVuSans-32"/>
      </g>
     </g>
    </g>
    <g id="xtick_4">
     <g id="line2d_7">
      <path d="M 142.192765 284.42 
L 142.192765 44.16 
" clip-path="url(#pe38072b758)" style="fill: none; stroke: #1a3a1a; stroke-opacity: 0.7; stroke-width: 0.5; stroke-linecap: square"/>
     </g>
     <g id="line2d_8">
      <g>
       <use xlink:href="#me9daa7bda9" x="142.192765" y="284.42" style="fill: #00aa00; stroke: #00aa00; stroke-width: 0.8"/>
      </g>
     </g>
     <g id="text_4">
      <!-- 3 -->
      <g style="fill: #00ff00" transform="translate(139.96589 296.738906) scale(0.07 -0.07)">
       <defs>
        <path id="DejaVuSans-33" d="M 2597 2516 
Q 3050 2419 3304 2112 
Q 3559 1806 3559 1356 
Q 3559 666 3084 287 
Q 2609 -91 1734 -91 
Q 1441 -91 1130 -33 
Q 819 25 488 141 
L 488 750 
Q 750 597 1062 519 
Q 1375 441 1716 441 
Q 2309 441 2620 675 
Q 2931 909 2931 1356 
Q 2931 1769 2642 2001 
Q 2353 2234 1838 2234 
L 1294 2234 
L 1294 2753 
L 1863 2753 
Q 2328 2753 2575 2939 
Q 2822 3125 2822 3475 
Q 2822 3834 2567 4026 
Q 2313 4219 1838 4219 
Q 1578 4219 1281 4162 
Q 984 4106 628 3988 
L 628 4550 
Q 988 4650 1302 4700 
Q 1616 4750 1894 4750 
Q 2613 4750 3031 4423 
Q 3450 4097 3450 3541 
Q 3450 3153 3228 2886 
Q 3006 2619 2597 2516 
z
" transform="scale(0.015625)"/>
       </defs>
       <use xlink:href="#DejaVuSans-33"/>
      </g>
     </g>
    </g>
    <g id="xtick_5">
     <g id="line2d_9">
      <path d="M 170.310341 284.42 
L 170.310341 44.16 
" clip-path="url(#pe38072b758)" style="fill: none; stroke: #1a3a1a; stroke-opacity: 0.7; stroke-width: 0.5; stroke-linecap: square"/>
     </g>
     <g id="line2d_10">
      <g>
       <use xlink:href="#me9daa7bda9" x="170.310341" y="284.42" style="fill: #00aa00; stroke: #00aa00; stroke-width: 0.8"/>
      </g>
     </g>
     <g id="text_5">
      <!-- 4 -->
      <g style="fill: #00ff00" transform="translate(168.083466 296.738906) scale(0.07 -0.07)">
       <defs>
        <path id="DejaVuSans-34" d="M 2419 4116 
L 825 1625 
L 2419 1625 
L 2419 4116 
z
M 2253 4666 
L 3047 4666 
L 3047 1625 
L 3713 1625 
L 3713 1100 
L 3047 1100 
L 3047 0 
L 2419 0 
L 2419 1100 
L 313 1100 
L 313 1709 
L 2253 4666 
z
" transform="scale(0.015625)"/>
       </defs>
       <use xlink:href="#DejaVuSans-34"/>
      </g>
     </g>
    </g>
    <g id="xtick_6">
     <g id="line2d_11">
      <path d="M 198.427917 284.42 
L 198.427917 44.16 
" clip-path="url(#pe38072b758)" style="fill: none; stroke: #1a3a1a; stroke-opacity: 0.7; stroke-width: 0.5; stroke-linecap: square"/>
     </g>
     <g id="line2d_12">
      <g>
       <use xlink:href="#me9daa7bda9" x="198.427917" y="284.42" style="fill: #00aa00; stroke: #00aa00; stroke-width: 0.8"/>
      </g>
     </g>
     <g id="text_6">
      <!-- 5 -->
      <g style="fill: #00ff00" transform="translate(196.201042 296.738906) scale(0.07 -0.07)">
       <defs>
        <path id="DejaVuSans-35" d="M 691 4666 
L 3169 4666 
L 3169 4134 
L 1269 4134 
L 1269 2991 
Q 1406 3038 1543 3061 
Q 1681 3084 1819 3084 
Q 2600 3084 3056 2656 
Q 3513 2228 3513 1497 
Q 3513 744 3044 326 
Q 2575 -91 1722 -91 
Q 1428 -91 1123 -41 
Q 819 9 494 109 
L 494 744 
Q 775 591 1075 516 
Q 1375 441 1709 441 
Q 2250 441 2565 725 
Q 2881 1009 2881 1497 
Q 2881 1984 2565 2268 
Q 2250 2553 1709 2553 
Q 1456 2553 1204 2497 
Q 953 2441 691 2322 
L 691 4666 
z
" transform="scale(0.015625)"/>
       </defs>
       <use xlink:href="#DejaVuSans-35"/>
      </g>
     </g>
    </g>
    <g id="xtick_7">
     <g id="line2d_13">
      <path d="M 226.545492 284.42 
L 226.545492 44.16 
" clip-path="url(#pe38072b758)" style="fill: none; stroke: #1a3a1a; stroke-opacity: 0.7; stroke-width: 0.5; stroke-linecap: square"/>
     </g>
     <g id="line2d_14">
      <g>
       <use xlink:href="#me9daa7bda9" x="226.545492" y="284.42" style="fill: #00aa00; stroke: #00aa00; stroke-width: 0.8"/>
      </g>
     </g>
     <g id="text_7">
      <!-- 6 -->
      <g style="fill: #00ff00" transform="translate(224.318617 296.738906) scale(0.07 -0.07)">
       <defs>
        <path id="DejaVuSans-36" d="M 2113 2584 
Q 1688 2584 1439 2293 
Q 1191 2003 1191 1497 
Q 1191 994 1439 701 
Q 1688 409 2113 409 
Q 2538 409 2786 701 
Q 3034 994 3034 1497 
Q 3034 2003 2786 2293 
Q 2538 2584 2113 2584 
z
M 3366 4563 
L 3366 3988 
Q 3128 4100 2886 4159 
Q 2644 4219 2406 4219 
Q 1781 4219 1451 3797 
Q 1122 3375 1075 2522 
Q 1259 2794 1537 2939 
Q 1816 3084 2150 3084 
Q 2853 3084 3261 2657 
Q 3669 2231 3669 1497 
Q 3669 778 3244 343 
Q 2819 -91 2113 -91 
Q 1303 -91 875 529 
Q 447 1150 447 2328 
Q 447 3434 972 4092 
Q 1497 4750 2381 4750 
Q 2619 4750 2861 4703 
Q 3103 4656 3366 4563 
z
" transform="scale(0.015625)"/>
       </defs>
       <use xlink:href="#DejaVuSans-36"/>
      </g>
     </g>
    </g>
    <g id="xtick_8">
     <g id="line2d_15">
      <path d="M 254.663068 284.42 
L 254.663068 44.16 
" clip-path="url(#pe38072b758)" style="fill: none; stroke: #1a3a1a; stroke-opacity: 0.7; stroke-width: 0.5; stroke-linecap: square"/>
     </g>
     <g id="line2d_16">
      <g>
       <use xlink:href="#me9daa7bda9" x="254.663068" y="284.42" style="fill: #00aa00; stroke: #00aa00; stroke-width: 0.8"/>
      </g>
     </g>
     <g id="text_8">
      <!-- 7 -->
      <g style="fill: #00ff00" transform="translate(252.436193 296.738906) scale(0.07 -0.07)">
       <defs>
        <path id="DejaVuSans-37" d="M 525 4666 
L 3525 4666 
L 3525 4397 
L 1831 0 
L 1172 0 
L 2766 4134 
L 525 4134 
L 525 4666 
z
" transform="scale(0.015625)"/>
       </defs>
       <use xlink:href="#DejaVuSans-37"/>
      </g>
     </g>
    </g>
    <g id="xtick_9">
     <g id="line2d_17">
      <path d="M 282.780644 284.42 
L 282.780644 44.16 
" clip-path="url(#pe38072b758)" style="fill: none; stroke: #1a3a1a; stroke-opacity: 0.7; stroke-width: 0.5; stroke-linecap: square"/>
     </g>
     <g id="line2d_18">
      <g>
       <use xlink:href="#me9daa7bda9" x="282.780644" y="284.42" style="fill: #00aa00; stroke: #00aa00; stroke-width: 0.8"/>
      </g>
     </g>
     <g id="text_9">
      <!-- 8 -->
      <g style="fill: #00ff00" transform="translate(280.553769 296.738906) scale(0.07 -0.07)">
       <defs>
        <path id="DejaVuSans-38" d="M 2034 2216 
Q 1584 2216 1326 1975 
Q 1069 1734 1069 1313 
Q 1069 891 1326 650 
Q 1584 409 2034 409 
Q 2484 409 2743 651 
Q 3003 894 3003 1313 
Q 3003 1734 2745 1975 
Q 2488 2216 2034 2216 
z
M 1403 2484 
Q 997 2584 770 2862 
Q 544 3141 544 3541 
Q 544 4100 942 4425 
Q 1341 4750 2034 4750 
Q 2731 4750 3128 4425 
Q 3525 4100 3525 3541 
Q 3525 3141 3298 2862 
Q 3072 2584 2669 2484 
Q 3125 2378 3379 2068 
Q 3634 1759 3634 1313 
Q 3634 634 3220 271 
Q 2806 -91 2034 -91 
Q 1263 -91 848 271 
Q 434 634 434 1313 
Q 434 1759 690 2068 
Q 947 2378 1403 2484 
z
M 1172 3481 
Q 1172 3119 1398 2916 
Q 1625 2713 2034 2713 
Q 2441 2713 2670 2916 
Q 2900 3119 2900 3481 
Q 2900 3844 2670 4047 
Q 2441 4250 2034 4250 
Q 1625 4250 1398 4047 
Q 1172 3844 1172 3481 
z
" transform="scale(0.015625)"/>
       </defs>
       <use xlink:href="#DejaVuSans-38"/>
      </g>
     </g>
    </g>
    <g id="xtick_10">
     <g id="line2d_19">
      <path d="M 310.89822 284.42 
L 310.89822 44.16 
" clip-path="url(#pe38072b758)" style="fill: none; stroke: #1a3a1a; stroke-opacity: 0.7; stroke-width: 0.5; stroke-linecap: square"/>
     </g>
     <g id="line2d_20">
      <g>
       <use xlink:href="#me9daa7bda9" x="310.89822" y="284.42" style="fill: #00aa00; stroke: #00aa00; stroke-width: 0.8"/>
      </g>
     </g>
     <g id="text_10">
      <!-- 9 -->
      <g style="fill: #00ff00" transform="translate(308.671345 296.738906) scale(0.07 -0.07)">
       <defs>
        <path id="DejaVuSans-39" d="M 703 97 
L 703 672 
Q 941 559 1184 500 
Q 1428 441 1663 441 
Q 2288 441 2617 861 
Q 2947 1281 2994 2138 
Q 2813 1869 2534 1725 
Q 2256 1581 1919 1581 
Q 1219 1581 811 2004 
Q 403 2428 403 3163 
Q 403 3881 828 4315 
Q 1253 4750 1959 4750 
Q 2769 4750 3195 4129 
Q 3622 3509 3622 2328 
Q 3622 1225 3098 567 
Q 2575 -91 1691 -91 
Q 1453 -91 1209 -44 
Q 966 3 703 97 
z
M 1959 2075 
Q 2384 2075 2632 2365 
Q 2881 2656 2881 3163 
Q 2881 3666 2632 3958 
Q 2384 4250 1959 4250 
Q 1534 4250 1286 3958 
Q 1038 3666 1038 3163 
Q 1038 2656 1286 2365 
Q 1534 2075 1959 2075 
z
" transform="scale(0.015625)"/>
       </defs>
       <use xlink:href="#DejaVuSans-39"/>
      </g>
     </g>
    </g>
    <g id="xtick_11">
     <g id="line2d_21">
      <path d="M 339.015795 284.42 
L 339.015795 44.16 
" clip-path="url(#pe38072b758)" style="fill: none; stroke: #1a3a1a; stroke-opacity: 0.7; stroke-width: 0.5; stroke-linecap: square"/>
     </g>
     <g id="line2d_22">
      <g>
       <use xlink:href="#me9daa7bda9" x="339.015795" y="284.42" style="fill: #00aa00; stroke: #00aa00; stroke-width: 0.8"/>
      </g>
     </g>
     <g id="text_11">
      <!-- 10 -->
      <g style="fill: #00ff00" transform="translate(334.562045 296.738906) scale(0.07 -0.07)">
       <use xlink:href="#DejaVuSans-31"/>
       <use xlink:href="#DejaVuSans-30" transform="translate(63.623047 0)"/>
      </g>
     </g>
    </g>
    <g id="text_12">
     <!-- Turn -->
     <g style="fill: #00ff00" transform="translate(189.945417 308.273437) scale(0.08 -0.08)">
      <defs>
       <path id="DejaVuSans-54" d="M -19 4666 
L 3928 4666 
L 3928 4134 
L 2272 4134 
L 2272 0 
L 1638 0 
L 1638 4134 
L -19 4134 
L -19 4666 
z
" transform="scale(0.015625)"/>
       <path id="DejaVuSans-75" d="M 544 1381 
L 544 3500 
L 1119 3500 
L 1119 1403 
Q 1119 906 1312 657 
Q 1506 409 1894 409 
Q 2359 409 2629 706 
Q 2900 1003 2900 1516 
L 2900 3500 
L 3475 3500 
L 3475 0 
L 2900 0 
L 2900 538 
Q 2691 219 2414 64 
Q 2138 -91 1772 -91 
Q 1169 -91 856 284 
Q 544 659 544 1381 
z
M 1991 3584 
L 1991 3584 
z
" transform="scale(0.015625)"/>
       <path id="DejaVuSans-72" d="M 2631 2963 
Q 2534 3019 2420 3045 
Q 2306 3072 2169 3072 
Q 1681 3072 1420 2755 
Q 1159 2438 1159 1844 
L 1159 0 
L 581 0 
L 581 3500 
L 1159 3500 
L 1159 2956 
Q 1341 3275 1631 3429 
Q 1922 3584 2338 3584 
Q 2397 3584 2469 3576 
Q 2541 3569 2628 3553 
L 2631 2963 
z
" transform="scale(0.015625)"/>
       <path id="DejaVuSans-6e" d="M 3513 2113 
L 3513 0 
L 2938 0 
L 2938 2094 
Q 2938 2591 2744 2837 
Q 2550 3084 2163 3084 
Q 1697 3084 1428 2787 
Q 1159 2491 1159 1978 
L 1159 0 
L 581 0 
L 581 3500 
L 1159 3500 
L 1159 2956 
Q 1366 3272 1645 3428 
Q 1925 3584 2291 3584 
Q 2894 3584 3203 3211 
Q 3513 2838 3513 2113 
z
" transform="scale(0.015625)"/>
      </defs>
      <use xlink:href="#DejaVuSans-54"/>
      <use xlink:href="#DejaVuSans-75" transform="translate(45.958984 0)"/>
      <use xlink:href="#DejaVuSans-72" transform="translate(109.337891 0)"/>
      <use xlink:href="#DejaVuSans-6e" transform="translate(148.701172 0)"/>
     </g>
    </g>
   </g>
   <g id="matplotlib.axis_2">
    <g id="ytick_1">
     <g id="line2d_23">
      <path d="M 43.78125 276.547785 
L 353.074583 276.547785 
" clip-path="url(#pe38072b758)" style="fill: none; stroke: #1a3a1a; stroke-opacity: 0.7; stroke-width: 0.5; stroke-linecap: square"/>
     </g>
     <g id="line2d_24">
      <defs>
       <path id="m1504627f15" d="M 0 0 
L -3.5 0 
" style="stroke: #00aa00; stroke-width: 0.8"/>
      </defs>
      <g>
       <use xlink:href="#m1504627f15" x="43.78125" y="276.547785" style="fill: #00aa00; stroke: #00aa00; stroke-width: 0.8"/>
      </g>
     </g>
     <g id="text_13">
      <!-- 0.0 -->
      <g style="fill: #00aa00" transform="translate(20.878125 280.347004) scale(0.1 -0.1)">
       <defs>
        <path id="DejaVuSans-2e" d="M 684 794 
L 1344 794 
L 1344 0 
L 684 0 
L 684 794 
z
" transform="scale(0.015625)"/>
       </defs>
       <use xlink:href="#DejaVuSans-30"/>
       <use xlink:href="#DejaVuSans-2e" transform="translate(63.623047 0)"/>
       <use xlink:href="#DejaVuSans-30" transform="translate(95.410156 0)"/>
      </g>
     </g>
    </g>
    <g id="ytick_2">
     <g id="line2d_25">
      <path d="M 43.78125 245.058925 
L 353.074583 245.058925 
" clip-path="url(#pe38072b758)" style="fill: none; stroke: #1a3a1a; stroke-opacity: 0.7; stroke-width: 0.5; stroke-linecap: square"/>
     </g>
     <g id="line2d_26">
      <g>
       <use xlink:href="#m1504627f15" x="43.78125" y="245.058925" style="fill: #00aa00; stroke: #00aa00; stroke-width: 0.8"/>
      </g>
     </g>
     <g id="text_14">
      <!-- 0.2 -->
      <g style="fill: #00aa00" transform="translate(20.878125 248.858144) scale(0.1 -0.1)">
       <use xlink:href="#DejaVuSans-30"/>
       <use xlink:href="#DejaVuSans-2e" transform="translate(63.623047 0)"/>
       <use xlink:href="#DejaVuSans-32" transform="translate(95.410156 0)"/>
      </g>
     </g>
    </g>
    <g id="ytick_3">
     <g id="line2d_27">
      <path d="M 43.78125 213.570066 
L 353.074583 213.570066 
" clip-path="url(#pe38072b758)" style="fill: none; stroke: #1a3a1a; stroke-opacity: 0.7; stroke-width: 0.5; stroke-linecap: square"/>
     </g>
     <g id="line2d_28">
      <g>
       <use xlink:href="#m1504627f15" x="43.78125" y="213.570066" style="fill: #00aa00; stroke: #00aa00; stroke-width: 0.8"/>
      </g>
     </g>
     <g id="text_15">
      <!-- 0.4 -->
      <g style="fill: #00aa00" transform="translate(20.878125 217.369284) scale(0.1 -0.1)">
       <use xlink:href="#DejaVuSans-30"/>
       <use xlink:href="#DejaVuSans-2e" transform="translate(63.623047 0)"/>
       <use xlink:href="#DejaVuSans-34" transform="translate(95.410156 0)"/>
      </g>
     </g>
    </g>
    <g id="ytick_4">
     <g id="line2d_29">
      <path d="M 43.78125 182.081206 
L 353.074583 182.081206 
" clip-path="url(#pe38072b758)" style="fill: none; stroke: #1a3a1a; stroke-opacity: 0.7; stroke-width: 0.5; stroke-linecap: square"/>
     </g>
     <g id="line2d_30">
      <g>
       <use xlink:href="#m1504627f15" x="43.78125" y="182.081206" style="fill: #00aa00; stroke: #00aa00; stroke-width: 0.8"/>
      </g>
     </g>
     <g id="text_16">
      <!-- 0.6 -->
      <g style="fill: #00aa00" transform="translate(20.878125 185.880425) scale(0.1 -0.1)">
       <use xlink:href="#DejaVuSans-30"/>
       <use xlink:href="#DejaVuSans-2e" transform="translate(63.623047 0)"/>
       <use xlink:href="#DejaVuSans-36" transform="translate(95.410156 0)"/>
      </g>
     </g>
    </g>
    <g id="ytick_5">
     <g id="line2d_31">
      <path d="M 43.78125 150.592346 
L 353.074583 150.592346 
" clip-path="url(#pe38072b758)" style="fill: none; stroke: #1a3a1a; stroke-opacity: 0.7; stroke-width: 0.5; stroke-linecap: square"/>
     </g>
     <g id="line2d_32">
      <g>
       <use xlink:href="#m1504627f15" x="43.78125" y="150.592346" style="fill: #00aa00; stroke: #00aa00; stroke-width: 0.8"/>
      </g>
     </g>
     <g id="text_17">
      <!-- 0.8 -->
      <g style="fill: #00aa00" transform="translate(20.878125 154.391565) scale(0.1 -0.1)">
       <use xlink:href="#DejaVuSans-30"/>
       <use xlink:href="#DejaVuSans-2e" transform="translate(63.623047 0)"/>
       <use xlink:href="#DejaVuSans-38" transform="translate(95.410156 0)"/>
      </g>
     </g>
    </g>
    <g id="ytick_6">
     <g id="line2d_33">
      <path d="M 43.78125 119.103486 
L 353.074583 119.103486 
" clip-path="url(#pe38072b758)" style="fill: none; stroke: #1a3a1a; stroke-opacity: 0.7; stroke-width: 0.5; stroke-linecap: square"/>
     </g>
     <g id="line2d_34">
      <g>
       <use xlink:href="#m1504627f15" x="43.78125" y="119.103486" style="fill: #00aa00; stroke: #00aa00; stroke-width: 0.8"/>
      </g>
     </g>
     <g id="text_18">
      <!-- 1.0 -->
      <g style="fill: #00aa00" transform="translate(20.878125 122.902705) scale(0.1 -0.1)">
       <use xlink:href="#DejaVuSans-31"/>
       <use xlink:href="#DejaVuSans-2e" transform="translate(63.623047 0)"/>
       <use xlink:href="#DejaVuSans-30" transform="translate(95.410156 0)"/>
      </g>
     </g>
    </g>
    <g id="ytick_7">
     <g id="line2d_35">
      <path d="M 43.78125 87.614626 
L 353.074583 87.614626 
" clip-path="url(#pe38072b758)" style="fill: none; stroke: #1a3a1a; stroke-opacity: 0.7; stroke-width: 0.5; stroke-linecap: square"/>
     </g>
     <g id="line2d_36">
      <g>
       <use xlink:href="#m1504627f15" x="43.78125" y="87.614626" style="fill: #00aa00; stroke: #00aa00; stroke-width: 0.8"/>
      </g>
     </g>
     <g id="text_19">
      <!-- 1.2 -->
      <g style="fill: #00aa00" transform="translate(20.878125 91.413845) scale(0.1 -0.1)">
       <use xlink:href="#DejaVuSans-31"/>
       <use xlink:href="#DejaVuSans-2e" transform="translate(63.623047 0)"/>
       <use xlink:href="#DejaVuSans-32" transform="translate(95.410156 0)"/>
      </g>
     </g>
    </g>
    <g id="ytick_8">
     <g id="line2d_37">
      <path d="M 43.78125 56.125767 
L 353.074583 56.125767 
" clip-path="url(#pe38072b758)" style="fill: none; stroke: #1a3a1a; stroke-opacity: 0.7; stroke-width: 0.5; stroke-linecap: square"/>
     </g>
     <g id="line2d_38">
      <g>
       <use xlink:href="#m1504627f15" x="43.78125" y="56.125767" style="fill: #00aa00; stroke: #00aa00; stroke-width: 0.8"/>
      </g>
     </g>
     <g id="text_20">
      <!-- 1.4 -->
      <g style="fill: #00aa00" transform="translate(20.878125 59.924985) scale(0.1 -0.1)">
       <use xlink:href="#DejaVuSans-31"/>
       <use xlink:href="#DejaVuSans-2e" transform="translate(63.623047 0)"/>
       <use xlink:href="#DejaVuSans-34" transform="translate(95.410156 0)"/>
      </g>
     </g>
    </g>
    <g id="text_21">
     <!-- Drift -->
     <g style="fill: #00ff00" transform="translate(14.798438 175.217344) rotate(-90) scale(0.1 -0.1)">
      <defs>
       <path id="DejaVuSans-44" d="M 1259 4147 
L 1259 519 
L 2022 519 
Q 2988 519 3436 956 
Q 3884 1394 3884 2338 
Q 3884 3275 3436 3711 
Q 2988 4147 2022 4147 
L 1259 4147 
z
M 628 4666 
L 1925 4666 
Q 3281 4666 3915 4102 
Q 4550 3538 4550 2338 
Q 4550 1131 3912 565 
Q 3275 0 1925 0 
L 628 0 
L 628 4666 
z
" transform="scale(0.015625)"/>
       <path id="DejaVuSans-69" d="M 603 3500 
L 1178 3500 
L 1178 0 
L 603 0 
L 603 3500 
z
M 603 4863 
L 1178 4863 
L 1178 4134 
L 603 4134 
L 603 4863 
z
" transform="scale(0.015625)"/>
       <path id="DejaVuSans-66" d="M 2375 4863 
L 2375 4384 
L 1825 4384 
Q 1516 4384 1395 4259 
Q 1275 4134 1275 3809 
L 1275 3500 
L 2222 3500 
L 2222 3053 
L 1275 3053 
L 1275 0 
L 697 0 
L 697 3053 
L 147 3053 
L 147 3500 
L 697 3500 
L 697 3744 
Q 697 4328 969 4595 
Q 1241 4863 1831 4863 
L 2375 4863 
z
" transform="scale(0.015625)"/>
       <path id="DejaVuSans-74" d="M 1172 4494 
L 1172 3500 
L 2356 3500 
L 2356 3053 
L 1172 3053 
L 1172 1153 
Q 1172 725 1289 603 
Q 1406 481 1766 481 
L 2356 481 
L 2356 0 
L 1766 0 
Q 1100 0 847 248 
Q 594 497 594 1153 
L 594 3053 
L 172 3053 
L 172 3500 
L 594 3500 
L 594 4494 
L 1172 4494 
z
" transform="scale(0.015625)"/>
      </defs>
      <use xlink:href="#DejaVuSans-44"/>
      <use xlink:href="#DejaVuSans-72" transform="translate(77.001953 0)"/>
      <use xlink:href="#DejaVuSans-69" transform="translate(118.115234 0)"/>
      <use xlink:href="#DejaVuSans-66" transform="translate(145.898438 0)"/>
      <use xlink:href="#DejaVuSans-74" transform="translate(179.353516 0)"/>
     </g>
    </g>
   </g>
   <g id="line2d_39">
    <path d="M 57.840038 133.827879 
L 60.680197 137.205168 
L 63.520356 140.582457 
L 66.360515 143.959745 
L 69.200675 147.337034 
L 72.040834 150.714322 
L 74.880993 154.091611 
L 77.721152 157.4689 
L 80.561311 160.846188 
L 83.40147 164.223477 
L 86.24163 167.61878 
L 89.081789 171.176209 
L 91.921948 174.733638 
L 94.762107 178.291067 
L 97.602266 181.848496 
L 100.442425 185.405925 
L 103.282585 188.963354 
L 106.122744 192.520783 
L 108.962903 196.078213 
L 111.803062 199.635642 
L 114.643221 201.238846 
L 117.48338 195.02515 
L 120.32354 188.811454 
L 123.163699 182.597758 
L 126.003858 176.384062 
L 128.844017 170.170366 
L 131.684176 163.95667 
L 134.524335 157.742974 
L 137.364495 151.529278 
L 140.204654 145.315582 
L 143.044813 142.481665 
L 145.884972 147.533901 
L 148.725131 152.586136 
L 151.56529 157.638371 
L 154.40545 162.690606 
L 157.245609 167.742841 
L 160.085768 172.795076 
L 162.925927 177.847311 
L 165.766086 182.899547 
L 168.606245 187.951782 
L 171.446405 190.801965 
L 174.286564 190.34907 
L 177.126723 189.896175 
L 179.966882 189.443281 
L 182.807041 188.990386 
L 185.6472 188.537491 
L 188.48736 188.084596 
L 191.327519 187.631702 
L 194.167678 187.178807 
L 197.007837 186.725912 
L 199.847996 184.175743 
L 202.688155 179.5283 
L 205.528315 174.880857 
L 208.368474 170.233414 
L 211.208633 165.585971 
L 214.048792 160.938528 
L 216.888951 156.291084 
L 219.72911 151.643641 
L 222.56927 146.996198 
L 225.409429 142.348755 
L 228.249588 140.789679 
L 231.089747 141.289514 
L 233.929906 141.789349 
L 236.770065 142.289184 
L 239.610225 142.789019 
L 242.450384 143.288854 
L 245.290543 143.788689 
L 248.130702 144.288524 
L 250.970861 144.788359 
L 253.81102 145.288194 
L 256.65118 147.568705 
L 259.491339 150.612363 
L 262.331498 153.656021 
L 265.171657 156.699679 
L 268.011816 159.743337 
L 270.851975 162.786995 
L 273.692135 165.830653 
L 276.532294 168.874311 
L 279.372453 171.917969 
L 282.212612 174.961627 
L 285.052771 174.330572 
L 287.89293 172.780838 
L 290.73309 171.231104 
L 293.573249 169.68137 
L 296.413408 168.131637 
L 299.253567 166.581903 
L 302.093726 165.032169 
L 304.933885 163.482435 
L 307.774045 161.932701 
L 310.614204 160.382968 
L 313.454363 162.160591 
L 316.294522 164.30792 
L 319.134681 166.45525 
L 321.97484 168.602579 
L 324.815 170.749909 
L 327.655159 172.897238 
L 330.495318 175.044568 
L 333.335477 177.191897 
L 336.175636 179.339227 
L 339.015795 181.486556 
" clip-path="url(#pe38072b758)" style="fill: none; stroke: #00ff00; stroke-opacity: 0.8; stroke-width: 2; stroke-linecap: square"/>
   </g>
   <g id="line2d_40">
    <path d="M 57.840038 133.827879 
L 60.680197 137.205168 
L 63.520356 140.582457 
L 66.360515 143.959745 
L 69.200675 147.337034 
L 72.040834 150.714322 
L 74.880993 154.091611 
L 77.721152 157.4689 
L 80.561311 160.846188 
L 83.40147 164.223477 
L 86.24163 167.61878 
L 89.081789 171.176209 
L 91.921948 174.733638 
L 94.762107 178.291067 
L 97.602266 181.848496 
L 100.442425 185.405925 
L 103.282585 188.963354 
L 106.122744 192.520783 
L 108.962903 196.078213 
L 111.803062 199.635642 
L 114.643221 201.238846 
L 117.48338 195.02515 
L 120.32354 188.811454 
L 123.163699 182.597758 
L 126.003858 176.384062 
L 128.844017 170.170366 
L 131.684176 163.95667 
L 134.524335 157.742974 
L 137.364495 151.529278 
L 140.204654 145.315582 
L 143.044813 142.481665 
L 145.884972 147.533901 
L 148.725131 152.586136 
L 151.56529 157.638371 
L 154.40545 162.690606 
L 157.245609 167.742841 
L 160.085768 172.795076 
L 162.925927 177.847311 
L 165.766086 182.899547 
L 168.606245 187.951782 
L 171.446405 190.801965 
L 174.286564 190.34907 
L 177.126723 189.896175 
L 179.966882 189.443281 
L 182.807041 188.990386 
L 185.6472 188.537491 
L 188.48736 188.084596 
L 191.327519 187.631702 
L 194.167678 187.178807 
L 197.007837 186.725912 
L 199.847996 184.175743 
L 202.688155 179.5283 
L 205.528315 174.880857 
L 208.368474 170.233414 
L 211.208633 165.585971 
L 214.048792 160.938528 
L 216.888951 156.291084 
L 219.72911 151.643641 
L 222.56927 146.996198 
L 225.409429 142.348755 
L 228.249588 140.789679 
L 231.089747 141.289514 
L 233.929906 141.789349 
L 236.770065 142.289184 
L 239.610225 142.789019 
L 242.450384 143.288854 
L 245.290543 143.788689 
L 248.130702 144.288524 
L 250.970861 144.788359 
L 253.81102 145.288194 
L 256.65118 147.568705 
L 259.491339 150.612363 
L 262.331498 153.656021 
L 265.171657 156.699679 
L 268.011816 159.743337 
L 270.851975 162.786995 
L 273.692135 165.830653 
L 276.532294 168.874311 
L 279.372453 171.917969 
L 282.212612 174.961627 
L 285.052771 174.330572 
L 287.89293 172.780838 
L 290.73309 171.231104 
L 293.573249 169.68137 
L 296.413408 168.131637 
L 299.253567 166.581903 
L 302.093726 165.032169 
L 304.933885 163.482435 
L 307.774045 161.932701 
L 310.614204 160.382968 
L 313.454363 162.160591 
L 316.294522 164.30792 
L 319.134681 166.45525 
L 321.97484 168.602579 
L 324.815 170.749909 
L 327.655159 172.897238 
L 330.495318 175.044568 
L 333.335477 177.191897 
L 336.175636 179.339227 
L 339.015795 181.486556 
" clip-path="url(#pe38072b758)" style="fill: none; stroke: #00ff00; stroke-opacity: 0.3; stroke-width: 4; stroke-linecap: square"/>
   </g>
   <g id="line2d_41">
    <path d="M 43.78125 82.891298 
L 353.074583 82.891298 
" clip-path="url(#pe38072b758)" style="fill: none; stroke-dasharray: 5.55,2.4; stroke-dashoffset: 0; stroke: #ff4444; stroke-opacity: 0.7; stroke-width: 1.5"/>
   </g>
   <g id="patch_3">
    <path d="M 43.78125 284.42 
L 43.78125 44.16 
" style="fill: none; stroke: #00aa00; stroke-width: 0.8; stroke-linejoin: miter; stroke-linecap: square"/>
   </g>
   <g id="patch_4">
    <path d="M 353.074583 284.42 
L 353.074583 44.16 
" style="fill: none; stroke: #00aa00; stroke-width: 0.8; stroke-linejoin: miter; stroke-linecap: square"/>
   </g>
   <g id="patch_5">
    <path d="M 43.78125 284.42 
L 353.074583 284.42 
" style="fill: none; stroke: #00aa00; stroke-width: 0.8; stroke-linejoin: miter; stroke-linecap: square"/>
   </g>
   <g id="patch_6">
    <path d="M 43.78125 44.16 
L 353.074583 44.16 
" style="fill: none; stroke: #00aa00; stroke-width: 0.8; stroke-linejoin: miter; stroke-linecap: square"/>
   </g>
   <g id="text_22">
    <!-- run018_gravity_claud (unknown) -->
    <g style="fill: #00ff00" transform="translate(115.464792 38.16) scale(0.09 -0.09)">
     <defs>
      <path id="DejaVuSans-Bold-72" d="M 3138 2547 
Q 2991 2616 2845 2648 
Q 2700 2681 2553 2681 
Q 2122 2681 1889 2404 
Q 1656 2128 1656 1613 
L 1656 0 
L 538 0 
L 538 3500 
L 1656 3500 
L 1656 2925 
Q 1872 3269 2151 3426 
Q 2431 3584 2822 3584 
Q 2878 3584 2943 3579 
Q 3009 3575 3134 3559 
L 3138 2547 
z
" transform="scale(0.015625)"/>
      <path id="DejaVuSans-Bold-75" d="M 500 1363 
L 500 3500 
L 1625 3500 
L 1625 3150 
Q 1625 2866 1622 2436 
Q 1619 2006 1619 1863 
Q 1619 1441 1641 1255 
Q 1663 1069 1716 984 
Q 1784 875 1895 815 
Q 2006 756 2150 756 
Q 2500 756 2700 1025 
Q 2900 1294 2900 1772 
L 2900 3500 
L 4019 3500 
L 4019 0 
L 2900 0 
L 2900 506 
Q 2647 200 2364 54 
Q 2081 -91 1741 -91 
Q 1134 -91 817 281 
Q 500 653 500 1363 
z
" transform="scale(0.015625)"/>
      <path id="DejaVuSans-Bold-6e" d="M 4056 2131 
L 4056 0 
L 2931 0 
L 2931 347 
L 2931 1631 
Q 2931 2084 2911 2256 
Q 2891 2428 2841 2509 
Q 2775 2619 2662 2680 
Q 2550 2741 2406 2741 
Q 2056 2741 1856 2470 
Q 1656 2200 1656 1722 
L 1656 0 
L 538 0 
L 538 3500 
L 1656 3500 
L 1656 2988 
Q 1909 3294 2193 3439 
Q 2478 3584 2822 3584 
Q 3428 3584 3742 3212 
Q 4056 2841 4056 2131 
z
" transform="scale(0.015625)"/>
      <path id="DejaVuSans-Bold-30" d="M 2944 2338 
Q 2944 3213 2780 3570 
Q 2616 3928 2228 3928 
Q 1841 3928 1675 3570 
Q 1509 3213 1509 2338 
Q 1509 1453 1675 1090 
Q 1841 728 2228 728 
Q 2613 728 2778 1090 
Q 2944 1453 2944 2338 
z
M 4147 2328 
Q 4147 1169 3647 539 
Q 3147 -91 2228 -91 
Q 1306 -91 806 539 
Q 306 1169 306 2328 
Q 306 3491 806 4120 
Q 1306 4750 2228 4750 
Q 3147 4750 3647 4120 
Q 4147 3491 4147 2328 
z
" transform="scale(0.015625)"/>
      <path id="DejaVuSans-Bold-31" d="M 750 831 
L 1813 831 
L 1813 3847 
L 722 3622 
L 722 4441 
L 1806 4666 
L 2950 4666 
L 2950 831 
L 4013 831 
L 4013 0 
L 750 0 
L 750 831 
z
" transform="scale(0.015625)"/>
      <path id="DejaVuSans-Bold-38" d="M 2228 2088 
Q 1891 2088 1709 1903 
Q 1528 1719 1528 1375 
Q 1528 1031 1709 848 
Q 1891 666 2228 666 
Q 2563 666 2741 848 
Q 2919 1031 2919 1375 
Q 2919 1722 2741 1905 
Q 2563 2088 2228 2088 
z
M 1350 2484 
Q 925 2613 709 2878 
Q 494 3144 494 3541 
Q 494 4131 934 4440 
Q 1375 4750 2228 4750 
Q 3075 4750 3515 4442 
Q 3956 4134 3956 3541 
Q 3956 3144 3739 2878 
Q 3522 2613 3097 2484 
Q 3572 2353 3814 2058 
Q 4056 1763 4056 1313 
Q 4056 619 3595 264 
Q 3134 -91 2228 -91 
Q 1319 -91 855 264 
Q 391 619 391 1313 
Q 391 1763 633 2058 
Q 875 2353 1350 2484 
z
M 1631 3419 
Q 1631 3141 1786 2991 
Q 1941 2841 2228 2841 
Q 2509 2841 2662 2991 
Q 2816 3141 2816 3419 
Q 2816 3697 2662 3845 
Q 2509 3994 2228 3994 
Q 1941 3994 1786 3844 
Q 1631 3694 1631 3419 
z
" transform="scale(0.015625)"/>
      <path id="DejaVuSans-Bold-5f" d="M 3200 -916 
L 3200 -1509 
L 0 -1509 
L 0 -916 
L 3200 -916 
z
" transform="scale(0.015625)"/>
      <path id="DejaVuSans-Bold-67" d="M 2919 594 
Q 2688 288 2409 144 
Q 2131 0 1766 0 
Q 1125 0 706 504 
Q 288 1009 288 1791 
Q 288 2575 706 3076 
Q 1125 3578 1766 3578 
Q 2131 3578 2409 3434 
Q 2688 3291 2919 2981 
L 2919 3500 
L 4044 3500 
L 4044 353 
Q 4044 -491 3511 -936 
Q 2978 -1381 1966 -1381 
Q 1638 -1381 1331 -1331 
Q 1025 -1281 716 -1178 
L 716 -306 
Q 1009 -475 1290 -558 
Q 1572 -641 1856 -641 
Q 2406 -641 2662 -400 
Q 2919 -159 2919 353 
L 2919 594 
z
M 2181 2772 
Q 1834 2772 1640 2515 
Q 1447 2259 1447 1791 
Q 1447 1309 1634 1061 
Q 1822 813 2181 813 
Q 2531 813 2725 1069 
Q 2919 1325 2919 1791 
Q 2919 2259 2725 2515 
Q 2531 2772 2181 2772 
z
" transform="scale(0.015625)"/>
      <path id="DejaVuSans-Bold-61" d="M 2106 1575 
Q 1756 1575 1579 1456 
Q 1403 1338 1403 1106 
Q 1403 894 1545 773 
Q 1688 653 1941 653 
Q 2256 653 2472 879 
Q 2688 1106 2688 1447 
L 2688 1575 
L 2106 1575 
z
M 3816 1997 
L 3816 0 
L 2688 0 
L 2688 519 
Q 2463 200 2181 54 
Q 1900 -91 1497 -91 
Q 953 -91 614 226 
Q 275 544 275 1050 
Q 275 1666 698 1953 
Q 1122 2241 2028 2241 
L 2688 2241 
L 2688 2328 
Q 2688 2594 2478 2717 
Q 2269 2841 1825 2841 
Q 1466 2841 1156 2769 
Q 847 2697 581 2553 
L 581 3406 
Q 941 3494 1303 3539 
Q 1666 3584 2028 3584 
Q 2975 3584 3395 3211 
Q 3816 2838 3816 1997 
z
" transform="scale(0.015625)"/>
      <path id="DejaVuSans-Bold-76" d="M 97 3500 
L 1216 3500 
L 2088 1081 
L 2956 3500 
L 4078 3500 
L 2700 0 
L 1472 0 
L 97 3500 
z
" transform="scale(0.015625)"/>
      <path id="DejaVuSans-Bold-69" d="M 538 3500 
L 1656 3500 
L 1656 0 
L 538 0 
L 538 3500 
z
M 538 4863 
L 1656 4863 
L 1656 3950 
L 538 3950 
L 538 4863 
z
" transform="scale(0.015625)"/>
      <path id="DejaVuSans-Bold-74" d="M 1759 4494 
L 1759 3500 
L 2913 3500 
L 2913 2700 
L 1759 2700 
L 1759 1216 
Q 1759 972 1856 886 
Q 1953 800 2241 800 
L 2816 800 
L 2816 0 
L 1856 0 
Q 1194 0 917 276 
Q 641 553 641 1216 
L 641 2700 
L 84 2700 
L 84 3500 
L 641 3500 
L 641 4494 
L 1759 4494 
z
" transform="scale(0.015625)"/>
      <path id="DejaVuSans-Bold-79" d="M 78 3500 
L 1197 3500 
L 2138 1125 
L 2938 3500 
L 4056 3500 
L 2584 -331 
Q 2363 -916 2067 -1148 
Q 1772 -1381 1288 -1381 
L 641 -1381 
L 641 -647 
L 991 -647 
Q 1275 -647 1404 -556 
Q 1534 -466 1606 -231 
L 1638 -134 
L 78 3500 
z
" transform="scale(0.015625)"/>
      <path id="DejaVuSans-Bold-63" d="M 3366 3391 
L 3366 2478 
Q 3138 2634 2908 2709 
Q 2678 2784 2431 2784 
Q 1963 2784 1702 2511 
Q 1441 2238 1441 1747 
Q 1441 1256 1702 982 
Q 1963 709 2431 709 
Q 2694 709 2930 787 
Q 3166 866 3366 1019 
L 3366 103 
Q 3103 6 2833 -42 
Q 2563 -91 2291 -91 
Q 1344 -91 809 395 
Q 275 881 275 1747 
Q 275 2613 809 3098 
Q 1344 3584 2291 3584 
Q 2566 3584 2833 3536 
Q 3100 3488 3366 3391 
z
" transform="scale(0.015625)"/>
      <path id="DejaVuSans-Bold-6c" d="M 538 4863 
L 1656 4863 
L 1656 0 
L 538 0 
L 538 4863 
z
" transform="scale(0.015625)"/>
      <path id="DejaVuSans-Bold-64" d="M 2919 2988 
L 2919 4863 
L 4044 4863 
L 4044 0 
L 2919 0 
L 2919 506 
Q 2688 197 2409 53 
Q 2131 -91 1766 -91 
Q 1119 -91 703 423 
Q 288 938 288 1747 
Q 288 2556 703 3070 
Q 1119 3584 1766 3584 
Q 2128 3584 2408 3439 
Q 2688 3294 2919 2988 
z
M 2181 722 
Q 2541 722 2730 984 
Q 2919 1247 2919 1747 
Q 2919 2247 2730 2509 
Q 2541 2772 2181 2772 
Q 1825 2772 1636 2509 
Q 1447 2247 1447 1747 
Q 1447 1247 1636 984 
Q 1825 722 2181 722 
z
" transform="scale(0.015625)"/>
      <path id="DejaVuSans-Bold-20" transform="scale(0.015625)"/>
      <path id="DejaVuSans-Bold-28" d="M 2413 -844 
L 1484 -844 
Q 1006 -72 778 623 
Q 550 1319 550 2003 
Q 550 2688 779 3389 
Q 1009 4091 1484 4856 
L 2413 4856 
Q 2013 4116 1813 3408 
Q 1613 2700 1613 2009 
Q 1613 1319 1811 609 
Q 2009 -100 2413 -844 
z
" transform="scale(0.015625)"/>
      <path id="DejaVuSans-Bold-6b" d="M 538 4863 
L 1656 4863 
L 1656 2216 
L 2944 3500 
L 4244 3500 
L 2534 1894 
L 4378 0 
L 3022 0 
L 1656 1459 
L 1656 0 
L 538 0 
L 538 4863 
z
" transform="scale(0.015625)"/>
      <path id="DejaVuSans-Bold-6f" d="M 2203 2784 
Q 1831 2784 1636 2517 
Q 1441 2250 1441 1747 
Q 1441 1244 1636 976 
Q 1831 709 2203 709 
Q 2569 709 2762 976 
Q 2956 1244 2956 1747 
Q 2956 2250 2762 2517 
Q 2569 2784 2203 2784 
z
M 2203 3584 
Q 3106 3584 3614 3096 
Q 4122 2609 4122 1747 
Q 4122 884 3614 396 
Q 3106 -91 2203 -91 
Q 1297 -91 786 396 
Q 275 884 275 1747 
Q 275 2609 786 3096 
Q 1297 3584 2203 3584 
z
" transform="scale(0.015625)"/>
      <path id="DejaVuSans-Bold-77" d="M 225 3500 
L 1313 3500 
L 1900 1088 
L 2491 3500 
L 3425 3500 
L 4013 1113 
L 4603 3500 
L 5691 3500 
L 4769 0 
L 3547 0 
L 2956 2406 
L 2369 0 
L 1147 0 
L 225 3500 
z
" transform="scale(0.015625)"/>
      <path id="DejaVuSans-Bold-29" d="M 513 -844 
Q 913 -100 1113 609 
Q 1313 1319 1313 2009 
Q 1313 2700 1113 3408 
Q 913 4116 513 4856 
L 1441 4856 
Q 1916 4091 2145 3389 
Q 2375 2688 2375 2003 
Q 2375 1319 2147 623 
Q 1919 -72 1441 -844 
L 513 -844 
z
" transform="scale(0.015625)"/>
     </defs>
     <use xlink:href="#DejaVuSans-Bold-72"/>
     <use xlink:href="#DejaVuSans-Bold-75" transform="translate(49.316406 0)"/>
     <use xlink:href="#DejaVuSans-Bold-6e" transform="translate(120.507812 0)"/>
     <use xlink:href="#DejaVuSans-Bold-30" transform="translate(191.699219 0)"/>
     <use xlink:href="#DejaVuSans-Bold-31" transform="translate(261.279297 0)"/>
     <use xlink:href="#DejaVuSans-Bold-38" transform="translate(330.859375 0)"/>
     <use xlink:href="#DejaVuSans-Bold-5f" transform="translate(400.439453 0)"/>
     <use xlink:href="#DejaVuSans-Bold-67" transform="translate(450.439453 0)"/>
     <use xlink:href="#DejaVuSans-Bold-72" transform="translate(522.021484 0)"/>
     <use xlink:href="#DejaVuSans-Bold-61" transform="translate(571.337891 0)"/>
     <use xlink:href="#DejaVuSans-Bold-76" transform="translate(638.818359 0)"/>
     <use xlink:href="#DejaVuSans-Bold-69" transform="translate(704.003906 0)"/>
     <use xlink:href="#DejaVuSans-Bold-74" transform="translate(738.28125 0)"/>
     <use xlink:href="#DejaVuSans-Bold-79" transform="translate(786.083984 0)"/>
     <use xlink:href="#DejaVuSans-Bold-5f" transform="translate(851.269531 0)"/>
     <use xlink:href="#DejaVuSans-Bold-63" transform="translate(901.269531 0)"/>
     <use xlink:href="#DejaVuSans-Bold-6c" transform="translate(960.546875 0)"/>
     <use xlink:href="#DejaVuSans-Bold-61" transform="translate(994.824219 0)"/>
     <use xlink:href="#DejaVuSans-Bold-75" transform="translate(1062.304688 0)"/>
     <use xlink:href="#DejaVuSans-Bold-64" transform="translate(1133.496094 0)"/>
     <use xlink:href="#DejaVuSans-Bold-20" transform="translate(1205.078125 0)"/>
     <use xlink:href="#DejaVuSans-Bold-28" transform="translate(1239.892578 0)"/>
     <use xlink:href="#DejaVuSans-Bold-75" transform="translate(1285.595703 0)"/>
     <use xlink:href="#DejaVuSans-Bold-6e" transform="translate(1356.787109 0)"/>
     <use xlink:href="#DejaVuSans-Bold-6b" transform="translate(1427.978516 0)"/>
     <use xlink:href="#DejaVuSans-Bold-6e" transform="translate(1494.482422 0)"/>
     <use xlink:href="#DejaVuSans-Bold-6f" transform="translate(1565.673828 0)"/>
     <use xlink:href="#DejaVuSans-Bold-77" transform="translate(1634.375 0)"/>
     <use xlink:href="#DejaVuSans-Bold-6e" transform="translate(1726.757812 0)"/>
     <use xlink:href="#DejaVuSans-Bold-29" transform="translate(1797.949219 0)"/>
    </g>
   </g>
   <g id="PathCollection_1">
    <defs>
     <path id="m49cbcc9bd3" d="M 0 2.738613 
C 0.726289 2.738613 1.422928 2.450055 1.936492 1.936492 
C 2.450055 1.422928 2.738613 0.726289 2.738613 0 
C 2.738613 -0.726289 2.450055 -1.422928 1.936492 -1.936492 
C 1.422928 -2.450055 0.726289 -2.738613 0 -2.738613 
C -0.726289 -2.738613 -1.422928 -2.450055 -1.936492 -1.936492 
C -2.450055 -1.422928 -2.738613 -0.726289 -2.738613 0 
C -2.738613 0.726289 -2.450055 1.422928 -1.936492 1.936492 
C -1.422928 2.450055 -0.726289 2.738613 0 2.738613 
z
" style="stroke: #00ff00"/>
    </defs>
    <g clip-path="url(#pe38072b758)">
     <use xlink:href="#m49cbcc9bd3" x="57.840038" y="133.827879" style="fill: #00ff00; stroke: #00ff00"/>
     <use xlink:href="#m49cbcc9bd3" x="85.957614" y="167.263037" style="fill: #00ff00; stroke: #00ff00"/>
     <use xlink:href="#m49cbcc9bd3" x="114.075189" y="202.481585" style="fill: #00ff00; stroke: #00ff00"/>
     <use xlink:href="#m49cbcc9bd3" x="142.192765" y="140.965995" style="fill: #00ff00; stroke: #00ff00"/>
     <use xlink:href="#m49cbcc9bd3" x="170.310341" y="190.983123" style="fill: #00ff00; stroke: #00ff00"/>
     <use xlink:href="#m49cbcc9bd3" x="198.427917" y="186.499465" style="fill: #00ff00; stroke: #00ff00"/>
     <use xlink:href="#m49cbcc9bd3" x="226.545492" y="140.489778" style="fill: #00ff00; stroke: #00ff00"/>
     <use xlink:href="#m49cbcc9bd3" x="254.663068" y="145.438144" style="fill: #00ff00; stroke: #00ff00"/>
     <use xlink:href="#m49cbcc9bd3" x="282.780644" y="175.570359" style="fill: #00ff00; stroke: #00ff00"/>
     <use xlink:href="#m49cbcc9bd3" x="310.89822" y="160.227994" style="fill: #00ff00; stroke: #00ff00"/>
     <use xlink:href="#m49cbcc9bd3" x="339.015795" y="181.486556" style="fill: #00ff00; stroke: #00ff00"/>
    </g>
   </g>
  </g>
  <g id="text_23">
   <!-- Run 018: Cognitive Waveforms - Identity Drift Over Conversation -->
   <g style="fill: #00ff00" transform="translate(243.341719 17.837812) scale(0.14 -0.14)">
    <defs>
     <path id="DejaVuSans-Bold-52" d="M 2297 2597 
Q 2675 2597 2839 2737 
Q 3003 2878 3003 3200 
Q 3003 3519 2839 3656 
Q 2675 3794 2297 3794 
L 1791 3794 
L 1791 2597 
L 2297 2597 
z
M 1791 1766 
L 1791 0 
L 588 0 
L 588 4666 
L 2425 4666 
Q 3347 4666 3776 4356 
Q 4206 4047 4206 3378 
Q 4206 2916 3982 2619 
Q 3759 2322 3309 2181 
Q 3556 2125 3751 1926 
Q 3947 1728 4147 1325 
L 4800 0 
L 3519 0 
L 2950 1159 
Q 2778 1509 2601 1637 
Q 2425 1766 2131 1766 
L 1791 1766 
z
" transform="scale(0.015625)"/>
     <path id="DejaVuSans-Bold-3a" d="M 716 3500 
L 1844 3500 
L 1844 2291 
L 716 2291 
L 716 3500 
z
M 716 1209 
L 1844 1209 
L 1844 0 
L 716 0 
L 716 1209 
z
" transform="scale(0.015625)"/>
     <path id="DejaVuSans-Bold-43" d="M 4288 256 
Q 3956 84 3597 -3 
Q 3238 -91 2847 -91 
Q 1681 -91 1000 561 
Q 319 1213 319 2328 
Q 319 3447 1000 4098 
Q 1681 4750 2847 4750 
Q 3238 4750 3597 4662 
Q 3956 4575 4288 4403 
L 4288 3438 
Q 3953 3666 3628 3772 
Q 3303 3878 2944 3878 
Q 2300 3878 1931 3465 
Q 1563 3053 1563 2328 
Q 1563 1606 1931 1193 
Q 2300 781 2944 781 
Q 3303 781 3628 887 
Q 3953 994 4288 1222 
L 4288 256 
z
" transform="scale(0.015625)"/>
     <path id="DejaVuSans-Bold-65" d="M 4031 1759 
L 4031 1441 
L 1416 1441 
Q 1456 1047 1700 850 
Q 1944 653 2381 653 
Q 2734 653 3104 758 
Q 3475 863 3866 1075 
L 3866 213 
Q 3469 63 3072 -14 
Q 2675 -91 2278 -91 
Q 1328 -91 801 392 
Q 275 875 275 1747 
Q 275 2603 792 3093 
Q 1309 3584 2216 3584 
Q 3041 3584 3536 3087 
Q 4031 2591 4031 1759 
z
M 2881 2131 
Q 2881 2450 2695 2645 
Q 2509 2841 2209 2841 
Q 1884 2841 1681 2658 
Q 1478 2475 1428 2131 
L 2881 2131 
z
" transform="scale(0.015625)"/>
     <path id="DejaVuSans-Bold-57" d="M 191 4666 
L 1344 4666 
L 2150 1275 
L 2950 4666 
L 4109 4666 
L 4909 1275 
L 5716 4666 
L 6859 4666 
L 5759 0 
L 4372 0 
L 3525 3547 
L 2688 0 
L 1300 0 
L 191 4666 
z
" transform="scale(0.015625)"/>
     <path id="DejaVuSans-Bold-66" d="M 2841 4863 
L 2841 4128 
L 2222 4128 
Q 1984 4128 1890 4042 
Q 1797 3956 1797 3744 
L 1797 3500 
L 2753 3500 
L 2753 2700 
L 1797 2700 
L 1797 0 
L 678 0 
L 678 2700 
L 122 2700 
L 122 3500 
L 678 3500 
L 678 3744 
Q 678 4316 997 4589 
Q 1316 4863 1984 4863 
L 2841 4863 
z
" transform="scale(0.015625)"/>
     <path id="DejaVuSans-Bold-6d" d="M 3781 2919 
Q 3994 3244 4286 3414 
Q 4578 3584 4928 3584 
Q 5531 3584 5847 3212 
Q 6163 2841 6163 2131 
L 6163 0 
L 5038 0 
L 5038 1825 
Q 5041 1866 5042 1909 
Q 5044 1953 5044 2034 
Q 5044 2406 4934 2573 
Q 4825 2741 4581 2741 
Q 4263 2741 4089 2478 
Q 3916 2216 3909 1719 
L 3909 0 
L 2784 0 
L 2784 1825 
Q 2784 2406 2684 2573 
Q 2584 2741 2328 2741 
Q 2006 2741 1831 2477 
Q 1656 2213 1656 1722 
L 1656 0 
L 531 0 
L 531 3500 
L 1656 3500 
L 1656 2988 
Q 1863 3284 2130 3434 
Q 2397 3584 2719 3584 
Q 3081 3584 3359 3409 
Q 3638 3234 3781 2919 
z
" transform="scale(0.015625)"/>
     <path id="DejaVuSans-Bold-73" d="M 3272 3391 
L 3272 2541 
Q 2913 2691 2578 2766 
Q 2244 2841 1947 2841 
Q 1628 2841 1473 2761 
Q 1319 2681 1319 2516 
Q 1319 2381 1436 2309 
Q 1553 2238 1856 2203 
L 2053 2175 
Q 2913 2066 3209 1816 
Q 3506 1566 3506 1031 
Q 3506 472 3093 190 
Q 2681 -91 1863 -91 
Q 1516 -91 1145 -36 
Q 775 19 384 128 
L 384 978 
Q 719 816 1070 734 
Q 1422 653 1784 653 
Q 2113 653 2278 743 
Q 2444 834 2444 1013 
Q 2444 1163 2330 1236 
Q 2216 1309 1875 1350 
L 1678 1375 
Q 931 1469 631 1722 
Q 331 1975 331 2491 
Q 331 3047 712 3315 
Q 1094 3584 1881 3584 
Q 2191 3584 2531 3537 
Q 2872 3491 3272 3391 
z
" transform="scale(0.015625)"/>
     <path id="DejaVuSans-Bold-2d" d="M 347 2297 
L 2309 2297 
L 2309 1388 
L 347 1388 
L 347 2297 
z
" transform="scale(0.015625)"/>
     <path id="DejaVuSans-Bold-49" d="M 588 4666 
L 1791 4666 
L 1791 0 
L 588 0 
L 588 4666 
z
" transform="scale(0.015625)"/>
     <path id="DejaVuSans-Bold-44" d="M 1791 3756 
L 1791 909 
L 2222 909 
Q 2959 909 3348 1275 
Q 3738 1641 3738 2338 
Q 3738 3031 3350 3393 
Q 2963 3756 2222 3756 
L 1791 3756 
z
M 588 4666 
L 1856 4666 
Q 2919 4666 3439 4514 
Q 3959 4363 4331 4000 
Q 4659 3684 4818 3271 
Q 4978 2859 4978 2338 
Q 4978 1809 4818 1395 
Q 4659 981 4331 666 
Q 3956 303 3431 151 
Q 2906 0 1856 0 
L 588 0 
L 588 4666 
z
" transform="scale(0.015625)"/>
     <path id="DejaVuSans-Bold-4f" d="M 2719 3878 
Q 2169 3878 1866 3472 
Q 1563 3066 1563 2328 
Q 1563 1594 1866 1187 
Q 2169 781 2719 781 
Q 3272 781 3575 1187 
Q 3878 1594 3878 2328 
Q 3878 3066 3575 3472 
Q 3272 3878 2719 3878 
z
M 2719 4750 
Q 3844 4750 4481 4106 
Q 5119 3463 5119 2328 
Q 5119 1197 4481 553 
Q 3844 -91 2719 -91 
Q 1597 -91 958 553 
Q 319 1197 319 2328 
Q 319 3463 958 4106 
Q 1597 4750 2719 4750 
z
" transform="scale(0.015625)"/>
    </defs>
    <use xlink:href="#DejaVuSans-Bold-52"/>
    <use xlink:href="#DejaVuSans-Bold-75" transform="translate(77.001953 0)"/>
    <use xlink:href="#DejaVuSans-Bold-6e" transform="translate(148.193359 0)"/>
    <use xlink:href="#DejaVuSans-Bold-20" transform="translate(219.384766 0)"/>
    <use xlink:href="#DejaVuSans-Bold-30" transform="translate(254.199219 0)"/>
    <use xlink:href="#DejaVuSans-Bold-31" transform="translate(323.779297 0)"/>
    <use xlink:href="#DejaVuSans-Bold-38" transform="translate(393.359375 0)"/>
    <use xlink:href="#DejaVuSans-Bold-3a" transform="translate(462.939453 0)"/>
    <use xlink:href="#DejaVuSans-Bold-20" transform="translate(502.929688 0)"/>
    <use xlink:href="#DejaVuSans-Bold-43" transform="translate(537.744141 0)"/>
    <use xlink:href="#DejaVuSans-Bold-6f" transform="translate(611.132812 0)"/>
    <use xlink:href="#DejaVuSans-Bold-67" transform="translate(679.833984 0)"/>
    <use xlink:href="#DejaVuSans-Bold-6e" transform="translate(751.416016 0)"/>
    <use xlink:href="#DejaVuSans-Bold-69" transform="translate(822.607422 0)"/>
    <use xlink:href="#DejaVuSans-Bold-74" transform="translate(856.884766 0)"/>
    <use xlink:href="#DejaVuSans-Bold-69" transform="translate(904.6875 0)"/>
    <use xlink:href="#DejaVuSans-Bold-76" transform="translate(938.964844 0)"/>
    <use xlink:href="#DejaVuSans-Bold-65" transform="translate(1004.150391 0)"/>
    <use xlink:href="#DejaVuSans-Bold-20" transform="translate(1071.972656 0)"/>
    <use xlink:href="#DejaVuSans-Bold-57" transform="translate(1106.787109 0)"/>
    <use xlink:href="#DejaVuSans-Bold-61" transform="translate(1213.464844 0)"/>
    <use xlink:href="#DejaVuSans-Bold-76" transform="translate(1280.945312 0)"/>
    <use xlink:href="#DejaVuSans-Bold-65" transform="translate(1346.130859 0)"/>
    <use xlink:href="#DejaVuSans-Bold-66" transform="translate(1413.953125 0)"/>
    <use xlink:href="#DejaVuSans-Bold-6f" transform="translate(1457.458984 0)"/>
    <use xlink:href="#DejaVuSans-Bold-72" transform="translate(1526.160156 0)"/>
    <use xlink:href="#DejaVuSans-Bold-6d" transform="translate(1575.476562 0)"/>
    <use xlink:href="#DejaVuSans-Bold-73" transform="translate(1679.675781 0)"/>
    <use xlink:href="#DejaVuSans-Bold-20" transform="translate(1739.197266 0)"/>
    <use xlink:href="#DejaVuSans-Bold-2d" transform="translate(1774.011719 0)"/>
    <use xlink:href="#DejaVuSans-Bold-20" transform="translate(1815.515625 0)"/>
    <use xlink:href="#DejaVuSans-Bold-49" transform="translate(1850.330078 0)"/>
    <use xlink:href="#DejaVuSans-Bold-64" transform="translate(1887.537109 0)"/>
    <use xlink:href="#DejaVuSans-Bold-65" transform="translate(1959.119141 0)"/>
    <use xlink:href="#DejaVuSans-Bold-6e" transform="translate(2026.941406 0)"/>
    <use xlink:href="#DejaVuSans-Bold-74" transform="translate(2098.132812 0)"/>
    <use xlink:href="#DejaVuSans-Bold-69" transform="translate(2145.935547 0)"/>
    <use xlink:href="#DejaVuSans-Bold-74" transform="translate(2180.212891 0)"/>
    <use xlink:href="#DejaVuSans-Bold-79" transform="translate(2228.015625 0)"/>
    <use xlink:href="#DejaVuSans-Bold-20" transform="translate(2293.201172 0)"/>
    <use xlink:href="#DejaVuSans-Bold-44" transform="translate(2328.015625 0)"/>
    <use xlink:href="#DejaVuSans-Bold-72" transform="translate(2411.023438 0)"/>
    <use xlink:href="#DejaVuSans-Bold-69" transform="translate(2460.339844 0)"/>
    <use xlink:href="#DejaVuSans-Bold-66" transform="translate(2494.617188 0)"/>
    <use xlink:href="#DejaVuSans-Bold-74" transform="translate(2538.123047 0)"/>
    <use xlink:href="#DejaVuSans-Bold-20" transform="translate(2585.925781 0)"/>
    <use xlink:href="#DejaVuSans-Bold-4f" transform="translate(2620.740234 0)"/>
    <use xlink:href="#DejaVuSans-Bold-76" transform="translate(2705.75 0)"/>
    <use xlink:href="#DejaVuSans-Bold-65" transform="translate(2770.935547 0)"/>
    <use xlink:href="#DejaVuSans-Bold-72" transform="translate(2838.757812 0)"/>
    <use xlink:href="#DejaVuSans-Bold-20" transform="translate(2888.074219 0)"/>
    <use xlink:href="#DejaVuSans-Bold-43" transform="translate(2922.888672 0)"/>
    <use xlink:href="#DejaVuSans-Bold-6f" transform="translate(2996.277344 0)"/>
    <use xlink:href="#DejaVuSans-Bold-6e" transform="translate(3064.978516 0)"/>
    <use xlink:href="#DejaVuSans-Bold-76" transform="translate(3136.169922 0)"/>
    <use xlink:href="#DejaVuSans-Bold-65" transform="translate(3201.355469 0)"/>
    <use xlink:href="#DejaVuSans-Bold-72" transform="translate(3269.177734 0)"/>
    <use xlink:href="#DejaVuSans-Bold-73" transform="translate(3318.494141 0)"/>
    <use xlink:href="#DejaVuSans-Bold-61" transform="translate(3378.015625 0)"/>
    <use xlink:href="#DejaVuSans-Bold-74" transform="translate(3445.496094 0)"/>
    <use xlink:href="#DejaVuSans-Bold-69" transform="translate(3493.298828 0)"/>
    <use xlink:href="#DejaVuSans-Bold-6f" transform="translate(3527.576172 0)"/>
    <use xlink:href="#DejaVuSans-Bold-6e" transform="translate(3596.277344 0)"/>
   </g>
  </g>
 </g>
 <defs>
  <clipPath id="pe38072b758">
   <rect x="43.78125" y="44.16" width="309.293333" height="240.26"/>
  </clipPath>
 </defs>
</svg>
