<?xml version="1.0" encoding="utf-8" standalone="no"?>
<!DOCTYPE svg PUBLIC "-//W3C//DTD SVG 1.1//EN"
  "http://www.w3.org/Graphics/SVG/1.1/DTD/svg11.dtd">
<svg xmlns:xlink="http://www.w3.org/1999/xlink" width="999.426875pt" height="442.491875pt" viewBox="0 0 999.426875 442.491875" xmlns="http://www.w3.org/2000/svg" version="1.1">
 <metadata>
  <rdf:RDF xmlns:dc="http://purl.org/dc/elements/1.1/" xmlns:cc="http://creativecommons.org/ns#" xmlns:rdf="http://www.w3.org/1999/02/22-rdf-syntax-ns#">
   <cc:Work>
    <dc:type rdf:resource="http://purl.org/dc/dcmitype/StillImage"/>
    <dc:date>2025-12-10T11:40:48.303190</dc:date>
    <dc:format>image/svg+xml</dc:format>
    <dc:creator>
     <cc:Agent>
      <dc:title>Matplotlib v3.10.7, https://matplotlib.org/</dc:title>
     </cc:Agent>
    </dc:creator>
   </cc:Work>
  </rdf:RDF>
 </metadata>
 <defs>
  <style type="text/css">*{stroke-linejoin: round; stroke-linecap: butt}</style>
 </defs>
 <g id="figure_1">
  <g id="patch_1">
   <path d="M 0 442.491875 
L 999.426875 442.491875 
L 999.426875 -0 
L 0 -0 
z
" style="fill: #ffffff"/>
  </g>
  <g id="axes_1">
   <g id="patch_2">
    <path d="M 45.716875 403 
L 493.626875 403 
L 493.626875 82.176 
L 45.716875 82.176 
z
" style="fill: #ffffff"/>
   </g>
   <g id="FillBetweenPolyCollection_1">
    <defs>
     <path id="mfe2f90d603" d="M 66.07642 -395.962986 
L 66.07642 -258.721608 
L 473.26733 -258.721608 
L 473.26733 -395.962986 
L 473.26733 -395.962986 
L 66.07642 -395.962986 
z
" style="stroke: #ff0000; stroke-opacity: 0.15"/>
    </defs>
    <g clip-path="url(#pc68e492a48)">
     <use xlink:href="#mfe2f90d603" x="0" y="442.491875" style="fill: #ff0000; fill-opacity: 0.15; stroke: #ff0000; stroke-opacity: 0.15"/>
    </g>
   </g>
   <g id="matplotlib.axis_1">
    <g id="xtick_1">
     <g id="line2d_1">
      <path d="M 66.07642 403 
L 66.07642 82.176 
" clip-path="url(#pc68e492a48)" style="fill: none; stroke: #b0b0b0; stroke-opacity: 0.3; stroke-width: 0.8; stroke-linecap: square"/>
     </g>
     <g id="line2d_2">
      <defs>
       <path id="mdbf8782738" d="M 0 0 
L 0 3.5 
" style="stroke: #000000; stroke-width: 0.8"/>
      </defs>
      <g>
       <use xlink:href="#mdbf8782738" x="66.07642" y="403" style="stroke: #000000; stroke-width: 0.8"/>
      </g>
     </g>
     <g id="text_1">
      <!-- 0 -->
      <g transform="translate(62.89517 417.598437) scale(0.1 -0.1)">
       <defs>
        <path id="DejaVuSans-30" d="M 2034 4250 
Q 1547 4250 1301 3770 
Q 1056 3291 1056 2328 
Q 1056 1369 1301 889 
Q 1547 409 2034 409 
Q 2525 409 2770 889 
Q 3016 1369 3016 2328 
Q 3016 3291 2770 3770 
Q 2525 4250 2034 4250 
z
M 2034 4750 
Q 2819 4750 3233 4129 
Q 3647 3509 3647 2328 
Q 3647 1150 3233 529 
Q 2819 -91 2034 -91 
Q 1250 -91 836 529 
Q 422 1150 422 2328 
Q 422 3509 836 4129 
Q 1250 4750 2034 4750 
z
" transform="scale(0.015625)"/>
       </defs>
       <use xlink:href="#DejaVuSans-30"/>
      </g>
     </g>
    </g>
    <g id="xtick_2">
     <g id="line2d_3">
      <path d="M 140.111131 403 
L 140.111131 82.176 
" clip-path="url(#pc68e492a48)" style="fill: none; stroke: #b0b0b0; stroke-opacity: 0.3; stroke-width: 0.8; stroke-linecap: square"/>
     </g>
     <g id="line2d_4">
      <g>
       <use xlink:href="#mdbf8782738" x="140.111131" y="403" style="stroke: #000000; stroke-width: 0.8"/>
      </g>
     </g>
     <g id="text_2">
      <!-- 2 -->
      <g transform="translate(136.929881 417.598437) scale(0.1 -0.1)">
       <defs>
        <path id="DejaVuSans-32" d="M 1228 531 
L 3431 531 
L 3431 0 
L 469 0 
L 469 531 
Q 828 903 1448 1529 
Q 2069 2156 2228 2338 
Q 2531 2678 2651 2914 
Q 2772 3150 2772 3378 
Q 2772 3750 2511 3984 
Q 2250 4219 1831 4219 
Q 1534 4219 1204 4116 
Q 875 4013 500 3803 
L 500 4441 
Q 881 4594 1212 4672 
Q 1544 4750 1819 4750 
Q 2544 4750 2975 4387 
Q 3406 4025 3406 3419 
Q 3406 3131 3298 2873 
Q 3191 2616 2906 2266 
Q 2828 2175 2409 1742 
Q 1991 1309 1228 531 
z
" transform="scale(0.015625)"/>
       </defs>
       <use xlink:href="#DejaVuSans-32"/>
      </g>
     </g>
    </g>
    <g id="xtick_3">
     <g id="line2d_5">
      <path d="M 214.145842 403 
L 214.145842 82.176 
" clip-path="url(#pc68e492a48)" style="fill: none; stroke: #b0b0b0; stroke-opacity: 0.3; stroke-width: 0.8; stroke-linecap: square"/>
     </g>
     <g id="line2d_6">
      <g>
       <use xlink:href="#mdbf8782738" x="214.145842" y="403" style="stroke: #000000; stroke-width: 0.8"/>
      </g>
     </g>
     <g id="text_3">
      <!-- 4 -->
      <g transform="translate(210.964592 417.598437) scale(0.1 -0.1)">
       <defs>
        <path id="DejaVuSans-34" d="M 2419 4116 
L 825 1625 
L 2419 1625 
L 2419 4116 
z
M 2253 4666 
L 3047 4666 
L 3047 1625 
L 3713 1625 
L 3713 1100 
L 3047 1100 
L 3047 0 
L 2419 0 
L 2419 1100 
L 313 1100 
L 313 1709 
L 2253 4666 
z
" transform="scale(0.015625)"/>
       </defs>
       <use xlink:href="#DejaVuSans-34"/>
      </g>
     </g>
    </g>
    <g id="xtick_4">
     <g id="line2d_7">
      <path d="M 288.180553 403 
L 288.180553 82.176 
" clip-path="url(#pc68e492a48)" style="fill: none; stroke: #b0b0b0; stroke-opacity: 0.3; stroke-width: 0.8; stroke-linecap: square"/>
     </g>
     <g id="line2d_8">
      <g>
       <use xlink:href="#mdbf8782738" x="288.180553" y="403" style="stroke: #000000; stroke-width: 0.8"/>
      </g>
     </g>
     <g id="text_4">
      <!-- 6 -->
      <g transform="translate(284.999303 417.598437) scale(0.1 -0.1)">
       <defs>
        <path id="DejaVuSans-36" d="M 2113 2584 
Q 1688 2584 1439 2293 
Q 1191 2003 1191 1497 
Q 1191 994 1439 701 
Q 1688 409 2113 409 
Q 2538 409 2786 701 
Q 3034 994 3034 1497 
Q 3034 2003 2786 2293 
Q 2538 2584 2113 2584 
z
M 3366 4563 
L 3366 3988 
Q 3128 4100 2886 4159 
Q 2644 4219 2406 4219 
Q 1781 4219 1451 3797 
Q 1122 3375 1075 2522 
Q 1259 2794 1537 2939 
Q 1816 3084 2150 3084 
Q 2853 3084 3261 2657 
Q 3669 2231 3669 1497 
Q 3669 778 3244 343 
Q 2819 -91 2113 -91 
Q 1303 -91 875 529 
Q 447 1150 447 2328 
Q 447 3434 972 4092 
Q 1497 4750 2381 4750 
Q 2619 4750 2861 4703 
Q 3103 4656 3366 4563 
z
" transform="scale(0.015625)"/>
       </defs>
       <use xlink:href="#DejaVuSans-36"/>
      </g>
     </g>
    </g>
    <g id="xtick_5">
     <g id="line2d_9">
      <path d="M 362.215263 403 
L 362.215263 82.176 
" clip-path="url(#pc68e492a48)" style="fill: none; stroke: #b0b0b0; stroke-opacity: 0.3; stroke-width: 0.8; stroke-linecap: square"/>
     </g>
     <g id="line2d_10">
      <g>
       <use xlink:href="#mdbf8782738" x="362.215263" y="403" style="stroke: #000000; stroke-width: 0.8"/>
      </g>
     </g>
     <g id="text_5">
      <!-- 8 -->
      <g transform="translate(359.034013 417.598437) scale(0.1 -0.1)">
       <defs>
        <path id="DejaVuSans-38" d="M 2034 2216 
Q 1584 2216 1326 1975 
Q 1069 1734 1069 1313 
Q 1069 891 1326 650 
Q 1584 409 2034 409 
Q 2484 409 2743 651 
Q 3003 894 3003 1313 
Q 3003 1734 2745 1975 
Q 2488 2216 2034 2216 
z
M 1403 2484 
Q 997 2584 770 2862 
Q 544 3141 544 3541 
Q 544 4100 942 4425 
Q 1341 4750 2034 4750 
Q 2731 4750 3128 4425 
Q 3525 4100 3525 3541 
Q 3525 3141 3298 2862 
Q 3072 2584 2669 2484 
Q 3125 2378 3379 2068 
Q 3634 1759 3634 1313 
Q 3634 634 3220 271 
Q 2806 -91 2034 -91 
Q 1263 -91 848 271 
Q 434 634 434 1313 
Q 434 1759 690 2068 
Q 947 2378 1403 2484 
z
M 1172 3481 
Q 1172 3119 1398 2916 
Q 1625 2713 2034 2713 
Q 2441 2713 2670 2916 
Q 2900 3119 2900 3481 
Q 2900 3844 2670 4047 
Q 2441 4250 2034 4250 
Q 1625 4250 1398 4047 
Q 1172 3844 1172 3481 
z
" transform="scale(0.015625)"/>
       </defs>
       <use xlink:href="#DejaVuSans-38"/>
      </g>
     </g>
    </g>
    <g id="xtick_6">
     <g id="line2d_11">
      <path d="M 436.249974 403 
L 436.249974 82.176 
" clip-path="url(#pc68e492a48)" style="fill: none; stroke: #b0b0b0; stroke-opacity: 0.3; stroke-width: 0.8; stroke-linecap: square"/>
     </g>
     <g id="line2d_12">
      <g>
       <use xlink:href="#mdbf8782738" x="436.249974" y="403" style="stroke: #000000; stroke-width: 0.8"/>
      </g>
     </g>
     <g id="text_6">
      <!-- 10 -->
      <g transform="translate(429.887474 417.598437) scale(0.1 -0.1)">
       <defs>
        <path id="DejaVuSans-31" d="M 794 531 
L 1825 531 
L 1825 4091 
L 703 3866 
L 703 4441 
L 1819 4666 
L 2450 4666 
L 2450 531 
L 3481 531 
L 3481 0 
L 794 0 
L 794 531 
z
" transform="scale(0.015625)"/>
       </defs>
       <use xlink:href="#DejaVuSans-31"/>
       <use xlink:href="#DejaVuSans-30" transform="translate(63.623047 0)"/>
      </g>
     </g>
    </g>
    <g id="text_7">
     <!-- Probe Number -->
     <g transform="translate(226.645312 432.79625) scale(0.12 -0.12)">
      <defs>
       <path id="DejaVuSans-50" d="M 1259 4147 
L 1259 2394 
L 2053 2394 
Q 2494 2394 2734 2622 
Q 2975 2850 2975 3272 
Q 2975 3691 2734 3919 
Q 2494 4147 2053 4147 
L 1259 4147 
z
M 628 4666 
L 2053 4666 
Q 2838 4666 3239 4311 
Q 3641 3956 3641 3272 
Q 3641 2581 3239 2228 
Q 2838 1875 2053 1875 
L 1259 1875 
L 1259 0 
L 628 0 
L 628 4666 
z
" transform="scale(0.015625)"/>
       <path id="DejaVuSans-72" d="M 2631 2963 
Q 2534 3019 2420 3045 
Q 2306 3072 2169 3072 
Q 1681 3072 1420 2755 
Q 1159 2438 1159 1844 
L 1159 0 
L 581 0 
L 581 3500 
L 1159 3500 
L 1159 2956 
Q 1341 3275 1631 3429 
Q 1922 3584 2338 3584 
Q 2397 3584 2469 3576 
Q 2541 3569 2628 3553 
L 2631 2963 
z
" transform="scale(0.015625)"/>
       <path id="DejaVuSans-6f" d="M 1959 3097 
Q 1497 3097 1228 2736 
Q 959 2375 959 1747 
Q 959 1119 1226 758 
Q 1494 397 1959 397 
Q 2419 397 2687 759 
Q 2956 1122 2956 1747 
Q 2956 2369 2687 2733 
Q 2419 3097 1959 3097 
z
M 1959 3584 
Q 2709 3584 3137 3096 
Q 3566 2609 3566 1747 
Q 3566 888 3137 398 
Q 2709 -91 1959 -91 
Q 1206 -91 779 398 
Q 353 888 353 1747 
Q 353 2609 779 3096 
Q 1206 3584 1959 3584 
z
" transform="scale(0.015625)"/>
       <path id="DejaVuSans-62" d="M 3116 1747 
Q 3116 2381 2855 2742 
Q 2594 3103 2138 3103 
Q 1681 3103 1420 2742 
Q 1159 2381 1159 1747 
Q 1159 1113 1420 752 
Q 1681 391 2138 391 
Q 2594 391 2855 752 
Q 3116 1113 3116 1747 
z
M 1159 2969 
Q 1341 3281 1617 3432 
Q 1894 3584 2278 3584 
Q 2916 3584 3314 3078 
Q 3713 2572 3713 1747 
Q 3713 922 3314 415 
Q 2916 -91 2278 -91 
Q 1894 -91 1617 61 
Q 1341 213 1159 525 
L 1159 0 
L 581 0 
L 581 4863 
L 1159 4863 
L 1159 2969 
z
" transform="scale(0.015625)"/>
       <path id="DejaVuSans-65" d="M 3597 1894 
L 3597 1613 
L 953 1613 
Q 991 1019 1311 708 
Q 1631 397 2203 397 
Q 2534 397 2845 478 
Q 3156 559 3463 722 
L 3463 178 
Q 3153 47 2828 -22 
Q 2503 -91 2169 -91 
Q 1331 -91 842 396 
Q 353 884 353 1716 
Q 353 2575 817 3079 
Q 1281 3584 2069 3584 
Q 2775 3584 3186 3129 
Q 3597 2675 3597 1894 
z
M 3022 2063 
Q 3016 2534 2758 2815 
Q 2500 3097 2075 3097 
Q 1594 3097 1305 2825 
Q 1016 2553 972 2059 
L 3022 2063 
z
" transform="scale(0.015625)"/>
       <path id="DejaVuSans-20" transform="scale(0.015625)"/>
       <path id="DejaVuSans-4e" d="M 628 4666 
L 1478 4666 
L 3547 763 
L 3547 4666 
L 4159 4666 
L 4159 0 
L 3309 0 
L 1241 3903 
L 1241 0 
L 628 0 
L 628 4666 
z
" transform="scale(0.015625)"/>
       <path id="DejaVuSans-75" d="M 544 1381 
L 544 3500 
L 1119 3500 
L 1119 1403 
Q 1119 906 1312 657 
Q 1506 409 1894 409 
Q 2359 409 2629 706 
Q 2900 1003 2900 1516 
L 2900 3500 
L 3475 3500 
L 3475 0 
L 2900 0 
L 2900 538 
Q 2691 219 2414 64 
Q 2138 -91 1772 -91 
Q 1169 -91 856 284 
Q 544 659 544 1381 
z
M 1991 3584 
L 1991 3584 
z
" transform="scale(0.015625)"/>
       <path id="DejaVuSans-6d" d="M 3328 2828 
Q 3544 3216 3844 3400 
Q 4144 3584 4550 3584 
Q 5097 3584 5394 3201 
Q 5691 2819 5691 2113 
L 5691 0 
L 5113 0 
L 5113 2094 
Q 5113 2597 4934 2840 
Q 4756 3084 4391 3084 
Q 3944 3084 3684 2787 
Q 3425 2491 3425 1978 
L 3425 0 
L 2847 0 
L 2847 2094 
Q 2847 2600 2669 2842 
Q 2491 3084 2119 3084 
Q 1678 3084 1418 2786 
Q 1159 2488 1159 1978 
L 1159 0 
L 581 0 
L 581 3500 
L 1159 3500 
L 1159 2956 
Q 1356 3278 1631 3431 
Q 1906 3584 2284 3584 
Q 2666 3584 2933 3390 
Q 3200 3197 3328 2828 
z
" transform="scale(0.015625)"/>
      </defs>
      <use xlink:href="#DejaVuSans-50"/>
      <use xlink:href="#DejaVuSans-72" transform="translate(58.552734 0)"/>
      <use xlink:href="#DejaVuSans-6f" transform="translate(97.416016 0)"/>
      <use xlink:href="#DejaVuSans-62" transform="translate(158.597656 0)"/>
      <use xlink:href="#DejaVuSans-65" transform="translate(222.074219 0)"/>
      <use xlink:href="#DejaVuSans-20" transform="translate(283.597656 0)"/>
      <use xlink:href="#DejaVuSans-4e" transform="translate(315.384766 0)"/>
      <use xlink:href="#DejaVuSans-75" transform="translate(390.189453 0)"/>
      <use xlink:href="#DejaVuSans-6d" transform="translate(453.568359 0)"/>
      <use xlink:href="#DejaVuSans-62" transform="translate(550.980469 0)"/>
      <use xlink:href="#DejaVuSans-65" transform="translate(614.457031 0)"/>
      <use xlink:href="#DejaVuSans-72" transform="translate(675.980469 0)"/>
     </g>
    </g>
   </g>
   <g id="matplotlib.axis_2">
    <g id="ytick_1">
     <g id="line2d_13">
      <path d="M 45.716875 403 
L 493.626875 403 
" clip-path="url(#pc68e492a48)" style="fill: none; stroke: #b0b0b0; stroke-opacity: 0.3; stroke-width: 0.8; stroke-linecap: square"/>
     </g>
     <g id="line2d_14">
      <defs>
       <path id="mc0c500e36b" d="M 0 0 
L -3.5 0 
" style="stroke: #000000; stroke-width: 0.8"/>
      </defs>
      <g>
       <use xlink:href="#mc0c500e36b" x="45.716875" y="403" style="stroke: #000000; stroke-width: 0.8"/>
      </g>
     </g>
     <g id="text_8">
      <!-- 0.0 -->
      <g transform="translate(22.81375 406.799219) scale(0.1 -0.1)">
       <defs>
        <path id="DejaVuSans-2e" d="M 684 794 
L 1344 794 
L 1344 0 
L 684 0 
L 684 794 
z
" transform="scale(0.015625)"/>
       </defs>
       <use xlink:href="#DejaVuSans-30"/>
       <use xlink:href="#DejaVuSans-2e" transform="translate(63.623047 0)"/>
       <use xlink:href="#DejaVuSans-30" transform="translate(95.410156 0)"/>
      </g>
     </g>
    </g>
    <g id="ytick_2">
     <g id="line2d_15">
      <path d="M 45.716875 367.352889 
L 493.626875 367.352889 
" clip-path="url(#pc68e492a48)" style="fill: none; stroke: #b0b0b0; stroke-opacity: 0.3; stroke-width: 0.8; stroke-linecap: square"/>
     </g>
     <g id="line2d_16">
      <g>
       <use xlink:href="#mc0c500e36b" x="45.716875" y="367.352889" style="stroke: #000000; stroke-width: 0.8"/>
      </g>
     </g>
     <g id="text_9">
      <!-- 0.2 -->
      <g transform="translate(22.81375 371.152108) scale(0.1 -0.1)">
       <use xlink:href="#DejaVuSans-30"/>
       <use xlink:href="#DejaVuSans-2e" transform="translate(63.623047 0)"/>
       <use xlink:href="#DejaVuSans-32" transform="translate(95.410156 0)"/>
      </g>
     </g>
    </g>
    <g id="ytick_3">
     <g id="line2d_17">
      <path d="M 45.716875 331.705778 
L 493.626875 331.705778 
" clip-path="url(#pc68e492a48)" style="fill: none; stroke: #b0b0b0; stroke-opacity: 0.3; stroke-width: 0.8; stroke-linecap: square"/>
     </g>
     <g id="line2d_18">
      <g>
       <use xlink:href="#mc0c500e36b" x="45.716875" y="331.705778" style="stroke: #000000; stroke-width: 0.8"/>
      </g>
     </g>
     <g id="text_10">
      <!-- 0.4 -->
      <g transform="translate(22.81375 335.504997) scale(0.1 -0.1)">
       <use xlink:href="#DejaVuSans-30"/>
       <use xlink:href="#DejaVuSans-2e" transform="translate(63.623047 0)"/>
       <use xlink:href="#DejaVuSans-34" transform="translate(95.410156 0)"/>
      </g>
     </g>
    </g>
    <g id="ytick_4">
     <g id="line2d_19">
      <path d="M 45.716875 296.058667 
L 493.626875 296.058667 
" clip-path="url(#pc68e492a48)" style="fill: none; stroke: #b0b0b0; stroke-opacity: 0.3; stroke-width: 0.8; stroke-linecap: square"/>
     </g>
     <g id="line2d_20">
      <g>
       <use xlink:href="#mc0c500e36b" x="45.716875" y="296.058667" style="stroke: #000000; stroke-width: 0.8"/>
      </g>
     </g>
     <g id="text_11">
      <!-- 0.6 -->
      <g transform="translate(22.81375 299.857885) scale(0.1 -0.1)">
       <use xlink:href="#DejaVuSans-30"/>
       <use xlink:href="#DejaVuSans-2e" transform="translate(63.623047 0)"/>
       <use xlink:href="#DejaVuSans-36" transform="translate(95.410156 0)"/>
      </g>
     </g>
    </g>
    <g id="ytick_5">
     <g id="line2d_21">
      <path d="M 45.716875 260.411556 
L 493.626875 260.411556 
" clip-path="url(#pc68e492a48)" style="fill: none; stroke: #b0b0b0; stroke-opacity: 0.3; stroke-width: 0.8; stroke-linecap: square"/>
     </g>
     <g id="line2d_22">
      <g>
       <use xlink:href="#mc0c500e36b" x="45.716875" y="260.411556" style="stroke: #000000; stroke-width: 0.8"/>
      </g>
     </g>
     <g id="text_12">
      <!-- 0.8 -->
      <g transform="translate(22.81375 264.210774) scale(0.1 -0.1)">
       <use xlink:href="#DejaVuSans-30"/>
       <use xlink:href="#DejaVuSans-2e" transform="translate(63.623047 0)"/>
       <use xlink:href="#DejaVuSans-38" transform="translate(95.410156 0)"/>
      </g>
     </g>
    </g>
    <g id="ytick_6">
     <g id="line2d_23">
      <path d="M 45.716875 224.764444 
L 493.626875 224.764444 
" clip-path="url(#pc68e492a48)" style="fill: none; stroke: #b0b0b0; stroke-opacity: 0.3; stroke-width: 0.8; stroke-linecap: square"/>
     </g>
     <g id="line2d_24">
      <g>
       <use xlink:href="#mc0c500e36b" x="45.716875" y="224.764444" style="stroke: #000000; stroke-width: 0.8"/>
      </g>
     </g>
     <g id="text_13">
      <!-- 1.0 -->
      <g transform="translate(22.81375 228.563663) scale(0.1 -0.1)">
       <use xlink:href="#DejaVuSans-31"/>
       <use xlink:href="#DejaVuSans-2e" transform="translate(63.623047 0)"/>
       <use xlink:href="#DejaVuSans-30" transform="translate(95.410156 0)"/>
      </g>
     </g>
    </g>
    <g id="ytick_7">
     <g id="line2d_25">
      <path d="M 45.716875 189.117333 
L 493.626875 189.117333 
" clip-path="url(#pc68e492a48)" style="fill: none; stroke: #b0b0b0; stroke-opacity: 0.3; stroke-width: 0.8; stroke-linecap: square"/>
     </g>
     <g id="line2d_26">
      <g>
       <use xlink:href="#mc0c500e36b" x="45.716875" y="189.117333" style="stroke: #000000; stroke-width: 0.8"/>
      </g>
     </g>
     <g id="text_14">
      <!-- 1.2 -->
      <g transform="translate(22.81375 192.916552) scale(0.1 -0.1)">
       <use xlink:href="#DejaVuSans-31"/>
       <use xlink:href="#DejaVuSans-2e" transform="translate(63.623047 0)"/>
       <use xlink:href="#DejaVuSans-32" transform="translate(95.410156 0)"/>
      </g>
     </g>
    </g>
    <g id="ytick_8">
     <g id="line2d_27">
      <path d="M 45.716875 153.470222 
L 493.626875 153.470222 
" clip-path="url(#pc68e492a48)" style="fill: none; stroke: #b0b0b0; stroke-opacity: 0.3; stroke-width: 0.8; stroke-linecap: square"/>
     </g>
     <g id="line2d_28">
      <g>
       <use xlink:href="#mc0c500e36b" x="45.716875" y="153.470222" style="stroke: #000000; stroke-width: 0.8"/>
      </g>
     </g>
     <g id="text_15">
      <!-- 1.4 -->
      <g transform="translate(22.81375 157.269441) scale(0.1 -0.1)">
       <use xlink:href="#DejaVuSans-31"/>
       <use xlink:href="#DejaVuSans-2e" transform="translate(63.623047 0)"/>
       <use xlink:href="#DejaVuSans-34" transform="translate(95.410156 0)"/>
      </g>
     </g>
    </g>
    <g id="ytick_9">
     <g id="line2d_29">
      <path d="M 45.716875 117.823111 
L 493.626875 117.823111 
" clip-path="url(#pc68e492a48)" style="fill: none; stroke: #b0b0b0; stroke-opacity: 0.3; stroke-width: 0.8; stroke-linecap: square"/>
     </g>
     <g id="line2d_30">
      <g>
       <use xlink:href="#mc0c500e36b" x="45.716875" y="117.823111" style="stroke: #000000; stroke-width: 0.8"/>
      </g>
     </g>
     <g id="text_16">
      <!-- 1.6 -->
      <g transform="translate(22.81375 121.62233) scale(0.1 -0.1)">
       <use xlink:href="#DejaVuSans-31"/>
       <use xlink:href="#DejaVuSans-2e" transform="translate(63.623047 0)"/>
       <use xlink:href="#DejaVuSans-36" transform="translate(95.410156 0)"/>
      </g>
     </g>
    </g>
    <g id="ytick_10">
     <g id="line2d_31">
      <path d="M 45.716875 82.176 
L 493.626875 82.176 
" clip-path="url(#pc68e492a48)" style="fill: none; stroke: #b0b0b0; stroke-opacity: 0.3; stroke-width: 0.8; stroke-linecap: square"/>
     </g>
     <g id="line2d_32">
      <g>
       <use xlink:href="#mc0c500e36b" x="45.716875" y="82.176" style="stroke: #000000; stroke-width: 0.8"/>
      </g>
     </g>
     <g id="text_17">
      <!-- 1.8 -->
      <g transform="translate(22.81375 85.975219) scale(0.1 -0.1)">
       <use xlink:href="#DejaVuSans-31"/>
       <use xlink:href="#DejaVuSans-2e" transform="translate(63.623047 0)"/>
       <use xlink:href="#DejaVuSans-38" transform="translate(95.410156 0)"/>
      </g>
     </g>
    </g>
    <g id="text_18">
     <!-- Drift -->
     <g transform="translate(16.318125 255.700812) rotate(-90) scale(0.12 -0.12)">
      <defs>
       <path id="DejaVuSans-44" d="M 1259 4147 
L 1259 519 
L 2022 519 
Q 2988 519 3436 956 
Q 3884 1394 3884 2338 
Q 3884 3275 3436 3711 
Q 2988 4147 2022 4147 
L 1259 4147 
z
M 628 4666 
L 1925 4666 
Q 3281 4666 3915 4102 
Q 4550 3538 4550 2338 
Q 4550 1131 3912 565 
Q 3275 0 1925 0 
L 628 0 
L 628 4666 
z
" transform="scale(0.015625)"/>
       <path id="DejaVuSans-69" d="M 603 3500 
L 1178 3500 
L 1178 0 
L 603 0 
L 603 3500 
z
M 603 4863 
L 1178 4863 
L 1178 4134 
L 603 4134 
L 603 4863 
z
" transform="scale(0.015625)"/>
       <path id="DejaVuSans-66" d="M 2375 4863 
L 2375 4384 
L 1825 4384 
Q 1516 4384 1395 4259 
Q 1275 4134 1275 3809 
L 1275 3500 
L 2222 3500 
L 2222 3053 
L 1275 3053 
L 1275 0 
L 697 0 
L 697 3053 
L 147 3053 
L 147 3500 
L 697 3500 
L 697 3744 
Q 697 4328 969 4595 
Q 1241 4863 1831 4863 
L 2375 4863 
z
" transform="scale(0.015625)"/>
       <path id="DejaVuSans-74" d="M 1172 4494 
L 1172 3500 
L 2356 3500 
L 2356 3053 
L 1172 3053 
L 1172 1153 
Q 1172 725 1289 603 
Q 1406 481 1766 481 
L 2356 481 
L 2356 0 
L 1766 0 
Q 1100 0 847 248 
Q 594 497 594 1153 
L 594 3053 
L 172 3053 
L 172 3500 
L 594 3500 
L 594 4494 
L 1172 4494 
z
" transform="scale(0.015625)"/>
      </defs>
      <use xlink:href="#DejaVuSans-44"/>
      <use xlink:href="#DejaVuSans-72" transform="translate(77.001953 0)"/>
      <use xlink:href="#DejaVuSans-69" transform="translate(118.115234 0)"/>
      <use xlink:href="#DejaVuSans-66" transform="translate(145.898438 0)"/>
      <use xlink:href="#DejaVuSans-74" transform="translate(179.353516 0)"/>
     </g>
    </g>
   </g>
   <g id="line2d_33">
    <path d="M 66.07642 349.529333 
L 103.093776 313.882222 
L 140.111131 331.705778 
L 177.128487 242.588 
L 214.145842 189.117333 
L 251.163197 135.646667 
L 288.180553 171.293778 
L 325.197908 260.411556 
L 362.215263 242.588 
L 399.232619 278.235111 
L 436.249974 296.058667 
L 473.26733 304.970444 
" clip-path="url(#pc68e492a48)" style="fill: none; stroke: #ef4444; stroke-width: 2; stroke-linecap: square"/>
    <defs>
     <path id="m6486bbb28f" d="M 0 4 
C 1.060812 4 2.078319 3.578535 2.828427 2.828427 
C 3.578535 2.078319 4 1.060812 4 0 
C 4 -1.060812 3.578535 -2.078319 2.828427 -2.828427 
C 2.078319 -3.578535 1.060812 -4 0 -4 
C -1.060812 -4 -2.078319 -3.578535 -2.828427 -2.828427 
C -3.578535 -2.078319 -4 -1.060812 -4 0 
C -4 1.060812 -3.578535 2.078319 -2.828427 2.828427 
C -2.078319 3.578535 -1.060812 4 0 4 
z
" style="stroke: #ef4444"/>
    </defs>
    <g clip-path="url(#pc68e492a48)">
     <use xlink:href="#m6486bbb28f" x="66.07642" y="349.529333" style="fill: #ef4444; stroke: #ef4444"/>
     <use xlink:href="#m6486bbb28f" x="103.093776" y="313.882222" style="fill: #ef4444; stroke: #ef4444"/>
     <use xlink:href="#m6486bbb28f" x="140.111131" y="331.705778" style="fill: #ef4444; stroke: #ef4444"/>
     <use xlink:href="#m6486bbb28f" x="177.128487" y="242.588" style="fill: #ef4444; stroke: #ef4444"/>
     <use xlink:href="#m6486bbb28f" x="214.145842" y="189.117333" style="fill: #ef4444; stroke: #ef4444"/>
     <use xlink:href="#m6486bbb28f" x="251.163197" y="135.646667" style="fill: #ef4444; stroke: #ef4444"/>
     <use xlink:href="#m6486bbb28f" x="288.180553" y="171.293778" style="fill: #ef4444; stroke: #ef4444"/>
     <use xlink:href="#m6486bbb28f" x="325.197908" y="260.411556" style="fill: #ef4444; stroke: #ef4444"/>
     <use xlink:href="#m6486bbb28f" x="362.215263" y="242.588" style="fill: #ef4444; stroke: #ef4444"/>
     <use xlink:href="#m6486bbb28f" x="399.232619" y="278.235111" style="fill: #ef4444; stroke: #ef4444"/>
     <use xlink:href="#m6486bbb28f" x="436.249974" y="296.058667" style="fill: #ef4444; stroke: #ef4444"/>
     <use xlink:href="#m6486bbb28f" x="473.26733" y="304.970444" style="fill: #ef4444; stroke: #ef4444"/>
    </g>
   </g>
   <g id="line2d_34">
    <path d="M 45.716875 183.770267 
L 493.626875 183.770267 
" clip-path="url(#pc68e492a48)" style="fill: none; stroke-dasharray: 7.4,3.2; stroke-dashoffset: 0; stroke: #dc2626; stroke-width: 2"/>
   </g>
   <g id="line2d_35">
    <path d="M 251.163197 403 
L 251.163197 82.176 
" clip-path="url(#pc68e492a48)" style="fill: none; stroke-dasharray: 2,3.3; stroke-dashoffset: 0; stroke: #800080; stroke-width: 2"/>
   </g>
   <g id="patch_3">
    <path d="M 45.716875 403 
L 45.716875 82.176 
" style="fill: none; stroke: #000000; stroke-width: 0.8; stroke-linejoin: miter; stroke-linecap: square"/>
   </g>
   <g id="patch_4">
    <path d="M 493.626875 403 
L 493.626875 82.176 
" style="fill: none; stroke: #000000; stroke-width: 0.8; stroke-linejoin: miter; stroke-linecap: square"/>
   </g>
   <g id="patch_5">
    <path d="M 45.716875 403 
L 493.626875 403 
" style="fill: none; stroke: #000000; stroke-width: 0.8; stroke-linejoin: miter; stroke-linecap: square"/>
   </g>
   <g id="patch_6">
    <path d="M 45.716875 82.176 
L 493.626875 82.176 
" style="fill: none; stroke: #000000; stroke-width: 0.8; stroke-linejoin: miter; stroke-linecap: square"/>
   </g>
   <g id="patch_7">
    <path d="M 321.240873 150.814233 
Q 287.179376 143.441985 254.21061 136.306247 
" style="fill: none; stroke: #800080; stroke-linecap: round"/>
    <path d="M 258.045644 139.38724 
L 254.21061 136.306247 
L 258.976425 135.086816 
" style="fill: none; stroke: #800080; stroke-linecap: round"/>
   </g>
   <g id="text_19">
    <!-- UNSTABLE! -->
    <g style="fill: #800080" transform="translate(325.197908 158.976184) scale(0.11 -0.11)">
     <defs>
      <path id="DejaVuSans-Bold-55" d="M 588 4666 
L 1791 4666 
L 1791 1869 
Q 1791 1291 1980 1042 
Q 2169 794 2597 794 
Q 3028 794 3217 1042 
Q 3406 1291 3406 1869 
L 3406 4666 
L 4609 4666 
L 4609 1869 
Q 4609 878 4112 393 
Q 3616 -91 2597 -91 
Q 1581 -91 1084 393 
Q 588 878 588 1869 
L 588 4666 
z
" transform="scale(0.015625)"/>
      <path id="DejaVuSans-Bold-4e" d="M 588 4666 
L 1931 4666 
L 3628 1466 
L 3628 4666 
L 4769 4666 
L 4769 0 
L 3425 0 
L 1728 3200 
L 1728 0 
L 588 0 
L 588 4666 
z
" transform="scale(0.015625)"/>
      <path id="DejaVuSans-Bold-53" d="M 3834 4519 
L 3834 3531 
Q 3450 3703 3084 3790 
Q 2719 3878 2394 3878 
Q 1963 3878 1756 3759 
Q 1550 3641 1550 3391 
Q 1550 3203 1689 3098 
Q 1828 2994 2194 2919 
L 2706 2816 
Q 3484 2659 3812 2340 
Q 4141 2022 4141 1434 
Q 4141 663 3683 286 
Q 3225 -91 2284 -91 
Q 1841 -91 1394 -6 
Q 947 78 500 244 
L 500 1259 
Q 947 1022 1364 901 
Q 1781 781 2169 781 
Q 2563 781 2772 912 
Q 2981 1044 2981 1288 
Q 2981 1506 2839 1625 
Q 2697 1744 2272 1838 
L 1806 1941 
Q 1106 2091 782 2419 
Q 459 2747 459 3303 
Q 459 4000 909 4375 
Q 1359 4750 2203 4750 
Q 2588 4750 2994 4692 
Q 3400 4634 3834 4519 
z
" transform="scale(0.015625)"/>
      <path id="DejaVuSans-Bold-54" d="M 31 4666 
L 4331 4666 
L 4331 3756 
L 2784 3756 
L 2784 0 
L 1581 0 
L 1581 3756 
L 31 3756 
L 31 4666 
z
" transform="scale(0.015625)"/>
      <path id="DejaVuSans-Bold-41" d="M 3419 850 
L 1538 850 
L 1241 0 
L 31 0 
L 1759 4666 
L 3194 4666 
L 4922 0 
L 3713 0 
L 3419 850 
z
M 1838 1716 
L 3116 1716 
L 2478 3572 
L 1838 1716 
z
" transform="scale(0.015625)"/>
      <path id="DejaVuSans-Bold-42" d="M 2456 2859 
Q 2741 2859 2887 2984 
Q 3034 3109 3034 3353 
Q 3034 3594 2887 3720 
Q 2741 3847 2456 3847 
L 1791 3847 
L 1791 2859 
L 2456 2859 
z
M 2497 819 
Q 2859 819 3042 972 
Q 3225 1125 3225 1434 
Q 3225 1738 3044 1889 
Q 2863 2041 2497 2041 
L 1791 2041 
L 1791 819 
L 2497 819 
z
M 3616 2497 
Q 4003 2384 4215 2081 
Q 4428 1778 4428 1338 
Q 4428 663 3972 331 
Q 3516 0 2584 0 
L 588 0 
L 588 4666 
L 2394 4666 
Q 3366 4666 3802 4372 
Q 4238 4078 4238 3431 
Q 4238 3091 4078 2852 
Q 3919 2613 3616 2497 
z
" transform="scale(0.015625)"/>
      <path id="DejaVuSans-Bold-4c" d="M 588 4666 
L 1791 4666 
L 1791 909 
L 3903 909 
L 3903 0 
L 588 0 
L 588 4666 
z
" transform="scale(0.015625)"/>
      <path id="DejaVuSans-Bold-45" d="M 588 4666 
L 3834 4666 
L 3834 3756 
L 1791 3756 
L 1791 2888 
L 3713 2888 
L 3713 1978 
L 1791 1978 
L 1791 909 
L 3903 909 
L 3903 0 
L 588 0 
L 588 4666 
z
" transform="scale(0.015625)"/>
      <path id="DejaVuSans-Bold-21" d="M 897 4666 
L 2022 4666 
L 2022 2875 
L 1863 1569 
L 1056 1569 
L 897 2875 
L 897 4666 
z
M 897 1113 
L 2022 1113 
L 2022 0 
L 897 0 
L 897 1113 
z
" transform="scale(0.015625)"/>
     </defs>
     <use xlink:href="#DejaVuSans-Bold-55"/>
     <use xlink:href="#DejaVuSans-Bold-4e" transform="translate(81.201172 0)"/>
     <use xlink:href="#DejaVuSans-Bold-53" transform="translate(164.892578 0)"/>
     <use xlink:href="#DejaVuSans-Bold-54" transform="translate(236.914062 0)"/>
     <use xlink:href="#DejaVuSans-Bold-41" transform="translate(297.376953 0)"/>
     <use xlink:href="#DejaVuSans-Bold-42" transform="translate(374.769531 0)"/>
     <use xlink:href="#DejaVuSans-Bold-4c" transform="translate(450.990234 0)"/>
     <use xlink:href="#DejaVuSans-Bold-45" transform="translate(514.710938 0)"/>
     <use xlink:href="#DejaVuSans-Bold-21" transform="translate(583.021484 0)"/>
    </g>
    <!-- (sampled peak) -->
    <g style="fill: #800080" transform="translate(325.197908 171.293778) scale(0.11 -0.11)">
     <defs>
      <path id="DejaVuSans-Bold-28" d="M 2413 -844 
L 1484 -844 
Q 1006 -72 778 623 
Q 550 1319 550 2003 
Q 550 2688 779 3389 
Q 1009 4091 1484 4856 
L 2413 4856 
Q 2013 4116 1813 3408 
Q 1613 2700 1613 2009 
Q 1613 1319 1811 609 
Q 2009 -100 2413 -844 
z
" transform="scale(0.015625)"/>
      <path id="DejaVuSans-Bold-73" d="M 3272 3391 
L 3272 2541 
Q 2913 2691 2578 2766 
Q 2244 2841 1947 2841 
Q 1628 2841 1473 2761 
Q 1319 2681 1319 2516 
Q 1319 2381 1436 2309 
Q 1553 2238 1856 2203 
L 2053 2175 
Q 2913 2066 3209 1816 
Q 3506 1566 3506 1031 
Q 3506 472 3093 190 
Q 2681 -91 1863 -91 
Q 1516 -91 1145 -36 
Q 775 19 384 128 
L 384 978 
Q 719 816 1070 734 
Q 1422 653 1784 653 
Q 2113 653 2278 743 
Q 2444 834 2444 1013 
Q 2444 1163 2330 1236 
Q 2216 1309 1875 1350 
L 1678 1375 
Q 931 1469 631 1722 
Q 331 1975 331 2491 
Q 331 3047 712 3315 
Q 1094 3584 1881 3584 
Q 2191 3584 2531 3537 
Q 2872 3491 3272 3391 
z
" transform="scale(0.015625)"/>
      <path id="DejaVuSans-Bold-61" d="M 2106 1575 
Q 1756 1575 1579 1456 
Q 1403 1338 1403 1106 
Q 1403 894 1545 773 
Q 1688 653 1941 653 
Q 2256 653 2472 879 
Q 2688 1106 2688 1447 
L 2688 1575 
L 2106 1575 
z
M 3816 1997 
L 3816 0 
L 2688 0 
L 2688 519 
Q 2463 200 2181 54 
Q 1900 -91 1497 -91 
Q 953 -91 614 226 
Q 275 544 275 1050 
Q 275 1666 698 1953 
Q 1122 2241 2028 2241 
L 2688 2241 
L 2688 2328 
Q 2688 2594 2478 2717 
Q 2269 2841 1825 2841 
Q 1466 2841 1156 2769 
Q 847 2697 581 2553 
L 581 3406 
Q 941 3494 1303 3539 
Q 1666 3584 2028 3584 
Q 2975 3584 3395 3211 
Q 3816 2838 3816 1997 
z
" transform="scale(0.015625)"/>
      <path id="DejaVuSans-Bold-6d" d="M 3781 2919 
Q 3994 3244 4286 3414 
Q 4578 3584 4928 3584 
Q 5531 3584 5847 3212 
Q 6163 2841 6163 2131 
L 6163 0 
L 5038 0 
L 5038 1825 
Q 5041 1866 5042 1909 
Q 5044 1953 5044 2034 
Q 5044 2406 4934 2573 
Q 4825 2741 4581 2741 
Q 4263 2741 4089 2478 
Q 3916 2216 3909 1719 
L 3909 0 
L 2784 0 
L 2784 1825 
Q 2784 2406 2684 2573 
Q 2584 2741 2328 2741 
Q 2006 2741 1831 2477 
Q 1656 2213 1656 1722 
L 1656 0 
L 531 0 
L 531 3500 
L 1656 3500 
L 1656 2988 
Q 1863 3284 2130 3434 
Q 2397 3584 2719 3584 
Q 3081 3584 3359 3409 
Q 3638 3234 3781 2919 
z
" transform="scale(0.015625)"/>
      <path id="DejaVuSans-Bold-70" d="M 1656 506 
L 1656 -1331 
L 538 -1331 
L 538 3500 
L 1656 3500 
L 1656 2988 
Q 1888 3294 2169 3439 
Q 2450 3584 2816 3584 
Q 3463 3584 3878 3070 
Q 4294 2556 4294 1747 
Q 4294 938 3878 423 
Q 3463 -91 2816 -91 
Q 2450 -91 2169 54 
Q 1888 200 1656 506 
z
M 2400 2772 
Q 2041 2772 1848 2508 
Q 1656 2244 1656 1747 
Q 1656 1250 1848 986 
Q 2041 722 2400 722 
Q 2759 722 2948 984 
Q 3138 1247 3138 1747 
Q 3138 2247 2948 2509 
Q 2759 2772 2400 2772 
z
" transform="scale(0.015625)"/>
      <path id="DejaVuSans-Bold-6c" d="M 538 4863 
L 1656 4863 
L 1656 0 
L 538 0 
L 538 4863 
z
" transform="scale(0.015625)"/>
      <path id="DejaVuSans-Bold-65" d="M 4031 1759 
L 4031 1441 
L 1416 1441 
Q 1456 1047 1700 850 
Q 1944 653 2381 653 
Q 2734 653 3104 758 
Q 3475 863 3866 1075 
L 3866 213 
Q 3469 63 3072 -14 
Q 2675 -91 2278 -91 
Q 1328 -91 801 392 
Q 275 875 275 1747 
Q 275 2603 792 3093 
Q 1309 3584 2216 3584 
Q 3041 3584 3536 3087 
Q 4031 2591 4031 1759 
z
M 2881 2131 
Q 2881 2450 2695 2645 
Q 2509 2841 2209 2841 
Q 1884 2841 1681 2658 
Q 1478 2475 1428 2131 
L 2881 2131 
z
" transform="scale(0.015625)"/>
      <path id="DejaVuSans-Bold-64" d="M 2919 2988 
L 2919 4863 
L 4044 4863 
L 4044 0 
L 2919 0 
L 2919 506 
Q 2688 197 2409 53 
Q 2131 -91 1766 -91 
Q 1119 -91 703 423 
Q 288 938 288 1747 
Q 288 2556 703 3070 
Q 1119 3584 1766 3584 
Q 2128 3584 2408 3439 
Q 2688 3294 2919 2988 
z
M 2181 722 
Q 2541 722 2730 984 
Q 2919 1247 2919 1747 
Q 2919 2247 2730 2509 
Q 2541 2772 2181 2772 
Q 1825 2772 1636 2509 
Q 1447 2247 1447 1747 
Q 1447 1247 1636 984 
Q 1825 722 2181 722 
z
" transform="scale(0.015625)"/>
      <path id="DejaVuSans-Bold-20" transform="scale(0.015625)"/>
      <path id="DejaVuSans-Bold-6b" d="M 538 4863 
L 1656 4863 
L 1656 2216 
L 2944 3500 
L 4244 3500 
L 2534 1894 
L 4378 0 
L 3022 0 
L 1656 1459 
L 1656 0 
L 538 0 
L 538 4863 
z
" transform="scale(0.015625)"/>
      <path id="DejaVuSans-Bold-29" d="M 513 -844 
Q 913 -100 1113 609 
Q 1313 1319 1313 2009 
Q 1313 2700 1113 3408 
Q 913 4116 513 4856 
L 1441 4856 
Q 1916 4091 2145 3389 
Q 2375 2688 2375 2003 
Q 2375 1319 2147 623 
Q 1919 -72 1441 -844 
L 513 -844 
z
" transform="scale(0.015625)"/>
     </defs>
     <use xlink:href="#DejaVuSans-Bold-28"/>
     <use xlink:href="#DejaVuSans-Bold-73" transform="translate(45.703125 0)"/>
     <use xlink:href="#DejaVuSans-Bold-61" transform="translate(105.224609 0)"/>
     <use xlink:href="#DejaVuSans-Bold-6d" transform="translate(172.705078 0)"/>
     <use xlink:href="#DejaVuSans-Bold-70" transform="translate(276.904297 0)"/>
     <use xlink:href="#DejaVuSans-Bold-6c" transform="translate(348.486328 0)"/>
     <use xlink:href="#DejaVuSans-Bold-65" transform="translate(382.763672 0)"/>
     <use xlink:href="#DejaVuSans-Bold-64" transform="translate(450.585938 0)"/>
     <use xlink:href="#DejaVuSans-Bold-20" transform="translate(522.167969 0)"/>
     <use xlink:href="#DejaVuSans-Bold-70" transform="translate(556.982422 0)"/>
     <use xlink:href="#DejaVuSans-Bold-65" transform="translate(628.564453 0)"/>
     <use xlink:href="#DejaVuSans-Bold-61" transform="translate(696.386719 0)"/>
     <use xlink:href="#DejaVuSans-Bold-6b" transform="translate(763.867188 0)"/>
     <use xlink:href="#DejaVuSans-Bold-29" transform="translate(830.371094 0)"/>
    </g>
   </g>
   <g id="text_20">
    <!-- Run 015: Peak Drift Methodology -->
    <g transform="translate(157.146563 62.644875) scale(0.12 -0.12)">
     <defs>
      <path id="DejaVuSans-Bold-52" d="M 2297 2597 
Q 2675 2597 2839 2737 
Q 3003 2878 3003 3200 
Q 3003 3519 2839 3656 
Q 2675 3794 2297 3794 
L 1791 3794 
L 1791 2597 
L 2297 2597 
z
M 1791 1766 
L 1791 0 
L 588 0 
L 588 4666 
L 2425 4666 
Q 3347 4666 3776 4356 
Q 4206 4047 4206 3378 
Q 4206 2916 3982 2619 
Q 3759 2322 3309 2181 
Q 3556 2125 3751 1926 
Q 3947 1728 4147 1325 
L 4800 0 
L 3519 0 
L 2950 1159 
Q 2778 1509 2601 1637 
Q 2425 1766 2131 1766 
L 1791 1766 
z
" transform="scale(0.015625)"/>
      <path id="DejaVuSans-Bold-75" d="M 500 1363 
L 500 3500 
L 1625 3500 
L 1625 3150 
Q 1625 2866 1622 2436 
Q 1619 2006 1619 1863 
Q 1619 1441 1641 1255 
Q 1663 1069 1716 984 
Q 1784 875 1895 815 
Q 2006 756 2150 756 
Q 2500 756 2700 1025 
Q 2900 1294 2900 1772 
L 2900 3500 
L 4019 3500 
L 4019 0 
L 2900 0 
L 2900 506 
Q 2647 200 2364 54 
Q 2081 -91 1741 -91 
Q 1134 -91 817 281 
Q 500 653 500 1363 
z
" transform="scale(0.015625)"/>
      <path id="DejaVuSans-Bold-6e" d="M 4056 2131 
L 4056 0 
L 2931 0 
L 2931 347 
L 2931 1631 
Q 2931 2084 2911 2256 
Q 2891 2428 2841 2509 
Q 2775 2619 2662 2680 
Q 2550 2741 2406 2741 
Q 2056 2741 1856 2470 
Q 1656 2200 1656 1722 
L 1656 0 
L 538 0 
L 538 3500 
L 1656 3500 
L 1656 2988 
Q 1909 3294 2193 3439 
Q 2478 3584 2822 3584 
Q 3428 3584 3742 3212 
Q 4056 2841 4056 2131 
z
" transform="scale(0.015625)"/>
      <path id="DejaVuSans-Bold-30" d="M 2944 2338 
Q 2944 3213 2780 3570 
Q 2616 3928 2228 3928 
Q 1841 3928 1675 3570 
Q 1509 3213 1509 2338 
Q 1509 1453 1675 1090 
Q 1841 728 2228 728 
Q 2613 728 2778 1090 
Q 2944 1453 2944 2338 
z
M 4147 2328 
Q 4147 1169 3647 539 
Q 3147 -91 2228 -91 
Q 1306 -91 806 539 
Q 306 1169 306 2328 
Q 306 3491 806 4120 
Q 1306 4750 2228 4750 
Q 3147 4750 3647 4120 
Q 4147 3491 4147 2328 
z
" transform="scale(0.015625)"/>
      <path id="DejaVuSans-Bold-31" d="M 750 831 
L 1813 831 
L 1813 3847 
L 722 3622 
L 722 4441 
L 1806 4666 
L 2950 4666 
L 2950 831 
L 4013 831 
L 4013 0 
L 750 0 
L 750 831 
z
" transform="scale(0.015625)"/>
      <path id="DejaVuSans-Bold-35" d="M 678 4666 
L 3669 4666 
L 3669 3781 
L 1638 3781 
L 1638 3059 
Q 1775 3097 1914 3117 
Q 2053 3138 2203 3138 
Q 3056 3138 3531 2711 
Q 4006 2284 4006 1522 
Q 4006 766 3489 337 
Q 2972 -91 2053 -91 
Q 1656 -91 1267 -14 
Q 878 63 494 219 
L 494 1166 
Q 875 947 1217 837 
Q 1559 728 1863 728 
Q 2300 728 2551 942 
Q 2803 1156 2803 1522 
Q 2803 1891 2551 2103 
Q 2300 2316 1863 2316 
Q 1603 2316 1309 2248 
Q 1016 2181 678 2041 
L 678 4666 
z
" transform="scale(0.015625)"/>
      <path id="DejaVuSans-Bold-3a" d="M 716 3500 
L 1844 3500 
L 1844 2291 
L 716 2291 
L 716 3500 
z
M 716 1209 
L 1844 1209 
L 1844 0 
L 716 0 
L 716 1209 
z
" transform="scale(0.015625)"/>
      <path id="DejaVuSans-Bold-50" d="M 588 4666 
L 2584 4666 
Q 3475 4666 3951 4270 
Q 4428 3875 4428 3144 
Q 4428 2409 3951 2014 
Q 3475 1619 2584 1619 
L 1791 1619 
L 1791 0 
L 588 0 
L 588 4666 
z
M 1791 3794 
L 1791 2491 
L 2456 2491 
Q 2806 2491 2997 2661 
Q 3188 2831 3188 3144 
Q 3188 3456 2997 3625 
Q 2806 3794 2456 3794 
L 1791 3794 
z
" transform="scale(0.015625)"/>
      <path id="DejaVuSans-Bold-44" d="M 1791 3756 
L 1791 909 
L 2222 909 
Q 2959 909 3348 1275 
Q 3738 1641 3738 2338 
Q 3738 3031 3350 3393 
Q 2963 3756 2222 3756 
L 1791 3756 
z
M 588 4666 
L 1856 4666 
Q 2919 4666 3439 4514 
Q 3959 4363 4331 4000 
Q 4659 3684 4818 3271 
Q 4978 2859 4978 2338 
Q 4978 1809 4818 1395 
Q 4659 981 4331 666 
Q 3956 303 3431 151 
Q 2906 0 1856 0 
L 588 0 
L 588 4666 
z
" transform="scale(0.015625)"/>
      <path id="DejaVuSans-Bold-72" d="M 3138 2547 
Q 2991 2616 2845 2648 
Q 2700 2681 2553 2681 
Q 2122 2681 1889 2404 
Q 1656 2128 1656 1613 
L 1656 0 
L 538 0 
L 538 3500 
L 1656 3500 
L 1656 2925 
Q 1872 3269 2151 3426 
Q 2431 3584 2822 3584 
Q 2878 3584 2943 3579 
Q 3009 3575 3134 3559 
L 3138 2547 
z
" transform="scale(0.015625)"/>
      <path id="DejaVuSans-Bold-69" d="M 538 3500 
L 1656 3500 
L 1656 0 
L 538 0 
L 538 3500 
z
M 538 4863 
L 1656 4863 
L 1656 3950 
L 538 3950 
L 538 4863 
z
" transform="scale(0.015625)"/>
      <path id="DejaVuSans-Bold-66" d="M 2841 4863 
L 2841 4128 
L 2222 4128 
Q 1984 4128 1890 4042 
Q 1797 3956 1797 3744 
L 1797 3500 
L 2753 3500 
L 2753 2700 
L 1797 2700 
L 1797 0 
L 678 0 
L 678 2700 
L 122 2700 
L 122 3500 
L 678 3500 
L 678 3744 
Q 678 4316 997 4589 
Q 1316 4863 1984 4863 
L 2841 4863 
z
" transform="scale(0.015625)"/>
      <path id="DejaVuSans-Bold-74" d="M 1759 4494 
L 1759 3500 
L 2913 3500 
L 2913 2700 
L 1759 2700 
L 1759 1216 
Q 1759 972 1856 886 
Q 1953 800 2241 800 
L 2816 800 
L 2816 0 
L 1856 0 
Q 1194 0 917 276 
Q 641 553 641 1216 
L 641 2700 
L 84 2700 
L 84 3500 
L 641 3500 
L 641 4494 
L 1759 4494 
z
" transform="scale(0.015625)"/>
      <path id="DejaVuSans-Bold-4d" d="M 588 4666 
L 2119 4666 
L 3181 2169 
L 4250 4666 
L 5778 4666 
L 5778 0 
L 4641 0 
L 4641 3413 
L 3566 897 
L 2803 897 
L 1728 3413 
L 1728 0 
L 588 0 
L 588 4666 
z
" transform="scale(0.015625)"/>
      <path id="DejaVuSans-Bold-68" d="M 4056 2131 
L 4056 0 
L 2931 0 
L 2931 347 
L 2931 1625 
Q 2931 2084 2911 2256 
Q 2891 2428 2841 2509 
Q 2775 2619 2662 2680 
Q 2550 2741 2406 2741 
Q 2056 2741 1856 2470 
Q 1656 2200 1656 1722 
L 1656 0 
L 538 0 
L 538 4863 
L 1656 4863 
L 1656 2988 
Q 1909 3294 2193 3439 
Q 2478 3584 2822 3584 
Q 3428 3584 3742 3212 
Q 4056 2841 4056 2131 
z
" transform="scale(0.015625)"/>
      <path id="DejaVuSans-Bold-6f" d="M 2203 2784 
Q 1831 2784 1636 2517 
Q 1441 2250 1441 1747 
Q 1441 1244 1636 976 
Q 1831 709 2203 709 
Q 2569 709 2762 976 
Q 2956 1244 2956 1747 
Q 2956 2250 2762 2517 
Q 2569 2784 2203 2784 
z
M 2203 3584 
Q 3106 3584 3614 3096 
Q 4122 2609 4122 1747 
Q 4122 884 3614 396 
Q 3106 -91 2203 -91 
Q 1297 -91 786 396 
Q 275 884 275 1747 
Q 275 2609 786 3096 
Q 1297 3584 2203 3584 
z
" transform="scale(0.015625)"/>
      <path id="DejaVuSans-Bold-67" d="M 2919 594 
Q 2688 288 2409 144 
Q 2131 0 1766 0 
Q 1125 0 706 504 
Q 288 1009 288 1791 
Q 288 2575 706 3076 
Q 1125 3578 1766 3578 
Q 2131 3578 2409 3434 
Q 2688 3291 2919 2981 
L 2919 3500 
L 4044 3500 
L 4044 353 
Q 4044 -491 3511 -936 
Q 2978 -1381 1966 -1381 
Q 1638 -1381 1331 -1331 
Q 1025 -1281 716 -1178 
L 716 -306 
Q 1009 -475 1290 -558 
Q 1572 -641 1856 -641 
Q 2406 -641 2662 -400 
Q 2919 -159 2919 353 
L 2919 594 
z
M 2181 2772 
Q 1834 2772 1640 2515 
Q 1447 2259 1447 1791 
Q 1447 1309 1634 1061 
Q 1822 813 2181 813 
Q 2531 813 2725 1069 
Q 2919 1325 2919 1791 
Q 2919 2259 2725 2515 
Q 2531 2772 2181 2772 
z
" transform="scale(0.015625)"/>
      <path id="DejaVuSans-Bold-79" d="M 78 3500 
L 1197 3500 
L 2138 1125 
L 2938 3500 
L 4056 3500 
L 2584 -331 
Q 2363 -916 2067 -1148 
Q 1772 -1381 1288 -1381 
L 641 -1381 
L 641 -647 
L 991 -647 
Q 1275 -647 1404 -556 
Q 1534 -466 1606 -231 
L 1638 -134 
L 78 3500 
z
" transform="scale(0.015625)"/>
     </defs>
     <use xlink:href="#DejaVuSans-Bold-52"/>
     <use xlink:href="#DejaVuSans-Bold-75" transform="translate(77.001953 0)"/>
     <use xlink:href="#DejaVuSans-Bold-6e" transform="translate(148.193359 0)"/>
     <use xlink:href="#DejaVuSans-Bold-20" transform="translate(219.384766 0)"/>
     <use xlink:href="#DejaVuSans-Bold-30" transform="translate(254.199219 0)"/>
     <use xlink:href="#DejaVuSans-Bold-31" transform="translate(323.779297 0)"/>
     <use xlink:href="#DejaVuSans-Bold-35" transform="translate(393.359375 0)"/>
     <use xlink:href="#DejaVuSans-Bold-3a" transform="translate(462.939453 0)"/>
     <use xlink:href="#DejaVuSans-Bold-20" transform="translate(502.929688 0)"/>
     <use xlink:href="#DejaVuSans-Bold-50" transform="translate(537.744141 0)"/>
     <use xlink:href="#DejaVuSans-Bold-65" transform="translate(611.035156 0)"/>
     <use xlink:href="#DejaVuSans-Bold-61" transform="translate(678.857422 0)"/>
     <use xlink:href="#DejaVuSans-Bold-6b" transform="translate(746.337891 0)"/>
     <use xlink:href="#DejaVuSans-Bold-20" transform="translate(812.841797 0)"/>
     <use xlink:href="#DejaVuSans-Bold-44" transform="translate(847.65625 0)"/>
     <use xlink:href="#DejaVuSans-Bold-72" transform="translate(930.664062 0)"/>
     <use xlink:href="#DejaVuSans-Bold-69" transform="translate(979.980469 0)"/>
     <use xlink:href="#DejaVuSans-Bold-66" transform="translate(1014.257812 0)"/>
     <use xlink:href="#DejaVuSans-Bold-74" transform="translate(1057.763672 0)"/>
     <use xlink:href="#DejaVuSans-Bold-20" transform="translate(1105.566406 0)"/>
     <use xlink:href="#DejaVuSans-Bold-4d" transform="translate(1140.380859 0)"/>
     <use xlink:href="#DejaVuSans-Bold-65" transform="translate(1239.892578 0)"/>
     <use xlink:href="#DejaVuSans-Bold-74" transform="translate(1307.714844 0)"/>
     <use xlink:href="#DejaVuSans-Bold-68" transform="translate(1355.517578 0)"/>
     <use xlink:href="#DejaVuSans-Bold-6f" transform="translate(1426.708984 0)"/>
     <use xlink:href="#DejaVuSans-Bold-64" transform="translate(1495.410156 0)"/>
     <use xlink:href="#DejaVuSans-Bold-6f" transform="translate(1566.992188 0)"/>
     <use xlink:href="#DejaVuSans-Bold-6c" transform="translate(1635.693359 0)"/>
     <use xlink:href="#DejaVuSans-Bold-6f" transform="translate(1669.970703 0)"/>
     <use xlink:href="#DejaVuSans-Bold-67" transform="translate(1738.671875 0)"/>
     <use xlink:href="#DejaVuSans-Bold-79" transform="translate(1810.253906 0)"/>
    </g>
    <!-- (Samples transient - noisy!) -->
    <g transform="translate(175.164375 76.176) scale(0.12 -0.12)">
     <defs>
      <path id="DejaVuSans-Bold-2d" d="M 347 2297 
L 2309 2297 
L 2309 1388 
L 347 1388 
L 347 2297 
z
" transform="scale(0.015625)"/>
     </defs>
     <use xlink:href="#DejaVuSans-Bold-28"/>
     <use xlink:href="#DejaVuSans-Bold-53" transform="translate(45.703125 0)"/>
     <use xlink:href="#DejaVuSans-Bold-61" transform="translate(117.724609 0)"/>
     <use xlink:href="#DejaVuSans-Bold-6d" transform="translate(185.205078 0)"/>
     <use xlink:href="#DejaVuSans-Bold-70" transform="translate(289.404297 0)"/>
     <use xlink:href="#DejaVuSans-Bold-6c" transform="translate(360.986328 0)"/>
     <use xlink:href="#DejaVuSans-Bold-65" transform="translate(395.263672 0)"/>
     <use xlink:href="#DejaVuSans-Bold-73" transform="translate(463.085938 0)"/>
     <use xlink:href="#DejaVuSans-Bold-20" transform="translate(522.607422 0)"/>
     <use xlink:href="#DejaVuSans-Bold-74" transform="translate(557.421875 0)"/>
     <use xlink:href="#DejaVuSans-Bold-72" transform="translate(605.224609 0)"/>
     <use xlink:href="#DejaVuSans-Bold-61" transform="translate(654.541016 0)"/>
     <use xlink:href="#DejaVuSans-Bold-6e" transform="translate(722.021484 0)"/>
     <use xlink:href="#DejaVuSans-Bold-73" transform="translate(793.212891 0)"/>
     <use xlink:href="#DejaVuSans-Bold-69" transform="translate(852.734375 0)"/>
     <use xlink:href="#DejaVuSans-Bold-65" transform="translate(887.011719 0)"/>
     <use xlink:href="#DejaVuSans-Bold-6e" transform="translate(954.833984 0)"/>
     <use xlink:href="#DejaVuSans-Bold-74" transform="translate(1026.025391 0)"/>
     <use xlink:href="#DejaVuSans-Bold-20" transform="translate(1073.828125 0)"/>
     <use xlink:href="#DejaVuSans-Bold-2d" transform="translate(1108.642578 0)"/>
     <use xlink:href="#DejaVuSans-Bold-20" transform="translate(1150.146484 0)"/>
     <use xlink:href="#DejaVuSans-Bold-6e" transform="translate(1184.960938 0)"/>
     <use xlink:href="#DejaVuSans-Bold-6f" transform="translate(1256.152344 0)"/>
     <use xlink:href="#DejaVuSans-Bold-69" transform="translate(1324.853516 0)"/>
     <use xlink:href="#DejaVuSans-Bold-73" transform="translate(1359.130859 0)"/>
     <use xlink:href="#DejaVuSans-Bold-79" transform="translate(1418.652344 0)"/>
     <use xlink:href="#DejaVuSans-Bold-21" transform="translate(1483.837891 0)"/>
     <use xlink:href="#DejaVuSans-Bold-29" transform="translate(1529.443359 0)"/>
    </g>
   </g>
   <g id="PathCollection_1">
    <defs>
     <path id="m44d19c1323" d="M 0 -7.071068 
L -1.587554 -2.18508 
L -6.724985 -2.18508 
L -2.568716 0.834626 
L -4.156269 5.720614 
L -0 2.700907 
L 4.156269 5.720614 
L 2.568716 0.834626 
L 6.724985 -2.18508 
L 1.587554 -2.18508 
z
" style="stroke: #800080"/>
    </defs>
    <g clip-path="url(#pc68e492a48)">
     <use xlink:href="#m44d19c1323" x="251.163197" y="135.646667" style="fill: #800080; stroke: #800080"/>
    </g>
   </g>
   <g id="legend_1">
    <g id="patch_8">
     <path d="M 371.517969 129.006937 
L 487.326875 129.006937 
Q 489.126875 129.006937 489.126875 127.206937 
L 489.126875 88.476 
Q 489.126875 86.676 487.326875 86.676 
L 371.517969 86.676 
Q 369.717969 86.676 369.717969 88.476 
L 369.717969 127.206937 
Q 369.717969 129.006937 371.517969 129.006937 
z
" style="fill: #ffffff; opacity: 0.8; stroke: #cccccc; stroke-linejoin: miter"/>
    </g>
    <g id="line2d_36">
     <path d="M 373.317969 93.964594 
L 382.317969 93.964594 
L 391.317969 93.964594 
" style="fill: none; stroke: #ef4444; stroke-width: 2; stroke-linecap: square"/>
     <g>
      <use xlink:href="#m6486bbb28f" x="382.317969" y="93.964594" style="fill: #ef4444; stroke: #ef4444"/>
     </g>
    </g>
    <g id="text_21">
     <!-- Drift trajectory -->
     <g transform="translate(398.517969 97.114594) scale(0.09 -0.09)">
      <defs>
       <path id="DejaVuSans-61" d="M 2194 1759 
Q 1497 1759 1228 1600 
Q 959 1441 959 1056 
Q 959 750 1161 570 
Q 1363 391 1709 391 
Q 2188 391 2477 730 
Q 2766 1069 2766 1631 
L 2766 1759 
L 2194 1759 
z
M 3341 1997 
L 3341 0 
L 2766 0 
L 2766 531 
Q 2569 213 2275 61 
Q 1981 -91 1556 -91 
Q 1019 -91 701 211 
Q 384 513 384 1019 
Q 384 1609 779 1909 
Q 1175 2209 1959 2209 
L 2766 2209 
L 2766 2266 
Q 2766 2663 2505 2880 
Q 2244 3097 1772 3097 
Q 1472 3097 1187 3025 
Q 903 2953 641 2809 
L 641 3341 
Q 956 3463 1253 3523 
Q 1550 3584 1831 3584 
Q 2591 3584 2966 3190 
Q 3341 2797 3341 1997 
z
" transform="scale(0.015625)"/>
       <path id="DejaVuSans-6a" d="M 603 3500 
L 1178 3500 
L 1178 -63 
Q 1178 -731 923 -1031 
Q 669 -1331 103 -1331 
L -116 -1331 
L -116 -844 
L 38 -844 
Q 366 -844 484 -692 
Q 603 -541 603 -63 
L 603 3500 
z
M 603 4863 
L 1178 4863 
L 1178 4134 
L 603 4134 
L 603 4863 
z
" transform="scale(0.015625)"/>
       <path id="DejaVuSans-63" d="M 3122 3366 
L 3122 2828 
Q 2878 2963 2633 3030 
Q 2388 3097 2138 3097 
Q 1578 3097 1268 2742 
Q 959 2388 959 1747 
Q 959 1106 1268 751 
Q 1578 397 2138 397 
Q 2388 397 2633 464 
Q 2878 531 3122 666 
L 3122 134 
Q 2881 22 2623 -34 
Q 2366 -91 2075 -91 
Q 1284 -91 818 406 
Q 353 903 353 1747 
Q 353 2603 823 3093 
Q 1294 3584 2113 3584 
Q 2378 3584 2631 3529 
Q 2884 3475 3122 3366 
z
" transform="scale(0.015625)"/>
       <path id="DejaVuSans-79" d="M 2059 -325 
Q 1816 -950 1584 -1140 
Q 1353 -1331 966 -1331 
L 506 -1331 
L 506 -850 
L 844 -850 
Q 1081 -850 1212 -737 
Q 1344 -625 1503 -206 
L 1606 56 
L 191 3500 
L 800 3500 
L 1894 763 
L 2988 3500 
L 3597 3500 
L 2059 -325 
z
" transform="scale(0.015625)"/>
      </defs>
      <use xlink:href="#DejaVuSans-44"/>
      <use xlink:href="#DejaVuSans-72" transform="translate(77.001953 0)"/>
      <use xlink:href="#DejaVuSans-69" transform="translate(118.115234 0)"/>
      <use xlink:href="#DejaVuSans-66" transform="translate(145.898438 0)"/>
      <use xlink:href="#DejaVuSans-74" transform="translate(179.353516 0)"/>
      <use xlink:href="#DejaVuSans-20" transform="translate(218.5625 0)"/>
      <use xlink:href="#DejaVuSans-74" transform="translate(250.349609 0)"/>
      <use xlink:href="#DejaVuSans-72" transform="translate(289.558594 0)"/>
      <use xlink:href="#DejaVuSans-61" transform="translate(330.671875 0)"/>
      <use xlink:href="#DejaVuSans-6a" transform="translate(391.951172 0)"/>
      <use xlink:href="#DejaVuSans-65" transform="translate(419.734375 0)"/>
      <use xlink:href="#DejaVuSans-63" transform="translate(481.257812 0)"/>
      <use xlink:href="#DejaVuSans-74" transform="translate(536.238281 0)"/>
      <use xlink:href="#DejaVuSans-6f" transform="translate(575.447266 0)"/>
      <use xlink:href="#DejaVuSans-72" transform="translate(636.628906 0)"/>
      <use xlink:href="#DejaVuSans-79" transform="translate(677.742188 0)"/>
     </g>
    </g>
    <g id="line2d_37">
     <path d="M 373.317969 107.174906 
L 382.317969 107.174906 
L 391.317969 107.174906 
" style="fill: none; stroke-dasharray: 7.4,3.2; stroke-dashoffset: 0; stroke: #dc2626; stroke-width: 2"/>
    </g>
    <g id="text_22">
     <!-- Event Horizon -->
     <g transform="translate(398.517969 110.324906) scale(0.09 -0.09)">
      <defs>
       <path id="DejaVuSans-45" d="M 628 4666 
L 3578 4666 
L 3578 4134 
L 1259 4134 
L 1259 2753 
L 3481 2753 
L 3481 2222 
L 1259 2222 
L 1259 531 
L 3634 531 
L 3634 0 
L 628 0 
L 628 4666 
z
" transform="scale(0.015625)"/>
       <path id="DejaVuSans-76" d="M 191 3500 
L 800 3500 
L 1894 563 
L 2988 3500 
L 3597 3500 
L 2284 0 
L 1503 0 
L 191 3500 
z
" transform="scale(0.015625)"/>
       <path id="DejaVuSans-6e" d="M 3513 2113 
L 3513 0 
L 2938 0 
L 2938 2094 
Q 2938 2591 2744 2837 
Q 2550 3084 2163 3084 
Q 1697 3084 1428 2787 
Q 1159 2491 1159 1978 
L 1159 0 
L 581 0 
L 581 3500 
L 1159 3500 
L 1159 2956 
Q 1366 3272 1645 3428 
Q 1925 3584 2291 3584 
Q 2894 3584 3203 3211 
Q 3513 2838 3513 2113 
z
" transform="scale(0.015625)"/>
       <path id="DejaVuSans-48" d="M 628 4666 
L 1259 4666 
L 1259 2753 
L 3553 2753 
L 3553 4666 
L 4184 4666 
L 4184 0 
L 3553 0 
L 3553 2222 
L 1259 2222 
L 1259 0 
L 628 0 
L 628 4666 
z
" transform="scale(0.015625)"/>
       <path id="DejaVuSans-7a" d="M 353 3500 
L 3084 3500 
L 3084 2975 
L 922 459 
L 3084 459 
L 3084 0 
L 275 0 
L 275 525 
L 2438 3041 
L 353 3041 
L 353 3500 
z
" transform="scale(0.015625)"/>
      </defs>
      <use xlink:href="#DejaVuSans-45"/>
      <use xlink:href="#DejaVuSans-76" transform="translate(63.183594 0)"/>
      <use xlink:href="#DejaVuSans-65" transform="translate(122.363281 0)"/>
      <use xlink:href="#DejaVuSans-6e" transform="translate(183.886719 0)"/>
      <use xlink:href="#DejaVuSans-74" transform="translate(247.265625 0)"/>
      <use xlink:href="#DejaVuSans-20" transform="translate(286.474609 0)"/>
      <use xlink:href="#DejaVuSans-48" transform="translate(318.261719 0)"/>
      <use xlink:href="#DejaVuSans-6f" transform="translate(393.457031 0)"/>
      <use xlink:href="#DejaVuSans-72" transform="translate(454.638672 0)"/>
      <use xlink:href="#DejaVuSans-69" transform="translate(495.751953 0)"/>
      <use xlink:href="#DejaVuSans-7a" transform="translate(523.535156 0)"/>
      <use xlink:href="#DejaVuSans-6f" transform="translate(576.025391 0)"/>
      <use xlink:href="#DejaVuSans-6e" transform="translate(637.207031 0)"/>
     </g>
    </g>
    <g id="PathCollection_2">
     <g>
      <use xlink:href="#m44d19c1323" x="382.317969" y="121.172719" style="fill: #800080; stroke: #800080"/>
     </g>
    </g>
    <g id="text_23">
     <!-- Peak measurement -->
     <g transform="translate(398.517969 123.535219) scale(0.09 -0.09)">
      <defs>
       <path id="DejaVuSans-6b" d="M 581 4863 
L 1159 4863 
L 1159 1991 
L 2875 3500 
L 3609 3500 
L 1753 1863 
L 3688 0 
L 2938 0 
L 1159 1709 
L 1159 0 
L 581 0 
L 581 4863 
z
" transform="scale(0.015625)"/>
       <path id="DejaVuSans-73" d="M 2834 3397 
L 2834 2853 
Q 2591 2978 2328 3040 
Q 2066 3103 1784 3103 
Q 1356 3103 1142 2972 
Q 928 2841 928 2578 
Q 928 2378 1081 2264 
Q 1234 2150 1697 2047 
L 1894 2003 
Q 2506 1872 2764 1633 
Q 3022 1394 3022 966 
Q 3022 478 2636 193 
Q 2250 -91 1575 -91 
Q 1294 -91 989 -36 
Q 684 19 347 128 
L 347 722 
Q 666 556 975 473 
Q 1284 391 1588 391 
Q 1994 391 2212 530 
Q 2431 669 2431 922 
Q 2431 1156 2273 1281 
Q 2116 1406 1581 1522 
L 1381 1569 
Q 847 1681 609 1914 
Q 372 2147 372 2553 
Q 372 3047 722 3315 
Q 1072 3584 1716 3584 
Q 2034 3584 2315 3537 
Q 2597 3491 2834 3397 
z
" transform="scale(0.015625)"/>
      </defs>
      <use xlink:href="#DejaVuSans-50"/>
      <use xlink:href="#DejaVuSans-65" transform="translate(56.677734 0)"/>
      <use xlink:href="#DejaVuSans-61" transform="translate(118.201172 0)"/>
      <use xlink:href="#DejaVuSans-6b" transform="translate(179.480469 0)"/>
      <use xlink:href="#DejaVuSans-20" transform="translate(237.390625 0)"/>
      <use xlink:href="#DejaVuSans-6d" transform="translate(269.177734 0)"/>
      <use xlink:href="#DejaVuSans-65" transform="translate(366.589844 0)"/>
      <use xlink:href="#DejaVuSans-61" transform="translate(428.113281 0)"/>
      <use xlink:href="#DejaVuSans-73" transform="translate(489.392578 0)"/>
      <use xlink:href="#DejaVuSans-75" transform="translate(541.492188 0)"/>
      <use xlink:href="#DejaVuSans-72" transform="translate(604.871094 0)"/>
      <use xlink:href="#DejaVuSans-65" transform="translate(643.734375 0)"/>
      <use xlink:href="#DejaVuSans-6d" transform="translate(705.257812 0)"/>
      <use xlink:href="#DejaVuSans-65" transform="translate(802.669922 0)"/>
      <use xlink:href="#DejaVuSans-6e" transform="translate(864.193359 0)"/>
      <use xlink:href="#DejaVuSans-74" transform="translate(927.572266 0)"/>
     </g>
    </g>
   </g>
  </g>
  <g id="axes_2">
   <g id="patch_9">
    <path d="M 544.316875 403 
L 992.226875 403 
L 992.226875 82.176 
L 544.316875 82.176 
z
" style="fill: #ffffff"/>
   </g>
   <g id="patch_10">
    <path d="M 897.832619 403 
L 971.86733 403 
L 971.86733 82.176 
L 897.832619 82.176 
z
" clip-path="url(#p8cc769c7fb)" style="fill: #22c55e; opacity: 0.3; stroke: #22c55e; stroke-linejoin: miter"/>
   </g>
   <g id="FillBetweenPolyCollection_2">
    <defs>
     <path id="me4e91763ea" d="M 564.67642 -395.962986 
L 564.67642 -258.721608 
L 971.86733 -258.721608 
L 971.86733 -395.962986 
L 971.86733 -395.962986 
L 564.67642 -395.962986 
z
" style="stroke: #ff0000; stroke-opacity: 0.15"/>
    </defs>
    <g clip-path="url(#p8cc769c7fb)">
     <use xlink:href="#me4e91763ea" x="0" y="442.491875" style="fill: #ff0000; fill-opacity: 0.15; stroke: #ff0000; stroke-opacity: 0.15"/>
    </g>
   </g>
   <g id="matplotlib.axis_3">
    <g id="xtick_7">
     <g id="line2d_38">
      <path d="M 564.67642 403 
L 564.67642 82.176 
" clip-path="url(#p8cc769c7fb)" style="fill: none; stroke: #b0b0b0; stroke-opacity: 0.3; stroke-width: 0.8; stroke-linecap: square"/>
     </g>
     <g id="line2d_39">
      <g>
       <use xlink:href="#mdbf8782738" x="564.67642" y="403" style="stroke: #000000; stroke-width: 0.8"/>
      </g>
     </g>
     <g id="text_24">
      <!-- 0 -->
      <g transform="translate(561.49517 417.598437) scale(0.1 -0.1)">
       <use xlink:href="#DejaVuSans-30"/>
      </g>
     </g>
    </g>
    <g id="xtick_8">
     <g id="line2d_40">
      <path d="M 638.711131 403 
L 638.711131 82.176 
" clip-path="url(#p8cc769c7fb)" style="fill: none; stroke: #b0b0b0; stroke-opacity: 0.3; stroke-width: 0.8; stroke-linecap: square"/>
     </g>
     <g id="line2d_41">
      <g>
       <use xlink:href="#mdbf8782738" x="638.711131" y="403" style="stroke: #000000; stroke-width: 0.8"/>
      </g>
     </g>
     <g id="text_25">
      <!-- 2 -->
      <g transform="translate(635.529881 417.598437) scale(0.1 -0.1)">
       <use xlink:href="#DejaVuSans-32"/>
      </g>
     </g>
    </g>
    <g id="xtick_9">
     <g id="line2d_42">
      <path d="M 712.745842 403 
L 712.745842 82.176 
" clip-path="url(#p8cc769c7fb)" style="fill: none; stroke: #b0b0b0; stroke-opacity: 0.3; stroke-width: 0.8; stroke-linecap: square"/>
     </g>
     <g id="line2d_43">
      <g>
       <use xlink:href="#mdbf8782738" x="712.745842" y="403" style="stroke: #000000; stroke-width: 0.8"/>
      </g>
     </g>
     <g id="text_26">
      <!-- 4 -->
      <g transform="translate(709.564592 417.598437) scale(0.1 -0.1)">
       <use xlink:href="#DejaVuSans-34"/>
      </g>
     </g>
    </g>
    <g id="xtick_10">
     <g id="line2d_44">
      <path d="M 786.780553 403 
L 786.780553 82.176 
" clip-path="url(#p8cc769c7fb)" style="fill: none; stroke: #b0b0b0; stroke-opacity: 0.3; stroke-width: 0.8; stroke-linecap: square"/>
     </g>
     <g id="line2d_45">
      <g>
       <use xlink:href="#mdbf8782738" x="786.780553" y="403" style="stroke: #000000; stroke-width: 0.8"/>
      </g>
     </g>
     <g id="text_27">
      <!-- 6 -->
      <g transform="translate(783.599303 417.598437) scale(0.1 -0.1)">
       <use xlink:href="#DejaVuSans-36"/>
      </g>
     </g>
    </g>
    <g id="xtick_11">
     <g id="line2d_46">
      <path d="M 860.815263 403 
L 860.815263 82.176 
" clip-path="url(#p8cc769c7fb)" style="fill: none; stroke: #b0b0b0; stroke-opacity: 0.3; stroke-width: 0.8; stroke-linecap: square"/>
     </g>
     <g id="line2d_47">
      <g>
       <use xlink:href="#mdbf8782738" x="860.815263" y="403" style="stroke: #000000; stroke-width: 0.8"/>
      </g>
     </g>
     <g id="text_28">
      <!-- 8 -->
      <g transform="translate(857.634013 417.598437) scale(0.1 -0.1)">
       <use xlink:href="#DejaVuSans-38"/>
      </g>
     </g>
    </g>
    <g id="xtick_12">
     <g id="line2d_48">
      <path d="M 934.849974 403 
L 934.849974 82.176 
" clip-path="url(#p8cc769c7fb)" style="fill: none; stroke: #b0b0b0; stroke-opacity: 0.3; stroke-width: 0.8; stroke-linecap: square"/>
     </g>
     <g id="line2d_49">
      <g>
       <use xlink:href="#mdbf8782738" x="934.849974" y="403" style="stroke: #000000; stroke-width: 0.8"/>
      </g>
     </g>
     <g id="text_29">
      <!-- 10 -->
      <g transform="translate(928.487474 417.598437) scale(0.1 -0.1)">
       <use xlink:href="#DejaVuSans-31"/>
       <use xlink:href="#DejaVuSans-30" transform="translate(63.623047 0)"/>
      </g>
     </g>
    </g>
    <g id="text_30">
     <!-- Probe Number -->
     <g transform="translate(725.245312 432.79625) scale(0.12 -0.12)">
      <use xlink:href="#DejaVuSans-50"/>
      <use xlink:href="#DejaVuSans-72" transform="translate(58.552734 0)"/>
      <use xlink:href="#DejaVuSans-6f" transform="translate(97.416016 0)"/>
      <use xlink:href="#DejaVuSans-62" transform="translate(158.597656 0)"/>
      <use xlink:href="#DejaVuSans-65" transform="translate(222.074219 0)"/>
      <use xlink:href="#DejaVuSans-20" transform="translate(283.597656 0)"/>
      <use xlink:href="#DejaVuSans-4e" transform="translate(315.384766 0)"/>
      <use xlink:href="#DejaVuSans-75" transform="translate(390.189453 0)"/>
      <use xlink:href="#DejaVuSans-6d" transform="translate(453.568359 0)"/>
      <use xlink:href="#DejaVuSans-62" transform="translate(550.980469 0)"/>
      <use xlink:href="#DejaVuSans-65" transform="translate(614.457031 0)"/>
      <use xlink:href="#DejaVuSans-72" transform="translate(675.980469 0)"/>
     </g>
    </g>
   </g>
   <g id="matplotlib.axis_4">
    <g id="ytick_11">
     <g id="line2d_50">
      <path d="M 544.316875 403 
L 992.226875 403 
" clip-path="url(#p8cc769c7fb)" style="fill: none; stroke: #b0b0b0; stroke-opacity: 0.3; stroke-width: 0.8; stroke-linecap: square"/>
     </g>
     <g id="line2d_51">
      <g>
       <use xlink:href="#mc0c500e36b" x="544.316875" y="403" style="stroke: #000000; stroke-width: 0.8"/>
      </g>
     </g>
     <g id="text_31">
      <!-- 0.0 -->
      <g transform="translate(521.41375 406.799219) scale(0.1 -0.1)">
       <use xlink:href="#DejaVuSans-30"/>
       <use xlink:href="#DejaVuSans-2e" transform="translate(63.623047 0)"/>
       <use xlink:href="#DejaVuSans-30" transform="translate(95.410156 0)"/>
      </g>
     </g>
    </g>
    <g id="ytick_12">
     <g id="line2d_52">
      <path d="M 544.316875 367.352889 
L 992.226875 367.352889 
" clip-path="url(#p8cc769c7fb)" style="fill: none; stroke: #b0b0b0; stroke-opacity: 0.3; stroke-width: 0.8; stroke-linecap: square"/>
     </g>
     <g id="line2d_53">
      <g>
       <use xlink:href="#mc0c500e36b" x="544.316875" y="367.352889" style="stroke: #000000; stroke-width: 0.8"/>
      </g>
     </g>
     <g id="text_32">
      <!-- 0.2 -->
      <g transform="translate(521.41375 371.152108) scale(0.1 -0.1)">
       <use xlink:href="#DejaVuSans-30"/>
       <use xlink:href="#DejaVuSans-2e" transform="translate(63.623047 0)"/>
       <use xlink:href="#DejaVuSans-32" transform="translate(95.410156 0)"/>
      </g>
     </g>
    </g>
    <g id="ytick_13">
     <g id="line2d_54">
      <path d="M 544.316875 331.705778 
L 992.226875 331.705778 
" clip-path="url(#p8cc769c7fb)" style="fill: none; stroke: #b0b0b0; stroke-opacity: 0.3; stroke-width: 0.8; stroke-linecap: square"/>
     </g>
     <g id="line2d_55">
      <g>
       <use xlink:href="#mc0c500e36b" x="544.316875" y="331.705778" style="stroke: #000000; stroke-width: 0.8"/>
      </g>
     </g>
     <g id="text_33">
      <!-- 0.4 -->
      <g transform="translate(521.41375 335.504997) scale(0.1 -0.1)">
       <use xlink:href="#DejaVuSans-30"/>
       <use xlink:href="#DejaVuSans-2e" transform="translate(63.623047 0)"/>
       <use xlink:href="#DejaVuSans-34" transform="translate(95.410156 0)"/>
      </g>
     </g>
    </g>
    <g id="ytick_14">
     <g id="line2d_56">
      <path d="M 544.316875 296.058667 
L 992.226875 296.058667 
" clip-path="url(#p8cc769c7fb)" style="fill: none; stroke: #b0b0b0; stroke-opacity: 0.3; stroke-width: 0.8; stroke-linecap: square"/>
     </g>
     <g id="line2d_57">
      <g>
       <use xlink:href="#mc0c500e36b" x="544.316875" y="296.058667" style="stroke: #000000; stroke-width: 0.8"/>
      </g>
     </g>
     <g id="text_34">
      <!-- 0.6 -->
      <g transform="translate(521.41375 299.857885) scale(0.1 -0.1)">
       <use xlink:href="#DejaVuSans-30"/>
       <use xlink:href="#DejaVuSans-2e" transform="translate(63.623047 0)"/>
       <use xlink:href="#DejaVuSans-36" transform="translate(95.410156 0)"/>
      </g>
     </g>
    </g>
    <g id="ytick_15">
     <g id="line2d_58">
      <path d="M 544.316875 260.411556 
L 992.226875 260.411556 
" clip-path="url(#p8cc769c7fb)" style="fill: none; stroke: #b0b0b0; stroke-opacity: 0.3; stroke-width: 0.8; stroke-linecap: square"/>
     </g>
     <g id="line2d_59">
      <g>
       <use xlink:href="#mc0c500e36b" x="544.316875" y="260.411556" style="stroke: #000000; stroke-width: 0.8"/>
      </g>
     </g>
     <g id="text_35">
      <!-- 0.8 -->
      <g transform="translate(521.41375 264.210774) scale(0.1 -0.1)">
       <use xlink:href="#DejaVuSans-30"/>
       <use xlink:href="#DejaVuSans-2e" transform="translate(63.623047 0)"/>
       <use xlink:href="#DejaVuSans-38" transform="translate(95.410156 0)"/>
      </g>
     </g>
    </g>
    <g id="ytick_16">
     <g id="line2d_60">
      <path d="M 544.316875 224.764444 
L 992.226875 224.764444 
" clip-path="url(#p8cc769c7fb)" style="fill: none; stroke: #b0b0b0; stroke-opacity: 0.3; stroke-width: 0.8; stroke-linecap: square"/>
     </g>
     <g id="line2d_61">
      <g>
       <use xlink:href="#mc0c500e36b" x="544.316875" y="224.764444" style="stroke: #000000; stroke-width: 0.8"/>
      </g>
     </g>
     <g id="text_36">
      <!-- 1.0 -->
      <g transform="translate(521.41375 228.563663) scale(0.1 -0.1)">
       <use xlink:href="#DejaVuSans-31"/>
       <use xlink:href="#DejaVuSans-2e" transform="translate(63.623047 0)"/>
       <use xlink:href="#DejaVuSans-30" transform="translate(95.410156 0)"/>
      </g>
     </g>
    </g>
    <g id="ytick_17">
     <g id="line2d_62">
      <path d="M 544.316875 189.117333 
L 992.226875 189.117333 
" clip-path="url(#p8cc769c7fb)" style="fill: none; stroke: #b0b0b0; stroke-opacity: 0.3; stroke-width: 0.8; stroke-linecap: square"/>
     </g>
     <g id="line2d_63">
      <g>
       <use xlink:href="#mc0c500e36b" x="544.316875" y="189.117333" style="stroke: #000000; stroke-width: 0.8"/>
      </g>
     </g>
     <g id="text_37">
      <!-- 1.2 -->
      <g transform="translate(521.41375 192.916552) scale(0.1 -0.1)">
       <use xlink:href="#DejaVuSans-31"/>
       <use xlink:href="#DejaVuSans-2e" transform="translate(63.623047 0)"/>
       <use xlink:href="#DejaVuSans-32" transform="translate(95.410156 0)"/>
      </g>
     </g>
    </g>
    <g id="ytick_18">
     <g id="line2d_64">
      <path d="M 544.316875 153.470222 
L 992.226875 153.470222 
" clip-path="url(#p8cc769c7fb)" style="fill: none; stroke: #b0b0b0; stroke-opacity: 0.3; stroke-width: 0.8; stroke-linecap: square"/>
     </g>
     <g id="line2d_65">
      <g>
       <use xlink:href="#mc0c500e36b" x="544.316875" y="153.470222" style="stroke: #000000; stroke-width: 0.8"/>
      </g>
     </g>
     <g id="text_38">
      <!-- 1.4 -->
      <g transform="translate(521.41375 157.269441) scale(0.1 -0.1)">
       <use xlink:href="#DejaVuSans-31"/>
       <use xlink:href="#DejaVuSans-2e" transform="translate(63.623047 0)"/>
       <use xlink:href="#DejaVuSans-34" transform="translate(95.410156 0)"/>
      </g>
     </g>
    </g>
    <g id="ytick_19">
     <g id="line2d_66">
      <path d="M 544.316875 117.823111 
L 992.226875 117.823111 
" clip-path="url(#p8cc769c7fb)" style="fill: none; stroke: #b0b0b0; stroke-opacity: 0.3; stroke-width: 0.8; stroke-linecap: square"/>
     </g>
     <g id="line2d_67">
      <g>
       <use xlink:href="#mc0c500e36b" x="544.316875" y="117.823111" style="stroke: #000000; stroke-width: 0.8"/>
      </g>
     </g>
     <g id="text_39">
      <!-- 1.6 -->
      <g transform="translate(521.41375 121.62233) scale(0.1 -0.1)">
       <use xlink:href="#DejaVuSans-31"/>
       <use xlink:href="#DejaVuSans-2e" transform="translate(63.623047 0)"/>
       <use xlink:href="#DejaVuSans-36" transform="translate(95.410156 0)"/>
      </g>
     </g>
    </g>
    <g id="ytick_20">
     <g id="line2d_68">
      <path d="M 544.316875 82.176 
L 992.226875 82.176 
" clip-path="url(#p8cc769c7fb)" style="fill: none; stroke: #b0b0b0; stroke-opacity: 0.3; stroke-width: 0.8; stroke-linecap: square"/>
     </g>
     <g id="line2d_69">
      <g>
       <use xlink:href="#mc0c500e36b" x="544.316875" y="82.176" style="stroke: #000000; stroke-width: 0.8"/>
      </g>
     </g>
     <g id="text_40">
      <!-- 1.8 -->
      <g transform="translate(521.41375 85.975219) scale(0.1 -0.1)">
       <use xlink:href="#DejaVuSans-31"/>
       <use xlink:href="#DejaVuSans-2e" transform="translate(63.623047 0)"/>
       <use xlink:href="#DejaVuSans-38" transform="translate(95.410156 0)"/>
      </g>
     </g>
    </g>
    <g id="text_41">
     <!-- Drift -->
     <g transform="translate(514.918125 255.700812) rotate(-90) scale(0.12 -0.12)">
      <use xlink:href="#DejaVuSans-44"/>
      <use xlink:href="#DejaVuSans-72" transform="translate(77.001953 0)"/>
      <use xlink:href="#DejaVuSans-69" transform="translate(118.115234 0)"/>
      <use xlink:href="#DejaVuSans-66" transform="translate(145.898438 0)"/>
      <use xlink:href="#DejaVuSans-74" transform="translate(179.353516 0)"/>
     </g>
    </g>
   </g>
   <g id="line2d_70">
    <path d="M 564.67642 349.529333 
L 601.693776 313.882222 
L 638.711131 331.705778 
L 675.728487 242.588 
L 712.745842 189.117333 
L 749.763197 135.646667 
L 786.780553 171.293778 
L 823.797908 260.411556 
L 860.815263 242.588 
L 897.832619 278.235111 
L 934.849974 296.058667 
L 971.86733 304.970444 
" clip-path="url(#p8cc769c7fb)" style="fill: none; stroke: #3b82f6; stroke-width: 2; stroke-linecap: square"/>
    <defs>
     <path id="mfd520447cd" d="M 0 4 
C 1.060812 4 2.078319 3.578535 2.828427 2.828427 
C 3.578535 2.078319 4 1.060812 4 0 
C 4 -1.060812 3.578535 -2.078319 2.828427 -2.828427 
C 2.078319 -3.578535 1.060812 -4 0 -4 
C -1.060812 -4 -2.078319 -3.578535 -2.828427 -2.828427 
C -3.578535 -2.078319 -4 -1.060812 -4 0 
C -4 1.060812 -3.578535 2.078319 -2.828427 2.828427 
C -2.078319 3.578535 -1.060812 4 0 4 
z
" style="stroke: #3b82f6"/>
    </defs>
    <g clip-path="url(#p8cc769c7fb)">
     <use xlink:href="#mfd520447cd" x="564.67642" y="349.529333" style="fill: #3b82f6; stroke: #3b82f6"/>
     <use xlink:href="#mfd520447cd" x="601.693776" y="313.882222" style="fill: #3b82f6; stroke: #3b82f6"/>
     <use xlink:href="#mfd520447cd" x="638.711131" y="331.705778" style="fill: #3b82f6; stroke: #3b82f6"/>
     <use xlink:href="#mfd520447cd" x="675.728487" y="242.588" style="fill: #3b82f6; stroke: #3b82f6"/>
     <use xlink:href="#mfd520447cd" x="712.745842" y="189.117333" style="fill: #3b82f6; stroke: #3b82f6"/>
     <use xlink:href="#mfd520447cd" x="749.763197" y="135.646667" style="fill: #3b82f6; stroke: #3b82f6"/>
     <use xlink:href="#mfd520447cd" x="786.780553" y="171.293778" style="fill: #3b82f6; stroke: #3b82f6"/>
     <use xlink:href="#mfd520447cd" x="823.797908" y="260.411556" style="fill: #3b82f6; stroke: #3b82f6"/>
     <use xlink:href="#mfd520447cd" x="860.815263" y="242.588" style="fill: #3b82f6; stroke: #3b82f6"/>
     <use xlink:href="#mfd520447cd" x="897.832619" y="278.235111" style="fill: #3b82f6; stroke: #3b82f6"/>
     <use xlink:href="#mfd520447cd" x="934.849974" y="296.058667" style="fill: #3b82f6; stroke: #3b82f6"/>
     <use xlink:href="#mfd520447cd" x="971.86733" y="304.970444" style="fill: #3b82f6; stroke: #3b82f6"/>
    </g>
   </g>
   <g id="line2d_71">
    <path d="M 544.316875 183.770267 
L 992.226875 183.770267 
" clip-path="url(#p8cc769c7fb)" style="fill: none; stroke-dasharray: 7.4,3.2; stroke-dashoffset: 0; stroke: #dc2626; stroke-width: 2"/>
   </g>
   <g id="line2d_72">
    <path d="M 544.316875 293.088074 
L 992.226875 293.088074 
" clip-path="url(#p8cc769c7fb)" style="fill: none; stroke: #22c55e; stroke-opacity: 0.7; stroke-width: 3; stroke-linecap: square"/>
   </g>
   <g id="patch_11">
    <path d="M 544.316875 403 
L 544.316875 82.176 
" style="fill: none; stroke: #000000; stroke-width: 0.8; stroke-linejoin: miter; stroke-linecap: square"/>
   </g>
   <g id="patch_12">
    <path d="M 992.226875 403 
L 992.226875 82.176 
" style="fill: none; stroke: #000000; stroke-width: 0.8; stroke-linejoin: miter; stroke-linecap: square"/>
   </g>
   <g id="patch_13">
    <path d="M 544.316875 403 
L 992.226875 403 
" style="fill: none; stroke: #000000; stroke-width: 0.8; stroke-linejoin: miter; stroke-linecap: square"/>
   </g>
   <g id="patch_14">
    <path d="M 544.316875 82.176 
L 992.226875 82.176 
" style="fill: none; stroke: #000000; stroke-width: 0.8; stroke-linejoin: miter; stroke-linecap: square"/>
   </g>
   <g id="patch_15">
    <path d="M 888.933703 325.697591 
Q 911.07771 309.971023 932.310176 294.891827 
" style="fill: none; stroke: #16a34a; stroke-linecap: round"/>
    <path d="M 927.44896 295.645872 
L 932.310176 294.891827 
L 929.996682 299.233226 
" style="fill: none; stroke: #16a34a; stroke-linecap: round"/>
   </g>
   <g id="text_42">
    <!-- STABLE! -->
    <g style="fill: #16a34a" transform="translate(823.797908 337.21174) scale(0.11 -0.11)">
     <use xlink:href="#DejaVuSans-Bold-53"/>
     <use xlink:href="#DejaVuSans-Bold-54" transform="translate(72.021484 0)"/>
     <use xlink:href="#DejaVuSans-Bold-41" transform="translate(132.484375 0)"/>
     <use xlink:href="#DejaVuSans-Bold-42" transform="translate(209.876953 0)"/>
     <use xlink:href="#DejaVuSans-Bold-4c" transform="translate(286.097656 0)"/>
     <use xlink:href="#DejaVuSans-Bold-45" transform="translate(349.818359 0)"/>
     <use xlink:href="#DejaVuSans-Bold-21" transform="translate(418.128906 0)"/>
    </g>
    <!-- (settled: 0.62) -->
    <g style="fill: #16a34a" transform="translate(823.797908 349.529333) scale(0.11 -0.11)">
     <defs>
      <path id="DejaVuSans-Bold-2e" d="M 653 1209 
L 1778 1209 
L 1778 0 
L 653 0 
L 653 1209 
z
" transform="scale(0.015625)"/>
      <path id="DejaVuSans-Bold-36" d="M 2316 2303 
Q 2000 2303 1842 2098 
Q 1684 1894 1684 1484 
Q 1684 1075 1842 870 
Q 2000 666 2316 666 
Q 2634 666 2792 870 
Q 2950 1075 2950 1484 
Q 2950 1894 2792 2098 
Q 2634 2303 2316 2303 
z
M 3803 4544 
L 3803 3681 
Q 3506 3822 3243 3889 
Q 2981 3956 2731 3956 
Q 2194 3956 1894 3657 
Q 1594 3359 1544 2772 
Q 1750 2925 1990 3001 
Q 2231 3078 2516 3078 
Q 3231 3078 3670 2659 
Q 4109 2241 4109 1563 
Q 4109 813 3618 361 
Q 3128 -91 2303 -91 
Q 1394 -91 895 523 
Q 397 1138 397 2266 
Q 397 3422 980 4083 
Q 1563 4744 2578 4744 
Q 2900 4744 3203 4694 
Q 3506 4644 3803 4544 
z
" transform="scale(0.015625)"/>
      <path id="DejaVuSans-Bold-32" d="M 1844 884 
L 3897 884 
L 3897 0 
L 506 0 
L 506 884 
L 2209 2388 
Q 2438 2594 2547 2791 
Q 2656 2988 2656 3200 
Q 2656 3528 2436 3728 
Q 2216 3928 1850 3928 
Q 1569 3928 1234 3808 
Q 900 3688 519 3450 
L 519 4475 
Q 925 4609 1322 4679 
Q 1719 4750 2100 4750 
Q 2938 4750 3402 4381 
Q 3866 4013 3866 3353 
Q 3866 2972 3669 2642 
Q 3472 2313 2841 1759 
L 1844 884 
z
" transform="scale(0.015625)"/>
     </defs>
     <use xlink:href="#DejaVuSans-Bold-28"/>
     <use xlink:href="#DejaVuSans-Bold-73" transform="translate(45.703125 0)"/>
     <use xlink:href="#DejaVuSans-Bold-65" transform="translate(105.224609 0)"/>
     <use xlink:href="#DejaVuSans-Bold-74" transform="translate(173.046875 0)"/>
     <use xlink:href="#DejaVuSans-Bold-74" transform="translate(220.849609 0)"/>
     <use xlink:href="#DejaVuSans-Bold-6c" transform="translate(268.652344 0)"/>
     <use xlink:href="#DejaVuSans-Bold-65" transform="translate(302.929688 0)"/>
     <use xlink:href="#DejaVuSans-Bold-64" transform="translate(370.751953 0)"/>
     <use xlink:href="#DejaVuSans-Bold-3a" transform="translate(442.333984 0)"/>
     <use xlink:href="#DejaVuSans-Bold-20" transform="translate(482.324219 0)"/>
     <use xlink:href="#DejaVuSans-Bold-30" transform="translate(517.138672 0)"/>
     <use xlink:href="#DejaVuSans-Bold-2e" transform="translate(586.71875 0)"/>
     <use xlink:href="#DejaVuSans-Bold-36" transform="translate(624.707031 0)"/>
     <use xlink:href="#DejaVuSans-Bold-32" transform="translate(694.287109 0)"/>
     <use xlink:href="#DejaVuSans-Bold-29" transform="translate(763.867188 0)"/>
    </g>
   </g>
   <g id="text_43">
    <!-- Run 016: Settling Time Methodology -->
    <g transform="translate(644.449687 62.644875) scale(0.12 -0.12)">
     <use xlink:href="#DejaVuSans-Bold-52"/>
     <use xlink:href="#DejaVuSans-Bold-75" transform="translate(77.001953 0)"/>
     <use xlink:href="#DejaVuSans-Bold-6e" transform="translate(148.193359 0)"/>
     <use xlink:href="#DejaVuSans-Bold-20" transform="translate(219.384766 0)"/>
     <use xlink:href="#DejaVuSans-Bold-30" transform="translate(254.199219 0)"/>
     <use xlink:href="#DejaVuSans-Bold-31" transform="translate(323.779297 0)"/>
     <use xlink:href="#DejaVuSans-Bold-36" transform="translate(393.359375 0)"/>
     <use xlink:href="#DejaVuSans-Bold-3a" transform="translate(462.939453 0)"/>
     <use xlink:href="#DejaVuSans-Bold-20" transform="translate(502.929688 0)"/>
     <use xlink:href="#DejaVuSans-Bold-53" transform="translate(537.744141 0)"/>
     <use xlink:href="#DejaVuSans-Bold-65" transform="translate(609.765625 0)"/>
     <use xlink:href="#DejaVuSans-Bold-74" transform="translate(677.587891 0)"/>
     <use xlink:href="#DejaVuSans-Bold-74" transform="translate(725.390625 0)"/>
     <use xlink:href="#DejaVuSans-Bold-6c" transform="translate(773.193359 0)"/>
     <use xlink:href="#DejaVuSans-Bold-69" transform="translate(807.470703 0)"/>
     <use xlink:href="#DejaVuSans-Bold-6e" transform="translate(841.748047 0)"/>
     <use xlink:href="#DejaVuSans-Bold-67" transform="translate(912.939453 0)"/>
     <use xlink:href="#DejaVuSans-Bold-20" transform="translate(984.521484 0)"/>
     <use xlink:href="#DejaVuSans-Bold-54" transform="translate(1019.335938 0)"/>
     <use xlink:href="#DejaVuSans-Bold-69" transform="translate(1087.548828 0)"/>
     <use xlink:href="#DejaVuSans-Bold-6d" transform="translate(1121.826172 0)"/>
     <use xlink:href="#DejaVuSans-Bold-65" transform="translate(1226.025391 0)"/>
     <use xlink:href="#DejaVuSans-Bold-20" transform="translate(1293.847656 0)"/>
     <use xlink:href="#DejaVuSans-Bold-4d" transform="translate(1328.662109 0)"/>
     <use xlink:href="#DejaVuSans-Bold-65" transform="translate(1428.173828 0)"/>
     <use xlink:href="#DejaVuSans-Bold-74" transform="translate(1495.996094 0)"/>
     <use xlink:href="#DejaVuSans-Bold-68" transform="translate(1543.798828 0)"/>
     <use xlink:href="#DejaVuSans-Bold-6f" transform="translate(1614.990234 0)"/>
     <use xlink:href="#DejaVuSans-Bold-64" transform="translate(1683.691406 0)"/>
     <use xlink:href="#DejaVuSans-Bold-6f" transform="translate(1755.273438 0)"/>
     <use xlink:href="#DejaVuSans-Bold-6c" transform="translate(1823.974609 0)"/>
     <use xlink:href="#DejaVuSans-Bold-6f" transform="translate(1858.251953 0)"/>
     <use xlink:href="#DejaVuSans-Bold-67" transform="translate(1926.953125 0)"/>
     <use xlink:href="#DejaVuSans-Bold-79" transform="translate(1998.535156 0)"/>
    </g>
    <!-- (Waits for steady state - clean!) -->
    <g transform="translate(660.28875 76.176) scale(0.12 -0.12)">
     <defs>
      <path id="DejaVuSans-Bold-57" d="M 191 4666 
L 1344 4666 
L 2150 1275 
L 2950 4666 
L 4109 4666 
L 4909 1275 
L 5716 4666 
L 6859 4666 
L 5759 0 
L 4372 0 
L 3525 3547 
L 2688 0 
L 1300 0 
L 191 4666 
z
" transform="scale(0.015625)"/>
      <path id="DejaVuSans-Bold-63" d="M 3366 3391 
L 3366 2478 
Q 3138 2634 2908 2709 
Q 2678 2784 2431 2784 
Q 1963 2784 1702 2511 
Q 1441 2238 1441 1747 
Q 1441 1256 1702 982 
Q 1963 709 2431 709 
Q 2694 709 2930 787 
Q 3166 866 3366 1019 
L 3366 103 
Q 3103 6 2833 -42 
Q 2563 -91 2291 -91 
Q 1344 -91 809 395 
Q 275 881 275 1747 
Q 275 2613 809 3098 
Q 1344 3584 2291 3584 
Q 2566 3584 2833 3536 
Q 3100 3488 3366 3391 
z
" transform="scale(0.015625)"/>
     </defs>
     <use xlink:href="#DejaVuSans-Bold-28"/>
     <use xlink:href="#DejaVuSans-Bold-57" transform="translate(45.703125 0)"/>
     <use xlink:href="#DejaVuSans-Bold-61" transform="translate(152.380859 0)"/>
     <use xlink:href="#DejaVuSans-Bold-69" transform="translate(219.861328 0)"/>
     <use xlink:href="#DejaVuSans-Bold-74" transform="translate(254.138672 0)"/>
     <use xlink:href="#DejaVuSans-Bold-73" transform="translate(301.941406 0)"/>
     <use xlink:href="#DejaVuSans-Bold-20" transform="translate(361.462891 0)"/>
     <use xlink:href="#DejaVuSans-Bold-66" transform="translate(396.277344 0)"/>
     <use xlink:href="#DejaVuSans-Bold-6f" transform="translate(439.783203 0)"/>
     <use xlink:href="#DejaVuSans-Bold-72" transform="translate(508.484375 0)"/>
     <use xlink:href="#DejaVuSans-Bold-20" transform="translate(557.800781 0)"/>
     <use xlink:href="#DejaVuSans-Bold-73" transform="translate(592.615234 0)"/>
     <use xlink:href="#DejaVuSans-Bold-74" transform="translate(652.136719 0)"/>
     <use xlink:href="#DejaVuSans-Bold-65" transform="translate(699.939453 0)"/>
     <use xlink:href="#DejaVuSans-Bold-61" transform="translate(767.761719 0)"/>
     <use xlink:href="#DejaVuSans-Bold-64" transform="translate(835.242188 0)"/>
     <use xlink:href="#DejaVuSans-Bold-79" transform="translate(906.824219 0)"/>
     <use xlink:href="#DejaVuSans-Bold-20" transform="translate(972.009766 0)"/>
     <use xlink:href="#DejaVuSans-Bold-73" transform="translate(1006.824219 0)"/>
     <use xlink:href="#DejaVuSans-Bold-74" transform="translate(1066.345703 0)"/>
     <use xlink:href="#DejaVuSans-Bold-61" transform="translate(1114.148438 0)"/>
     <use xlink:href="#DejaVuSans-Bold-74" transform="translate(1181.628906 0)"/>
     <use xlink:href="#DejaVuSans-Bold-65" transform="translate(1229.431641 0)"/>
     <use xlink:href="#DejaVuSans-Bold-20" transform="translate(1297.253906 0)"/>
     <use xlink:href="#DejaVuSans-Bold-2d" transform="translate(1332.068359 0)"/>
     <use xlink:href="#DejaVuSans-Bold-20" transform="translate(1373.572266 0)"/>
     <use xlink:href="#DejaVuSans-Bold-63" transform="translate(1408.386719 0)"/>
     <use xlink:href="#DejaVuSans-Bold-6c" transform="translate(1467.664062 0)"/>
     <use xlink:href="#DejaVuSans-Bold-65" transform="translate(1501.941406 0)"/>
     <use xlink:href="#DejaVuSans-Bold-61" transform="translate(1569.763672 0)"/>
     <use xlink:href="#DejaVuSans-Bold-6e" transform="translate(1637.244141 0)"/>
     <use xlink:href="#DejaVuSans-Bold-21" transform="translate(1708.435547 0)"/>
     <use xlink:href="#DejaVuSans-Bold-29" transform="translate(1754.041016 0)"/>
    </g>
   </g>
   <g id="PathCollection_3">
    <defs>
     <path id="m3a71c1ca51" d="M 0 -7.071068 
L -1.587554 -2.18508 
L -6.724985 -2.18508 
L -2.568716 0.834626 
L -4.156269 5.720614 
L -0 2.700907 
L 4.156269 5.720614 
L 2.568716 0.834626 
L 6.724985 -2.18508 
L 1.587554 -2.18508 
z
" style="stroke: #22c55e"/>
    </defs>
    <g clip-path="url(#p8cc769c7fb)">
     <use xlink:href="#m3a71c1ca51" x="934.849974" y="293.088074" style="fill: #22c55e; stroke: #22c55e"/>
    </g>
   </g>
   <g id="legend_2">
    <g id="patch_16">
     <path d="M 885.395469 129.006937 
L 985.926875 129.006937 
Q 987.726875 129.006937 987.726875 127.206937 
L 987.726875 88.476 
Q 987.726875 86.676 985.926875 86.676 
L 885.395469 86.676 
Q 883.595469 86.676 883.595469 88.476 
L 883.595469 127.206937 
Q 883.595469 129.006937 885.395469 129.006937 
z
" style="fill: #ffffff; opacity: 0.8; stroke: #cccccc; stroke-linejoin: miter"/>
    </g>
    <g id="line2d_73">
     <path d="M 887.195469 93.964594 
L 896.195469 93.964594 
L 905.195469 93.964594 
" style="fill: none; stroke: #3b82f6; stroke-width: 2; stroke-linecap: square"/>
     <g>
      <use xlink:href="#mfd520447cd" x="896.195469" y="93.964594" style="fill: #3b82f6; stroke: #3b82f6"/>
     </g>
    </g>
    <g id="text_44">
     <!-- Drift trajectory -->
     <g transform="translate(912.395469 97.114594) scale(0.09 -0.09)">
      <use xlink:href="#DejaVuSans-44"/>
      <use xlink:href="#DejaVuSans-72" transform="translate(77.001953 0)"/>
      <use xlink:href="#DejaVuSans-69" transform="translate(118.115234 0)"/>
      <use xlink:href="#DejaVuSans-66" transform="translate(145.898438 0)"/>
      <use xlink:href="#DejaVuSans-74" transform="translate(179.353516 0)"/>
      <use xlink:href="#DejaVuSans-20" transform="translate(218.5625 0)"/>
      <use xlink:href="#DejaVuSans-74" transform="translate(250.349609 0)"/>
      <use xlink:href="#DejaVuSans-72" transform="translate(289.558594 0)"/>
      <use xlink:href="#DejaVuSans-61" transform="translate(330.671875 0)"/>
      <use xlink:href="#DejaVuSans-6a" transform="translate(391.951172 0)"/>
      <use xlink:href="#DejaVuSans-65" transform="translate(419.734375 0)"/>
      <use xlink:href="#DejaVuSans-63" transform="translate(481.257812 0)"/>
      <use xlink:href="#DejaVuSans-74" transform="translate(536.238281 0)"/>
      <use xlink:href="#DejaVuSans-6f" transform="translate(575.447266 0)"/>
      <use xlink:href="#DejaVuSans-72" transform="translate(636.628906 0)"/>
      <use xlink:href="#DejaVuSans-79" transform="translate(677.742188 0)"/>
     </g>
    </g>
    <g id="line2d_74">
     <path d="M 887.195469 107.174906 
L 896.195469 107.174906 
L 905.195469 107.174906 
" style="fill: none; stroke-dasharray: 7.4,3.2; stroke-dashoffset: 0; stroke: #dc2626; stroke-width: 2"/>
    </g>
    <g id="text_45">
     <!-- Event Horizon -->
     <g transform="translate(912.395469 110.324906) scale(0.09 -0.09)">
      <use xlink:href="#DejaVuSans-45"/>
      <use xlink:href="#DejaVuSans-76" transform="translate(63.183594 0)"/>
      <use xlink:href="#DejaVuSans-65" transform="translate(122.363281 0)"/>
      <use xlink:href="#DejaVuSans-6e" transform="translate(183.886719 0)"/>
      <use xlink:href="#DejaVuSans-74" transform="translate(247.265625 0)"/>
      <use xlink:href="#DejaVuSans-20" transform="translate(286.474609 0)"/>
      <use xlink:href="#DejaVuSans-48" transform="translate(318.261719 0)"/>
      <use xlink:href="#DejaVuSans-6f" transform="translate(393.457031 0)"/>
      <use xlink:href="#DejaVuSans-72" transform="translate(454.638672 0)"/>
      <use xlink:href="#DejaVuSans-69" transform="translate(495.751953 0)"/>
      <use xlink:href="#DejaVuSans-7a" transform="translate(523.535156 0)"/>
      <use xlink:href="#DejaVuSans-6f" transform="translate(576.025391 0)"/>
      <use xlink:href="#DejaVuSans-6e" transform="translate(637.207031 0)"/>
     </g>
    </g>
    <g id="patch_17">
     <path d="M 887.195469 123.535219 
L 905.195469 123.535219 
L 905.195469 117.235219 
L 887.195469 117.235219 
z
" style="fill: #22c55e; opacity: 0.3; stroke: #22c55e; stroke-linejoin: miter"/>
    </g>
    <g id="text_46">
     <!-- Settling window -->
     <g transform="translate(912.395469 123.535219) scale(0.09 -0.09)">
      <defs>
       <path id="DejaVuSans-53" d="M 3425 4513 
L 3425 3897 
Q 3066 4069 2747 4153 
Q 2428 4238 2131 4238 
Q 1616 4238 1336 4038 
Q 1056 3838 1056 3469 
Q 1056 3159 1242 3001 
Q 1428 2844 1947 2747 
L 2328 2669 
Q 3034 2534 3370 2195 
Q 3706 1856 3706 1288 
Q 3706 609 3251 259 
Q 2797 -91 1919 -91 
Q 1588 -91 1214 -16 
Q 841 59 441 206 
L 441 856 
Q 825 641 1194 531 
Q 1563 422 1919 422 
Q 2459 422 2753 634 
Q 3047 847 3047 1241 
Q 3047 1584 2836 1778 
Q 2625 1972 2144 2069 
L 1759 2144 
Q 1053 2284 737 2584 
Q 422 2884 422 3419 
Q 422 4038 858 4394 
Q 1294 4750 2059 4750 
Q 2388 4750 2728 4690 
Q 3069 4631 3425 4513 
z
" transform="scale(0.015625)"/>
       <path id="DejaVuSans-6c" d="M 603 4863 
L 1178 4863 
L 1178 0 
L 603 0 
L 603 4863 
z
" transform="scale(0.015625)"/>
       <path id="DejaVuSans-67" d="M 2906 1791 
Q 2906 2416 2648 2759 
Q 2391 3103 1925 3103 
Q 1463 3103 1205 2759 
Q 947 2416 947 1791 
Q 947 1169 1205 825 
Q 1463 481 1925 481 
Q 2391 481 2648 825 
Q 2906 1169 2906 1791 
z
M 3481 434 
Q 3481 -459 3084 -895 
Q 2688 -1331 1869 -1331 
Q 1566 -1331 1297 -1286 
Q 1028 -1241 775 -1147 
L 775 -588 
Q 1028 -725 1275 -790 
Q 1522 -856 1778 -856 
Q 2344 -856 2625 -561 
Q 2906 -266 2906 331 
L 2906 616 
Q 2728 306 2450 153 
Q 2172 0 1784 0 
Q 1141 0 747 490 
Q 353 981 353 1791 
Q 353 2603 747 3093 
Q 1141 3584 1784 3584 
Q 2172 3584 2450 3431 
Q 2728 3278 2906 2969 
L 2906 3500 
L 3481 3500 
L 3481 434 
z
" transform="scale(0.015625)"/>
       <path id="DejaVuSans-77" d="M 269 3500 
L 844 3500 
L 1563 769 
L 2278 3500 
L 2956 3500 
L 3675 769 
L 4391 3500 
L 4966 3500 
L 4050 0 
L 3372 0 
L 2619 2869 
L 1863 0 
L 1184 0 
L 269 3500 
z
" transform="scale(0.015625)"/>
       <path id="DejaVuSans-64" d="M 2906 2969 
L 2906 4863 
L 3481 4863 
L 3481 0 
L 2906 0 
L 2906 525 
Q 2725 213 2448 61 
Q 2172 -91 1784 -91 
Q 1150 -91 751 415 
Q 353 922 353 1747 
Q 353 2572 751 3078 
Q 1150 3584 1784 3584 
Q 2172 3584 2448 3432 
Q 2725 3281 2906 2969 
z
M 947 1747 
Q 947 1113 1208 752 
Q 1469 391 1925 391 
Q 2381 391 2643 752 
Q 2906 1113 2906 1747 
Q 2906 2381 2643 2742 
Q 2381 3103 1925 3103 
Q 1469 3103 1208 2742 
Q 947 2381 947 1747 
z
" transform="scale(0.015625)"/>
      </defs>
      <use xlink:href="#DejaVuSans-53"/>
      <use xlink:href="#DejaVuSans-65" transform="translate(63.476562 0)"/>
      <use xlink:href="#DejaVuSans-74" transform="translate(125 0)"/>
      <use xlink:href="#DejaVuSans-74" transform="translate(164.208984 0)"/>
      <use xlink:href="#DejaVuSans-6c" transform="translate(203.417969 0)"/>
      <use xlink:href="#DejaVuSans-69" transform="translate(231.201172 0)"/>
      <use xlink:href="#DejaVuSans-6e" transform="translate(258.984375 0)"/>
      <use xlink:href="#DejaVuSans-67" transform="translate(322.363281 0)"/>
      <use xlink:href="#DejaVuSans-20" transform="translate(385.839844 0)"/>
      <use xlink:href="#DejaVuSans-77" transform="translate(417.626953 0)"/>
      <use xlink:href="#DejaVuSans-69" transform="translate(499.414062 0)"/>
      <use xlink:href="#DejaVuSans-6e" transform="translate(527.197266 0)"/>
      <use xlink:href="#DejaVuSans-64" transform="translate(590.576172 0)"/>
      <use xlink:href="#DejaVuSans-6f" transform="translate(654.052734 0)"/>
      <use xlink:href="#DejaVuSans-77" transform="translate(715.234375 0)"/>
     </g>
    </g>
   </g>
  </g>
  <g id="text_47">
   <!-- Run 015 vs Run 016: Methodology Evolution -->
   <g transform="translate(324.412969 17.837812) scale(0.14 -0.14)">
    <defs>
     <path id="DejaVuSans-Bold-76" d="M 97 3500 
L 1216 3500 
L 2088 1081 
L 2956 3500 
L 4078 3500 
L 2700 0 
L 1472 0 
L 97 3500 
z
" transform="scale(0.015625)"/>
    </defs>
    <use xlink:href="#DejaVuSans-Bold-52"/>
    <use xlink:href="#DejaVuSans-Bold-75" transform="translate(77.001953 0)"/>
    <use xlink:href="#DejaVuSans-Bold-6e" transform="translate(148.193359 0)"/>
    <use xlink:href="#DejaVuSans-Bold-20" transform="translate(219.384766 0)"/>
    <use xlink:href="#DejaVuSans-Bold-30" transform="translate(254.199219 0)"/>
    <use xlink:href="#DejaVuSans-Bold-31" transform="translate(323.779297 0)"/>
    <use xlink:href="#DejaVuSans-Bold-35" transform="translate(393.359375 0)"/>
    <use xlink:href="#DejaVuSans-Bold-20" transform="translate(462.939453 0)"/>
    <use xlink:href="#DejaVuSans-Bold-76" transform="translate(497.753906 0)"/>
    <use xlink:href="#DejaVuSans-Bold-73" transform="translate(562.939453 0)"/>
    <use xlink:href="#DejaVuSans-Bold-20" transform="translate(622.460938 0)"/>
    <use xlink:href="#DejaVuSans-Bold-52" transform="translate(657.275391 0)"/>
    <use xlink:href="#DejaVuSans-Bold-75" transform="translate(734.277344 0)"/>
    <use xlink:href="#DejaVuSans-Bold-6e" transform="translate(805.46875 0)"/>
    <use xlink:href="#DejaVuSans-Bold-20" transform="translate(876.660156 0)"/>
    <use xlink:href="#DejaVuSans-Bold-30" transform="translate(911.474609 0)"/>
    <use xlink:href="#DejaVuSans-Bold-31" transform="translate(981.054688 0)"/>
    <use xlink:href="#DejaVuSans-Bold-36" transform="translate(1050.634766 0)"/>
    <use xlink:href="#DejaVuSans-Bold-3a" transform="translate(1120.214844 0)"/>
    <use xlink:href="#DejaVuSans-Bold-20" transform="translate(1160.205078 0)"/>
    <use xlink:href="#DejaVuSans-Bold-4d" transform="translate(1195.019531 0)"/>
    <use xlink:href="#DejaVuSans-Bold-65" transform="translate(1294.53125 0)"/>
    <use xlink:href="#DejaVuSans-Bold-74" transform="translate(1362.353516 0)"/>
    <use xlink:href="#DejaVuSans-Bold-68" transform="translate(1410.15625 0)"/>
    <use xlink:href="#DejaVuSans-Bold-6f" transform="translate(1481.347656 0)"/>
    <use xlink:href="#DejaVuSans-Bold-64" transform="translate(1550.048828 0)"/>
    <use xlink:href="#DejaVuSans-Bold-6f" transform="translate(1621.630859 0)"/>
    <use xlink:href="#DejaVuSans-Bold-6c" transform="translate(1690.332031 0)"/>
    <use xlink:href="#DejaVuSans-Bold-6f" transform="translate(1724.609375 0)"/>
    <use xlink:href="#DejaVuSans-Bold-67" transform="translate(1793.310547 0)"/>
    <use xlink:href="#DejaVuSans-Bold-79" transform="translate(1864.892578 0)"/>
    <use xlink:href="#DejaVuSans-Bold-20" transform="translate(1930.078125 0)"/>
    <use xlink:href="#DejaVuSans-Bold-45" transform="translate(1964.892578 0)"/>
    <use xlink:href="#DejaVuSans-Bold-76" transform="translate(2033.203125 0)"/>
    <use xlink:href="#DejaVuSans-Bold-6f" transform="translate(2098.388672 0)"/>
    <use xlink:href="#DejaVuSans-Bold-6c" transform="translate(2167.089844 0)"/>
    <use xlink:href="#DejaVuSans-Bold-75" transform="translate(2201.367188 0)"/>
    <use xlink:href="#DejaVuSans-Bold-74" transform="translate(2272.558594 0)"/>
    <use xlink:href="#DejaVuSans-Bold-69" transform="translate(2320.361328 0)"/>
    <use xlink:href="#DejaVuSans-Bold-6f" transform="translate(2354.638672 0)"/>
    <use xlink:href="#DejaVuSans-Bold-6e" transform="translate(2423.339844 0)"/>
   </g>
  </g>
 </g>
 <defs>
  <clipPath id="pc68e492a48">
   <rect x="45.716875" y="82.176" width="447.91" height="320.824"/>
  </clipPath>
  <clipPath id="p8cc769c7fb">
   <rect x="544.316875" y="82.176" width="447.91" height="320.824"/>
  </clipPath>
 </defs>
</svg>
