<?xml version="1.0" encoding="utf-8" standalone="no"?>
<!DOCTYPE svg PUBLIC "-//W3C//DTD SVG 1.1//EN"
  "http://www.w3.org/Graphics/SVG/1.1/DTD/svg11.dtd">
<svg xmlns:xlink="http://www.w3.org/1999/xlink" width="858.679481pt" height="733.116125pt" viewBox="0 0 858.679481 733.116125" xmlns="http://www.w3.org/2000/svg" version="1.1">
 <metadata>
  <rdf:RDF xmlns:dc="http://purl.org/dc/elements/1.1/" xmlns:cc="http://creativecommons.org/ns#" xmlns:rdf="http://www.w3.org/1999/02/22-rdf-syntax-ns#">
   <cc:Work>
    <dc:type rdf:resource="http://purl.org/dc/dcmitype/StillImage"/>
    <dc:date>2025-12-20T18:24:34.447146</dc:date>
    <dc:format>image/svg+xml</dc:format>
    <dc:creator>
     <cc:Agent>
      <dc:title>Matplotlib v3.10.7, https://matplotlib.org/</dc:title>
     </cc:Agent>
    </dc:creator>
   </cc:Work>
  </rdf:RDF>
 </metadata>
 <defs>
  <style type="text/css">*{stroke-linejoin: round; stroke-linecap: butt}</style>
 </defs>
 <g id="figure_1">
  <g id="patch_1">
   <path d="M 0 733.116125 
L 858.679481 733.116125 
L 858.679481 0 
L 0 0 
z
" style="fill: #ffffff"/>
  </g>
  <g id="axes_1">
   <g id="patch_2">
    <path d="M 669.492 394.770125 
C 669.492 351.284431 660.926266 308.22158 644.285012 268.046037 
C 627.643757 227.870494 603.250611 191.363572 572.501582 160.614543 
C 541.752553 129.865514 505.245631 105.472368 465.070088 88.831113 
C 424.894545 72.189859 381.831694 63.624125 338.346 63.624125 
C 294.860306 63.624125 251.797455 72.189859 211.621912 88.831113 
C 171.446369 105.472368 134.939447 129.865514 104.190418 160.614543 
C 73.441389 191.363572 49.048243 227.870494 32.406988 268.046037 
C 15.765734 308.22158 7.2 351.284431 7.2 394.770125 
C 7.2 438.255819 15.765734 481.31867 32.406988 521.494213 
C 49.048243 561.669756 73.441389 598.176678 104.190418 628.925707 
C 134.939447 659.674736 171.446369 684.067882 211.621912 700.709137 
C 251.797455 717.350391 294.860306 725.916125 338.346 725.916125 
C 381.831694 725.916125 424.894545 717.350391 465.070088 700.709137 
C 505.245631 684.067882 541.752553 659.674736 572.501582 628.925707 
C 603.250611 598.176678 627.643757 561.669756 644.285012 521.494213 
C 660.926266 481.31867 669.492 438.255819 669.492 394.770125 
M 338.346 394.770125 
C 338.346 394.770125 338.346 394.770125 338.346 394.770125 
C 338.346 394.770125 338.346 394.770125 338.346 394.770125 
C 338.346 394.770125 338.346 394.770125 338.346 394.770125 
C 338.346 394.770125 338.346 394.770125 338.346 394.770125 
C 338.346 394.770125 338.346 394.770125 338.346 394.770125 
C 338.346 394.770125 338.346 394.770125 338.346 394.770125 
C 338.346 394.770125 338.346 394.770125 338.346 394.770125 
C 338.346 394.770125 338.346 394.770125 338.346 394.770125 
C 338.346 394.770125 338.346 394.770125 338.346 394.770125 
C 338.346 394.770125 338.346 394.770125 338.346 394.770125 
C 338.346 394.770125 338.346 394.770125 338.346 394.770125 
C 338.346 394.770125 338.346 394.770125 338.346 394.770125 
C 338.346 394.770125 338.346 394.770125 338.346 394.770125 
C 338.346 394.770125 338.346 394.770125 338.346 394.770125 
C 338.346 394.770125 338.346 394.770125 338.346 394.770125 
C 338.346 394.770125 338.346 394.770125 338.346 394.770125 
z
" style="fill: #ffffff"/>
   </g>
   <g id="patch_3">
    <path d="M 338.346 394.770125 
C 338.346 394.770125 338.346 394.770125 338.346 394.770125 
C 338.346 394.770125 338.346 394.770125 338.346 394.770125 
L 442.273591 362.996272 
C 445.42184 373.293732 447.022225 384.002155 447.022225 394.770125 
C 447.022225 405.538095 445.42184 416.246518 442.273591 426.543978 
z
" clip-path="url(#pdc2bf10d9c)" style="fill: #7c3aed; opacity: 0.7; stroke: #000000; stroke-width: 1.5; stroke-linejoin: miter"/>
   </g>
   <g id="patch_4">
    <path d="M 338.346 394.770125 
C 338.346 394.770125 338.346 394.770125 338.346 394.770125 
C 338.346 394.770125 338.346 394.770125 338.346 394.770125 
L 376.199424 336.480964 
C 381.97489 340.231596 387.160983 344.819863 391.58751 350.095193 
C 396.014038 355.370523 399.632043 361.274572 402.322795 367.613587 
z
" clip-path="url(#pdc2bf10d9c)" style="fill: #1a1a1a; opacity: 0.7; stroke: #000000; stroke-width: 1.5; stroke-linejoin: miter"/>
   </g>
   <g id="patch_5">
    <path d="M 338.346 394.770125 
C 338.346 394.770125 338.346 394.770125 338.346 394.770125 
C 338.346 394.770125 338.346 394.770125 338.346 394.770125 
L 329.967314 326.531207 
C 336.728633 325.701021 343.575948 325.880324 350.284552 327.063232 
C 356.993156 328.24614 363.488853 330.41957 369.558474 333.512196 
z
" clip-path="url(#pdc2bf10d9c)" style="fill: #4285f4; opacity: 0.7; stroke: #000000; stroke-width: 1.5; stroke-linejoin: miter"/>
   </g>
   <g id="patch_6">
    <path d="M 338.346 394.770125 
C 338.346 394.770125 338.346 394.770125 338.346 394.770125 
C 338.346 394.770125 338.346 394.770125 338.346 394.770125 
L 292.6374 352.146166 
C 296.860711 347.617219 301.73378 343.741005 307.096688 340.644729 
C 312.459596 337.548452 318.25303 335.266358 324.286869 333.873337 
z
" clip-path="url(#pdc2bf10d9c)" style="fill: #10a37f; opacity: 0.7; stroke: #000000; stroke-width: 1.5; stroke-linejoin: miter"/>
   </g>
   <g id="patch_7">
    <path d="M 338.346 394.770125 
C 338.346 394.770125 338.346 394.770125 338.346 394.770125 
C 338.346 394.770125 338.346 394.770125 338.346 394.770125 
L 278.319947 391.624293 
C 278.631646 385.67673 279.825575 379.808383 281.862553 374.211831 
C 283.899531 368.61528 286.757029 363.352423 290.341274 358.595969 
z
" clip-path="url(#pdc2bf10d9c)" style="fill: #4d96ff; opacity: 0.7; stroke: #000000; stroke-width: 1.5; stroke-linejoin: miter"/>
   </g>
   <g id="patch_8">
    <path d="M 338.346 394.770125 
C 338.346 394.770125 338.346 394.770125 338.346 394.770125 
C 338.346 394.770125 338.346 394.770125 338.346 394.770125 
L 290.943399 430.490547 
C 287.404111 425.793754 284.582454 420.596909 282.571026 415.070555 
C 280.559598 409.544202 279.380645 403.749462 279.072856 397.876499 
z
" clip-path="url(#pdc2bf10d9c)" style="fill: #ff6b6b; opacity: 0.7; stroke: #000000; stroke-width: 1.5; stroke-linejoin: miter"/>
   </g>
   <g id="patch_9">
    <path d="M 338.346 394.770125 
C 338.346 394.770125 338.346 394.770125 338.346 394.770125 
C 338.346 394.770125 338.346 394.770125 338.346 394.770125 
L 325.280928 451.361169 
C 319.673716 450.066642 314.28991 447.945905 309.30619 445.068552 
C 304.322469 442.1912 299.793953 438.589056 295.869254 434.380331 
z
" clip-path="url(#pdc2bf10d9c)" style="fill: #6bcb77; opacity: 0.7; stroke: #000000; stroke-width: 1.5; stroke-linejoin: miter"/>
   </g>
   <g id="patch_10">
    <path d="M 338.346 394.770125 
C 338.346 394.770125 338.346 394.770125 338.346 394.770125 
C 338.346 394.770125 338.346 394.770125 338.346 394.770125 
L 364.563604 446.22507 
C 359.465292 448.82279 354.009089 450.64841 348.374049 451.64202 
C 342.73901 452.635629 336.987457 452.786239 331.308139 452.088906 
z
" clip-path="url(#pdc2bf10d9c)" style="fill: #ffd93d; opacity: 0.7; stroke: #000000; stroke-width: 1.5; stroke-linejoin: miter"/>
   </g>
   <g id="patch_11">
    <path d="M 338.346 394.770125 
C 338.346 394.770125 338.346 394.770125 338.346 394.770125 
C 338.346 394.770125 338.346 394.770125 338.346 394.770125 
L 390.65383 416.973482 
C 388.453854 422.1563 385.49575 426.983487 381.876593 431.29663 
C 378.257437 435.609773 374.017255 439.361169 369.295197 442.427709 
z
" clip-path="url(#pdc2bf10d9c)" style="fill: #9b59b6; opacity: 0.7; stroke: #000000; stroke-width: 1.5; stroke-linejoin: miter"/>
   </g>
   <g id="patch_12">
    <path d="M 338.346 463.758875 
C 356.64203 463.758875 374.191166 456.489785 387.128413 443.552538 
C 400.06566 430.615291 407.33475 413.066155 407.33475 394.770125 
C 407.33475 376.474095 400.06566 358.924959 387.128413 345.987712 
C 374.191166 333.050465 356.64203 325.781375 338.346 325.781375 
C 320.04997 325.781375 302.500834 333.050465 289.563587 345.987712 
C 276.62634 358.924959 269.35725 376.474095 269.35725 394.770125 
C 269.35725 413.066155 276.62634 430.615291 289.563587 443.552538 
C 302.500834 456.489785 320.04997 463.758875 338.346 463.758875 
L 338.346 463.758875 
z
" clip-path="url(#pdc2bf10d9c)" style="fill: none; opacity: 0.3; stroke-dasharray: 1,1.65; stroke-dashoffset: 0; stroke: #808080; stroke-linejoin: miter"/>
   </g>
   <g id="patch_13">
    <path d="M 338.346 532.747625 
C 374.938061 532.747625 410.036332 518.209445 435.910826 492.334951 
C 461.78532 466.460457 476.3235 431.362186 476.3235 394.770125 
C 476.3235 358.178064 461.78532 323.079793 435.910826 297.205299 
C 410.036332 271.330805 374.938061 256.792625 338.346 256.792625 
C 301.753939 256.792625 266.655668 271.330805 240.781174 297.205299 
C 214.90668 323.079793 200.3685 358.178064 200.3685 394.770125 
C 200.3685 431.362186 214.90668 466.460457 240.781174 492.334951 
C 266.655668 518.209445 301.753939 532.747625 338.346 532.747625 
L 338.346 532.747625 
z
" clip-path="url(#pdc2bf10d9c)" style="fill: none; opacity: 0.3; stroke-dasharray: 1,1.65; stroke-dashoffset: 0; stroke: #808080; stroke-linejoin: miter"/>
   </g>
   <g id="patch_14">
    <path d="M 338.346 601.736375 
C 393.234091 601.736375 445.881497 579.929105 484.693239 541.117364 
C 523.50498 502.305622 545.31225 449.658216 545.31225 394.770125 
C 545.31225 339.882034 523.50498 287.234628 484.693239 248.422886 
C 445.881497 209.611145 393.234091 187.803875 338.346 187.803875 
C 283.457909 187.803875 230.810503 209.611145 191.998761 248.422886 
C 153.18702 287.234628 131.37975 339.882034 131.37975 394.770125 
C 131.37975 449.658216 153.18702 502.305622 191.998761 541.117364 
C 230.810503 579.929105 283.457909 601.736375 338.346 601.736375 
L 338.346 601.736375 
z
" clip-path="url(#pdc2bf10d9c)" style="fill: none; opacity: 0.3; stroke-dasharray: 1,1.65; stroke-dashoffset: 0; stroke: #808080; stroke-linejoin: miter"/>
   </g>
   <g id="patch_15">
    <path d="M 338.346 670.725125 
C 411.530121 670.725125 481.726663 641.648765 533.475652 589.899777 
C 585.22464 538.150788 614.301 467.954246 614.301 394.770125 
C 614.301 321.586004 585.22464 251.389462 533.475652 199.640473 
C 481.726663 147.891485 411.530121 118.815125 338.346 118.815125 
C 265.161879 118.815125 194.965337 147.891485 143.216348 199.640473 
C 91.46736 251.389462 62.391 321.586004 62.391 394.770125 
C 62.391 467.954246 91.46736 538.150788 143.216348 589.899777 
C 194.965337 641.648765 265.161879 670.725125 338.346 670.725125 
L 338.346 670.725125 
z
" clip-path="url(#pdc2bf10d9c)" style="fill: none; opacity: 0.3; stroke-dasharray: 1,1.65; stroke-dashoffset: 0; stroke: #808080; stroke-linejoin: miter"/>
   </g>
   <g id="matplotlib.axis_1">
    <g id="xtick_1">
     <g id="line2d_1">
      <path d="M 338.346 394.770125 
L 669.492 394.770125 
" clip-path="url(#pdc2bf10d9c)" style="fill: none; stroke: #b0b0b0; stroke-opacity: 0.3; stroke-width: 0.8; stroke-linecap: square"/>
     </g>
    </g>
    <g id="xtick_2">
     <g id="line2d_2">
      <path d="M 338.346 394.770125 
L 572.501582 160.614543 
" clip-path="url(#pdc2bf10d9c)" style="fill: none; stroke: #b0b0b0; stroke-opacity: 0.3; stroke-width: 0.8; stroke-linecap: square"/>
     </g>
    </g>
    <g id="xtick_3">
     <g id="line2d_3">
      <path d="M 338.346 394.770125 
L 338.346 63.624125 
" clip-path="url(#pdc2bf10d9c)" style="fill: none; stroke: #b0b0b0; stroke-opacity: 0.3; stroke-width: 0.8; stroke-linecap: square"/>
     </g>
    </g>
    <g id="xtick_4">
     <g id="line2d_4">
      <path d="M 338.346 394.770125 
L 104.190418 160.614543 
" clip-path="url(#pdc2bf10d9c)" style="fill: none; stroke: #b0b0b0; stroke-opacity: 0.3; stroke-width: 0.8; stroke-linecap: square"/>
     </g>
    </g>
    <g id="xtick_5">
     <g id="line2d_5">
      <path d="M 338.346 394.770125 
L 7.2 394.770125 
" clip-path="url(#pdc2bf10d9c)" style="fill: none; stroke: #b0b0b0; stroke-opacity: 0.3; stroke-width: 0.8; stroke-linecap: square"/>
     </g>
    </g>
    <g id="xtick_6">
     <g id="line2d_6">
      <path d="M 338.346 394.770125 
L 104.190418 628.925707 
" clip-path="url(#pdc2bf10d9c)" style="fill: none; stroke: #b0b0b0; stroke-opacity: 0.3; stroke-width: 0.8; stroke-linecap: square"/>
     </g>
    </g>
    <g id="xtick_7">
     <g id="line2d_7">
      <path d="M 338.346 394.770125 
L 338.346 725.916125 
" clip-path="url(#pdc2bf10d9c)" style="fill: none; stroke: #b0b0b0; stroke-opacity: 0.3; stroke-width: 0.8; stroke-linecap: square"/>
     </g>
    </g>
    <g id="xtick_8">
     <g id="line2d_8">
      <path d="M 338.346 394.770125 
L 572.501582 628.925707 
" clip-path="url(#pdc2bf10d9c)" style="fill: none; stroke: #b0b0b0; stroke-opacity: 0.3; stroke-width: 0.8; stroke-linecap: square"/>
     </g>
    </g>
   </g>
   <g id="matplotlib.axis_2">
    <g id="ytick_1">
     <g id="line2d_9">
      <path d="M 393.537 394.770125 
C 393.537 387.522509 392.109378 380.345368 389.335835 373.649444 
C 386.562293 366.95352 382.496769 360.869033 377.37193 355.744195 
C 372.247092 350.619356 366.162605 346.553832 359.466681 343.78029 
C 352.770757 341.006747 345.593616 339.579125 338.346 339.579125 
C 331.098384 339.579125 323.921243 341.006747 317.225319 343.78029 
C 310.529395 346.553832 304.444908 350.619356 299.32007 355.744195 
C 294.195231 360.869033 290.129707 366.95352 287.356165 373.649444 
C 284.582622 380.345368 283.155 387.522509 283.155 394.770125 
C 283.155 402.017741 284.582622 409.194882 287.356165 415.890806 
C 290.129707 422.58673 294.195231 428.671217 299.32007 433.796055 
C 304.444908 438.920894 310.529395 442.986418 317.225319 445.75996 
C 323.921243 448.533503 331.098384 449.961125 338.346 449.961125 
C 345.593616 449.961125 352.770757 448.533503 359.466681 445.75996 
C 366.162605 442.986418 372.247092 438.920894 377.37193 433.796055 
C 382.496769 428.671217 386.562293 422.58673 389.335835 415.890806 
C 392.109378 409.194882 393.537 402.017741 393.537 394.770125 
" clip-path="url(#pdc2bf10d9c)" style="fill: none; stroke: #b0b0b0; stroke-opacity: 0.3; stroke-width: 0.8; stroke-linecap: square"/>
     </g>
    </g>
    <g id="ytick_2">
     <g id="line2d_10">
      <path d="M 448.728 394.770125 
C 448.728 380.274894 445.872755 365.92061 440.325671 352.528762 
C 434.778586 339.136915 426.647537 326.967941 416.397861 316.718264 
C 406.148184 306.468588 393.97921 298.337539 380.587363 292.790454 
C 367.195515 287.24337 352.841231 284.388125 338.346 284.388125 
C 323.850769 284.388125 309.496485 287.24337 296.104637 292.790454 
C 282.71279 298.337539 270.543816 306.468588 260.294139 316.718264 
C 250.044463 326.967941 241.913414 339.136915 236.366329 352.528762 
C 230.819245 365.92061 227.964 380.274894 227.964 394.770125 
C 227.964 409.265356 230.819245 423.61964 236.366329 437.011488 
C 241.913414 450.403335 250.044463 462.572309 260.294139 472.821986 
C 270.543816 483.071662 282.71279 491.202711 296.104637 496.749796 
C 309.496485 502.29688 323.850769 505.152125 338.346 505.152125 
C 352.841231 505.152125 367.195515 502.29688 380.587363 496.749796 
C 393.97921 491.202711 406.148184 483.071662 416.397861 472.821986 
C 426.647537 462.572309 434.778586 450.403335 440.325671 437.011488 
C 445.872755 423.61964 448.728 409.265356 448.728 394.770125 
" clip-path="url(#pdc2bf10d9c)" style="fill: none; stroke: #b0b0b0; stroke-opacity: 0.3; stroke-width: 0.8; stroke-linecap: square"/>
     </g>
    </g>
    <g id="ytick_3">
     <g id="line2d_11">
      <path d="M 503.919 394.770125 
C 503.919 373.027278 499.636133 351.495853 491.315506 331.408081 
C 482.994878 311.32031 470.798306 293.066849 455.423791 277.692334 
C 440.049276 262.317819 421.795815 250.121247 401.708044 241.800619 
C 381.620272 233.479992 360.088847 229.197125 338.346 229.197125 
C 316.603153 229.197125 295.071728 233.479992 274.983956 241.800619 
C 254.896185 250.121247 236.642724 262.317819 221.268209 277.692334 
C 205.893694 293.066849 193.697122 311.32031 185.376494 331.408081 
C 177.055867 351.495853 172.773 373.027278 172.773 394.770125 
C 172.773 416.512972 177.055867 438.044397 185.376494 458.132169 
C 193.697122 478.21994 205.893694 496.473401 221.268209 511.847916 
C 236.642724 527.222431 254.896185 539.419003 274.983956 547.739631 
C 295.071728 556.060258 316.603153 560.343125 338.346 560.343125 
C 360.088847 560.343125 381.620272 556.060258 401.708044 547.739631 
C 421.795815 539.419003 440.049276 527.222431 455.423791 511.847916 
C 470.798306 496.473401 482.994878 478.21994 491.315506 458.132169 
C 499.636133 438.044397 503.919 416.512972 503.919 394.770125 
" clip-path="url(#pdc2bf10d9c)" style="fill: none; stroke: #b0b0b0; stroke-opacity: 0.3; stroke-width: 0.8; stroke-linecap: square"/>
     </g>
    </g>
    <g id="ytick_4">
     <g id="line2d_12">
      <path d="M 559.11 394.770125 
C 559.11 365.779662 553.399511 337.071095 542.305341 310.2874 
C 531.211171 283.503704 514.949074 259.165756 494.449721 238.666404 
C 473.950369 218.167051 449.612421 201.904954 422.828725 190.810784 
C 396.04503 179.716614 367.336463 174.006125 338.346 174.006125 
C 309.355537 174.006125 280.64697 179.716614 253.863275 190.810784 
C 227.079579 201.904954 202.741631 218.167051 182.242279 238.666404 
C 161.742926 259.165756 145.480829 283.503704 134.386659 310.2874 
C 123.292489 337.071095 117.582 365.779662 117.582 394.770125 
C 117.582 423.760588 123.292489 452.469155 134.386659 479.25285 
C 145.480829 506.036546 161.742926 530.374494 182.242279 550.873846 
C 202.741631 571.373199 227.079579 587.635296 253.863275 598.729466 
C 280.64697 609.823636 309.355537 615.534125 338.346 615.534125 
C 367.336463 615.534125 396.04503 609.823636 422.828725 598.729466 
C 449.612421 587.635296 473.950369 571.373199 494.449721 550.873846 
C 514.949074 530.374494 531.211171 506.036546 542.305341 479.25285 
C 553.399511 452.469155 559.11 423.760588 559.11 394.770125 
" clip-path="url(#pdc2bf10d9c)" style="fill: none; stroke: #b0b0b0; stroke-opacity: 0.3; stroke-width: 0.8; stroke-linecap: square"/>
     </g>
    </g>
    <g id="ytick_5">
     <g id="line2d_13">
      <path d="M 614.301 394.770125 
C 614.301 358.532046 607.162889 322.646338 593.295176 289.166718 
C 579.427464 255.687099 559.099843 225.264664 533.475652 199.640473 
C 507.851461 174.016282 477.429026 153.688661 443.949407 139.820949 
C 410.469787 125.953236 374.584079 118.815125 338.346 118.815125 
C 302.107921 118.815125 266.222213 125.953236 232.742593 139.820949 
C 199.262974 153.688661 168.840539 174.016282 143.216348 199.640473 
C 117.592157 225.264664 97.264536 255.687099 83.396824 289.166718 
C 69.529111 322.646338 62.391 358.532046 62.391 394.770125 
C 62.391 431.008204 69.529111 466.893912 83.396824 500.373532 
C 97.264536 533.853151 117.592157 564.275586 143.216348 589.899777 
C 168.840539 615.523968 199.262974 635.851589 232.742593 649.719301 
C 266.222213 663.587014 302.107921 670.725125 338.346 670.725125 
C 374.584079 670.725125 410.469787 663.587014 443.949407 649.719301 
C 477.429026 635.851589 507.851461 615.523968 533.475652 589.899777 
C 559.099843 564.275586 579.427464 533.853151 593.295176 500.373532 
C 607.162889 466.893912 614.301 431.008204 614.301 394.770125 
" clip-path="url(#pdc2bf10d9c)" style="fill: none; stroke: #b0b0b0; stroke-opacity: 0.3; stroke-width: 0.8; stroke-linecap: square"/>
     </g>
    </g>
    <g id="ytick_6">
     <g id="line2d_14">
      <path d="M 669.492 394.770125 
C 669.492 351.284431 660.926266 308.22158 644.285012 268.046037 
C 627.643757 227.870494 603.250611 191.363572 572.501582 160.614543 
C 541.752553 129.865514 505.245631 105.472368 465.070088 88.831113 
C 424.894545 72.189859 381.831694 63.624125 338.346 63.624125 
C 294.860306 63.624125 251.797455 72.189859 211.621912 88.831113 
C 171.446369 105.472368 134.939447 129.865514 104.190418 160.614543 
C 73.441389 191.363572 49.048243 227.870494 32.406988 268.046037 
C 15.765734 308.22158 7.2 351.284431 7.2 394.770125 
C 7.2 438.255819 15.765734 481.31867 32.406988 521.494213 
C 49.048243 561.669756 73.441389 598.176678 104.190418 628.925707 
C 134.939447 659.674736 171.446369 684.067882 211.621912 700.709137 
C 251.797455 717.350391 294.860306 725.916125 338.346 725.916125 
C 381.831694 725.916125 424.894545 717.350391 465.070088 700.709137 
C 505.245631 684.067882 541.752553 659.674736 572.501582 628.925707 
C 603.250611 598.176678 627.643757 561.669756 644.285012 521.494213 
C 660.926266 481.31867 669.492 438.255819 669.492 394.770125 
" clip-path="url(#pdc2bf10d9c)" style="fill: none; stroke: #b0b0b0; stroke-opacity: 0.3; stroke-width: 0.8; stroke-linecap: square"/>
     </g>
    </g>
   </g>
   <g id="line2d_15">
    <path d="M 476.3235 394.770125 
L 476.045707 386.019051 
L 475.213445 377.303215 
L 473.830067 368.657711 
L 471.901142 360.117354 
L 469.434438 351.71653 
L 466.439886 343.489069 
L 462.929546 335.468098 
L 458.917552 327.685915 
L 454.420059 320.173857 
L 449.455177 312.962171 
L 444.042897 306.079898 
L 438.205013 299.554748 
L 431.965032 293.412998 
L 425.348081 287.679376 
L 418.380802 282.376972 
L 411.091252 277.527134 
L 403.508782 273.149394 
L 395.663925 269.261376 
L 387.588269 265.878739 
L 379.314331 263.015101 
L 370.875429 260.681994 
L 362.305541 258.888813 
L 353.639178 257.642778 
L 344.911234 256.948907 
L 336.156854 256.809993 
L 327.411289 257.226595 
L 318.709754 258.197037 
L 310.087288 259.71741 
L 301.578609 261.781594 
L 293.21798 264.381275 
L 285.039065 267.505985 
L 277.074799 271.143144 
L 269.35725 275.278105 
L 261.917494 279.894218 
L 254.785489 284.972896 
L 247.989953 290.493688 
L 241.558249 296.434365 
L 235.516274 302.771005 
L 229.888359 309.478093 
L 224.697164 316.528623 
L 219.963594 323.894203 
L 215.706707 331.545175 
L 211.943645 339.450732 
L 208.689561 347.579041 
L 205.957558 355.897371 
L 203.758637 364.372228 
L 202.101651 372.969487 
L 200.993273 381.65453 
L 200.437966 390.392384 
L 200.437966 399.147866 
L 200.993273 407.88572 
L 202.101651 416.570763 
L 203.758637 425.168022 
L 205.957558 433.642879 
L 208.689561 441.961209 
L 211.943645 450.089518 
L 215.706707 457.995075 
L 219.963594 465.646047 
L 224.697164 473.011627 
L 229.888359 480.062157 
L 235.516274 486.769245 
L 241.558249 493.105885 
L 247.989953 499.046562 
L 254.785489 504.567354 
L 261.917494 509.646032 
L 269.35725 514.262145 
L 277.074799 518.397106 
L 285.039065 522.034265 
L 293.21798 525.158975 
L 301.578609 527.758656 
L 310.087288 529.82284 
L 318.709754 531.343213 
L 327.411289 532.313655 
L 336.156854 532.730257 
L 344.911234 532.591343 
L 353.639178 531.897472 
L 362.305541 530.651437 
L 370.875429 528.858256 
L 379.314331 526.525149 
L 387.588269 523.661511 
L 395.663925 520.278874 
L 403.508782 516.390856 
L 411.091252 512.013116 
L 418.380802 507.163278 
L 425.348081 501.860874 
L 431.965032 496.127252 
L 438.205013 489.985502 
L 444.042897 483.460352 
L 449.455177 476.578079 
L 454.420059 469.366393 
L 458.917552 461.854335 
L 462.929546 454.072152 
L 466.439886 446.051181 
L 469.434438 437.82372 
L 471.901142 429.422896 
L 473.830067 420.882539 
L 475.213445 412.237035 
L 476.045707 403.521199 
L 476.3235 394.770125 
" clip-path="url(#pdc2bf10d9c)" style="fill: none; stroke-dasharray: 7.4,3.2; stroke-dashoffset: 0; stroke: #ff0000; stroke-opacity: 0.7; stroke-width: 2"/>
   </g>
   <g id="patch_16">
    <path d="M 669.492 394.770125 
C 669.492 351.284431 660.926266 308.22158 644.285012 268.046037 
C 627.643757 227.870494 603.250611 191.363572 572.501582 160.614543 
C 541.752553 129.865514 505.245631 105.472368 465.070088 88.831113 
C 424.894545 72.189859 381.831694 63.624125 338.346 63.624125 
C 294.860306 63.624125 251.797455 72.189859 211.621912 88.831113 
C 171.446369 105.472368 134.939447 129.865514 104.190418 160.614543 
C 73.441389 191.363572 49.048243 227.870494 32.406988 268.046037 
C 15.765734 308.22158 7.2 351.284431 7.2 394.770125 
C 7.2 438.255819 15.765734 481.31867 32.406988 521.494213 
C 49.048243 561.669756 73.441389 598.176678 104.190418 628.925707 
C 134.939447 659.674736 171.446369 684.067882 211.621912 700.709137 
C 251.797455 717.350391 294.860306 725.916125 338.346 725.916125 
C 381.831694 725.916125 424.894545 717.350391 465.070088 700.709137 
C 505.245631 684.067882 541.752553 659.674736 572.501582 628.925707 
C 603.250611 598.176678 627.643757 561.669756 644.285012 521.494213 
C 660.926266 481.31867 669.492 438.255819 669.492 394.770125 
" style="fill: none; stroke: #000000; stroke-width: 0.8; stroke-linejoin: miter; stroke-linecap: square"/>
   </g>
   <g id="text_1">
    <!-- claude -->
    <g transform="translate(477.173303 378.046297) rotate(-270) scale(0.09 -0.09)">
     <defs>
      <path id="DejaVuSans-Bold-63" d="M 3366 3391 
L 3366 2478 
Q 3138 2634 2908 2709 
Q 2678 2784 2431 2784 
Q 1963 2784 1702 2511 
Q 1441 2238 1441 1747 
Q 1441 1256 1702 982 
Q 1963 709 2431 709 
Q 2694 709 2930 787 
Q 3166 866 3366 1019 
L 3366 103 
Q 3103 6 2833 -42 
Q 2563 -91 2291 -91 
Q 1344 -91 809 395 
Q 275 881 275 1747 
Q 275 2613 809 3098 
Q 1344 3584 2291 3584 
Q 2566 3584 2833 3536 
Q 3100 3488 3366 3391 
z
" transform="scale(0.015625)"/>
      <path id="DejaVuSans-Bold-6c" d="M 538 4863 
L 1656 4863 
L 1656 0 
L 538 0 
L 538 4863 
z
" transform="scale(0.015625)"/>
      <path id="DejaVuSans-Bold-61" d="M 2106 1575 
Q 1756 1575 1579 1456 
Q 1403 1338 1403 1106 
Q 1403 894 1545 773 
Q 1688 653 1941 653 
Q 2256 653 2472 879 
Q 2688 1106 2688 1447 
L 2688 1575 
L 2106 1575 
z
M 3816 1997 
L 3816 0 
L 2688 0 
L 2688 519 
Q 2463 200 2181 54 
Q 1900 -91 1497 -91 
Q 953 -91 614 226 
Q 275 544 275 1050 
Q 275 1666 698 1953 
Q 1122 2241 2028 2241 
L 2688 2241 
L 2688 2328 
Q 2688 2594 2478 2717 
Q 2269 2841 1825 2841 
Q 1466 2841 1156 2769 
Q 847 2697 581 2553 
L 581 3406 
Q 941 3494 1303 3539 
Q 1666 3584 2028 3584 
Q 2975 3584 3395 3211 
Q 3816 2838 3816 1997 
z
" transform="scale(0.015625)"/>
      <path id="DejaVuSans-Bold-75" d="M 500 1363 
L 500 3500 
L 1625 3500 
L 1625 3150 
Q 1625 2866 1622 2436 
Q 1619 2006 1619 1863 
Q 1619 1441 1641 1255 
Q 1663 1069 1716 984 
Q 1784 875 1895 815 
Q 2006 756 2150 756 
Q 2500 756 2700 1025 
Q 2900 1294 2900 1772 
L 2900 3500 
L 4019 3500 
L 4019 0 
L 2900 0 
L 2900 506 
Q 2647 200 2364 54 
Q 2081 -91 1741 -91 
Q 1134 -91 817 281 
Q 500 653 500 1363 
z
" transform="scale(0.015625)"/>
      <path id="DejaVuSans-Bold-64" d="M 2919 2988 
L 2919 4863 
L 4044 4863 
L 4044 0 
L 2919 0 
L 2919 506 
Q 2688 197 2409 53 
Q 2131 -91 1766 -91 
Q 1119 -91 703 423 
Q 288 938 288 1747 
Q 288 2556 703 3070 
Q 1119 3584 1766 3584 
Q 2128 3584 2408 3439 
Q 2688 3294 2919 2988 
z
M 2181 722 
Q 2541 722 2730 984 
Q 2919 1247 2919 1747 
Q 2919 2247 2730 2509 
Q 2541 2772 2181 2772 
Q 1825 2772 1636 2509 
Q 1447 2247 1447 1747 
Q 1447 1247 1636 984 
Q 1825 722 2181 722 
z
" transform="scale(0.015625)"/>
      <path id="DejaVuSans-Bold-65" d="M 4031 1759 
L 4031 1441 
L 1416 1441 
Q 1456 1047 1700 850 
Q 1944 653 2381 653 
Q 2734 653 3104 758 
Q 3475 863 3866 1075 
L 3866 213 
Q 3469 63 3072 -14 
Q 2675 -91 2278 -91 
Q 1328 -91 801 392 
Q 275 875 275 1747 
Q 275 2603 792 3093 
Q 1309 3584 2216 3584 
Q 3041 3584 3536 3087 
Q 4031 2591 4031 1759 
z
M 2881 2131 
Q 2881 2450 2695 2645 
Q 2509 2841 2209 2841 
Q 1884 2841 1681 2658 
Q 1478 2475 1428 2131 
L 2881 2131 
z
" transform="scale(0.015625)"/>
     </defs>
     <use xlink:href="#DejaVuSans-Bold-63"/>
     <use xlink:href="#DejaVuSans-Bold-6c" transform="translate(59.277344 0)"/>
     <use xlink:href="#DejaVuSans-Bold-61" transform="translate(93.554688 0)"/>
     <use xlink:href="#DejaVuSans-Bold-75" transform="translate(161.035156 0)"/>
     <use xlink:href="#DejaVuSans-Bold-64" transform="translate(232.226562 0)"/>
     <use xlink:href="#DejaVuSans-Bold-65" transform="translate(303.808594 0)"/>
    </g>
    <!-- n=60 -->
    <g transform="translate(467.095272 381.533797) rotate(-270) scale(0.09 -0.09)">
     <defs>
      <path id="DejaVuSans-Bold-6e" d="M 4056 2131 
L 4056 0 
L 2931 0 
L 2931 347 
L 2931 1631 
Q 2931 2084 2911 2256 
Q 2891 2428 2841 2509 
Q 2775 2619 2662 2680 
Q 2550 2741 2406 2741 
Q 2056 2741 1856 2470 
Q 1656 2200 1656 1722 
L 1656 0 
L 538 0 
L 538 3500 
L 1656 3500 
L 1656 2988 
Q 1909 3294 2193 3439 
Q 2478 3584 2822 3584 
Q 3428 3584 3742 3212 
Q 4056 2841 4056 2131 
z
" transform="scale(0.015625)"/>
      <path id="DejaVuSans-Bold-3d" d="M 678 3084 
L 4684 3084 
L 4684 2350 
L 678 2350 
L 678 3084 
z
M 678 1663 
L 4684 1663 
L 4684 922 
L 678 922 
L 678 1663 
z
" transform="scale(0.015625)"/>
      <path id="DejaVuSans-Bold-36" d="M 2316 2303 
Q 2000 2303 1842 2098 
Q 1684 1894 1684 1484 
Q 1684 1075 1842 870 
Q 2000 666 2316 666 
Q 2634 666 2792 870 
Q 2950 1075 2950 1484 
Q 2950 1894 2792 2098 
Q 2634 2303 2316 2303 
z
M 3803 4544 
L 3803 3681 
Q 3506 3822 3243 3889 
Q 2981 3956 2731 3956 
Q 2194 3956 1894 3657 
Q 1594 3359 1544 2772 
Q 1750 2925 1990 3001 
Q 2231 3078 2516 3078 
Q 3231 3078 3670 2659 
Q 4109 2241 4109 1563 
Q 4109 813 3618 361 
Q 3128 -91 2303 -91 
Q 1394 -91 895 523 
Q 397 1138 397 2266 
Q 397 3422 980 4083 
Q 1563 4744 2578 4744 
Q 2900 4744 3203 4694 
Q 3506 4644 3803 4544 
z
" transform="scale(0.015625)"/>
      <path id="DejaVuSans-Bold-30" d="M 2944 2338 
Q 2944 3213 2780 3570 
Q 2616 3928 2228 3928 
Q 1841 3928 1675 3570 
Q 1509 3213 1509 2338 
Q 1509 1453 1675 1090 
Q 1841 728 2228 728 
Q 2613 728 2778 1090 
Q 2944 1453 2944 2338 
z
M 4147 2328 
Q 4147 1169 3647 539 
Q 3147 -91 2228 -91 
Q 1306 -91 806 539 
Q 306 1169 306 2328 
Q 306 3491 806 4120 
Q 1306 4750 2228 4750 
Q 3147 4750 3647 4120 
Q 4147 3491 4147 2328 
z
" transform="scale(0.015625)"/>
     </defs>
     <use xlink:href="#DejaVuSans-Bold-6e"/>
     <use xlink:href="#DejaVuSans-Bold-3d" transform="translate(71.191406 0)"/>
     <use xlink:href="#DejaVuSans-Bold-36" transform="translate(154.980469 0)"/>
     <use xlink:href="#DejaVuSans-Bold-30" transform="translate(224.560547 0)"/>
    </g>
   </g>
   <g id="text_2">
    <!-- grok -->
    <g transform="translate(407.303882 321.863792) rotate(-310) scale(0.09 -0.09)">
     <defs>
      <path id="DejaVuSans-Bold-67" d="M 2919 594 
Q 2688 288 2409 144 
Q 2131 0 1766 0 
Q 1125 0 706 504 
Q 288 1009 288 1791 
Q 288 2575 706 3076 
Q 1125 3578 1766 3578 
Q 2131 3578 2409 3434 
Q 2688 3291 2919 2981 
L 2919 3500 
L 4044 3500 
L 4044 353 
Q 4044 -491 3511 -936 
Q 2978 -1381 1966 -1381 
Q 1638 -1381 1331 -1331 
Q 1025 -1281 716 -1178 
L 716 -306 
Q 1009 -475 1290 -558 
Q 1572 -641 1856 -641 
Q 2406 -641 2662 -400 
Q 2919 -159 2919 353 
L 2919 594 
z
M 2181 2772 
Q 1834 2772 1640 2515 
Q 1447 2259 1447 1791 
Q 1447 1309 1634 1061 
Q 1822 813 2181 813 
Q 2531 813 2725 1069 
Q 2919 1325 2919 1791 
Q 2919 2259 2725 2515 
Q 2531 2772 2181 2772 
z
" transform="scale(0.015625)"/>
      <path id="DejaVuSans-Bold-72" d="M 3138 2547 
Q 2991 2616 2845 2648 
Q 2700 2681 2553 2681 
Q 2122 2681 1889 2404 
Q 1656 2128 1656 1613 
L 1656 0 
L 538 0 
L 538 3500 
L 1656 3500 
L 1656 2925 
Q 1872 3269 2151 3426 
Q 2431 3584 2822 3584 
Q 2878 3584 2943 3579 
Q 3009 3575 3134 3559 
L 3138 2547 
z
" transform="scale(0.015625)"/>
      <path id="DejaVuSans-Bold-6f" d="M 2203 2784 
Q 1831 2784 1636 2517 
Q 1441 2250 1441 1747 
Q 1441 1244 1636 976 
Q 1831 709 2203 709 
Q 2569 709 2762 976 
Q 2956 1244 2956 1747 
Q 2956 2250 2762 2517 
Q 2569 2784 2203 2784 
z
M 2203 3584 
Q 3106 3584 3614 3096 
Q 4122 2609 4122 1747 
Q 4122 884 3614 396 
Q 3106 -91 2203 -91 
Q 1297 -91 786 396 
Q 275 884 275 1747 
Q 275 2609 786 3096 
Q 1297 3584 2203 3584 
z
" transform="scale(0.015625)"/>
      <path id="DejaVuSans-Bold-6b" d="M 538 4863 
L 1656 4863 
L 1656 2216 
L 2944 3500 
L 4244 3500 
L 2534 1894 
L 4378 0 
L 3022 0 
L 1656 1459 
L 1656 0 
L 538 0 
L 538 4863 
z
" transform="scale(0.015625)"/>
     </defs>
     <use xlink:href="#DejaVuSans-Bold-67"/>
     <use xlink:href="#DejaVuSans-Bold-72" transform="translate(71.582031 0)"/>
     <use xlink:href="#DejaVuSans-Bold-6f" transform="translate(120.898438 0)"/>
     <use xlink:href="#DejaVuSans-Bold-6b" transform="translate(189.599609 0)"/>
    </g>
    <!-- n=152 -->
    <g transform="translate(396.416699 324.676973) rotate(-310) scale(0.09 -0.09)">
     <defs>
      <path id="DejaVuSans-Bold-31" d="M 750 831 
L 1813 831 
L 1813 3847 
L 722 3622 
L 722 4441 
L 1806 4666 
L 2950 4666 
L 2950 831 
L 4013 831 
L 4013 0 
L 750 0 
L 750 831 
z
" transform="scale(0.015625)"/>
      <path id="DejaVuSans-Bold-35" d="M 678 4666 
L 3669 4666 
L 3669 3781 
L 1638 3781 
L 1638 3059 
Q 1775 3097 1914 3117 
Q 2053 3138 2203 3138 
Q 3056 3138 3531 2711 
Q 4006 2284 4006 1522 
Q 4006 766 3489 337 
Q 2972 -91 2053 -91 
Q 1656 -91 1267 -14 
Q 878 63 494 219 
L 494 1166 
Q 875 947 1217 837 
Q 1559 728 1863 728 
Q 2300 728 2551 942 
Q 2803 1156 2803 1522 
Q 2803 1891 2551 2103 
Q 2300 2316 1863 2316 
Q 1603 2316 1309 2248 
Q 1016 2181 678 2041 
L 678 4666 
z
" transform="scale(0.015625)"/>
      <path id="DejaVuSans-Bold-32" d="M 1844 884 
L 3897 884 
L 3897 0 
L 506 0 
L 506 884 
L 2209 2388 
Q 2438 2594 2547 2791 
Q 2656 2988 2656 3200 
Q 2656 3528 2436 3728 
Q 2216 3928 1850 3928 
Q 1569 3928 1234 3808 
Q 900 3688 519 3450 
L 519 4475 
Q 925 4609 1322 4679 
Q 1719 4750 2100 4750 
Q 2938 4750 3402 4381 
Q 3866 4013 3866 3353 
Q 3866 2972 3669 2642 
Q 3472 2313 2841 1759 
L 1844 884 
z
" transform="scale(0.015625)"/>
     </defs>
     <use xlink:href="#DejaVuSans-Bold-6e"/>
     <use xlink:href="#DejaVuSans-Bold-3d" transform="translate(71.191406 0)"/>
     <use xlink:href="#DejaVuSans-Bold-31" transform="translate(154.980469 0)"/>
     <use xlink:href="#DejaVuSans-Bold-35" transform="translate(224.560547 0)"/>
     <use xlink:href="#DejaVuSans-Bold-32" transform="translate(294.140625 0)"/>
    </g>
   </g>
   <g id="text_3">
    <!-- gemini -->
    <g transform="translate(338.537249 294.33996) rotate(-350) scale(0.09 -0.09)">
     <defs>
      <path id="DejaVuSans-Bold-6d" d="M 3781 2919 
Q 3994 3244 4286 3414 
Q 4578 3584 4928 3584 
Q 5531 3584 5847 3212 
Q 6163 2841 6163 2131 
L 6163 0 
L 5038 0 
L 5038 1825 
Q 5041 1866 5042 1909 
Q 5044 1953 5044 2034 
Q 5044 2406 4934 2573 
Q 4825 2741 4581 2741 
Q 4263 2741 4089 2478 
Q 3916 2216 3909 1719 
L 3909 0 
L 2784 0 
L 2784 1825 
Q 2784 2406 2684 2573 
Q 2584 2741 2328 2741 
Q 2006 2741 1831 2477 
Q 1656 2213 1656 1722 
L 1656 0 
L 531 0 
L 531 3500 
L 1656 3500 
L 1656 2988 
Q 1863 3284 2130 3434 
Q 2397 3584 2719 3584 
Q 3081 3584 3359 3409 
Q 3638 3234 3781 2919 
z
" transform="scale(0.015625)"/>
      <path id="DejaVuSans-Bold-69" d="M 538 3500 
L 1656 3500 
L 1656 0 
L 538 0 
L 538 3500 
z
M 538 4863 
L 1656 4863 
L 1656 3950 
L 538 3950 
L 538 4863 
z
" transform="scale(0.015625)"/>
     </defs>
     <use xlink:href="#DejaVuSans-Bold-67"/>
     <use xlink:href="#DejaVuSans-Bold-65" transform="translate(71.582031 0)"/>
     <use xlink:href="#DejaVuSans-Bold-6d" transform="translate(139.404297 0)"/>
     <use xlink:href="#DejaVuSans-Bold-69" transform="translate(243.603516 0)"/>
     <use xlink:href="#DejaVuSans-Bold-6e" transform="translate(277.880859 0)"/>
     <use xlink:href="#DejaVuSans-Bold-69" transform="translate(349.072266 0)"/>
    </g>
    <!-- n=77 -->
    <g transform="translate(340.728857 305.031298) rotate(-350) scale(0.09 -0.09)">
     <defs>
      <path id="DejaVuSans-Bold-37" d="M 428 4666 
L 3944 4666 
L 3944 3988 
L 2125 0 
L 953 0 
L 2675 3781 
L 428 3781 
L 428 4666 
z
" transform="scale(0.015625)"/>
     </defs>
     <use xlink:href="#DejaVuSans-Bold-6e"/>
     <use xlink:href="#DejaVuSans-Bold-3d" transform="translate(71.191406 0)"/>
     <use xlink:href="#DejaVuSans-Bold-37" transform="translate(154.980469 0)"/>
     <use xlink:href="#DejaVuSans-Bold-37" transform="translate(224.560547 0)"/>
    </g>
   </g>
   <g id="text_4">
    <!-- gpt -->
    <g transform="translate(302.053545 314.723968) rotate(-210) scale(0.09 -0.09)">
     <defs>
      <path id="DejaVuSans-Bold-70" d="M 1656 506 
L 1656 -1331 
L 538 -1331 
L 538 3500 
L 1656 3500 
L 1656 2988 
Q 1888 3294 2169 3439 
Q 2450 3584 2816 3584 
Q 3463 3584 3878 3070 
Q 4294 2556 4294 1747 
Q 4294 938 3878 423 
Q 3463 -91 2816 -91 
Q 2450 -91 2169 54 
Q 1888 200 1656 506 
z
M 2400 2772 
Q 2041 2772 1848 2508 
Q 1656 2244 1656 1747 
Q 1656 1250 1848 986 
Q 2041 722 2400 722 
Q 2759 722 2948 984 
Q 3138 1247 3138 1747 
Q 3138 2247 2948 2509 
Q 2759 2772 2400 2772 
z
" transform="scale(0.015625)"/>
      <path id="DejaVuSans-Bold-74" d="M 1759 4494 
L 1759 3500 
L 2913 3500 
L 2913 2700 
L 1759 2700 
L 1759 1216 
Q 1759 972 1856 886 
Q 1953 800 2241 800 
L 2816 800 
L 2816 0 
L 1856 0 
Q 1194 0 917 276 
Q 641 553 641 1216 
L 641 2700 
L 84 2700 
L 84 3500 
L 641 3500 
L 641 4494 
L 1759 4494 
z
" transform="scale(0.015625)"/>
     </defs>
     <use xlink:href="#DejaVuSans-Bold-67"/>
     <use xlink:href="#DejaVuSans-Bold-70" transform="translate(71.582031 0)"/>
     <use xlink:href="#DejaVuSans-Bold-74" transform="translate(143.164062 0)"/>
    </g>
    <!-- n=120 -->
    <g transform="translate(303.712247 302.048017) rotate(-210) scale(0.09 -0.09)">
     <use xlink:href="#DejaVuSans-Bold-6e"/>
     <use xlink:href="#DejaVuSans-Bold-3d" transform="translate(71.191406 0)"/>
     <use xlink:href="#DejaVuSans-Bold-31" transform="translate(154.980469 0)"/>
     <use xlink:href="#DejaVuSans-Bold-32" transform="translate(224.560547 0)"/>
     <use xlink:href="#DejaVuSans-Bold-30" transform="translate(294.140625 0)"/>
    </g>
   </g>
   <g id="text_5">
    <!-- Qwen -->
    <g transform="translate(263.202742 352.267405) rotate(-250) scale(0.09 -0.09)">
     <defs>
      <path id="DejaVuSans-Bold-51" d="M 2847 -84 
L 2753 -84 
Q 1600 -84 959 553 
Q 319 1191 319 2328 
Q 319 3463 958 4106 
Q 1597 4750 2719 4750 
Q 3853 4750 4486 4112 
Q 5119 3475 5119 2328 
Q 5119 1541 4783 972 
Q 4447 403 3816 116 
L 4756 -934 
L 3609 -934 
L 2847 -84 
z
M 2719 3878 
Q 2169 3878 1866 3472 
Q 1563 3066 1563 2328 
Q 1563 1578 1859 1179 
Q 2156 781 2719 781 
Q 3272 781 3575 1187 
Q 3878 1594 3878 2328 
Q 3878 3066 3575 3472 
Q 3272 3878 2719 3878 
z
" transform="scale(0.015625)"/>
      <path id="DejaVuSans-Bold-77" d="M 225 3500 
L 1313 3500 
L 1900 1088 
L 2491 3500 
L 3425 3500 
L 4013 1113 
L 4603 3500 
L 5691 3500 
L 4769 0 
L 3547 0 
L 2956 2406 
L 2369 0 
L 1147 0 
L 225 3500 
z
" transform="scale(0.015625)"/>
     </defs>
     <use xlink:href="#DejaVuSans-Bold-51"/>
     <use xlink:href="#DejaVuSans-Bold-77" transform="translate(85.009766 0)"/>
     <use xlink:href="#DejaVuSans-Bold-65" transform="translate(177.392578 0)"/>
     <use xlink:href="#DejaVuSans-Bold-6e" transform="translate(245.214844 0)"/>
    </g>
    <!-- n=60 -->
    <g transform="translate(253.389562 349.762704) rotate(-250) scale(0.09 -0.09)">
     <use xlink:href="#DejaVuSans-Bold-6e"/>
     <use xlink:href="#DejaVuSans-Bold-3d" transform="translate(71.191406 0)"/>
     <use xlink:href="#DejaVuSans-Bold-36" transform="translate(154.980469 0)"/>
     <use xlink:href="#DejaVuSans-Bold-30" transform="translate(224.560547 0)"/>
    </g>
   </g>
   <g id="text_6">
    <!-- meta-llama -->
    <g transform="translate(249.244163 396.717585) rotate(-290) scale(0.09 -0.09)">
     <defs>
      <path id="DejaVuSans-Bold-2d" d="M 347 2297 
L 2309 2297 
L 2309 1388 
L 347 1388 
L 347 2297 
z
" transform="scale(0.015625)"/>
     </defs>
     <use xlink:href="#DejaVuSans-Bold-6d"/>
     <use xlink:href="#DejaVuSans-Bold-65" transform="translate(104.199219 0)"/>
     <use xlink:href="#DejaVuSans-Bold-74" transform="translate(172.021484 0)"/>
     <use xlink:href="#DejaVuSans-Bold-61" transform="translate(219.824219 0)"/>
     <use xlink:href="#DejaVuSans-Bold-2d" transform="translate(287.304688 0)"/>
     <use xlink:href="#DejaVuSans-Bold-6c" transform="translate(328.808594 0)"/>
     <use xlink:href="#DejaVuSans-Bold-6c" transform="translate(363.085938 0)"/>
     <use xlink:href="#DejaVuSans-Bold-61" transform="translate(397.363281 0)"/>
     <use xlink:href="#DejaVuSans-Bold-6d" transform="translate(464.84375 0)"/>
     <use xlink:href="#DejaVuSans-Bold-61" transform="translate(569.042969 0)"/>
    </g>
    <!-- n=90 -->
    <g transform="translate(245.043854 414.643523) rotate(-290) scale(0.09 -0.09)">
     <defs>
      <path id="DejaVuSans-Bold-39" d="M 641 103 
L 641 966 
Q 928 831 1190 764 
Q 1453 697 1709 697 
Q 2247 697 2547 995 
Q 2847 1294 2900 1881 
Q 2688 1725 2447 1647 
Q 2206 1569 1925 1569 
Q 1209 1569 770 1986 
Q 331 2403 331 3084 
Q 331 3838 820 4291 
Q 1309 4744 2131 4744 
Q 3044 4744 3544 4128 
Q 4044 3513 4044 2388 
Q 4044 1231 3459 570 
Q 2875 -91 1856 -91 
Q 1528 -91 1228 -42 
Q 928 6 641 103 
z
M 2125 2350 
Q 2441 2350 2600 2554 
Q 2759 2759 2759 3169 
Q 2759 3575 2600 3781 
Q 2441 3988 2125 3988 
Q 1809 3988 1650 3781 
Q 1491 3575 1491 3169 
Q 1491 2759 1650 2554 
Q 1809 2350 2125 2350 
z
" transform="scale(0.015625)"/>
     </defs>
     <use xlink:href="#DejaVuSans-Bold-6e"/>
     <use xlink:href="#DejaVuSans-Bold-3d" transform="translate(71.191406 0)"/>
     <use xlink:href="#DejaVuSans-Bold-39" transform="translate(154.980469 0)"/>
     <use xlink:href="#DejaVuSans-Bold-30" transform="translate(224.560547 0)"/>
    </g>
   </g>
   <g id="text_7">
    <!-- deepseek -->
    <g transform="translate(275.722935 454.592862) rotate(-330) scale(0.09 -0.09)">
     <defs>
      <path id="DejaVuSans-Bold-73" d="M 3272 3391 
L 3272 2541 
Q 2913 2691 2578 2766 
Q 2244 2841 1947 2841 
Q 1628 2841 1473 2761 
Q 1319 2681 1319 2516 
Q 1319 2381 1436 2309 
Q 1553 2238 1856 2203 
L 2053 2175 
Q 2913 2066 3209 1816 
Q 3506 1566 3506 1031 
Q 3506 472 3093 190 
Q 2681 -91 1863 -91 
Q 1516 -91 1145 -36 
Q 775 19 384 128 
L 384 978 
Q 719 816 1070 734 
Q 1422 653 1784 653 
Q 2113 653 2278 743 
Q 2444 834 2444 1013 
Q 2444 1163 2330 1236 
Q 2216 1309 1875 1350 
L 1678 1375 
Q 931 1469 631 1722 
Q 331 1975 331 2491 
Q 331 3047 712 3315 
Q 1094 3584 1881 3584 
Q 2191 3584 2531 3537 
Q 2872 3491 3272 3391 
z
" transform="scale(0.015625)"/>
     </defs>
     <use xlink:href="#DejaVuSans-Bold-64"/>
     <use xlink:href="#DejaVuSans-Bold-65" transform="translate(71.582031 0)"/>
     <use xlink:href="#DejaVuSans-Bold-65" transform="translate(139.404297 0)"/>
     <use xlink:href="#DejaVuSans-Bold-70" transform="translate(207.226562 0)"/>
     <use xlink:href="#DejaVuSans-Bold-73" transform="translate(278.808594 0)"/>
     <use xlink:href="#DejaVuSans-Bold-65" transform="translate(338.330078 0)"/>
     <use xlink:href="#DejaVuSans-Bold-65" transform="translate(406.152344 0)"/>
     <use xlink:href="#DejaVuSans-Bold-6b" transform="translate(473.974609 0)"/>
    </g>
    <!-- n=30 -->
    <g transform="translate(280.284217 468.863428) rotate(-330) scale(0.09 -0.09)">
     <defs>
      <path id="DejaVuSans-Bold-33" d="M 2981 2516 
Q 3453 2394 3698 2092 
Q 3944 1791 3944 1325 
Q 3944 631 3412 270 
Q 2881 -91 1863 -91 
Q 1503 -91 1142 -33 
Q 781 25 428 141 
L 428 1069 
Q 766 900 1098 814 
Q 1431 728 1753 728 
Q 2231 728 2486 893 
Q 2741 1059 2741 1369 
Q 2741 1688 2480 1852 
Q 2219 2016 1709 2016 
L 1228 2016 
L 1228 2791 
L 1734 2791 
Q 2188 2791 2409 2933 
Q 2631 3075 2631 3366 
Q 2631 3634 2415 3781 
Q 2200 3928 1806 3928 
Q 1516 3928 1219 3862 
Q 922 3797 628 3669 
L 628 4550 
Q 984 4650 1334 4700 
Q 1684 4750 2022 4750 
Q 2931 4750 3382 4451 
Q 3834 4153 3834 3553 
Q 3834 3144 3618 2883 
Q 3403 2622 2981 2516 
z
" transform="scale(0.015625)"/>
     </defs>
     <use xlink:href="#DejaVuSans-Bold-6e"/>
     <use xlink:href="#DejaVuSans-Bold-3d" transform="translate(71.191406 0)"/>
     <use xlink:href="#DejaVuSans-Bold-33" transform="translate(154.980469 0)"/>
     <use xlink:href="#DejaVuSans-Bold-30" transform="translate(224.560547 0)"/>
    </g>
   </g>
   <g id="text_8">
    <!-- mistralai -->
    <g transform="translate(375.707661 477.438574) rotate(-190) scale(0.09 -0.09)">
     <use xlink:href="#DejaVuSans-Bold-6d"/>
     <use xlink:href="#DejaVuSans-Bold-69" transform="translate(104.199219 0)"/>
     <use xlink:href="#DejaVuSans-Bold-73" transform="translate(138.476562 0)"/>
     <use xlink:href="#DejaVuSans-Bold-74" transform="translate(197.998047 0)"/>
     <use xlink:href="#DejaVuSans-Bold-72" transform="translate(245.800781 0)"/>
     <use xlink:href="#DejaVuSans-Bold-61" transform="translate(295.117188 0)"/>
     <use xlink:href="#DejaVuSans-Bold-6c" transform="translate(362.597656 0)"/>
     <use xlink:href="#DejaVuSans-Bold-61" transform="translate(396.875 0)"/>
     <use xlink:href="#DejaVuSans-Bold-69" transform="translate(464.355469 0)"/>
    </g>
    <!-- n=90 -->
    <g transform="translate(364.894936 469.111648) rotate(-190) scale(0.09 -0.09)">
     <use xlink:href="#DejaVuSans-Bold-6e"/>
     <use xlink:href="#DejaVuSans-Bold-3d" transform="translate(71.191406 0)"/>
     <use xlink:href="#DejaVuSans-Bold-39" transform="translate(154.980469 0)"/>
     <use xlink:href="#DejaVuSans-Bold-30" transform="translate(224.560547 0)"/>
    </g>
   </g>
   <g id="text_9">
    <!-- moonshotai -->
    <g transform="translate(424.115523 427.864985) rotate(-230) scale(0.09 -0.09)">
     <defs>
      <path id="DejaVuSans-Bold-68" d="M 4056 2131 
L 4056 0 
L 2931 0 
L 2931 347 
L 2931 1625 
Q 2931 2084 2911 2256 
Q 2891 2428 2841 2509 
Q 2775 2619 2662 2680 
Q 2550 2741 2406 2741 
Q 2056 2741 1856 2470 
Q 1656 2200 1656 1722 
L 1656 0 
L 538 0 
L 538 4863 
L 1656 4863 
L 1656 2988 
Q 1909 3294 2193 3439 
Q 2478 3584 2822 3584 
Q 3428 3584 3742 3212 
Q 4056 2841 4056 2131 
z
" transform="scale(0.015625)"/>
     </defs>
     <use xlink:href="#DejaVuSans-Bold-6d"/>
     <use xlink:href="#DejaVuSans-Bold-6f" transform="translate(104.199219 0)"/>
     <use xlink:href="#DejaVuSans-Bold-6f" transform="translate(172.900391 0)"/>
     <use xlink:href="#DejaVuSans-Bold-6e" transform="translate(241.601562 0)"/>
     <use xlink:href="#DejaVuSans-Bold-73" transform="translate(312.792969 0)"/>
     <use xlink:href="#DejaVuSans-Bold-68" transform="translate(372.314453 0)"/>
     <use xlink:href="#DejaVuSans-Bold-6f" transform="translate(443.505859 0)"/>
     <use xlink:href="#DejaVuSans-Bold-74" transform="translate(512.207031 0)"/>
     <use xlink:href="#DejaVuSans-Bold-61" transform="translate(560.009766 0)"/>
     <use xlink:href="#DejaVuSans-Bold-69" transform="translate(627.490234 0)"/>
    </g>
    <!-- n=62 -->
    <g transform="translate(405.761587 434.05972) rotate(-230) scale(0.09 -0.09)">
     <use xlink:href="#DejaVuSans-Bold-6e"/>
     <use xlink:href="#DejaVuSans-Bold-3d" transform="translate(71.191406 0)"/>
     <use xlink:href="#DejaVuSans-Bold-36" transform="translate(154.980469 0)"/>
     <use xlink:href="#DejaVuSans-Bold-32" transform="translate(224.560547 0)"/>
    </g>
   </g>
   <g id="text_10">
    <!-- Nightingale Rose: Recovery Ratio by Provider -->
    <g transform="translate(158.15725 17.837813) scale(0.14 -0.14)">
     <defs>
      <path id="DejaVuSans-Bold-4e" d="M 588 4666 
L 1931 4666 
L 3628 1466 
L 3628 4666 
L 4769 4666 
L 4769 0 
L 3425 0 
L 1728 3200 
L 1728 0 
L 588 0 
L 588 4666 
z
" transform="scale(0.015625)"/>
      <path id="DejaVuSans-Bold-20" transform="scale(0.015625)"/>
      <path id="DejaVuSans-Bold-52" d="M 2297 2597 
Q 2675 2597 2839 2737 
Q 3003 2878 3003 3200 
Q 3003 3519 2839 3656 
Q 2675 3794 2297 3794 
L 1791 3794 
L 1791 2597 
L 2297 2597 
z
M 1791 1766 
L 1791 0 
L 588 0 
L 588 4666 
L 2425 4666 
Q 3347 4666 3776 4356 
Q 4206 4047 4206 3378 
Q 4206 2916 3982 2619 
Q 3759 2322 3309 2181 
Q 3556 2125 3751 1926 
Q 3947 1728 4147 1325 
L 4800 0 
L 3519 0 
L 2950 1159 
Q 2778 1509 2601 1637 
Q 2425 1766 2131 1766 
L 1791 1766 
z
" transform="scale(0.015625)"/>
      <path id="DejaVuSans-Bold-3a" d="M 716 3500 
L 1844 3500 
L 1844 2291 
L 716 2291 
L 716 3500 
z
M 716 1209 
L 1844 1209 
L 1844 0 
L 716 0 
L 716 1209 
z
" transform="scale(0.015625)"/>
      <path id="DejaVuSans-Bold-76" d="M 97 3500 
L 1216 3500 
L 2088 1081 
L 2956 3500 
L 4078 3500 
L 2700 0 
L 1472 0 
L 97 3500 
z
" transform="scale(0.015625)"/>
      <path id="DejaVuSans-Bold-79" d="M 78 3500 
L 1197 3500 
L 2138 1125 
L 2938 3500 
L 4056 3500 
L 2584 -331 
Q 2363 -916 2067 -1148 
Q 1772 -1381 1288 -1381 
L 641 -1381 
L 641 -647 
L 991 -647 
Q 1275 -647 1404 -556 
Q 1534 -466 1606 -231 
L 1638 -134 
L 78 3500 
z
" transform="scale(0.015625)"/>
      <path id="DejaVuSans-Bold-62" d="M 2400 722 
Q 2759 722 2948 984 
Q 3138 1247 3138 1747 
Q 3138 2247 2948 2509 
Q 2759 2772 2400 2772 
Q 2041 2772 1848 2508 
Q 1656 2244 1656 1747 
Q 1656 1250 1848 986 
Q 2041 722 2400 722 
z
M 1656 2988 
Q 1888 3294 2169 3439 
Q 2450 3584 2816 3584 
Q 3463 3584 3878 3070 
Q 4294 2556 4294 1747 
Q 4294 938 3878 423 
Q 3463 -91 2816 -91 
Q 2450 -91 2169 54 
Q 1888 200 1656 506 
L 1656 0 
L 538 0 
L 538 4863 
L 1656 4863 
L 1656 2988 
z
" transform="scale(0.015625)"/>
      <path id="DejaVuSans-Bold-50" d="M 588 4666 
L 2584 4666 
Q 3475 4666 3951 4270 
Q 4428 3875 4428 3144 
Q 4428 2409 3951 2014 
Q 3475 1619 2584 1619 
L 1791 1619 
L 1791 0 
L 588 0 
L 588 4666 
z
M 1791 3794 
L 1791 2491 
L 2456 2491 
Q 2806 2491 2997 2661 
Q 3188 2831 3188 3144 
Q 3188 3456 2997 3625 
Q 2806 3794 2456 3794 
L 1791 3794 
z
" transform="scale(0.015625)"/>
     </defs>
     <use xlink:href="#DejaVuSans-Bold-4e"/>
     <use xlink:href="#DejaVuSans-Bold-69" transform="translate(83.691406 0)"/>
     <use xlink:href="#DejaVuSans-Bold-67" transform="translate(117.96875 0)"/>
     <use xlink:href="#DejaVuSans-Bold-68" transform="translate(189.550781 0)"/>
     <use xlink:href="#DejaVuSans-Bold-74" transform="translate(260.742188 0)"/>
     <use xlink:href="#DejaVuSans-Bold-69" transform="translate(308.544922 0)"/>
     <use xlink:href="#DejaVuSans-Bold-6e" transform="translate(342.822266 0)"/>
     <use xlink:href="#DejaVuSans-Bold-67" transform="translate(414.013672 0)"/>
     <use xlink:href="#DejaVuSans-Bold-61" transform="translate(485.595703 0)"/>
     <use xlink:href="#DejaVuSans-Bold-6c" transform="translate(553.076172 0)"/>
     <use xlink:href="#DejaVuSans-Bold-65" transform="translate(587.353516 0)"/>
     <use xlink:href="#DejaVuSans-Bold-20" transform="translate(655.175781 0)"/>
     <use xlink:href="#DejaVuSans-Bold-52" transform="translate(689.990234 0)"/>
     <use xlink:href="#DejaVuSans-Bold-6f" transform="translate(766.992188 0)"/>
     <use xlink:href="#DejaVuSans-Bold-73" transform="translate(835.693359 0)"/>
     <use xlink:href="#DejaVuSans-Bold-65" transform="translate(895.214844 0)"/>
     <use xlink:href="#DejaVuSans-Bold-3a" transform="translate(963.037109 0)"/>
     <use xlink:href="#DejaVuSans-Bold-20" transform="translate(1003.027344 0)"/>
     <use xlink:href="#DejaVuSans-Bold-52" transform="translate(1037.841797 0)"/>
     <use xlink:href="#DejaVuSans-Bold-65" transform="translate(1114.84375 0)"/>
     <use xlink:href="#DejaVuSans-Bold-63" transform="translate(1182.666016 0)"/>
     <use xlink:href="#DejaVuSans-Bold-6f" transform="translate(1241.943359 0)"/>
     <use xlink:href="#DejaVuSans-Bold-76" transform="translate(1310.644531 0)"/>
     <use xlink:href="#DejaVuSans-Bold-65" transform="translate(1375.830078 0)"/>
     <use xlink:href="#DejaVuSans-Bold-72" transform="translate(1443.652344 0)"/>
     <use xlink:href="#DejaVuSans-Bold-79" transform="translate(1492.96875 0)"/>
     <use xlink:href="#DejaVuSans-Bold-20" transform="translate(1558.154297 0)"/>
     <use xlink:href="#DejaVuSans-Bold-52" transform="translate(1592.96875 0)"/>
     <use xlink:href="#DejaVuSans-Bold-61" transform="translate(1669.970703 0)"/>
     <use xlink:href="#DejaVuSans-Bold-74" transform="translate(1737.451172 0)"/>
     <use xlink:href="#DejaVuSans-Bold-69" transform="translate(1785.253906 0)"/>
     <use xlink:href="#DejaVuSans-Bold-6f" transform="translate(1819.53125 0)"/>
     <use xlink:href="#DejaVuSans-Bold-20" transform="translate(1888.232422 0)"/>
     <use xlink:href="#DejaVuSans-Bold-62" transform="translate(1923.046875 0)"/>
     <use xlink:href="#DejaVuSans-Bold-79" transform="translate(1994.628906 0)"/>
     <use xlink:href="#DejaVuSans-Bold-20" transform="translate(2059.814453 0)"/>
     <use xlink:href="#DejaVuSans-Bold-50" transform="translate(2094.628906 0)"/>
     <use xlink:href="#DejaVuSans-Bold-72" transform="translate(2167.919922 0)"/>
     <use xlink:href="#DejaVuSans-Bold-6f" transform="translate(2217.236328 0)"/>
     <use xlink:href="#DejaVuSans-Bold-76" transform="translate(2285.9375 0)"/>
     <use xlink:href="#DejaVuSans-Bold-69" transform="translate(2351.123047 0)"/>
     <use xlink:href="#DejaVuSans-Bold-64" transform="translate(2385.400391 0)"/>
     <use xlink:href="#DejaVuSans-Bold-65" transform="translate(2456.982422 0)"/>
     <use xlink:href="#DejaVuSans-Bold-72" transform="translate(2524.804688 0)"/>
    </g>
    <!-- (Petal size = mean recovery, larger = better recovery) -->
    <g transform="translate(123.713969 33.624125) scale(0.14 -0.14)">
     <defs>
      <path id="DejaVuSans-Bold-28" d="M 2413 -844 
L 1484 -844 
Q 1006 -72 778 623 
Q 550 1319 550 2003 
Q 550 2688 779 3389 
Q 1009 4091 1484 4856 
L 2413 4856 
Q 2013 4116 1813 3408 
Q 1613 2700 1613 2009 
Q 1613 1319 1811 609 
Q 2009 -100 2413 -844 
z
" transform="scale(0.015625)"/>
      <path id="DejaVuSans-Bold-7a" d="M 366 3500 
L 3419 3500 
L 3419 2719 
L 1575 800 
L 3419 800 
L 3419 0 
L 288 0 
L 288 781 
L 2131 2700 
L 366 2700 
L 366 3500 
z
" transform="scale(0.015625)"/>
      <path id="DejaVuSans-Bold-2c" d="M 653 1209 
L 1778 1209 
L 1778 256 
L 1006 -909 
L 341 -909 
L 653 256 
L 653 1209 
z
" transform="scale(0.015625)"/>
      <path id="DejaVuSans-Bold-29" d="M 513 -844 
Q 913 -100 1113 609 
Q 1313 1319 1313 2009 
Q 1313 2700 1113 3408 
Q 913 4116 513 4856 
L 1441 4856 
Q 1916 4091 2145 3389 
Q 2375 2688 2375 2003 
Q 2375 1319 2147 623 
Q 1919 -72 1441 -844 
L 513 -844 
z
" transform="scale(0.015625)"/>
     </defs>
     <use xlink:href="#DejaVuSans-Bold-28"/>
     <use xlink:href="#DejaVuSans-Bold-50" transform="translate(45.703125 0)"/>
     <use xlink:href="#DejaVuSans-Bold-65" transform="translate(118.994141 0)"/>
     <use xlink:href="#DejaVuSans-Bold-74" transform="translate(186.816406 0)"/>
     <use xlink:href="#DejaVuSans-Bold-61" transform="translate(234.619141 0)"/>
     <use xlink:href="#DejaVuSans-Bold-6c" transform="translate(302.099609 0)"/>
     <use xlink:href="#DejaVuSans-Bold-20" transform="translate(336.376953 0)"/>
     <use xlink:href="#DejaVuSans-Bold-73" transform="translate(371.191406 0)"/>
     <use xlink:href="#DejaVuSans-Bold-69" transform="translate(430.712891 0)"/>
     <use xlink:href="#DejaVuSans-Bold-7a" transform="translate(464.990234 0)"/>
     <use xlink:href="#DejaVuSans-Bold-65" transform="translate(523.193359 0)"/>
     <use xlink:href="#DejaVuSans-Bold-20" transform="translate(591.015625 0)"/>
     <use xlink:href="#DejaVuSans-Bold-3d" transform="translate(625.830078 0)"/>
     <use xlink:href="#DejaVuSans-Bold-20" transform="translate(709.619141 0)"/>
     <use xlink:href="#DejaVuSans-Bold-6d" transform="translate(744.433594 0)"/>
     <use xlink:href="#DejaVuSans-Bold-65" transform="translate(848.632812 0)"/>
     <use xlink:href="#DejaVuSans-Bold-61" transform="translate(916.455078 0)"/>
     <use xlink:href="#DejaVuSans-Bold-6e" transform="translate(983.935547 0)"/>
     <use xlink:href="#DejaVuSans-Bold-20" transform="translate(1055.126953 0)"/>
     <use xlink:href="#DejaVuSans-Bold-72" transform="translate(1089.941406 0)"/>
     <use xlink:href="#DejaVuSans-Bold-65" transform="translate(1139.257812 0)"/>
     <use xlink:href="#DejaVuSans-Bold-63" transform="translate(1207.080078 0)"/>
     <use xlink:href="#DejaVuSans-Bold-6f" transform="translate(1266.357422 0)"/>
     <use xlink:href="#DejaVuSans-Bold-76" transform="translate(1335.058594 0)"/>
     <use xlink:href="#DejaVuSans-Bold-65" transform="translate(1400.244141 0)"/>
     <use xlink:href="#DejaVuSans-Bold-72" transform="translate(1468.066406 0)"/>
     <use xlink:href="#DejaVuSans-Bold-79" transform="translate(1517.382812 0)"/>
     <use xlink:href="#DejaVuSans-Bold-2c" transform="translate(1574.818359 0)"/>
     <use xlink:href="#DejaVuSans-Bold-20" transform="translate(1612.806641 0)"/>
     <use xlink:href="#DejaVuSans-Bold-6c" transform="translate(1647.621094 0)"/>
     <use xlink:href="#DejaVuSans-Bold-61" transform="translate(1681.898438 0)"/>
     <use xlink:href="#DejaVuSans-Bold-72" transform="translate(1749.378906 0)"/>
     <use xlink:href="#DejaVuSans-Bold-67" transform="translate(1798.695312 0)"/>
     <use xlink:href="#DejaVuSans-Bold-65" transform="translate(1870.277344 0)"/>
     <use xlink:href="#DejaVuSans-Bold-72" transform="translate(1938.099609 0)"/>
     <use xlink:href="#DejaVuSans-Bold-20" transform="translate(1987.416016 0)"/>
     <use xlink:href="#DejaVuSans-Bold-3d" transform="translate(2022.230469 0)"/>
     <use xlink:href="#DejaVuSans-Bold-20" transform="translate(2106.019531 0)"/>
     <use xlink:href="#DejaVuSans-Bold-62" transform="translate(2140.833984 0)"/>
     <use xlink:href="#DejaVuSans-Bold-65" transform="translate(2212.416016 0)"/>
     <use xlink:href="#DejaVuSans-Bold-74" transform="translate(2280.238281 0)"/>
     <use xlink:href="#DejaVuSans-Bold-74" transform="translate(2328.041016 0)"/>
     <use xlink:href="#DejaVuSans-Bold-65" transform="translate(2375.84375 0)"/>
     <use xlink:href="#DejaVuSans-Bold-72" transform="translate(2443.666016 0)"/>
     <use xlink:href="#DejaVuSans-Bold-20" transform="translate(2492.982422 0)"/>
     <use xlink:href="#DejaVuSans-Bold-72" transform="translate(2527.796875 0)"/>
     <use xlink:href="#DejaVuSans-Bold-65" transform="translate(2577.113281 0)"/>
     <use xlink:href="#DejaVuSans-Bold-63" transform="translate(2644.935547 0)"/>
     <use xlink:href="#DejaVuSans-Bold-6f" transform="translate(2704.212891 0)"/>
     <use xlink:href="#DejaVuSans-Bold-76" transform="translate(2772.914062 0)"/>
     <use xlink:href="#DejaVuSans-Bold-65" transform="translate(2838.099609 0)"/>
     <use xlink:href="#DejaVuSans-Bold-72" transform="translate(2905.921875 0)"/>
     <use xlink:href="#DejaVuSans-Bold-79" transform="translate(2955.238281 0)"/>
     <use xlink:href="#DejaVuSans-Bold-29" transform="translate(3020.423828 0)"/>
    </g>
   </g>
   <g id="legend_1">
    <g id="patch_17">
     <path d="M 742.0212 189.716938 
L 849.679481 189.716938 
Q 851.479481 189.716938 851.479481 187.916938 
L 851.479481 69.924125 
Q 851.479481 68.124125 849.679481 68.124125 
L 742.0212 68.124125 
Q 740.2212 68.124125 740.2212 69.924125 
L 740.2212 187.916938 
Q 740.2212 189.716938 742.0212 189.716938 
z
" style="fill: #ffffff; opacity: 0.8; stroke: #cccccc; stroke-linejoin: miter"/>
    </g>
    <g id="patch_18">
     <path d="M 743.8212 78.562719 
L 761.8212 78.562719 
L 761.8212 72.262719 
L 743.8212 72.262719 
z
" style="fill: #7c3aed; opacity: 0.7; stroke: #000000; stroke-width: 1.5; stroke-linejoin: miter"/>
    </g>
    <g id="text_11">
     <!-- claude: 0.24 -->
     <g transform="translate(769.0212 78.562719) scale(0.09 -0.09)">
      <defs>
       <path id="DejaVuSans-63" d="M 3122 3366 
L 3122 2828 
Q 2878 2963 2633 3030 
Q 2388 3097 2138 3097 
Q 1578 3097 1268 2742 
Q 959 2388 959 1747 
Q 959 1106 1268 751 
Q 1578 397 2138 397 
Q 2388 397 2633 464 
Q 2878 531 3122 666 
L 3122 134 
Q 2881 22 2623 -34 
Q 2366 -91 2075 -91 
Q 1284 -91 818 406 
Q 353 903 353 1747 
Q 353 2603 823 3093 
Q 1294 3584 2113 3584 
Q 2378 3584 2631 3529 
Q 2884 3475 3122 3366 
z
" transform="scale(0.015625)"/>
       <path id="DejaVuSans-6c" d="M 603 4863 
L 1178 4863 
L 1178 0 
L 603 0 
L 603 4863 
z
" transform="scale(0.015625)"/>
       <path id="DejaVuSans-61" d="M 2194 1759 
Q 1497 1759 1228 1600 
Q 959 1441 959 1056 
Q 959 750 1161 570 
Q 1363 391 1709 391 
Q 2188 391 2477 730 
Q 2766 1069 2766 1631 
L 2766 1759 
L 2194 1759 
z
M 3341 1997 
L 3341 0 
L 2766 0 
L 2766 531 
Q 2569 213 2275 61 
Q 1981 -91 1556 -91 
Q 1019 -91 701 211 
Q 384 513 384 1019 
Q 384 1609 779 1909 
Q 1175 2209 1959 2209 
L 2766 2209 
L 2766 2266 
Q 2766 2663 2505 2880 
Q 2244 3097 1772 3097 
Q 1472 3097 1187 3025 
Q 903 2953 641 2809 
L 641 3341 
Q 956 3463 1253 3523 
Q 1550 3584 1831 3584 
Q 2591 3584 2966 3190 
Q 3341 2797 3341 1997 
z
" transform="scale(0.015625)"/>
       <path id="DejaVuSans-75" d="M 544 1381 
L 544 3500 
L 1119 3500 
L 1119 1403 
Q 1119 906 1312 657 
Q 1506 409 1894 409 
Q 2359 409 2629 706 
Q 2900 1003 2900 1516 
L 2900 3500 
L 3475 3500 
L 3475 0 
L 2900 0 
L 2900 538 
Q 2691 219 2414 64 
Q 2138 -91 1772 -91 
Q 1169 -91 856 284 
Q 544 659 544 1381 
z
M 1991 3584 
L 1991 3584 
z
" transform="scale(0.015625)"/>
       <path id="DejaVuSans-64" d="M 2906 2969 
L 2906 4863 
L 3481 4863 
L 3481 0 
L 2906 0 
L 2906 525 
Q 2725 213 2448 61 
Q 2172 -91 1784 -91 
Q 1150 -91 751 415 
Q 353 922 353 1747 
Q 353 2572 751 3078 
Q 1150 3584 1784 3584 
Q 2172 3584 2448 3432 
Q 2725 3281 2906 2969 
z
M 947 1747 
Q 947 1113 1208 752 
Q 1469 391 1925 391 
Q 2381 391 2643 752 
Q 2906 1113 2906 1747 
Q 2906 2381 2643 2742 
Q 2381 3103 1925 3103 
Q 1469 3103 1208 2742 
Q 947 2381 947 1747 
z
" transform="scale(0.015625)"/>
       <path id="DejaVuSans-65" d="M 3597 1894 
L 3597 1613 
L 953 1613 
Q 991 1019 1311 708 
Q 1631 397 2203 397 
Q 2534 397 2845 478 
Q 3156 559 3463 722 
L 3463 178 
Q 3153 47 2828 -22 
Q 2503 -91 2169 -91 
Q 1331 -91 842 396 
Q 353 884 353 1716 
Q 353 2575 817 3079 
Q 1281 3584 2069 3584 
Q 2775 3584 3186 3129 
Q 3597 2675 3597 1894 
z
M 3022 2063 
Q 3016 2534 2758 2815 
Q 2500 3097 2075 3097 
Q 1594 3097 1305 2825 
Q 1016 2553 972 2059 
L 3022 2063 
z
" transform="scale(0.015625)"/>
       <path id="DejaVuSans-3a" d="M 750 794 
L 1409 794 
L 1409 0 
L 750 0 
L 750 794 
z
M 750 3309 
L 1409 3309 
L 1409 2516 
L 750 2516 
L 750 3309 
z
" transform="scale(0.015625)"/>
       <path id="DejaVuSans-20" transform="scale(0.015625)"/>
       <path id="DejaVuSans-30" d="M 2034 4250 
Q 1547 4250 1301 3770 
Q 1056 3291 1056 2328 
Q 1056 1369 1301 889 
Q 1547 409 2034 409 
Q 2525 409 2770 889 
Q 3016 1369 3016 2328 
Q 3016 3291 2770 3770 
Q 2525 4250 2034 4250 
z
M 2034 4750 
Q 2819 4750 3233 4129 
Q 3647 3509 3647 2328 
Q 3647 1150 3233 529 
Q 2819 -91 2034 -91 
Q 1250 -91 836 529 
Q 422 1150 422 2328 
Q 422 3509 836 4129 
Q 1250 4750 2034 4750 
z
" transform="scale(0.015625)"/>
       <path id="DejaVuSans-2e" d="M 684 794 
L 1344 794 
L 1344 0 
L 684 0 
L 684 794 
z
" transform="scale(0.015625)"/>
       <path id="DejaVuSans-32" d="M 1228 531 
L 3431 531 
L 3431 0 
L 469 0 
L 469 531 
Q 828 903 1448 1529 
Q 2069 2156 2228 2338 
Q 2531 2678 2651 2914 
Q 2772 3150 2772 3378 
Q 2772 3750 2511 3984 
Q 2250 4219 1831 4219 
Q 1534 4219 1204 4116 
Q 875 4013 500 3803 
L 500 4441 
Q 881 4594 1212 4672 
Q 1544 4750 1819 4750 
Q 2544 4750 2975 4387 
Q 3406 4025 3406 3419 
Q 3406 3131 3298 2873 
Q 3191 2616 2906 2266 
Q 2828 2175 2409 1742 
Q 1991 1309 1228 531 
z
" transform="scale(0.015625)"/>
       <path id="DejaVuSans-34" d="M 2419 4116 
L 825 1625 
L 2419 1625 
L 2419 4116 
z
M 2253 4666 
L 3047 4666 
L 3047 1625 
L 3713 1625 
L 3713 1100 
L 3047 1100 
L 3047 0 
L 2419 0 
L 2419 1100 
L 313 1100 
L 313 1709 
L 2253 4666 
z
" transform="scale(0.015625)"/>
      </defs>
      <use xlink:href="#DejaVuSans-63"/>
      <use xlink:href="#DejaVuSans-6c" transform="translate(54.980469 0)"/>
      <use xlink:href="#DejaVuSans-61" transform="translate(82.763672 0)"/>
      <use xlink:href="#DejaVuSans-75" transform="translate(144.042969 0)"/>
      <use xlink:href="#DejaVuSans-64" transform="translate(207.421875 0)"/>
      <use xlink:href="#DejaVuSans-65" transform="translate(270.898438 0)"/>
      <use xlink:href="#DejaVuSans-3a" transform="translate(332.421875 0)"/>
      <use xlink:href="#DejaVuSans-20" transform="translate(366.113281 0)"/>
      <use xlink:href="#DejaVuSans-30" transform="translate(397.900391 0)"/>
      <use xlink:href="#DejaVuSans-2e" transform="translate(461.523438 0)"/>
      <use xlink:href="#DejaVuSans-32" transform="translate(493.310547 0)"/>
      <use xlink:href="#DejaVuSans-34" transform="translate(556.933594 0)"/>
     </g>
    </g>
    <g id="patch_19">
     <path d="M 743.8212 91.773031 
L 761.8212 91.773031 
L 761.8212 85.473031 
L 743.8212 85.473031 
z
" style="fill: #1a1a1a; opacity: 0.7; stroke: #000000; stroke-width: 1.5; stroke-linejoin: miter"/>
    </g>
    <g id="text_12">
     <!-- grok: 0.06 -->
     <g transform="translate(769.0212 91.773031) scale(0.09 -0.09)">
      <defs>
       <path id="DejaVuSans-67" d="M 2906 1791 
Q 2906 2416 2648 2759 
Q 2391 3103 1925 3103 
Q 1463 3103 1205 2759 
Q 947 2416 947 1791 
Q 947 1169 1205 825 
Q 1463 481 1925 481 
Q 2391 481 2648 825 
Q 2906 1169 2906 1791 
z
M 3481 434 
Q 3481 -459 3084 -895 
Q 2688 -1331 1869 -1331 
Q 1566 -1331 1297 -1286 
Q 1028 -1241 775 -1147 
L 775 -588 
Q 1028 -725 1275 -790 
Q 1522 -856 1778 -856 
Q 2344 -856 2625 -561 
Q 2906 -266 2906 331 
L 2906 616 
Q 2728 306 2450 153 
Q 2172 0 1784 0 
Q 1141 0 747 490 
Q 353 981 353 1791 
Q 353 2603 747 3093 
Q 1141 3584 1784 3584 
Q 2172 3584 2450 3431 
Q 2728 3278 2906 2969 
L 2906 3500 
L 3481 3500 
L 3481 434 
z
" transform="scale(0.015625)"/>
       <path id="DejaVuSans-72" d="M 2631 2963 
Q 2534 3019 2420 3045 
Q 2306 3072 2169 3072 
Q 1681 3072 1420 2755 
Q 1159 2438 1159 1844 
L 1159 0 
L 581 0 
L 581 3500 
L 1159 3500 
L 1159 2956 
Q 1341 3275 1631 3429 
Q 1922 3584 2338 3584 
Q 2397 3584 2469 3576 
Q 2541 3569 2628 3553 
L 2631 2963 
z
" transform="scale(0.015625)"/>
       <path id="DejaVuSans-6f" d="M 1959 3097 
Q 1497 3097 1228 2736 
Q 959 2375 959 1747 
Q 959 1119 1226 758 
Q 1494 397 1959 397 
Q 2419 397 2687 759 
Q 2956 1122 2956 1747 
Q 2956 2369 2687 2733 
Q 2419 3097 1959 3097 
z
M 1959 3584 
Q 2709 3584 3137 3096 
Q 3566 2609 3566 1747 
Q 3566 888 3137 398 
Q 2709 -91 1959 -91 
Q 1206 -91 779 398 
Q 353 888 353 1747 
Q 353 2609 779 3096 
Q 1206 3584 1959 3584 
z
" transform="scale(0.015625)"/>
       <path id="DejaVuSans-6b" d="M 581 4863 
L 1159 4863 
L 1159 1991 
L 2875 3500 
L 3609 3500 
L 1753 1863 
L 3688 0 
L 2938 0 
L 1159 1709 
L 1159 0 
L 581 0 
L 581 4863 
z
" transform="scale(0.015625)"/>
       <path id="DejaVuSans-36" d="M 2113 2584 
Q 1688 2584 1439 2293 
Q 1191 2003 1191 1497 
Q 1191 994 1439 701 
Q 1688 409 2113 409 
Q 2538 409 2786 701 
Q 3034 994 3034 1497 
Q 3034 2003 2786 2293 
Q 2538 2584 2113 2584 
z
M 3366 4563 
L 3366 3988 
Q 3128 4100 2886 4159 
Q 2644 4219 2406 4219 
Q 1781 4219 1451 3797 
Q 1122 3375 1075 2522 
Q 1259 2794 1537 2939 
Q 1816 3084 2150 3084 
Q 2853 3084 3261 2657 
Q 3669 2231 3669 1497 
Q 3669 778 3244 343 
Q 2819 -91 2113 -91 
Q 1303 -91 875 529 
Q 447 1150 447 2328 
Q 447 3434 972 4092 
Q 1497 4750 2381 4750 
Q 2619 4750 2861 4703 
Q 3103 4656 3366 4563 
z
" transform="scale(0.015625)"/>
      </defs>
      <use xlink:href="#DejaVuSans-67"/>
      <use xlink:href="#DejaVuSans-72" transform="translate(63.476562 0)"/>
      <use xlink:href="#DejaVuSans-6f" transform="translate(102.339844 0)"/>
      <use xlink:href="#DejaVuSans-6b" transform="translate(163.521484 0)"/>
      <use xlink:href="#DejaVuSans-3a" transform="translate(221.431641 0)"/>
      <use xlink:href="#DejaVuSans-20" transform="translate(255.123047 0)"/>
      <use xlink:href="#DejaVuSans-30" transform="translate(286.910156 0)"/>
      <use xlink:href="#DejaVuSans-2e" transform="translate(350.533203 0)"/>
      <use xlink:href="#DejaVuSans-30" transform="translate(382.320312 0)"/>
      <use xlink:href="#DejaVuSans-36" transform="translate(445.943359 0)"/>
     </g>
    </g>
    <g id="patch_20">
     <path d="M 743.8212 104.983344 
L 761.8212 104.983344 
L 761.8212 98.683344 
L 743.8212 98.683344 
z
" style="fill: #4285f4; opacity: 0.7; stroke: #000000; stroke-width: 1.5; stroke-linejoin: miter"/>
    </g>
    <g id="text_13">
     <!-- gemini: 0.06 -->
     <g transform="translate(769.0212 104.983344) scale(0.09 -0.09)">
      <defs>
       <path id="DejaVuSans-6d" d="M 3328 2828 
Q 3544 3216 3844 3400 
Q 4144 3584 4550 3584 
Q 5097 3584 5394 3201 
Q 5691 2819 5691 2113 
L 5691 0 
L 5113 0 
L 5113 2094 
Q 5113 2597 4934 2840 
Q 4756 3084 4391 3084 
Q 3944 3084 3684 2787 
Q 3425 2491 3425 1978 
L 3425 0 
L 2847 0 
L 2847 2094 
Q 2847 2600 2669 2842 
Q 2491 3084 2119 3084 
Q 1678 3084 1418 2786 
Q 1159 2488 1159 1978 
L 1159 0 
L 581 0 
L 581 3500 
L 1159 3500 
L 1159 2956 
Q 1356 3278 1631 3431 
Q 1906 3584 2284 3584 
Q 2666 3584 2933 3390 
Q 3200 3197 3328 2828 
z
" transform="scale(0.015625)"/>
       <path id="DejaVuSans-69" d="M 603 3500 
L 1178 3500 
L 1178 0 
L 603 0 
L 603 3500 
z
M 603 4863 
L 1178 4863 
L 1178 4134 
L 603 4134 
L 603 4863 
z
" transform="scale(0.015625)"/>
       <path id="DejaVuSans-6e" d="M 3513 2113 
L 3513 0 
L 2938 0 
L 2938 2094 
Q 2938 2591 2744 2837 
Q 2550 3084 2163 3084 
Q 1697 3084 1428 2787 
Q 1159 2491 1159 1978 
L 1159 0 
L 581 0 
L 581 3500 
L 1159 3500 
L 1159 2956 
Q 1366 3272 1645 3428 
Q 1925 3584 2291 3584 
Q 2894 3584 3203 3211 
Q 3513 2838 3513 2113 
z
" transform="scale(0.015625)"/>
      </defs>
      <use xlink:href="#DejaVuSans-67"/>
      <use xlink:href="#DejaVuSans-65" transform="translate(63.476562 0)"/>
      <use xlink:href="#DejaVuSans-6d" transform="translate(125 0)"/>
      <use xlink:href="#DejaVuSans-69" transform="translate(222.412109 0)"/>
      <use xlink:href="#DejaVuSans-6e" transform="translate(250.195312 0)"/>
      <use xlink:href="#DejaVuSans-69" transform="translate(313.574219 0)"/>
      <use xlink:href="#DejaVuSans-3a" transform="translate(341.357422 0)"/>
      <use xlink:href="#DejaVuSans-20" transform="translate(375.048828 0)"/>
      <use xlink:href="#DejaVuSans-30" transform="translate(406.835938 0)"/>
      <use xlink:href="#DejaVuSans-2e" transform="translate(470.458984 0)"/>
      <use xlink:href="#DejaVuSans-30" transform="translate(502.246094 0)"/>
      <use xlink:href="#DejaVuSans-36" transform="translate(565.869141 0)"/>
     </g>
    </g>
    <g id="patch_21">
     <path d="M 743.8212 118.193656 
L 761.8212 118.193656 
L 761.8212 111.893656 
L 743.8212 111.893656 
z
" style="fill: #10a37f; opacity: 0.7; stroke: #000000; stroke-width: 1.5; stroke-linejoin: miter"/>
    </g>
    <g id="text_14">
     <!-- gpt: 0.03 -->
     <g transform="translate(769.0212 118.193656) scale(0.09 -0.09)">
      <defs>
       <path id="DejaVuSans-70" d="M 1159 525 
L 1159 -1331 
L 581 -1331 
L 581 3500 
L 1159 3500 
L 1159 2969 
Q 1341 3281 1617 3432 
Q 1894 3584 2278 3584 
Q 2916 3584 3314 3078 
Q 3713 2572 3713 1747 
Q 3713 922 3314 415 
Q 2916 -91 2278 -91 
Q 1894 -91 1617 61 
Q 1341 213 1159 525 
z
M 3116 1747 
Q 3116 2381 2855 2742 
Q 2594 3103 2138 3103 
Q 1681 3103 1420 2742 
Q 1159 2381 1159 1747 
Q 1159 1113 1420 752 
Q 1681 391 2138 391 
Q 2594 391 2855 752 
Q 3116 1113 3116 1747 
z
" transform="scale(0.015625)"/>
       <path id="DejaVuSans-74" d="M 1172 4494 
L 1172 3500 
L 2356 3500 
L 2356 3053 
L 1172 3053 
L 1172 1153 
Q 1172 725 1289 603 
Q 1406 481 1766 481 
L 2356 481 
L 2356 0 
L 1766 0 
Q 1100 0 847 248 
Q 594 497 594 1153 
L 594 3053 
L 172 3053 
L 172 3500 
L 594 3500 
L 594 4494 
L 1172 4494 
z
" transform="scale(0.015625)"/>
       <path id="DejaVuSans-33" d="M 2597 2516 
Q 3050 2419 3304 2112 
Q 3559 1806 3559 1356 
Q 3559 666 3084 287 
Q 2609 -91 1734 -91 
Q 1441 -91 1130 -33 
Q 819 25 488 141 
L 488 750 
Q 750 597 1062 519 
Q 1375 441 1716 441 
Q 2309 441 2620 675 
Q 2931 909 2931 1356 
Q 2931 1769 2642 2001 
Q 2353 2234 1838 2234 
L 1294 2234 
L 1294 2753 
L 1863 2753 
Q 2328 2753 2575 2939 
Q 2822 3125 2822 3475 
Q 2822 3834 2567 4026 
Q 2313 4219 1838 4219 
Q 1578 4219 1281 4162 
Q 984 4106 628 3988 
L 628 4550 
Q 988 4650 1302 4700 
Q 1616 4750 1894 4750 
Q 2613 4750 3031 4423 
Q 3450 4097 3450 3541 
Q 3450 3153 3228 2886 
Q 3006 2619 2597 2516 
z
" transform="scale(0.015625)"/>
      </defs>
      <use xlink:href="#DejaVuSans-67"/>
      <use xlink:href="#DejaVuSans-70" transform="translate(63.476562 0)"/>
      <use xlink:href="#DejaVuSans-74" transform="translate(126.953125 0)"/>
      <use xlink:href="#DejaVuSans-3a" transform="translate(166.162109 0)"/>
      <use xlink:href="#DejaVuSans-20" transform="translate(199.853516 0)"/>
      <use xlink:href="#DejaVuSans-30" transform="translate(231.640625 0)"/>
      <use xlink:href="#DejaVuSans-2e" transform="translate(295.263672 0)"/>
      <use xlink:href="#DejaVuSans-30" transform="translate(327.050781 0)"/>
      <use xlink:href="#DejaVuSans-33" transform="translate(390.673828 0)"/>
     </g>
    </g>
    <g id="patch_22">
     <path d="M 743.8212 131.403969 
L 761.8212 131.403969 
L 761.8212 125.103969 
L 743.8212 125.103969 
z
" style="fill: #4d96ff; opacity: 0.7; stroke: #000000; stroke-width: 1.5; stroke-linejoin: miter"/>
    </g>
    <g id="text_15">
     <!-- Qwen: 0.02 -->
     <g transform="translate(769.0212 131.403969) scale(0.09 -0.09)">
      <defs>
       <path id="DejaVuSans-51" d="M 2522 4238 
Q 1834 4238 1429 3725 
Q 1025 3213 1025 2328 
Q 1025 1447 1429 934 
Q 1834 422 2522 422 
Q 3209 422 3611 934 
Q 4013 1447 4013 2328 
Q 4013 3213 3611 3725 
Q 3209 4238 2522 4238 
z
M 3406 84 
L 4238 -825 
L 3475 -825 
L 2784 -78 
Q 2681 -84 2626 -87 
Q 2572 -91 2522 -91 
Q 1538 -91 948 567 
Q 359 1225 359 2328 
Q 359 3434 948 4092 
Q 1538 4750 2522 4750 
Q 3503 4750 4090 4092 
Q 4678 3434 4678 2328 
Q 4678 1516 4351 937 
Q 4025 359 3406 84 
z
" transform="scale(0.015625)"/>
       <path id="DejaVuSans-77" d="M 269 3500 
L 844 3500 
L 1563 769 
L 2278 3500 
L 2956 3500 
L 3675 769 
L 4391 3500 
L 4966 3500 
L 4050 0 
L 3372 0 
L 2619 2869 
L 1863 0 
L 1184 0 
L 269 3500 
z
" transform="scale(0.015625)"/>
      </defs>
      <use xlink:href="#DejaVuSans-51"/>
      <use xlink:href="#DejaVuSans-77" transform="translate(78.710938 0)"/>
      <use xlink:href="#DejaVuSans-65" transform="translate(160.498047 0)"/>
      <use xlink:href="#DejaVuSans-6e" transform="translate(222.021484 0)"/>
      <use xlink:href="#DejaVuSans-3a" transform="translate(285.400391 0)"/>
      <use xlink:href="#DejaVuSans-20" transform="translate(319.091797 0)"/>
      <use xlink:href="#DejaVuSans-30" transform="translate(350.878906 0)"/>
      <use xlink:href="#DejaVuSans-2e" transform="translate(414.501953 0)"/>
      <use xlink:href="#DejaVuSans-30" transform="translate(446.289062 0)"/>
      <use xlink:href="#DejaVuSans-32" transform="translate(509.912109 0)"/>
     </g>
    </g>
    <g id="patch_23">
     <path d="M 743.8212 144.614281 
L 761.8212 144.614281 
L 761.8212 138.314281 
L 743.8212 138.314281 
z
" style="fill: #ff6b6b; opacity: 0.7; stroke: #000000; stroke-width: 1.5; stroke-linejoin: miter"/>
    </g>
    <g id="text_16">
     <!-- meta-llama: 0.02 -->
     <g transform="translate(769.0212 144.614281) scale(0.09 -0.09)">
      <defs>
       <path id="DejaVuSans-2d" d="M 313 2009 
L 1997 2009 
L 1997 1497 
L 313 1497 
L 313 2009 
z
" transform="scale(0.015625)"/>
      </defs>
      <use xlink:href="#DejaVuSans-6d"/>
      <use xlink:href="#DejaVuSans-65" transform="translate(97.412109 0)"/>
      <use xlink:href="#DejaVuSans-74" transform="translate(158.935547 0)"/>
      <use xlink:href="#DejaVuSans-61" transform="translate(198.144531 0)"/>
      <use xlink:href="#DejaVuSans-2d" transform="translate(259.423828 0)"/>
      <use xlink:href="#DejaVuSans-6c" transform="translate(295.507812 0)"/>
      <use xlink:href="#DejaVuSans-6c" transform="translate(323.291016 0)"/>
      <use xlink:href="#DejaVuSans-61" transform="translate(351.074219 0)"/>
      <use xlink:href="#DejaVuSans-6d" transform="translate(412.353516 0)"/>
      <use xlink:href="#DejaVuSans-61" transform="translate(509.765625 0)"/>
      <use xlink:href="#DejaVuSans-3a" transform="translate(571.044922 0)"/>
      <use xlink:href="#DejaVuSans-20" transform="translate(604.736328 0)"/>
      <use xlink:href="#DejaVuSans-30" transform="translate(636.523438 0)"/>
      <use xlink:href="#DejaVuSans-2e" transform="translate(700.146484 0)"/>
      <use xlink:href="#DejaVuSans-30" transform="translate(731.933594 0)"/>
      <use xlink:href="#DejaVuSans-32" transform="translate(795.556641 0)"/>
     </g>
    </g>
    <g id="patch_24">
     <path d="M 743.8212 157.824594 
L 761.8212 157.824594 
L 761.8212 151.524594 
L 743.8212 151.524594 
z
" style="fill: #6bcb77; opacity: 0.7; stroke: #000000; stroke-width: 1.5; stroke-linejoin: miter"/>
    </g>
    <g id="text_17">
     <!-- deepseek: 0.01 -->
     <g transform="translate(769.0212 157.824594) scale(0.09 -0.09)">
      <defs>
       <path id="DejaVuSans-73" d="M 2834 3397 
L 2834 2853 
Q 2591 2978 2328 3040 
Q 2066 3103 1784 3103 
Q 1356 3103 1142 2972 
Q 928 2841 928 2578 
Q 928 2378 1081 2264 
Q 1234 2150 1697 2047 
L 1894 2003 
Q 2506 1872 2764 1633 
Q 3022 1394 3022 966 
Q 3022 478 2636 193 
Q 2250 -91 1575 -91 
Q 1294 -91 989 -36 
Q 684 19 347 128 
L 347 722 
Q 666 556 975 473 
Q 1284 391 1588 391 
Q 1994 391 2212 530 
Q 2431 669 2431 922 
Q 2431 1156 2273 1281 
Q 2116 1406 1581 1522 
L 1381 1569 
Q 847 1681 609 1914 
Q 372 2147 372 2553 
Q 372 3047 722 3315 
Q 1072 3584 1716 3584 
Q 2034 3584 2315 3537 
Q 2597 3491 2834 3397 
z
" transform="scale(0.015625)"/>
       <path id="DejaVuSans-31" d="M 794 531 
L 1825 531 
L 1825 4091 
L 703 3866 
L 703 4441 
L 1819 4666 
L 2450 4666 
L 2450 531 
L 3481 531 
L 3481 0 
L 794 0 
L 794 531 
z
" transform="scale(0.015625)"/>
      </defs>
      <use xlink:href="#DejaVuSans-64"/>
      <use xlink:href="#DejaVuSans-65" transform="translate(63.476562 0)"/>
      <use xlink:href="#DejaVuSans-65" transform="translate(125 0)"/>
      <use xlink:href="#DejaVuSans-70" transform="translate(186.523438 0)"/>
      <use xlink:href="#DejaVuSans-73" transform="translate(250 0)"/>
      <use xlink:href="#DejaVuSans-65" transform="translate(302.099609 0)"/>
      <use xlink:href="#DejaVuSans-65" transform="translate(363.623047 0)"/>
      <use xlink:href="#DejaVuSans-6b" transform="translate(425.146484 0)"/>
      <use xlink:href="#DejaVuSans-3a" transform="translate(483.056641 0)"/>
      <use xlink:href="#DejaVuSans-20" transform="translate(516.748047 0)"/>
      <use xlink:href="#DejaVuSans-30" transform="translate(548.535156 0)"/>
      <use xlink:href="#DejaVuSans-2e" transform="translate(612.158203 0)"/>
      <use xlink:href="#DejaVuSans-30" transform="translate(643.945312 0)"/>
      <use xlink:href="#DejaVuSans-31" transform="translate(707.568359 0)"/>
     </g>
    </g>
    <g id="patch_25">
     <path d="M 743.8212 171.034906 
L 761.8212 171.034906 
L 761.8212 164.734906 
L 743.8212 164.734906 
z
" style="fill: #ffd93d; opacity: 0.7; stroke: #000000; stroke-width: 1.5; stroke-linejoin: miter"/>
    </g>
    <g id="text_18">
     <!-- mistralai: 0.01 -->
     <g transform="translate(769.0212 171.034906) scale(0.09 -0.09)">
      <use xlink:href="#DejaVuSans-6d"/>
      <use xlink:href="#DejaVuSans-69" transform="translate(97.412109 0)"/>
      <use xlink:href="#DejaVuSans-73" transform="translate(125.195312 0)"/>
      <use xlink:href="#DejaVuSans-74" transform="translate(177.294922 0)"/>
      <use xlink:href="#DejaVuSans-72" transform="translate(216.503906 0)"/>
      <use xlink:href="#DejaVuSans-61" transform="translate(257.617188 0)"/>
      <use xlink:href="#DejaVuSans-6c" transform="translate(318.896484 0)"/>
      <use xlink:href="#DejaVuSans-61" transform="translate(346.679688 0)"/>
      <use xlink:href="#DejaVuSans-69" transform="translate(407.958984 0)"/>
      <use xlink:href="#DejaVuSans-3a" transform="translate(435.742188 0)"/>
      <use xlink:href="#DejaVuSans-20" transform="translate(469.433594 0)"/>
      <use xlink:href="#DejaVuSans-30" transform="translate(501.220703 0)"/>
      <use xlink:href="#DejaVuSans-2e" transform="translate(564.84375 0)"/>
      <use xlink:href="#DejaVuSans-30" transform="translate(596.630859 0)"/>
      <use xlink:href="#DejaVuSans-31" transform="translate(660.253906 0)"/>
     </g>
    </g>
    <g id="patch_26">
     <path d="M 743.8212 184.245219 
L 761.8212 184.245219 
L 761.8212 177.945219 
L 743.8212 177.945219 
z
" style="fill: #9b59b6; opacity: 0.7; stroke: #000000; stroke-width: 1.5; stroke-linejoin: miter"/>
    </g>
    <g id="text_19">
     <!-- moonshotai: 0.01 -->
     <g transform="translate(769.0212 184.245219) scale(0.09 -0.09)">
      <defs>
       <path id="DejaVuSans-68" d="M 3513 2113 
L 3513 0 
L 2938 0 
L 2938 2094 
Q 2938 2591 2744 2837 
Q 2550 3084 2163 3084 
Q 1697 3084 1428 2787 
Q 1159 2491 1159 1978 
L 1159 0 
L 581 0 
L 581 4863 
L 1159 4863 
L 1159 2956 
Q 1366 3272 1645 3428 
Q 1925 3584 2291 3584 
Q 2894 3584 3203 3211 
Q 3513 2838 3513 2113 
z
" transform="scale(0.015625)"/>
      </defs>
      <use xlink:href="#DejaVuSans-6d"/>
      <use xlink:href="#DejaVuSans-6f" transform="translate(97.412109 0)"/>
      <use xlink:href="#DejaVuSans-6f" transform="translate(158.59375 0)"/>
      <use xlink:href="#DejaVuSans-6e" transform="translate(219.775391 0)"/>
      <use xlink:href="#DejaVuSans-73" transform="translate(283.154297 0)"/>
      <use xlink:href="#DejaVuSans-68" transform="translate(335.253906 0)"/>
      <use xlink:href="#DejaVuSans-6f" transform="translate(398.632812 0)"/>
      <use xlink:href="#DejaVuSans-74" transform="translate(459.814453 0)"/>
      <use xlink:href="#DejaVuSans-61" transform="translate(499.023438 0)"/>
      <use xlink:href="#DejaVuSans-69" transform="translate(560.302734 0)"/>
      <use xlink:href="#DejaVuSans-3a" transform="translate(588.085938 0)"/>
      <use xlink:href="#DejaVuSans-20" transform="translate(621.777344 0)"/>
      <use xlink:href="#DejaVuSans-30" transform="translate(653.564453 0)"/>
      <use xlink:href="#DejaVuSans-2e" transform="translate(717.1875 0)"/>
      <use xlink:href="#DejaVuSans-30" transform="translate(748.974609 0)"/>
      <use xlink:href="#DejaVuSans-31" transform="translate(812.597656 0)"/>
     </g>
    </g>
   </g>
  </g>
 </g>
 <defs>
  <clipPath id="pdc2bf10d9c">
   <path d="M 669.492 394.770125 
C 669.492 351.284431 660.926266 308.22158 644.285012 268.046037 
C 627.643757 227.870494 603.250611 191.363572 572.501582 160.614543 
C 541.752553 129.865514 505.245631 105.472368 465.070088 88.831113 
C 424.894545 72.189859 381.831694 63.624125 338.346 63.624125 
C 294.860306 63.624125 251.797455 72.189859 211.621912 88.831113 
C 171.446369 105.472368 134.939447 129.865514 104.190418 160.614543 
C 73.441389 191.363572 49.048243 227.870494 32.406988 268.046037 
C 15.765734 308.22158 7.2 351.284431 7.2 394.770125 
C 7.2 438.255819 15.765734 481.31867 32.406988 521.494213 
C 49.048243 561.669756 73.441389 598.176678 104.190418 628.925707 
C 134.939447 659.674736 171.446369 684.067882 211.621912 700.709137 
C 251.797455 717.350391 294.860306 725.916125 338.346 725.916125 
C 381.831694 725.916125 424.894545 717.350391 465.070088 700.709137 
C 505.245631 684.067882 541.752553 659.674736 572.501582 628.925707 
C 603.250611 598.176678 627.643757 561.669756 644.285012 521.494213 
C 660.926266 481.31867 669.492 438.255819 669.492 394.770125 
M 338.346 394.770125 
C 338.346 394.770125 338.346 394.770125 338.346 394.770125 
C 338.346 394.770125 338.346 394.770125 338.346 394.770125 
C 338.346 394.770125 338.346 394.770125 338.346 394.770125 
C 338.346 394.770125 338.346 394.770125 338.346 394.770125 
C 338.346 394.770125 338.346 394.770125 338.346 394.770125 
C 338.346 394.770125 338.346 394.770125 338.346 394.770125 
C 338.346 394.770125 338.346 394.770125 338.346 394.770125 
C 338.346 394.770125 338.346 394.770125 338.346 394.770125 
C 338.346 394.770125 338.346 394.770125 338.346 394.770125 
C 338.346 394.770125 338.346 394.770125 338.346 394.770125 
C 338.346 394.770125 338.346 394.770125 338.346 394.770125 
C 338.346 394.770125 338.346 394.770125 338.346 394.770125 
C 338.346 394.770125 338.346 394.770125 338.346 394.770125 
C 338.346 394.770125 338.346 394.770125 338.346 394.770125 
C 338.346 394.770125 338.346 394.770125 338.346 394.770125 
C 338.346 394.770125 338.346 394.770125 338.346 394.770125 
z
"/>
  </clipPath>
 </defs>
</svg>
