<?xml version="1.0" encoding="utf-8" standalone="no"?>
<!DOCTYPE svg PUBLIC "-//W3C//DTD SVG 1.1//EN"
  "http://www.w3.org/Graphics/SVG/1.1/DTD/svg11.dtd">
<svg xmlns:xlink="http://www.w3.org/1999/xlink" width="1134.079287pt" height="591.12pt" viewBox="0 0 1134.079287 591.12" xmlns="http://www.w3.org/2000/svg" version="1.1">
 <metadata>
  <rdf:RDF xmlns:dc="http://purl.org/dc/elements/1.1/" xmlns:cc="http://creativecommons.org/ns#" xmlns:rdf="http://www.w3.org/1999/02/22-rdf-syntax-ns#">
   <cc:Work>
    <dc:type rdf:resource="http://purl.org/dc/dcmitype/StillImage"/>
    <dc:date>2025-12-17T10:37:22.033599</dc:date>
    <dc:format>image/svg+xml</dc:format>
    <dc:creator>
     <cc:Agent>
      <dc:title>Matplotlib v3.10.7, https://matplotlib.org/</dc:title>
     </cc:Agent>
    </dc:creator>
   </cc:Work>
  </rdf:RDF>
 </metadata>
 <defs>
  <style type="text/css">*{stroke-linejoin: round; stroke-linecap: butt}</style>
 </defs>
 <g id="figure_1">
  <g id="patch_1">
   <path d="M 0 591.12 
L 1134.079287 591.12 
L 1134.079287 0 
L 0 0 
z
" style="fill: #ffffff"/>
  </g>
  <g id="patch_2">
   <path d="M 9.352014 583.92 
L 490.792014 583.92 
L 490.792014 102.48 
L 9.352014 102.48 
z
" style="fill: #ffffff"/>
  </g>
  <g id="pane3d_1">
   <g id="patch_3">
    <path d="M 221.806017 349.598665 
L 465.603599 423.134092 
L 473.535493 214.63896 
L 220.563834 150.692042 
" style="fill: #f2f2f2; opacity: 0.5; stroke: #f2f2f2; stroke-linejoin: miter"/>
   </g>
  </g>
  <g id="pane3d_2">
   <g id="patch_4">
    <path d="M 221.806017 349.598665 
L 42.044907 457.385195 
L 33.681164 244.517766 
L 220.563834 150.692042 
" style="fill: #e6e6e6; opacity: 0.5; stroke: #e6e6e6; stroke-linejoin: miter"/>
   </g>
  </g>
  <g id="pane3d_3">
   <g id="patch_5">
    <path d="M 221.806017 349.598665 
L 42.044907 457.385195 
L 296.886495 544.875377 
L 465.603599 423.134092 
" style="fill: #ececec; opacity: 0.5; stroke: #ececec; stroke-linejoin: miter"/>
   </g>
  </g>
  <g id="grid3d_1">
   <g id="Line3DCollection_1">
    <path d="M 465.603599 423.134092 
L 221.806017 349.598665 
L 220.563834 150.692042 
" style="fill: none; stroke: #b0b0b0; stroke-width: 0.8"/>
    <path d="M 448.723918 435.313971 
L 203.735715 360.433795 
L 201.830715 160.097133 
" style="fill: none; stroke: #b0b0b0; stroke-width: 0.8"/>
    <path d="M 431.524937 447.724249 
L 185.343272 371.462085 
L 182.751487 169.67599 
" style="fill: none; stroke: #b0b0b0; stroke-width: 0.8"/>
    <path d="M 413.997509 460.371524 
L 166.619996 382.688746 
L 163.31647 179.433473 
" style="fill: none; stroke: #b0b0b0; stroke-width: 0.8"/>
    <path d="M 396.132135 473.262651 
L 147.556879 394.119178 
L 143.515618 189.374626 
" style="fill: none; stroke: #b0b0b0; stroke-width: 0.8"/>
    <path d="M 377.918946 486.404751 
L 128.144585 405.758981 
L 123.338503 199.504685 
" style="fill: none; stroke: #b0b0b0; stroke-width: 0.8"/>
    <path d="M 359.347686 499.805224 
L 108.37343 417.61396 
L 102.774298 209.829085 
" style="fill: none; stroke: #b0b0b0; stroke-width: 0.8"/>
    <path d="M 340.407689 513.471768 
L 88.233371 429.690137 
L 81.811754 220.353474 
" style="fill: none; stroke: #b0b0b0; stroke-width: 0.8"/>
    <path d="M 321.087863 527.412384 
L 67.713987 441.993762 
L 60.439186 231.083718 
" style="fill: none; stroke: #b0b0b0; stroke-width: 0.8"/>
    <path d="M 301.376668 541.635401 
L 46.804457 454.531322 
L 38.644443 242.025918 
" style="fill: none; stroke: #b0b0b0; stroke-width: 0.8"/>
   </g>
  </g>
  <g id="grid3d_2">
   <g id="Line3DCollection_2">
    <path d="M 220.563834 150.692042 
L 221.806017 349.598665 
L 42.044907 457.385195 
" style="fill: none; stroke: #b0b0b0; stroke-width: 0.8"/>
    <path d="M 246.544598 157.259536 
L 246.892799 357.165463 
L 68.144081 466.345355 
" style="fill: none; stroke: #b0b0b0; stroke-width: 0.8"/>
    <path d="M 272.859619 163.911524 
L 272.291067 364.826214 
L 94.596177 475.426678 
" style="fill: none; stroke: #b0b0b0; stroke-width: 0.8"/>
    <path d="M 299.515391 170.649648 
L 298.006657 372.582677 
L 121.408401 484.631637 
" style="fill: none; stroke: #b0b0b0; stroke-width: 0.8"/>
    <path d="M 326.518575 177.475592 
L 324.045556 380.436658 
L 148.588159 493.962775 
" style="fill: none; stroke: #b0b0b0; stroke-width: 0.8"/>
    <path d="M 353.876007 184.391084 
L 350.413897 388.390007 
L 176.143059 503.422704 
" style="fill: none; stroke: #b0b0b0; stroke-width: 0.8"/>
    <path d="M 381.594704 191.397898 
L 377.117973 396.444622 
L 204.080923 513.014108 
" style="fill: none; stroke: #b0b0b0; stroke-width: 0.8"/>
    <path d="M 409.68187 198.497854 
L 404.164238 404.602449 
L 232.40979 522.739749 
" style="fill: none; stroke: #b0b0b0; stroke-width: 0.8"/>
    <path d="M 438.144902 205.692822 
L 431.559311 412.865486 
L 261.137926 532.602463 
" style="fill: none; stroke: #b0b0b0; stroke-width: 0.8"/>
    <path d="M 466.991393 212.984723 
L 459.309983 421.23578 
L 290.273832 542.60517 
" style="fill: none; stroke: #b0b0b0; stroke-width: 0.8"/>
   </g>
  </g>
  <g id="grid3d_3">
   <g id="Line3DCollection_3">
    <path d="M 42.044907 457.385195 
L 221.806017 349.598665 
L 465.603599 423.134092 
" style="fill: none; stroke: #b0b0b0; stroke-width: 0.8"/>
    <path d="M 40.966188 429.930502 
L 221.645366 323.874225 
L 466.627511 396.219879 
" style="fill: none; stroke: #b0b0b0; stroke-width: 0.8"/>
    <path d="M 39.876567 402.198317 
L 221.483224 297.910981 
L 467.661504 369.04069 
" style="fill: none; stroke: #b0b0b0; stroke-width: 0.8"/>
    <path d="M 38.775877 374.184413 
L 221.31957 271.705594 
L 468.705727 341.592592 
" style="fill: none; stroke: #b0b0b0; stroke-width: 0.8"/>
    <path d="M 37.663948 345.884474 
L 221.154383 245.254659 
L 469.760333 313.871574 
" style="fill: none; stroke: #b0b0b0; stroke-width: 0.8"/>
    <path d="M 36.540608 317.294097 
L 220.98764 218.554709 
L 470.825477 285.873545 
" style="fill: none; stroke: #b0b0b0; stroke-width: 0.8"/>
    <path d="M 35.40568 288.408788 
L 220.81932 191.602211 
L 471.901318 257.594333 
" style="fill: none; stroke: #b0b0b0; stroke-width: 0.8"/>
    <path d="M 34.258983 259.22396 
L 220.6494 164.393565 
L 472.988019 229.02968 
" style="fill: none; stroke: #b0b0b0; stroke-width: 0.8"/>
   </g>
  </g>
  <g id="axis3d_1">
   <g id="line2d_1">
    <path d="M 465.603599 423.134092 
L 296.886495 544.875377 
" style="fill: none; stroke: #000000; stroke-width: 0.8; stroke-linecap: square"/>
   </g>
   <g id="xtick_1">
    <g id="line2d_2">
     <path d="M 463.537265 422.510834 
L 469.742219 424.382403 
" style="fill: none; stroke: #000000; stroke-width: 0.8; stroke-linecap: square"/>
    </g>
    <g id="text_1">
     <!-- 0.0 -->
     <g transform="translate(469.16548 443.533497) scale(0.1 -0.1)">
      <defs>
       <path id="DejaVuSans-30" d="M 2034 4250 
Q 1547 4250 1301 3770 
Q 1056 3291 1056 2328 
Q 1056 1369 1301 889 
Q 1547 409 2034 409 
Q 2525 409 2770 889 
Q 3016 1369 3016 2328 
Q 3016 3291 2770 3770 
Q 2525 4250 2034 4250 
z
M 2034 4750 
Q 2819 4750 3233 4129 
Q 3647 3509 3647 2328 
Q 3647 1150 3233 529 
Q 2819 -91 2034 -91 
Q 1250 -91 836 529 
Q 422 1150 422 2328 
Q 422 3509 836 4129 
Q 1250 4750 2034 4750 
z
" transform="scale(0.015625)"/>
       <path id="DejaVuSans-2e" d="M 684 794 
L 1344 794 
L 1344 0 
L 684 0 
L 684 794 
z
" transform="scale(0.015625)"/>
      </defs>
      <use xlink:href="#DejaVuSans-30"/>
      <use xlink:href="#DejaVuSans-2e" transform="translate(63.623047 0)"/>
      <use xlink:href="#DejaVuSans-30" transform="translate(95.410156 0)"/>
     </g>
    </g>
   </g>
   <g id="xtick_2">
    <g id="line2d_3">
     <path d="M 446.646402 434.678983 
L 452.884991 436.585796 
" style="fill: none; stroke: #000000; stroke-width: 0.8; stroke-linecap: square"/>
    </g>
    <g id="text_2">
     <!-- 0.2 -->
     <g transform="translate(452.375487 455.846654) scale(0.1 -0.1)">
      <defs>
       <path id="DejaVuSans-32" d="M 1228 531 
L 3431 531 
L 3431 0 
L 469 0 
L 469 531 
Q 828 903 1448 1529 
Q 2069 2156 2228 2338 
Q 2531 2678 2651 2914 
Q 2772 3150 2772 3378 
Q 2772 3750 2511 3984 
Q 2250 4219 1831 4219 
Q 1534 4219 1204 4116 
Q 875 4013 500 3803 
L 500 4441 
Q 881 4594 1212 4672 
Q 1544 4750 1819 4750 
Q 2544 4750 2975 4387 
Q 3406 4025 3406 3419 
Q 3406 3131 3298 2873 
Q 3191 2616 2906 2266 
Q 2828 2175 2409 1742 
Q 1991 1309 1228 531 
z
" transform="scale(0.015625)"/>
      </defs>
      <use xlink:href="#DejaVuSans-30"/>
      <use xlink:href="#DejaVuSans-2e" transform="translate(63.623047 0)"/>
      <use xlink:href="#DejaVuSans-32" transform="translate(95.410156 0)"/>
     </g>
    </g>
   </g>
   <g id="xtick_3">
    <g id="line2d_4">
     <path d="M 429.436183 447.077195 
L 435.708576 449.020257 
" style="fill: none; stroke: #000000; stroke-width: 0.8; stroke-linecap: square"/>
    </g>
    <g id="text_3">
     <!-- 0.4 -->
     <g transform="translate(435.267542 468.392984) scale(0.1 -0.1)">
      <defs>
       <path id="DejaVuSans-34" d="M 2419 4116 
L 825 1625 
L 2419 1625 
L 2419 4116 
z
M 2253 4666 
L 3047 4666 
L 3047 1625 
L 3713 1625 
L 3713 1100 
L 3047 1100 
L 3047 0 
L 2419 0 
L 2419 1100 
L 313 1100 
L 313 1709 
L 2253 4666 
z
" transform="scale(0.015625)"/>
      </defs>
      <use xlink:href="#DejaVuSans-30"/>
      <use xlink:href="#DejaVuSans-2e" transform="translate(63.623047 0)"/>
      <use xlink:href="#DejaVuSans-34" transform="translate(95.410156 0)"/>
     </g>
    </g>
   </g>
   <g id="xtick_4">
    <g id="line2d_5">
     <path d="M 411.897464 459.712057 
L 418.203821 461.692412 
" style="fill: none; stroke: #000000; stroke-width: 0.8; stroke-linecap: square"/>
    </g>
    <g id="text_4">
     <!-- 0.6 -->
     <g transform="translate(417.832528 481.179175) scale(0.1 -0.1)">
      <defs>
       <path id="DejaVuSans-36" d="M 2113 2584 
Q 1688 2584 1439 2293 
Q 1191 2003 1191 1497 
Q 1191 994 1439 701 
Q 1688 409 2113 409 
Q 2538 409 2786 701 
Q 3034 994 3034 1497 
Q 3034 2003 2786 2293 
Q 2538 2584 2113 2584 
z
M 3366 4563 
L 3366 3988 
Q 3128 4100 2886 4159 
Q 2644 4219 2406 4219 
Q 1781 4219 1451 3797 
Q 1122 3375 1075 2522 
Q 1259 2794 1537 2939 
Q 1816 3084 2150 3084 
Q 2853 3084 3261 2657 
Q 3669 2231 3669 1497 
Q 3669 778 3244 343 
Q 2819 -91 2113 -91 
Q 1303 -91 875 529 
Q 447 1150 447 2328 
Q 447 3434 972 4092 
Q 1497 4750 2381 4750 
Q 2619 4750 2861 4703 
Q 3103 4656 3366 4563 
z
" transform="scale(0.015625)"/>
      </defs>
      <use xlink:href="#DejaVuSans-30"/>
      <use xlink:href="#DejaVuSans-2e" transform="translate(63.623047 0)"/>
      <use xlink:href="#DejaVuSans-36" transform="translate(95.410156 0)"/>
     </g>
    </g>
   </g>
   <g id="xtick_5">
    <g id="line2d_6">
     <path d="M 394.020751 472.590411 
L 400.361221 474.609143 
" style="fill: none; stroke: #000000; stroke-width: 0.8; stroke-linecap: square"/>
    </g>
    <g id="text_5">
     <!-- 0.8 -->
     <g transform="translate(400.060975 494.212171) scale(0.1 -0.1)">
      <defs>
       <path id="DejaVuSans-38" d="M 2034 2216 
Q 1584 2216 1326 1975 
Q 1069 1734 1069 1313 
Q 1069 891 1326 650 
Q 1584 409 2034 409 
Q 2484 409 2743 651 
Q 3003 894 3003 1313 
Q 3003 1734 2745 1975 
Q 2488 2216 2034 2216 
z
M 1403 2484 
Q 997 2584 770 2862 
Q 544 3141 544 3541 
Q 544 4100 942 4425 
Q 1341 4750 2034 4750 
Q 2731 4750 3128 4425 
Q 3525 4100 3525 3541 
Q 3525 3141 3298 2862 
Q 3072 2584 2669 2484 
Q 3125 2378 3379 2068 
Q 3634 1759 3634 1313 
Q 3634 634 3220 271 
Q 2806 -91 2034 -91 
Q 1263 -91 848 271 
Q 434 634 434 1313 
Q 434 1759 690 2068 
Q 947 2378 1403 2484 
z
M 1172 3481 
Q 1172 3119 1398 2916 
Q 1625 2713 2034 2713 
Q 2441 2713 2670 2916 
Q 2900 3119 2900 3481 
Q 2900 3844 2670 4047 
Q 2441 4250 2034 4250 
Q 1625 4250 1398 4047 
Q 1172 3844 1172 3481 
z
" transform="scale(0.015625)"/>
      </defs>
      <use xlink:href="#DejaVuSans-30"/>
      <use xlink:href="#DejaVuSans-2e" transform="translate(63.623047 0)"/>
      <use xlink:href="#DejaVuSans-38" transform="translate(95.410156 0)"/>
     </g>
    </g>
   </g>
   <g id="xtick_6">
    <g id="line2d_7">
     <path d="M 375.796177 485.719362 
L 382.170899 487.777598 
" style="fill: none; stroke: #000000; stroke-width: 0.8; stroke-linecap: square"/>
    </g>
    <g id="text_6">
     <!-- 1.0 -->
     <g transform="translate(381.943044 507.499188) scale(0.1 -0.1)">
      <defs>
       <path id="DejaVuSans-31" d="M 794 531 
L 1825 531 
L 1825 4091 
L 703 3866 
L 703 4441 
L 1819 4666 
L 2450 4666 
L 2450 531 
L 3481 531 
L 3481 0 
L 794 0 
L 794 531 
z
" transform="scale(0.015625)"/>
      </defs>
      <use xlink:href="#DejaVuSans-31"/>
      <use xlink:href="#DejaVuSans-2e" transform="translate(63.623047 0)"/>
      <use xlink:href="#DejaVuSans-30" transform="translate(95.410156 0)"/>
     </g>
    </g>
   </g>
   <g id="xtick_7">
    <g id="line2d_8">
     <path d="M 357.213489 499.106299 
L 363.622591 501.205208 
" style="fill: none; stroke: #000000; stroke-width: 0.8; stroke-linecap: square"/>
    </g>
    <g id="text_7">
     <!-- 1.2 -->
     <g transform="translate(363.468508 521.047726) scale(0.1 -0.1)">
      <use xlink:href="#DejaVuSans-31"/>
      <use xlink:href="#DejaVuSans-2e" transform="translate(63.623047 0)"/>
      <use xlink:href="#DejaVuSans-32" transform="translate(95.410156 0)"/>
     </g>
    </g>
   </g>
   <g id="xtick_8">
    <g id="line2d_9">
     <path d="M 338.262026 512.758899 
L 344.705625 514.899701 
" style="fill: none; stroke: #000000; stroke-width: 0.8; stroke-linecap: square"/>
    </g>
    <g id="text_8">
     <!-- 1.4 -->
     <g transform="translate(344.626735 534.865581) scale(0.1 -0.1)">
      <use xlink:href="#DejaVuSans-31"/>
      <use xlink:href="#DejaVuSans-2e" transform="translate(63.623047 0)"/>
      <use xlink:href="#DejaVuSans-34" transform="translate(95.410156 0)"/>
     </g>
    </g>
   </g>
   <g id="xtick_9">
    <g id="line2d_10">
     <path d="M 318.930703 526.685151 
L 325.408898 528.869112 
" style="fill: none; stroke: #000000; stroke-width: 0.8; stroke-linecap: square"/>
    </g>
    <g id="text_9">
     <!-- 1.6 -->
     <g transform="translate(325.406665 548.960866) scale(0.1 -0.1)">
      <use xlink:href="#DejaVuSans-31"/>
      <use xlink:href="#DejaVuSans-2e" transform="translate(63.623047 0)"/>
      <use xlink:href="#DejaVuSans-36" transform="translate(95.410156 0)"/>
     </g>
    </g>
   </g>
   <g id="xtick_10">
    <g id="line2d_11">
     <path d="M 299.207981 540.893366 
L 305.720859 543.121803 
" style="fill: none; stroke: #000000; stroke-width: 0.8; stroke-linecap: square"/>
    </g>
    <g id="text_10">
     <!-- 1.8 -->
     <g transform="translate(305.79679 563.34202) scale(0.1 -0.1)">
      <use xlink:href="#DejaVuSans-31"/>
      <use xlink:href="#DejaVuSans-2e" transform="translate(63.623047 0)"/>
      <use xlink:href="#DejaVuSans-38" transform="translate(95.410156 0)"/>
     </g>
    </g>
   </g>
   <g id="text_11">
    <!-- Drift[N] -->
    <g transform="translate(398.604334 524.8134) rotate(-35.813105) scale(0.1 -0.1)">
     <defs>
      <path id="DejaVuSans-44" d="M 1259 4147 
L 1259 519 
L 2022 519 
Q 2988 519 3436 956 
Q 3884 1394 3884 2338 
Q 3884 3275 3436 3711 
Q 2988 4147 2022 4147 
L 1259 4147 
z
M 628 4666 
L 1925 4666 
Q 3281 4666 3915 4102 
Q 4550 3538 4550 2338 
Q 4550 1131 3912 565 
Q 3275 0 1925 0 
L 628 0 
L 628 4666 
z
" transform="scale(0.015625)"/>
      <path id="DejaVuSans-72" d="M 2631 2963 
Q 2534 3019 2420 3045 
Q 2306 3072 2169 3072 
Q 1681 3072 1420 2755 
Q 1159 2438 1159 1844 
L 1159 0 
L 581 0 
L 581 3500 
L 1159 3500 
L 1159 2956 
Q 1341 3275 1631 3429 
Q 1922 3584 2338 3584 
Q 2397 3584 2469 3576 
Q 2541 3569 2628 3553 
L 2631 2963 
z
" transform="scale(0.015625)"/>
      <path id="DejaVuSans-69" d="M 603 3500 
L 1178 3500 
L 1178 0 
L 603 0 
L 603 3500 
z
M 603 4863 
L 1178 4863 
L 1178 4134 
L 603 4134 
L 603 4863 
z
" transform="scale(0.015625)"/>
      <path id="DejaVuSans-66" d="M 2375 4863 
L 2375 4384 
L 1825 4384 
Q 1516 4384 1395 4259 
Q 1275 4134 1275 3809 
L 1275 3500 
L 2222 3500 
L 2222 3053 
L 1275 3053 
L 1275 0 
L 697 0 
L 697 3053 
L 147 3053 
L 147 3500 
L 697 3500 
L 697 3744 
Q 697 4328 969 4595 
Q 1241 4863 1831 4863 
L 2375 4863 
z
" transform="scale(0.015625)"/>
      <path id="DejaVuSans-74" d="M 1172 4494 
L 1172 3500 
L 2356 3500 
L 2356 3053 
L 1172 3053 
L 1172 1153 
Q 1172 725 1289 603 
Q 1406 481 1766 481 
L 2356 481 
L 2356 0 
L 1766 0 
Q 1100 0 847 248 
Q 594 497 594 1153 
L 594 3053 
L 172 3053 
L 172 3500 
L 594 3500 
L 594 4494 
L 1172 4494 
z
" transform="scale(0.015625)"/>
      <path id="DejaVuSans-5b" d="M 550 4863 
L 1875 4863 
L 1875 4416 
L 1125 4416 
L 1125 -397 
L 1875 -397 
L 1875 -844 
L 550 -844 
L 550 4863 
z
" transform="scale(0.015625)"/>
      <path id="DejaVuSans-4e" d="M 628 4666 
L 1478 4666 
L 3547 763 
L 3547 4666 
L 4159 4666 
L 4159 0 
L 3309 0 
L 1241 3903 
L 1241 0 
L 628 0 
L 628 4666 
z
" transform="scale(0.015625)"/>
      <path id="DejaVuSans-5d" d="M 1947 4863 
L 1947 -844 
L 622 -844 
L 622 -397 
L 1369 -397 
L 1369 4416 
L 622 4416 
L 622 4863 
L 1947 4863 
z
" transform="scale(0.015625)"/>
     </defs>
     <use xlink:href="#DejaVuSans-44"/>
     <use xlink:href="#DejaVuSans-72" transform="translate(77.001953 0)"/>
     <use xlink:href="#DejaVuSans-69" transform="translate(118.115234 0)"/>
     <use xlink:href="#DejaVuSans-66" transform="translate(145.898438 0)"/>
     <use xlink:href="#DejaVuSans-74" transform="translate(179.353516 0)"/>
     <use xlink:href="#DejaVuSans-5b" transform="translate(218.5625 0)"/>
     <use xlink:href="#DejaVuSans-4e" transform="translate(257.576172 0)"/>
     <use xlink:href="#DejaVuSans-5d" transform="translate(332.380859 0)"/>
    </g>
   </g>
  </g>
  <g id="axis3d_2">
   <g id="line2d_12">
    <path d="M 42.044907 457.385195 
L 296.886495 544.875377 
" style="fill: none; stroke: #000000; stroke-width: 0.8; stroke-linecap: square"/>
   </g>
   <g id="xtick_11">
    <g id="line2d_13">
     <path d="M 43.608287 456.447777 
L 38.911543 459.263991 
" style="fill: none; stroke: #000000; stroke-width: 0.8; stroke-linecap: square"/>
    </g>
    <g id="text_12">
     <!-- 0.0 -->
     <g transform="translate(25.473775 479.791939) scale(0.1 -0.1)">
      <use xlink:href="#DejaVuSans-30"/>
      <use xlink:href="#DejaVuSans-2e" transform="translate(63.623047 0)"/>
      <use xlink:href="#DejaVuSans-30" transform="translate(95.410156 0)"/>
     </g>
    </g>
   </g>
   <g id="xtick_12">
    <g id="line2d_14">
     <path d="M 69.699492 465.395309 
L 65.026644 468.249489 
" style="fill: none; stroke: #000000; stroke-width: 0.8; stroke-linecap: square"/>
    </g>
    <g id="text_13">
     <!-- 0.2 -->
     <g transform="translate(51.575759 488.872664) scale(0.1 -0.1)">
      <use xlink:href="#DejaVuSans-30"/>
      <use xlink:href="#DejaVuSans-2e" transform="translate(63.623047 0)"/>
      <use xlink:href="#DejaVuSans-32" transform="translate(95.410156 0)"/>
     </g>
    </g>
   </g>
   <g id="xtick_13">
    <g id="line2d_15">
     <path d="M 96.14326 474.463746 
L 91.495386 477.356666 
" style="fill: none; stroke: #000000; stroke-width: 0.8; stroke-linecap: square"/>
    </g>
    <g id="text_14">
     <!-- 0.4 -->
     <g transform="translate(78.03153 498.07647) scale(0.1 -0.1)">
      <use xlink:href="#DejaVuSans-30"/>
      <use xlink:href="#DejaVuSans-2e" transform="translate(63.623047 0)"/>
      <use xlink:href="#DejaVuSans-34" transform="translate(95.410156 0)"/>
     </g>
    </g>
   </g>
   <g id="xtick_14">
    <g id="line2d_16">
     <path d="M 122.946786 483.655555 
L 118.325001 486.588009 
" style="fill: none; stroke: #000000; stroke-width: 0.8; stroke-linecap: square"/>
    </g>
    <g id="text_15">
     <!-- 0.6 -->
     <g transform="translate(104.848331 507.405876) scale(0.1 -0.1)">
      <use xlink:href="#DejaVuSans-30"/>
      <use xlink:href="#DejaVuSans-2e" transform="translate(63.623047 0)"/>
      <use xlink:href="#DejaVuSans-36" transform="translate(95.410156 0)"/>
     </g>
    </g>
   </g>
   <g id="xtick_15">
    <g id="line2d_17">
     <path d="M 150.11746 492.973272 
L 145.522919 495.946075 
" style="fill: none; stroke: #000000; stroke-width: 0.8; stroke-linecap: square"/>
    </g>
    <g id="text_16">
     <!-- 0.8 -->
     <g transform="translate(132.033603 516.863471) scale(0.1 -0.1)">
      <use xlink:href="#DejaVuSans-30"/>
      <use xlink:href="#DejaVuSans-2e" transform="translate(63.623047 0)"/>
      <use xlink:href="#DejaVuSans-38" transform="translate(95.410156 0)"/>
     </g>
    </g>
   </g>
   <g id="xtick_16">
    <g id="line2d_18">
     <path d="M 177.662879 502.419501 
L 173.096779 505.433493 
" style="fill: none; stroke: #000000; stroke-width: 0.8; stroke-linecap: square"/>
    </g>
    <g id="text_17">
     <!-- 1.0 -->
     <g transform="translate(159.594992 526.451914) scale(0.1 -0.1)">
      <use xlink:href="#DejaVuSans-31"/>
      <use xlink:href="#DejaVuSans-2e" transform="translate(63.623047 0)"/>
      <use xlink:href="#DejaVuSans-30" transform="translate(95.410156 0)"/>
     </g>
    </g>
   </g>
   <g id="xtick_17">
    <g id="line2d_19">
     <path d="M 205.590849 511.99692 
L 201.054427 515.052961 
" style="fill: none; stroke: #000000; stroke-width: 0.8; stroke-linecap: square"/>
    </g>
    <g id="text_18">
     <!-- 1.2 -->
     <g transform="translate(187.540359 536.173942) scale(0.1 -0.1)">
      <use xlink:href="#DejaVuSans-31"/>
      <use xlink:href="#DejaVuSans-2e" transform="translate(63.623047 0)"/>
      <use xlink:href="#DejaVuSans-32" transform="translate(95.410156 0)"/>
     </g>
    </g>
   </g>
   <g id="xtick_18">
    <g id="line2d_20">
     <path d="M 233.909395 521.70828 
L 229.403933 524.807258 
" style="fill: none; stroke: #000000; stroke-width: 0.8; stroke-linecap: square"/>
    </g>
    <g id="text_19">
     <!-- 1.4 -->
     <g transform="translate(215.877783 546.032364) scale(0.1 -0.1)">
      <use xlink:href="#DejaVuSans-31"/>
      <use xlink:href="#DejaVuSans-2e" transform="translate(63.623047 0)"/>
      <use xlink:href="#DejaVuSans-34" transform="translate(95.410156 0)"/>
     </g>
    </g>
   </g>
   <g id="xtick_19">
    <g id="line2d_21">
     <path d="M 262.62677 531.556411 
L 258.153593 534.699236 
" style="fill: none; stroke: #000000; stroke-width: 0.8; stroke-linecap: square"/>
    </g>
    <g id="text_20">
     <!-- 1.6 -->
     <g transform="translate(244.615574 556.030071) scale(0.1 -0.1)">
      <use xlink:href="#DejaVuSans-31"/>
      <use xlink:href="#DejaVuSans-2e" transform="translate(63.623047 0)"/>
      <use xlink:href="#DejaVuSans-36" transform="translate(95.410156 0)"/>
     </g>
    </g>
   </g>
   <g id="xtick_20">
    <g id="line2d_22">
     <path d="M 291.751456 541.544223 
L 287.311941 544.731833 
" style="fill: none; stroke: #000000; stroke-width: 0.8; stroke-linecap: square"/>
    </g>
    <g id="text_21">
     <!-- 1.8 -->
     <g transform="translate(273.762278 566.170036) scale(0.1 -0.1)">
      <use xlink:href="#DejaVuSans-31"/>
      <use xlink:href="#DejaVuSans-2e" transform="translate(63.623047 0)"/>
      <use xlink:href="#DejaVuSans-38" transform="translate(95.410156 0)"/>
     </g>
    </g>
   </g>
   <g id="text_22">
    <!-- Drift[N+1] -->
    <g transform="translate(120.489261 528.807095) rotate(-341.052037) scale(0.1 -0.1)">
     <defs>
      <path id="DejaVuSans-2b" d="M 2944 4013 
L 2944 2272 
L 4684 2272 
L 4684 1741 
L 2944 1741 
L 2944 0 
L 2419 0 
L 2419 1741 
L 678 1741 
L 678 2272 
L 2419 2272 
L 2419 4013 
L 2944 4013 
z
" transform="scale(0.015625)"/>
     </defs>
     <use xlink:href="#DejaVuSans-44"/>
     <use xlink:href="#DejaVuSans-72" transform="translate(77.001953 0)"/>
     <use xlink:href="#DejaVuSans-69" transform="translate(118.115234 0)"/>
     <use xlink:href="#DejaVuSans-66" transform="translate(145.898438 0)"/>
     <use xlink:href="#DejaVuSans-74" transform="translate(179.353516 0)"/>
     <use xlink:href="#DejaVuSans-5b" transform="translate(218.5625 0)"/>
     <use xlink:href="#DejaVuSans-4e" transform="translate(257.576172 0)"/>
     <use xlink:href="#DejaVuSans-2b" transform="translate(332.380859 0)"/>
     <use xlink:href="#DejaVuSans-31" transform="translate(416.169922 0)"/>
     <use xlink:href="#DejaVuSans-5d" transform="translate(479.792969 0)"/>
    </g>
   </g>
  </g>
  <g id="axis3d_3">
   <g id="line2d_23">
    <path d="M 42.044907 457.385195 
L 33.681164 244.517766 
" style="fill: none; stroke: #000000; stroke-width: 0.8; stroke-linecap: square"/>
   </g>
   <g id="xtick_21">
    <g id="line2d_24">
     <path d="M 43.608287 456.447777 
L 38.911543 459.263991 
" style="fill: none; stroke: #000000; stroke-width: 0.8; stroke-linecap: square"/>
    </g>
    <g id="text_23">
     <!-- 0 -->
     <g transform="translate(18.90229 466.59781) scale(0.1 -0.1)">
      <use xlink:href="#DejaVuSans-30"/>
     </g>
    </g>
   </g>
   <g id="xtick_22">
    <g id="line2d_25">
     <path d="M 42.538186 429.00776 
L 37.81552 431.779902 
" style="fill: none; stroke: #000000; stroke-width: 0.8; stroke-linecap: square"/>
    </g>
    <g id="text_24">
     <!-- 2 -->
     <g transform="translate(17.721768 439.11786) scale(0.1 -0.1)">
      <use xlink:href="#DejaVuSans-32"/>
     </g>
    </g>
   </g>
   <g id="xtick_23">
    <g id="line2d_26">
     <path d="M 41.457276 401.290598 
L 36.708404 404.01763 
" style="fill: none; stroke: #000000; stroke-width: 0.8; stroke-linecap: square"/>
    </g>
    <g id="text_25">
     <!-- 4 -->
     <g transform="translate(16.5293 411.359824) scale(0.1 -0.1)">
      <use xlink:href="#DejaVuSans-34"/>
     </g>
    </g>
   </g>
   <g id="xtick_24">
    <g id="line2d_27">
     <path d="M 40.365394 373.292068 
L 35.590025 375.972929 
" style="fill: none; stroke: #000000; stroke-width: 0.8; stroke-linecap: square"/>
    </g>
    <g id="text_26">
     <!-- 6 -->
     <g transform="translate(15.324703 383.319459) scale(0.1 -0.1)">
      <use xlink:href="#DejaVuSans-36"/>
     </g>
    </g>
   </g>
   <g id="xtick_25">
    <g id="line2d_28">
     <path d="M 39.262372 345.007867 
L 34.460211 347.641467 
" style="fill: none; stroke: #000000; stroke-width: 0.8; stroke-linecap: square"/>
    </g>
    <g id="text_27">
     <!-- 8 -->
     <g transform="translate(14.107791 354.992435) scale(0.1 -0.1)">
      <use xlink:href="#DejaVuSans-38"/>
     </g>
    </g>
   </g>
   <g id="xtick_26">
    <g id="line2d_29">
     <path d="M 38.148037 316.433597 
L 33.318785 319.018825 
" style="fill: none; stroke: #000000; stroke-width: 0.8; stroke-linecap: square"/>
    </g>
    <g id="text_28">
     <!-- 10 -->
     <g transform="translate(9.697125 326.374336) scale(0.1 -0.1)">
      <use xlink:href="#DejaVuSans-31"/>
      <use xlink:href="#DejaVuSans-30" transform="translate(63.623047 0)"/>
     </g>
    </g>
   </g>
   <g id="xtick_27">
    <g id="line2d_30">
     <path d="M 37.022216 287.564776 
L 32.165567 290.100488 
" style="fill: none; stroke: #000000; stroke-width: 0.8; stroke-linecap: square"/>
    </g>
    <g id="text_29">
     <!-- 12 -->
     <g transform="translate(8.45501 297.460649) scale(0.1 -0.1)">
      <use xlink:href="#DejaVuSans-31"/>
      <use xlink:href="#DejaVuSans-32" transform="translate(63.623047 0)"/>
     </g>
    </g>
   </g>
   <g id="xtick_28">
    <g id="line2d_31">
     <path d="M 35.884729 258.396824 
L 31.000373 260.881852 
" style="fill: none; stroke: #000000; stroke-width: 0.8; stroke-linecap: square"/>
    </g>
    <g id="text_30">
     <!-- 14 -->
     <g transform="translate(7.2 268.246774) scale(0.1 -0.1)">
      <use xlink:href="#DejaVuSans-31"/>
      <use xlink:href="#DejaVuSans-34" transform="translate(63.623047 0)"/>
     </g>
    </g>
   </g>
   <g id="text_31">
    <!-- Turn -->
    <g transform="translate(-18.737205 359.179506) scale(0.1 -0.1)">
     <defs>
      <path id="DejaVuSans-54" d="M -19 4666 
L 3928 4666 
L 3928 4134 
L 2272 4134 
L 2272 0 
L 1638 0 
L 1638 4134 
L -19 4134 
L -19 4666 
z
" transform="scale(0.015625)"/>
      <path id="DejaVuSans-75" d="M 544 1381 
L 544 3500 
L 1119 3500 
L 1119 1403 
Q 1119 906 1312 657 
Q 1506 409 1894 409 
Q 2359 409 2629 706 
Q 2900 1003 2900 1516 
L 2900 3500 
L 3475 3500 
L 3475 0 
L 2900 0 
L 2900 538 
Q 2691 219 2414 64 
Q 2138 -91 1772 -91 
Q 1169 -91 856 284 
Q 544 659 544 1381 
z
M 1991 3584 
L 1991 3584 
z
" transform="scale(0.015625)"/>
      <path id="DejaVuSans-6e" d="M 3513 2113 
L 3513 0 
L 2938 0 
L 2938 2094 
Q 2938 2591 2744 2837 
Q 2550 3084 2163 3084 
Q 1697 3084 1428 2787 
Q 1159 2491 1159 1978 
L 1159 0 
L 581 0 
L 581 3500 
L 1159 3500 
L 1159 2956 
Q 1366 3272 1645 3428 
Q 1925 3584 2291 3584 
Q 2894 3584 3203 3211 
Q 3513 2838 3513 2113 
z
" transform="scale(0.015625)"/>
     </defs>
     <use xlink:href="#DejaVuSans-54"/>
     <use xlink:href="#DejaVuSans-75" transform="translate(45.958984 0)"/>
     <use xlink:href="#DejaVuSans-72" transform="translate(109.337891 0)"/>
     <use xlink:href="#DejaVuSans-6e" transform="translate(148.701172 0)"/>
    </g>
   </g>
  </g>
  <g id="axes_1">
   <g id="text_32">
    <!-- 3D BASIN: RAW -->
    <g transform="translate(197.937639 83.042625) scale(0.12 -0.12)">
     <defs>
      <path id="DejaVuSans-Bold-33" d="M 2981 2516 
Q 3453 2394 3698 2092 
Q 3944 1791 3944 1325 
Q 3944 631 3412 270 
Q 2881 -91 1863 -91 
Q 1503 -91 1142 -33 
Q 781 25 428 141 
L 428 1069 
Q 766 900 1098 814 
Q 1431 728 1753 728 
Q 2231 728 2486 893 
Q 2741 1059 2741 1369 
Q 2741 1688 2480 1852 
Q 2219 2016 1709 2016 
L 1228 2016 
L 1228 2791 
L 1734 2791 
Q 2188 2791 2409 2933 
Q 2631 3075 2631 3366 
Q 2631 3634 2415 3781 
Q 2200 3928 1806 3928 
Q 1516 3928 1219 3862 
Q 922 3797 628 3669 
L 628 4550 
Q 984 4650 1334 4700 
Q 1684 4750 2022 4750 
Q 2931 4750 3382 4451 
Q 3834 4153 3834 3553 
Q 3834 3144 3618 2883 
Q 3403 2622 2981 2516 
z
" transform="scale(0.015625)"/>
      <path id="DejaVuSans-Bold-44" d="M 1791 3756 
L 1791 909 
L 2222 909 
Q 2959 909 3348 1275 
Q 3738 1641 3738 2338 
Q 3738 3031 3350 3393 
Q 2963 3756 2222 3756 
L 1791 3756 
z
M 588 4666 
L 1856 4666 
Q 2919 4666 3439 4514 
Q 3959 4363 4331 4000 
Q 4659 3684 4818 3271 
Q 4978 2859 4978 2338 
Q 4978 1809 4818 1395 
Q 4659 981 4331 666 
Q 3956 303 3431 151 
Q 2906 0 1856 0 
L 588 0 
L 588 4666 
z
" transform="scale(0.015625)"/>
      <path id="DejaVuSans-Bold-20" transform="scale(0.015625)"/>
      <path id="DejaVuSans-Bold-42" d="M 2456 2859 
Q 2741 2859 2887 2984 
Q 3034 3109 3034 3353 
Q 3034 3594 2887 3720 
Q 2741 3847 2456 3847 
L 1791 3847 
L 1791 2859 
L 2456 2859 
z
M 2497 819 
Q 2859 819 3042 972 
Q 3225 1125 3225 1434 
Q 3225 1738 3044 1889 
Q 2863 2041 2497 2041 
L 1791 2041 
L 1791 819 
L 2497 819 
z
M 3616 2497 
Q 4003 2384 4215 2081 
Q 4428 1778 4428 1338 
Q 4428 663 3972 331 
Q 3516 0 2584 0 
L 588 0 
L 588 4666 
L 2394 4666 
Q 3366 4666 3802 4372 
Q 4238 4078 4238 3431 
Q 4238 3091 4078 2852 
Q 3919 2613 3616 2497 
z
" transform="scale(0.015625)"/>
      <path id="DejaVuSans-Bold-41" d="M 3419 850 
L 1538 850 
L 1241 0 
L 31 0 
L 1759 4666 
L 3194 4666 
L 4922 0 
L 3713 0 
L 3419 850 
z
M 1838 1716 
L 3116 1716 
L 2478 3572 
L 1838 1716 
z
" transform="scale(0.015625)"/>
      <path id="DejaVuSans-Bold-53" d="M 3834 4519 
L 3834 3531 
Q 3450 3703 3084 3790 
Q 2719 3878 2394 3878 
Q 1963 3878 1756 3759 
Q 1550 3641 1550 3391 
Q 1550 3203 1689 3098 
Q 1828 2994 2194 2919 
L 2706 2816 
Q 3484 2659 3812 2340 
Q 4141 2022 4141 1434 
Q 4141 663 3683 286 
Q 3225 -91 2284 -91 
Q 1841 -91 1394 -6 
Q 947 78 500 244 
L 500 1259 
Q 947 1022 1364 901 
Q 1781 781 2169 781 
Q 2563 781 2772 912 
Q 2981 1044 2981 1288 
Q 2981 1506 2839 1625 
Q 2697 1744 2272 1838 
L 1806 1941 
Q 1106 2091 782 2419 
Q 459 2747 459 3303 
Q 459 4000 909 4375 
Q 1359 4750 2203 4750 
Q 2588 4750 2994 4692 
Q 3400 4634 3834 4519 
z
" transform="scale(0.015625)"/>
      <path id="DejaVuSans-Bold-49" d="M 588 4666 
L 1791 4666 
L 1791 0 
L 588 0 
L 588 4666 
z
" transform="scale(0.015625)"/>
      <path id="DejaVuSans-Bold-4e" d="M 588 4666 
L 1931 4666 
L 3628 1466 
L 3628 4666 
L 4769 4666 
L 4769 0 
L 3425 0 
L 1728 3200 
L 1728 0 
L 588 0 
L 588 4666 
z
" transform="scale(0.015625)"/>
      <path id="DejaVuSans-Bold-3a" d="M 716 3500 
L 1844 3500 
L 1844 2291 
L 716 2291 
L 716 3500 
z
M 716 1209 
L 1844 1209 
L 1844 0 
L 716 0 
L 716 1209 
z
" transform="scale(0.015625)"/>
      <path id="DejaVuSans-Bold-52" d="M 2297 2597 
Q 2675 2597 2839 2737 
Q 3003 2878 3003 3200 
Q 3003 3519 2839 3656 
Q 2675 3794 2297 3794 
L 1791 3794 
L 1791 2597 
L 2297 2597 
z
M 1791 1766 
L 1791 0 
L 588 0 
L 588 4666 
L 2425 4666 
Q 3347 4666 3776 4356 
Q 4206 4047 4206 3378 
Q 4206 2916 3982 2619 
Q 3759 2322 3309 2181 
Q 3556 2125 3751 1926 
Q 3947 1728 4147 1325 
L 4800 0 
L 3519 0 
L 2950 1159 
Q 2778 1509 2601 1637 
Q 2425 1766 2131 1766 
L 1791 1766 
z
" transform="scale(0.015625)"/>
      <path id="DejaVuSans-Bold-57" d="M 191 4666 
L 1344 4666 
L 2150 1275 
L 2950 4666 
L 4109 4666 
L 4909 1275 
L 5716 4666 
L 6859 4666 
L 5759 0 
L 4372 0 
L 3525 3547 
L 2688 0 
L 1300 0 
L 191 4666 
z
" transform="scale(0.015625)"/>
     </defs>
     <use xlink:href="#DejaVuSans-Bold-33"/>
     <use xlink:href="#DejaVuSans-Bold-44" transform="translate(69.580078 0)"/>
     <use xlink:href="#DejaVuSans-Bold-20" transform="translate(152.587891 0)"/>
     <use xlink:href="#DejaVuSans-Bold-42" transform="translate(187.402344 0)"/>
     <use xlink:href="#DejaVuSans-Bold-41" transform="translate(263.623047 0)"/>
     <use xlink:href="#DejaVuSans-Bold-53" transform="translate(341.015625 0)"/>
     <use xlink:href="#DejaVuSans-Bold-49" transform="translate(413.037109 0)"/>
     <use xlink:href="#DejaVuSans-Bold-4e" transform="translate(450.244141 0)"/>
     <use xlink:href="#DejaVuSans-Bold-3a" transform="translate(533.935547 0)"/>
     <use xlink:href="#DejaVuSans-Bold-20" transform="translate(573.925781 0)"/>
     <use xlink:href="#DejaVuSans-Bold-52" transform="translate(608.740234 0)"/>
     <use xlink:href="#DejaVuSans-Bold-41" transform="translate(685.742188 0)"/>
     <use xlink:href="#DejaVuSans-Bold-57" transform="translate(758.634766 0)"/>
    </g>
    <!-- (STABLE: 0, VOLATILE: 0) -->
    <g transform="translate(165.919202 96.48) scale(0.12 -0.12)">
     <defs>
      <path id="DejaVuSans-Bold-28" d="M 2413 -844 
L 1484 -844 
Q 1006 -72 778 623 
Q 550 1319 550 2003 
Q 550 2688 779 3389 
Q 1009 4091 1484 4856 
L 2413 4856 
Q 2013 4116 1813 3408 
Q 1613 2700 1613 2009 
Q 1613 1319 1811 609 
Q 2009 -100 2413 -844 
z
" transform="scale(0.015625)"/>
      <path id="DejaVuSans-Bold-54" d="M 31 4666 
L 4331 4666 
L 4331 3756 
L 2784 3756 
L 2784 0 
L 1581 0 
L 1581 3756 
L 31 3756 
L 31 4666 
z
" transform="scale(0.015625)"/>
      <path id="DejaVuSans-Bold-4c" d="M 588 4666 
L 1791 4666 
L 1791 909 
L 3903 909 
L 3903 0 
L 588 0 
L 588 4666 
z
" transform="scale(0.015625)"/>
      <path id="DejaVuSans-Bold-45" d="M 588 4666 
L 3834 4666 
L 3834 3756 
L 1791 3756 
L 1791 2888 
L 3713 2888 
L 3713 1978 
L 1791 1978 
L 1791 909 
L 3903 909 
L 3903 0 
L 588 0 
L 588 4666 
z
" transform="scale(0.015625)"/>
      <path id="DejaVuSans-Bold-30" d="M 2944 2338 
Q 2944 3213 2780 3570 
Q 2616 3928 2228 3928 
Q 1841 3928 1675 3570 
Q 1509 3213 1509 2338 
Q 1509 1453 1675 1090 
Q 1841 728 2228 728 
Q 2613 728 2778 1090 
Q 2944 1453 2944 2338 
z
M 4147 2328 
Q 4147 1169 3647 539 
Q 3147 -91 2228 -91 
Q 1306 -91 806 539 
Q 306 1169 306 2328 
Q 306 3491 806 4120 
Q 1306 4750 2228 4750 
Q 3147 4750 3647 4120 
Q 4147 3491 4147 2328 
z
" transform="scale(0.015625)"/>
      <path id="DejaVuSans-Bold-2c" d="M 653 1209 
L 1778 1209 
L 1778 256 
L 1006 -909 
L 341 -909 
L 653 256 
L 653 1209 
z
" transform="scale(0.015625)"/>
      <path id="DejaVuSans-Bold-56" d="M 31 4666 
L 1241 4666 
L 2478 1222 
L 3713 4666 
L 4922 4666 
L 3194 0 
L 1759 0 
L 31 4666 
z
" transform="scale(0.015625)"/>
      <path id="DejaVuSans-Bold-4f" d="M 2719 3878 
Q 2169 3878 1866 3472 
Q 1563 3066 1563 2328 
Q 1563 1594 1866 1187 
Q 2169 781 2719 781 
Q 3272 781 3575 1187 
Q 3878 1594 3878 2328 
Q 3878 3066 3575 3472 
Q 3272 3878 2719 3878 
z
M 2719 4750 
Q 3844 4750 4481 4106 
Q 5119 3463 5119 2328 
Q 5119 1197 4481 553 
Q 3844 -91 2719 -91 
Q 1597 -91 958 553 
Q 319 1197 319 2328 
Q 319 3463 958 4106 
Q 1597 4750 2719 4750 
z
" transform="scale(0.015625)"/>
      <path id="DejaVuSans-Bold-29" d="M 513 -844 
Q 913 -100 1113 609 
Q 1313 1319 1313 2009 
Q 1313 2700 1113 3408 
Q 913 4116 513 4856 
L 1441 4856 
Q 1916 4091 2145 3389 
Q 2375 2688 2375 2003 
Q 2375 1319 2147 623 
Q 1919 -72 1441 -844 
L 513 -844 
z
" transform="scale(0.015625)"/>
     </defs>
     <use xlink:href="#DejaVuSans-Bold-28"/>
     <use xlink:href="#DejaVuSans-Bold-53" transform="translate(45.703125 0)"/>
     <use xlink:href="#DejaVuSans-Bold-54" transform="translate(117.724609 0)"/>
     <use xlink:href="#DejaVuSans-Bold-41" transform="translate(178.1875 0)"/>
     <use xlink:href="#DejaVuSans-Bold-42" transform="translate(255.580078 0)"/>
     <use xlink:href="#DejaVuSans-Bold-4c" transform="translate(331.800781 0)"/>
     <use xlink:href="#DejaVuSans-Bold-45" transform="translate(395.521484 0)"/>
     <use xlink:href="#DejaVuSans-Bold-3a" transform="translate(463.832031 0)"/>
     <use xlink:href="#DejaVuSans-Bold-20" transform="translate(503.822266 0)"/>
     <use xlink:href="#DejaVuSans-Bold-30" transform="translate(538.636719 0)"/>
     <use xlink:href="#DejaVuSans-Bold-2c" transform="translate(608.216797 0)"/>
     <use xlink:href="#DejaVuSans-Bold-20" transform="translate(646.205078 0)"/>
     <use xlink:href="#DejaVuSans-Bold-56" transform="translate(681.019531 0)"/>
     <use xlink:href="#DejaVuSans-Bold-4f" transform="translate(756.662109 0)"/>
     <use xlink:href="#DejaVuSans-Bold-4c" transform="translate(841.671875 0)"/>
     <use xlink:href="#DejaVuSans-Bold-41" transform="translate(905.392578 0)"/>
     <use xlink:href="#DejaVuSans-Bold-54" transform="translate(975.035156 0)"/>
     <use xlink:href="#DejaVuSans-Bold-49" transform="translate(1043.248047 0)"/>
     <use xlink:href="#DejaVuSans-Bold-4c" transform="translate(1080.455078 0)"/>
     <use xlink:href="#DejaVuSans-Bold-45" transform="translate(1144.175781 0)"/>
     <use xlink:href="#DejaVuSans-Bold-3a" transform="translate(1212.486328 0)"/>
     <use xlink:href="#DejaVuSans-Bold-20" transform="translate(1252.476562 0)"/>
     <use xlink:href="#DejaVuSans-Bold-30" transform="translate(1287.291016 0)"/>
     <use xlink:href="#DejaVuSans-Bold-29" transform="translate(1356.871094 0)"/>
    </g>
   </g>
  </g>
  <g id="patch_6">
   <path d="M 645.439287 583.92 
L 1126.879287 583.92 
L 1126.879287 102.48 
L 645.439287 102.48 
z
" style="fill: #ffffff"/>
  </g>
  <g id="pane3d_4">
   <g id="patch_7">
    <path d="M 857.89329 349.598665 
L 1101.690872 423.134092 
L 1109.622766 214.63896 
L 856.651106 150.692042 
" style="fill: #f2f2f2; opacity: 0.5; stroke: #f2f2f2; stroke-linejoin: miter"/>
   </g>
  </g>
  <g id="pane3d_5">
   <g id="patch_8">
    <path d="M 857.89329 349.598665 
L 678.13218 457.385195 
L 669.768437 244.517766 
L 856.651106 150.692042 
" style="fill: #e6e6e6; opacity: 0.5; stroke: #e6e6e6; stroke-linejoin: miter"/>
   </g>
  </g>
  <g id="pane3d_6">
   <g id="patch_9">
    <path d="M 857.89329 349.598665 
L 678.13218 457.385195 
L 932.973768 544.875377 
L 1101.690872 423.134092 
" style="fill: #ececec; opacity: 0.5; stroke: #ececec; stroke-linejoin: miter"/>
   </g>
  </g>
  <g id="grid3d_4">
   <g id="Line3DCollection_4">
    <path d="M 1101.690872 423.134092 
L 857.89329 349.598665 
L 856.651106 150.692042 
" style="fill: none; stroke: #b0b0b0; stroke-width: 0.8"/>
    <path d="M 1084.811191 435.313971 
L 839.822988 360.433795 
L 837.917987 160.097133 
" style="fill: none; stroke: #b0b0b0; stroke-width: 0.8"/>
    <path d="M 1067.612209 447.724249 
L 821.430545 371.462085 
L 818.83876 169.67599 
" style="fill: none; stroke: #b0b0b0; stroke-width: 0.8"/>
    <path d="M 1050.084781 460.371524 
L 802.707268 382.688746 
L 799.403743 179.433473 
" style="fill: none; stroke: #b0b0b0; stroke-width: 0.8"/>
    <path d="M 1032.219408 473.262651 
L 783.644152 394.119178 
L 779.602891 189.374626 
" style="fill: none; stroke: #b0b0b0; stroke-width: 0.8"/>
    <path d="M 1014.006219 486.404751 
L 764.231857 405.758981 
L 759.425776 199.504685 
" style="fill: none; stroke: #b0b0b0; stroke-width: 0.8"/>
    <path d="M 995.434958 499.805224 
L 744.460703 417.61396 
L 738.86157 209.829085 
" style="fill: none; stroke: #b0b0b0; stroke-width: 0.8"/>
    <path d="M 976.494962 513.471768 
L 724.320644 429.690137 
L 717.899027 220.353474 
" style="fill: none; stroke: #b0b0b0; stroke-width: 0.8"/>
    <path d="M 957.175136 527.412384 
L 703.801259 441.993762 
L 696.526458 231.083718 
" style="fill: none; stroke: #b0b0b0; stroke-width: 0.8"/>
    <path d="M 937.463941 541.635401 
L 682.89173 454.531322 
L 674.731716 242.025918 
" style="fill: none; stroke: #b0b0b0; stroke-width: 0.8"/>
   </g>
  </g>
  <g id="grid3d_5">
   <g id="Line3DCollection_5">
    <path d="M 856.651106 150.692042 
L 857.89329 349.598665 
L 678.13218 457.385195 
" style="fill: none; stroke: #b0b0b0; stroke-width: 0.8"/>
    <path d="M 882.63187 157.259536 
L 882.980072 357.165463 
L 704.231354 466.345355 
" style="fill: none; stroke: #b0b0b0; stroke-width: 0.8"/>
    <path d="M 908.946892 163.911524 
L 908.378339 364.826214 
L 730.68345 475.426678 
" style="fill: none; stroke: #b0b0b0; stroke-width: 0.8"/>
    <path d="M 935.602664 170.649648 
L 934.09393 372.582677 
L 757.495674 484.631637 
" style="fill: none; stroke: #b0b0b0; stroke-width: 0.8"/>
    <path d="M 962.605848 177.475592 
L 960.132828 380.436658 
L 784.675432 493.962775 
" style="fill: none; stroke: #b0b0b0; stroke-width: 0.8"/>
    <path d="M 989.96328 184.391084 
L 986.50117 388.390007 
L 812.230332 503.422704 
" style="fill: none; stroke: #b0b0b0; stroke-width: 0.8"/>
    <path d="M 1017.681977 191.397898 
L 1013.205246 396.444622 
L 840.168196 513.014108 
" style="fill: none; stroke: #b0b0b0; stroke-width: 0.8"/>
    <path d="M 1045.769143 198.497854 
L 1040.251511 404.602449 
L 868.497063 522.739749 
" style="fill: none; stroke: #b0b0b0; stroke-width: 0.8"/>
    <path d="M 1074.232174 205.692822 
L 1067.646584 412.865486 
L 897.225198 532.602463 
" style="fill: none; stroke: #b0b0b0; stroke-width: 0.8"/>
    <path d="M 1103.078666 212.984723 
L 1095.397256 421.23578 
L 926.361104 542.60517 
" style="fill: none; stroke: #b0b0b0; stroke-width: 0.8"/>
   </g>
  </g>
  <g id="grid3d_6">
   <g id="Line3DCollection_6">
    <path d="M 678.13218 457.385195 
L 857.89329 349.598665 
L 1101.690872 423.134092 
" style="fill: none; stroke: #b0b0b0; stroke-width: 0.8"/>
    <path d="M 677.053461 429.930502 
L 857.732639 323.874225 
L 1102.714784 396.219879 
" style="fill: none; stroke: #b0b0b0; stroke-width: 0.8"/>
    <path d="M 675.96384 402.198317 
L 857.570497 297.910981 
L 1103.748776 369.04069 
" style="fill: none; stroke: #b0b0b0; stroke-width: 0.8"/>
    <path d="M 674.86315 374.184413 
L 857.406843 271.705594 
L 1104.792999 341.592592 
" style="fill: none; stroke: #b0b0b0; stroke-width: 0.8"/>
    <path d="M 673.751221 345.884474 
L 857.241655 245.254659 
L 1105.847605 313.871574 
" style="fill: none; stroke: #b0b0b0; stroke-width: 0.8"/>
    <path d="M 672.627881 317.294097 
L 857.074913 218.554709 
L 1106.91275 285.873545 
" style="fill: none; stroke: #b0b0b0; stroke-width: 0.8"/>
    <path d="M 671.492953 288.408788 
L 856.906593 191.602211 
L 1107.988591 257.594333 
" style="fill: none; stroke: #b0b0b0; stroke-width: 0.8"/>
    <path d="M 670.346256 259.22396 
L 856.736673 164.393565 
L 1109.075292 229.02968 
" style="fill: none; stroke: #b0b0b0; stroke-width: 0.8"/>
   </g>
  </g>
  <g id="axis3d_4">
   <g id="line2d_32">
    <path d="M 1101.690872 423.134092 
L 932.973768 544.875377 
" style="fill: none; stroke: #000000; stroke-width: 0.8; stroke-linecap: square"/>
   </g>
   <g id="xtick_29">
    <g id="line2d_33">
     <path d="M 1099.624538 422.510834 
L 1105.829492 424.382403 
" style="fill: none; stroke: #000000; stroke-width: 0.8; stroke-linecap: square"/>
    </g>
    <g id="text_33">
     <!-- 0.0 -->
     <g transform="translate(1105.252753 443.533497) scale(0.1 -0.1)">
      <use xlink:href="#DejaVuSans-30"/>
      <use xlink:href="#DejaVuSans-2e" transform="translate(63.623047 0)"/>
      <use xlink:href="#DejaVuSans-30" transform="translate(95.410156 0)"/>
     </g>
    </g>
   </g>
   <g id="xtick_30">
    <g id="line2d_34">
     <path d="M 1082.733674 434.678983 
L 1088.972264 436.585796 
" style="fill: none; stroke: #000000; stroke-width: 0.8; stroke-linecap: square"/>
    </g>
    <g id="text_34">
     <!-- 0.2 -->
     <g transform="translate(1088.462759 455.846654) scale(0.1 -0.1)">
      <use xlink:href="#DejaVuSans-30"/>
      <use xlink:href="#DejaVuSans-2e" transform="translate(63.623047 0)"/>
      <use xlink:href="#DejaVuSans-32" transform="translate(95.410156 0)"/>
     </g>
    </g>
   </g>
   <g id="xtick_31">
    <g id="line2d_35">
     <path d="M 1065.523455 447.077195 
L 1071.795849 449.020257 
" style="fill: none; stroke: #000000; stroke-width: 0.8; stroke-linecap: square"/>
    </g>
    <g id="text_35">
     <!-- 0.4 -->
     <g transform="translate(1071.354815 468.392984) scale(0.1 -0.1)">
      <use xlink:href="#DejaVuSans-30"/>
      <use xlink:href="#DejaVuSans-2e" transform="translate(63.623047 0)"/>
      <use xlink:href="#DejaVuSans-34" transform="translate(95.410156 0)"/>
     </g>
    </g>
   </g>
   <g id="xtick_32">
    <g id="line2d_36">
     <path d="M 1047.984737 459.712057 
L 1054.291094 461.692412 
" style="fill: none; stroke: #000000; stroke-width: 0.8; stroke-linecap: square"/>
    </g>
    <g id="text_36">
     <!-- 0.6 -->
     <g transform="translate(1053.919801 481.179175) scale(0.1 -0.1)">
      <use xlink:href="#DejaVuSans-30"/>
      <use xlink:href="#DejaVuSans-2e" transform="translate(63.623047 0)"/>
      <use xlink:href="#DejaVuSans-36" transform="translate(95.410156 0)"/>
     </g>
    </g>
   </g>
   <g id="xtick_33">
    <g id="line2d_37">
     <path d="M 1030.108023 472.590411 
L 1036.448493 474.609143 
" style="fill: none; stroke: #000000; stroke-width: 0.8; stroke-linecap: square"/>
    </g>
    <g id="text_37">
     <!-- 0.8 -->
     <g transform="translate(1036.148248 494.212171) scale(0.1 -0.1)">
      <use xlink:href="#DejaVuSans-30"/>
      <use xlink:href="#DejaVuSans-2e" transform="translate(63.623047 0)"/>
      <use xlink:href="#DejaVuSans-38" transform="translate(95.410156 0)"/>
     </g>
    </g>
   </g>
   <g id="xtick_34">
    <g id="line2d_38">
     <path d="M 1011.883449 485.719362 
L 1018.258172 487.777598 
" style="fill: none; stroke: #000000; stroke-width: 0.8; stroke-linecap: square"/>
    </g>
    <g id="text_38">
     <!-- 1.0 -->
     <g transform="translate(1018.030317 507.499188) scale(0.1 -0.1)">
      <use xlink:href="#DejaVuSans-31"/>
      <use xlink:href="#DejaVuSans-2e" transform="translate(63.623047 0)"/>
      <use xlink:href="#DejaVuSans-30" transform="translate(95.410156 0)"/>
     </g>
    </g>
   </g>
   <g id="xtick_35">
    <g id="line2d_39">
     <path d="M 993.300761 499.106299 
L 999.709864 501.205208 
" style="fill: none; stroke: #000000; stroke-width: 0.8; stroke-linecap: square"/>
    </g>
    <g id="text_39">
     <!-- 1.2 -->
     <g transform="translate(999.555781 521.047726) scale(0.1 -0.1)">
      <use xlink:href="#DejaVuSans-31"/>
      <use xlink:href="#DejaVuSans-2e" transform="translate(63.623047 0)"/>
      <use xlink:href="#DejaVuSans-32" transform="translate(95.410156 0)"/>
     </g>
    </g>
   </g>
   <g id="xtick_36">
    <g id="line2d_40">
     <path d="M 974.349299 512.758899 
L 980.792897 514.899701 
" style="fill: none; stroke: #000000; stroke-width: 0.8; stroke-linecap: square"/>
    </g>
    <g id="text_40">
     <!-- 1.4 -->
     <g transform="translate(980.714008 534.865581) scale(0.1 -0.1)">
      <use xlink:href="#DejaVuSans-31"/>
      <use xlink:href="#DejaVuSans-2e" transform="translate(63.623047 0)"/>
      <use xlink:href="#DejaVuSans-34" transform="translate(95.410156 0)"/>
     </g>
    </g>
   </g>
   <g id="xtick_37">
    <g id="line2d_41">
     <path d="M 955.017976 526.685151 
L 961.496171 528.869112 
" style="fill: none; stroke: #000000; stroke-width: 0.8; stroke-linecap: square"/>
    </g>
    <g id="text_41">
     <!-- 1.6 -->
     <g transform="translate(961.493938 548.960866) scale(0.1 -0.1)">
      <use xlink:href="#DejaVuSans-31"/>
      <use xlink:href="#DejaVuSans-2e" transform="translate(63.623047 0)"/>
      <use xlink:href="#DejaVuSans-36" transform="translate(95.410156 0)"/>
     </g>
    </g>
   </g>
   <g id="xtick_38">
    <g id="line2d_42">
     <path d="M 935.295254 540.893366 
L 941.808132 543.121803 
" style="fill: none; stroke: #000000; stroke-width: 0.8; stroke-linecap: square"/>
    </g>
    <g id="text_42">
     <!-- 1.8 -->
     <g transform="translate(941.884062 563.34202) scale(0.1 -0.1)">
      <use xlink:href="#DejaVuSans-31"/>
      <use xlink:href="#DejaVuSans-2e" transform="translate(63.623047 0)"/>
      <use xlink:href="#DejaVuSans-38" transform="translate(95.410156 0)"/>
     </g>
    </g>
   </g>
   <g id="text_43">
    <!-- Drift[N] -->
    <g transform="translate(1034.691606 524.8134) rotate(-35.813105) scale(0.1 -0.1)">
     <use xlink:href="#DejaVuSans-44"/>
     <use xlink:href="#DejaVuSans-72" transform="translate(77.001953 0)"/>
     <use xlink:href="#DejaVuSans-69" transform="translate(118.115234 0)"/>
     <use xlink:href="#DejaVuSans-66" transform="translate(145.898438 0)"/>
     <use xlink:href="#DejaVuSans-74" transform="translate(179.353516 0)"/>
     <use xlink:href="#DejaVuSans-5b" transform="translate(218.5625 0)"/>
     <use xlink:href="#DejaVuSans-4e" transform="translate(257.576172 0)"/>
     <use xlink:href="#DejaVuSans-5d" transform="translate(332.380859 0)"/>
    </g>
   </g>
  </g>
  <g id="axis3d_5">
   <g id="line2d_43">
    <path d="M 678.13218 457.385195 
L 932.973768 544.875377 
" style="fill: none; stroke: #000000; stroke-width: 0.8; stroke-linecap: square"/>
   </g>
   <g id="xtick_39">
    <g id="line2d_44">
     <path d="M 679.695559 456.447777 
L 674.998815 459.263991 
" style="fill: none; stroke: #000000; stroke-width: 0.8; stroke-linecap: square"/>
    </g>
    <g id="text_44">
     <!-- 0.0 -->
     <g transform="translate(661.561047 479.791939) scale(0.1 -0.1)">
      <use xlink:href="#DejaVuSans-30"/>
      <use xlink:href="#DejaVuSans-2e" transform="translate(63.623047 0)"/>
      <use xlink:href="#DejaVuSans-30" transform="translate(95.410156 0)"/>
     </g>
    </g>
   </g>
   <g id="xtick_40">
    <g id="line2d_45">
     <path d="M 705.786765 465.395309 
L 701.113916 468.249489 
" style="fill: none; stroke: #000000; stroke-width: 0.8; stroke-linecap: square"/>
    </g>
    <g id="text_45">
     <!-- 0.2 -->
     <g transform="translate(687.663031 488.872664) scale(0.1 -0.1)">
      <use xlink:href="#DejaVuSans-30"/>
      <use xlink:href="#DejaVuSans-2e" transform="translate(63.623047 0)"/>
      <use xlink:href="#DejaVuSans-32" transform="translate(95.410156 0)"/>
     </g>
    </g>
   </g>
   <g id="xtick_41">
    <g id="line2d_46">
     <path d="M 732.230533 474.463746 
L 727.582658 477.356666 
" style="fill: none; stroke: #000000; stroke-width: 0.8; stroke-linecap: square"/>
    </g>
    <g id="text_46">
     <!-- 0.4 -->
     <g transform="translate(714.118803 498.07647) scale(0.1 -0.1)">
      <use xlink:href="#DejaVuSans-30"/>
      <use xlink:href="#DejaVuSans-2e" transform="translate(63.623047 0)"/>
      <use xlink:href="#DejaVuSans-34" transform="translate(95.410156 0)"/>
     </g>
    </g>
   </g>
   <g id="xtick_42">
    <g id="line2d_47">
     <path d="M 759.034058 483.655555 
L 754.412273 486.588009 
" style="fill: none; stroke: #000000; stroke-width: 0.8; stroke-linecap: square"/>
    </g>
    <g id="text_47">
     <!-- 0.6 -->
     <g transform="translate(740.935604 507.405876) scale(0.1 -0.1)">
      <use xlink:href="#DejaVuSans-30"/>
      <use xlink:href="#DejaVuSans-2e" transform="translate(63.623047 0)"/>
      <use xlink:href="#DejaVuSans-36" transform="translate(95.410156 0)"/>
     </g>
    </g>
   </g>
   <g id="xtick_43">
    <g id="line2d_48">
     <path d="M 786.204732 492.973272 
L 781.610192 495.946075 
" style="fill: none; stroke: #000000; stroke-width: 0.8; stroke-linecap: square"/>
    </g>
    <g id="text_48">
     <!-- 0.8 -->
     <g transform="translate(768.120876 516.863471) scale(0.1 -0.1)">
      <use xlink:href="#DejaVuSans-30"/>
      <use xlink:href="#DejaVuSans-2e" transform="translate(63.623047 0)"/>
      <use xlink:href="#DejaVuSans-38" transform="translate(95.410156 0)"/>
     </g>
    </g>
   </g>
   <g id="xtick_44">
    <g id="line2d_49">
     <path d="M 813.750151 502.419501 
L 809.184051 505.433493 
" style="fill: none; stroke: #000000; stroke-width: 0.8; stroke-linecap: square"/>
    </g>
    <g id="text_49">
     <!-- 1.0 -->
     <g transform="translate(795.682265 526.451914) scale(0.1 -0.1)">
      <use xlink:href="#DejaVuSans-31"/>
      <use xlink:href="#DejaVuSans-2e" transform="translate(63.623047 0)"/>
      <use xlink:href="#DejaVuSans-30" transform="translate(95.410156 0)"/>
     </g>
    </g>
   </g>
   <g id="xtick_45">
    <g id="line2d_50">
     <path d="M 841.678121 511.99692 
L 837.141699 515.052961 
" style="fill: none; stroke: #000000; stroke-width: 0.8; stroke-linecap: square"/>
    </g>
    <g id="text_50">
     <!-- 1.2 -->
     <g transform="translate(823.627631 536.173942) scale(0.1 -0.1)">
      <use xlink:href="#DejaVuSans-31"/>
      <use xlink:href="#DejaVuSans-2e" transform="translate(63.623047 0)"/>
      <use xlink:href="#DejaVuSans-32" transform="translate(95.410156 0)"/>
     </g>
    </g>
   </g>
   <g id="xtick_46">
    <g id="line2d_51">
     <path d="M 869.996668 521.70828 
L 865.491205 524.807258 
" style="fill: none; stroke: #000000; stroke-width: 0.8; stroke-linecap: square"/>
    </g>
    <g id="text_51">
     <!-- 1.4 -->
     <g transform="translate(851.965056 546.032364) scale(0.1 -0.1)">
      <use xlink:href="#DejaVuSans-31"/>
      <use xlink:href="#DejaVuSans-2e" transform="translate(63.623047 0)"/>
      <use xlink:href="#DejaVuSans-34" transform="translate(95.410156 0)"/>
     </g>
    </g>
   </g>
   <g id="xtick_47">
    <g id="line2d_52">
     <path d="M 898.714042 531.556411 
L 894.240866 534.699236 
" style="fill: none; stroke: #000000; stroke-width: 0.8; stroke-linecap: square"/>
    </g>
    <g id="text_52">
     <!-- 1.6 -->
     <g transform="translate(880.702847 556.030071) scale(0.1 -0.1)">
      <use xlink:href="#DejaVuSans-31"/>
      <use xlink:href="#DejaVuSans-2e" transform="translate(63.623047 0)"/>
      <use xlink:href="#DejaVuSans-36" transform="translate(95.410156 0)"/>
     </g>
    </g>
   </g>
   <g id="xtick_48">
    <g id="line2d_53">
     <path d="M 927.838729 541.544223 
L 923.399213 544.731833 
" style="fill: none; stroke: #000000; stroke-width: 0.8; stroke-linecap: square"/>
    </g>
    <g id="text_53">
     <!-- 1.8 -->
     <g transform="translate(909.84955 566.170036) scale(0.1 -0.1)">
      <use xlink:href="#DejaVuSans-31"/>
      <use xlink:href="#DejaVuSans-2e" transform="translate(63.623047 0)"/>
      <use xlink:href="#DejaVuSans-38" transform="translate(95.410156 0)"/>
     </g>
    </g>
   </g>
   <g id="text_54">
    <!-- Drift[N+1] -->
    <g transform="translate(756.576534 528.807095) rotate(-341.052037) scale(0.1 -0.1)">
     <use xlink:href="#DejaVuSans-44"/>
     <use xlink:href="#DejaVuSans-72" transform="translate(77.001953 0)"/>
     <use xlink:href="#DejaVuSans-69" transform="translate(118.115234 0)"/>
     <use xlink:href="#DejaVuSans-66" transform="translate(145.898438 0)"/>
     <use xlink:href="#DejaVuSans-74" transform="translate(179.353516 0)"/>
     <use xlink:href="#DejaVuSans-5b" transform="translate(218.5625 0)"/>
     <use xlink:href="#DejaVuSans-4e" transform="translate(257.576172 0)"/>
     <use xlink:href="#DejaVuSans-2b" transform="translate(332.380859 0)"/>
     <use xlink:href="#DejaVuSans-31" transform="translate(416.169922 0)"/>
     <use xlink:href="#DejaVuSans-5d" transform="translate(479.792969 0)"/>
    </g>
   </g>
  </g>
  <g id="axis3d_6">
   <g id="line2d_54">
    <path d="M 678.13218 457.385195 
L 669.768437 244.517766 
" style="fill: none; stroke: #000000; stroke-width: 0.8; stroke-linecap: square"/>
   </g>
   <g id="xtick_49">
    <g id="line2d_55">
     <path d="M 679.695559 456.447777 
L 674.998815 459.263991 
" style="fill: none; stroke: #000000; stroke-width: 0.8; stroke-linecap: square"/>
    </g>
    <g id="text_55">
     <!-- 0 -->
     <g transform="translate(654.989563 466.59781) scale(0.1 -0.1)">
      <use xlink:href="#DejaVuSans-30"/>
     </g>
    </g>
   </g>
   <g id="xtick_50">
    <g id="line2d_56">
     <path d="M 678.625458 429.00776 
L 673.902793 431.779902 
" style="fill: none; stroke: #000000; stroke-width: 0.8; stroke-linecap: square"/>
    </g>
    <g id="text_56">
     <!-- 2 -->
     <g transform="translate(653.809041 439.11786) scale(0.1 -0.1)">
      <use xlink:href="#DejaVuSans-32"/>
     </g>
    </g>
   </g>
   <g id="xtick_51">
    <g id="line2d_57">
     <path d="M 677.544549 401.290598 
L 672.795677 404.01763 
" style="fill: none; stroke: #000000; stroke-width: 0.8; stroke-linecap: square"/>
    </g>
    <g id="text_57">
     <!-- 4 -->
     <g transform="translate(652.616573 411.359824) scale(0.1 -0.1)">
      <use xlink:href="#DejaVuSans-34"/>
     </g>
    </g>
   </g>
   <g id="xtick_52">
    <g id="line2d_58">
     <path d="M 676.452667 373.292068 
L 671.677298 375.972929 
" style="fill: none; stroke: #000000; stroke-width: 0.8; stroke-linecap: square"/>
    </g>
    <g id="text_58">
     <!-- 6 -->
     <g transform="translate(651.411976 383.319459) scale(0.1 -0.1)">
      <use xlink:href="#DejaVuSans-36"/>
     </g>
    </g>
   </g>
   <g id="xtick_53">
    <g id="line2d_59">
     <path d="M 675.349645 345.007867 
L 670.547484 347.641467 
" style="fill: none; stroke: #000000; stroke-width: 0.8; stroke-linecap: square"/>
    </g>
    <g id="text_59">
     <!-- 8 -->
     <g transform="translate(650.195064 354.992435) scale(0.1 -0.1)">
      <use xlink:href="#DejaVuSans-38"/>
     </g>
    </g>
   </g>
   <g id="xtick_54">
    <g id="line2d_60">
     <path d="M 674.23531 316.433597 
L 669.406057 319.018825 
" style="fill: none; stroke: #000000; stroke-width: 0.8; stroke-linecap: square"/>
    </g>
    <g id="text_60">
     <!-- 10 -->
     <g transform="translate(645.784398 326.374336) scale(0.1 -0.1)">
      <use xlink:href="#DejaVuSans-31"/>
      <use xlink:href="#DejaVuSans-30" transform="translate(63.623047 0)"/>
     </g>
    </g>
   </g>
   <g id="xtick_55">
    <g id="line2d_61">
     <path d="M 673.109489 287.564776 
L 668.252839 290.100488 
" style="fill: none; stroke: #000000; stroke-width: 0.8; stroke-linecap: square"/>
    </g>
    <g id="text_61">
     <!-- 12 -->
     <g transform="translate(644.542283 297.460649) scale(0.1 -0.1)">
      <use xlink:href="#DejaVuSans-31"/>
      <use xlink:href="#DejaVuSans-32" transform="translate(63.623047 0)"/>
     </g>
    </g>
   </g>
   <g id="xtick_56">
    <g id="line2d_62">
     <path d="M 671.972002 258.396824 
L 667.087646 260.881852 
" style="fill: none; stroke: #000000; stroke-width: 0.8; stroke-linecap: square"/>
    </g>
    <g id="text_62">
     <!-- 14 -->
     <g transform="translate(643.287273 268.246774) scale(0.1 -0.1)">
      <use xlink:href="#DejaVuSans-31"/>
      <use xlink:href="#DejaVuSans-34" transform="translate(63.623047 0)"/>
     </g>
    </g>
   </g>
   <g id="text_63">
    <!-- Turn -->
    <g transform="translate(617.350068 359.179506) scale(0.1 -0.1)">
     <use xlink:href="#DejaVuSans-54"/>
     <use xlink:href="#DejaVuSans-75" transform="translate(45.958984 0)"/>
     <use xlink:href="#DejaVuSans-72" transform="translate(109.337891 0)"/>
     <use xlink:href="#DejaVuSans-6e" transform="translate(148.701172 0)"/>
    </g>
   </g>
  </g>
  <g id="axes_2">
   <g id="text_64">
    <!-- 3D BASIN: SMOOTHED -->
    <g transform="translate(810.94835 83.042625) scale(0.12 -0.12)">
     <defs>
      <path id="DejaVuSans-Bold-4d" d="M 588 4666 
L 2119 4666 
L 3181 2169 
L 4250 4666 
L 5778 4666 
L 5778 0 
L 4641 0 
L 4641 3413 
L 3566 897 
L 2803 897 
L 1728 3413 
L 1728 0 
L 588 0 
L 588 4666 
z
" transform="scale(0.015625)"/>
      <path id="DejaVuSans-Bold-48" d="M 588 4666 
L 1791 4666 
L 1791 2888 
L 3566 2888 
L 3566 4666 
L 4769 4666 
L 4769 0 
L 3566 0 
L 3566 1978 
L 1791 1978 
L 1791 0 
L 588 0 
L 588 4666 
z
" transform="scale(0.015625)"/>
     </defs>
     <use xlink:href="#DejaVuSans-Bold-33"/>
     <use xlink:href="#DejaVuSans-Bold-44" transform="translate(69.580078 0)"/>
     <use xlink:href="#DejaVuSans-Bold-20" transform="translate(152.587891 0)"/>
     <use xlink:href="#DejaVuSans-Bold-42" transform="translate(187.402344 0)"/>
     <use xlink:href="#DejaVuSans-Bold-41" transform="translate(263.623047 0)"/>
     <use xlink:href="#DejaVuSans-Bold-53" transform="translate(341.015625 0)"/>
     <use xlink:href="#DejaVuSans-Bold-49" transform="translate(413.037109 0)"/>
     <use xlink:href="#DejaVuSans-Bold-4e" transform="translate(450.244141 0)"/>
     <use xlink:href="#DejaVuSans-Bold-3a" transform="translate(533.935547 0)"/>
     <use xlink:href="#DejaVuSans-Bold-20" transform="translate(573.925781 0)"/>
     <use xlink:href="#DejaVuSans-Bold-53" transform="translate(608.740234 0)"/>
     <use xlink:href="#DejaVuSans-Bold-4d" transform="translate(680.761719 0)"/>
     <use xlink:href="#DejaVuSans-Bold-4f" transform="translate(780.273438 0)"/>
     <use xlink:href="#DejaVuSans-Bold-4f" transform="translate(865.283203 0)"/>
     <use xlink:href="#DejaVuSans-Bold-54" transform="translate(950.292969 0)"/>
     <use xlink:href="#DejaVuSans-Bold-48" transform="translate(1018.505859 0)"/>
     <use xlink:href="#DejaVuSans-Bold-45" transform="translate(1102.197266 0)"/>
     <use xlink:href="#DejaVuSans-Bold-44" transform="translate(1170.507812 0)"/>
    </g>
    <!-- (STABLE: 0, VOLATILE: 0) -->
    <g transform="translate(802.006475 96.48) scale(0.12 -0.12)">
     <use xlink:href="#DejaVuSans-Bold-28"/>
     <use xlink:href="#DejaVuSans-Bold-53" transform="translate(45.703125 0)"/>
     <use xlink:href="#DejaVuSans-Bold-54" transform="translate(117.724609 0)"/>
     <use xlink:href="#DejaVuSans-Bold-41" transform="translate(178.1875 0)"/>
     <use xlink:href="#DejaVuSans-Bold-42" transform="translate(255.580078 0)"/>
     <use xlink:href="#DejaVuSans-Bold-4c" transform="translate(331.800781 0)"/>
     <use xlink:href="#DejaVuSans-Bold-45" transform="translate(395.521484 0)"/>
     <use xlink:href="#DejaVuSans-Bold-3a" transform="translate(463.832031 0)"/>
     <use xlink:href="#DejaVuSans-Bold-20" transform="translate(503.822266 0)"/>
     <use xlink:href="#DejaVuSans-Bold-30" transform="translate(538.636719 0)"/>
     <use xlink:href="#DejaVuSans-Bold-2c" transform="translate(608.216797 0)"/>
     <use xlink:href="#DejaVuSans-Bold-20" transform="translate(646.205078 0)"/>
     <use xlink:href="#DejaVuSans-Bold-56" transform="translate(681.019531 0)"/>
     <use xlink:href="#DejaVuSans-Bold-4f" transform="translate(756.662109 0)"/>
     <use xlink:href="#DejaVuSans-Bold-4c" transform="translate(841.671875 0)"/>
     <use xlink:href="#DejaVuSans-Bold-41" transform="translate(905.392578 0)"/>
     <use xlink:href="#DejaVuSans-Bold-54" transform="translate(975.035156 0)"/>
     <use xlink:href="#DejaVuSans-Bold-49" transform="translate(1043.248047 0)"/>
     <use xlink:href="#DejaVuSans-Bold-4c" transform="translate(1080.455078 0)"/>
     <use xlink:href="#DejaVuSans-Bold-45" transform="translate(1144.175781 0)"/>
     <use xlink:href="#DejaVuSans-Bold-3a" transform="translate(1212.486328 0)"/>
     <use xlink:href="#DejaVuSans-Bold-20" transform="translate(1252.476562 0)"/>
     <use xlink:href="#DejaVuSans-Bold-30" transform="translate(1287.291016 0)"/>
     <use xlink:href="#DejaVuSans-Bold-29" transform="translate(1356.871094 0)"/>
    </g>
   </g>
   <g id="legend_1">
    <g id="patch_10">
     <path d="M 651.739287 149.310937 
L 750.140225 149.310937 
Q 751.940225 149.310937 751.940225 147.510937 
L 751.940225 108.78 
Q 751.940225 106.98 750.140225 106.98 
L 651.739287 106.98 
Q 649.939287 106.98 649.939287 108.78 
L 649.939287 147.510937 
Q 649.939287 149.310937 651.739287 149.310937 
z
" style="fill: #ffffff; opacity: 0.9; stroke: #cccccc; stroke-linejoin: miter"/>
    </g>
    <g id="line2d_63">
     <path d="M 653.539287 114.268594 
L 662.539287 114.268594 
L 671.539287 114.268594 
" style="fill: none; stroke: #ffffff; stroke-width: 1.5; stroke-linecap: square"/>
     <defs>
      <path id="mce558d3fd2" d="M 0 5.656854 
L 5.656854 0 
L 0 -5.656854 
L -5.656854 0 
z
" style="stroke: #006400; stroke-linejoin: miter"/>
     </defs>
     <g>
      <use xlink:href="#mce558d3fd2" x="662.539287" y="114.268594" style="fill: #00ff00; stroke: #006400; stroke-linejoin: miter"/>
     </g>
    </g>
    <g id="text_65">
     <!-- Start -->
     <g transform="translate(678.739287 117.418594) scale(0.09 -0.09)">
      <defs>
       <path id="DejaVuSans-53" d="M 3425 4513 
L 3425 3897 
Q 3066 4069 2747 4153 
Q 2428 4238 2131 4238 
Q 1616 4238 1336 4038 
Q 1056 3838 1056 3469 
Q 1056 3159 1242 3001 
Q 1428 2844 1947 2747 
L 2328 2669 
Q 3034 2534 3370 2195 
Q 3706 1856 3706 1288 
Q 3706 609 3251 259 
Q 2797 -91 1919 -91 
Q 1588 -91 1214 -16 
Q 841 59 441 206 
L 441 856 
Q 825 641 1194 531 
Q 1563 422 1919 422 
Q 2459 422 2753 634 
Q 3047 847 3047 1241 
Q 3047 1584 2836 1778 
Q 2625 1972 2144 2069 
L 1759 2144 
Q 1053 2284 737 2584 
Q 422 2884 422 3419 
Q 422 4038 858 4394 
Q 1294 4750 2059 4750 
Q 2388 4750 2728 4690 
Q 3069 4631 3425 4513 
z
" transform="scale(0.015625)"/>
       <path id="DejaVuSans-61" d="M 2194 1759 
Q 1497 1759 1228 1600 
Q 959 1441 959 1056 
Q 959 750 1161 570 
Q 1363 391 1709 391 
Q 2188 391 2477 730 
Q 2766 1069 2766 1631 
L 2766 1759 
L 2194 1759 
z
M 3341 1997 
L 3341 0 
L 2766 0 
L 2766 531 
Q 2569 213 2275 61 
Q 1981 -91 1556 -91 
Q 1019 -91 701 211 
Q 384 513 384 1019 
Q 384 1609 779 1909 
Q 1175 2209 1959 2209 
L 2766 2209 
L 2766 2266 
Q 2766 2663 2505 2880 
Q 2244 3097 1772 3097 
Q 1472 3097 1187 3025 
Q 903 2953 641 2809 
L 641 3341 
Q 956 3463 1253 3523 
Q 1550 3584 1831 3584 
Q 2591 3584 2966 3190 
Q 3341 2797 3341 1997 
z
" transform="scale(0.015625)"/>
      </defs>
      <use xlink:href="#DejaVuSans-53"/>
      <use xlink:href="#DejaVuSans-74" transform="translate(63.476562 0)"/>
      <use xlink:href="#DejaVuSans-61" transform="translate(102.685547 0)"/>
      <use xlink:href="#DejaVuSans-72" transform="translate(163.964844 0)"/>
      <use xlink:href="#DejaVuSans-74" transform="translate(205.078125 0)"/>
     </g>
    </g>
    <g id="line2d_64">
     <path d="M 653.539287 127.478906 
L 662.539287 127.478906 
L 671.539287 127.478906 
" style="fill: none; stroke: #ffffff; stroke-width: 1.5; stroke-linecap: square"/>
     <defs>
      <path id="mb909b87465" d="M -2.5 5 
L 0 2.5 
L 2.5 5 
L 5 2.5 
L 2.5 0 
L 5 -2.5 
L 2.5 -5 
L 0 -2.5 
L -2.5 -5 
L -5 -2.5 
L -2.5 0 
L -5 2.5 
z
" style="stroke: #000000; stroke-linejoin: miter"/>
     </defs>
     <g>
      <use xlink:href="#mb909b87465" x="662.539287" y="127.478906" style="fill: #ff0000; stroke: #000000; stroke-linejoin: miter"/>
     </g>
    </g>
    <g id="text_66">
     <!-- End (VOLATILE) -->
     <g transform="translate(678.739287 130.628906) scale(0.09 -0.09)">
      <defs>
       <path id="DejaVuSans-45" d="M 628 4666 
L 3578 4666 
L 3578 4134 
L 1259 4134 
L 1259 2753 
L 3481 2753 
L 3481 2222 
L 1259 2222 
L 1259 531 
L 3634 531 
L 3634 0 
L 628 0 
L 628 4666 
z
" transform="scale(0.015625)"/>
       <path id="DejaVuSans-64" d="M 2906 2969 
L 2906 4863 
L 3481 4863 
L 3481 0 
L 2906 0 
L 2906 525 
Q 2725 213 2448 61 
Q 2172 -91 1784 -91 
Q 1150 -91 751 415 
Q 353 922 353 1747 
Q 353 2572 751 3078 
Q 1150 3584 1784 3584 
Q 2172 3584 2448 3432 
Q 2725 3281 2906 2969 
z
M 947 1747 
Q 947 1113 1208 752 
Q 1469 391 1925 391 
Q 2381 391 2643 752 
Q 2906 1113 2906 1747 
Q 2906 2381 2643 2742 
Q 2381 3103 1925 3103 
Q 1469 3103 1208 2742 
Q 947 2381 947 1747 
z
" transform="scale(0.015625)"/>
       <path id="DejaVuSans-20" transform="scale(0.015625)"/>
       <path id="DejaVuSans-28" d="M 1984 4856 
Q 1566 4138 1362 3434 
Q 1159 2731 1159 2009 
Q 1159 1288 1364 580 
Q 1569 -128 1984 -844 
L 1484 -844 
Q 1016 -109 783 600 
Q 550 1309 550 2009 
Q 550 2706 781 3412 
Q 1013 4119 1484 4856 
L 1984 4856 
z
" transform="scale(0.015625)"/>
       <path id="DejaVuSans-56" d="M 1831 0 
L 50 4666 
L 709 4666 
L 2188 738 
L 3669 4666 
L 4325 4666 
L 2547 0 
L 1831 0 
z
" transform="scale(0.015625)"/>
       <path id="DejaVuSans-4f" d="M 2522 4238 
Q 1834 4238 1429 3725 
Q 1025 3213 1025 2328 
Q 1025 1447 1429 934 
Q 1834 422 2522 422 
Q 3209 422 3611 934 
Q 4013 1447 4013 2328 
Q 4013 3213 3611 3725 
Q 3209 4238 2522 4238 
z
M 2522 4750 
Q 3503 4750 4090 4092 
Q 4678 3434 4678 2328 
Q 4678 1225 4090 567 
Q 3503 -91 2522 -91 
Q 1538 -91 948 565 
Q 359 1222 359 2328 
Q 359 3434 948 4092 
Q 1538 4750 2522 4750 
z
" transform="scale(0.015625)"/>
       <path id="DejaVuSans-4c" d="M 628 4666 
L 1259 4666 
L 1259 531 
L 3531 531 
L 3531 0 
L 628 0 
L 628 4666 
z
" transform="scale(0.015625)"/>
       <path id="DejaVuSans-41" d="M 2188 4044 
L 1331 1722 
L 3047 1722 
L 2188 4044 
z
M 1831 4666 
L 2547 4666 
L 4325 0 
L 3669 0 
L 3244 1197 
L 1141 1197 
L 716 0 
L 50 0 
L 1831 4666 
z
" transform="scale(0.015625)"/>
       <path id="DejaVuSans-49" d="M 628 4666 
L 1259 4666 
L 1259 0 
L 628 0 
L 628 4666 
z
" transform="scale(0.015625)"/>
       <path id="DejaVuSans-29" d="M 513 4856 
L 1013 4856 
Q 1481 4119 1714 3412 
Q 1947 2706 1947 2009 
Q 1947 1309 1714 600 
Q 1481 -109 1013 -844 
L 513 -844 
Q 928 -128 1133 580 
Q 1338 1288 1338 2009 
Q 1338 2731 1133 3434 
Q 928 4138 513 4856 
z
" transform="scale(0.015625)"/>
      </defs>
      <use xlink:href="#DejaVuSans-45"/>
      <use xlink:href="#DejaVuSans-6e" transform="translate(63.183594 0)"/>
      <use xlink:href="#DejaVuSans-64" transform="translate(126.5625 0)"/>
      <use xlink:href="#DejaVuSans-20" transform="translate(190.039062 0)"/>
      <use xlink:href="#DejaVuSans-28" transform="translate(221.826172 0)"/>
      <use xlink:href="#DejaVuSans-56" transform="translate(260.839844 0)"/>
      <use xlink:href="#DejaVuSans-4f" transform="translate(327.498047 0)"/>
      <use xlink:href="#DejaVuSans-4c" transform="translate(406.208984 0)"/>
      <use xlink:href="#DejaVuSans-41" transform="translate(464.171875 0)"/>
      <use xlink:href="#DejaVuSans-54" transform="translate(524.830078 0)"/>
      <use xlink:href="#DejaVuSans-49" transform="translate(585.914062 0)"/>
      <use xlink:href="#DejaVuSans-4c" transform="translate(615.40625 0)"/>
      <use xlink:href="#DejaVuSans-45" transform="translate(671.119141 0)"/>
      <use xlink:href="#DejaVuSans-29" transform="translate(734.302734 0)"/>
     </g>
    </g>
    <g id="line2d_65">
     <path d="M 653.539287 140.689219 
L 662.539287 140.689219 
L 671.539287 140.689219 
" style="fill: none; stroke: #ffffff; stroke-width: 1.5; stroke-linecap: square"/>
     <defs>
      <path id="m20091fbf28" d="M 0 4 
C 1.060812 4 2.078319 3.578535 2.828427 2.828427 
C 3.578535 2.078319 4 1.060812 4 0 
C 4 -1.060812 3.578535 -2.078319 2.828427 -2.828427 
C 2.078319 -3.578535 1.060812 -4 0 -4 
C -1.060812 -4 -2.078319 -3.578535 -2.828427 -2.828427 
C -3.578535 -2.078319 -4 -1.060812 -4 0 
C -4 1.060812 -3.578535 2.078319 -2.828427 2.828427 
C -2.078319 3.578535 -1.060812 4 0 4 
z
" style="stroke: #000000"/>
     </defs>
     <g>
      <use xlink:href="#m20091fbf28" x="662.539287" y="140.689219" style="fill: #00ffff; stroke: #000000"/>
     </g>
    </g>
    <g id="text_67">
     <!-- End (STABLE) -->
     <g transform="translate(678.739287 143.839219) scale(0.09 -0.09)">
      <defs>
       <path id="DejaVuSans-42" d="M 1259 2228 
L 1259 519 
L 2272 519 
Q 2781 519 3026 730 
Q 3272 941 3272 1375 
Q 3272 1813 3026 2020 
Q 2781 2228 2272 2228 
L 1259 2228 
z
M 1259 4147 
L 1259 2741 
L 2194 2741 
Q 2656 2741 2882 2914 
Q 3109 3088 3109 3444 
Q 3109 3797 2882 3972 
Q 2656 4147 2194 4147 
L 1259 4147 
z
M 628 4666 
L 2241 4666 
Q 2963 4666 3353 4366 
Q 3744 4066 3744 3513 
Q 3744 3084 3544 2831 
Q 3344 2578 2956 2516 
Q 3422 2416 3680 2098 
Q 3938 1781 3938 1306 
Q 3938 681 3513 340 
Q 3088 0 2303 0 
L 628 0 
L 628 4666 
z
" transform="scale(0.015625)"/>
      </defs>
      <use xlink:href="#DejaVuSans-45"/>
      <use xlink:href="#DejaVuSans-6e" transform="translate(63.183594 0)"/>
      <use xlink:href="#DejaVuSans-64" transform="translate(126.5625 0)"/>
      <use xlink:href="#DejaVuSans-20" transform="translate(190.039062 0)"/>
      <use xlink:href="#DejaVuSans-28" transform="translate(221.826172 0)"/>
      <use xlink:href="#DejaVuSans-53" transform="translate(260.839844 0)"/>
      <use xlink:href="#DejaVuSans-54" transform="translate(324.316406 0)"/>
      <use xlink:href="#DejaVuSans-41" transform="translate(377.650391 0)"/>
      <use xlink:href="#DejaVuSans-42" transform="translate(446.058594 0)"/>
      <use xlink:href="#DejaVuSans-4c" transform="translate(514.662109 0)"/>
      <use xlink:href="#DejaVuSans-45" transform="translate(570.375 0)"/>
      <use xlink:href="#DejaVuSans-29" transform="translate(633.558594 0)"/>
     </g>
    </g>
   </g>
  </g>
  <g id="text_68">
   <!-- Run 013: Identity Attractor Basin -->
   <g transform="translate(418.214401 19.3575) scale(0.16 -0.16)">
    <defs>
     <path id="DejaVuSans-Bold-75" d="M 500 1363 
L 500 3500 
L 1625 3500 
L 1625 3150 
Q 1625 2866 1622 2436 
Q 1619 2006 1619 1863 
Q 1619 1441 1641 1255 
Q 1663 1069 1716 984 
Q 1784 875 1895 815 
Q 2006 756 2150 756 
Q 2500 756 2700 1025 
Q 2900 1294 2900 1772 
L 2900 3500 
L 4019 3500 
L 4019 0 
L 2900 0 
L 2900 506 
Q 2647 200 2364 54 
Q 2081 -91 1741 -91 
Q 1134 -91 817 281 
Q 500 653 500 1363 
z
" transform="scale(0.015625)"/>
     <path id="DejaVuSans-Bold-6e" d="M 4056 2131 
L 4056 0 
L 2931 0 
L 2931 347 
L 2931 1631 
Q 2931 2084 2911 2256 
Q 2891 2428 2841 2509 
Q 2775 2619 2662 2680 
Q 2550 2741 2406 2741 
Q 2056 2741 1856 2470 
Q 1656 2200 1656 1722 
L 1656 0 
L 538 0 
L 538 3500 
L 1656 3500 
L 1656 2988 
Q 1909 3294 2193 3439 
Q 2478 3584 2822 3584 
Q 3428 3584 3742 3212 
Q 4056 2841 4056 2131 
z
" transform="scale(0.015625)"/>
     <path id="DejaVuSans-Bold-31" d="M 750 831 
L 1813 831 
L 1813 3847 
L 722 3622 
L 722 4441 
L 1806 4666 
L 2950 4666 
L 2950 831 
L 4013 831 
L 4013 0 
L 750 0 
L 750 831 
z
" transform="scale(0.015625)"/>
     <path id="DejaVuSans-Bold-64" d="M 2919 2988 
L 2919 4863 
L 4044 4863 
L 4044 0 
L 2919 0 
L 2919 506 
Q 2688 197 2409 53 
Q 2131 -91 1766 -91 
Q 1119 -91 703 423 
Q 288 938 288 1747 
Q 288 2556 703 3070 
Q 1119 3584 1766 3584 
Q 2128 3584 2408 3439 
Q 2688 3294 2919 2988 
z
M 2181 722 
Q 2541 722 2730 984 
Q 2919 1247 2919 1747 
Q 2919 2247 2730 2509 
Q 2541 2772 2181 2772 
Q 1825 2772 1636 2509 
Q 1447 2247 1447 1747 
Q 1447 1247 1636 984 
Q 1825 722 2181 722 
z
" transform="scale(0.015625)"/>
     <path id="DejaVuSans-Bold-65" d="M 4031 1759 
L 4031 1441 
L 1416 1441 
Q 1456 1047 1700 850 
Q 1944 653 2381 653 
Q 2734 653 3104 758 
Q 3475 863 3866 1075 
L 3866 213 
Q 3469 63 3072 -14 
Q 2675 -91 2278 -91 
Q 1328 -91 801 392 
Q 275 875 275 1747 
Q 275 2603 792 3093 
Q 1309 3584 2216 3584 
Q 3041 3584 3536 3087 
Q 4031 2591 4031 1759 
z
M 2881 2131 
Q 2881 2450 2695 2645 
Q 2509 2841 2209 2841 
Q 1884 2841 1681 2658 
Q 1478 2475 1428 2131 
L 2881 2131 
z
" transform="scale(0.015625)"/>
     <path id="DejaVuSans-Bold-74" d="M 1759 4494 
L 1759 3500 
L 2913 3500 
L 2913 2700 
L 1759 2700 
L 1759 1216 
Q 1759 972 1856 886 
Q 1953 800 2241 800 
L 2816 800 
L 2816 0 
L 1856 0 
Q 1194 0 917 276 
Q 641 553 641 1216 
L 641 2700 
L 84 2700 
L 84 3500 
L 641 3500 
L 641 4494 
L 1759 4494 
z
" transform="scale(0.015625)"/>
     <path id="DejaVuSans-Bold-69" d="M 538 3500 
L 1656 3500 
L 1656 0 
L 538 0 
L 538 3500 
z
M 538 4863 
L 1656 4863 
L 1656 3950 
L 538 3950 
L 538 4863 
z
" transform="scale(0.015625)"/>
     <path id="DejaVuSans-Bold-79" d="M 78 3500 
L 1197 3500 
L 2138 1125 
L 2938 3500 
L 4056 3500 
L 2584 -331 
Q 2363 -916 2067 -1148 
Q 1772 -1381 1288 -1381 
L 641 -1381 
L 641 -647 
L 991 -647 
Q 1275 -647 1404 -556 
Q 1534 -466 1606 -231 
L 1638 -134 
L 78 3500 
z
" transform="scale(0.015625)"/>
     <path id="DejaVuSans-Bold-72" d="M 3138 2547 
Q 2991 2616 2845 2648 
Q 2700 2681 2553 2681 
Q 2122 2681 1889 2404 
Q 1656 2128 1656 1613 
L 1656 0 
L 538 0 
L 538 3500 
L 1656 3500 
L 1656 2925 
Q 1872 3269 2151 3426 
Q 2431 3584 2822 3584 
Q 2878 3584 2943 3579 
Q 3009 3575 3134 3559 
L 3138 2547 
z
" transform="scale(0.015625)"/>
     <path id="DejaVuSans-Bold-61" d="M 2106 1575 
Q 1756 1575 1579 1456 
Q 1403 1338 1403 1106 
Q 1403 894 1545 773 
Q 1688 653 1941 653 
Q 2256 653 2472 879 
Q 2688 1106 2688 1447 
L 2688 1575 
L 2106 1575 
z
M 3816 1997 
L 3816 0 
L 2688 0 
L 2688 519 
Q 2463 200 2181 54 
Q 1900 -91 1497 -91 
Q 953 -91 614 226 
Q 275 544 275 1050 
Q 275 1666 698 1953 
Q 1122 2241 2028 2241 
L 2688 2241 
L 2688 2328 
Q 2688 2594 2478 2717 
Q 2269 2841 1825 2841 
Q 1466 2841 1156 2769 
Q 847 2697 581 2553 
L 581 3406 
Q 941 3494 1303 3539 
Q 1666 3584 2028 3584 
Q 2975 3584 3395 3211 
Q 3816 2838 3816 1997 
z
" transform="scale(0.015625)"/>
     <path id="DejaVuSans-Bold-63" d="M 3366 3391 
L 3366 2478 
Q 3138 2634 2908 2709 
Q 2678 2784 2431 2784 
Q 1963 2784 1702 2511 
Q 1441 2238 1441 1747 
Q 1441 1256 1702 982 
Q 1963 709 2431 709 
Q 2694 709 2930 787 
Q 3166 866 3366 1019 
L 3366 103 
Q 3103 6 2833 -42 
Q 2563 -91 2291 -91 
Q 1344 -91 809 395 
Q 275 881 275 1747 
Q 275 2613 809 3098 
Q 1344 3584 2291 3584 
Q 2566 3584 2833 3536 
Q 3100 3488 3366 3391 
z
" transform="scale(0.015625)"/>
     <path id="DejaVuSans-Bold-6f" d="M 2203 2784 
Q 1831 2784 1636 2517 
Q 1441 2250 1441 1747 
Q 1441 1244 1636 976 
Q 1831 709 2203 709 
Q 2569 709 2762 976 
Q 2956 1244 2956 1747 
Q 2956 2250 2762 2517 
Q 2569 2784 2203 2784 
z
M 2203 3584 
Q 3106 3584 3614 3096 
Q 4122 2609 4122 1747 
Q 4122 884 3614 396 
Q 3106 -91 2203 -91 
Q 1297 -91 786 396 
Q 275 884 275 1747 
Q 275 2609 786 3096 
Q 1297 3584 2203 3584 
z
" transform="scale(0.015625)"/>
     <path id="DejaVuSans-Bold-73" d="M 3272 3391 
L 3272 2541 
Q 2913 2691 2578 2766 
Q 2244 2841 1947 2841 
Q 1628 2841 1473 2761 
Q 1319 2681 1319 2516 
Q 1319 2381 1436 2309 
Q 1553 2238 1856 2203 
L 2053 2175 
Q 2913 2066 3209 1816 
Q 3506 1566 3506 1031 
Q 3506 472 3093 190 
Q 2681 -91 1863 -91 
Q 1516 -91 1145 -36 
Q 775 19 384 128 
L 384 978 
Q 719 816 1070 734 
Q 1422 653 1784 653 
Q 2113 653 2278 743 
Q 2444 834 2444 1013 
Q 2444 1163 2330 1236 
Q 2216 1309 1875 1350 
L 1678 1375 
Q 931 1469 631 1722 
Q 331 1975 331 2491 
Q 331 3047 712 3315 
Q 1094 3584 1881 3584 
Q 2191 3584 2531 3537 
Q 2872 3491 3272 3391 
z
" transform="scale(0.015625)"/>
    </defs>
    <use xlink:href="#DejaVuSans-Bold-52"/>
    <use xlink:href="#DejaVuSans-Bold-75" transform="translate(77.001953 0)"/>
    <use xlink:href="#DejaVuSans-Bold-6e" transform="translate(148.193359 0)"/>
    <use xlink:href="#DejaVuSans-Bold-20" transform="translate(219.384766 0)"/>
    <use xlink:href="#DejaVuSans-Bold-30" transform="translate(254.199219 0)"/>
    <use xlink:href="#DejaVuSans-Bold-31" transform="translate(323.779297 0)"/>
    <use xlink:href="#DejaVuSans-Bold-33" transform="translate(393.359375 0)"/>
    <use xlink:href="#DejaVuSans-Bold-3a" transform="translate(462.939453 0)"/>
    <use xlink:href="#DejaVuSans-Bold-20" transform="translate(502.929688 0)"/>
    <use xlink:href="#DejaVuSans-Bold-49" transform="translate(537.744141 0)"/>
    <use xlink:href="#DejaVuSans-Bold-64" transform="translate(574.951172 0)"/>
    <use xlink:href="#DejaVuSans-Bold-65" transform="translate(646.533203 0)"/>
    <use xlink:href="#DejaVuSans-Bold-6e" transform="translate(714.355469 0)"/>
    <use xlink:href="#DejaVuSans-Bold-74" transform="translate(785.546875 0)"/>
    <use xlink:href="#DejaVuSans-Bold-69" transform="translate(833.349609 0)"/>
    <use xlink:href="#DejaVuSans-Bold-74" transform="translate(867.626953 0)"/>
    <use xlink:href="#DejaVuSans-Bold-79" transform="translate(915.429688 0)"/>
    <use xlink:href="#DejaVuSans-Bold-20" transform="translate(980.615234 0)"/>
    <use xlink:href="#DejaVuSans-Bold-41" transform="translate(1015.429688 0)"/>
    <use xlink:href="#DejaVuSans-Bold-74" transform="translate(1092.822266 0)"/>
    <use xlink:href="#DejaVuSans-Bold-74" transform="translate(1140.625 0)"/>
    <use xlink:href="#DejaVuSans-Bold-72" transform="translate(1188.427734 0)"/>
    <use xlink:href="#DejaVuSans-Bold-61" transform="translate(1237.744141 0)"/>
    <use xlink:href="#DejaVuSans-Bold-63" transform="translate(1305.224609 0)"/>
    <use xlink:href="#DejaVuSans-Bold-74" transform="translate(1364.501953 0)"/>
    <use xlink:href="#DejaVuSans-Bold-6f" transform="translate(1412.304688 0)"/>
    <use xlink:href="#DejaVuSans-Bold-72" transform="translate(1481.005859 0)"/>
    <use xlink:href="#DejaVuSans-Bold-20" transform="translate(1530.322266 0)"/>
    <use xlink:href="#DejaVuSans-Bold-42" transform="translate(1565.136719 0)"/>
    <use xlink:href="#DejaVuSans-Bold-61" transform="translate(1641.357422 0)"/>
    <use xlink:href="#DejaVuSans-Bold-73" transform="translate(1708.837891 0)"/>
    <use xlink:href="#DejaVuSans-Bold-69" transform="translate(1768.359375 0)"/>
    <use xlink:href="#DejaVuSans-Bold-6e" transform="translate(1802.636719 0)"/>
   </g>
   <!-- (Event Horizon at 1.23) -->
   <g transform="translate(463.136901 37.399) scale(0.16 -0.16)">
    <defs>
     <path id="DejaVuSans-Bold-76" d="M 97 3500 
L 1216 3500 
L 2088 1081 
L 2956 3500 
L 4078 3500 
L 2700 0 
L 1472 0 
L 97 3500 
z
" transform="scale(0.015625)"/>
     <path id="DejaVuSans-Bold-7a" d="M 366 3500 
L 3419 3500 
L 3419 2719 
L 1575 800 
L 3419 800 
L 3419 0 
L 288 0 
L 288 781 
L 2131 2700 
L 366 2700 
L 366 3500 
z
" transform="scale(0.015625)"/>
     <path id="DejaVuSans-Bold-2e" d="M 653 1209 
L 1778 1209 
L 1778 0 
L 653 0 
L 653 1209 
z
" transform="scale(0.015625)"/>
     <path id="DejaVuSans-Bold-32" d="M 1844 884 
L 3897 884 
L 3897 0 
L 506 0 
L 506 884 
L 2209 2388 
Q 2438 2594 2547 2791 
Q 2656 2988 2656 3200 
Q 2656 3528 2436 3728 
Q 2216 3928 1850 3928 
Q 1569 3928 1234 3808 
Q 900 3688 519 3450 
L 519 4475 
Q 925 4609 1322 4679 
Q 1719 4750 2100 4750 
Q 2938 4750 3402 4381 
Q 3866 4013 3866 3353 
Q 3866 2972 3669 2642 
Q 3472 2313 2841 1759 
L 1844 884 
z
" transform="scale(0.015625)"/>
    </defs>
    <use xlink:href="#DejaVuSans-Bold-28"/>
    <use xlink:href="#DejaVuSans-Bold-45" transform="translate(45.703125 0)"/>
    <use xlink:href="#DejaVuSans-Bold-76" transform="translate(114.013672 0)"/>
    <use xlink:href="#DejaVuSans-Bold-65" transform="translate(179.199219 0)"/>
    <use xlink:href="#DejaVuSans-Bold-6e" transform="translate(247.021484 0)"/>
    <use xlink:href="#DejaVuSans-Bold-74" transform="translate(318.212891 0)"/>
    <use xlink:href="#DejaVuSans-Bold-20" transform="translate(366.015625 0)"/>
    <use xlink:href="#DejaVuSans-Bold-48" transform="translate(400.830078 0)"/>
    <use xlink:href="#DejaVuSans-Bold-6f" transform="translate(484.521484 0)"/>
    <use xlink:href="#DejaVuSans-Bold-72" transform="translate(553.222656 0)"/>
    <use xlink:href="#DejaVuSans-Bold-69" transform="translate(602.539062 0)"/>
    <use xlink:href="#DejaVuSans-Bold-7a" transform="translate(636.816406 0)"/>
    <use xlink:href="#DejaVuSans-Bold-6f" transform="translate(695.019531 0)"/>
    <use xlink:href="#DejaVuSans-Bold-6e" transform="translate(763.720703 0)"/>
    <use xlink:href="#DejaVuSans-Bold-20" transform="translate(834.912109 0)"/>
    <use xlink:href="#DejaVuSans-Bold-61" transform="translate(869.726562 0)"/>
    <use xlink:href="#DejaVuSans-Bold-74" transform="translate(937.207031 0)"/>
    <use xlink:href="#DejaVuSans-Bold-20" transform="translate(985.009766 0)"/>
    <use xlink:href="#DejaVuSans-Bold-31" transform="translate(1019.824219 0)"/>
    <use xlink:href="#DejaVuSans-Bold-2e" transform="translate(1089.404297 0)"/>
    <use xlink:href="#DejaVuSans-Bold-32" transform="translate(1127.392578 0)"/>
    <use xlink:href="#DejaVuSans-Bold-33" transform="translate(1196.972656 0)"/>
    <use xlink:href="#DejaVuSans-Bold-29" transform="translate(1266.552734 0)"/>
   </g>
  </g>
 </g>
</svg>
