<?xml version="1.0" encoding="utf-8" standalone="no"?>
<!DOCTYPE svg PUBLIC "-//W3C//DTD SVG 1.1//EN"
  "http://www.w3.org/Graphics/SVG/1.1/DTD/svg11.dtd">
<svg xmlns:xlink="http://www.w3.org/1999/xlink" width="855.516875pt" height="710.92975pt" viewBox="0 0 855.516875 710.92975" xmlns="http://www.w3.org/2000/svg" version="1.1">
 <metadata>
  <rdf:RDF xmlns:dc="http://purl.org/dc/elements/1.1/" xmlns:cc="http://creativecommons.org/ns#" xmlns:rdf="http://www.w3.org/1999/02/22-rdf-syntax-ns#">
   <cc:Work>
    <dc:type rdf:resource="http://purl.org/dc/dcmitype/StillImage"/>
    <dc:date>2025-12-22T13:35:36.157466</dc:date>
    <dc:format>image/svg+xml</dc:format>
    <dc:creator>
     <cc:Agent>
      <dc:title>Matplotlib v3.10.7, https://matplotlib.org/</dc:title>
     </cc:Agent>
    </dc:creator>
   </cc:Work>
  </rdf:RDF>
 </metadata>
 <defs>
  <style type="text/css">*{stroke-linejoin: round; stroke-linecap: butt}</style>
 </defs>
 <g id="figure_1">
  <g id="patch_1">
   <path d="M 0 710.92975 
L 855.516875 710.92975 
L 855.516875 0 
L 0 0 
z
" style="fill: #ffffff"/>
  </g>
  <g id="axes_1">
   <g id="patch_2">
    <path d="M 45.716875 671.344125 
L 848.316875 671.344125 
L 848.316875 39.624125 
L 45.716875 39.624125 
z
" style="fill: #f8f8f8"/>
   </g>
   <g id="PathCollection_1"/>
   <g id="PathCollection_2"/>
   <g id="PathCollection_3"/>
   <g id="PathCollection_4"/>
   <g id="PathCollection_5"/>
   <g id="PathCollection_6"/>
   <g id="PathCollection_7"/>
   <g id="matplotlib.axis_1">
    <g id="xtick_1">
     <g id="line2d_1">
      <path d="M 61.642543 671.344125 
L 61.642543 39.624125 
" clip-path="url(#pb9c55355e3)" style="fill: none; stroke: #cccccc; stroke-opacity: 0.3; stroke-width: 0.8; stroke-linecap: square"/>
     </g>
     <g id="line2d_2">
      <defs>
       <path id="m5a442d4f29" d="M 0 0 
L 0 3.5 
" style="stroke: #000000; stroke-width: 0.8"/>
      </defs>
      <g>
       <use xlink:href="#m5a442d4f29" x="61.642543" y="671.344125" style="stroke: #000000; stroke-width: 0.8"/>
      </g>
     </g>
     <g id="text_1">
      <!-- 0.0 -->
      <g transform="translate(53.690981 685.942563) scale(0.1 -0.1)">
       <defs>
        <path id="DejaVuSans-30" d="M 2034 4250 
Q 1547 4250 1301 3770 
Q 1056 3291 1056 2328 
Q 1056 1369 1301 889 
Q 1547 409 2034 409 
Q 2525 409 2770 889 
Q 3016 1369 3016 2328 
Q 3016 3291 2770 3770 
Q 2525 4250 2034 4250 
z
M 2034 4750 
Q 2819 4750 3233 4129 
Q 3647 3509 3647 2328 
Q 3647 1150 3233 529 
Q 2819 -91 2034 -91 
Q 1250 -91 836 529 
Q 422 1150 422 2328 
Q 422 3509 836 4129 
Q 1250 4750 2034 4750 
z
" transform="scale(0.015625)"/>
        <path id="DejaVuSans-2e" d="M 684 794 
L 1344 794 
L 1344 0 
L 684 0 
L 684 794 
z
" transform="scale(0.015625)"/>
       </defs>
       <use xlink:href="#DejaVuSans-30"/>
       <use xlink:href="#DejaVuSans-2e" transform="translate(63.623047 0)"/>
       <use xlink:href="#DejaVuSans-30" transform="translate(95.410156 0)"/>
      </g>
     </g>
    </g>
    <g id="xtick_2">
     <g id="line2d_3">
      <path d="M 220.899227 671.344125 
L 220.899227 39.624125 
" clip-path="url(#pb9c55355e3)" style="fill: none; stroke: #cccccc; stroke-opacity: 0.3; stroke-width: 0.8; stroke-linecap: square"/>
     </g>
     <g id="line2d_4">
      <g>
       <use xlink:href="#m5a442d4f29" x="220.899227" y="671.344125" style="stroke: #000000; stroke-width: 0.8"/>
      </g>
     </g>
     <g id="text_2">
      <!-- 0.2 -->
      <g transform="translate(212.947665 685.942563) scale(0.1 -0.1)">
       <defs>
        <path id="DejaVuSans-32" d="M 1228 531 
L 3431 531 
L 3431 0 
L 469 0 
L 469 531 
Q 828 903 1448 1529 
Q 2069 2156 2228 2338 
Q 2531 2678 2651 2914 
Q 2772 3150 2772 3378 
Q 2772 3750 2511 3984 
Q 2250 4219 1831 4219 
Q 1534 4219 1204 4116 
Q 875 4013 500 3803 
L 500 4441 
Q 881 4594 1212 4672 
Q 1544 4750 1819 4750 
Q 2544 4750 2975 4387 
Q 3406 4025 3406 3419 
Q 3406 3131 3298 2873 
Q 3191 2616 2906 2266 
Q 2828 2175 2409 1742 
Q 1991 1309 1228 531 
z
" transform="scale(0.015625)"/>
       </defs>
       <use xlink:href="#DejaVuSans-30"/>
       <use xlink:href="#DejaVuSans-2e" transform="translate(63.623047 0)"/>
       <use xlink:href="#DejaVuSans-32" transform="translate(95.410156 0)"/>
      </g>
     </g>
    </g>
    <g id="xtick_3">
     <g id="line2d_5">
      <path d="M 380.155911 671.344125 
L 380.155911 39.624125 
" clip-path="url(#pb9c55355e3)" style="fill: none; stroke: #cccccc; stroke-opacity: 0.3; stroke-width: 0.8; stroke-linecap: square"/>
     </g>
     <g id="line2d_6">
      <g>
       <use xlink:href="#m5a442d4f29" x="380.155911" y="671.344125" style="stroke: #000000; stroke-width: 0.8"/>
      </g>
     </g>
     <g id="text_3">
      <!-- 0.4 -->
      <g transform="translate(372.204349 685.942563) scale(0.1 -0.1)">
       <defs>
        <path id="DejaVuSans-34" d="M 2419 4116 
L 825 1625 
L 2419 1625 
L 2419 4116 
z
M 2253 4666 
L 3047 4666 
L 3047 1625 
L 3713 1625 
L 3713 1100 
L 3047 1100 
L 3047 0 
L 2419 0 
L 2419 1100 
L 313 1100 
L 313 1709 
L 2253 4666 
z
" transform="scale(0.015625)"/>
       </defs>
       <use xlink:href="#DejaVuSans-30"/>
       <use xlink:href="#DejaVuSans-2e" transform="translate(63.623047 0)"/>
       <use xlink:href="#DejaVuSans-34" transform="translate(95.410156 0)"/>
      </g>
     </g>
    </g>
    <g id="xtick_4">
     <g id="line2d_7">
      <path d="M 539.412595 671.344125 
L 539.412595 39.624125 
" clip-path="url(#pb9c55355e3)" style="fill: none; stroke: #cccccc; stroke-opacity: 0.3; stroke-width: 0.8; stroke-linecap: square"/>
     </g>
     <g id="line2d_8">
      <g>
       <use xlink:href="#m5a442d4f29" x="539.412595" y="671.344125" style="stroke: #000000; stroke-width: 0.8"/>
      </g>
     </g>
     <g id="text_4">
      <!-- 0.6 -->
      <g transform="translate(531.461033 685.942563) scale(0.1 -0.1)">
       <defs>
        <path id="DejaVuSans-36" d="M 2113 2584 
Q 1688 2584 1439 2293 
Q 1191 2003 1191 1497 
Q 1191 994 1439 701 
Q 1688 409 2113 409 
Q 2538 409 2786 701 
Q 3034 994 3034 1497 
Q 3034 2003 2786 2293 
Q 2538 2584 2113 2584 
z
M 3366 4563 
L 3366 3988 
Q 3128 4100 2886 4159 
Q 2644 4219 2406 4219 
Q 1781 4219 1451 3797 
Q 1122 3375 1075 2522 
Q 1259 2794 1537 2939 
Q 1816 3084 2150 3084 
Q 2853 3084 3261 2657 
Q 3669 2231 3669 1497 
Q 3669 778 3244 343 
Q 2819 -91 2113 -91 
Q 1303 -91 875 529 
Q 447 1150 447 2328 
Q 447 3434 972 4092 
Q 1497 4750 2381 4750 
Q 2619 4750 2861 4703 
Q 3103 4656 3366 4563 
z
" transform="scale(0.015625)"/>
       </defs>
       <use xlink:href="#DejaVuSans-30"/>
       <use xlink:href="#DejaVuSans-2e" transform="translate(63.623047 0)"/>
       <use xlink:href="#DejaVuSans-36" transform="translate(95.410156 0)"/>
      </g>
     </g>
    </g>
    <g id="xtick_5">
     <g id="line2d_9">
      <path d="M 698.669279 671.344125 
L 698.669279 39.624125 
" clip-path="url(#pb9c55355e3)" style="fill: none; stroke: #cccccc; stroke-opacity: 0.3; stroke-width: 0.8; stroke-linecap: square"/>
     </g>
     <g id="line2d_10">
      <g>
       <use xlink:href="#m5a442d4f29" x="698.669279" y="671.344125" style="stroke: #000000; stroke-width: 0.8"/>
      </g>
     </g>
     <g id="text_5">
      <!-- 0.8 -->
      <g transform="translate(690.717717 685.942563) scale(0.1 -0.1)">
       <defs>
        <path id="DejaVuSans-38" d="M 2034 2216 
Q 1584 2216 1326 1975 
Q 1069 1734 1069 1313 
Q 1069 891 1326 650 
Q 1584 409 2034 409 
Q 2484 409 2743 651 
Q 3003 894 3003 1313 
Q 3003 1734 2745 1975 
Q 2488 2216 2034 2216 
z
M 1403 2484 
Q 997 2584 770 2862 
Q 544 3141 544 3541 
Q 544 4100 942 4425 
Q 1341 4750 2034 4750 
Q 2731 4750 3128 4425 
Q 3525 4100 3525 3541 
Q 3525 3141 3298 2862 
Q 3072 2584 2669 2484 
Q 3125 2378 3379 2068 
Q 3634 1759 3634 1313 
Q 3634 634 3220 271 
Q 2806 -91 2034 -91 
Q 1263 -91 848 271 
Q 434 634 434 1313 
Q 434 1759 690 2068 
Q 947 2378 1403 2484 
z
M 1172 3481 
Q 1172 3119 1398 2916 
Q 1625 2713 2034 2713 
Q 2441 2713 2670 2916 
Q 2900 3119 2900 3481 
Q 2900 3844 2670 4047 
Q 2441 4250 2034 4250 
Q 1625 4250 1398 4047 
Q 1172 3844 1172 3481 
z
" transform="scale(0.015625)"/>
       </defs>
       <use xlink:href="#DejaVuSans-30"/>
       <use xlink:href="#DejaVuSans-2e" transform="translate(63.623047 0)"/>
       <use xlink:href="#DejaVuSans-38" transform="translate(95.410156 0)"/>
      </g>
     </g>
    </g>
    <g id="text_6">
     <!-- Settled Drift (Permanent Identity Change) -->
     <g transform="translate(304.017188 701.140375) scale(0.12 -0.12)">
      <defs>
       <path id="DejaVuSans-Bold-53" d="M 3834 4519 
L 3834 3531 
Q 3450 3703 3084 3790 
Q 2719 3878 2394 3878 
Q 1963 3878 1756 3759 
Q 1550 3641 1550 3391 
Q 1550 3203 1689 3098 
Q 1828 2994 2194 2919 
L 2706 2816 
Q 3484 2659 3812 2340 
Q 4141 2022 4141 1434 
Q 4141 663 3683 286 
Q 3225 -91 2284 -91 
Q 1841 -91 1394 -6 
Q 947 78 500 244 
L 500 1259 
Q 947 1022 1364 901 
Q 1781 781 2169 781 
Q 2563 781 2772 912 
Q 2981 1044 2981 1288 
Q 2981 1506 2839 1625 
Q 2697 1744 2272 1838 
L 1806 1941 
Q 1106 2091 782 2419 
Q 459 2747 459 3303 
Q 459 4000 909 4375 
Q 1359 4750 2203 4750 
Q 2588 4750 2994 4692 
Q 3400 4634 3834 4519 
z
" transform="scale(0.015625)"/>
       <path id="DejaVuSans-Bold-65" d="M 4031 1759 
L 4031 1441 
L 1416 1441 
Q 1456 1047 1700 850 
Q 1944 653 2381 653 
Q 2734 653 3104 758 
Q 3475 863 3866 1075 
L 3866 213 
Q 3469 63 3072 -14 
Q 2675 -91 2278 -91 
Q 1328 -91 801 392 
Q 275 875 275 1747 
Q 275 2603 792 3093 
Q 1309 3584 2216 3584 
Q 3041 3584 3536 3087 
Q 4031 2591 4031 1759 
z
M 2881 2131 
Q 2881 2450 2695 2645 
Q 2509 2841 2209 2841 
Q 1884 2841 1681 2658 
Q 1478 2475 1428 2131 
L 2881 2131 
z
" transform="scale(0.015625)"/>
       <path id="DejaVuSans-Bold-74" d="M 1759 4494 
L 1759 3500 
L 2913 3500 
L 2913 2700 
L 1759 2700 
L 1759 1216 
Q 1759 972 1856 886 
Q 1953 800 2241 800 
L 2816 800 
L 2816 0 
L 1856 0 
Q 1194 0 917 276 
Q 641 553 641 1216 
L 641 2700 
L 84 2700 
L 84 3500 
L 641 3500 
L 641 4494 
L 1759 4494 
z
" transform="scale(0.015625)"/>
       <path id="DejaVuSans-Bold-6c" d="M 538 4863 
L 1656 4863 
L 1656 0 
L 538 0 
L 538 4863 
z
" transform="scale(0.015625)"/>
       <path id="DejaVuSans-Bold-64" d="M 2919 2988 
L 2919 4863 
L 4044 4863 
L 4044 0 
L 2919 0 
L 2919 506 
Q 2688 197 2409 53 
Q 2131 -91 1766 -91 
Q 1119 -91 703 423 
Q 288 938 288 1747 
Q 288 2556 703 3070 
Q 1119 3584 1766 3584 
Q 2128 3584 2408 3439 
Q 2688 3294 2919 2988 
z
M 2181 722 
Q 2541 722 2730 984 
Q 2919 1247 2919 1747 
Q 2919 2247 2730 2509 
Q 2541 2772 2181 2772 
Q 1825 2772 1636 2509 
Q 1447 2247 1447 1747 
Q 1447 1247 1636 984 
Q 1825 722 2181 722 
z
" transform="scale(0.015625)"/>
       <path id="DejaVuSans-Bold-20" transform="scale(0.015625)"/>
       <path id="DejaVuSans-Bold-44" d="M 1791 3756 
L 1791 909 
L 2222 909 
Q 2959 909 3348 1275 
Q 3738 1641 3738 2338 
Q 3738 3031 3350 3393 
Q 2963 3756 2222 3756 
L 1791 3756 
z
M 588 4666 
L 1856 4666 
Q 2919 4666 3439 4514 
Q 3959 4363 4331 4000 
Q 4659 3684 4818 3271 
Q 4978 2859 4978 2338 
Q 4978 1809 4818 1395 
Q 4659 981 4331 666 
Q 3956 303 3431 151 
Q 2906 0 1856 0 
L 588 0 
L 588 4666 
z
" transform="scale(0.015625)"/>
       <path id="DejaVuSans-Bold-72" d="M 3138 2547 
Q 2991 2616 2845 2648 
Q 2700 2681 2553 2681 
Q 2122 2681 1889 2404 
Q 1656 2128 1656 1613 
L 1656 0 
L 538 0 
L 538 3500 
L 1656 3500 
L 1656 2925 
Q 1872 3269 2151 3426 
Q 2431 3584 2822 3584 
Q 2878 3584 2943 3579 
Q 3009 3575 3134 3559 
L 3138 2547 
z
" transform="scale(0.015625)"/>
       <path id="DejaVuSans-Bold-69" d="M 538 3500 
L 1656 3500 
L 1656 0 
L 538 0 
L 538 3500 
z
M 538 4863 
L 1656 4863 
L 1656 3950 
L 538 3950 
L 538 4863 
z
" transform="scale(0.015625)"/>
       <path id="DejaVuSans-Bold-66" d="M 2841 4863 
L 2841 4128 
L 2222 4128 
Q 1984 4128 1890 4042 
Q 1797 3956 1797 3744 
L 1797 3500 
L 2753 3500 
L 2753 2700 
L 1797 2700 
L 1797 0 
L 678 0 
L 678 2700 
L 122 2700 
L 122 3500 
L 678 3500 
L 678 3744 
Q 678 4316 997 4589 
Q 1316 4863 1984 4863 
L 2841 4863 
z
" transform="scale(0.015625)"/>
       <path id="DejaVuSans-Bold-28" d="M 2413 -844 
L 1484 -844 
Q 1006 -72 778 623 
Q 550 1319 550 2003 
Q 550 2688 779 3389 
Q 1009 4091 1484 4856 
L 2413 4856 
Q 2013 4116 1813 3408 
Q 1613 2700 1613 2009 
Q 1613 1319 1811 609 
Q 2009 -100 2413 -844 
z
" transform="scale(0.015625)"/>
       <path id="DejaVuSans-Bold-50" d="M 588 4666 
L 2584 4666 
Q 3475 4666 3951 4270 
Q 4428 3875 4428 3144 
Q 4428 2409 3951 2014 
Q 3475 1619 2584 1619 
L 1791 1619 
L 1791 0 
L 588 0 
L 588 4666 
z
M 1791 3794 
L 1791 2491 
L 2456 2491 
Q 2806 2491 2997 2661 
Q 3188 2831 3188 3144 
Q 3188 3456 2997 3625 
Q 2806 3794 2456 3794 
L 1791 3794 
z
" transform="scale(0.015625)"/>
       <path id="DejaVuSans-Bold-6d" d="M 3781 2919 
Q 3994 3244 4286 3414 
Q 4578 3584 4928 3584 
Q 5531 3584 5847 3212 
Q 6163 2841 6163 2131 
L 6163 0 
L 5038 0 
L 5038 1825 
Q 5041 1866 5042 1909 
Q 5044 1953 5044 2034 
Q 5044 2406 4934 2573 
Q 4825 2741 4581 2741 
Q 4263 2741 4089 2478 
Q 3916 2216 3909 1719 
L 3909 0 
L 2784 0 
L 2784 1825 
Q 2784 2406 2684 2573 
Q 2584 2741 2328 2741 
Q 2006 2741 1831 2477 
Q 1656 2213 1656 1722 
L 1656 0 
L 531 0 
L 531 3500 
L 1656 3500 
L 1656 2988 
Q 1863 3284 2130 3434 
Q 2397 3584 2719 3584 
Q 3081 3584 3359 3409 
Q 3638 3234 3781 2919 
z
" transform="scale(0.015625)"/>
       <path id="DejaVuSans-Bold-61" d="M 2106 1575 
Q 1756 1575 1579 1456 
Q 1403 1338 1403 1106 
Q 1403 894 1545 773 
Q 1688 653 1941 653 
Q 2256 653 2472 879 
Q 2688 1106 2688 1447 
L 2688 1575 
L 2106 1575 
z
M 3816 1997 
L 3816 0 
L 2688 0 
L 2688 519 
Q 2463 200 2181 54 
Q 1900 -91 1497 -91 
Q 953 -91 614 226 
Q 275 544 275 1050 
Q 275 1666 698 1953 
Q 1122 2241 2028 2241 
L 2688 2241 
L 2688 2328 
Q 2688 2594 2478 2717 
Q 2269 2841 1825 2841 
Q 1466 2841 1156 2769 
Q 847 2697 581 2553 
L 581 3406 
Q 941 3494 1303 3539 
Q 1666 3584 2028 3584 
Q 2975 3584 3395 3211 
Q 3816 2838 3816 1997 
z
" transform="scale(0.015625)"/>
       <path id="DejaVuSans-Bold-6e" d="M 4056 2131 
L 4056 0 
L 2931 0 
L 2931 347 
L 2931 1631 
Q 2931 2084 2911 2256 
Q 2891 2428 2841 2509 
Q 2775 2619 2662 2680 
Q 2550 2741 2406 2741 
Q 2056 2741 1856 2470 
Q 1656 2200 1656 1722 
L 1656 0 
L 538 0 
L 538 3500 
L 1656 3500 
L 1656 2988 
Q 1909 3294 2193 3439 
Q 2478 3584 2822 3584 
Q 3428 3584 3742 3212 
Q 4056 2841 4056 2131 
z
" transform="scale(0.015625)"/>
       <path id="DejaVuSans-Bold-49" d="M 588 4666 
L 1791 4666 
L 1791 0 
L 588 0 
L 588 4666 
z
" transform="scale(0.015625)"/>
       <path id="DejaVuSans-Bold-79" d="M 78 3500 
L 1197 3500 
L 2138 1125 
L 2938 3500 
L 4056 3500 
L 2584 -331 
Q 2363 -916 2067 -1148 
Q 1772 -1381 1288 -1381 
L 641 -1381 
L 641 -647 
L 991 -647 
Q 1275 -647 1404 -556 
Q 1534 -466 1606 -231 
L 1638 -134 
L 78 3500 
z
" transform="scale(0.015625)"/>
       <path id="DejaVuSans-Bold-43" d="M 4288 256 
Q 3956 84 3597 -3 
Q 3238 -91 2847 -91 
Q 1681 -91 1000 561 
Q 319 1213 319 2328 
Q 319 3447 1000 4098 
Q 1681 4750 2847 4750 
Q 3238 4750 3597 4662 
Q 3956 4575 4288 4403 
L 4288 3438 
Q 3953 3666 3628 3772 
Q 3303 3878 2944 3878 
Q 2300 3878 1931 3465 
Q 1563 3053 1563 2328 
Q 1563 1606 1931 1193 
Q 2300 781 2944 781 
Q 3303 781 3628 887 
Q 3953 994 4288 1222 
L 4288 256 
z
" transform="scale(0.015625)"/>
       <path id="DejaVuSans-Bold-68" d="M 4056 2131 
L 4056 0 
L 2931 0 
L 2931 347 
L 2931 1625 
Q 2931 2084 2911 2256 
Q 2891 2428 2841 2509 
Q 2775 2619 2662 2680 
Q 2550 2741 2406 2741 
Q 2056 2741 1856 2470 
Q 1656 2200 1656 1722 
L 1656 0 
L 538 0 
L 538 4863 
L 1656 4863 
L 1656 2988 
Q 1909 3294 2193 3439 
Q 2478 3584 2822 3584 
Q 3428 3584 3742 3212 
Q 4056 2841 4056 2131 
z
" transform="scale(0.015625)"/>
       <path id="DejaVuSans-Bold-67" d="M 2919 594 
Q 2688 288 2409 144 
Q 2131 0 1766 0 
Q 1125 0 706 504 
Q 288 1009 288 1791 
Q 288 2575 706 3076 
Q 1125 3578 1766 3578 
Q 2131 3578 2409 3434 
Q 2688 3291 2919 2981 
L 2919 3500 
L 4044 3500 
L 4044 353 
Q 4044 -491 3511 -936 
Q 2978 -1381 1966 -1381 
Q 1638 -1381 1331 -1331 
Q 1025 -1281 716 -1178 
L 716 -306 
Q 1009 -475 1290 -558 
Q 1572 -641 1856 -641 
Q 2406 -641 2662 -400 
Q 2919 -159 2919 353 
L 2919 594 
z
M 2181 2772 
Q 1834 2772 1640 2515 
Q 1447 2259 1447 1791 
Q 1447 1309 1634 1061 
Q 1822 813 2181 813 
Q 2531 813 2725 1069 
Q 2919 1325 2919 1791 
Q 2919 2259 2725 2515 
Q 2531 2772 2181 2772 
z
" transform="scale(0.015625)"/>
       <path id="DejaVuSans-Bold-29" d="M 513 -844 
Q 913 -100 1113 609 
Q 1313 1319 1313 2009 
Q 1313 2700 1113 3408 
Q 913 4116 513 4856 
L 1441 4856 
Q 1916 4091 2145 3389 
Q 2375 2688 2375 2003 
Q 2375 1319 2147 623 
Q 1919 -72 1441 -844 
L 513 -844 
z
" transform="scale(0.015625)"/>
      </defs>
      <use xlink:href="#DejaVuSans-Bold-53"/>
      <use xlink:href="#DejaVuSans-Bold-65" transform="translate(72.021484 0)"/>
      <use xlink:href="#DejaVuSans-Bold-74" transform="translate(139.84375 0)"/>
      <use xlink:href="#DejaVuSans-Bold-74" transform="translate(187.646484 0)"/>
      <use xlink:href="#DejaVuSans-Bold-6c" transform="translate(235.449219 0)"/>
      <use xlink:href="#DejaVuSans-Bold-65" transform="translate(269.726562 0)"/>
      <use xlink:href="#DejaVuSans-Bold-64" transform="translate(337.548828 0)"/>
      <use xlink:href="#DejaVuSans-Bold-20" transform="translate(409.130859 0)"/>
      <use xlink:href="#DejaVuSans-Bold-44" transform="translate(443.945312 0)"/>
      <use xlink:href="#DejaVuSans-Bold-72" transform="translate(526.953125 0)"/>
      <use xlink:href="#DejaVuSans-Bold-69" transform="translate(576.269531 0)"/>
      <use xlink:href="#DejaVuSans-Bold-66" transform="translate(610.546875 0)"/>
      <use xlink:href="#DejaVuSans-Bold-74" transform="translate(654.052734 0)"/>
      <use xlink:href="#DejaVuSans-Bold-20" transform="translate(701.855469 0)"/>
      <use xlink:href="#DejaVuSans-Bold-28" transform="translate(736.669922 0)"/>
      <use xlink:href="#DejaVuSans-Bold-50" transform="translate(782.373047 0)"/>
      <use xlink:href="#DejaVuSans-Bold-65" transform="translate(855.664062 0)"/>
      <use xlink:href="#DejaVuSans-Bold-72" transform="translate(923.486328 0)"/>
      <use xlink:href="#DejaVuSans-Bold-6d" transform="translate(972.802734 0)"/>
      <use xlink:href="#DejaVuSans-Bold-61" transform="translate(1077.001953 0)"/>
      <use xlink:href="#DejaVuSans-Bold-6e" transform="translate(1144.482422 0)"/>
      <use xlink:href="#DejaVuSans-Bold-65" transform="translate(1215.673828 0)"/>
      <use xlink:href="#DejaVuSans-Bold-6e" transform="translate(1283.496094 0)"/>
      <use xlink:href="#DejaVuSans-Bold-74" transform="translate(1354.6875 0)"/>
      <use xlink:href="#DejaVuSans-Bold-20" transform="translate(1402.490234 0)"/>
      <use xlink:href="#DejaVuSans-Bold-49" transform="translate(1437.304688 0)"/>
      <use xlink:href="#DejaVuSans-Bold-64" transform="translate(1474.511719 0)"/>
      <use xlink:href="#DejaVuSans-Bold-65" transform="translate(1546.09375 0)"/>
      <use xlink:href="#DejaVuSans-Bold-6e" transform="translate(1613.916016 0)"/>
      <use xlink:href="#DejaVuSans-Bold-74" transform="translate(1685.107422 0)"/>
      <use xlink:href="#DejaVuSans-Bold-69" transform="translate(1732.910156 0)"/>
      <use xlink:href="#DejaVuSans-Bold-74" transform="translate(1767.1875 0)"/>
      <use xlink:href="#DejaVuSans-Bold-79" transform="translate(1814.990234 0)"/>
      <use xlink:href="#DejaVuSans-Bold-20" transform="translate(1880.175781 0)"/>
      <use xlink:href="#DejaVuSans-Bold-43" transform="translate(1914.990234 0)"/>
      <use xlink:href="#DejaVuSans-Bold-68" transform="translate(1988.378906 0)"/>
      <use xlink:href="#DejaVuSans-Bold-61" transform="translate(2059.570312 0)"/>
      <use xlink:href="#DejaVuSans-Bold-6e" transform="translate(2127.050781 0)"/>
      <use xlink:href="#DejaVuSans-Bold-67" transform="translate(2198.242188 0)"/>
      <use xlink:href="#DejaVuSans-Bold-65" transform="translate(2269.824219 0)"/>
      <use xlink:href="#DejaVuSans-Bold-29" transform="translate(2337.646484 0)"/>
     </g>
    </g>
   </g>
   <g id="matplotlib.axis_2">
    <g id="ytick_1">
     <g id="line2d_11">
      <path d="M 45.716875 658.80916 
L 848.316875 658.80916 
" clip-path="url(#pb9c55355e3)" style="fill: none; stroke: #cccccc; stroke-opacity: 0.3; stroke-width: 0.8; stroke-linecap: square"/>
     </g>
     <g id="line2d_12">
      <defs>
       <path id="m66df3013cc" d="M 0 0 
L -3.5 0 
" style="stroke: #000000; stroke-width: 0.8"/>
      </defs>
      <g>
       <use xlink:href="#m66df3013cc" x="45.716875" y="658.80916" style="stroke: #000000; stroke-width: 0.8"/>
      </g>
     </g>
     <g id="text_7">
      <!-- 0.0 -->
      <g transform="translate(22.81375 662.608378) scale(0.1 -0.1)">
       <use xlink:href="#DejaVuSans-30"/>
       <use xlink:href="#DejaVuSans-2e" transform="translate(63.623047 0)"/>
       <use xlink:href="#DejaVuSans-30" transform="translate(95.410156 0)"/>
      </g>
     </g>
    </g>
    <g id="ytick_2">
     <g id="line2d_13">
      <path d="M 45.716875 533.459505 
L 848.316875 533.459505 
" clip-path="url(#pb9c55355e3)" style="fill: none; stroke: #cccccc; stroke-opacity: 0.3; stroke-width: 0.8; stroke-linecap: square"/>
     </g>
     <g id="line2d_14">
      <g>
       <use xlink:href="#m66df3013cc" x="45.716875" y="533.459505" style="stroke: #000000; stroke-width: 0.8"/>
      </g>
     </g>
     <g id="text_8">
      <!-- 0.2 -->
      <g transform="translate(22.81375 537.258724) scale(0.1 -0.1)">
       <use xlink:href="#DejaVuSans-30"/>
       <use xlink:href="#DejaVuSans-2e" transform="translate(63.623047 0)"/>
       <use xlink:href="#DejaVuSans-32" transform="translate(95.410156 0)"/>
      </g>
     </g>
    </g>
    <g id="ytick_3">
     <g id="line2d_15">
      <path d="M 45.716875 408.109851 
L 848.316875 408.109851 
" clip-path="url(#pb9c55355e3)" style="fill: none; stroke: #cccccc; stroke-opacity: 0.3; stroke-width: 0.8; stroke-linecap: square"/>
     </g>
     <g id="line2d_16">
      <g>
       <use xlink:href="#m66df3013cc" x="45.716875" y="408.109851" style="stroke: #000000; stroke-width: 0.8"/>
      </g>
     </g>
     <g id="text_9">
      <!-- 0.4 -->
      <g transform="translate(22.81375 411.90907) scale(0.1 -0.1)">
       <use xlink:href="#DejaVuSans-30"/>
       <use xlink:href="#DejaVuSans-2e" transform="translate(63.623047 0)"/>
       <use xlink:href="#DejaVuSans-34" transform="translate(95.410156 0)"/>
      </g>
     </g>
    </g>
    <g id="ytick_4">
     <g id="line2d_17">
      <path d="M 45.716875 282.760197 
L 848.316875 282.760197 
" clip-path="url(#pb9c55355e3)" style="fill: none; stroke: #cccccc; stroke-opacity: 0.3; stroke-width: 0.8; stroke-linecap: square"/>
     </g>
     <g id="line2d_18">
      <g>
       <use xlink:href="#m66df3013cc" x="45.716875" y="282.760197" style="stroke: #000000; stroke-width: 0.8"/>
      </g>
     </g>
     <g id="text_10">
      <!-- 0.6 -->
      <g transform="translate(22.81375 286.559416) scale(0.1 -0.1)">
       <use xlink:href="#DejaVuSans-30"/>
       <use xlink:href="#DejaVuSans-2e" transform="translate(63.623047 0)"/>
       <use xlink:href="#DejaVuSans-36" transform="translate(95.410156 0)"/>
      </g>
     </g>
    </g>
    <g id="ytick_5">
     <g id="line2d_19">
      <path d="M 45.716875 157.410543 
L 848.316875 157.410543 
" clip-path="url(#pb9c55355e3)" style="fill: none; stroke: #cccccc; stroke-opacity: 0.3; stroke-width: 0.8; stroke-linecap: square"/>
     </g>
     <g id="line2d_20">
      <g>
       <use xlink:href="#m66df3013cc" x="45.716875" y="157.410543" style="stroke: #000000; stroke-width: 0.8"/>
      </g>
     </g>
     <g id="text_11">
      <!-- 0.8 -->
      <g transform="translate(22.81375 161.209762) scale(0.1 -0.1)">
       <use xlink:href="#DejaVuSans-30"/>
       <use xlink:href="#DejaVuSans-2e" transform="translate(63.623047 0)"/>
       <use xlink:href="#DejaVuSans-38" transform="translate(95.410156 0)"/>
      </g>
     </g>
    </g>
    <g id="text_12">
     <!-- Step Input Drift (Perturbation Response) -->
     <g transform="translate(16.318125 494.0635) rotate(-90) scale(0.12 -0.12)">
      <defs>
       <path id="DejaVuSans-Bold-70" d="M 1656 506 
L 1656 -1331 
L 538 -1331 
L 538 3500 
L 1656 3500 
L 1656 2988 
Q 1888 3294 2169 3439 
Q 2450 3584 2816 3584 
Q 3463 3584 3878 3070 
Q 4294 2556 4294 1747 
Q 4294 938 3878 423 
Q 3463 -91 2816 -91 
Q 2450 -91 2169 54 
Q 1888 200 1656 506 
z
M 2400 2772 
Q 2041 2772 1848 2508 
Q 1656 2244 1656 1747 
Q 1656 1250 1848 986 
Q 2041 722 2400 722 
Q 2759 722 2948 984 
Q 3138 1247 3138 1747 
Q 3138 2247 2948 2509 
Q 2759 2772 2400 2772 
z
" transform="scale(0.015625)"/>
       <path id="DejaVuSans-Bold-75" d="M 500 1363 
L 500 3500 
L 1625 3500 
L 1625 3150 
Q 1625 2866 1622 2436 
Q 1619 2006 1619 1863 
Q 1619 1441 1641 1255 
Q 1663 1069 1716 984 
Q 1784 875 1895 815 
Q 2006 756 2150 756 
Q 2500 756 2700 1025 
Q 2900 1294 2900 1772 
L 2900 3500 
L 4019 3500 
L 4019 0 
L 2900 0 
L 2900 506 
Q 2647 200 2364 54 
Q 2081 -91 1741 -91 
Q 1134 -91 817 281 
Q 500 653 500 1363 
z
" transform="scale(0.015625)"/>
       <path id="DejaVuSans-Bold-62" d="M 2400 722 
Q 2759 722 2948 984 
Q 3138 1247 3138 1747 
Q 3138 2247 2948 2509 
Q 2759 2772 2400 2772 
Q 2041 2772 1848 2508 
Q 1656 2244 1656 1747 
Q 1656 1250 1848 986 
Q 2041 722 2400 722 
z
M 1656 2988 
Q 1888 3294 2169 3439 
Q 2450 3584 2816 3584 
Q 3463 3584 3878 3070 
Q 4294 2556 4294 1747 
Q 4294 938 3878 423 
Q 3463 -91 2816 -91 
Q 2450 -91 2169 54 
Q 1888 200 1656 506 
L 1656 0 
L 538 0 
L 538 4863 
L 1656 4863 
L 1656 2988 
z
" transform="scale(0.015625)"/>
       <path id="DejaVuSans-Bold-6f" d="M 2203 2784 
Q 1831 2784 1636 2517 
Q 1441 2250 1441 1747 
Q 1441 1244 1636 976 
Q 1831 709 2203 709 
Q 2569 709 2762 976 
Q 2956 1244 2956 1747 
Q 2956 2250 2762 2517 
Q 2569 2784 2203 2784 
z
M 2203 3584 
Q 3106 3584 3614 3096 
Q 4122 2609 4122 1747 
Q 4122 884 3614 396 
Q 3106 -91 2203 -91 
Q 1297 -91 786 396 
Q 275 884 275 1747 
Q 275 2609 786 3096 
Q 1297 3584 2203 3584 
z
" transform="scale(0.015625)"/>
       <path id="DejaVuSans-Bold-52" d="M 2297 2597 
Q 2675 2597 2839 2737 
Q 3003 2878 3003 3200 
Q 3003 3519 2839 3656 
Q 2675 3794 2297 3794 
L 1791 3794 
L 1791 2597 
L 2297 2597 
z
M 1791 1766 
L 1791 0 
L 588 0 
L 588 4666 
L 2425 4666 
Q 3347 4666 3776 4356 
Q 4206 4047 4206 3378 
Q 4206 2916 3982 2619 
Q 3759 2322 3309 2181 
Q 3556 2125 3751 1926 
Q 3947 1728 4147 1325 
L 4800 0 
L 3519 0 
L 2950 1159 
Q 2778 1509 2601 1637 
Q 2425 1766 2131 1766 
L 1791 1766 
z
" transform="scale(0.015625)"/>
       <path id="DejaVuSans-Bold-73" d="M 3272 3391 
L 3272 2541 
Q 2913 2691 2578 2766 
Q 2244 2841 1947 2841 
Q 1628 2841 1473 2761 
Q 1319 2681 1319 2516 
Q 1319 2381 1436 2309 
Q 1553 2238 1856 2203 
L 2053 2175 
Q 2913 2066 3209 1816 
Q 3506 1566 3506 1031 
Q 3506 472 3093 190 
Q 2681 -91 1863 -91 
Q 1516 -91 1145 -36 
Q 775 19 384 128 
L 384 978 
Q 719 816 1070 734 
Q 1422 653 1784 653 
Q 2113 653 2278 743 
Q 2444 834 2444 1013 
Q 2444 1163 2330 1236 
Q 2216 1309 1875 1350 
L 1678 1375 
Q 931 1469 631 1722 
Q 331 1975 331 2491 
Q 331 3047 712 3315 
Q 1094 3584 1881 3584 
Q 2191 3584 2531 3537 
Q 2872 3491 3272 3391 
z
" transform="scale(0.015625)"/>
      </defs>
      <use xlink:href="#DejaVuSans-Bold-53"/>
      <use xlink:href="#DejaVuSans-Bold-74" transform="translate(72.021484 0)"/>
      <use xlink:href="#DejaVuSans-Bold-65" transform="translate(119.824219 0)"/>
      <use xlink:href="#DejaVuSans-Bold-70" transform="translate(187.646484 0)"/>
      <use xlink:href="#DejaVuSans-Bold-20" transform="translate(259.228516 0)"/>
      <use xlink:href="#DejaVuSans-Bold-49" transform="translate(294.042969 0)"/>
      <use xlink:href="#DejaVuSans-Bold-6e" transform="translate(331.25 0)"/>
      <use xlink:href="#DejaVuSans-Bold-70" transform="translate(402.441406 0)"/>
      <use xlink:href="#DejaVuSans-Bold-75" transform="translate(474.023438 0)"/>
      <use xlink:href="#DejaVuSans-Bold-74" transform="translate(545.214844 0)"/>
      <use xlink:href="#DejaVuSans-Bold-20" transform="translate(593.017578 0)"/>
      <use xlink:href="#DejaVuSans-Bold-44" transform="translate(627.832031 0)"/>
      <use xlink:href="#DejaVuSans-Bold-72" transform="translate(710.839844 0)"/>
      <use xlink:href="#DejaVuSans-Bold-69" transform="translate(760.15625 0)"/>
      <use xlink:href="#DejaVuSans-Bold-66" transform="translate(794.433594 0)"/>
      <use xlink:href="#DejaVuSans-Bold-74" transform="translate(837.939453 0)"/>
      <use xlink:href="#DejaVuSans-Bold-20" transform="translate(885.742188 0)"/>
      <use xlink:href="#DejaVuSans-Bold-28" transform="translate(920.556641 0)"/>
      <use xlink:href="#DejaVuSans-Bold-50" transform="translate(966.259766 0)"/>
      <use xlink:href="#DejaVuSans-Bold-65" transform="translate(1039.550781 0)"/>
      <use xlink:href="#DejaVuSans-Bold-72" transform="translate(1107.373047 0)"/>
      <use xlink:href="#DejaVuSans-Bold-74" transform="translate(1156.689453 0)"/>
      <use xlink:href="#DejaVuSans-Bold-75" transform="translate(1204.492188 0)"/>
      <use xlink:href="#DejaVuSans-Bold-72" transform="translate(1275.683594 0)"/>
      <use xlink:href="#DejaVuSans-Bold-62" transform="translate(1325 0)"/>
      <use xlink:href="#DejaVuSans-Bold-61" transform="translate(1396.582031 0)"/>
      <use xlink:href="#DejaVuSans-Bold-74" transform="translate(1464.0625 0)"/>
      <use xlink:href="#DejaVuSans-Bold-69" transform="translate(1511.865234 0)"/>
      <use xlink:href="#DejaVuSans-Bold-6f" transform="translate(1546.142578 0)"/>
      <use xlink:href="#DejaVuSans-Bold-6e" transform="translate(1614.84375 0)"/>
      <use xlink:href="#DejaVuSans-Bold-20" transform="translate(1686.035156 0)"/>
      <use xlink:href="#DejaVuSans-Bold-52" transform="translate(1720.849609 0)"/>
      <use xlink:href="#DejaVuSans-Bold-65" transform="translate(1797.851562 0)"/>
      <use xlink:href="#DejaVuSans-Bold-73" transform="translate(1865.673828 0)"/>
      <use xlink:href="#DejaVuSans-Bold-70" transform="translate(1925.195312 0)"/>
      <use xlink:href="#DejaVuSans-Bold-6f" transform="translate(1996.777344 0)"/>
      <use xlink:href="#DejaVuSans-Bold-6e" transform="translate(2065.478516 0)"/>
      <use xlink:href="#DejaVuSans-Bold-73" transform="translate(2136.669922 0)"/>
      <use xlink:href="#DejaVuSans-Bold-65" transform="translate(2196.191406 0)"/>
      <use xlink:href="#DejaVuSans-Bold-29" transform="translate(2264.013672 0)"/>
     </g>
    </g>
   </g>
   <g id="line2d_21">
    <path d="M 300.527569 671.344125 
L 300.527569 39.624125 
" clip-path="url(#pb9c55355e3)" style="fill: none; stroke-dasharray: 2,3.3; stroke-dashoffset: 0; stroke: #2ecc71; stroke-opacity: 0.7; stroke-width: 2"/>
   </g>
   <g id="line2d_22">
    <path d="M 45.716875 345.435024 
L 848.316875 345.435024 
" clip-path="url(#pb9c55355e3)" style="fill: none; stroke-dasharray: 2,3.3; stroke-dashoffset: 0; stroke: #3498db; stroke-opacity: 0.7; stroke-width: 2"/>
   </g>
   <g id="line2d_23">
    <path d="M 45.716875 157.410543 
L 848.316875 157.410543 
" clip-path="url(#pb9c55355e3)" style="fill: none; stroke-dasharray: 7.4,3.2; stroke-dashoffset: 0; stroke: #ff4444; stroke-opacity: 0.7; stroke-width: 2"/>
   </g>
   <g id="line2d_24">
    <path d="M 698.669279 671.344125 
L 698.669279 39.624125 
" clip-path="url(#pb9c55355e3)" style="fill: none; stroke-dasharray: 7.4,3.2; stroke-dashoffset: 0; stroke: #ff4444; stroke-opacity: 0.7; stroke-width: 2"/>
   </g>
   <g id="line2d_25">
    <path d="M 61.642543 658.80916 
L 69.588749 652.554765 
L 77.534954 646.300371 
L 85.48116 640.045977 
L 93.427365 633.791582 
L 101.37357 627.537188 
L 109.319776 621.282794 
L 117.265981 615.0284 
L 125.212186 608.774005 
L 133.158392 602.519611 
L 141.104597 596.265217 
L 149.050802 590.010822 
L 156.997008 583.756428 
L 164.943213 577.502034 
L 172.889419 571.24764 
L 180.835624 564.993245 
L 188.781829 558.738851 
L 196.728035 552.484457 
L 204.67424 546.230062 
L 212.620445 539.975668 
L 220.566651 533.721274 
L 228.512856 527.46688 
L 236.459062 521.212485 
L 244.405267 514.958091 
L 252.351472 508.703697 
L 260.297678 502.449302 
L 268.243883 496.194908 
L 276.190088 489.940514 
L 284.136294 483.68612 
L 292.082499 477.431725 
L 300.028704 471.177331 
L 307.97491 464.922937 
L 315.921115 458.668542 
L 323.867321 452.414148 
L 331.813526 446.159754 
L 339.759731 439.905359 
L 347.705937 433.650965 
L 355.652142 427.396571 
L 363.598347 421.142177 
L 371.544553 414.887782 
L 379.490758 408.633388 
L 387.436964 402.378994 
L 395.383169 396.124599 
L 403.329374 389.870205 
L 411.27558 383.615811 
L 419.221785 377.361417 
L 427.16799 371.107022 
L 435.114196 364.852628 
L 443.060401 358.598234 
L 451.006607 352.343839 
L 458.952812 346.089445 
L 466.899017 339.835051 
L 474.845223 333.580657 
L 482.791428 327.326262 
L 490.737633 321.071868 
L 498.683839 314.817474 
L 506.630044 308.563079 
L 514.576249 302.308685 
L 522.522455 296.054291 
L 530.46866 289.799897 
L 538.414866 283.545502 
L 546.361071 277.291108 
L 554.307276 271.036714 
L 562.253482 264.782319 
L 570.199687 258.527925 
L 578.145892 252.273531 
L 586.092098 246.019137 
L 594.038303 239.764742 
L 601.984509 233.510348 
L 609.930714 227.255954 
L 617.876919 221.001559 
L 625.823125 214.747165 
L 633.76933 208.492771 
L 641.715535 202.238377 
L 649.661741 195.983982 
L 657.607946 189.729588 
L 665.554151 183.475194 
L 673.500357 177.220799 
L 681.446562 170.966405 
L 689.392768 164.712011 
L 697.338973 158.457616 
L 705.285178 152.203222 
L 713.231384 145.948828 
L 721.177589 139.694434 
L 729.123794 133.440039 
L 737.07 127.185645 
L 745.016205 120.931251 
L 752.962411 114.676856 
L 760.908616 108.422462 
L 768.854821 102.168068 
L 776.801027 95.913674 
L 784.747232 89.659279 
L 792.693437 83.404885 
L 800.639643 77.150491 
L 808.585848 70.896096 
L 816.532054 64.641702 
L 824.478259 58.387308 
L 832.424464 52.132914 
L 840.37067 45.878519 
L 848.316875 39.624125 
" clip-path="url(#pb9c55355e3)" style="fill: none; stroke-dasharray: 5.55,2.4; stroke-dashoffset: 0; stroke: #95a5a6; stroke-opacity: 0.5; stroke-width: 1.5"/>
   </g>
   <g id="patch_3">
    <path d="M 45.716875 671.344125 
L 45.716875 39.624125 
" style="fill: none; stroke: #cccccc; stroke-width: 0.8; stroke-linejoin: miter; stroke-linecap: square"/>
   </g>
   <g id="patch_4">
    <path d="M 848.316875 671.344125 
L 848.316875 39.624125 
" style="fill: none; stroke: #cccccc; stroke-width: 0.8; stroke-linejoin: miter; stroke-linecap: square"/>
   </g>
   <g id="patch_5">
    <path d="M 45.716875 671.344125 
L 848.316875 671.344125 
" style="fill: none; stroke: #cccccc; stroke-width: 0.8; stroke-linejoin: miter; stroke-linecap: square"/>
   </g>
   <g id="patch_6">
    <path d="M 45.716875 39.624125 
L 848.316875 39.624125 
" style="fill: none; stroke: #cccccc; stroke-width: 0.8; stroke-linejoin: miter; stroke-linecap: square"/>
   </g>
   <g id="text_13">
    <!-- S7 Run 023d: Pole-Zero Map (Recovery vs Response) -->
    <g transform="translate(237.920313 17.837812) scale(0.14 -0.14)">
     <defs>
      <path id="DejaVuSans-Bold-37" d="M 428 4666 
L 3944 4666 
L 3944 3988 
L 2125 0 
L 953 0 
L 2675 3781 
L 428 3781 
L 428 4666 
z
" transform="scale(0.015625)"/>
      <path id="DejaVuSans-Bold-30" d="M 2944 2338 
Q 2944 3213 2780 3570 
Q 2616 3928 2228 3928 
Q 1841 3928 1675 3570 
Q 1509 3213 1509 2338 
Q 1509 1453 1675 1090 
Q 1841 728 2228 728 
Q 2613 728 2778 1090 
Q 2944 1453 2944 2338 
z
M 4147 2328 
Q 4147 1169 3647 539 
Q 3147 -91 2228 -91 
Q 1306 -91 806 539 
Q 306 1169 306 2328 
Q 306 3491 806 4120 
Q 1306 4750 2228 4750 
Q 3147 4750 3647 4120 
Q 4147 3491 4147 2328 
z
" transform="scale(0.015625)"/>
      <path id="DejaVuSans-Bold-32" d="M 1844 884 
L 3897 884 
L 3897 0 
L 506 0 
L 506 884 
L 2209 2388 
Q 2438 2594 2547 2791 
Q 2656 2988 2656 3200 
Q 2656 3528 2436 3728 
Q 2216 3928 1850 3928 
Q 1569 3928 1234 3808 
Q 900 3688 519 3450 
L 519 4475 
Q 925 4609 1322 4679 
Q 1719 4750 2100 4750 
Q 2938 4750 3402 4381 
Q 3866 4013 3866 3353 
Q 3866 2972 3669 2642 
Q 3472 2313 2841 1759 
L 1844 884 
z
" transform="scale(0.015625)"/>
      <path id="DejaVuSans-Bold-33" d="M 2981 2516 
Q 3453 2394 3698 2092 
Q 3944 1791 3944 1325 
Q 3944 631 3412 270 
Q 2881 -91 1863 -91 
Q 1503 -91 1142 -33 
Q 781 25 428 141 
L 428 1069 
Q 766 900 1098 814 
Q 1431 728 1753 728 
Q 2231 728 2486 893 
Q 2741 1059 2741 1369 
Q 2741 1688 2480 1852 
Q 2219 2016 1709 2016 
L 1228 2016 
L 1228 2791 
L 1734 2791 
Q 2188 2791 2409 2933 
Q 2631 3075 2631 3366 
Q 2631 3634 2415 3781 
Q 2200 3928 1806 3928 
Q 1516 3928 1219 3862 
Q 922 3797 628 3669 
L 628 4550 
Q 984 4650 1334 4700 
Q 1684 4750 2022 4750 
Q 2931 4750 3382 4451 
Q 3834 4153 3834 3553 
Q 3834 3144 3618 2883 
Q 3403 2622 2981 2516 
z
" transform="scale(0.015625)"/>
      <path id="DejaVuSans-Bold-3a" d="M 716 3500 
L 1844 3500 
L 1844 2291 
L 716 2291 
L 716 3500 
z
M 716 1209 
L 1844 1209 
L 1844 0 
L 716 0 
L 716 1209 
z
" transform="scale(0.015625)"/>
      <path id="DejaVuSans-Bold-2d" d="M 347 2297 
L 2309 2297 
L 2309 1388 
L 347 1388 
L 347 2297 
z
" transform="scale(0.015625)"/>
      <path id="DejaVuSans-Bold-5a" d="M 359 4666 
L 4281 4666 
L 4281 3938 
L 1778 909 
L 4353 909 
L 4353 0 
L 288 0 
L 288 728 
L 2791 3756 
L 359 3756 
L 359 4666 
z
" transform="scale(0.015625)"/>
      <path id="DejaVuSans-Bold-4d" d="M 588 4666 
L 2119 4666 
L 3181 2169 
L 4250 4666 
L 5778 4666 
L 5778 0 
L 4641 0 
L 4641 3413 
L 3566 897 
L 2803 897 
L 1728 3413 
L 1728 0 
L 588 0 
L 588 4666 
z
" transform="scale(0.015625)"/>
      <path id="DejaVuSans-Bold-63" d="M 3366 3391 
L 3366 2478 
Q 3138 2634 2908 2709 
Q 2678 2784 2431 2784 
Q 1963 2784 1702 2511 
Q 1441 2238 1441 1747 
Q 1441 1256 1702 982 
Q 1963 709 2431 709 
Q 2694 709 2930 787 
Q 3166 866 3366 1019 
L 3366 103 
Q 3103 6 2833 -42 
Q 2563 -91 2291 -91 
Q 1344 -91 809 395 
Q 275 881 275 1747 
Q 275 2613 809 3098 
Q 1344 3584 2291 3584 
Q 2566 3584 2833 3536 
Q 3100 3488 3366 3391 
z
" transform="scale(0.015625)"/>
      <path id="DejaVuSans-Bold-76" d="M 97 3500 
L 1216 3500 
L 2088 1081 
L 2956 3500 
L 4078 3500 
L 2700 0 
L 1472 0 
L 97 3500 
z
" transform="scale(0.015625)"/>
     </defs>
     <use xlink:href="#DejaVuSans-Bold-53"/>
     <use xlink:href="#DejaVuSans-Bold-37" transform="translate(72.021484 0)"/>
     <use xlink:href="#DejaVuSans-Bold-20" transform="translate(141.601562 0)"/>
     <use xlink:href="#DejaVuSans-Bold-52" transform="translate(176.416016 0)"/>
     <use xlink:href="#DejaVuSans-Bold-75" transform="translate(253.417969 0)"/>
     <use xlink:href="#DejaVuSans-Bold-6e" transform="translate(324.609375 0)"/>
     <use xlink:href="#DejaVuSans-Bold-20" transform="translate(395.800781 0)"/>
     <use xlink:href="#DejaVuSans-Bold-30" transform="translate(430.615234 0)"/>
     <use xlink:href="#DejaVuSans-Bold-32" transform="translate(500.195312 0)"/>
     <use xlink:href="#DejaVuSans-Bold-33" transform="translate(569.775391 0)"/>
     <use xlink:href="#DejaVuSans-Bold-64" transform="translate(639.355469 0)"/>
     <use xlink:href="#DejaVuSans-Bold-3a" transform="translate(710.9375 0)"/>
     <use xlink:href="#DejaVuSans-Bold-20" transform="translate(750.927734 0)"/>
     <use xlink:href="#DejaVuSans-Bold-50" transform="translate(785.742188 0)"/>
     <use xlink:href="#DejaVuSans-Bold-6f" transform="translate(859.033203 0)"/>
     <use xlink:href="#DejaVuSans-Bold-6c" transform="translate(927.734375 0)"/>
     <use xlink:href="#DejaVuSans-Bold-65" transform="translate(962.011719 0)"/>
     <use xlink:href="#DejaVuSans-Bold-2d" transform="translate(1029.833984 0)"/>
     <use xlink:href="#DejaVuSans-Bold-5a" transform="translate(1071.337891 0)"/>
     <use xlink:href="#DejaVuSans-Bold-65" transform="translate(1143.847656 0)"/>
     <use xlink:href="#DejaVuSans-Bold-72" transform="translate(1211.669922 0)"/>
     <use xlink:href="#DejaVuSans-Bold-6f" transform="translate(1260.986328 0)"/>
     <use xlink:href="#DejaVuSans-Bold-20" transform="translate(1329.6875 0)"/>
     <use xlink:href="#DejaVuSans-Bold-4d" transform="translate(1364.501953 0)"/>
     <use xlink:href="#DejaVuSans-Bold-61" transform="translate(1464.013672 0)"/>
     <use xlink:href="#DejaVuSans-Bold-70" transform="translate(1531.494141 0)"/>
     <use xlink:href="#DejaVuSans-Bold-20" transform="translate(1603.076172 0)"/>
     <use xlink:href="#DejaVuSans-Bold-28" transform="translate(1637.890625 0)"/>
     <use xlink:href="#DejaVuSans-Bold-52" transform="translate(1683.59375 0)"/>
     <use xlink:href="#DejaVuSans-Bold-65" transform="translate(1760.595703 0)"/>
     <use xlink:href="#DejaVuSans-Bold-63" transform="translate(1828.417969 0)"/>
     <use xlink:href="#DejaVuSans-Bold-6f" transform="translate(1887.695312 0)"/>
     <use xlink:href="#DejaVuSans-Bold-76" transform="translate(1956.396484 0)"/>
     <use xlink:href="#DejaVuSans-Bold-65" transform="translate(2021.582031 0)"/>
     <use xlink:href="#DejaVuSans-Bold-72" transform="translate(2089.404297 0)"/>
     <use xlink:href="#DejaVuSans-Bold-79" transform="translate(2138.720703 0)"/>
     <use xlink:href="#DejaVuSans-Bold-20" transform="translate(2203.90625 0)"/>
     <use xlink:href="#DejaVuSans-Bold-76" transform="translate(2238.720703 0)"/>
     <use xlink:href="#DejaVuSans-Bold-73" transform="translate(2303.90625 0)"/>
     <use xlink:href="#DejaVuSans-Bold-20" transform="translate(2363.427734 0)"/>
     <use xlink:href="#DejaVuSans-Bold-52" transform="translate(2398.242188 0)"/>
     <use xlink:href="#DejaVuSans-Bold-65" transform="translate(2475.244141 0)"/>
     <use xlink:href="#DejaVuSans-Bold-73" transform="translate(2543.066406 0)"/>
     <use xlink:href="#DejaVuSans-Bold-70" transform="translate(2602.587891 0)"/>
     <use xlink:href="#DejaVuSans-Bold-6f" transform="translate(2674.169922 0)"/>
     <use xlink:href="#DejaVuSans-Bold-6e" transform="translate(2742.871094 0)"/>
     <use xlink:href="#DejaVuSans-Bold-73" transform="translate(2814.0625 0)"/>
     <use xlink:href="#DejaVuSans-Bold-65" transform="translate(2873.583984 0)"/>
     <use xlink:href="#DejaVuSans-Bold-29" transform="translate(2941.40625 0)"/>
    </g>
    <!-- 25 Models: 3 Soft Poles, 22 Hard Poles -->
    <g transform="translate(294.256094 33.624125) scale(0.14 -0.14)">
     <defs>
      <path id="DejaVuSans-Bold-35" d="M 678 4666 
L 3669 4666 
L 3669 3781 
L 1638 3781 
L 1638 3059 
Q 1775 3097 1914 3117 
Q 2053 3138 2203 3138 
Q 3056 3138 3531 2711 
Q 4006 2284 4006 1522 
Q 4006 766 3489 337 
Q 2972 -91 2053 -91 
Q 1656 -91 1267 -14 
Q 878 63 494 219 
L 494 1166 
Q 875 947 1217 837 
Q 1559 728 1863 728 
Q 2300 728 2551 942 
Q 2803 1156 2803 1522 
Q 2803 1891 2551 2103 
Q 2300 2316 1863 2316 
Q 1603 2316 1309 2248 
Q 1016 2181 678 2041 
L 678 4666 
z
" transform="scale(0.015625)"/>
      <path id="DejaVuSans-Bold-2c" d="M 653 1209 
L 1778 1209 
L 1778 256 
L 1006 -909 
L 341 -909 
L 653 256 
L 653 1209 
z
" transform="scale(0.015625)"/>
      <path id="DejaVuSans-Bold-48" d="M 588 4666 
L 1791 4666 
L 1791 2888 
L 3566 2888 
L 3566 4666 
L 4769 4666 
L 4769 0 
L 3566 0 
L 3566 1978 
L 1791 1978 
L 1791 0 
L 588 0 
L 588 4666 
z
" transform="scale(0.015625)"/>
     </defs>
     <use xlink:href="#DejaVuSans-Bold-32"/>
     <use xlink:href="#DejaVuSans-Bold-35" transform="translate(69.580078 0)"/>
     <use xlink:href="#DejaVuSans-Bold-20" transform="translate(139.160156 0)"/>
     <use xlink:href="#DejaVuSans-Bold-4d" transform="translate(173.974609 0)"/>
     <use xlink:href="#DejaVuSans-Bold-6f" transform="translate(273.486328 0)"/>
     <use xlink:href="#DejaVuSans-Bold-64" transform="translate(342.1875 0)"/>
     <use xlink:href="#DejaVuSans-Bold-65" transform="translate(413.769531 0)"/>
     <use xlink:href="#DejaVuSans-Bold-6c" transform="translate(481.591797 0)"/>
     <use xlink:href="#DejaVuSans-Bold-73" transform="translate(515.869141 0)"/>
     <use xlink:href="#DejaVuSans-Bold-3a" transform="translate(575.390625 0)"/>
     <use xlink:href="#DejaVuSans-Bold-20" transform="translate(615.380859 0)"/>
     <use xlink:href="#DejaVuSans-Bold-33" transform="translate(650.195312 0)"/>
     <use xlink:href="#DejaVuSans-Bold-20" transform="translate(719.775391 0)"/>
     <use xlink:href="#DejaVuSans-Bold-53" transform="translate(754.589844 0)"/>
     <use xlink:href="#DejaVuSans-Bold-6f" transform="translate(826.611328 0)"/>
     <use xlink:href="#DejaVuSans-Bold-66" transform="translate(895.3125 0)"/>
     <use xlink:href="#DejaVuSans-Bold-74" transform="translate(938.818359 0)"/>
     <use xlink:href="#DejaVuSans-Bold-20" transform="translate(986.621094 0)"/>
     <use xlink:href="#DejaVuSans-Bold-50" transform="translate(1021.435547 0)"/>
     <use xlink:href="#DejaVuSans-Bold-6f" transform="translate(1094.726562 0)"/>
     <use xlink:href="#DejaVuSans-Bold-6c" transform="translate(1163.427734 0)"/>
     <use xlink:href="#DejaVuSans-Bold-65" transform="translate(1197.705078 0)"/>
     <use xlink:href="#DejaVuSans-Bold-73" transform="translate(1265.527344 0)"/>
     <use xlink:href="#DejaVuSans-Bold-2c" transform="translate(1325.048828 0)"/>
     <use xlink:href="#DejaVuSans-Bold-20" transform="translate(1363.037109 0)"/>
     <use xlink:href="#DejaVuSans-Bold-32" transform="translate(1397.851562 0)"/>
     <use xlink:href="#DejaVuSans-Bold-32" transform="translate(1467.431641 0)"/>
     <use xlink:href="#DejaVuSans-Bold-20" transform="translate(1537.011719 0)"/>
     <use xlink:href="#DejaVuSans-Bold-48" transform="translate(1571.826172 0)"/>
     <use xlink:href="#DejaVuSans-Bold-61" transform="translate(1655.517578 0)"/>
     <use xlink:href="#DejaVuSans-Bold-72" transform="translate(1722.998047 0)"/>
     <use xlink:href="#DejaVuSans-Bold-64" transform="translate(1772.314453 0)"/>
     <use xlink:href="#DejaVuSans-Bold-20" transform="translate(1843.896484 0)"/>
     <use xlink:href="#DejaVuSans-Bold-50" transform="translate(1878.710938 0)"/>
     <use xlink:href="#DejaVuSans-Bold-6f" transform="translate(1952.001953 0)"/>
     <use xlink:href="#DejaVuSans-Bold-6c" transform="translate(2020.703125 0)"/>
     <use xlink:href="#DejaVuSans-Bold-65" transform="translate(2054.980469 0)"/>
     <use xlink:href="#DejaVuSans-Bold-73" transform="translate(2122.802734 0)"/>
    </g>
   </g>
   <g id="PathCollection_8">
    <defs>
     <path id="m878f93f9f7" d="M -6.708204 6.708204 
L 6.708204 6.708204 
L 6.708204 -6.708204 
L -6.708204 -6.708204 
z
" style="stroke: #e74c3c; stroke-opacity: 0.8; stroke-width: 2"/>
    </defs>
    <g clip-path="url(#pb9c55355e3)">
     <use xlink:href="#m878f93f9f7" x="342.009" y="357.57465" style="fill: #e07b53; fill-opacity: 0.8; stroke: #e74c3c; stroke-opacity: 0.8; stroke-width: 2"/>
    </g>
   </g>
   <g id="PathCollection_9">
    <defs>
     <path id="m5219901c31" d="M -6.708204 6.708204 
L 6.708204 6.708204 
L 6.708204 -6.708204 
L -6.708204 -6.708204 
z
" style="stroke: #e74c3c; stroke-opacity: 0.8; stroke-width: 2"/>
    </defs>
    <g clip-path="url(#pb9c55355e3)">
     <use xlink:href="#m5219901c31" x="565.240077" y="496.559305" style="fill: #10a37f; fill-opacity: 0.8; stroke: #e74c3c; stroke-opacity: 0.8; stroke-width: 2"/>
    </g>
   </g>
   <g id="PathCollection_10">
    <g clip-path="url(#pb9c55355e3)">
     <use xlink:href="#m5219901c31" x="618.826241" y="249.189885" style="fill: #10a37f; fill-opacity: 0.8; stroke: #e74c3c; stroke-opacity: 0.8; stroke-width: 2"/>
    </g>
   </g>
   <g id="PathCollection_11">
    <defs>
     <path id="me8b042ca5f" d="M 0 7.071068 
C 1.875269 7.071068 3.673985 6.326016 5 5 
C 6.326016 3.673985 7.071068 1.875269 7.071068 0 
C 7.071068 -1.875269 6.326016 -3.673985 5 -5 
C 3.673985 -6.326016 1.875269 -7.071068 0 -7.071068 
C -1.875269 -7.071068 -3.673985 -6.326016 -5 -5 
C -6.326016 -3.673985 -7.071068 -1.875269 -7.071068 0 
C -7.071068 1.875269 -6.326016 3.673985 -5 5 
C -3.673985 6.326016 -1.875269 7.071068 0 7.071068 
z
" style="stroke: #2ecc71; stroke-opacity: 0.8; stroke-width: 3"/>
    </defs>
    <g clip-path="url(#pb9c55355e3)">
     <use xlink:href="#me8b042ca5f" x="268.619905" y="460.423626" style="fill: #4285f4; fill-opacity: 0.8; stroke: #2ecc71; stroke-opacity: 0.8; stroke-width: 3"/>
    </g>
   </g>
   <g id="PathCollection_12">
    <defs>
     <path id="mcbd58869ac" d="M -6.708204 6.708204 
L 6.708204 6.708204 
L 6.708204 -6.708204 
L -6.708204 -6.708204 
z
" style="stroke: #e74c3c; stroke-opacity: 0.8; stroke-width: 2"/>
    </defs>
    <g clip-path="url(#pb9c55355e3)">
     <use xlink:href="#mcbd58869ac" x="401.309763" y="377.706323" style="fill: #4285f4; fill-opacity: 0.8; stroke: #e74c3c; stroke-opacity: 0.8; stroke-width: 2"/>
    </g>
   </g>
   <g id="PathCollection_13">
    <defs>
     <path id="md703f16b88" d="M -6.708204 6.708204 
L 6.708204 6.708204 
L 6.708204 -6.708204 
L -6.708204 -6.708204 
z
" style="stroke: #e74c3c; stroke-opacity: 0.8; stroke-width: 2"/>
    </defs>
    <g clip-path="url(#pb9c55355e3)">
     <use xlink:href="#md703f16b88" x="339.933577" y="218.857762" style="fill: #1da1f2; fill-opacity: 0.8; stroke: #e74c3c; stroke-opacity: 0.8; stroke-width: 2"/>
    </g>
   </g>
   <g id="PathCollection_14">
    <g clip-path="url(#pb9c55355e3)">
     <use xlink:href="#md703f16b88" x="482.523726" y="354.931481" style="fill: #1da1f2; fill-opacity: 0.8; stroke: #e74c3c; stroke-opacity: 0.8; stroke-width: 2"/>
    </g>
   </g>
   <g id="PathCollection_15">
    <g clip-path="url(#pb9c55355e3)">
     <use xlink:href="#md703f16b88" x="385.876988" y="339.466459" style="fill: #1da1f2; fill-opacity: 0.8; stroke: #e74c3c; stroke-opacity: 0.8; stroke-width: 2"/>
    </g>
   </g>
   <g id="PathCollection_16">
    <g clip-path="url(#pb9c55355e3)">
     <use xlink:href="#md703f16b88" x="314.198611" y="498.991701" style="fill: #1da1f2; fill-opacity: 0.8; stroke: #e74c3c; stroke-opacity: 0.8; stroke-width: 2"/>
    </g>
   </g>
   <g id="PathCollection_17">
    <defs>
     <path id="md8efdbb9e0" d="M -6.708204 6.708204 
L 6.708204 6.708204 
L 6.708204 -6.708204 
L -6.708204 -6.708204 
z
" style="stroke: #e74c3c; stroke-opacity: 0.8; stroke-width: 2"/>
    </defs>
    <g clip-path="url(#pb9c55355e3)">
     <use xlink:href="#md8efdbb9e0" x="368.140381" y="328.145341" style="fill: #7c3aed; fill-opacity: 0.8; stroke: #e74c3c; stroke-opacity: 0.8; stroke-width: 2"/>
    </g>
   </g>
   <g id="PathCollection_18">
    <g clip-path="url(#pb9c55355e3)">
     <use xlink:href="#md8efdbb9e0" x="376.136032" y="374.360669" style="fill: #7c3aed; fill-opacity: 0.8; stroke: #e74c3c; stroke-opacity: 0.8; stroke-width: 2"/>
    </g>
   </g>
   <g id="PathCollection_19">
    <g clip-path="url(#pb9c55355e3)">
     <use xlink:href="#md8efdbb9e0" x="481.067484" y="391.816264" style="fill: #7c3aed; fill-opacity: 0.8; stroke: #e74c3c; stroke-opacity: 0.8; stroke-width: 2"/>
    </g>
   </g>
   <g id="PathCollection_20">
    <g clip-path="url(#pb9c55355e3)">
     <use xlink:href="#md8efdbb9e0" x="354.445842" y="419.173918" style="fill: #7c3aed; fill-opacity: 0.8; stroke: #e74c3c; stroke-opacity: 0.8; stroke-width: 2"/>
    </g>
   </g>
   <g id="PathCollection_21">
    <g clip-path="url(#pb9c55355e3)">
     <use xlink:href="#md8efdbb9e0" x="368.10924" y="391.347784" style="fill: #7c3aed; fill-opacity: 0.8; stroke: #e74c3c; stroke-opacity: 0.8; stroke-width: 2"/>
    </g>
   </g>
   <g id="PathCollection_22">
    <defs>
     <path id="m017f62640c" d="M 0 7.071068 
C 1.875269 7.071068 3.673985 6.326016 5 5 
C 6.326016 3.673985 7.071068 1.875269 7.071068 0 
C 7.071068 -1.875269 6.326016 -3.673985 5 -5 
C 3.673985 -6.326016 1.875269 -7.071068 0 -7.071068 
C -1.875269 -7.071068 -3.673985 -6.326016 -5 -5 
C -6.326016 -3.673985 -7.071068 -1.875269 -7.071068 0 
C -7.071068 1.875269 -6.326016 3.673985 -5 5 
C -3.673985 6.326016 -1.875269 7.071068 0 7.071068 
z
" style="stroke: #2ecc71; stroke-opacity: 0.8; stroke-width: 3"/>
    </defs>
    <g clip-path="url(#pb9c55355e3)">
     <use xlink:href="#m017f62640c" x="211.820839" y="531.274008" style="fill: #e07b53; fill-opacity: 0.8; stroke: #2ecc71; stroke-opacity: 0.8; stroke-width: 3"/>
    </g>
   </g>
   <g id="PathCollection_23">
    <g clip-path="url(#pb9c55355e3)">
     <use xlink:href="#m5219901c31" x="545.810851" y="337.675084" style="fill: #10a37f; fill-opacity: 0.8; stroke: #e74c3c; stroke-opacity: 0.8; stroke-width: 2"/>
    </g>
   </g>
   <g id="PathCollection_24">
    <g clip-path="url(#pb9c55355e3)">
     <use xlink:href="#m5219901c31" x="581.608858" y="343.937974" style="fill: #10a37f; fill-opacity: 0.8; stroke: #e74c3c; stroke-opacity: 0.8; stroke-width: 2"/>
    </g>
   </g>
   <g id="PathCollection_25">
    <g clip-path="url(#pb9c55355e3)">
     <use xlink:href="#mcbd58869ac" x="348.059072" y="417.079309" style="fill: #4285f4; fill-opacity: 0.8; stroke: #e74c3c; stroke-opacity: 0.8; stroke-width: 2"/>
    </g>
   </g>
   <g id="PathCollection_26">
    <g clip-path="url(#pb9c55355e3)">
     <use xlink:href="#md703f16b88" x="474.009579" y="357.23784" style="fill: #1da1f2; fill-opacity: 0.8; stroke: #e74c3c; stroke-opacity: 0.8; stroke-width: 2"/>
    </g>
   </g>
   <g id="PathCollection_27">
    <g clip-path="url(#pb9c55355e3)">
     <use xlink:href="#md8efdbb9e0" x="371.026059" y="344.644697" style="fill: #7c3aed; fill-opacity: 0.8; stroke: #e74c3c; stroke-opacity: 0.8; stroke-width: 2"/>
    </g>
   </g>
   <g id="PathCollection_28">
    <g clip-path="url(#pb9c55355e3)">
     <use xlink:href="#md8efdbb9e0" x="324.993409" y="435.772572" style="fill: #7c3aed; fill-opacity: 0.8; stroke: #e74c3c; stroke-opacity: 0.8; stroke-width: 2"/>
    </g>
   </g>
   <g id="PathCollection_29">
    <defs>
     <path id="me58230e5e6" d="M 0 7.071068 
C 1.875269 7.071068 3.673985 6.326016 5 5 
C 6.326016 3.673985 7.071068 1.875269 7.071068 0 
C 7.071068 -1.875269 6.326016 -3.673985 5 -5 
C 3.673985 -6.326016 1.875269 -7.071068 0 -7.071068 
C -1.875269 -7.071068 -3.673985 -6.326016 -5 -5 
C -6.326016 -3.673985 -7.071068 -1.875269 -7.071068 0 
C -7.071068 1.875269 -6.326016 3.673985 -5 5 
C -3.673985 6.326016 -1.875269 7.071068 0 7.071068 
z
" style="stroke: #2ecc71; stroke-opacity: 0.8; stroke-width: 3"/>
    </defs>
    <g clip-path="url(#pb9c55355e3)">
     <use xlink:href="#me58230e5e6" x="215.82377" y="411.312094" style="fill: #7c3aed; fill-opacity: 0.8; stroke: #2ecc71; stroke-opacity: 0.8; stroke-width: 3"/>
    </g>
   </g>
   <g id="PathCollection_30">
    <g clip-path="url(#pb9c55355e3)">
     <use xlink:href="#md8efdbb9e0" x="568.573443" y="389.302721" style="fill: #7c3aed; fill-opacity: 0.8; stroke: #e74c3c; stroke-opacity: 0.8; stroke-width: 2"/>
    </g>
   </g>
   <g id="PathCollection_31">
    <g clip-path="url(#pb9c55355e3)">
     <use xlink:href="#md8efdbb9e0" x="327.280978" y="351.081308" style="fill: #7c3aed; fill-opacity: 0.8; stroke: #e74c3c; stroke-opacity: 0.8; stroke-width: 2"/>
    </g>
   </g>
   <g id="PathCollection_32">
    <g clip-path="url(#pb9c55355e3)">
     <use xlink:href="#md8efdbb9e0" x="389.721985" y="380.787191" style="fill: #7c3aed; fill-opacity: 0.8; stroke: #e74c3c; stroke-opacity: 0.8; stroke-width: 2"/>
    </g>
   </g>
   <g id="legend_1">
    <g id="patch_7">
     <path d="M 52.016875 153.474437 
L 168.708906 153.474437 
Q 170.508906 153.474437 170.508906 151.674437 
L 170.508906 45.924125 
Q 170.508906 44.124125 168.708906 44.124125 
L 52.016875 44.124125 
Q 50.216875 44.124125 50.216875 45.924125 
L 50.216875 151.674437 
Q 50.216875 153.474437 52.016875 153.474437 
z
" style="fill: #ffffff; opacity: 0.8; stroke: #cccccc; stroke-linejoin: miter"/>
    </g>
    <g id="text_14">
     <!-- Providers &amp; Poles -->
     <g transform="translate(60.389453 55.322562) scale(0.1 -0.1)">
      <defs>
       <path id="DejaVuSans-Bold-26" d="M 2497 3097 
L 3775 1691 
Q 3941 1909 4027 2181 
Q 4113 2453 4128 2797 
L 5100 2797 
Q 5053 2228 4879 1784 
Q 4706 1341 4397 1006 
L 5313 0 
L 3988 0 
L 3681 341 
Q 3353 122 2990 15 
Q 2628 -91 2222 -91 
Q 1400 -91 892 342 
Q 384 775 384 1459 
Q 384 1916 607 2267 
Q 831 2619 1338 2950 
Q 1206 3116 1143 3281 
Q 1081 3447 1081 3628 
Q 1081 4138 1478 4444 
Q 1875 4750 2534 4750 
Q 2819 4750 3126 4704 
Q 3434 4659 3769 4569 
L 3769 3700 
Q 3475 3850 3212 3922 
Q 2950 3994 2700 3994 
Q 2459 3994 2326 3901 
Q 2194 3809 2194 3641 
Q 2194 3534 2270 3398 
Q 2347 3263 2497 3097 
z
M 1875 2322 
Q 1672 2175 1569 1989 
Q 1466 1803 1466 1581 
Q 1466 1222 1731 969 
Q 1997 716 2369 716 
Q 2578 716 2759 780 
Q 2941 844 3097 972 
L 1875 2322 
z
" transform="scale(0.015625)"/>
      </defs>
      <use xlink:href="#DejaVuSans-Bold-50"/>
      <use xlink:href="#DejaVuSans-Bold-72" transform="translate(73.291016 0)"/>
      <use xlink:href="#DejaVuSans-Bold-6f" transform="translate(122.607422 0)"/>
      <use xlink:href="#DejaVuSans-Bold-76" transform="translate(191.308594 0)"/>
      <use xlink:href="#DejaVuSans-Bold-69" transform="translate(256.494141 0)"/>
      <use xlink:href="#DejaVuSans-Bold-64" transform="translate(290.771484 0)"/>
      <use xlink:href="#DejaVuSans-Bold-65" transform="translate(362.353516 0)"/>
      <use xlink:href="#DejaVuSans-Bold-72" transform="translate(430.175781 0)"/>
      <use xlink:href="#DejaVuSans-Bold-73" transform="translate(479.492188 0)"/>
      <use xlink:href="#DejaVuSans-Bold-20" transform="translate(539.013672 0)"/>
      <use xlink:href="#DejaVuSans-Bold-26" transform="translate(573.828125 0)"/>
      <use xlink:href="#DejaVuSans-Bold-20" transform="translate(661.035156 0)"/>
      <use xlink:href="#DejaVuSans-Bold-50" transform="translate(695.849609 0)"/>
      <use xlink:href="#DejaVuSans-Bold-6f" transform="translate(769.140625 0)"/>
      <use xlink:href="#DejaVuSans-Bold-6c" transform="translate(837.841797 0)"/>
      <use xlink:href="#DejaVuSans-Bold-65" transform="translate(872.119141 0)"/>
      <use xlink:href="#DejaVuSans-Bold-73" transform="translate(939.941406 0)"/>
     </g>
    </g>
    <g id="PathCollection_33">
     <defs>
      <path id="md2df2147d4" d="M 0 5 
C 1.326016 5 2.597899 4.473168 3.535534 3.535534 
C 4.473168 2.597899 5 1.326016 5 0 
C 5 -1.326016 4.473168 -2.597899 3.535534 -3.535534 
C 2.597899 -4.473168 1.326016 -5 0 -5 
C -1.326016 -5 -2.597899 -4.473168 -3.535534 -3.535534 
C -4.473168 -2.597899 -5 -1.326016 -5 0 
C -5 1.326016 -4.473168 2.597899 -3.535534 3.535534 
C -2.597899 4.473168 -1.326016 5 0 5 
z
" style="stroke: #e07b53"/>
     </defs>
     <g>
      <use xlink:href="#md2df2147d4" x="62.816875" y="66.378344" style="fill: #e07b53; stroke: #e07b53"/>
     </g>
    </g>
    <g id="text_15">
     <!-- ANTHROPIC -->
     <g transform="translate(79.016875 68.740844) scale(0.09 -0.09)">
      <defs>
       <path id="DejaVuSans-41" d="M 2188 4044 
L 1331 1722 
L 3047 1722 
L 2188 4044 
z
M 1831 4666 
L 2547 4666 
L 4325 0 
L 3669 0 
L 3244 1197 
L 1141 1197 
L 716 0 
L 50 0 
L 1831 4666 
z
" transform="scale(0.015625)"/>
       <path id="DejaVuSans-4e" d="M 628 4666 
L 1478 4666 
L 3547 763 
L 3547 4666 
L 4159 4666 
L 4159 0 
L 3309 0 
L 1241 3903 
L 1241 0 
L 628 0 
L 628 4666 
z
" transform="scale(0.015625)"/>
       <path id="DejaVuSans-54" d="M -19 4666 
L 3928 4666 
L 3928 4134 
L 2272 4134 
L 2272 0 
L 1638 0 
L 1638 4134 
L -19 4134 
L -19 4666 
z
" transform="scale(0.015625)"/>
       <path id="DejaVuSans-48" d="M 628 4666 
L 1259 4666 
L 1259 2753 
L 3553 2753 
L 3553 4666 
L 4184 4666 
L 4184 0 
L 3553 0 
L 3553 2222 
L 1259 2222 
L 1259 0 
L 628 0 
L 628 4666 
z
" transform="scale(0.015625)"/>
       <path id="DejaVuSans-52" d="M 2841 2188 
Q 3044 2119 3236 1894 
Q 3428 1669 3622 1275 
L 4263 0 
L 3584 0 
L 2988 1197 
Q 2756 1666 2539 1819 
Q 2322 1972 1947 1972 
L 1259 1972 
L 1259 0 
L 628 0 
L 628 4666 
L 2053 4666 
Q 2853 4666 3247 4331 
Q 3641 3997 3641 3322 
Q 3641 2881 3436 2590 
Q 3231 2300 2841 2188 
z
M 1259 4147 
L 1259 2491 
L 2053 2491 
Q 2509 2491 2742 2702 
Q 2975 2913 2975 3322 
Q 2975 3731 2742 3939 
Q 2509 4147 2053 4147 
L 1259 4147 
z
" transform="scale(0.015625)"/>
       <path id="DejaVuSans-4f" d="M 2522 4238 
Q 1834 4238 1429 3725 
Q 1025 3213 1025 2328 
Q 1025 1447 1429 934 
Q 1834 422 2522 422 
Q 3209 422 3611 934 
Q 4013 1447 4013 2328 
Q 4013 3213 3611 3725 
Q 3209 4238 2522 4238 
z
M 2522 4750 
Q 3503 4750 4090 4092 
Q 4678 3434 4678 2328 
Q 4678 1225 4090 567 
Q 3503 -91 2522 -91 
Q 1538 -91 948 565 
Q 359 1222 359 2328 
Q 359 3434 948 4092 
Q 1538 4750 2522 4750 
z
" transform="scale(0.015625)"/>
       <path id="DejaVuSans-50" d="M 1259 4147 
L 1259 2394 
L 2053 2394 
Q 2494 2394 2734 2622 
Q 2975 2850 2975 3272 
Q 2975 3691 2734 3919 
Q 2494 4147 2053 4147 
L 1259 4147 
z
M 628 4666 
L 2053 4666 
Q 2838 4666 3239 4311 
Q 3641 3956 3641 3272 
Q 3641 2581 3239 2228 
Q 2838 1875 2053 1875 
L 1259 1875 
L 1259 0 
L 628 0 
L 628 4666 
z
" transform="scale(0.015625)"/>
       <path id="DejaVuSans-49" d="M 628 4666 
L 1259 4666 
L 1259 0 
L 628 0 
L 628 4666 
z
" transform="scale(0.015625)"/>
       <path id="DejaVuSans-43" d="M 4122 4306 
L 4122 3641 
Q 3803 3938 3442 4084 
Q 3081 4231 2675 4231 
Q 1875 4231 1450 3742 
Q 1025 3253 1025 2328 
Q 1025 1406 1450 917 
Q 1875 428 2675 428 
Q 3081 428 3442 575 
Q 3803 722 4122 1019 
L 4122 359 
Q 3791 134 3420 21 
Q 3050 -91 2638 -91 
Q 1578 -91 968 557 
Q 359 1206 359 2328 
Q 359 3453 968 4101 
Q 1578 4750 2638 4750 
Q 3056 4750 3426 4639 
Q 3797 4528 4122 4306 
z
" transform="scale(0.015625)"/>
      </defs>
      <use xlink:href="#DejaVuSans-41"/>
      <use xlink:href="#DejaVuSans-4e" transform="translate(68.408203 0)"/>
      <use xlink:href="#DejaVuSans-54" transform="translate(143.212891 0)"/>
      <use xlink:href="#DejaVuSans-48" transform="translate(204.296875 0)"/>
      <use xlink:href="#DejaVuSans-52" transform="translate(279.492188 0)"/>
      <use xlink:href="#DejaVuSans-4f" transform="translate(348.974609 0)"/>
      <use xlink:href="#DejaVuSans-50" transform="translate(427.685547 0)"/>
      <use xlink:href="#DejaVuSans-49" transform="translate(487.988281 0)"/>
      <use xlink:href="#DejaVuSans-43" transform="translate(517.480469 0)"/>
     </g>
    </g>
    <g id="PathCollection_34">
     <defs>
      <path id="ma9e741f1dc" d="M 0 5 
C 1.326016 5 2.597899 4.473168 3.535534 3.535534 
C 4.473168 2.597899 5 1.326016 5 0 
C 5 -1.326016 4.473168 -2.597899 3.535534 -3.535534 
C 2.597899 -4.473168 1.326016 -5 0 -5 
C -1.326016 -5 -2.597899 -4.473168 -3.535534 -3.535534 
C -4.473168 -2.597899 -5 -1.326016 -5 0 
C -5 1.326016 -4.473168 2.597899 -3.535534 3.535534 
C -2.597899 4.473168 -1.326016 5 0 5 
z
" style="stroke: #4285f4"/>
     </defs>
     <g>
      <use xlink:href="#ma9e741f1dc" x="62.816875" y="79.588656" style="fill: #4285f4; stroke: #4285f4"/>
     </g>
    </g>
    <g id="text_16">
     <!-- GOOGLE -->
     <g transform="translate(79.016875 81.951156) scale(0.09 -0.09)">
      <defs>
       <path id="DejaVuSans-47" d="M 3809 666 
L 3809 1919 
L 2778 1919 
L 2778 2438 
L 4434 2438 
L 4434 434 
Q 4069 175 3628 42 
Q 3188 -91 2688 -91 
Q 1594 -91 976 548 
Q 359 1188 359 2328 
Q 359 3472 976 4111 
Q 1594 4750 2688 4750 
Q 3144 4750 3555 4637 
Q 3966 4525 4313 4306 
L 4313 3634 
Q 3963 3931 3569 4081 
Q 3175 4231 2741 4231 
Q 1884 4231 1454 3753 
Q 1025 3275 1025 2328 
Q 1025 1384 1454 906 
Q 1884 428 2741 428 
Q 3075 428 3337 486 
Q 3600 544 3809 666 
z
" transform="scale(0.015625)"/>
       <path id="DejaVuSans-4c" d="M 628 4666 
L 1259 4666 
L 1259 531 
L 3531 531 
L 3531 0 
L 628 0 
L 628 4666 
z
" transform="scale(0.015625)"/>
       <path id="DejaVuSans-45" d="M 628 4666 
L 3578 4666 
L 3578 4134 
L 1259 4134 
L 1259 2753 
L 3481 2753 
L 3481 2222 
L 1259 2222 
L 1259 531 
L 3634 531 
L 3634 0 
L 628 0 
L 628 4666 
z
" transform="scale(0.015625)"/>
      </defs>
      <use xlink:href="#DejaVuSans-47"/>
      <use xlink:href="#DejaVuSans-4f" transform="translate(77.490234 0)"/>
      <use xlink:href="#DejaVuSans-4f" transform="translate(156.201172 0)"/>
      <use xlink:href="#DejaVuSans-47" transform="translate(234.912109 0)"/>
      <use xlink:href="#DejaVuSans-4c" transform="translate(312.402344 0)"/>
      <use xlink:href="#DejaVuSans-45" transform="translate(368.115234 0)"/>
     </g>
    </g>
    <g id="PathCollection_35">
     <defs>
      <path id="mbb773831d3" d="M 0 5 
C 1.326016 5 2.597899 4.473168 3.535534 3.535534 
C 4.473168 2.597899 5 1.326016 5 0 
C 5 -1.326016 4.473168 -2.597899 3.535534 -3.535534 
C 2.597899 -4.473168 1.326016 -5 0 -5 
C -1.326016 -5 -2.597899 -4.473168 -3.535534 -3.535534 
C -4.473168 -2.597899 -5 -1.326016 -5 0 
C -5 1.326016 -4.473168 2.597899 -3.535534 3.535534 
C -2.597899 4.473168 -1.326016 5 0 5 
z
" style="stroke: #10a37f"/>
     </defs>
     <g>
      <use xlink:href="#mbb773831d3" x="62.816875" y="92.798969" style="fill: #10a37f; stroke: #10a37f"/>
     </g>
    </g>
    <g id="text_17">
     <!-- OPENAI -->
     <g transform="translate(79.016875 95.161469) scale(0.09 -0.09)">
      <use xlink:href="#DejaVuSans-4f"/>
      <use xlink:href="#DejaVuSans-50" transform="translate(78.710938 0)"/>
      <use xlink:href="#DejaVuSans-45" transform="translate(139.013672 0)"/>
      <use xlink:href="#DejaVuSans-4e" transform="translate(202.197266 0)"/>
      <use xlink:href="#DejaVuSans-41" transform="translate(277.001953 0)"/>
      <use xlink:href="#DejaVuSans-49" transform="translate(345.410156 0)"/>
     </g>
    </g>
    <g id="PathCollection_36">
     <defs>
      <path id="m5dc0113e99" d="M 0 5 
C 1.326016 5 2.597899 4.473168 3.535534 3.535534 
C 4.473168 2.597899 5 1.326016 5 0 
C 5 -1.326016 4.473168 -2.597899 3.535534 -3.535534 
C 2.597899 -4.473168 1.326016 -5 0 -5 
C -1.326016 -5 -2.597899 -4.473168 -3.535534 -3.535534 
C -4.473168 -2.597899 -5 -1.326016 -5 0 
C -5 1.326016 -4.473168 2.597899 -3.535534 3.535534 
C -2.597899 4.473168 -1.326016 5 0 5 
z
" style="stroke: #7c3aed"/>
     </defs>
     <g>
      <use xlink:href="#m5dc0113e99" x="62.816875" y="106.009281" style="fill: #7c3aed; stroke: #7c3aed"/>
     </g>
    </g>
    <g id="text_18">
     <!-- TOGETHER -->
     <g transform="translate(79.016875 108.371781) scale(0.09 -0.09)">
      <use xlink:href="#DejaVuSans-54"/>
      <use xlink:href="#DejaVuSans-4f" transform="translate(61.083984 0)"/>
      <use xlink:href="#DejaVuSans-47" transform="translate(139.794922 0)"/>
      <use xlink:href="#DejaVuSans-45" transform="translate(217.285156 0)"/>
      <use xlink:href="#DejaVuSans-54" transform="translate(280.46875 0)"/>
      <use xlink:href="#DejaVuSans-48" transform="translate(341.552734 0)"/>
      <use xlink:href="#DejaVuSans-45" transform="translate(416.748047 0)"/>
      <use xlink:href="#DejaVuSans-52" transform="translate(479.931641 0)"/>
     </g>
    </g>
    <g id="PathCollection_37">
     <defs>
      <path id="m3232b1d07f" d="M 0 5 
C 1.326016 5 2.597899 4.473168 3.535534 3.535534 
C 4.473168 2.597899 5 1.326016 5 0 
C 5 -1.326016 4.473168 -2.597899 3.535534 -3.535534 
C 2.597899 -4.473168 1.326016 -5 0 -5 
C -1.326016 -5 -2.597899 -4.473168 -3.535534 -3.535534 
C -4.473168 -2.597899 -5 -1.326016 -5 0 
C -5 1.326016 -4.473168 2.597899 -3.535534 3.535534 
C -2.597899 4.473168 -1.326016 5 0 5 
z
" style="stroke: #1da1f2"/>
     </defs>
     <g>
      <use xlink:href="#m3232b1d07f" x="62.816875" y="119.219594" style="fill: #1da1f2; stroke: #1da1f2"/>
     </g>
    </g>
    <g id="text_19">
     <!-- XAI -->
     <g transform="translate(79.016875 121.582094) scale(0.09 -0.09)">
      <defs>
       <path id="DejaVuSans-58" d="M 403 4666 
L 1081 4666 
L 2241 2931 
L 3406 4666 
L 4084 4666 
L 2584 2425 
L 4184 0 
L 3506 0 
L 2194 1984 
L 872 0 
L 191 0 
L 1856 2491 
L 403 4666 
z
" transform="scale(0.015625)"/>
      </defs>
      <use xlink:href="#DejaVuSans-58"/>
      <use xlink:href="#DejaVuSans-41" transform="translate(68.505859 0)"/>
      <use xlink:href="#DejaVuSans-49" transform="translate(136.914062 0)"/>
     </g>
    </g>
    <g id="PathCollection_38">
     <defs>
      <path id="meeabd094ee" d="M 0 5 
C 1.326016 5 2.597899 4.473168 3.535534 3.535534 
C 4.473168 2.597899 5 1.326016 5 0 
C 5 -1.326016 4.473168 -2.597899 3.535534 -3.535534 
C 2.597899 -4.473168 1.326016 -5 0 -5 
C -1.326016 -5 -2.597899 -4.473168 -3.535534 -3.535534 
C -4.473168 -2.597899 -5 -1.326016 -5 0 
C -5 1.326016 -4.473168 2.597899 -3.535534 3.535534 
C -2.597899 4.473168 -1.326016 5 0 5 
z
" style="stroke: #2ecc71; stroke-width: 3"/>
     </defs>
     <g>
      <use xlink:href="#meeabd094ee" x="62.816875" y="132.429906" style="fill: #808080; stroke: #2ecc71; stroke-width: 3"/>
     </g>
    </g>
    <g id="text_20">
     <!-- Soft Pole (recovers) -->
     <g transform="translate(79.016875 134.792406) scale(0.09 -0.09)">
      <defs>
       <path id="DejaVuSans-53" d="M 3425 4513 
L 3425 3897 
Q 3066 4069 2747 4153 
Q 2428 4238 2131 4238 
Q 1616 4238 1336 4038 
Q 1056 3838 1056 3469 
Q 1056 3159 1242 3001 
Q 1428 2844 1947 2747 
L 2328 2669 
Q 3034 2534 3370 2195 
Q 3706 1856 3706 1288 
Q 3706 609 3251 259 
Q 2797 -91 1919 -91 
Q 1588 -91 1214 -16 
Q 841 59 441 206 
L 441 856 
Q 825 641 1194 531 
Q 1563 422 1919 422 
Q 2459 422 2753 634 
Q 3047 847 3047 1241 
Q 3047 1584 2836 1778 
Q 2625 1972 2144 2069 
L 1759 2144 
Q 1053 2284 737 2584 
Q 422 2884 422 3419 
Q 422 4038 858 4394 
Q 1294 4750 2059 4750 
Q 2388 4750 2728 4690 
Q 3069 4631 3425 4513 
z
" transform="scale(0.015625)"/>
       <path id="DejaVuSans-6f" d="M 1959 3097 
Q 1497 3097 1228 2736 
Q 959 2375 959 1747 
Q 959 1119 1226 758 
Q 1494 397 1959 397 
Q 2419 397 2687 759 
Q 2956 1122 2956 1747 
Q 2956 2369 2687 2733 
Q 2419 3097 1959 3097 
z
M 1959 3584 
Q 2709 3584 3137 3096 
Q 3566 2609 3566 1747 
Q 3566 888 3137 398 
Q 2709 -91 1959 -91 
Q 1206 -91 779 398 
Q 353 888 353 1747 
Q 353 2609 779 3096 
Q 1206 3584 1959 3584 
z
" transform="scale(0.015625)"/>
       <path id="DejaVuSans-66" d="M 2375 4863 
L 2375 4384 
L 1825 4384 
Q 1516 4384 1395 4259 
Q 1275 4134 1275 3809 
L 1275 3500 
L 2222 3500 
L 2222 3053 
L 1275 3053 
L 1275 0 
L 697 0 
L 697 3053 
L 147 3053 
L 147 3500 
L 697 3500 
L 697 3744 
Q 697 4328 969 4595 
Q 1241 4863 1831 4863 
L 2375 4863 
z
" transform="scale(0.015625)"/>
       <path id="DejaVuSans-74" d="M 1172 4494 
L 1172 3500 
L 2356 3500 
L 2356 3053 
L 1172 3053 
L 1172 1153 
Q 1172 725 1289 603 
Q 1406 481 1766 481 
L 2356 481 
L 2356 0 
L 1766 0 
Q 1100 0 847 248 
Q 594 497 594 1153 
L 594 3053 
L 172 3053 
L 172 3500 
L 594 3500 
L 594 4494 
L 1172 4494 
z
" transform="scale(0.015625)"/>
       <path id="DejaVuSans-20" transform="scale(0.015625)"/>
       <path id="DejaVuSans-6c" d="M 603 4863 
L 1178 4863 
L 1178 0 
L 603 0 
L 603 4863 
z
" transform="scale(0.015625)"/>
       <path id="DejaVuSans-65" d="M 3597 1894 
L 3597 1613 
L 953 1613 
Q 991 1019 1311 708 
Q 1631 397 2203 397 
Q 2534 397 2845 478 
Q 3156 559 3463 722 
L 3463 178 
Q 3153 47 2828 -22 
Q 2503 -91 2169 -91 
Q 1331 -91 842 396 
Q 353 884 353 1716 
Q 353 2575 817 3079 
Q 1281 3584 2069 3584 
Q 2775 3584 3186 3129 
Q 3597 2675 3597 1894 
z
M 3022 2063 
Q 3016 2534 2758 2815 
Q 2500 3097 2075 3097 
Q 1594 3097 1305 2825 
Q 1016 2553 972 2059 
L 3022 2063 
z
" transform="scale(0.015625)"/>
       <path id="DejaVuSans-28" d="M 1984 4856 
Q 1566 4138 1362 3434 
Q 1159 2731 1159 2009 
Q 1159 1288 1364 580 
Q 1569 -128 1984 -844 
L 1484 -844 
Q 1016 -109 783 600 
Q 550 1309 550 2009 
Q 550 2706 781 3412 
Q 1013 4119 1484 4856 
L 1984 4856 
z
" transform="scale(0.015625)"/>
       <path id="DejaVuSans-72" d="M 2631 2963 
Q 2534 3019 2420 3045 
Q 2306 3072 2169 3072 
Q 1681 3072 1420 2755 
Q 1159 2438 1159 1844 
L 1159 0 
L 581 0 
L 581 3500 
L 1159 3500 
L 1159 2956 
Q 1341 3275 1631 3429 
Q 1922 3584 2338 3584 
Q 2397 3584 2469 3576 
Q 2541 3569 2628 3553 
L 2631 2963 
z
" transform="scale(0.015625)"/>
       <path id="DejaVuSans-63" d="M 3122 3366 
L 3122 2828 
Q 2878 2963 2633 3030 
Q 2388 3097 2138 3097 
Q 1578 3097 1268 2742 
Q 959 2388 959 1747 
Q 959 1106 1268 751 
Q 1578 397 2138 397 
Q 2388 397 2633 464 
Q 2878 531 3122 666 
L 3122 134 
Q 2881 22 2623 -34 
Q 2366 -91 2075 -91 
Q 1284 -91 818 406 
Q 353 903 353 1747 
Q 353 2603 823 3093 
Q 1294 3584 2113 3584 
Q 2378 3584 2631 3529 
Q 2884 3475 3122 3366 
z
" transform="scale(0.015625)"/>
       <path id="DejaVuSans-76" d="M 191 3500 
L 800 3500 
L 1894 563 
L 2988 3500 
L 3597 3500 
L 2284 0 
L 1503 0 
L 191 3500 
z
" transform="scale(0.015625)"/>
       <path id="DejaVuSans-73" d="M 2834 3397 
L 2834 2853 
Q 2591 2978 2328 3040 
Q 2066 3103 1784 3103 
Q 1356 3103 1142 2972 
Q 928 2841 928 2578 
Q 928 2378 1081 2264 
Q 1234 2150 1697 2047 
L 1894 2003 
Q 2506 1872 2764 1633 
Q 3022 1394 3022 966 
Q 3022 478 2636 193 
Q 2250 -91 1575 -91 
Q 1294 -91 989 -36 
Q 684 19 347 128 
L 347 722 
Q 666 556 975 473 
Q 1284 391 1588 391 
Q 1994 391 2212 530 
Q 2431 669 2431 922 
Q 2431 1156 2273 1281 
Q 2116 1406 1581 1522 
L 1381 1569 
Q 847 1681 609 1914 
Q 372 2147 372 2553 
Q 372 3047 722 3315 
Q 1072 3584 1716 3584 
Q 2034 3584 2315 3537 
Q 2597 3491 2834 3397 
z
" transform="scale(0.015625)"/>
       <path id="DejaVuSans-29" d="M 513 4856 
L 1013 4856 
Q 1481 4119 1714 3412 
Q 1947 2706 1947 2009 
Q 1947 1309 1714 600 
Q 1481 -109 1013 -844 
L 513 -844 
Q 928 -128 1133 580 
Q 1338 1288 1338 2009 
Q 1338 2731 1133 3434 
Q 928 4138 513 4856 
z
" transform="scale(0.015625)"/>
      </defs>
      <use xlink:href="#DejaVuSans-53"/>
      <use xlink:href="#DejaVuSans-6f" transform="translate(63.476562 0)"/>
      <use xlink:href="#DejaVuSans-66" transform="translate(124.658203 0)"/>
      <use xlink:href="#DejaVuSans-74" transform="translate(158.113281 0)"/>
      <use xlink:href="#DejaVuSans-20" transform="translate(197.322266 0)"/>
      <use xlink:href="#DejaVuSans-50" transform="translate(229.109375 0)"/>
      <use xlink:href="#DejaVuSans-6f" transform="translate(285.787109 0)"/>
      <use xlink:href="#DejaVuSans-6c" transform="translate(346.96875 0)"/>
      <use xlink:href="#DejaVuSans-65" transform="translate(374.751953 0)"/>
      <use xlink:href="#DejaVuSans-20" transform="translate(436.275391 0)"/>
      <use xlink:href="#DejaVuSans-28" transform="translate(468.0625 0)"/>
      <use xlink:href="#DejaVuSans-72" transform="translate(507.076172 0)"/>
      <use xlink:href="#DejaVuSans-65" transform="translate(545.939453 0)"/>
      <use xlink:href="#DejaVuSans-63" transform="translate(607.462891 0)"/>
      <use xlink:href="#DejaVuSans-6f" transform="translate(662.443359 0)"/>
      <use xlink:href="#DejaVuSans-76" transform="translate(723.625 0)"/>
      <use xlink:href="#DejaVuSans-65" transform="translate(782.804688 0)"/>
      <use xlink:href="#DejaVuSans-72" transform="translate(844.328125 0)"/>
      <use xlink:href="#DejaVuSans-73" transform="translate(885.441406 0)"/>
      <use xlink:href="#DejaVuSans-29" transform="translate(937.541016 0)"/>
     </g>
    </g>
    <g id="PathCollection_39">
     <defs>
      <path id="m824bfd0865" d="M -5 5 
L 5 5 
L 5 -5 
L -5 -5 
z
" style="stroke: #e74c3c; stroke-width: 2"/>
     </defs>
     <g>
      <use xlink:href="#m824bfd0865" x="62.816875" y="145.640219" style="fill: #808080; stroke: #e74c3c; stroke-width: 2"/>
     </g>
    </g>
    <g id="text_21">
     <!-- Hard Pole (stuck) -->
     <g transform="translate(79.016875 148.002719) scale(0.09 -0.09)">
      <defs>
       <path id="DejaVuSans-61" d="M 2194 1759 
Q 1497 1759 1228 1600 
Q 959 1441 959 1056 
Q 959 750 1161 570 
Q 1363 391 1709 391 
Q 2188 391 2477 730 
Q 2766 1069 2766 1631 
L 2766 1759 
L 2194 1759 
z
M 3341 1997 
L 3341 0 
L 2766 0 
L 2766 531 
Q 2569 213 2275 61 
Q 1981 -91 1556 -91 
Q 1019 -91 701 211 
Q 384 513 384 1019 
Q 384 1609 779 1909 
Q 1175 2209 1959 2209 
L 2766 2209 
L 2766 2266 
Q 2766 2663 2505 2880 
Q 2244 3097 1772 3097 
Q 1472 3097 1187 3025 
Q 903 2953 641 2809 
L 641 3341 
Q 956 3463 1253 3523 
Q 1550 3584 1831 3584 
Q 2591 3584 2966 3190 
Q 3341 2797 3341 1997 
z
" transform="scale(0.015625)"/>
       <path id="DejaVuSans-64" d="M 2906 2969 
L 2906 4863 
L 3481 4863 
L 3481 0 
L 2906 0 
L 2906 525 
Q 2725 213 2448 61 
Q 2172 -91 1784 -91 
Q 1150 -91 751 415 
Q 353 922 353 1747 
Q 353 2572 751 3078 
Q 1150 3584 1784 3584 
Q 2172 3584 2448 3432 
Q 2725 3281 2906 2969 
z
M 947 1747 
Q 947 1113 1208 752 
Q 1469 391 1925 391 
Q 2381 391 2643 752 
Q 2906 1113 2906 1747 
Q 2906 2381 2643 2742 
Q 2381 3103 1925 3103 
Q 1469 3103 1208 2742 
Q 947 2381 947 1747 
z
" transform="scale(0.015625)"/>
       <path id="DejaVuSans-75" d="M 544 1381 
L 544 3500 
L 1119 3500 
L 1119 1403 
Q 1119 906 1312 657 
Q 1506 409 1894 409 
Q 2359 409 2629 706 
Q 2900 1003 2900 1516 
L 2900 3500 
L 3475 3500 
L 3475 0 
L 2900 0 
L 2900 538 
Q 2691 219 2414 64 
Q 2138 -91 1772 -91 
Q 1169 -91 856 284 
Q 544 659 544 1381 
z
M 1991 3584 
L 1991 3584 
z
" transform="scale(0.015625)"/>
       <path id="DejaVuSans-6b" d="M 581 4863 
L 1159 4863 
L 1159 1991 
L 2875 3500 
L 3609 3500 
L 1753 1863 
L 3688 0 
L 2938 0 
L 1159 1709 
L 1159 0 
L 581 0 
L 581 4863 
z
" transform="scale(0.015625)"/>
      </defs>
      <use xlink:href="#DejaVuSans-48"/>
      <use xlink:href="#DejaVuSans-61" transform="translate(75.195312 0)"/>
      <use xlink:href="#DejaVuSans-72" transform="translate(136.474609 0)"/>
      <use xlink:href="#DejaVuSans-64" transform="translate(175.837891 0)"/>
      <use xlink:href="#DejaVuSans-20" transform="translate(239.314453 0)"/>
      <use xlink:href="#DejaVuSans-50" transform="translate(271.101562 0)"/>
      <use xlink:href="#DejaVuSans-6f" transform="translate(327.779297 0)"/>
      <use xlink:href="#DejaVuSans-6c" transform="translate(388.960938 0)"/>
      <use xlink:href="#DejaVuSans-65" transform="translate(416.744141 0)"/>
      <use xlink:href="#DejaVuSans-20" transform="translate(478.267578 0)"/>
      <use xlink:href="#DejaVuSans-28" transform="translate(510.054688 0)"/>
      <use xlink:href="#DejaVuSans-73" transform="translate(549.068359 0)"/>
      <use xlink:href="#DejaVuSans-74" transform="translate(601.167969 0)"/>
      <use xlink:href="#DejaVuSans-75" transform="translate(640.376953 0)"/>
      <use xlink:href="#DejaVuSans-63" transform="translate(703.755859 0)"/>
      <use xlink:href="#DejaVuSans-6b" transform="translate(758.736328 0)"/>
      <use xlink:href="#DejaVuSans-29" transform="translate(816.646484 0)"/>
     </g>
    </g>
   </g>
   <g id="legend_2">
    <g id="patch_8">
     <path d="M 698.586406 666.844125 
L 842.016875 666.844125 
Q 843.816875 666.844125 843.816875 665.044125 
L 843.816875 598.92475 
Q 843.816875 597.12475 842.016875 597.12475 
L 698.586406 597.12475 
Q 696.786406 597.12475 696.786406 598.92475 
L 696.786406 665.044125 
Q 696.786406 666.844125 698.586406 666.844125 
z
" style="fill: #ffffff; opacity: 0.8; stroke: #cccccc; stroke-linejoin: miter"/>
    </g>
    <g id="text_22">
     <!-- Reference Lines -->
     <g transform="translate(725.154766 608.323188) scale(0.1 -0.1)">
      <defs>
       <path id="DejaVuSans-Bold-4c" d="M 588 4666 
L 1791 4666 
L 1791 909 
L 3903 909 
L 3903 0 
L 588 0 
L 588 4666 
z
" transform="scale(0.015625)"/>
      </defs>
      <use xlink:href="#DejaVuSans-Bold-52"/>
      <use xlink:href="#DejaVuSans-Bold-65" transform="translate(77.001953 0)"/>
      <use xlink:href="#DejaVuSans-Bold-66" transform="translate(144.824219 0)"/>
      <use xlink:href="#DejaVuSans-Bold-65" transform="translate(188.330078 0)"/>
      <use xlink:href="#DejaVuSans-Bold-72" transform="translate(256.152344 0)"/>
      <use xlink:href="#DejaVuSans-Bold-65" transform="translate(305.46875 0)"/>
      <use xlink:href="#DejaVuSans-Bold-6e" transform="translate(373.291016 0)"/>
      <use xlink:href="#DejaVuSans-Bold-63" transform="translate(444.482422 0)"/>
      <use xlink:href="#DejaVuSans-Bold-65" transform="translate(503.759766 0)"/>
      <use xlink:href="#DejaVuSans-Bold-20" transform="translate(571.582031 0)"/>
      <use xlink:href="#DejaVuSans-Bold-4c" transform="translate(606.396484 0)"/>
      <use xlink:href="#DejaVuSans-Bold-69" transform="translate(670.117188 0)"/>
      <use xlink:href="#DejaVuSans-Bold-6e" transform="translate(704.394531 0)"/>
      <use xlink:href="#DejaVuSans-Bold-65" transform="translate(775.585938 0)"/>
      <use xlink:href="#DejaVuSans-Bold-73" transform="translate(843.408203 0)"/>
     </g>
    </g>
    <g id="line2d_26">
     <path d="M 700.386406 618.591469 
L 709.386406 618.591469 
L 718.386406 618.591469 
" style="fill: none; stroke-dasharray: 2,3.3; stroke-dashoffset: 0; stroke: #2ecc71; stroke-width: 2"/>
    </g>
    <g id="text_23">
     <!-- Recovery Threshold (0.3) -->
     <g transform="translate(725.586406 621.741469) scale(0.09 -0.09)">
      <defs>
       <path id="DejaVuSans-79" d="M 2059 -325 
Q 1816 -950 1584 -1140 
Q 1353 -1331 966 -1331 
L 506 -1331 
L 506 -850 
L 844 -850 
Q 1081 -850 1212 -737 
Q 1344 -625 1503 -206 
L 1606 56 
L 191 3500 
L 800 3500 
L 1894 763 
L 2988 3500 
L 3597 3500 
L 2059 -325 
z
" transform="scale(0.015625)"/>
       <path id="DejaVuSans-68" d="M 3513 2113 
L 3513 0 
L 2938 0 
L 2938 2094 
Q 2938 2591 2744 2837 
Q 2550 3084 2163 3084 
Q 1697 3084 1428 2787 
Q 1159 2491 1159 1978 
L 1159 0 
L 581 0 
L 581 4863 
L 1159 4863 
L 1159 2956 
Q 1366 3272 1645 3428 
Q 1925 3584 2291 3584 
Q 2894 3584 3203 3211 
Q 3513 2838 3513 2113 
z
" transform="scale(0.015625)"/>
       <path id="DejaVuSans-33" d="M 2597 2516 
Q 3050 2419 3304 2112 
Q 3559 1806 3559 1356 
Q 3559 666 3084 287 
Q 2609 -91 1734 -91 
Q 1441 -91 1130 -33 
Q 819 25 488 141 
L 488 750 
Q 750 597 1062 519 
Q 1375 441 1716 441 
Q 2309 441 2620 675 
Q 2931 909 2931 1356 
Q 2931 1769 2642 2001 
Q 2353 2234 1838 2234 
L 1294 2234 
L 1294 2753 
L 1863 2753 
Q 2328 2753 2575 2939 
Q 2822 3125 2822 3475 
Q 2822 3834 2567 4026 
Q 2313 4219 1838 4219 
Q 1578 4219 1281 4162 
Q 984 4106 628 3988 
L 628 4550 
Q 988 4650 1302 4700 
Q 1616 4750 1894 4750 
Q 2613 4750 3031 4423 
Q 3450 4097 3450 3541 
Q 3450 3153 3228 2886 
Q 3006 2619 2597 2516 
z
" transform="scale(0.015625)"/>
      </defs>
      <use xlink:href="#DejaVuSans-52"/>
      <use xlink:href="#DejaVuSans-65" transform="translate(64.982422 0)"/>
      <use xlink:href="#DejaVuSans-63" transform="translate(126.505859 0)"/>
      <use xlink:href="#DejaVuSans-6f" transform="translate(181.486328 0)"/>
      <use xlink:href="#DejaVuSans-76" transform="translate(242.667969 0)"/>
      <use xlink:href="#DejaVuSans-65" transform="translate(301.847656 0)"/>
      <use xlink:href="#DejaVuSans-72" transform="translate(363.371094 0)"/>
      <use xlink:href="#DejaVuSans-79" transform="translate(404.484375 0)"/>
      <use xlink:href="#DejaVuSans-20" transform="translate(463.664062 0)"/>
      <use xlink:href="#DejaVuSans-54" transform="translate(495.451172 0)"/>
      <use xlink:href="#DejaVuSans-68" transform="translate(556.535156 0)"/>
      <use xlink:href="#DejaVuSans-72" transform="translate(619.914062 0)"/>
      <use xlink:href="#DejaVuSans-65" transform="translate(658.777344 0)"/>
      <use xlink:href="#DejaVuSans-73" transform="translate(720.300781 0)"/>
      <use xlink:href="#DejaVuSans-68" transform="translate(772.400391 0)"/>
      <use xlink:href="#DejaVuSans-6f" transform="translate(835.779297 0)"/>
      <use xlink:href="#DejaVuSans-6c" transform="translate(896.960938 0)"/>
      <use xlink:href="#DejaVuSans-64" transform="translate(924.744141 0)"/>
      <use xlink:href="#DejaVuSans-20" transform="translate(988.220703 0)"/>
      <use xlink:href="#DejaVuSans-28" transform="translate(1020.007812 0)"/>
      <use xlink:href="#DejaVuSans-30" transform="translate(1059.021484 0)"/>
      <use xlink:href="#DejaVuSans-2e" transform="translate(1122.644531 0)"/>
      <use xlink:href="#DejaVuSans-33" transform="translate(1154.431641 0)"/>
      <use xlink:href="#DejaVuSans-29" transform="translate(1218.054688 0)"/>
     </g>
    </g>
    <g id="line2d_27">
     <path d="M 700.386406 631.801781 
L 709.386406 631.801781 
L 718.386406 631.801781 
" style="fill: none; stroke-dasharray: 2,3.3; stroke-dashoffset: 0; stroke: #3498db; stroke-width: 2"/>
    </g>
    <g id="text_24">
     <!-- Response Threshold (0.5) -->
     <g transform="translate(725.586406 634.951781) scale(0.09 -0.09)">
      <defs>
       <path id="DejaVuSans-70" d="M 1159 525 
L 1159 -1331 
L 581 -1331 
L 581 3500 
L 1159 3500 
L 1159 2969 
Q 1341 3281 1617 3432 
Q 1894 3584 2278 3584 
Q 2916 3584 3314 3078 
Q 3713 2572 3713 1747 
Q 3713 922 3314 415 
Q 2916 -91 2278 -91 
Q 1894 -91 1617 61 
Q 1341 213 1159 525 
z
M 3116 1747 
Q 3116 2381 2855 2742 
Q 2594 3103 2138 3103 
Q 1681 3103 1420 2742 
Q 1159 2381 1159 1747 
Q 1159 1113 1420 752 
Q 1681 391 2138 391 
Q 2594 391 2855 752 
Q 3116 1113 3116 1747 
z
" transform="scale(0.015625)"/>
       <path id="DejaVuSans-6e" d="M 3513 2113 
L 3513 0 
L 2938 0 
L 2938 2094 
Q 2938 2591 2744 2837 
Q 2550 3084 2163 3084 
Q 1697 3084 1428 2787 
Q 1159 2491 1159 1978 
L 1159 0 
L 581 0 
L 581 3500 
L 1159 3500 
L 1159 2956 
Q 1366 3272 1645 3428 
Q 1925 3584 2291 3584 
Q 2894 3584 3203 3211 
Q 3513 2838 3513 2113 
z
" transform="scale(0.015625)"/>
       <path id="DejaVuSans-35" d="M 691 4666 
L 3169 4666 
L 3169 4134 
L 1269 4134 
L 1269 2991 
Q 1406 3038 1543 3061 
Q 1681 3084 1819 3084 
Q 2600 3084 3056 2656 
Q 3513 2228 3513 1497 
Q 3513 744 3044 326 
Q 2575 -91 1722 -91 
Q 1428 -91 1123 -41 
Q 819 9 494 109 
L 494 744 
Q 775 591 1075 516 
Q 1375 441 1709 441 
Q 2250 441 2565 725 
Q 2881 1009 2881 1497 
Q 2881 1984 2565 2268 
Q 2250 2553 1709 2553 
Q 1456 2553 1204 2497 
Q 953 2441 691 2322 
L 691 4666 
z
" transform="scale(0.015625)"/>
      </defs>
      <use xlink:href="#DejaVuSans-52"/>
      <use xlink:href="#DejaVuSans-65" transform="translate(64.982422 0)"/>
      <use xlink:href="#DejaVuSans-73" transform="translate(126.505859 0)"/>
      <use xlink:href="#DejaVuSans-70" transform="translate(178.605469 0)"/>
      <use xlink:href="#DejaVuSans-6f" transform="translate(242.082031 0)"/>
      <use xlink:href="#DejaVuSans-6e" transform="translate(303.263672 0)"/>
      <use xlink:href="#DejaVuSans-73" transform="translate(366.642578 0)"/>
      <use xlink:href="#DejaVuSans-65" transform="translate(418.742188 0)"/>
      <use xlink:href="#DejaVuSans-20" transform="translate(480.265625 0)"/>
      <use xlink:href="#DejaVuSans-54" transform="translate(512.052734 0)"/>
      <use xlink:href="#DejaVuSans-68" transform="translate(573.136719 0)"/>
      <use xlink:href="#DejaVuSans-72" transform="translate(636.515625 0)"/>
      <use xlink:href="#DejaVuSans-65" transform="translate(675.378906 0)"/>
      <use xlink:href="#DejaVuSans-73" transform="translate(736.902344 0)"/>
      <use xlink:href="#DejaVuSans-68" transform="translate(789.001953 0)"/>
      <use xlink:href="#DejaVuSans-6f" transform="translate(852.380859 0)"/>
      <use xlink:href="#DejaVuSans-6c" transform="translate(913.5625 0)"/>
      <use xlink:href="#DejaVuSans-64" transform="translate(941.345703 0)"/>
      <use xlink:href="#DejaVuSans-20" transform="translate(1004.822266 0)"/>
      <use xlink:href="#DejaVuSans-28" transform="translate(1036.609375 0)"/>
      <use xlink:href="#DejaVuSans-30" transform="translate(1075.623047 0)"/>
      <use xlink:href="#DejaVuSans-2e" transform="translate(1139.246094 0)"/>
      <use xlink:href="#DejaVuSans-35" transform="translate(1171.033203 0)"/>
      <use xlink:href="#DejaVuSans-29" transform="translate(1234.65625 0)"/>
     </g>
    </g>
    <g id="line2d_28">
     <path d="M 700.386406 645.012094 
L 709.386406 645.012094 
L 718.386406 645.012094 
" style="fill: none; stroke-dasharray: 7.4,3.2; stroke-dashoffset: 0; stroke: #ff4444; stroke-width: 2"/>
    </g>
    <g id="text_25">
     <!-- Event Horizon (0.80) -->
     <g transform="translate(725.586406 648.162094) scale(0.09 -0.09)">
      <defs>
       <path id="DejaVuSans-69" d="M 603 3500 
L 1178 3500 
L 1178 0 
L 603 0 
L 603 3500 
z
M 603 4863 
L 1178 4863 
L 1178 4134 
L 603 4134 
L 603 4863 
z
" transform="scale(0.015625)"/>
       <path id="DejaVuSans-7a" d="M 353 3500 
L 3084 3500 
L 3084 2975 
L 922 459 
L 3084 459 
L 3084 0 
L 275 0 
L 275 525 
L 2438 3041 
L 353 3041 
L 353 3500 
z
" transform="scale(0.015625)"/>
      </defs>
      <use xlink:href="#DejaVuSans-45"/>
      <use xlink:href="#DejaVuSans-76" transform="translate(63.183594 0)"/>
      <use xlink:href="#DejaVuSans-65" transform="translate(122.363281 0)"/>
      <use xlink:href="#DejaVuSans-6e" transform="translate(183.886719 0)"/>
      <use xlink:href="#DejaVuSans-74" transform="translate(247.265625 0)"/>
      <use xlink:href="#DejaVuSans-20" transform="translate(286.474609 0)"/>
      <use xlink:href="#DejaVuSans-48" transform="translate(318.261719 0)"/>
      <use xlink:href="#DejaVuSans-6f" transform="translate(393.457031 0)"/>
      <use xlink:href="#DejaVuSans-72" transform="translate(454.638672 0)"/>
      <use xlink:href="#DejaVuSans-69" transform="translate(495.751953 0)"/>
      <use xlink:href="#DejaVuSans-7a" transform="translate(523.535156 0)"/>
      <use xlink:href="#DejaVuSans-6f" transform="translate(576.025391 0)"/>
      <use xlink:href="#DejaVuSans-6e" transform="translate(637.207031 0)"/>
      <use xlink:href="#DejaVuSans-20" transform="translate(700.585938 0)"/>
      <use xlink:href="#DejaVuSans-28" transform="translate(732.373047 0)"/>
      <use xlink:href="#DejaVuSans-30" transform="translate(771.386719 0)"/>
      <use xlink:href="#DejaVuSans-2e" transform="translate(835.009766 0)"/>
      <use xlink:href="#DejaVuSans-38" transform="translate(866.796875 0)"/>
      <use xlink:href="#DejaVuSans-30" transform="translate(930.419922 0)"/>
      <use xlink:href="#DejaVuSans-29" transform="translate(994.042969 0)"/>
     </g>
    </g>
    <g id="line2d_29">
     <path d="M 700.386406 658.222406 
L 709.386406 658.222406 
L 718.386406 658.222406 
" style="fill: none; stroke-dasharray: 5.55,2.4; stroke-dashoffset: 0; stroke: #95a5a6; stroke-width: 1.5"/>
    </g>
    <g id="text_26">
     <!-- No Recovery (x=y) -->
     <g transform="translate(725.586406 661.372406) scale(0.09 -0.09)">
      <defs>
       <path id="DejaVuSans-78" d="M 3513 3500 
L 2247 1797 
L 3578 0 
L 2900 0 
L 1881 1375 
L 863 0 
L 184 0 
L 1544 1831 
L 300 3500 
L 978 3500 
L 1906 2253 
L 2834 3500 
L 3513 3500 
z
" transform="scale(0.015625)"/>
       <path id="DejaVuSans-3d" d="M 678 2906 
L 4684 2906 
L 4684 2381 
L 678 2381 
L 678 2906 
z
M 678 1631 
L 4684 1631 
L 4684 1100 
L 678 1100 
L 678 1631 
z
" transform="scale(0.015625)"/>
      </defs>
      <use xlink:href="#DejaVuSans-4e"/>
      <use xlink:href="#DejaVuSans-6f" transform="translate(74.804688 0)"/>
      <use xlink:href="#DejaVuSans-20" transform="translate(135.986328 0)"/>
      <use xlink:href="#DejaVuSans-52" transform="translate(167.773438 0)"/>
      <use xlink:href="#DejaVuSans-65" transform="translate(232.755859 0)"/>
      <use xlink:href="#DejaVuSans-63" transform="translate(294.279297 0)"/>
      <use xlink:href="#DejaVuSans-6f" transform="translate(349.259766 0)"/>
      <use xlink:href="#DejaVuSans-76" transform="translate(410.441406 0)"/>
      <use xlink:href="#DejaVuSans-65" transform="translate(469.621094 0)"/>
      <use xlink:href="#DejaVuSans-72" transform="translate(531.144531 0)"/>
      <use xlink:href="#DejaVuSans-79" transform="translate(572.257812 0)"/>
      <use xlink:href="#DejaVuSans-20" transform="translate(631.4375 0)"/>
      <use xlink:href="#DejaVuSans-28" transform="translate(663.224609 0)"/>
      <use xlink:href="#DejaVuSans-78" transform="translate(702.238281 0)"/>
      <use xlink:href="#DejaVuSans-3d" transform="translate(761.417969 0)"/>
      <use xlink:href="#DejaVuSans-79" transform="translate(845.207031 0)"/>
      <use xlink:href="#DejaVuSans-29" transform="translate(904.386719 0)"/>
     </g>
    </g>
   </g>
  </g>
 </g>
 <defs>
  <clipPath id="pb9c55355e3">
   <rect x="45.716875" y="39.624125" width="802.6" height="631.72"/>
  </clipPath>
 </defs>
</svg>
